G04 DipTrace 2.4.0.2*
%INBottomSilk.gbr*%
%MOIN*%
%ADD10C,0.0098*%
%ADD13C,0.0014*%
%ADD120C,0.0046*%
%FSLAX44Y44*%
G04*
G70*
G90*
G75*
G01*
%LNBotSilk*%
%LPD*%
X10500Y500D2*
D10*
X18500D1*
Y1500D1*
X10500D1*
Y500D1*
X8900Y19500D2*
X16900D1*
Y20500D1*
X8900D1*
Y19500D1*
X36500Y20500D2*
X38500D1*
Y2500D1*
X36500D1*
Y20500D1*
X19500Y500D2*
X27500D1*
Y1500D1*
X19500D1*
Y500D1*
X17500Y19500D2*
X25500D1*
Y20500D1*
X17500D1*
Y19500D1*
X28500Y500D2*
X36500D1*
Y1500D1*
X28500D1*
Y500D1*
X26500Y19500D2*
X34500D1*
Y20500D1*
X26500D1*
Y19500D1*
X0Y4750D2*
D13*
X4500D1*
Y1250D1*
X0D1*
Y4750D1*
Y17250D2*
X3750D1*
Y12750D1*
X0D1*
Y17250D1*
G36*
Y17437D2*
X5750D1*
Y12250D1*
X0D1*
Y17437D1*
G37*
X14511Y1939D2*
D120*
Y1710D1*
X14525Y1667D1*
X14539Y1652D1*
X14568Y1638D1*
X14597D1*
X14625Y1652D1*
X14640Y1667D1*
X14654Y1710D1*
Y1738D1*
X14418Y1882D2*
X14389Y1896D1*
X14346Y1939D1*
Y1638D1*
X12975Y20939D2*
Y20710D1*
X12989Y20667D1*
X13004Y20652D1*
X13032Y20638D1*
X13061D1*
X13090Y20652D1*
X13104Y20667D1*
X13119Y20710D1*
Y20738D1*
X12868Y20867D2*
Y20882D1*
X12854Y20910D1*
X12839Y20925D1*
X12810Y20939D1*
X12753D1*
X12725Y20925D1*
X12710Y20910D1*
X12696Y20882D1*
Y20853D1*
X12710Y20824D1*
X12739Y20781D1*
X12882Y20638D1*
X12681D1*
X37575Y20939D2*
Y20710D1*
X37589Y20667D1*
X37604Y20652D1*
X37632Y20638D1*
X37661D1*
X37690Y20652D1*
X37704Y20667D1*
X37719Y20710D1*
Y20738D1*
X37454Y20939D2*
X37296D1*
X37382Y20824D1*
X37339D1*
X37310Y20810D1*
X37296Y20796D1*
X37281Y20753D1*
Y20724D1*
X37296Y20681D1*
X37325Y20652D1*
X37368Y20638D1*
X37411D1*
X37454Y20652D1*
X37468Y20667D1*
X37482Y20695D1*
X23582Y1939D2*
Y1710D1*
X23596Y1667D1*
X23611Y1652D1*
X23640Y1638D1*
X23668D1*
X23697Y1652D1*
X23711Y1667D1*
X23726Y1710D1*
Y1738D1*
X23346Y1638D2*
Y1939D1*
X23489Y1738D1*
X23274D1*
X21575Y20939D2*
Y20710D1*
X21589Y20667D1*
X21604Y20652D1*
X21632Y20638D1*
X21661D1*
X21690Y20652D1*
X21704Y20667D1*
X21719Y20710D1*
Y20738D1*
X21310Y20939D2*
X21454D1*
X21468Y20810D1*
X21454Y20824D1*
X21410Y20839D1*
X21368D1*
X21325Y20824D1*
X21296Y20796D1*
X21281Y20753D1*
Y20724D1*
X21296Y20681D1*
X21325Y20652D1*
X21368Y20638D1*
X21410D1*
X21454Y20652D1*
X21468Y20667D1*
X21482Y20695D1*
X31887Y1939D2*
Y1710D1*
X31902Y1667D1*
X31916Y1652D1*
X31945Y1638D1*
X31974D1*
X32002Y1652D1*
X32016Y1667D1*
X32031Y1710D1*
Y1738D1*
X31737Y1638D2*
X31594Y1939D1*
X31795D1*
X30575Y20939D2*
Y20710D1*
X30589Y20667D1*
X30604Y20652D1*
X30632Y20638D1*
X30661D1*
X30690Y20652D1*
X30704Y20667D1*
X30718Y20710D1*
Y20738D1*
X30411Y20939D2*
X30453Y20925D1*
X30468Y20896D1*
Y20867D1*
X30453Y20839D1*
X30425Y20824D1*
X30367Y20810D1*
X30324Y20796D1*
X30296Y20767D1*
X30282Y20738D1*
Y20695D1*
X30296Y20667D1*
X30310Y20652D1*
X30353Y20638D1*
X30411D1*
X30453Y20652D1*
X30468Y20667D1*
X30482Y20695D1*
Y20738D1*
X30468Y20767D1*
X30439Y20796D1*
X30396Y20810D1*
X30339Y20824D1*
X30310Y20839D1*
X30296Y20867D1*
Y20896D1*
X30310Y20925D1*
X30353Y20939D1*
X30411D1*
X7498Y15503D2*
X7800D1*
X7498Y15604D2*
Y15403D1*
X7656Y15310D2*
Y15181D1*
X7642Y15138D1*
X7627Y15124D1*
X7599Y15109D1*
X7556D1*
X7527Y15124D1*
X7512Y15138D1*
X7498Y15181D1*
Y15310D1*
X7800D1*
X7556Y15017D2*
X7541Y14988D1*
X7498Y14945D1*
X7800D1*
X7498Y14766D2*
X7513Y14809D1*
X7556Y14838D1*
X7627Y14852D1*
X7671D1*
X7742Y14838D1*
X7785Y14809D1*
X7800Y14766D1*
Y14737D1*
X7785Y14694D1*
X7742Y14666D1*
X7671Y14651D1*
X7627D1*
X7556Y14666D1*
X7513Y14694D1*
X7498Y14737D1*
Y14766D1*
X7556Y14666D2*
X7742Y14838D1*
X7556Y14559D2*
X7541Y14530D1*
X7498Y14487D1*
X7800D1*
X8623Y15505D2*
X8925D1*
X8623Y15606D2*
Y15405D1*
X8781Y15312D2*
Y15183D1*
X8767Y15140D1*
X8752Y15126D1*
X8724Y15111D1*
X8681D1*
X8652Y15126D1*
X8637Y15140D1*
X8623Y15183D1*
Y15312D1*
X8925D1*
X8681Y15019D2*
X8666Y14990D1*
X8623Y14947D1*
X8925D1*
X8623Y14768D2*
X8638Y14811D1*
X8681Y14840D1*
X8752Y14854D1*
X8796D1*
X8867Y14840D1*
X8910Y14811D1*
X8925Y14768D1*
Y14739D1*
X8910Y14696D1*
X8867Y14668D1*
X8796Y14653D1*
X8752D1*
X8681Y14668D1*
X8638Y14696D1*
X8623Y14739D1*
Y14768D1*
X8681Y14668D2*
X8867Y14840D1*
X8695Y14546D2*
X8681D1*
X8652Y14532D1*
X8638Y14517D1*
X8623Y14489D1*
Y14431D1*
X8638Y14403D1*
X8652Y14388D1*
X8681Y14374D1*
X8709D1*
X8738Y14388D1*
X8781Y14417D1*
X8925Y14561D1*
Y14360D1*
X9686Y15505D2*
X9987D1*
X9686Y15606D2*
Y15405D1*
X9844Y15312D2*
Y15183D1*
X9829Y15140D1*
X9815Y15126D1*
X9786Y15111D1*
X9743D1*
X9715Y15126D1*
X9700Y15140D1*
X9686Y15183D1*
Y15312D1*
X9987D1*
X9743Y15019D2*
X9729Y14990D1*
X9686Y14947D1*
X9987D1*
X9686Y14768D2*
X9700Y14811D1*
X9743Y14840D1*
X9815Y14854D1*
X9858D1*
X9930Y14840D1*
X9973Y14811D1*
X9987Y14768D1*
Y14739D1*
X9973Y14696D1*
X9930Y14668D1*
X9858Y14653D1*
X9815D1*
X9743Y14668D1*
X9700Y14696D1*
X9686Y14739D1*
Y14768D1*
X9743Y14668D2*
X9930Y14840D1*
X9686Y14532D2*
Y14374D1*
X9801Y14460D1*
Y14417D1*
X9815Y14388D1*
X9829Y14374D1*
X9872Y14360D1*
X9901D1*
X9944Y14374D1*
X9973Y14403D1*
X9987Y14446D1*
Y14489D1*
X9973Y14532D1*
X9958Y14546D1*
X9930Y14561D1*
X52773Y5485D2*
Y5183D1*
X52873Y5485D2*
X52672D1*
X52580Y5327D2*
X52450D1*
X52407Y5341D1*
X52393Y5356D1*
X52379Y5384D1*
Y5427D1*
X52393Y5456D1*
X52407Y5470D1*
X52450Y5485D1*
X52580D1*
Y5183D1*
X52271Y5413D2*
Y5427D1*
X52257Y5456D1*
X52243Y5470D1*
X52214Y5484D1*
X52157D1*
X52128Y5470D1*
X52114Y5456D1*
X52099Y5427D1*
Y5398D1*
X52114Y5370D1*
X52142Y5327D1*
X52286Y5183D1*
X52085D1*
X51906Y5484D2*
X51949Y5470D1*
X51978Y5427D1*
X51992Y5355D1*
Y5312D1*
X51978Y5241D1*
X51949Y5197D1*
X51906Y5183D1*
X51878D1*
X51835Y5197D1*
X51806Y5241D1*
X51791Y5312D1*
Y5355D1*
X51806Y5427D1*
X51835Y5470D1*
X51878Y5484D1*
X51906D1*
X51806Y5427D2*
X51978Y5241D1*
X51699Y5427D2*
X51670Y5441D1*
X51627Y5484D1*
Y5183D1*
X44900Y17172D2*
Y16871D1*
X45000Y17172D2*
X44799D1*
X44707Y17014D2*
X44577D1*
X44534Y17029D1*
X44520Y17043D1*
X44506Y17072D1*
Y17115D1*
X44520Y17143D1*
X44534Y17158D1*
X44577Y17172D1*
X44707D1*
Y16871D1*
X44398Y17100D2*
Y17115D1*
X44384Y17143D1*
X44370Y17158D1*
X44341Y17172D1*
X44284D1*
X44255Y17158D1*
X44241Y17143D1*
X44226Y17115D1*
Y17086D1*
X44241Y17057D1*
X44269Y17014D1*
X44413Y16871D1*
X44212D1*
X44033Y17172D2*
X44076Y17158D1*
X44105Y17115D1*
X44119Y17043D1*
Y17000D1*
X44105Y16928D1*
X44076Y16885D1*
X44033Y16871D1*
X44005D1*
X43961Y16885D1*
X43933Y16928D1*
X43918Y17000D1*
Y17043D1*
X43933Y17115D1*
X43961Y17158D1*
X44005Y17172D1*
X44033D1*
X43933Y17115D2*
X44105Y16928D1*
X43811Y17100D2*
Y17115D1*
X43797Y17143D1*
X43783Y17158D1*
X43754Y17172D1*
X43696D1*
X43668Y17158D1*
X43654Y17143D1*
X43639Y17115D1*
Y17086D1*
X43654Y17057D1*
X43682Y17014D1*
X43826Y16871D1*
X43625D1*
X44900Y18110D2*
Y17808D1*
X45000Y18110D2*
X44799D1*
X44707Y17952D2*
X44577D1*
X44534Y17966D1*
X44520Y17981D1*
X44506Y18009D1*
Y18052D1*
X44520Y18081D1*
X44534Y18095D1*
X44577Y18110D1*
X44707D1*
Y17808D1*
X44398Y18038D2*
Y18052D1*
X44384Y18081D1*
X44370Y18095D1*
X44341Y18109D1*
X44284D1*
X44255Y18095D1*
X44241Y18081D1*
X44226Y18052D1*
Y18023D1*
X44241Y17994D1*
X44269Y17952D1*
X44413Y17808D1*
X44212D1*
X44033Y18109D2*
X44076Y18095D1*
X44105Y18052D1*
X44119Y17980D1*
Y17937D1*
X44105Y17865D1*
X44076Y17822D1*
X44033Y17808D1*
X44005D1*
X43961Y17822D1*
X43933Y17865D1*
X43918Y17937D1*
Y17980D1*
X43933Y18052D1*
X43961Y18095D1*
X44005Y18109D1*
X44033D1*
X43933Y18052D2*
X44105Y17865D1*
X43797Y18109D2*
X43639D1*
X43725Y17994D1*
X43682D1*
X43654Y17980D1*
X43639Y17966D1*
X43625Y17923D1*
Y17894D1*
X43639Y17851D1*
X43668Y17822D1*
X43711Y17808D1*
X43754D1*
X43797Y17822D1*
X43811Y17837D1*
X43826Y17865D1*
X52844Y4547D2*
Y4246D1*
X52945Y4547D2*
X52744D1*
X52651Y4389D2*
X52522D1*
X52479Y4404D1*
X52464Y4418D1*
X52450Y4447D1*
Y4490D1*
X52464Y4518D1*
X52479Y4533D1*
X52522Y4547D1*
X52651D1*
Y4246D1*
X52343Y4475D2*
Y4489D1*
X52329Y4518D1*
X52314Y4533D1*
X52286Y4547D1*
X52228D1*
X52200Y4533D1*
X52185Y4518D1*
X52171Y4489D1*
Y4461D1*
X52185Y4432D1*
X52214Y4389D1*
X52358Y4246D1*
X52157D1*
X51978Y4547D2*
X52021Y4533D1*
X52050Y4489D1*
X52064Y4418D1*
Y4375D1*
X52050Y4303D1*
X52021Y4260D1*
X51978Y4246D1*
X51949D1*
X51906Y4260D1*
X51878Y4303D1*
X51863Y4375D1*
Y4418D1*
X51878Y4489D1*
X51906Y4533D1*
X51949Y4547D1*
X51978D1*
X51878Y4489D2*
X52050Y4303D1*
X51627Y4246D2*
Y4547D1*
X51770Y4346D1*
X51555D1*
X51405Y16424D2*
Y16122D1*
X51506Y16424D2*
X51305D1*
X51212Y16266D2*
X51083D1*
X51040Y16280D1*
X51025Y16295D1*
X51011Y16323D1*
Y16366D1*
X51025Y16395D1*
X51040Y16410D1*
X51083Y16424D1*
X51212D1*
Y16122D1*
X50904Y16352D2*
Y16366D1*
X50890Y16395D1*
X50875Y16409D1*
X50846Y16423D1*
X50789D1*
X50761Y16409D1*
X50746Y16395D1*
X50732Y16366D1*
Y16338D1*
X50746Y16309D1*
X50775Y16266D1*
X50918Y16122D1*
X50717D1*
X50539Y16423D2*
X50582Y16409D1*
X50611Y16366D1*
X50625Y16294D1*
Y16251D1*
X50611Y16180D1*
X50582Y16137D1*
X50539Y16122D1*
X50510D1*
X50467Y16137D1*
X50438Y16180D1*
X50424Y16251D1*
Y16294D1*
X50438Y16366D1*
X50467Y16409D1*
X50510Y16423D1*
X50539D1*
X50438Y16366D2*
X50611Y16180D1*
X50159Y16423D2*
X50302D1*
X50317Y16294D1*
X50302Y16309D1*
X50259Y16323D1*
X50217D1*
X50173Y16309D1*
X50145Y16280D1*
X50130Y16237D1*
Y16209D1*
X50145Y16165D1*
X50173Y16137D1*
X50217Y16122D1*
X50259D1*
X50302Y16137D1*
X50317Y16151D1*
X50331Y16180D1*
X51335Y18799D2*
Y18498D1*
X51436Y18799D2*
X51235D1*
X51142Y18641D2*
X51013D1*
X50970Y18655D1*
X50956Y18670D1*
X50941Y18699D1*
Y18742D1*
X50956Y18770D1*
X50970Y18785D1*
X51013Y18799D1*
X51142D1*
Y18498D1*
X50834Y18727D2*
Y18741D1*
X50820Y18770D1*
X50806Y18784D1*
X50777Y18799D1*
X50719D1*
X50691Y18784D1*
X50677Y18770D1*
X50662Y18741D1*
Y18713D1*
X50677Y18684D1*
X50705Y18641D1*
X50849Y18498D1*
X50648D1*
X50469Y18799D2*
X50512Y18784D1*
X50541Y18741D1*
X50555Y18670D1*
Y18627D1*
X50541Y18555D1*
X50512Y18512D1*
X50469Y18498D1*
X50440D1*
X50397Y18512D1*
X50369Y18555D1*
X50354Y18627D1*
Y18670D1*
X50369Y18741D1*
X50397Y18784D1*
X50440Y18799D1*
X50469D1*
X50369Y18741D2*
X50541Y18555D1*
X50089Y18756D2*
X50104Y18784D1*
X50147Y18799D1*
X50175D1*
X50218Y18784D1*
X50247Y18741D1*
X50261Y18670D1*
Y18598D1*
X50247Y18541D1*
X50218Y18512D1*
X50175Y18498D1*
X50161D1*
X50118Y18512D1*
X50089Y18541D1*
X50075Y18584D1*
Y18598D1*
X50089Y18641D1*
X50118Y18670D1*
X50161Y18684D1*
X50175D1*
X50218Y18670D1*
X50247Y18641D1*
X50261Y18598D1*
X47936Y10945D2*
X48237D1*
X47936Y11045D2*
Y10844D1*
X48094Y10752D2*
Y10623D1*
X48079Y10580D1*
X48065Y10565D1*
X48036Y10551D1*
X47993D1*
X47965Y10565D1*
X47950Y10580D1*
X47936Y10623D1*
Y10752D1*
X48237D1*
X48008Y10444D2*
X47993D1*
X47965Y10429D1*
X47950Y10415D1*
X47936Y10386D1*
Y10329D1*
X47950Y10300D1*
X47965Y10286D1*
X47993Y10272D1*
X48022D1*
X48051Y10286D1*
X48094Y10315D1*
X48237Y10458D1*
Y10257D1*
X47936Y10078D2*
X47950Y10122D1*
X47993Y10150D1*
X48065Y10165D1*
X48108D1*
X48180Y10150D1*
X48223Y10122D1*
X48237Y10078D1*
Y10050D1*
X48223Y10007D1*
X48180Y9978D1*
X48108Y9964D1*
X48065D1*
X47993Y9978D1*
X47950Y10007D1*
X47936Y10050D1*
Y10078D1*
X47993Y9978D2*
X48180Y10150D1*
X48237Y9814D2*
X47936Y9670D1*
Y9871D1*
X50248Y10945D2*
X50550D1*
X50248Y11045D2*
Y10844D1*
X50406Y10752D2*
Y10622D1*
X50392Y10580D1*
X50377Y10565D1*
X50349Y10551D1*
X50306D1*
X50277Y10565D1*
X50262Y10580D1*
X50248Y10622D1*
Y10752D1*
X50550D1*
X50320Y10444D2*
X50306D1*
X50277Y10429D1*
X50263Y10415D1*
X50248Y10386D1*
Y10329D1*
X50263Y10300D1*
X50277Y10286D1*
X50306Y10271D1*
X50334D1*
X50363Y10286D1*
X50406Y10315D1*
X50550Y10458D1*
Y10257D1*
X50248Y10078D2*
X50263Y10121D1*
X50306Y10150D1*
X50377Y10165D1*
X50421D1*
X50492Y10150D1*
X50535Y10121D1*
X50550Y10078D1*
Y10050D1*
X50535Y10007D1*
X50492Y9978D1*
X50421Y9964D1*
X50377D1*
X50306Y9978D1*
X50263Y10007D1*
X50248Y10050D1*
Y10078D1*
X50306Y9978D2*
X50492Y10150D1*
X50248Y9799D2*
X50263Y9842D1*
X50291Y9857D1*
X50320D1*
X50349Y9842D1*
X50363Y9814D1*
X50377Y9756D1*
X50392Y9713D1*
X50421Y9685D1*
X50449Y9670D1*
X50492D1*
X50521Y9685D1*
X50535Y9699D1*
X50550Y9742D1*
Y9799D1*
X50535Y9842D1*
X50521Y9857D1*
X50492Y9871D1*
X50449D1*
X50421Y9857D1*
X50392Y9828D1*
X50377Y9785D1*
X50363Y9728D1*
X50349Y9699D1*
X50320Y9685D1*
X50291D1*
X50263Y9699D1*
X50248Y9742D1*
Y9799D1*
X2811Y10568D2*
X3112D1*
X2811Y10668D2*
Y10467D1*
X2969Y10375D2*
Y10246D1*
X2954Y10203D1*
X2940Y10188D1*
X2911Y10174D1*
X2868D1*
X2840Y10188D1*
X2825Y10203D1*
X2811Y10246D1*
Y10375D1*
X3112D1*
X2811Y9909D2*
Y10052D1*
X2940Y10067D1*
X2926Y10052D1*
X2911Y10009D1*
Y9967D1*
X2926Y9923D1*
X2954Y9895D1*
X2997Y9880D1*
X3026D1*
X3069Y9895D1*
X3098Y9923D1*
X3112Y9967D1*
Y10009D1*
X3098Y10052D1*
X3083Y10067D1*
X3055Y10081D1*
X2811Y9701D2*
X2825Y9745D1*
X2868Y9773D1*
X2940Y9788D1*
X2983D1*
X3055Y9773D1*
X3098Y9745D1*
X3112Y9701D1*
Y9673D1*
X3098Y9630D1*
X3055Y9601D1*
X2983Y9587D1*
X2940D1*
X2868Y9601D1*
X2825Y9630D1*
X2811Y9673D1*
Y9701D1*
X2868Y9601D2*
X3055Y9773D1*
X2868Y9494D2*
X2854Y9465D1*
X2811Y9422D1*
X3112D1*
X5123Y10632D2*
X5425D1*
X5123Y10733D2*
Y10532D1*
X5281Y10439D2*
Y10310D1*
X5267Y10267D1*
X5252Y10253D1*
X5224Y10238D1*
X5181D1*
X5152Y10253D1*
X5137Y10267D1*
X5123Y10310D1*
Y10439D1*
X5425D1*
X5124Y9974D2*
Y10117D1*
X5252Y10131D1*
X5238Y10117D1*
X5224Y10074D1*
Y10031D1*
X5238Y9988D1*
X5267Y9959D1*
X5310Y9945D1*
X5338D1*
X5381Y9959D1*
X5410Y9988D1*
X5425Y10031D1*
Y10074D1*
X5410Y10117D1*
X5396Y10131D1*
X5367Y10146D1*
X5124Y9766D2*
X5138Y9809D1*
X5181Y9838D1*
X5252Y9852D1*
X5296D1*
X5367Y9838D1*
X5410Y9809D1*
X5425Y9766D1*
Y9737D1*
X5410Y9694D1*
X5367Y9666D1*
X5296Y9651D1*
X5252D1*
X5181Y9666D1*
X5138Y9694D1*
X5124Y9737D1*
Y9766D1*
X5181Y9666D2*
X5367Y9838D1*
X5195Y9544D2*
X5181D1*
X5152Y9530D1*
X5138Y9515D1*
X5124Y9487D1*
X5123Y9429D1*
X5138Y9401D1*
X5152Y9386D1*
X5181Y9372D1*
X5209D1*
X5238Y9386D1*
X5281Y9415D1*
X5425Y9559D1*
Y9358D1*
X34650Y2234D2*
Y1933D1*
X34750Y2234D2*
X34549D1*
X34457Y2077D2*
X34327D1*
X34284Y2091D1*
X34270Y2105D1*
X34256Y2134D1*
Y2177D1*
X34270Y2206D1*
X34284Y2220D1*
X34327Y2234D1*
X34457D1*
Y1933D1*
X33991Y2234D2*
X34134D1*
X34148Y2105D1*
X34134Y2119D1*
X34091Y2134D1*
X34048D1*
X34005Y2119D1*
X33976Y2091D1*
X33962Y2048D1*
Y2019D1*
X33976Y1976D1*
X34005Y1947D1*
X34048Y1933D1*
X34091D1*
X34134Y1947D1*
X34148Y1962D1*
X34163Y1990D1*
X33783Y2234D2*
X33826Y2220D1*
X33855Y2177D1*
X33869Y2105D1*
Y2062D1*
X33855Y1990D1*
X33826Y1947D1*
X33783Y1933D1*
X33755D1*
X33712Y1947D1*
X33683Y1990D1*
X33668Y2062D1*
Y2105D1*
X33683Y2177D1*
X33712Y2220D1*
X33755Y2234D1*
X33783D1*
X33683Y2177D2*
X33855Y1990D1*
X33547Y2234D2*
X33389D1*
X33475Y2119D1*
X33432D1*
X33404Y2105D1*
X33389Y2091D1*
X33375Y2048D1*
Y2019D1*
X33389Y1976D1*
X33418Y1947D1*
X33461Y1933D1*
X33504D1*
X33547Y1947D1*
X33561Y1962D1*
X33576Y1990D1*
M02*
