G04 DipTrace 2.4.0.2*
%INBottom.gbr*%
%MOIN*%
%ADD14C,0.03*%
%ADD16C,0.013*%
%ADD19C,0.01*%
%ADD20C,0.02*%
%ADD34R,0.0669X0.0669*%
%ADD35C,0.0669*%
%ADD36R,0.0709X0.0709*%
%ADD37C,0.0709*%
%ADD38R,0.063X0.063*%
%ADD39C,0.063*%
%ADD40R,0.0748X0.0984*%
%ADD41O,0.0748X0.0984*%
%ADD45R,0.0748X0.0748*%
%ADD46C,0.0748*%
%ADD50C,0.0591*%
%ADD59C,0.024*%
%FSLAX44Y44*%
G04*
G70*
G90*
G75*
G01*
%LNBottom*%
%LPD*%
X1500Y18250D2*
D14*
X1187Y17937D1*
Y5812D1*
X1937Y5062D1*
X4062D1*
Y3875D1*
X625D1*
Y750D1*
X937Y437D1*
X10062D1*
X32253Y5501D2*
D16*
Y7375D1*
X7750Y17250D2*
D14*
Y16250D1*
X45005Y11250D2*
D16*
X45312D1*
Y12688D1*
X45249Y12751D1*
X43067D1*
X42318Y13500D1*
X39381D1*
X39000Y13881D1*
Y20875D1*
X38875Y21000D1*
X17250D1*
X17000Y20750D1*
Y18563D1*
X8812D1*
X7937Y17688D1*
D14*
Y17437D1*
X7750Y17250D1*
X53375Y5187D2*
D16*
X54437D1*
Y20937D1*
X43000D1*
Y20000D1*
X9750Y17250D2*
D14*
Y16250D1*
X45005Y11876D2*
D16*
Y12500D1*
X39818D1*
X38625Y13693D1*
Y20750D1*
X17562D1*
X17437Y20625D1*
Y18000D1*
X10000D1*
X9875Y17875D1*
D14*
Y17375D1*
X9750Y17250D1*
X11937Y4812D2*
Y4750D1*
X7813D1*
X7000Y12438D2*
X9750Y15188D1*
Y16250D1*
X38000Y6000D2*
D16*
X38937D1*
X40437Y4500D1*
X41500D1*
X42000Y4000D1*
X44500Y6000D2*
Y6063D1*
X43937Y5500D1*
X39875D1*
X38875Y6500D1*
X37500D1*
X37000Y6000D1*
X48687Y10375D2*
Y9937D1*
X48625Y9875D1*
X49812Y10375D2*
Y9938D1*
X49875Y9875D1*
X47500Y7937D2*
X51000D1*
X51187Y4437D2*
Y3375D1*
X50750Y2937D1*
X47750D2*
X48750D1*
X49750D1*
X50750D1*
X48937Y9375D2*
X48875Y9437D1*
X42000Y20000D2*
Y19000D1*
Y18000D1*
Y17000D1*
X8750Y17250D2*
D14*
Y16250D1*
X31628Y8938D2*
D16*
X27940D1*
X31628D2*
X34004D1*
Y7876D1*
X34254Y7626D1*
X11400Y20000D2*
X10900Y20500D1*
X1187D1*
X812Y20125D1*
Y5438D1*
X1625Y4625D1*
X2750D1*
X2000Y8500D2*
D14*
X3000D1*
X23000Y20000D2*
D16*
X23502Y20502D1*
X34566D1*
X34816Y20252D1*
Y18752D1*
X34504Y18439D1*
Y18939D2*
Y19377D1*
X34379Y19502D1*
X22498D1*
X22000Y20000D1*
X13687Y12687D2*
X14688D1*
X50062Y5312D2*
Y6813D1*
X49875Y7000D1*
X49375D1*
X10984Y8937D2*
D14*
X12362D1*
X17008Y8976D2*
X18504Y7480D1*
X13780Y15000D2*
D16*
X15512D1*
X12913Y10564D2*
D14*
Y11437D1*
Y12060D1*
Y11437D2*
X10750D1*
X16457Y12060D2*
Y10564D1*
X12400Y20000D2*
D16*
X11650Y20750D1*
X1000D1*
X562Y20312D1*
Y5313D1*
X1500Y4375D1*
X3500D1*
Y4625D1*
X5250Y8500D2*
D14*
X4250D1*
X44500Y5000D2*
D16*
X42812D1*
X42625Y4813D1*
Y3875D1*
X42250Y3500D1*
X41500D1*
X41000Y3000D1*
X32750Y3125D2*
Y2125D1*
X48250Y7638D2*
X50250D1*
X50500Y5313D2*
X50437D1*
Y7450D1*
X50250Y7638D1*
X51187Y5312D2*
X50500Y5313D1*
X45500Y17000D2*
X46500D1*
X47317Y10626D2*
Y15125D1*
X46500Y17984D2*
X46484Y18000D1*
X45500D1*
X51068Y17002D2*
X52068D1*
X52937Y10437D2*
Y15063D1*
X51312D1*
X51068Y18002D2*
X51084Y17986D1*
X52068D1*
X33500Y17750D2*
X35750D1*
X37000Y19000D1*
X33500Y10750D2*
X33937Y11187D1*
X34187D1*
X37000Y14000D1*
X32500Y13000D2*
X32750Y13250D1*
X35250D1*
X37000Y15000D1*
X32500Y14000D2*
X32750Y14250D1*
X35190D1*
X36940Y16000D1*
X37000D1*
X32500Y15000D2*
X32750Y15250D1*
X35127D1*
X36877Y17000D1*
X37000D1*
X33500Y16750D2*
X35688D1*
X36937Y18000D1*
X37000D1*
D59*
X10062Y437D3*
X32253Y5501D3*
Y7375D3*
X45005Y11250D3*
X53375Y5187D3*
X45005Y11876D3*
X11937Y4812D3*
X7813Y4750D3*
X7000Y12438D3*
X48625Y9875D3*
X49875D3*
X47500Y7937D3*
X51000D3*
X48937Y9375D3*
X31628Y8938D3*
X27940D3*
X34254Y7626D3*
X31628Y8938D3*
X2750Y4625D3*
X34504Y18439D3*
Y18939D3*
X13687Y12687D3*
X14688D3*
X50062Y5312D3*
X49375Y7000D3*
X10984Y8937D3*
X12362D3*
X17008Y8976D3*
X18504Y7480D3*
X13780Y15000D3*
X15512D3*
X12913Y10564D3*
Y12060D3*
X10750Y11437D3*
X16457Y12060D3*
Y10564D3*
X3500Y4625D3*
X48250Y7638D3*
X50250D3*
X50500Y5313D3*
D3*
X47317Y10626D3*
Y15125D3*
X52937Y10437D3*
X51312Y15063D3*
X32500Y13000D3*
Y14000D3*
Y15000D3*
X23625Y17437D3*
Y16937D3*
Y16437D3*
X24125Y17437D3*
X23625Y15937D3*
Y15437D3*
Y14937D3*
Y14437D3*
Y13937D3*
Y13437D3*
Y12937D3*
Y12437D3*
Y11937D3*
Y11437D3*
Y10937D3*
Y10437D3*
Y9937D3*
Y9437D3*
Y8937D3*
Y8437D3*
Y7937D3*
Y7437D3*
Y6937D3*
Y6437D3*
Y5937D3*
Y5437D3*
Y4937D3*
Y4437D3*
Y3937D3*
Y3437D3*
X24125Y17937D3*
Y16937D3*
Y16437D3*
X13625Y11562D3*
X24125Y15937D3*
Y15437D3*
Y14937D3*
Y14437D3*
Y13937D3*
Y13437D3*
Y12937D3*
Y12437D3*
Y11937D3*
Y11437D3*
Y10937D3*
Y10437D3*
Y9937D3*
Y9437D3*
Y8937D3*
Y8437D3*
Y7937D3*
Y7437D3*
Y6937D3*
X6062Y19937D3*
Y19437D3*
Y18937D3*
Y18437D3*
Y17937D3*
Y17437D3*
Y16937D3*
Y16437D3*
Y15937D3*
Y15437D3*
Y14937D3*
Y14437D3*
Y13937D3*
Y13437D3*
Y12937D3*
Y12437D3*
Y11937D3*
Y11437D3*
Y10937D3*
Y10437D3*
Y9937D3*
Y9437D3*
Y8937D3*
Y8437D3*
Y7937D3*
Y7437D3*
Y6937D3*
Y6437D3*
Y5937D3*
Y5437D3*
Y4937D3*
Y4437D3*
X13625Y11063D3*
X14125Y11562D3*
Y11063D3*
X14625Y11562D3*
Y11063D3*
X15125Y11562D3*
Y11063D3*
X15625Y11562D3*
X24125Y6437D3*
Y5937D3*
Y5437D3*
Y4937D3*
Y4437D3*
Y3937D3*
Y3437D3*
X24625Y17937D3*
Y17437D3*
Y16937D3*
Y16437D3*
Y15937D3*
Y15437D3*
Y14937D3*
Y14437D3*
Y13937D3*
Y13437D3*
Y12937D3*
Y12437D3*
Y11937D3*
Y11437D3*
Y10937D3*
X43062Y11938D3*
Y11438D3*
Y10938D3*
Y10438D3*
Y9938D3*
Y9438D3*
Y8938D3*
Y8438D3*
Y7938D3*
Y7438D3*
X43562Y11938D3*
X24625Y10437D3*
X43562Y11438D3*
X25062Y2000D3*
X25562D3*
X26062D3*
X26562D3*
X27062D3*
X27562D3*
X28062D3*
X28562D3*
X29062D3*
X29562D3*
X30062D3*
X30562D3*
X31062D3*
X31562D3*
X32062D3*
X24625Y9937D3*
X35191Y17252D3*
X33562Y2000D3*
X34062D3*
X34562D3*
X35062D3*
X35562D3*
X36062D3*
X36562D3*
X37062D3*
X37562D3*
X15625Y11063D3*
X11000Y4125D3*
Y3625D3*
X11500Y4125D3*
Y3625D3*
X24625Y9437D3*
X43562Y10938D3*
Y10438D3*
Y9938D3*
X6625Y18938D3*
X12000Y4125D3*
X7125Y18938D3*
X12000Y3625D3*
X7625Y18938D3*
X12500Y4125D3*
X8125Y18938D3*
X12500Y3625D3*
X8625Y18938D3*
X13000Y4125D3*
X9125Y18938D3*
X13000Y3625D3*
X9625Y18938D3*
X13500Y4125D3*
X10125Y18938D3*
X13500Y3625D3*
X10625Y18938D3*
X14000Y4125D3*
X11125Y18938D3*
X14000Y3625D3*
X11625Y18938D3*
X14500Y4125D3*
X12126Y18939D3*
X49687Y4125D3*
X12626Y18939D3*
X14500Y3625D3*
X13125Y18938D3*
X7687Y9437D3*
X13625Y18938D3*
X7687Y8937D3*
X14125Y18938D3*
X7687Y8437D3*
X14625Y18938D3*
X7687Y7937D3*
X15125Y18938D3*
X7687Y7437D3*
X15625Y18938D3*
X7687Y6937D3*
X16125Y18938D3*
X7687Y6437D3*
X16625Y18938D3*
X7687Y5937D3*
X53375Y20187D3*
Y19687D3*
Y19187D3*
Y18687D3*
X18125Y18938D3*
X21625Y9937D3*
X18625Y18938D3*
X21625Y9438D3*
X19125Y18938D3*
Y18438D3*
X19625Y18938D3*
Y18438D3*
X20125Y18938D3*
Y18438D3*
X20625Y18938D3*
Y18438D3*
X21125Y18938D3*
Y18438D3*
X21625Y18938D3*
Y18438D3*
X22125Y18938D3*
Y18438D3*
X22625Y18938D3*
Y18438D3*
X23125Y18938D3*
Y18438D3*
X21625Y8937D3*
Y8437D3*
X24125Y18938D3*
Y18438D3*
X24625Y18938D3*
Y18438D3*
X25125Y18938D3*
Y18438D3*
X25625Y18938D3*
Y18438D3*
X26125Y18938D3*
Y18438D3*
X26625Y18938D3*
Y18438D3*
X27125Y18938D3*
Y18438D3*
X27625Y18938D3*
Y18438D3*
X28125Y18938D3*
Y18438D3*
X28625Y18938D3*
Y18438D3*
X29125Y18938D3*
Y18438D3*
X29625Y18938D3*
Y18438D3*
X30125Y18938D3*
Y18438D3*
X53375Y18187D3*
Y17687D3*
X53381Y17189D3*
X53375Y16687D3*
Y16187D3*
Y15687D3*
Y15187D3*
Y14687D3*
Y14187D3*
Y13687D3*
Y13187D3*
Y12687D3*
Y12187D3*
Y11687D3*
Y11187D3*
Y10687D3*
Y10187D3*
Y9687D3*
Y9187D3*
Y8687D3*
Y8187D3*
Y7687D3*
Y7187D3*
Y6687D3*
Y6187D3*
Y5687D3*
Y4687D3*
Y4187D3*
X52255Y11189D3*
X53375Y3687D3*
Y3187D3*
Y2687D3*
Y2187D3*
Y1687D3*
Y1187D3*
X53875Y20187D3*
Y19687D3*
Y19187D3*
Y18687D3*
Y18187D3*
Y17687D3*
Y17187D3*
Y16687D3*
Y16187D3*
X53881Y15689D3*
X53875Y15187D3*
Y14687D3*
Y14187D3*
Y13687D3*
Y13187D3*
Y12687D3*
Y12187D3*
Y11687D3*
Y11187D3*
Y10687D3*
Y10187D3*
Y9687D3*
Y9187D3*
Y8687D3*
Y8187D3*
Y7687D3*
Y7187D3*
Y6687D3*
Y6187D3*
Y5687D3*
Y4687D3*
Y4187D3*
X52255Y10689D3*
X53875Y3687D3*
Y3187D3*
Y2687D3*
Y2187D3*
Y1687D3*
Y1187D3*
X36062Y10500D3*
Y10000D3*
Y9500D3*
Y9000D3*
Y8500D3*
Y8000D3*
Y7500D3*
Y7000D3*
Y6500D3*
Y6000D3*
Y5500D3*
Y5000D3*
Y4500D3*
Y4000D3*
Y3500D3*
Y3000D3*
Y2500D3*
X43562Y9438D3*
Y8938D3*
Y8438D3*
Y7938D3*
Y7438D3*
X44062Y11938D3*
Y11438D3*
Y10938D3*
Y10438D3*
Y9938D3*
Y9438D3*
Y8938D3*
Y8438D3*
Y7938D3*
Y7438D3*
X44562Y11938D3*
Y11437D3*
Y10938D3*
Y10438D3*
Y9938D3*
Y9438D3*
Y8938D3*
Y8438D3*
Y7938D3*
Y7437D3*
X24625Y8937D3*
Y8437D3*
Y7937D3*
Y7437D3*
Y6937D3*
Y6437D3*
Y5937D3*
Y5437D3*
X37062Y1000D3*
X37562D3*
X38062D3*
X38562D3*
X39062D3*
X39562D3*
X40062D3*
X40562D3*
X41062D3*
X41562D3*
X42062D3*
X42562D3*
X43062D3*
X43562D3*
X44062D3*
X44562D3*
X45062D3*
X45562D3*
X46062D3*
X46562D3*
X47062D3*
X47562D3*
X48062D3*
X48562D3*
X49062D3*
X43875Y19687D3*
X50062Y1000D3*
X50562D3*
X51062D3*
X51562D3*
X52062D3*
X52562D3*
X53062D3*
X44875Y20187D3*
X45375D3*
X45875D3*
X46375D3*
X46875D3*
X47375D3*
X47875D3*
X48375D3*
X48875D3*
X49375D3*
X49875D3*
X50375D3*
X50875D3*
X51375D3*
X51875D3*
X52375D3*
X52875D3*
X24625Y4937D3*
Y4437D3*
Y3937D3*
Y3437D3*
X21625Y7937D3*
Y7437D3*
Y6937D3*
Y6437D3*
Y5937D3*
X11125Y6562D3*
Y6062D3*
Y5562D3*
X27750Y9938D3*
X17562Y13625D3*
X28250Y9938D3*
X18062Y13625D3*
X28750Y9938D3*
X18562Y13625D3*
X29250Y9938D3*
X49687Y4625D3*
X29750Y9938D3*
X19062Y13625D3*
X30250Y9938D3*
X49562Y1000D3*
X30750Y9938D3*
X11625Y16625D3*
X31250Y9938D3*
X46250Y8062D3*
X31750Y9938D3*
X46250Y7562D3*
X32250Y9938D3*
X46250Y7062D3*
X32750Y9938D3*
X46250Y6562D3*
X33250Y9938D3*
X47687Y4125D3*
X33750Y9938D3*
X48187Y4125D3*
X31000Y18938D3*
Y18438D3*
X31500Y18938D3*
Y18438D3*
X32000Y18938D3*
Y18438D3*
X32500Y18938D3*
Y18438D3*
X33000Y18938D3*
Y18438D3*
X33500Y18938D3*
Y18438D3*
X34004Y18939D3*
X34000Y18438D3*
X11625Y16125D3*
X12125Y16625D3*
Y16125D3*
X12625Y16625D3*
Y16125D3*
X13125Y16625D3*
Y16125D3*
X8438Y2437D3*
X8938D3*
X9438D3*
X9938D3*
X10438D3*
X10938D3*
X11438D3*
X11938D3*
X12437D3*
X12938D3*
X13437D3*
X13938D3*
X14437D3*
X14937D3*
X15437D3*
X15937D3*
X16437D3*
X16937D3*
X17437D3*
X17938D3*
X18438D3*
X13625Y16625D3*
Y16125D3*
X14125Y16625D3*
Y16125D3*
X14625Y16625D3*
Y16125D3*
X15125Y16625D3*
Y16125D3*
X15625Y16625D3*
Y16125D3*
X16125Y16625D3*
Y16125D3*
X48687Y4125D3*
X16625Y16625D3*
Y16125D3*
X17125Y16625D3*
Y16125D3*
X17625Y16625D3*
Y16125D3*
X35191Y16314D3*
Y14752D3*
Y13751D3*
Y12876D3*
X28565Y5438D3*
Y6876D3*
X27753Y5438D3*
X49187Y4125D3*
X46750Y8062D3*
Y7562D3*
Y7062D3*
Y6562D3*
X47687Y4625D3*
X48187D3*
X48687D3*
X49187D3*
X51500Y8062D3*
Y7562D3*
X46250Y6062D3*
X45687Y4125D3*
X46187D3*
X46687D3*
X47187D3*
X52000Y8062D3*
Y7562D3*
X46750Y6062D3*
X45687Y4625D3*
X46187D3*
X46687D3*
X47187D3*
X43875Y20187D3*
Y19187D3*
Y18687D3*
Y18187D3*
Y17687D3*
Y17187D3*
Y16687D3*
Y16187D3*
Y15687D3*
Y15187D3*
Y14687D3*
Y14187D3*
X44375Y20187D3*
Y19687D3*
Y19187D3*
Y18687D3*
Y18187D3*
Y17687D3*
Y17187D3*
Y16687D3*
Y16187D3*
Y15687D3*
Y15187D3*
Y14687D3*
Y14187D3*
X49000Y16063D3*
Y15563D3*
Y15063D3*
Y14562D3*
Y14063D3*
Y13563D3*
X49500Y16063D3*
Y15563D3*
Y15063D3*
Y14562D3*
Y14063D3*
Y13563D3*
X52250Y12688D3*
Y12188D3*
Y11688D3*
X39248Y20851D2*
D19*
X42752D1*
X39248Y20753D2*
X42752D1*
X39248Y20654D2*
X42752D1*
X43248D2*
X54189D1*
X39248Y20555D2*
X42752D1*
X43248D2*
X54189D1*
X34959Y20457D2*
X36766D1*
X37234D2*
X37481D1*
X39248D2*
X40766D1*
X41234D2*
X41766D1*
X42234D2*
X42752D1*
X43248D2*
X54189D1*
X35040Y20358D2*
X36628D1*
X37372D2*
X37481D1*
X39248D2*
X40628D1*
X41372D2*
X41628D1*
X42372D2*
X42628D1*
X43372D2*
X54189D1*
X1295Y20259D2*
X8881D1*
X35065D2*
X36552D1*
X39248D2*
X40552D1*
X41448D2*
X41552D1*
X42448D2*
X42552D1*
X43448D2*
X54189D1*
X1195Y20160D2*
X8881D1*
X35065D2*
X36508D1*
X39248D2*
X40508D1*
X43492D2*
X54189D1*
X1097Y20062D2*
X8881D1*
X35065D2*
X36485D1*
X39248D2*
X40485D1*
X43515D2*
X54189D1*
X1061Y19963D2*
X8881D1*
X35065D2*
X36483D1*
X39248D2*
X40483D1*
X43517D2*
X54189D1*
X1061Y19864D2*
X8881D1*
X35065D2*
X36500D1*
X39248D2*
X40500D1*
X43500D2*
X54189D1*
X1061Y19766D2*
X8881D1*
X10861D2*
X10938D1*
X11861D2*
X11938D1*
X12861D2*
X12938D1*
X13861D2*
X13938D1*
X14861D2*
X14938D1*
X15861D2*
X15938D1*
X19461D2*
X19538D1*
X20461D2*
X20538D1*
X21461D2*
X21538D1*
X35065D2*
X36539D1*
X39248D2*
X40539D1*
X43461D2*
X54189D1*
X1061Y19667D2*
X8881D1*
X9919D2*
X10006D1*
X10794D2*
X11006D1*
X11794D2*
X12006D1*
X12794D2*
X13006D1*
X13794D2*
X14006D1*
X14794D2*
X15006D1*
X15794D2*
X16006D1*
X18519D2*
X18606D1*
X19394D2*
X19606D1*
X20394D2*
X20606D1*
X21394D2*
X21606D1*
X35065D2*
X36606D1*
X39248D2*
X40606D1*
X43394D2*
X54189D1*
X1061Y19568D2*
X8881D1*
X9919D2*
X10120D1*
X10680D2*
X11120D1*
X11680D2*
X12120D1*
X12680D2*
X13120D1*
X13680D2*
X14120D1*
X14680D2*
X15120D1*
X15680D2*
X16120D1*
X16680D2*
X16752D1*
X18519D2*
X18720D1*
X19280D2*
X19720D1*
X20280D2*
X20720D1*
X21280D2*
X21720D1*
X35065D2*
X36720D1*
X39248D2*
X40720D1*
X43280D2*
X54189D1*
X1061Y19470D2*
X16752D1*
X17686D2*
X22183D1*
X35065D2*
X36795D1*
X39248D2*
X40795D1*
X43205D2*
X54189D1*
X1061Y19371D2*
X16752D1*
X17686D2*
X22281D1*
X35065D2*
X36642D1*
X39248D2*
X40642D1*
X43358D2*
X46213D1*
X46787D2*
X49028D1*
X49608D2*
X51778D1*
X52358D2*
X54189D1*
X1061Y19272D2*
X16752D1*
X17686D2*
X22422D1*
X35065D2*
X36561D1*
X39248D2*
X40561D1*
X43439D2*
X46106D1*
X46894D2*
X48924D1*
X49712D2*
X51674D1*
X52462D2*
X54189D1*
X1061Y19174D2*
X16752D1*
X17686D2*
X34255D1*
X35065D2*
X36513D1*
X39248D2*
X40513D1*
X43487D2*
X46047D1*
X46955D2*
X48863D1*
X49772D2*
X51613D1*
X52522D2*
X54189D1*
X1061Y19075D2*
X16752D1*
X17686D2*
X34233D1*
X35065D2*
X36488D1*
X39248D2*
X40488D1*
X43512D2*
X46013D1*
X46987D2*
X48830D1*
X49805D2*
X51580D1*
X52556D2*
X54189D1*
X1061Y18976D2*
X16752D1*
X17686D2*
X34202D1*
X35065D2*
X36481D1*
X39248D2*
X40481D1*
X43519D2*
X46002D1*
X46998D2*
X48819D1*
X49817D2*
X51569D1*
X52567D2*
X54189D1*
X1061Y18878D2*
X1288D1*
X1712D2*
X2288D1*
X2712D2*
X3288D1*
X3712D2*
X3942D1*
X5058D2*
X16752D1*
X17686D2*
X34206D1*
X35065D2*
X36497D1*
X39248D2*
X40497D1*
X43503D2*
X46010D1*
X46990D2*
X48828D1*
X49808D2*
X51578D1*
X52558D2*
X54189D1*
X1061Y18779D2*
X1126D1*
X1873D2*
X2127D1*
X2873D2*
X3127D1*
X3873D2*
X3942D1*
X5058D2*
X8702D1*
X17686D2*
X34247D1*
X35065D2*
X36431D1*
X39248D2*
X40531D1*
X43469D2*
X46039D1*
X46961D2*
X48858D1*
X49778D2*
X51608D1*
X52528D2*
X54189D1*
X1961Y18680D2*
X2038D1*
X2961D2*
X3038D1*
X5058D2*
X8583D1*
X17686D2*
X34325D1*
X35055D2*
X36333D1*
X39248D2*
X40594D1*
X43406D2*
X46095D1*
X46905D2*
X48914D1*
X49722D2*
X51664D1*
X52472D2*
X54189D1*
X5058Y18581D2*
X8483D1*
X17686D2*
X34236D1*
X34994D2*
X36233D1*
X39248D2*
X40702D1*
X43298D2*
X46191D1*
X46809D2*
X49011D1*
X49623D2*
X51761D1*
X52375D2*
X54189D1*
X5058Y18483D2*
X8385D1*
X17686D2*
X34203D1*
X34895D2*
X36135D1*
X39248D2*
X40830D1*
X43170D2*
X46435D1*
X46565D2*
X49272D1*
X49364D2*
X52022D1*
X52114D2*
X54189D1*
X5058Y18384D2*
X8286D1*
X17686D2*
X34205D1*
X34803D2*
X36036D1*
X39248D2*
X40656D1*
X43344D2*
X45220D1*
X45780D2*
X46210D1*
X46790D2*
X49024D1*
X49611D2*
X50786D1*
X51350D2*
X51774D1*
X52362D2*
X54189D1*
X5058Y18285D2*
X8188D1*
X8883D2*
X17189D1*
X17686D2*
X34244D1*
X34764D2*
X35938D1*
X39248D2*
X40569D1*
X43431D2*
X45117D1*
X45883D2*
X46105D1*
X46895D2*
X48922D1*
X49714D2*
X50685D1*
X51451D2*
X51672D1*
X52464D2*
X54189D1*
X5058Y18187D2*
X8089D1*
X8784D2*
X9777D1*
X17686D2*
X28230D1*
X28770D2*
X33230D1*
X33770D2*
X34344D1*
X34664D2*
X35839D1*
X39248D2*
X40517D1*
X43483D2*
X45060D1*
X46955D2*
X48863D1*
X49773D2*
X50627D1*
X52523D2*
X54189D1*
X5058Y18088D2*
X7991D1*
X8686D2*
X9620D1*
X17686D2*
X28110D1*
X28890D2*
X33110D1*
X33890D2*
X35741D1*
X36436D2*
X36489D1*
X39248D2*
X40489D1*
X43511D2*
X45030D1*
X46987D2*
X48830D1*
X49806D2*
X50597D1*
X52556D2*
X54189D1*
X5058Y17989D2*
X7810D1*
X8587D2*
X9563D1*
X17686D2*
X28041D1*
X28959D2*
X33041D1*
X33959D2*
X35642D1*
X36337D2*
X36481D1*
X39248D2*
X40481D1*
X43519D2*
X45020D1*
X46998D2*
X48819D1*
X49817D2*
X50589D1*
X52567D2*
X54189D1*
X5058Y17891D2*
X7675D1*
X8489D2*
X9541D1*
X17659D2*
X28002D1*
X28998D2*
X33002D1*
X36239D2*
X36480D1*
X39248D2*
X40494D1*
X43506D2*
X45035D1*
X46990D2*
X48828D1*
X49808D2*
X50602D1*
X52558D2*
X54189D1*
X1940Y17792D2*
X2060D1*
X2940D2*
X3060D1*
X5058D2*
X7620D1*
X8390D2*
X9541D1*
X17565D2*
X27983D1*
X29017D2*
X32983D1*
X36140D2*
X36381D1*
X39248D2*
X40527D1*
X43473D2*
X45069D1*
X46959D2*
X48860D1*
X49776D2*
X50638D1*
X52526D2*
X54189D1*
X1839Y17693D2*
X2161D1*
X2839D2*
X3161D1*
X3839D2*
X3942D1*
X5058D2*
X7211D1*
X8290D2*
X8453D1*
X9047D2*
X9453D1*
X10209D2*
X27985D1*
X29015D2*
X32985D1*
X36040D2*
X36283D1*
X39248D2*
X40585D1*
X43415D2*
X45135D1*
X45865D2*
X46097D1*
X46903D2*
X48916D1*
X49719D2*
X50705D1*
X51431D2*
X51666D1*
X52470D2*
X54189D1*
X1617Y17595D2*
X2383D1*
X2617D2*
X3383D1*
X3617D2*
X3942D1*
X5058D2*
X7211D1*
X9161D2*
X9339D1*
X10209D2*
X28006D1*
X28994D2*
X33006D1*
X35942D2*
X36185D1*
X39248D2*
X40683D1*
X43317D2*
X45253D1*
X45747D2*
X46195D1*
X46805D2*
X49014D1*
X49620D2*
X50825D1*
X51311D2*
X51766D1*
X52370D2*
X54189D1*
X1522Y17496D2*
X7211D1*
X10228D2*
X28050D1*
X28950D2*
X33050D1*
X33950D2*
X36086D1*
X36781D2*
X36878D1*
X39248D2*
X40481D1*
X43519D2*
X46467D1*
X46532D2*
X54189D1*
X1522Y17397D2*
X7211D1*
X10267D2*
X28124D1*
X28876D2*
X33124D1*
X33876D2*
X35988D1*
X39248D2*
X40481D1*
X43519D2*
X45241D1*
X45759D2*
X46002D1*
X46998D2*
X48819D1*
X49817D2*
X50805D1*
X51330D2*
X51569D1*
X52567D2*
X54189D1*
X1522Y17299D2*
X7211D1*
X10286D2*
X28256D1*
X28744D2*
X33256D1*
X33744D2*
X35888D1*
X39248D2*
X40481D1*
X43519D2*
X45128D1*
X45872D2*
X46002D1*
X46998D2*
X48819D1*
X49817D2*
X50694D1*
X51440D2*
X51569D1*
X52567D2*
X54189D1*
X1522Y17200D2*
X7211D1*
X10286D2*
X28253D1*
X28747D2*
X33253D1*
X33747D2*
X35789D1*
X39248D2*
X40481D1*
X43519D2*
X45066D1*
X46998D2*
X48819D1*
X49817D2*
X50633D1*
X52567D2*
X54189D1*
X1522Y17101D2*
X7211D1*
X10267D2*
X28122D1*
X28878D2*
X33122D1*
X33878D2*
X35691D1*
X36386D2*
X36492D1*
X39248D2*
X40481D1*
X43519D2*
X45031D1*
X46998D2*
X48819D1*
X49817D2*
X50599D1*
X52567D2*
X54189D1*
X1522Y17002D2*
X7211D1*
X10226D2*
X28049D1*
X28951D2*
X33049D1*
X33951D2*
X35592D1*
X36287D2*
X36481D1*
X39248D2*
X40481D1*
X43519D2*
X45020D1*
X46998D2*
X48819D1*
X49817D2*
X50589D1*
X52567D2*
X54189D1*
X1522Y16904D2*
X7211D1*
X8289D2*
X8341D1*
X9159D2*
X9341D1*
X10159D2*
X28005D1*
X28995D2*
X33005D1*
X36189D2*
X36433D1*
X39248D2*
X40481D1*
X43519D2*
X45031D1*
X46998D2*
X48819D1*
X49817D2*
X50599D1*
X52567D2*
X54189D1*
X1522Y16805D2*
X7211D1*
X8289D2*
X8455D1*
X9045D2*
X9416D1*
X10084D2*
X27985D1*
X29015D2*
X32985D1*
X36090D2*
X36335D1*
X39248D2*
X40481D1*
X43519D2*
X45063D1*
X46998D2*
X48819D1*
X49817D2*
X50631D1*
X52567D2*
X54189D1*
X1522Y16706D2*
X7416D1*
X8084D2*
X9416D1*
X10084D2*
X27983D1*
X29017D2*
X32983D1*
X35992D2*
X36236D1*
X39248D2*
X40481D1*
X43519D2*
X45124D1*
X45876D2*
X46002D1*
X46998D2*
X48819D1*
X49817D2*
X50694D1*
X51442D2*
X51569D1*
X52567D2*
X54189D1*
X1522Y16608D2*
X7416D1*
X8084D2*
X9416D1*
X10084D2*
X28002D1*
X28998D2*
X33002D1*
X35894D2*
X36138D1*
X39248D2*
X40481D1*
X43519D2*
X45233D1*
X45767D2*
X46002D1*
X46998D2*
X48819D1*
X49817D2*
X50803D1*
X51333D2*
X51569D1*
X52567D2*
X54189D1*
X1522Y16509D2*
X7349D1*
X8151D2*
X9349D1*
X10151D2*
X28042D1*
X28958D2*
X33042D1*
X33958D2*
X36038D1*
X36734D2*
X36858D1*
X39248D2*
X40481D1*
X43519D2*
X54189D1*
X1522Y16410D2*
X7299D1*
X8201D2*
X9299D1*
X10201D2*
X28111D1*
X28889D2*
X33111D1*
X33889D2*
X35939D1*
X36636D2*
X36689D1*
X39248D2*
X54189D1*
X1522Y16312D2*
X7275D1*
X8225D2*
X9275D1*
X10225D2*
X28233D1*
X28767D2*
X33233D1*
X33767D2*
X35841D1*
X36536D2*
X36589D1*
X39248D2*
X54189D1*
X1522Y16213D2*
X7272D1*
X8228D2*
X9272D1*
X10228D2*
X26280D1*
X26720D2*
X28280D1*
X28720D2*
X33280D1*
X33720D2*
X35742D1*
X36437D2*
X36528D1*
X39248D2*
X54189D1*
X1522Y16114D2*
X7291D1*
X8209D2*
X9291D1*
X10209D2*
X26135D1*
X26865D2*
X28135D1*
X28865D2*
X33135D1*
X33865D2*
X35644D1*
X36339D2*
X36494D1*
X39248D2*
X54189D1*
X1522Y16016D2*
X7333D1*
X8167D2*
X9333D1*
X10167D2*
X26056D1*
X26944D2*
X28056D1*
X28944D2*
X33056D1*
X33944D2*
X35545D1*
X36240D2*
X36481D1*
X39248D2*
X54189D1*
X1522Y15917D2*
X7410D1*
X8090D2*
X9410D1*
X10090D2*
X26010D1*
X26990D2*
X28010D1*
X28990D2*
X33010D1*
X33990D2*
X35447D1*
X36142D2*
X36488D1*
X39248D2*
X54189D1*
X1522Y15818D2*
X7556D1*
X7944D2*
X9416D1*
X10084D2*
X25986D1*
X27014D2*
X27986D1*
X29014D2*
X32986D1*
X34014D2*
X35347D1*
X36044D2*
X36410D1*
X39248D2*
X54189D1*
X1522Y15720D2*
X9416D1*
X10084D2*
X25983D1*
X27017D2*
X27983D1*
X29017D2*
X32983D1*
X34017D2*
X35249D1*
X35945D2*
X36311D1*
X39248D2*
X54189D1*
X1522Y15621D2*
X9416D1*
X10084D2*
X25999D1*
X27001D2*
X27999D1*
X29001D2*
X32999D1*
X34001D2*
X35150D1*
X35845D2*
X36213D1*
X39248D2*
X54189D1*
X1522Y15522D2*
X9416D1*
X10084D2*
X26036D1*
X26964D2*
X28036D1*
X28964D2*
X33036D1*
X33964D2*
X35052D1*
X35747D2*
X36114D1*
X39248D2*
X54189D1*
X1522Y15423D2*
X9416D1*
X10084D2*
X26100D1*
X26900D2*
X28100D1*
X28900D2*
X32575D1*
X35648D2*
X36016D1*
X39248D2*
X54189D1*
X1522Y15325D2*
X9416D1*
X10084D2*
X26211D1*
X26789D2*
X28211D1*
X28789D2*
X32477D1*
X35550D2*
X35917D1*
X39248D2*
X47092D1*
X47544D2*
X51170D1*
X51455D2*
X54189D1*
X1522Y15226D2*
X9320D1*
X10084D2*
X13581D1*
X15709D2*
X26311D1*
X26689D2*
X28311D1*
X28689D2*
X32302D1*
X35451D2*
X35817D1*
X39248D2*
X47031D1*
X47603D2*
X51058D1*
X53122D2*
X54189D1*
X1522Y15127D2*
X9222D1*
X10078D2*
X13505D1*
X15787D2*
X26149D1*
X26851D2*
X28149D1*
X28851D2*
X32225D1*
X35353D2*
X35719D1*
X36415D2*
X36497D1*
X39248D2*
X47014D1*
X47622D2*
X51016D1*
X53178D2*
X54189D1*
X1522Y15029D2*
X9124D1*
X10042D2*
X13477D1*
X15814D2*
X26064D1*
X26936D2*
X28064D1*
X28936D2*
X32197D1*
X35226D2*
X35620D1*
X36315D2*
X36483D1*
X39248D2*
X47030D1*
X47605D2*
X51011D1*
X53186D2*
X54189D1*
X1522Y14930D2*
X9025D1*
X9961D2*
X13485D1*
X15808D2*
X26014D1*
X26986D2*
X28014D1*
X28986D2*
X32205D1*
X32795D2*
X33014D1*
X33986D2*
X35522D1*
X36217D2*
X36486D1*
X39248D2*
X47069D1*
X47567D2*
X51041D1*
X53186D2*
X54189D1*
X1522Y14831D2*
X8925D1*
X9862D2*
X13528D1*
X15762D2*
X25988D1*
X27012D2*
X27988D1*
X29012D2*
X32249D1*
X32751D2*
X32988D1*
X34012D2*
X35424D1*
X36119D2*
X36483D1*
X39248D2*
X47069D1*
X47567D2*
X51120D1*
X53186D2*
X54189D1*
X1522Y14733D2*
X8827D1*
X9764D2*
X13647D1*
X13912D2*
X15380D1*
X15644D2*
X25981D1*
X27019D2*
X27981D1*
X29019D2*
X32367D1*
X32633D2*
X32981D1*
X34019D2*
X35325D1*
X36020D2*
X36385D1*
X39248D2*
X47069D1*
X47567D2*
X52689D1*
X53186D2*
X54189D1*
X1522Y14634D2*
X8728D1*
X9664D2*
X25995D1*
X27005D2*
X27995D1*
X29005D2*
X32995D1*
X34005D2*
X35225D1*
X35922D2*
X36286D1*
X39248D2*
X47069D1*
X47567D2*
X52689D1*
X53186D2*
X54189D1*
X1522Y14535D2*
X8630D1*
X9565D2*
X26030D1*
X26970D2*
X28030D1*
X28970D2*
X33030D1*
X33970D2*
X35127D1*
X35823D2*
X36188D1*
X39248D2*
X47069D1*
X47567D2*
X52689D1*
X53186D2*
X54189D1*
X1522Y14437D2*
X8531D1*
X9467D2*
X26089D1*
X26911D2*
X28089D1*
X28911D2*
X32591D1*
X35725D2*
X36089D1*
X39248D2*
X40730D1*
X41270D2*
X41730D1*
X42270D2*
X47069D1*
X47567D2*
X52689D1*
X53186D2*
X54189D1*
X1522Y14338D2*
X8433D1*
X9369D2*
X26192D1*
X26808D2*
X28192D1*
X28808D2*
X32491D1*
X35625D2*
X35991D1*
X39248D2*
X40610D1*
X41390D2*
X41610D1*
X42390D2*
X47069D1*
X47567D2*
X52689D1*
X53186D2*
X54189D1*
X1522Y14239D2*
X8333D1*
X9270D2*
X26350D1*
X26650D2*
X28350D1*
X28650D2*
X32319D1*
X35526D2*
X35891D1*
X39248D2*
X40541D1*
X41459D2*
X41541D1*
X42459D2*
X47069D1*
X47567D2*
X52689D1*
X53186D2*
X54189D1*
X1522Y14141D2*
X8235D1*
X9172D2*
X26164D1*
X26836D2*
X28164D1*
X28836D2*
X32231D1*
X35428D2*
X35792D1*
X39248D2*
X40502D1*
X42498D2*
X47069D1*
X47567D2*
X52689D1*
X53186D2*
X54189D1*
X1522Y14042D2*
X8136D1*
X9072D2*
X26074D1*
X26926D2*
X28074D1*
X28926D2*
X32199D1*
X35317D2*
X35694D1*
X36389D2*
X36483D1*
X39248D2*
X40483D1*
X42517D2*
X47069D1*
X47567D2*
X52689D1*
X53186D2*
X54189D1*
X1522Y13943D2*
X8038D1*
X8973D2*
X26019D1*
X26981D2*
X28019D1*
X28981D2*
X32202D1*
X32798D2*
X33019D1*
X33981D2*
X35595D1*
X36290D2*
X36485D1*
X39286D2*
X40485D1*
X42515D2*
X47069D1*
X47567D2*
X52689D1*
X53186D2*
X54189D1*
X1522Y13844D2*
X7939D1*
X8875D2*
X25991D1*
X27009D2*
X27991D1*
X29009D2*
X32241D1*
X32759D2*
X32991D1*
X34009D2*
X35497D1*
X36192D2*
X36497D1*
X39384D2*
X40506D1*
X42494D2*
X47069D1*
X47567D2*
X52689D1*
X53186D2*
X54189D1*
X1522Y13746D2*
X7841D1*
X8776D2*
X25981D1*
X27019D2*
X27981D1*
X29019D2*
X32342D1*
X32658D2*
X32981D1*
X34019D2*
X35399D1*
X36094D2*
X36399D1*
X39483D2*
X40550D1*
X42450D2*
X47069D1*
X47567D2*
X52689D1*
X53186D2*
X54189D1*
X1522Y13647D2*
X7742D1*
X8678D2*
X25992D1*
X27008D2*
X27992D1*
X29008D2*
X32992D1*
X34008D2*
X35299D1*
X35995D2*
X36299D1*
X42519D2*
X47069D1*
X47567D2*
X52689D1*
X53186D2*
X54189D1*
X1522Y13548D2*
X7642D1*
X8580D2*
X26024D1*
X26976D2*
X28024D1*
X28976D2*
X33024D1*
X33976D2*
X35200D1*
X35897D2*
X36200D1*
X38244D2*
X38425D1*
X42617D2*
X47069D1*
X47567D2*
X52689D1*
X53186D2*
X54189D1*
X1522Y13450D2*
X7544D1*
X8480D2*
X26080D1*
X26920D2*
X28080D1*
X28920D2*
X32610D1*
X35797D2*
X36102D1*
X38247D2*
X38520D1*
X42717D2*
X47069D1*
X47567D2*
X52689D1*
X53186D2*
X54189D1*
X1522Y13351D2*
X7445D1*
X8381D2*
X26175D1*
X26825D2*
X28175D1*
X28825D2*
X32503D1*
X35698D2*
X36003D1*
X38378D2*
X38619D1*
X42815D2*
X47069D1*
X47567D2*
X52689D1*
X53186D2*
X54189D1*
X1522Y13252D2*
X7347D1*
X8283D2*
X25981D1*
X27019D2*
X28386D1*
X28614D2*
X32339D1*
X35600D2*
X35905D1*
X38451D2*
X38717D1*
X42914D2*
X47069D1*
X47567D2*
X52689D1*
X53186D2*
X54189D1*
X1522Y13154D2*
X7249D1*
X8184D2*
X25981D1*
X27019D2*
X28180D1*
X28820D2*
X32239D1*
X35501D2*
X35806D1*
X38495D2*
X38816D1*
X43012D2*
X47069D1*
X47567D2*
X52689D1*
X53186D2*
X54189D1*
X1522Y13055D2*
X7150D1*
X8086D2*
X25981D1*
X27019D2*
X28083D1*
X28917D2*
X32202D1*
X35398D2*
X35708D1*
X36403D2*
X36485D1*
X38515D2*
X38916D1*
X43111D2*
X47069D1*
X47567D2*
X52689D1*
X53186D2*
X54189D1*
X1522Y12956D2*
X7050D1*
X7987D2*
X13558D1*
X13817D2*
X14558D1*
X14817D2*
X25981D1*
X27019D2*
X28025D1*
X28975D2*
X32199D1*
X32805D2*
X33025D1*
X33975D2*
X35608D1*
X36305D2*
X36483D1*
X38517D2*
X39014D1*
X45381D2*
X47069D1*
X47567D2*
X52689D1*
X53186D2*
X54189D1*
X1522Y12858D2*
X6952D1*
X7887D2*
X13438D1*
X14937D2*
X25981D1*
X27019D2*
X27992D1*
X29008D2*
X32233D1*
X32767D2*
X32992D1*
X34008D2*
X35510D1*
X36206D2*
X36502D1*
X38498D2*
X39113D1*
X45490D2*
X47069D1*
X47567D2*
X52689D1*
X53186D2*
X54189D1*
X1522Y12759D2*
X6853D1*
X7789D2*
X13392D1*
X14983D2*
X25981D1*
X27019D2*
X27981D1*
X29019D2*
X32322D1*
X32678D2*
X32981D1*
X34019D2*
X35411D1*
X36106D2*
X36542D1*
X38458D2*
X39211D1*
X45550D2*
X47069D1*
X47567D2*
X52689D1*
X53186D2*
X54189D1*
X1522Y12660D2*
X6755D1*
X7690D2*
X13385D1*
X14990D2*
X25981D1*
X27019D2*
X27989D1*
X29011D2*
X32989D1*
X34011D2*
X35313D1*
X36008D2*
X36611D1*
X38389D2*
X39310D1*
X45561D2*
X47069D1*
X47567D2*
X52689D1*
X53186D2*
X54189D1*
X1522Y12562D2*
X6691D1*
X7592D2*
X13413D1*
X14962D2*
X25981D1*
X27019D2*
X28017D1*
X28983D2*
X33017D1*
X33983D2*
X35214D1*
X35909D2*
X36733D1*
X38267D2*
X39408D1*
X45561D2*
X47069D1*
X47567D2*
X52689D1*
X53186D2*
X54189D1*
X1522Y12463D2*
X6667D1*
X7494D2*
X13488D1*
X14887D2*
X25981D1*
X27019D2*
X28070D1*
X28930D2*
X33070D1*
X33930D2*
X35116D1*
X35811D2*
X36780D1*
X38220D2*
X39508D1*
X45561D2*
X47069D1*
X47567D2*
X52689D1*
X53186D2*
X54189D1*
X1522Y12364D2*
X6675D1*
X7395D2*
X12792D1*
X13034D2*
X16336D1*
X16576D2*
X25981D1*
X27019D2*
X28160D1*
X28840D2*
X33160D1*
X33840D2*
X35016D1*
X35712D2*
X36635D1*
X38365D2*
X39606D1*
X45561D2*
X47069D1*
X47567D2*
X52689D1*
X53186D2*
X54189D1*
X1522Y12265D2*
X6716D1*
X7297D2*
X12653D1*
X13173D2*
X16197D1*
X16717D2*
X25981D1*
X27019D2*
X28336D1*
X28664D2*
X33336D1*
X33664D2*
X34917D1*
X35614D2*
X36556D1*
X38444D2*
X39763D1*
X45561D2*
X47069D1*
X47567D2*
X52689D1*
X53186D2*
X54189D1*
X1522Y12167D2*
X6813D1*
X7187D2*
X12597D1*
X13230D2*
X16141D1*
X16772D2*
X28199D1*
X28801D2*
X33199D1*
X33801D2*
X34819D1*
X35514D2*
X36510D1*
X38490D2*
X40510D1*
X42490D2*
X44756D1*
X45561D2*
X47069D1*
X47567D2*
X52689D1*
X53186D2*
X54189D1*
X1522Y12068D2*
X12580D1*
X13247D2*
X16124D1*
X16790D2*
X28094D1*
X28906D2*
X33094D1*
X33906D2*
X34720D1*
X35415D2*
X36486D1*
X38514D2*
X40486D1*
X42514D2*
X44756D1*
X45561D2*
X47069D1*
X47567D2*
X52689D1*
X53186D2*
X54189D1*
X1522Y11969D2*
X12580D1*
X13247D2*
X16124D1*
X16790D2*
X28031D1*
X28969D2*
X33031D1*
X33969D2*
X34622D1*
X35317D2*
X36483D1*
X38517D2*
X40483D1*
X42517D2*
X44716D1*
X45561D2*
X47069D1*
X47567D2*
X52689D1*
X53186D2*
X54189D1*
X1522Y11871D2*
X12580D1*
X13247D2*
X16124D1*
X16790D2*
X27995D1*
X29005D2*
X32995D1*
X34005D2*
X34524D1*
X35219D2*
X36499D1*
X38501D2*
X40499D1*
X42501D2*
X44700D1*
X45561D2*
X47069D1*
X47567D2*
X52689D1*
X53186D2*
X54189D1*
X1522Y11772D2*
X12580D1*
X13247D2*
X16124D1*
X16790D2*
X27981D1*
X29019D2*
X32981D1*
X34019D2*
X34424D1*
X35120D2*
X36536D1*
X38464D2*
X40536D1*
X42464D2*
X44720D1*
X45561D2*
X47069D1*
X47567D2*
X52689D1*
X53186D2*
X54189D1*
X1522Y11673D2*
X10517D1*
X13247D2*
X16124D1*
X16790D2*
X27988D1*
X29012D2*
X32988D1*
X34012D2*
X34325D1*
X35022D2*
X36600D1*
X38400D2*
X40600D1*
X42400D2*
X44781D1*
X45561D2*
X47069D1*
X47567D2*
X52689D1*
X53186D2*
X54189D1*
X1522Y11575D2*
X10447D1*
X13247D2*
X16124D1*
X16790D2*
X28013D1*
X28987D2*
X33013D1*
X33987D2*
X34227D1*
X34922D2*
X36711D1*
X38289D2*
X40711D1*
X42289D2*
X45064D1*
X45561D2*
X47069D1*
X47567D2*
X52689D1*
X53186D2*
X54189D1*
X1522Y11476D2*
X10419D1*
X13247D2*
X16124D1*
X16790D2*
X28061D1*
X28939D2*
X33061D1*
X33939D2*
X34128D1*
X34823D2*
X36811D1*
X38189D2*
X40811D1*
X42189D2*
X44806D1*
X45561D2*
X47069D1*
X47567D2*
X52689D1*
X53186D2*
X54189D1*
X1522Y11377D2*
X10422D1*
X13247D2*
X16124D1*
X16790D2*
X28144D1*
X28856D2*
X33144D1*
X34725D2*
X36649D1*
X38351D2*
X40649D1*
X42351D2*
X44730D1*
X45561D2*
X47069D1*
X47567D2*
X52689D1*
X53186D2*
X54189D1*
X1522Y11279D2*
X10458D1*
X13247D2*
X16124D1*
X16790D2*
X28300D1*
X28700D2*
X33300D1*
X34626D2*
X36564D1*
X38436D2*
X40564D1*
X42436D2*
X44702D1*
X45561D2*
X47069D1*
X47567D2*
X52689D1*
X53186D2*
X54189D1*
X1522Y11180D2*
X10544D1*
X13247D2*
X16124D1*
X16790D2*
X27981D1*
X29019D2*
X32981D1*
X34528D2*
X36514D1*
X38486D2*
X40514D1*
X42486D2*
X44710D1*
X45551D2*
X47069D1*
X47567D2*
X52689D1*
X53186D2*
X54189D1*
X1522Y11081D2*
X12580D1*
X13247D2*
X16124D1*
X16790D2*
X27981D1*
X29019D2*
X32981D1*
X34430D2*
X36488D1*
X38512D2*
X40488D1*
X42512D2*
X44753D1*
X45492D2*
X47069D1*
X47567D2*
X52689D1*
X53186D2*
X54189D1*
X1522Y10983D2*
X12580D1*
X13247D2*
X16124D1*
X16790D2*
X27981D1*
X29019D2*
X32981D1*
X34320D2*
X36481D1*
X38519D2*
X40481D1*
X42519D2*
X44872D1*
X45137D2*
X47069D1*
X47567D2*
X52689D1*
X53186D2*
X54189D1*
X1522Y10884D2*
X12580D1*
X13247D2*
X16124D1*
X16790D2*
X27981D1*
X29019D2*
X32981D1*
X34019D2*
X36495D1*
X38505D2*
X40495D1*
X42505D2*
X47069D1*
X47567D2*
X52689D1*
X53186D2*
X54189D1*
X1522Y10785D2*
X12580D1*
X13247D2*
X16124D1*
X16790D2*
X27981D1*
X29019D2*
X32981D1*
X34019D2*
X36530D1*
X38470D2*
X40530D1*
X42470D2*
X47060D1*
X47575D2*
X48450D1*
X48925D2*
X49575D1*
X50050D2*
X52689D1*
X53186D2*
X54189D1*
X1522Y10686D2*
X12580D1*
X13247D2*
X16124D1*
X16790D2*
X27981D1*
X29019D2*
X32981D1*
X34019D2*
X36589D1*
X38411D2*
X40589D1*
X42411D2*
X47020D1*
X47615D2*
X48327D1*
X49048D2*
X49452D1*
X50173D2*
X52689D1*
X53186D2*
X54189D1*
X1522Y10588D2*
X12580D1*
X13247D2*
X16124D1*
X16790D2*
X27981D1*
X29019D2*
X32981D1*
X34019D2*
X36692D1*
X38308D2*
X40692D1*
X42308D2*
X47016D1*
X47619D2*
X48260D1*
X49115D2*
X49385D1*
X50240D2*
X52675D1*
X53200D2*
X54189D1*
X1522Y10489D2*
X12588D1*
X13239D2*
X16131D1*
X16783D2*
X27981D1*
X29019D2*
X32981D1*
X34019D2*
X36850D1*
X38150D2*
X40850D1*
X42519D2*
X47047D1*
X47587D2*
X48222D1*
X49153D2*
X49347D1*
X50278D2*
X52638D1*
X53237D2*
X54189D1*
X1522Y10390D2*
X12630D1*
X13197D2*
X16174D1*
X16740D2*
X27981D1*
X29019D2*
X32981D1*
X34019D2*
X36664D1*
X38336D2*
X40664D1*
X42519D2*
X47131D1*
X47503D2*
X48208D1*
X49167D2*
X49333D1*
X50292D2*
X52638D1*
X53237D2*
X54189D1*
X1522Y10292D2*
X12727D1*
X13100D2*
X16270D1*
X16642D2*
X27981D1*
X29019D2*
X32981D1*
X34019D2*
X36574D1*
X38426D2*
X40574D1*
X42519D2*
X48216D1*
X49159D2*
X49341D1*
X50284D2*
X52672D1*
X53203D2*
X54189D1*
X1522Y10193D2*
X36519D1*
X38481D2*
X40519D1*
X42519D2*
X48245D1*
X49130D2*
X49370D1*
X50255D2*
X52764D1*
X53111D2*
X54189D1*
X1522Y10094D2*
X36491D1*
X38509D2*
X40491D1*
X42519D2*
X48302D1*
X49073D2*
X49427D1*
X50198D2*
X54189D1*
X1522Y9996D2*
X1756D1*
X2244D2*
X4006D1*
X4494D2*
X36481D1*
X38519D2*
X40481D1*
X42519D2*
X48347D1*
X48973D2*
X49527D1*
X50153D2*
X54189D1*
X1522Y9897D2*
X1613D1*
X2387D2*
X3863D1*
X4637D2*
X36492D1*
X38508D2*
X40492D1*
X42519D2*
X48322D1*
X48933D2*
X49567D1*
X50178D2*
X54189D1*
X2470Y9798D2*
X3780D1*
X4720D2*
X36524D1*
X38476D2*
X40524D1*
X42519D2*
X48331D1*
X48919D2*
X49581D1*
X50169D2*
X54189D1*
X2520Y9700D2*
X3730D1*
X4770D2*
X36580D1*
X38420D2*
X40580D1*
X41420D2*
X41480D1*
X42519D2*
X48380D1*
X48870D2*
X49630D1*
X50120D2*
X54189D1*
X2548Y9601D2*
X3702D1*
X4798D2*
X36675D1*
X38325D2*
X40675D1*
X41325D2*
X41481D1*
X42519D2*
X48510D1*
X48740D2*
X49760D1*
X49990D2*
X54189D1*
X2558Y9502D2*
X3692D1*
X4808D2*
X36886D1*
X38114D2*
X40886D1*
X41114D2*
X41481D1*
X42519D2*
X54189D1*
X2550Y9404D2*
X3700D1*
X4800D2*
X36680D1*
X38320D2*
X54189D1*
X2522Y9305D2*
X3728D1*
X4772D2*
X36583D1*
X38417D2*
X54189D1*
X2472Y9206D2*
X3778D1*
X4722D2*
X10794D1*
X12553D2*
X16769D1*
X17247D2*
X36525D1*
X38475D2*
X54189D1*
X2392Y9107D2*
X3858D1*
X4642D2*
X10699D1*
X12648D2*
X16702D1*
X17345D2*
X36492D1*
X38508D2*
X54189D1*
X2253Y9009D2*
X3997D1*
X4503D2*
X10658D1*
X12687D2*
X16675D1*
X17444D2*
X36481D1*
X38519D2*
X54189D1*
X2373Y8910D2*
X2763D1*
X3237D2*
X3877D1*
X4623D2*
X5013D1*
X5487D2*
X10652D1*
X12695D2*
X16681D1*
X17542D2*
X36489D1*
X38511D2*
X54189D1*
X3361Y8811D2*
X3789D1*
X5611D2*
X10675D1*
X12670D2*
X16719D1*
X17640D2*
X36517D1*
X38483D2*
X54189D1*
X3428Y8713D2*
X3735D1*
X5678D2*
X10741D1*
X12606D2*
X16803D1*
X17739D2*
X36570D1*
X38430D2*
X54189D1*
X3465Y8614D2*
X3705D1*
X5715D2*
X10950D1*
X12397D2*
X16902D1*
X17839D2*
X36660D1*
X38340D2*
X54189D1*
X3480Y8515D2*
X3692D1*
X5730D2*
X17000D1*
X17937D2*
X36836D1*
X38164D2*
X54189D1*
X3472Y8417D2*
X3699D1*
X5722D2*
X17100D1*
X18036D2*
X36699D1*
X38301D2*
X54189D1*
X3442Y8318D2*
X3724D1*
X5692D2*
X17199D1*
X18134D2*
X36594D1*
X38406D2*
X54189D1*
X3386Y8219D2*
X3769D1*
X5636D2*
X17297D1*
X18233D2*
X36531D1*
X38469D2*
X54189D1*
X2405Y8121D2*
X2714D1*
X3286D2*
X3845D1*
X4655D2*
X4964D1*
X5536D2*
X17395D1*
X18331D2*
X36495D1*
X38505D2*
X54189D1*
X2558Y8022D2*
X3692D1*
X4808D2*
X17494D1*
X18431D2*
X36481D1*
X38519D2*
X54189D1*
X2558Y7923D2*
X3692D1*
X4808D2*
X17592D1*
X18530D2*
X36488D1*
X38512D2*
X48170D1*
X48330D2*
X50170D1*
X50330D2*
X54189D1*
X2558Y7825D2*
X3692D1*
X4808D2*
X17692D1*
X18628D2*
X36513D1*
X38487D2*
X48013D1*
X50487D2*
X54189D1*
X2558Y7726D2*
X3692D1*
X4808D2*
X17791D1*
X18726D2*
X36561D1*
X38439D2*
X47960D1*
X50540D2*
X54189D1*
X2558Y7627D2*
X3692D1*
X4808D2*
X17889D1*
X18803D2*
X32092D1*
X32415D2*
X36644D1*
X38356D2*
X47945D1*
X50609D2*
X54189D1*
X2558Y7528D2*
X3692D1*
X4808D2*
X17988D1*
X18834D2*
X31992D1*
X32514D2*
X36800D1*
X38200D2*
X47967D1*
X50673D2*
X54189D1*
X2558Y7430D2*
X3692D1*
X4808D2*
X18086D1*
X18834D2*
X31955D1*
X32553D2*
X36719D1*
X38281D2*
X40719D1*
X41281D2*
X41719D1*
X42281D2*
X48033D1*
X50686D2*
X54189D1*
X2558Y7331D2*
X3692D1*
X4808D2*
X18185D1*
X18801D2*
X31953D1*
X32555D2*
X36603D1*
X38397D2*
X40603D1*
X41397D2*
X41603D1*
X42397D2*
X50189D1*
X50686D2*
X54189D1*
X2558Y7232D2*
X3692D1*
X4808D2*
X18286D1*
X18722D2*
X31986D1*
X32520D2*
X36538D1*
X38462D2*
X40538D1*
X41462D2*
X41538D1*
X42462D2*
X49185D1*
X49940D2*
X50189D1*
X50686D2*
X54189D1*
X2558Y7134D2*
X3692D1*
X4808D2*
X32005D1*
X32503D2*
X36500D1*
X38500D2*
X40500D1*
X42500D2*
X49103D1*
X50089D2*
X50189D1*
X50686D2*
X54189D1*
X2558Y7035D2*
X3692D1*
X4808D2*
X32005D1*
X32503D2*
X36483D1*
X38517D2*
X40483D1*
X42517D2*
X49074D1*
X50686D2*
X54189D1*
X1522Y6936D2*
X32005D1*
X32503D2*
X36486D1*
X38514D2*
X40486D1*
X42514D2*
X49078D1*
X50686D2*
X54189D1*
X1522Y6838D2*
X32005D1*
X32503D2*
X36508D1*
X38492D2*
X40508D1*
X42492D2*
X49120D1*
X50686D2*
X54189D1*
X1522Y6739D2*
X32005D1*
X32503D2*
X36553D1*
X38447D2*
X40553D1*
X42447D2*
X49230D1*
X49520D2*
X49788D1*
X50686D2*
X54189D1*
X1522Y6640D2*
X32005D1*
X32503D2*
X36630D1*
X39083D2*
X40630D1*
X42370D2*
X49814D1*
X50686D2*
X54189D1*
X1522Y6542D2*
X32005D1*
X32503D2*
X36770D1*
X39181D2*
X40770D1*
X42230D2*
X49814D1*
X50686D2*
X54189D1*
X1522Y6443D2*
X32005D1*
X32503D2*
X36741D1*
X39280D2*
X40741D1*
X42259D2*
X44241D1*
X44759D2*
X49814D1*
X50686D2*
X54189D1*
X1522Y6344D2*
X32005D1*
X32503D2*
X36616D1*
X39378D2*
X40616D1*
X42384D2*
X44116D1*
X44884D2*
X49814D1*
X50686D2*
X54189D1*
X1522Y6246D2*
X32005D1*
X32503D2*
X36545D1*
X39478D2*
X40545D1*
X42455D2*
X44045D1*
X44955D2*
X49814D1*
X50686D2*
X54189D1*
X1522Y6147D2*
X32005D1*
X32503D2*
X36503D1*
X39576D2*
X40503D1*
X42497D2*
X44003D1*
X44997D2*
X49814D1*
X50686D2*
X54189D1*
X1522Y6048D2*
X32005D1*
X32503D2*
X36485D1*
X39675D2*
X40485D1*
X42515D2*
X43985D1*
X45015D2*
X49814D1*
X50686D2*
X54189D1*
X1522Y5949D2*
X32005D1*
X32503D2*
X36485D1*
X39773D2*
X40485D1*
X42515D2*
X43985D1*
X45015D2*
X49814D1*
X50686D2*
X54189D1*
X1617Y5851D2*
X32005D1*
X32503D2*
X36503D1*
X39872D2*
X40503D1*
X42497D2*
X43941D1*
X44997D2*
X49814D1*
X50686D2*
X54189D1*
X1715Y5752D2*
X32005D1*
X32503D2*
X36545D1*
X38455D2*
X38838D1*
X39970D2*
X40545D1*
X42455D2*
X43842D1*
X44955D2*
X49814D1*
X50686D2*
X51014D1*
X51361D2*
X54189D1*
X1814Y5653D2*
X31992D1*
X32514D2*
X36617D1*
X38383D2*
X38936D1*
X44883D2*
X49814D1*
X50686D2*
X50855D1*
X51520D2*
X54189D1*
X1914Y5555D2*
X31955D1*
X32553D2*
X36744D1*
X38256D2*
X39035D1*
X44756D2*
X49814D1*
X50686D2*
X50775D1*
X51600D2*
X54189D1*
X2012Y5456D2*
X31953D1*
X32555D2*
X36766D1*
X38234D2*
X39133D1*
X44734D2*
X49795D1*
X51644D2*
X53245D1*
X53505D2*
X54189D1*
X4206Y5357D2*
X31986D1*
X32520D2*
X36628D1*
X38372D2*
X39233D1*
X44872D2*
X49763D1*
X51664D2*
X53125D1*
X4330Y5259D2*
X32077D1*
X32431D2*
X36552D1*
X38448D2*
X39331D1*
X44948D2*
X49764D1*
X51664D2*
X53080D1*
X4381Y5160D2*
X36508D1*
X38492D2*
X39430D1*
X44992D2*
X49802D1*
X51640D2*
X53072D1*
X4397Y5061D2*
X7713D1*
X12155D2*
X36485D1*
X38515D2*
X39528D1*
X45015D2*
X49900D1*
X50225D2*
X50338D1*
X50662D2*
X50781D1*
X51594D2*
X53100D1*
X4397Y4963D2*
X7558D1*
X12234D2*
X36483D1*
X38517D2*
X39627D1*
X45017D2*
X50864D1*
X51511D2*
X53175D1*
X4397Y4864D2*
X7499D1*
X12267D2*
X36500D1*
X38500D2*
X39725D1*
X45000D2*
X51041D1*
X51334D2*
X54191D1*
X4397Y4765D2*
X7478D1*
X12272D2*
X36539D1*
X38461D2*
X39825D1*
X44961D2*
X54191D1*
X4397Y4667D2*
X7489D1*
X12261D2*
X36606D1*
X38394D2*
X39924D1*
X42873D2*
X44106D1*
X44894D2*
X54191D1*
X4397Y4568D2*
X7535D1*
X12215D2*
X36722D1*
X38278D2*
X40022D1*
X42873D2*
X44222D1*
X44778D2*
X54191D1*
X4397Y4469D2*
X7641D1*
X12109D2*
X25741D1*
X26281D2*
X26495D1*
X27494D2*
X29370D1*
X29667D2*
X30005D1*
X31001D2*
X36794D1*
X38206D2*
X40120D1*
X42873D2*
X44294D1*
X44706D2*
X54191D1*
X4397Y4370D2*
X25627D1*
X26394D2*
X26495D1*
X27494D2*
X29189D1*
X29848D2*
X30005D1*
X31001D2*
X36642D1*
X38358D2*
X40219D1*
X42873D2*
X44142D1*
X44858D2*
X54191D1*
X4397Y4272D2*
X25563D1*
X27494D2*
X29102D1*
X29936D2*
X30005D1*
X31001D2*
X36560D1*
X38440D2*
X40356D1*
X42873D2*
X44060D1*
X44940D2*
X54191D1*
X4397Y4173D2*
X25527D1*
X27494D2*
X29052D1*
X31001D2*
X36511D1*
X38489D2*
X40511D1*
X42873D2*
X44011D1*
X44989D2*
X54191D1*
X4397Y4074D2*
X25513D1*
X27494D2*
X29025D1*
X31001D2*
X36488D1*
X38512D2*
X40488D1*
X42873D2*
X43988D1*
X45012D2*
X54191D1*
X4397Y3976D2*
X25519D1*
X27494D2*
X29020D1*
X31001D2*
X36481D1*
X38519D2*
X40481D1*
X42873D2*
X43981D1*
X45019D2*
X54191D1*
X4397Y3877D2*
X25545D1*
X27494D2*
X29036D1*
X31001D2*
X36497D1*
X38503D2*
X40497D1*
X42873D2*
X43997D1*
X45003D2*
X54191D1*
X4381Y3778D2*
X25597D1*
X26423D2*
X26495D1*
X27494D2*
X29074D1*
X31001D2*
X36533D1*
X38467D2*
X40533D1*
X42853D2*
X44033D1*
X44967D2*
X54191D1*
X4331Y3680D2*
X25688D1*
X26334D2*
X26495D1*
X27494D2*
X29141D1*
X29898D2*
X30005D1*
X31001D2*
X36595D1*
X38405D2*
X40595D1*
X42778D2*
X44095D1*
X44905D2*
X54191D1*
X4208Y3581D2*
X25881D1*
X26140D2*
X26495D1*
X27494D2*
X29258D1*
X29780D2*
X30005D1*
X31001D2*
X32231D1*
X33269D2*
X33516D1*
X33984D2*
X36702D1*
X38298D2*
X40702D1*
X42678D2*
X44202D1*
X44798D2*
X54191D1*
X959Y3482D2*
X32231D1*
X33269D2*
X33378D1*
X34122D2*
X36828D1*
X38172D2*
X40828D1*
X42580D2*
X43981D1*
X45019D2*
X54191D1*
X959Y3384D2*
X32231D1*
X34198D2*
X36656D1*
X38344D2*
X40656D1*
X42519D2*
X43981D1*
X45019D2*
X47231D1*
X48269D2*
X48495D1*
X49005D2*
X49495D1*
X50005D2*
X50495D1*
X51005D2*
X54191D1*
X959Y3285D2*
X32231D1*
X34242D2*
X36569D1*
X38431D2*
X40569D1*
X42519D2*
X43981D1*
X45019D2*
X47231D1*
X48269D2*
X48369D1*
X49131D2*
X49369D1*
X50131D2*
X50369D1*
X51131D2*
X54191D1*
X959Y3186D2*
X32231D1*
X34265D2*
X36517D1*
X38483D2*
X40517D1*
X42519D2*
X43981D1*
X45019D2*
X47231D1*
X49203D2*
X49297D1*
X50203D2*
X50297D1*
X51203D2*
X54191D1*
X959Y3088D2*
X32231D1*
X34267D2*
X36489D1*
X38511D2*
X40489D1*
X42519D2*
X43981D1*
X45019D2*
X47231D1*
X51245D2*
X54191D1*
X959Y2989D2*
X32231D1*
X34250D2*
X36481D1*
X38519D2*
X40481D1*
X42519D2*
X43981D1*
X45019D2*
X47231D1*
X51265D2*
X54191D1*
X959Y2890D2*
X32231D1*
X34211D2*
X36494D1*
X38506D2*
X40494D1*
X42519D2*
X43981D1*
X45019D2*
X47231D1*
X51267D2*
X54191D1*
X959Y2791D2*
X32231D1*
X33269D2*
X33356D1*
X34144D2*
X36527D1*
X37473D2*
X37525D1*
X38473D2*
X40527D1*
X42519D2*
X43981D1*
X45019D2*
X47231D1*
X51247D2*
X54191D1*
X959Y2693D2*
X32231D1*
X33269D2*
X33472D1*
X34028D2*
X36585D1*
X37415D2*
X37585D1*
X38415D2*
X40585D1*
X41415D2*
X41483D1*
X42519D2*
X43981D1*
X45019D2*
X47231D1*
X49206D2*
X49294D1*
X50206D2*
X50294D1*
X51206D2*
X54191D1*
X959Y2594D2*
X32502D1*
X32998D2*
X36683D1*
X37317D2*
X37683D1*
X38317D2*
X40683D1*
X41317D2*
X41481D1*
X42519D2*
X43981D1*
X45019D2*
X47231D1*
X48269D2*
X48364D1*
X49136D2*
X49364D1*
X50136D2*
X50364D1*
X51136D2*
X54191D1*
X959Y2495D2*
X32452D1*
X33048D2*
X36927D1*
X37073D2*
X37927D1*
X38073D2*
X40927D1*
X41073D2*
X41481D1*
X42519D2*
X43981D1*
X45019D2*
X47231D1*
X48269D2*
X48489D1*
X49011D2*
X49489D1*
X50011D2*
X50489D1*
X51011D2*
X54191D1*
X959Y2397D2*
X32358D1*
X33142D2*
X54191D1*
X959Y2298D2*
X32303D1*
X33197D2*
X54191D1*
X959Y2199D2*
X32277D1*
X33223D2*
X54191D1*
X959Y2101D2*
X32272D1*
X33228D2*
X54191D1*
X959Y2002D2*
X32288D1*
X33212D2*
X54191D1*
X959Y1903D2*
X32327D1*
X33173D2*
X54191D1*
X959Y1805D2*
X32397D1*
X33103D2*
X54191D1*
X959Y1706D2*
X32528D1*
X32972D2*
X54191D1*
X959Y1607D2*
X54191D1*
X959Y1509D2*
X54191D1*
X959Y1410D2*
X10481D1*
X11519D2*
X11689D1*
X12311D2*
X12689D1*
X13311D2*
X13689D1*
X14311D2*
X14689D1*
X15311D2*
X15689D1*
X16311D2*
X16689D1*
X17311D2*
X17689D1*
X18311D2*
X19481D1*
X20519D2*
X20689D1*
X21311D2*
X21689D1*
X22311D2*
X22689D1*
X23311D2*
X23689D1*
X24311D2*
X24689D1*
X25311D2*
X25689D1*
X26311D2*
X26689D1*
X27311D2*
X28481D1*
X29519D2*
X29689D1*
X30311D2*
X30689D1*
X31311D2*
X31689D1*
X32311D2*
X32689D1*
X33311D2*
X33689D1*
X34311D2*
X34689D1*
X35311D2*
X35689D1*
X36311D2*
X54191D1*
X959Y1311D2*
X10481D1*
X11519D2*
X11589D1*
X12412D2*
X12588D1*
X13412D2*
X13588D1*
X14412D2*
X14588D1*
X15412D2*
X15588D1*
X16412D2*
X16588D1*
X17412D2*
X17588D1*
X18412D2*
X19481D1*
X20519D2*
X20589D1*
X21412D2*
X21588D1*
X22412D2*
X22588D1*
X23412D2*
X23588D1*
X24412D2*
X24588D1*
X25412D2*
X25588D1*
X26412D2*
X26588D1*
X27412D2*
X28481D1*
X29519D2*
X29589D1*
X30412D2*
X30588D1*
X31412D2*
X31588D1*
X32412D2*
X32588D1*
X33412D2*
X33588D1*
X34412D2*
X34588D1*
X35412D2*
X35588D1*
X36412D2*
X54191D1*
X959Y1212D2*
X10481D1*
X12472D2*
X12528D1*
X13472D2*
X13528D1*
X14472D2*
X14528D1*
X15472D2*
X15528D1*
X16472D2*
X16528D1*
X17472D2*
X17528D1*
X18472D2*
X19481D1*
X21472D2*
X21528D1*
X22472D2*
X22528D1*
X23472D2*
X23528D1*
X24472D2*
X24528D1*
X25472D2*
X25528D1*
X26472D2*
X26528D1*
X27472D2*
X28481D1*
X30472D2*
X30528D1*
X31472D2*
X31528D1*
X32472D2*
X32528D1*
X33472D2*
X33528D1*
X34472D2*
X34528D1*
X35472D2*
X35528D1*
X36472D2*
X54191D1*
X959Y1114D2*
X10481D1*
X18506D2*
X19481D1*
X27506D2*
X28481D1*
X36506D2*
X54191D1*
X959Y1015D2*
X10481D1*
X18519D2*
X19481D1*
X27519D2*
X28481D1*
X36519D2*
X54191D1*
X959Y916D2*
X10481D1*
X18512D2*
X19481D1*
X27512D2*
X28481D1*
X36512D2*
X54191D1*
X1025Y818D2*
X10481D1*
X18484D2*
X19481D1*
X27484D2*
X28481D1*
X36484D2*
X54191D1*
X10541Y1509D2*
X11509D1*
Y1132D1*
X11531Y1197D1*
X11578Y1285D1*
X11642Y1361D1*
X11720Y1424D1*
X11808Y1471D1*
X11904Y1499D1*
X12003Y1509D1*
X12102Y1498D1*
X12198Y1469D1*
X12285Y1421D1*
X12362Y1357D1*
X12425Y1280D1*
X12471Y1191D1*
X12500Y1095D1*
X12514Y1150D1*
X12553Y1242D1*
X12608Y1325D1*
X12679Y1395D1*
X12763Y1450D1*
X12855Y1488D1*
X12953Y1506D1*
X13053D1*
X13151Y1486D1*
X13243Y1447D1*
X13325Y1391D1*
X13395Y1320D1*
X13450Y1236D1*
X13488Y1144D1*
X13500Y1094D1*
X13514Y1150D1*
X13553Y1242D1*
X13608Y1325D1*
X13679Y1395D1*
X13763Y1450D1*
X13855Y1488D1*
X13953Y1506D1*
X14053D1*
X14151Y1486D1*
X14243Y1447D1*
X14325Y1391D1*
X14395Y1320D1*
X14450Y1236D1*
X14488Y1144D1*
X14500Y1094D1*
X14514Y1150D1*
X14553Y1242D1*
X14608Y1325D1*
X14679Y1395D1*
X14763Y1450D1*
X14855Y1488D1*
X14953Y1506D1*
X15053D1*
X15151Y1486D1*
X15243Y1447D1*
X15325Y1391D1*
X15395Y1320D1*
X15450Y1236D1*
X15488Y1144D1*
X15500Y1094D1*
X15520Y1169D1*
X15548Y1233D1*
X15584Y1293D1*
X15628Y1347D1*
X15679Y1395D1*
X15737Y1435D1*
X15799Y1467D1*
X15865Y1490D1*
X15933Y1504D1*
X16003Y1509D1*
X16073Y1503D1*
X16141Y1489D1*
X16207Y1465D1*
X16269Y1432D1*
X16325Y1391D1*
X16376Y1343D1*
X16419Y1288D1*
X16455Y1228D1*
X16482Y1163D1*
X16500Y1093D1*
X16517Y1159D1*
X16543Y1224D1*
X16578Y1285D1*
X16621Y1340D1*
X16672Y1388D1*
X16728Y1430D1*
X16790Y1463D1*
X16855Y1488D1*
X16923Y1503D1*
X16993Y1509D1*
X17063Y1505D1*
X17132Y1491D1*
X17198Y1469D1*
X17260Y1437D1*
X17318Y1397D1*
X17369Y1350D1*
X17414Y1296D1*
X17450Y1236D1*
X17479Y1172D1*
X17498Y1105D1*
X17500Y1093D1*
X17514Y1150D1*
X17553Y1242D1*
X17608Y1325D1*
X17679Y1395D1*
X17763Y1450D1*
X17855Y1488D1*
X17953Y1506D1*
X18053D1*
X18151Y1486D1*
X18243Y1447D1*
X18325Y1391D1*
X18395Y1320D1*
X18450Y1236D1*
X18488Y1144D1*
X18507Y1046D1*
X18506Y950D1*
X18487Y852D1*
X18468Y801D1*
X19450Y800D1*
X19492D1*
X19491Y1509D1*
X20509D1*
Y1132D1*
X20531Y1197D1*
X20578Y1285D1*
X20642Y1361D1*
X20720Y1424D1*
X20808Y1471D1*
X20904Y1499D1*
X21003Y1509D1*
X21102Y1498D1*
X21198Y1469D1*
X21285Y1421D1*
X21362Y1357D1*
X21425Y1280D1*
X21471Y1191D1*
X21500Y1095D1*
X21514Y1150D1*
X21553Y1242D1*
X21608Y1325D1*
X21679Y1395D1*
X21763Y1450D1*
X21855Y1488D1*
X21953Y1506D1*
X22053D1*
X22151Y1486D1*
X22243Y1447D1*
X22325Y1391D1*
X22395Y1320D1*
X22450Y1236D1*
X22488Y1144D1*
X22500Y1094D1*
X22514Y1150D1*
X22553Y1242D1*
X22608Y1325D1*
X22679Y1395D1*
X22763Y1450D1*
X22855Y1488D1*
X22953Y1506D1*
X23053D1*
X23151Y1486D1*
X23243Y1447D1*
X23325Y1391D1*
X23395Y1320D1*
X23450Y1236D1*
X23488Y1144D1*
X23500Y1094D1*
X23514Y1150D1*
X23553Y1242D1*
X23608Y1325D1*
X23679Y1395D1*
X23763Y1450D1*
X23855Y1488D1*
X23953Y1506D1*
X24053D1*
X24151Y1486D1*
X24243Y1447D1*
X24325Y1391D1*
X24395Y1320D1*
X24450Y1236D1*
X24488Y1144D1*
X24500Y1094D1*
X24514Y1150D1*
X24553Y1242D1*
X24608Y1325D1*
X24679Y1395D1*
X24763Y1450D1*
X24855Y1488D1*
X24953Y1506D1*
X25053D1*
X25151Y1486D1*
X25243Y1447D1*
X25325Y1391D1*
X25395Y1320D1*
X25450Y1236D1*
X25488Y1144D1*
X25500Y1094D1*
X25514Y1150D1*
X25553Y1242D1*
X25608Y1325D1*
X25679Y1395D1*
X25763Y1450D1*
X25855Y1488D1*
X25953Y1506D1*
X26053D1*
X26151Y1486D1*
X26243Y1447D1*
X26325Y1391D1*
X26395Y1320D1*
X26450Y1236D1*
X26488Y1144D1*
X26500Y1094D1*
X26514Y1150D1*
X26553Y1242D1*
X26608Y1325D1*
X26679Y1395D1*
X26763Y1450D1*
X26855Y1488D1*
X26953Y1506D1*
X27053D1*
X27151Y1486D1*
X27243Y1447D1*
X27325Y1391D1*
X27395Y1320D1*
X27450Y1236D1*
X27488Y1144D1*
X27507Y1046D1*
X27506Y950D1*
X27487Y852D1*
X27468Y801D1*
X28450Y800D1*
X28492D1*
X28491Y1509D1*
X29509D1*
Y1132D1*
X29531Y1197D1*
X29578Y1285D1*
X29642Y1361D1*
X29720Y1424D1*
X29808Y1471D1*
X29904Y1499D1*
X30003Y1509D1*
X30102Y1498D1*
X30198Y1469D1*
X30285Y1421D1*
X30362Y1357D1*
X30425Y1280D1*
X30471Y1191D1*
X30500Y1095D1*
X30514Y1150D1*
X30553Y1242D1*
X30608Y1325D1*
X30679Y1395D1*
X30763Y1450D1*
X30855Y1488D1*
X30953Y1506D1*
X31053D1*
X31151Y1486D1*
X31243Y1447D1*
X31325Y1391D1*
X31395Y1320D1*
X31450Y1236D1*
X31488Y1144D1*
X31500Y1094D1*
X31514Y1150D1*
X31553Y1242D1*
X31608Y1325D1*
X31679Y1395D1*
X31763Y1450D1*
X31855Y1488D1*
X31953Y1506D1*
X32053D1*
X32151Y1486D1*
X32243Y1447D1*
X32325Y1391D1*
X32395Y1320D1*
X32450Y1236D1*
X32488Y1144D1*
X32500Y1094D1*
X32514Y1150D1*
X32553Y1242D1*
X32608Y1325D1*
X32679Y1395D1*
X32763Y1450D1*
X32855Y1488D1*
X32953Y1506D1*
X33053D1*
X33151Y1486D1*
X33243Y1447D1*
X33325Y1391D1*
X33395Y1320D1*
X33450Y1236D1*
X33488Y1144D1*
X33500Y1094D1*
X33514Y1150D1*
X33553Y1242D1*
X33608Y1325D1*
X33679Y1395D1*
X33763Y1450D1*
X33855Y1488D1*
X33953Y1506D1*
X34053D1*
X34151Y1486D1*
X34243Y1447D1*
X34325Y1391D1*
X34395Y1320D1*
X34450Y1236D1*
X34488Y1144D1*
X34500Y1094D1*
X34514Y1150D1*
X34553Y1242D1*
X34608Y1325D1*
X34679Y1395D1*
X34763Y1450D1*
X34855Y1488D1*
X34953Y1506D1*
X35053D1*
X35151Y1486D1*
X35243Y1447D1*
X35325Y1391D1*
X35395Y1320D1*
X35450Y1236D1*
X35488Y1144D1*
X35500Y1094D1*
X35514Y1150D1*
X35553Y1242D1*
X35608Y1325D1*
X35679Y1395D1*
X35763Y1450D1*
X35855Y1488D1*
X35953Y1506D1*
X36053D1*
X36151Y1486D1*
X36243Y1447D1*
X36325Y1391D1*
X36395Y1320D1*
X36450Y1236D1*
X36488Y1144D1*
X36507Y1046D1*
X36506Y950D1*
X36487Y852D1*
X36468Y801D1*
X37450Y800D1*
X54200D1*
Y4948D1*
X53545D1*
X53484Y4914D1*
X53436Y4900D1*
X53387Y4894D1*
X53337Y4896D1*
X53288Y4906D1*
X53242Y4925D1*
X53200Y4952D1*
X53162Y4985D1*
X53131Y5024D1*
X53107Y5067D1*
X53090Y5114D1*
X53082Y5164D1*
Y5214D1*
X53091Y5263D1*
X53108Y5310D1*
X53132Y5353D1*
X53164Y5392D1*
X53201Y5425D1*
X53244Y5451D1*
X53290Y5469D1*
X53339Y5479D1*
X53389Y5481D1*
X53439Y5475D1*
X53486Y5460D1*
X53545Y5427D1*
X54198Y5426D1*
Y20698D1*
X43239D1*
Y20448D1*
X43285Y20421D1*
X43362Y20357D1*
X43425Y20280D1*
X43471Y20191D1*
X43500Y20095D1*
X43509Y20000D1*
X43499Y19901D1*
X43470Y19805D1*
X43423Y19717D1*
X43359Y19640D1*
X43282Y19577D1*
X43194Y19530D1*
X43098Y19501D1*
X43094Y19500D1*
X43151Y19486D1*
X43243Y19447D1*
X43325Y19391D1*
X43395Y19320D1*
X43450Y19236D1*
X43488Y19144D1*
X43507Y19046D1*
X43506Y18950D1*
X43487Y18852D1*
X43448Y18760D1*
X43393Y18677D1*
X43322Y18606D1*
X43239Y18551D1*
X43147Y18513D1*
X43094Y18500D1*
X43151Y18486D1*
X43243Y18447D1*
X43325Y18391D1*
X43395Y18320D1*
X43450Y18236D1*
X43488Y18144D1*
X43507Y18046D1*
X43506Y17950D1*
X43487Y17852D1*
X43448Y17760D1*
X43393Y17677D1*
X43322Y17606D1*
X43239Y17551D1*
X43147Y17513D1*
X43130Y17509D1*
X43509D1*
Y16491D1*
X42491Y16493D1*
X42459Y16491D1*
X40491D1*
Y17509D1*
X40868D1*
X40804Y17531D1*
X40716Y17578D1*
X40639Y17641D1*
X40576Y17719D1*
X40529Y17807D1*
X40501Y17903D1*
X40491Y18002D1*
X40502Y18101D1*
X40531Y18197D1*
X40578Y18285D1*
X40642Y18361D1*
X40720Y18424D1*
X40808Y18471D1*
X40904Y18499D1*
X40908Y18500D1*
X40851Y18514D1*
X40759Y18552D1*
X40676Y18608D1*
X40606Y18679D1*
X40551Y18762D1*
X40513Y18854D1*
X40494Y18952D1*
Y19052D1*
X40514Y19150D1*
X40553Y19242D1*
X40608Y19325D1*
X40679Y19395D1*
X40763Y19450D1*
X40855Y19488D1*
X40908Y19500D1*
X40851Y19514D1*
X40759Y19552D1*
X40676Y19608D1*
X40606Y19679D1*
X40551Y19762D1*
X40513Y19854D1*
X40494Y19952D1*
Y20052D1*
X40514Y20150D1*
X40553Y20242D1*
X40608Y20325D1*
X40679Y20395D1*
X40763Y20450D1*
X40855Y20488D1*
X40953Y20506D1*
X41053D1*
X41151Y20486D1*
X41243Y20447D1*
X41325Y20391D1*
X41395Y20320D1*
X41450Y20236D1*
X41488Y20144D1*
X41500Y20094D1*
X41520Y20169D1*
X41548Y20233D1*
X41584Y20293D1*
X41628Y20347D1*
X41679Y20395D1*
X41737Y20435D1*
X41799Y20467D1*
X41865Y20490D1*
X41933Y20504D1*
X42003Y20509D1*
X42073Y20503D1*
X42141Y20489D1*
X42207Y20465D1*
X42269Y20432D1*
X42325Y20391D1*
X42376Y20343D1*
X42419Y20288D1*
X42455Y20228D1*
X42482Y20163D1*
X42500Y20093D1*
X42514Y20150D1*
X42553Y20242D1*
X42608Y20325D1*
X42679Y20395D1*
X42761Y20449D1*
Y20939D1*
X42750Y20950D1*
X39227D1*
X39234Y20925D1*
X39239Y20875D1*
X39240Y13979D1*
X39481Y13739D1*
X40563D1*
X40529Y13807D1*
X40501Y13903D1*
X40491Y14002D1*
X40502Y14101D1*
X40531Y14197D1*
X40578Y14285D1*
X40642Y14361D1*
X40720Y14424D1*
X40808Y14471D1*
X40904Y14499D1*
X41003Y14509D1*
X41102Y14498D1*
X41198Y14469D1*
X41285Y14421D1*
X41362Y14357D1*
X41425Y14280D1*
X41471Y14191D1*
X41500Y14095D1*
X41517Y14159D1*
X41543Y14224D1*
X41578Y14285D1*
X41621Y14340D1*
X41672Y14388D1*
X41728Y14430D1*
X41790Y14463D1*
X41855Y14488D1*
X41923Y14503D1*
X41993Y14509D1*
X42063Y14505D1*
X42132Y14491D1*
X42198Y14469D1*
X42260Y14437D1*
X42318Y14397D1*
X42369Y14350D1*
X42414Y14296D1*
X42450Y14236D1*
X42479Y14172D1*
X42498Y14105D1*
X42507Y14036D1*
Y13960D1*
X42497Y13891D1*
X42477Y13824D1*
X42448Y13760D1*
X42421Y13715D1*
X42448Y13701D1*
X42487Y13669D1*
X43167Y12990D1*
X45249D1*
X45298Y12985D1*
X45346Y12970D1*
X45378Y12952D1*
X45418Y12920D1*
X45481Y12857D1*
X45513Y12818D1*
X45536Y12773D1*
X45546Y12738D1*
X45551Y12688D1*
Y11250D1*
X45546Y11200D1*
X45531Y11153D1*
X45506Y11110D1*
X45473Y11073D1*
X45432Y11043D1*
X45387Y11023D1*
X45336Y11012D1*
X45177Y11011D1*
X45114Y10977D1*
X45066Y10962D1*
X45017Y10956D1*
X44967Y10958D1*
X44918Y10969D1*
X44872Y10988D1*
X44829Y11014D1*
X44792Y11047D1*
X44761Y11086D1*
X44736Y11130D1*
X44720Y11177D1*
X44712Y11226D1*
Y11276D1*
X44720Y11325D1*
X44737Y11372D1*
X44762Y11416D1*
X44793Y11454D1*
X44831Y11487D1*
X44874Y11513D1*
X44920Y11532D1*
X44969Y11542D1*
X45019Y11544D1*
X45073Y11536D1*
Y11589D1*
X45017Y11582D1*
X44967Y11585D1*
X44918Y11595D1*
X44872Y11614D1*
X44829Y11640D1*
X44792Y11673D1*
X44761Y11712D1*
X44736Y11756D1*
X44720Y11803D1*
X44712Y11852D1*
Y11902D1*
X44720Y11952D1*
X44737Y11999D1*
X44767Y12048D1*
X44766Y12262D1*
X44505Y12261D1*
X42438D1*
X42471Y12191D1*
X42500Y12095D1*
X42509Y12000D1*
X42499Y11901D1*
X42470Y11805D1*
X42423Y11717D1*
X42359Y11640D1*
X42282Y11577D1*
X42194Y11530D1*
X42098Y11501D1*
X42094Y11500D1*
X42151Y11486D1*
X42243Y11447D1*
X42325Y11391D1*
X42395Y11320D1*
X42450Y11236D1*
X42488Y11144D1*
X42507Y11046D1*
X42506Y10950D1*
X42487Y10852D1*
X42448Y10760D1*
X42393Y10677D1*
X42322Y10606D1*
X42239Y10551D1*
X42147Y10513D1*
X42130Y10509D1*
X42509D1*
Y9491D1*
X41491D1*
Y9868D1*
X41470Y9805D1*
X41423Y9717D1*
X41359Y9640D1*
X41282Y9577D1*
X41194Y9530D1*
X41098Y9501D1*
X40999Y9491D1*
X40900Y9501D1*
X40804Y9531D1*
X40716Y9578D1*
X40639Y9641D1*
X40576Y9719D1*
X40529Y9807D1*
X40501Y9903D1*
X40491Y10002D1*
X40502Y10101D1*
X40531Y10197D1*
X40578Y10285D1*
X40642Y10361D1*
X40720Y10424D1*
X40808Y10471D1*
X40904Y10499D1*
X40908Y10500D1*
X40851Y10514D1*
X40759Y10552D1*
X40676Y10608D1*
X40606Y10679D1*
X40551Y10762D1*
X40513Y10854D1*
X40494Y10952D1*
Y11052D1*
X40514Y11150D1*
X40553Y11242D1*
X40608Y11325D1*
X40679Y11395D1*
X40763Y11450D1*
X40855Y11488D1*
X40908Y11500D1*
X40851Y11514D1*
X40759Y11552D1*
X40676Y11608D1*
X40606Y11679D1*
X40551Y11762D1*
X40513Y11854D1*
X40494Y11952D1*
Y12052D1*
X40514Y12150D1*
X40553Y12242D1*
X40565Y12262D1*
X40005Y12261D1*
X39818D1*
X39768Y12266D1*
X39721Y12282D1*
X39688Y12299D1*
X39649Y12331D1*
X38456Y13524D1*
X38425Y13563D1*
X38402Y13607D1*
X38391Y13644D1*
X38359Y13640D1*
X38282Y13577D1*
X38194Y13530D1*
X38098Y13501D1*
X38094Y13500D1*
X38151Y13486D1*
X38243Y13447D1*
X38325Y13391D1*
X38395Y13320D1*
X38450Y13236D1*
X38488Y13144D1*
X38507Y13046D1*
X38506Y12950D1*
X38487Y12852D1*
X38448Y12760D1*
X38393Y12677D1*
X38322Y12606D1*
X38239Y12551D1*
X38147Y12513D1*
X38094Y12500D1*
X38151Y12486D1*
X38243Y12447D1*
X38325Y12391D1*
X38395Y12320D1*
X38450Y12236D1*
X38488Y12144D1*
X38507Y12046D1*
X38506Y11950D1*
X38487Y11852D1*
X38448Y11760D1*
X38393Y11677D1*
X38322Y11606D1*
X38239Y11551D1*
X38147Y11513D1*
X38094Y11500D1*
X38151Y11486D1*
X38243Y11447D1*
X38325Y11391D1*
X38395Y11320D1*
X38450Y11236D1*
X38488Y11144D1*
X38507Y11046D1*
X38506Y10950D1*
X38487Y10852D1*
X38448Y10760D1*
X38393Y10677D1*
X38322Y10606D1*
X38239Y10551D1*
X38147Y10513D1*
X38094Y10500D1*
X38151Y10486D1*
X38243Y10447D1*
X38325Y10391D1*
X38395Y10320D1*
X38450Y10236D1*
X38488Y10144D1*
X38507Y10046D1*
X38506Y9950D1*
X38487Y9852D1*
X38448Y9760D1*
X38393Y9677D1*
X38322Y9606D1*
X38239Y9551D1*
X38147Y9513D1*
X38094Y9500D1*
X38151Y9486D1*
X38243Y9447D1*
X38325Y9391D1*
X38395Y9320D1*
X38450Y9236D1*
X38488Y9144D1*
X38507Y9046D1*
X38506Y8950D1*
X38487Y8852D1*
X38448Y8760D1*
X38393Y8677D1*
X38322Y8606D1*
X38239Y8551D1*
X38147Y8513D1*
X38094Y8500D1*
X38151Y8486D1*
X38243Y8447D1*
X38325Y8391D1*
X38395Y8320D1*
X38450Y8236D1*
X38488Y8144D1*
X38507Y8046D1*
X38506Y7950D1*
X38487Y7852D1*
X38448Y7760D1*
X38393Y7677D1*
X38322Y7606D1*
X38239Y7551D1*
X38147Y7513D1*
X38094Y7500D1*
X38151Y7486D1*
X38243Y7447D1*
X38325Y7391D1*
X38395Y7320D1*
X38450Y7236D1*
X38488Y7144D1*
X38507Y7046D1*
X38506Y6950D1*
X38487Y6852D1*
X38448Y6760D1*
X38436Y6740D1*
X38875Y6739D1*
X38925Y6734D1*
X38972Y6718D1*
X39005Y6701D1*
X39044Y6669D1*
X39975Y5739D1*
X40564D1*
X40529Y5807D1*
X40501Y5903D1*
X40491Y6002D1*
X40502Y6101D1*
X40531Y6197D1*
X40578Y6285D1*
X40642Y6361D1*
X40720Y6424D1*
X40808Y6471D1*
X40904Y6499D1*
X40908Y6500D1*
X40851Y6514D1*
X40759Y6552D1*
X40676Y6608D1*
X40606Y6679D1*
X40551Y6762D1*
X40513Y6854D1*
X40494Y6952D1*
Y7052D1*
X40514Y7150D1*
X40553Y7242D1*
X40608Y7325D1*
X40679Y7395D1*
X40763Y7450D1*
X40855Y7488D1*
X40953Y7506D1*
X41053D1*
X41151Y7486D1*
X41243Y7447D1*
X41325Y7391D1*
X41395Y7320D1*
X41450Y7236D1*
X41488Y7144D1*
X41500Y7094D1*
X41520Y7169D1*
X41548Y7233D1*
X41584Y7293D1*
X41628Y7347D1*
X41679Y7395D1*
X41737Y7435D1*
X41799Y7467D1*
X41865Y7490D1*
X41933Y7504D1*
X42003Y7509D1*
X42073Y7503D1*
X42141Y7489D1*
X42207Y7465D1*
X42269Y7432D1*
X42325Y7391D1*
X42376Y7343D1*
X42419Y7288D1*
X42455Y7228D1*
X42482Y7163D1*
X42500Y7095D1*
X42508Y7026D1*
X42506Y6950D1*
X42495Y6881D1*
X42474Y6814D1*
X42444Y6751D1*
X42405Y6693D1*
X42359Y6640D1*
X42307Y6594D1*
X42248Y6556D1*
X42185Y6526D1*
X42118Y6505D1*
X42093Y6500D1*
X42151Y6486D1*
X42243Y6447D1*
X42325Y6391D1*
X42395Y6320D1*
X42450Y6236D1*
X42488Y6144D1*
X42507Y6046D1*
X42506Y5950D1*
X42487Y5852D1*
X42448Y5760D1*
X42436Y5740D1*
X43425Y5739D1*
X43839Y5740D1*
X44001Y5903D1*
X43991Y6002D1*
X44002Y6101D1*
X44031Y6197D1*
X44078Y6285D1*
X44142Y6361D1*
X44220Y6424D1*
X44308Y6471D1*
X44404Y6499D1*
X44503Y6509D1*
X44602Y6498D1*
X44698Y6469D1*
X44785Y6421D1*
X44862Y6357D1*
X44925Y6280D1*
X44971Y6191D1*
X45000Y6095D1*
X45009Y6000D1*
X44999Y5901D1*
X44970Y5805D1*
X44923Y5717D1*
X44859Y5640D1*
X44782Y5577D1*
X44694Y5530D1*
X44598Y5501D1*
X44594Y5500D1*
X44651Y5486D1*
X44743Y5447D1*
X44825Y5391D1*
X44895Y5320D1*
X44950Y5236D1*
X44988Y5144D1*
X45007Y5046D1*
X45006Y4950D1*
X44987Y4852D1*
X44948Y4760D1*
X44893Y4677D1*
X44822Y4606D1*
X44739Y4551D1*
X44647Y4513D1*
X44594Y4500D1*
X44651Y4486D1*
X44743Y4447D1*
X44825Y4391D1*
X44895Y4320D1*
X44950Y4236D1*
X44988Y4144D1*
X45007Y4046D1*
X45006Y3950D1*
X44987Y3852D1*
X44948Y3760D1*
X44893Y3677D1*
X44822Y3606D1*
X44739Y3551D1*
X44647Y3513D1*
X44630Y3509D1*
X45009D1*
Y2491D1*
X43991D1*
Y3509D1*
X44368D1*
X44304Y3531D1*
X44216Y3578D1*
X44139Y3641D1*
X44076Y3719D1*
X44029Y3807D1*
X44001Y3903D1*
X43991Y4002D1*
X44002Y4101D1*
X44031Y4197D1*
X44078Y4285D1*
X44142Y4361D1*
X44220Y4424D1*
X44308Y4471D1*
X44404Y4499D1*
X44408Y4500D1*
X44351Y4514D1*
X44259Y4552D1*
X44176Y4608D1*
X44106Y4679D1*
X44051Y4760D1*
X42911Y4761D1*
X42864Y4713D1*
Y3875D1*
X42859Y3825D1*
X42843Y3778D1*
X42826Y3745D1*
X42794Y3706D1*
X42508Y3420D1*
X42509Y2709D1*
Y2491D1*
X41491D1*
Y2868D1*
X41470Y2805D1*
X41423Y2717D1*
X41359Y2640D1*
X41282Y2577D1*
X41194Y2530D1*
X41098Y2501D1*
X40999Y2491D1*
X40900Y2501D1*
X40804Y2531D1*
X40716Y2578D1*
X40639Y2641D1*
X40576Y2719D1*
X40529Y2807D1*
X40501Y2903D1*
X40491Y3002D1*
X40502Y3101D1*
X40531Y3197D1*
X40578Y3285D1*
X40642Y3361D1*
X40720Y3424D1*
X40808Y3471D1*
X40904Y3499D1*
X40908Y3500D1*
X40851Y3514D1*
X40759Y3552D1*
X40676Y3608D1*
X40606Y3679D1*
X40551Y3762D1*
X40513Y3854D1*
X40494Y3952D1*
Y4052D1*
X40514Y4150D1*
X40553Y4242D1*
X40565Y4262D1*
X40437Y4261D1*
X40388Y4266D1*
X40340Y4282D1*
X40308Y4299D1*
X40268Y4331D1*
X38837Y5761D1*
X38448Y5760D1*
X38393Y5677D1*
X38322Y5606D1*
X38239Y5551D1*
X38147Y5513D1*
X38094Y5500D1*
X38151Y5486D1*
X38243Y5447D1*
X38325Y5391D1*
X38395Y5320D1*
X38450Y5236D1*
X38488Y5144D1*
X38507Y5046D1*
X38506Y4950D1*
X38487Y4852D1*
X38448Y4760D1*
X38393Y4677D1*
X38322Y4606D1*
X38239Y4551D1*
X38147Y4513D1*
X38094Y4500D1*
X38151Y4486D1*
X38243Y4447D1*
X38325Y4391D1*
X38395Y4320D1*
X38450Y4236D1*
X38488Y4144D1*
X38507Y4046D1*
X38506Y3950D1*
X38487Y3852D1*
X38448Y3760D1*
X38393Y3677D1*
X38322Y3606D1*
X38239Y3551D1*
X38147Y3513D1*
X38094Y3500D1*
X38170Y3479D1*
X38234Y3452D1*
X38294Y3415D1*
X38348Y3371D1*
X38395Y3320D1*
X38436Y3263D1*
X38468Y3200D1*
X38491Y3134D1*
X38504Y3066D1*
X38509Y2990D1*
X38502Y2920D1*
X38487Y2852D1*
X38462Y2787D1*
X38428Y2725D1*
X38386Y2669D1*
X38337Y2619D1*
X38282Y2577D1*
X38221Y2542D1*
X38156Y2516D1*
X38089Y2499D1*
X38019Y2492D1*
X37949Y2494D1*
X37880Y2506D1*
X37813Y2527D1*
X37750Y2557D1*
X37692Y2595D1*
X37639Y2641D1*
X37593Y2694D1*
X37555Y2753D1*
X37526Y2816D1*
X37505Y2883D1*
X37500Y2907D1*
X37484Y2843D1*
X37458Y2778D1*
X37423Y2717D1*
X37380Y2662D1*
X37330Y2613D1*
X37274Y2571D1*
X37212Y2538D1*
X37147Y2513D1*
X37079Y2497D1*
X37009Y2491D1*
X36939Y2495D1*
X36870Y2508D1*
X36804Y2531D1*
X36742Y2562D1*
X36684Y2601D1*
X36632Y2649D1*
X36588Y2702D1*
X36551Y2762D1*
X36522Y2826D1*
X36503Y2893D1*
X36493Y2962D1*
X36492Y3032D1*
X36502Y3101D1*
X36520Y3169D1*
X36548Y3233D1*
X36584Y3293D1*
X36628Y3347D1*
X36679Y3395D1*
X36737Y3435D1*
X36799Y3467D1*
X36865Y3490D1*
X36907Y3500D1*
X36851Y3514D1*
X36759Y3552D1*
X36676Y3608D1*
X36606Y3679D1*
X36551Y3762D1*
X36513Y3854D1*
X36494Y3952D1*
Y4052D1*
X36514Y4150D1*
X36553Y4242D1*
X36608Y4325D1*
X36679Y4395D1*
X36763Y4450D1*
X36855Y4488D1*
X36908Y4500D1*
X36851Y4514D1*
X36759Y4552D1*
X36676Y4608D1*
X36606Y4679D1*
X36551Y4762D1*
X36513Y4854D1*
X36494Y4952D1*
Y5052D1*
X36514Y5150D1*
X36553Y5242D1*
X36608Y5325D1*
X36679Y5395D1*
X36763Y5450D1*
X36855Y5488D1*
X36908Y5500D1*
X36851Y5514D1*
X36759Y5552D1*
X36676Y5608D1*
X36606Y5679D1*
X36551Y5762D1*
X36513Y5854D1*
X36494Y5952D1*
Y6052D1*
X36514Y6150D1*
X36553Y6242D1*
X36608Y6325D1*
X36679Y6395D1*
X36763Y6450D1*
X36855Y6488D1*
X36908Y6500D1*
X36851Y6514D1*
X36759Y6552D1*
X36676Y6608D1*
X36606Y6679D1*
X36551Y6762D1*
X36513Y6854D1*
X36494Y6952D1*
Y7052D1*
X36514Y7150D1*
X36553Y7242D1*
X36608Y7325D1*
X36679Y7395D1*
X36763Y7450D1*
X36855Y7488D1*
X36908Y7500D1*
X36851Y7514D1*
X36759Y7552D1*
X36676Y7608D1*
X36606Y7679D1*
X36551Y7762D1*
X36513Y7854D1*
X36494Y7952D1*
Y8052D1*
X36514Y8150D1*
X36553Y8242D1*
X36608Y8325D1*
X36679Y8395D1*
X36763Y8450D1*
X36855Y8488D1*
X36908Y8500D1*
X36851Y8514D1*
X36759Y8552D1*
X36676Y8608D1*
X36606Y8679D1*
X36551Y8762D1*
X36513Y8854D1*
X36494Y8952D1*
Y9052D1*
X36514Y9150D1*
X36553Y9242D1*
X36608Y9325D1*
X36679Y9395D1*
X36763Y9450D1*
X36855Y9488D1*
X36908Y9500D1*
X36851Y9514D1*
X36759Y9552D1*
X36676Y9608D1*
X36606Y9679D1*
X36551Y9762D1*
X36513Y9854D1*
X36494Y9952D1*
Y10052D1*
X36514Y10150D1*
X36553Y10242D1*
X36608Y10325D1*
X36679Y10395D1*
X36763Y10450D1*
X36855Y10488D1*
X36908Y10500D1*
X36851Y10514D1*
X36759Y10552D1*
X36676Y10608D1*
X36606Y10679D1*
X36551Y10762D1*
X36513Y10854D1*
X36494Y10952D1*
Y11052D1*
X36514Y11150D1*
X36553Y11242D1*
X36608Y11325D1*
X36679Y11395D1*
X36763Y11450D1*
X36855Y11488D1*
X36908Y11500D1*
X36851Y11514D1*
X36759Y11552D1*
X36676Y11608D1*
X36606Y11679D1*
X36551Y11762D1*
X36513Y11854D1*
X36494Y11952D1*
Y12052D1*
X36514Y12150D1*
X36553Y12242D1*
X36608Y12325D1*
X36679Y12395D1*
X36763Y12450D1*
X36855Y12488D1*
X36908Y12500D1*
X36851Y12514D1*
X36759Y12552D1*
X36676Y12608D1*
X36606Y12679D1*
X36551Y12762D1*
X36513Y12854D1*
X36494Y12952D1*
Y13052D1*
X36514Y13150D1*
X36529Y13192D1*
X34447Y11109D1*
X34356Y11019D1*
X34318Y10987D1*
X34273Y10964D1*
X34238Y10954D1*
X34187Y10949D1*
X34036Y10948D1*
X34008Y10920D1*
X34009Y10241D1*
X32991D1*
Y11259D1*
X33368D1*
X33304Y11281D1*
X33216Y11328D1*
X33139Y11392D1*
X33076Y11469D1*
X33029Y11557D1*
X33001Y11653D1*
X32991Y11752D1*
X33002Y11851D1*
X33031Y11947D1*
X33078Y12035D1*
X33142Y12112D1*
X33220Y12175D1*
X33308Y12221D1*
X33404Y12250D1*
X33408D1*
X33351Y12264D1*
X33259Y12302D1*
X33176Y12358D1*
X33106Y12429D1*
X33051Y12512D1*
X33013Y12604D1*
X32994Y12702D1*
Y12802D1*
X33014Y12900D1*
X33053Y12992D1*
X33065Y13012D1*
X32848Y13010D1*
X32790Y12950D1*
X32777Y12902D1*
X32757Y12857D1*
X32729Y12815D1*
X32694Y12779D1*
X32654Y12750D1*
X32609Y12727D1*
X32561Y12713D1*
X32512Y12706D1*
X32462Y12709D1*
X32413Y12719D1*
X32367Y12738D1*
X32325Y12764D1*
X32287Y12797D1*
X32256Y12836D1*
X32232Y12880D1*
X32215Y12927D1*
X32207Y12976D1*
Y13026D1*
X32216Y13075D1*
X32233Y13122D1*
X32257Y13166D1*
X32289Y13205D1*
X32326Y13237D1*
X32369Y13263D1*
X32415Y13282D1*
X32451Y13289D1*
X32581Y13419D1*
X32620Y13451D1*
X32664Y13473D1*
X32700Y13484D1*
X32750Y13489D1*
X33064D1*
X33029Y13557D1*
X33001Y13653D1*
X32991Y13752D1*
X33002Y13851D1*
X33031Y13947D1*
X33065Y14012D1*
X32848Y14010D1*
X32790Y13950D1*
X32777Y13902D1*
X32757Y13857D1*
X32729Y13815D1*
X32694Y13779D1*
X32654Y13750D1*
X32609Y13727D1*
X32561Y13713D1*
X32512Y13706D1*
X32462Y13709D1*
X32413Y13719D1*
X32367Y13738D1*
X32325Y13764D1*
X32287Y13797D1*
X32256Y13836D1*
X32232Y13880D1*
X32215Y13927D1*
X32207Y13976D1*
Y14026D1*
X32216Y14075D1*
X32233Y14122D1*
X32257Y14166D1*
X32289Y14205D1*
X32326Y14237D1*
X32369Y14263D1*
X32415Y14282D1*
X32451Y14289D1*
X32581Y14419D1*
X32620Y14451D1*
X32664Y14473D1*
X32700Y14484D1*
X32750Y14489D1*
X33064D1*
X33029Y14557D1*
X33001Y14653D1*
X32991Y14752D1*
X33002Y14851D1*
X33031Y14947D1*
X33065Y15012D1*
X32848Y15010D1*
X32790Y14950D1*
X32777Y14902D1*
X32757Y14857D1*
X32729Y14815D1*
X32694Y14779D1*
X32654Y14750D1*
X32609Y14727D1*
X32561Y14713D1*
X32512Y14706D1*
X32462Y14709D1*
X32413Y14719D1*
X32367Y14738D1*
X32325Y14764D1*
X32287Y14797D1*
X32256Y14836D1*
X32232Y14880D1*
X32215Y14927D1*
X32207Y14976D1*
Y15026D1*
X32216Y15075D1*
X32233Y15122D1*
X32257Y15166D1*
X32289Y15205D1*
X32326Y15237D1*
X32369Y15263D1*
X32415Y15282D1*
X32451Y15289D1*
X32581Y15419D1*
X32620Y15451D1*
X32664Y15473D1*
X32700Y15484D1*
X32750Y15489D1*
X33064D1*
X33029Y15557D1*
X33001Y15653D1*
X32991Y15752D1*
X33002Y15851D1*
X33031Y15947D1*
X33078Y16035D1*
X33142Y16112D1*
X33220Y16175D1*
X33308Y16221D1*
X33404Y16250D1*
X33408D1*
X33351Y16264D1*
X33259Y16302D1*
X33176Y16358D1*
X33106Y16429D1*
X33051Y16512D1*
X33013Y16604D1*
X32994Y16702D1*
Y16802D1*
X33014Y16900D1*
X33053Y16992D1*
X33108Y17075D1*
X33179Y17145D1*
X33263Y17200D1*
X33355Y17238D1*
X33408Y17250D1*
X33351Y17264D1*
X33259Y17302D1*
X33176Y17358D1*
X33106Y17429D1*
X33051Y17512D1*
X33013Y17604D1*
X32994Y17702D1*
Y17802D1*
X33014Y17900D1*
X33053Y17992D1*
X33108Y18075D1*
X33179Y18145D1*
X33263Y18200D1*
X33355Y18238D1*
X33453Y18257D1*
X33553Y18256D1*
X33651Y18236D1*
X33743Y18197D1*
X33825Y18141D1*
X33895Y18070D1*
X33950Y17988D1*
X34150Y17989D1*
X35652Y17990D1*
X36513Y18854D1*
X36494Y18952D1*
Y19052D1*
X36514Y19150D1*
X36553Y19242D1*
X36608Y19325D1*
X36679Y19395D1*
X36763Y19450D1*
X36855Y19488D1*
X36908Y19500D1*
X36851Y19514D1*
X36759Y19552D1*
X36676Y19608D1*
X36606Y19679D1*
X36551Y19762D1*
X36513Y19854D1*
X36494Y19952D1*
Y20052D1*
X36514Y20150D1*
X36553Y20242D1*
X36608Y20325D1*
X36679Y20395D1*
X36763Y20450D1*
X36855Y20488D1*
X36953Y20506D1*
X37053D1*
X37151Y20486D1*
X37243Y20447D1*
X37325Y20391D1*
X37395Y20320D1*
X37450Y20236D1*
X37488Y20144D1*
X37491Y20130D1*
Y20509D1*
X38375Y20511D1*
X34895D1*
X34985Y20421D1*
X35017Y20382D1*
X35039Y20338D1*
X35050Y20303D1*
X35055Y20252D1*
Y18752D1*
X35050Y18702D1*
X35035Y18655D1*
X35017Y18622D1*
X34985Y18583D1*
X34793Y18390D1*
X34781Y18341D1*
X34760Y18296D1*
X34732Y18255D1*
X34698Y18218D1*
X34657Y18189D1*
X34613Y18166D1*
X34565Y18152D1*
X34516Y18146D1*
X34466Y18148D1*
X34417Y18158D1*
X34371Y18177D1*
X34328Y18203D1*
X34291Y18237D1*
X34259Y18276D1*
X34235Y18319D1*
X34219Y18366D1*
X34211Y18416D1*
Y18466D1*
X34219Y18515D1*
X34236Y18562D1*
X34261Y18605D1*
X34292Y18644D1*
X34330Y18677D1*
X34350Y18689D1*
X34291Y18737D1*
X34259Y18776D1*
X34235Y18819D1*
X34219Y18866D1*
X34211Y18916D1*
Y18966D1*
X34219Y19015D1*
X34236Y19062D1*
X34266Y19111D1*
X34265Y19263D1*
X22498D1*
X22448Y19268D1*
X22401Y19284D1*
X22368Y19301D1*
X22329Y19333D1*
X22147Y19513D1*
X22049Y19494D1*
X21949D1*
X21851Y19514D1*
X21759Y19552D1*
X21676Y19608D1*
X21606Y19679D1*
X21551Y19762D1*
X21513Y19854D1*
X21500Y19907D1*
X21487Y19852D1*
X21448Y19760D1*
X21393Y19677D1*
X21322Y19606D1*
X21239Y19551D1*
X21147Y19513D1*
X21049Y19494D1*
X20949D1*
X20851Y19514D1*
X20759Y19552D1*
X20676Y19608D1*
X20606Y19679D1*
X20551Y19762D1*
X20513Y19854D1*
X20500Y19907D1*
X20487Y19852D1*
X20448Y19760D1*
X20393Y19677D1*
X20322Y19606D1*
X20239Y19551D1*
X20147Y19513D1*
X20049Y19494D1*
X19949D1*
X19851Y19514D1*
X19759Y19552D1*
X19676Y19608D1*
X19606Y19679D1*
X19551Y19762D1*
X19513Y19854D1*
X19500Y19907D1*
X19487Y19852D1*
X19448Y19760D1*
X19393Y19677D1*
X19322Y19606D1*
X19239Y19551D1*
X19147Y19513D1*
X19049Y19494D1*
X18949D1*
X18851Y19514D1*
X18759Y19552D1*
X18676Y19608D1*
X18606Y19679D1*
X18551Y19762D1*
X18513Y19854D1*
X18509Y19871D1*
Y19491D1*
X17676D1*
Y18000D1*
X17671Y17950D1*
X17656Y17903D1*
X17631Y17860D1*
X17598Y17823D1*
X17557Y17793D1*
X17512Y17773D1*
X17461Y17762D1*
X17187Y17761D1*
X10198D1*
X10199Y17530D1*
X10233Y17463D1*
X10265Y17369D1*
X10278Y17270D1*
X10276Y17200D1*
X10257Y17102D1*
X10220Y17009D1*
X10167Y16925D1*
X10098Y16852D1*
X10075Y16834D1*
X10074Y16589D1*
X10127Y16529D1*
X10155Y16487D1*
X10178Y16443D1*
X10196Y16396D1*
X10209Y16348D1*
X10217Y16298D1*
X10219Y16250D1*
X10217Y16200D1*
X10209Y16151D1*
X10196Y16103D1*
X10177Y16056D1*
X10154Y16012D1*
X10127Y15970D1*
X10073Y15911D1*
X10074Y15188D1*
X10070Y15138D1*
X10059Y15089D1*
X10040Y15043D1*
X10014Y15000D1*
X9979Y14958D1*
X7229Y12208D1*
X7191Y12176D1*
X7149Y12150D1*
X7103Y12130D1*
X7054Y12118D1*
X7004Y12114D1*
X6955Y12117D1*
X6906Y12127D1*
X6859Y12146D1*
X6816Y12171D1*
X6777Y12202D1*
X6744Y12239D1*
X6716Y12281D1*
X6696Y12326D1*
X6682Y12375D1*
X6676Y12424D1*
X6678Y12474D1*
X6688Y12523D1*
X6704Y12570D1*
X6728Y12614D1*
X6771Y12667D1*
X9426Y15322D1*
Y15911D1*
X9388Y15951D1*
X9359Y15991D1*
X9333Y16034D1*
X9313Y16080D1*
X9297Y16127D1*
X9287Y16176D1*
X9281Y16226D1*
Y16276D1*
X9287Y16325D1*
X9297Y16374D1*
X9313Y16422D1*
X9334Y16467D1*
X9359Y16510D1*
X9389Y16550D1*
X9427Y16590D1*
X9426Y16833D1*
X9373Y16880D1*
X9310Y16958D1*
X9263Y17046D1*
X9250Y17079D1*
X9220Y17009D1*
X9184Y16949D1*
X9141Y16894D1*
X9090Y16846D1*
X9034Y16805D1*
X8973Y16771D1*
X8907Y16746D1*
X8839Y16729D1*
X8770Y16722D1*
X8700Y16724D1*
X8631Y16735D1*
X8564Y16755D1*
X8500Y16784D1*
X8441Y16821D1*
X8387Y16866D1*
X8340Y16917D1*
X8299Y16975D1*
X8278Y17012D1*
Y16722D1*
X8074D1*
Y16589D1*
X8127Y16529D1*
X8155Y16487D1*
X8178Y16443D1*
X8196Y16396D1*
X8209Y16348D1*
X8217Y16298D1*
X8219Y16250D1*
X8217Y16200D1*
X8209Y16151D1*
X8196Y16103D1*
X8177Y16056D1*
X8154Y16012D1*
X8127Y15970D1*
X8095Y15932D1*
X8059Y15897D1*
X8020Y15866D1*
X7977Y15839D1*
X7932Y15818D1*
X7885Y15801D1*
X7837Y15789D1*
X7787Y15782D1*
X7737Y15781D1*
X7687Y15785D1*
X7638Y15794D1*
X7590Y15809D1*
X7544Y15828D1*
X7501Y15852D1*
X7460Y15881D1*
X7422Y15914D1*
X7388Y15951D1*
X7359Y15991D1*
X7333Y16034D1*
X7313Y16080D1*
X7297Y16127D1*
X7287Y16176D1*
X7281Y16226D1*
Y16276D1*
X7287Y16325D1*
X7297Y16374D1*
X7313Y16422D1*
X7334Y16467D1*
X7359Y16510D1*
X7389Y16550D1*
X7427Y16590D1*
X7426Y16720D1*
X7222Y16722D1*
Y17778D1*
X7626D1*
X7648Y17832D1*
X7673Y17875D1*
X7705Y17913D1*
X7743Y17946D1*
X7785Y17973D1*
X7831Y17993D1*
X7879Y18006D1*
X7924Y18011D1*
X8643Y18732D1*
X8682Y18763D1*
X8727Y18786D1*
X8762Y18796D1*
X8812Y18802D1*
X16761D1*
X16759Y19640D1*
X16682Y19577D1*
X16594Y19530D1*
X16498Y19501D1*
X16399Y19491D1*
X16300Y19501D1*
X16204Y19531D1*
X16116Y19578D1*
X16039Y19641D1*
X15976Y19719D1*
X15929Y19807D1*
X15901Y19903D1*
X15900Y19907D1*
X15887Y19852D1*
X15848Y19760D1*
X15793Y19677D1*
X15722Y19606D1*
X15639Y19551D1*
X15547Y19513D1*
X15449Y19494D1*
X15349D1*
X15251Y19514D1*
X15159Y19552D1*
X15076Y19608D1*
X15006Y19679D1*
X14951Y19762D1*
X14913Y19854D1*
X14900Y19907D1*
X14887Y19852D1*
X14848Y19760D1*
X14793Y19677D1*
X14722Y19606D1*
X14639Y19551D1*
X14547Y19513D1*
X14449Y19494D1*
X14349D1*
X14251Y19514D1*
X14159Y19552D1*
X14076Y19608D1*
X14006Y19679D1*
X13951Y19762D1*
X13913Y19854D1*
X13900Y19907D1*
X13887Y19852D1*
X13848Y19760D1*
X13793Y19677D1*
X13722Y19606D1*
X13639Y19551D1*
X13547Y19513D1*
X13449Y19494D1*
X13349D1*
X13251Y19514D1*
X13159Y19552D1*
X13076Y19608D1*
X13006Y19679D1*
X12951Y19762D1*
X12913Y19854D1*
X12900Y19907D1*
X12887Y19852D1*
X12848Y19760D1*
X12793Y19677D1*
X12722Y19606D1*
X12639Y19551D1*
X12547Y19513D1*
X12449Y19494D1*
X12349D1*
X12251Y19514D1*
X12159Y19552D1*
X12076Y19608D1*
X12006Y19679D1*
X11951Y19762D1*
X11913Y19854D1*
X11900Y19907D1*
X11887Y19852D1*
X11848Y19760D1*
X11793Y19677D1*
X11722Y19606D1*
X11639Y19551D1*
X11547Y19513D1*
X11449Y19494D1*
X11349D1*
X11251Y19514D1*
X11159Y19552D1*
X11076Y19608D1*
X11006Y19679D1*
X10951Y19762D1*
X10913Y19854D1*
X10900Y19907D1*
X10884Y19843D1*
X10858Y19778D1*
X10823Y19717D1*
X10780Y19662D1*
X10730Y19613D1*
X10674Y19571D1*
X10612Y19538D1*
X10547Y19513D1*
X10479Y19497D1*
X10409Y19491D1*
X10339Y19495D1*
X10270Y19508D1*
X10204Y19531D1*
X10142Y19562D1*
X10084Y19601D1*
X10032Y19649D1*
X9988Y19702D1*
X9951Y19762D1*
X9922Y19826D1*
X9909Y19869D1*
Y19491D1*
X8891D1*
Y20262D1*
X5300Y20261D1*
X1286Y20260D1*
X1051Y20025D1*
Y18683D1*
X1111Y18754D1*
X1188Y18818D1*
X1274Y18868D1*
X1369Y18900D1*
X1468Y18915D1*
X1567Y18912D1*
X1665Y18891D1*
X1757Y18852D1*
X1841Y18797D1*
X1913Y18728D1*
X1971Y18648D1*
X2000Y18591D1*
X2021Y18635D1*
X2077Y18717D1*
X2148Y18788D1*
X2230Y18845D1*
X2321Y18886D1*
X2418Y18910D1*
X2518Y18916D1*
X2617Y18904D1*
X2712Y18874D1*
X2800Y18827D1*
X2878Y18765D1*
X2944Y18689D1*
X2995Y18603D1*
X3000Y18591D1*
X3021Y18635D1*
X3077Y18717D1*
X3148Y18788D1*
X3230Y18845D1*
X3321Y18886D1*
X3418Y18910D1*
X3518Y18916D1*
X3617Y18904D1*
X3712Y18874D1*
X3800Y18827D1*
X3878Y18765D1*
X3944Y18689D1*
X3952Y18678D1*
Y18916D1*
X5048D1*
Y17584D1*
X3952D1*
Y17823D1*
X3908Y17766D1*
X3835Y17698D1*
X3751Y17645D1*
X3659Y17607D1*
X3561Y17587D1*
X3461Y17585D1*
X3362Y17601D1*
X3268Y17635D1*
X3182Y17686D1*
X3106Y17751D1*
X3044Y17828D1*
X3000Y17909D1*
X2968Y17847D1*
X2908Y17766D1*
X2835Y17698D1*
X2751Y17645D1*
X2659Y17607D1*
X2561Y17587D1*
X2461Y17585D1*
X2362Y17601D1*
X2268Y17635D1*
X2182Y17686D1*
X2106Y17751D1*
X2044Y17828D1*
X2000Y17909D1*
X1968Y17847D1*
X1908Y17766D1*
X1835Y17698D1*
X1751Y17645D1*
X1659Y17607D1*
X1561Y17587D1*
X1512Y17584D1*
X1511Y16387D1*
X1512Y9749D1*
X1547Y9809D1*
X1590Y9864D1*
X1640Y9913D1*
X1696Y9956D1*
X1756Y9991D1*
X1821Y10018D1*
X1888Y10037D1*
X1958Y10046D1*
X2028Y10047D1*
X2097Y10039D1*
X2165Y10023D1*
X2230Y9997D1*
X2292Y9964D1*
X2348Y9923D1*
X2399Y9875D1*
X2444Y9821D1*
X2481Y9762D1*
X2511Y9699D1*
X2532Y9632D1*
X2544Y9563D1*
X2548Y9490D1*
X2542Y9420D1*
X2528Y9352D1*
X2504Y9286D1*
X2473Y9223D1*
X2434Y9165D1*
X2388Y9113D1*
X2335Y9067D1*
X2277Y9027D1*
X2224Y9000D1*
X2300Y8959D1*
X2378Y8896D1*
X2441Y8825D1*
X2661Y8824D1*
X2711Y8870D1*
X2752Y8898D1*
X2796Y8922D1*
X2842Y8942D1*
X2890Y8956D1*
X2939Y8965D1*
X2989Y8969D1*
X3039Y8968D1*
X3088Y8961D1*
X3137Y8949D1*
X3184Y8932D1*
X3228Y8910D1*
X3271Y8883D1*
X3310Y8852D1*
X3346Y8817D1*
X3377Y8779D1*
X3405Y8737D1*
X3428Y8693D1*
X3446Y8646D1*
X3459Y8598D1*
X3467Y8548D1*
X3469Y8500D1*
X3467Y8450D1*
X3459Y8401D1*
X3446Y8353D1*
X3427Y8306D1*
X3404Y8262D1*
X3377Y8220D1*
X3345Y8182D1*
X3309Y8147D1*
X3270Y8116D1*
X3227Y8089D1*
X3182Y8068D1*
X3135Y8051D1*
X3087Y8039D1*
X3037Y8032D1*
X2987Y8031D1*
X2937Y8035D1*
X2888Y8044D1*
X2840Y8059D1*
X2794Y8078D1*
X2751Y8102D1*
X2710Y8131D1*
X2661Y8177D1*
X2442Y8176D1*
X2373Y8099D1*
X2308Y8048D1*
X2548D1*
Y6952D1*
X1512D1*
X1511Y5945D1*
X1841Y5617D1*
X2072Y5386D1*
X4062D1*
X4112Y5383D1*
X4161Y5371D1*
X4207Y5352D1*
X4250Y5327D1*
X4288Y5295D1*
X4321Y5257D1*
X4348Y5215D1*
X4368Y5169D1*
X4381Y5121D1*
X4386Y5062D1*
Y3875D1*
X4383Y3825D1*
X4371Y3777D1*
X4352Y3730D1*
X4327Y3687D1*
X4295Y3649D1*
X4257Y3616D1*
X4215Y3589D1*
X4169Y3569D1*
X4121Y3556D1*
X4062Y3551D1*
X948D1*
X949Y883D1*
X1034Y799D1*
X1500Y800D1*
X10492D1*
X10491Y1509D1*
X10541D1*
X36907Y17500D2*
X36851Y17514D1*
X36806Y17530D1*
X35857Y16581D1*
X35818Y16550D1*
X35773Y16527D1*
X35738Y16517D1*
X35688Y16511D1*
X33948Y16510D1*
X33893Y16427D1*
X33822Y16357D1*
X33739Y16301D1*
X33647Y16263D1*
X33594Y16250D1*
X33651Y16236D1*
X33743Y16197D1*
X33825Y16141D1*
X33895Y16070D1*
X33950Y15987D1*
X33988Y15894D1*
X34007Y15796D1*
X34006Y15700D1*
X33987Y15602D1*
X33948Y15510D1*
X33936Y15490D1*
X34550Y15489D1*
X35029Y15490D1*
X36493Y16954D1*
X36494Y17052D1*
X36514Y17150D1*
X36553Y17242D1*
X36608Y17325D1*
X36679Y17395D1*
X36763Y17450D1*
X36855Y17488D1*
X36908Y17500D1*
X36501Y17901D2*
X36494Y17952D1*
Y18052D1*
X36514Y18150D1*
X36529Y18192D1*
X35919Y17581D1*
X35880Y17550D1*
X35836Y17527D1*
X35800Y17517D1*
X35750Y17511D1*
X33948Y17510D1*
X33893Y17427D1*
X33822Y17357D1*
X33739Y17301D1*
X33647Y17263D1*
X33594Y17250D1*
X33651Y17236D1*
X33743Y17197D1*
X33825Y17141D1*
X33895Y17070D1*
X33950Y16988D1*
X34150Y16989D1*
X35589Y16990D1*
X36501Y17901D1*
X36907Y16500D2*
X36851Y16514D1*
X36763Y16550D1*
X36657Y16442D1*
X35296Y15081D1*
X35257Y15050D1*
X35213Y15027D1*
X35178Y15017D1*
X35127Y15011D1*
X33935D1*
X33971Y14941D1*
X34000Y14845D1*
X34009Y14750D1*
X33999Y14651D1*
X33970Y14555D1*
X33936Y14490D1*
X34550Y14489D1*
X35092Y14490D1*
X36502Y15901D1*
X36494Y15952D1*
Y16052D1*
X36514Y16150D1*
X36553Y16242D1*
X36608Y16325D1*
X36679Y16395D1*
X36763Y16450D1*
X36855Y16488D1*
X36908Y16500D1*
X36907Y15500D2*
X36851Y15514D1*
X36806Y15530D1*
X36649Y15371D1*
X35359Y14081D1*
X35320Y14050D1*
X35276Y14027D1*
X35240Y14017D1*
X35190Y14011D1*
X33935D1*
X33971Y13941D1*
X34000Y13845D1*
X34009Y13750D1*
X33999Y13651D1*
X33970Y13555D1*
X33936Y13490D1*
X34550Y13489D1*
X35152Y13490D1*
X36513Y14854D1*
X36494Y14952D1*
Y15052D1*
X36514Y15150D1*
X36553Y15242D1*
X36608Y15325D1*
X36679Y15395D1*
X36763Y15450D1*
X36855Y15488D1*
X36908Y15500D1*
X36513Y13853D2*
X36501Y13903D1*
X36491Y14002D1*
X36502Y14101D1*
X36529Y14192D1*
X35419Y13081D1*
X35380Y13050D1*
X35336Y13027D1*
X35300Y13017D1*
X35250Y13011D1*
X33936D1*
X33971Y12941D1*
X34000Y12845D1*
X34009Y12750D1*
X33999Y12651D1*
X33970Y12555D1*
X33923Y12467D1*
X33859Y12390D1*
X33782Y12327D1*
X33694Y12280D1*
X33598Y12251D1*
X33594Y12250D1*
X33651Y12236D1*
X33743Y12197D1*
X33825Y12141D1*
X33895Y12070D1*
X33950Y11987D1*
X33988Y11894D1*
X34007Y11796D1*
X34006Y11700D1*
X33987Y11602D1*
X33948Y11510D1*
X33893Y11427D1*
X33888Y11421D1*
X33937Y11426D1*
X34089Y11427D1*
X36514Y13852D1*
X8278Y17689D2*
X8280Y17491D1*
X8316Y17551D1*
X8359Y17606D1*
X8410Y17654D1*
X8466Y17696D1*
X8527Y17729D1*
X8593Y17754D1*
X8661Y17771D1*
X8730Y17778D1*
X8800Y17776D1*
X8869Y17765D1*
X8936Y17744D1*
X9000Y17715D1*
X9059Y17678D1*
X9113Y17634D1*
X9161Y17582D1*
X9201Y17525D1*
X9233Y17463D1*
X9250Y17421D1*
X9275Y17482D1*
X9327Y17567D1*
X9395Y17641D1*
X9475Y17701D1*
X9551Y17739D1*
Y17875D1*
X9555Y17925D1*
X9566Y17973D1*
X9585Y18020D1*
X9611Y18063D1*
X9643Y18101D1*
X9680Y18134D1*
X9722Y18161D1*
X9768Y18181D1*
X9816Y18194D1*
X9870Y18200D1*
X9914Y18223D1*
X9950Y18234D1*
X10000Y18239D1*
X17198D1*
Y18430D1*
X17160Y18385D1*
X17120Y18356D1*
X17074Y18335D1*
X17024Y18325D1*
X16750Y18324D1*
X8911Y18323D1*
X8278Y17690D1*
X46061Y17489D2*
X46989D1*
Y16511D1*
X46011D1*
Y16763D1*
X45905Y16761D1*
X45845Y16682D1*
X45809Y16647D1*
X45770Y16616D1*
X45727Y16589D1*
X45682Y16568D1*
X45635Y16551D1*
X45587Y16539D1*
X45537Y16532D1*
X45487Y16531D1*
X45437Y16535D1*
X45388Y16544D1*
X45340Y16559D1*
X45294Y16578D1*
X45251Y16602D1*
X45210Y16631D1*
X45172Y16664D1*
X45138Y16701D1*
X45109Y16741D1*
X45083Y16784D1*
X45063Y16830D1*
X45047Y16877D1*
X45037Y16926D1*
X45031Y16976D1*
Y17026D1*
X45037Y17075D1*
X45048Y17124D1*
X45063Y17172D1*
X45084Y17217D1*
X45109Y17260D1*
X45139Y17300D1*
X45173Y17337D1*
X45211Y17370D1*
X45252Y17398D1*
X45296Y17422D1*
X45342Y17442D1*
X45390Y17456D1*
X45439Y17465D1*
X45489Y17469D1*
X45539Y17468D1*
X45588Y17461D1*
X45637Y17449D1*
X45684Y17432D1*
X45728Y17410D1*
X45771Y17383D1*
X45810Y17352D1*
X45846Y17317D1*
X45878Y17279D1*
X45904Y17238D1*
X46011Y17239D1*
Y17489D1*
X46061D1*
X46986Y17934D2*
X46979Y17885D1*
X46966Y17837D1*
X46949Y17790D1*
X46926Y17745D1*
X46900Y17703D1*
X46869Y17663D1*
X46834Y17627D1*
X46796Y17595D1*
X46755Y17567D1*
X46711Y17543D1*
X46665Y17524D1*
X46617Y17509D1*
X46568Y17500D1*
X46518Y17496D1*
X46468D1*
X46418Y17502D1*
X46370Y17513D1*
X46322Y17529D1*
X46277Y17549D1*
X46233Y17574D1*
X46193Y17604D1*
X46156Y17637D1*
X46122Y17674D1*
X46092Y17714D1*
X46065Y17761D1*
X45905D1*
X45845Y17682D1*
X45809Y17647D1*
X45770Y17616D1*
X45727Y17589D1*
X45682Y17568D1*
X45635Y17551D1*
X45587Y17539D1*
X45537Y17532D1*
X45487Y17531D1*
X45437Y17535D1*
X45388Y17544D1*
X45340Y17559D1*
X45294Y17578D1*
X45251Y17602D1*
X45210Y17631D1*
X45172Y17664D1*
X45138Y17701D1*
X45109Y17741D1*
X45083Y17784D1*
X45063Y17830D1*
X45047Y17877D1*
X45037Y17926D1*
X45031Y17976D1*
Y18026D1*
X45037Y18075D1*
X45048Y18124D1*
X45063Y18172D1*
X45084Y18217D1*
X45109Y18260D1*
X45139Y18300D1*
X45173Y18337D1*
X45211Y18370D1*
X45252Y18398D1*
X45296Y18422D1*
X45342Y18442D1*
X45390Y18456D1*
X45439Y18465D1*
X45489Y18469D1*
X45539Y18468D1*
X45588Y18461D1*
X45637Y18449D1*
X45684Y18432D1*
X45728Y18410D1*
X45771Y18383D1*
X45810Y18352D1*
X45846Y18317D1*
X45878Y18279D1*
X45904Y18238D1*
X46083Y18239D1*
X46140Y18315D1*
X46176Y18350D1*
X46215Y18382D1*
X46257Y18409D1*
X46302Y18431D1*
X46348Y18449D1*
X46397Y18462D1*
X46446Y18470D1*
X46496Y18473D1*
X46546Y18471D1*
X46595Y18464D1*
X46644Y18452D1*
X46691Y18435D1*
X46736Y18413D1*
X46778Y18386D1*
X46818Y18356D1*
X46854Y18322D1*
X46887Y18284D1*
X46915Y18243D1*
X46939Y18199D1*
X46959Y18153D1*
X46974Y18105D1*
X46984Y18056D1*
X46989Y17984D1*
X46986Y17934D1*
X46989Y18959D2*
X46982Y18889D1*
X46966Y18821D1*
X46940Y18756D1*
X46906Y18695D1*
X46862Y18640D1*
X46812Y18592D1*
X46755Y18551D1*
X46693Y18519D1*
X46627Y18496D1*
X46558Y18483D1*
X46488Y18480D1*
X46418Y18486D1*
X46351Y18503D1*
X46286Y18529D1*
X46225Y18564D1*
X46170Y18607D1*
X46122Y18658D1*
X46082Y18715D1*
X46050Y18778D1*
X46027Y18844D1*
X46014Y18913D1*
X46011Y18982D1*
X46018Y19052D1*
X46035Y19120D1*
X46061Y19185D1*
X46097Y19245D1*
X46140Y19300D1*
X46191Y19348D1*
X46249Y19388D1*
X46311Y19419D1*
X46377Y19442D1*
X46446Y19454D1*
X46516Y19457D1*
X46585Y19450D1*
X46653Y19433D1*
X46718Y19406D1*
X46778Y19371D1*
X46833Y19327D1*
X46880Y19276D1*
X46920Y19218D1*
X46952Y19156D1*
X46974Y19089D1*
X46986Y19021D1*
X46989Y18959D1*
X51629Y17491D2*
X52557D1*
Y16513D1*
X51579D1*
Y16764D1*
X51473Y16763D1*
X51413Y16683D1*
X51377Y16648D1*
X51337Y16618D1*
X51295Y16591D1*
X51250Y16569D1*
X51203Y16552D1*
X51155Y16541D1*
X51105Y16534D1*
X51055Y16533D1*
X51005Y16537D1*
X50956Y16546D1*
X50908Y16560D1*
X50862Y16580D1*
X50819Y16604D1*
X50778Y16633D1*
X50740Y16666D1*
X50706Y16703D1*
X50676Y16743D1*
X50651Y16786D1*
X50631Y16831D1*
X50615Y16879D1*
X50604Y16928D1*
X50599Y16978D1*
Y17027D1*
X50605Y17077D1*
X50615Y17126D1*
X50631Y17173D1*
X50652Y17219D1*
X50677Y17262D1*
X50707Y17302D1*
X50741Y17339D1*
X50779Y17371D1*
X50820Y17400D1*
X50864Y17424D1*
X50910Y17444D1*
X50957Y17458D1*
X51007Y17467D1*
X51056Y17471D1*
X51106Y17469D1*
X51156Y17463D1*
X51204Y17451D1*
X51251Y17434D1*
X51296Y17412D1*
X51339Y17385D1*
X51378Y17354D1*
X51414Y17319D1*
X51445Y17281D1*
X51472Y17240D1*
X51579Y17241D1*
Y17491D1*
X51629D1*
X52554Y17936D2*
X52547Y17887D1*
X52534Y17838D1*
X52517Y17792D1*
X52494Y17747D1*
X52468Y17705D1*
X52437Y17665D1*
X52402Y17629D1*
X52364Y17597D1*
X52323Y17569D1*
X52279Y17545D1*
X52233Y17526D1*
X52185Y17511D1*
X52136Y17502D1*
X52086Y17497D1*
X52036Y17498D1*
X51986Y17504D1*
X51938Y17515D1*
X51890Y17531D1*
X51845Y17551D1*
X51801Y17576D1*
X51761Y17605D1*
X51724Y17639D1*
X51690Y17676D1*
X51642Y17747D1*
X51463D1*
X51413Y17683D1*
X51377Y17649D1*
X51337Y17618D1*
X51295Y17591D1*
X51250Y17569D1*
X51203Y17553D1*
X51155Y17541D1*
X51105Y17534D1*
X51055Y17533D1*
X51005Y17537D1*
X50956Y17546D1*
X50908Y17561D1*
X50862Y17580D1*
X50819Y17604D1*
X50778Y17633D1*
X50740Y17666D1*
X50706Y17703D1*
X50676Y17743D1*
X50651Y17786D1*
X50631Y17832D1*
X50615Y17879D1*
X50604Y17928D1*
X50599Y17978D1*
Y18028D1*
X50605Y18077D1*
X50615Y18126D1*
X50631Y18174D1*
X50652Y18219D1*
X50677Y18262D1*
X50707Y18302D1*
X50741Y18339D1*
X50779Y18372D1*
X50820Y18400D1*
X50864Y18424D1*
X50910Y18444D1*
X50957Y18458D1*
X51007Y18467D1*
X51056Y18471D1*
X51106Y18470D1*
X51156Y18463D1*
X51204Y18451D1*
X51251Y18434D1*
X51296Y18412D1*
X51339Y18385D1*
X51378Y18354D1*
X51414Y18319D1*
X51445Y18281D1*
X51481Y18224D1*
X51642Y18225D1*
X51676Y18279D1*
X51708Y18317D1*
X51744Y18352D1*
X51783Y18383D1*
X51825Y18410D1*
X51870Y18433D1*
X51916Y18451D1*
X51965Y18464D1*
X52014Y18472D1*
X52064Y18475D1*
X52114Y18473D1*
X52163Y18466D1*
X52212Y18453D1*
X52259Y18436D1*
X52304Y18414D1*
X52346Y18388D1*
X52386Y18358D1*
X52422Y18323D1*
X52455Y18285D1*
X52483Y18244D1*
X52507Y18201D1*
X52527Y18155D1*
X52542Y18107D1*
X52552Y18058D1*
X52557Y17986D1*
X52554Y17936D1*
X52557Y18960D2*
X52550Y18891D1*
X52534Y18823D1*
X52508Y18758D1*
X52473Y18697D1*
X52430Y18642D1*
X52380Y18594D1*
X52323Y18553D1*
X52261Y18521D1*
X52195Y18498D1*
X52126Y18485D1*
X52056Y18481D1*
X51986Y18488D1*
X51918Y18505D1*
X51854Y18531D1*
X51793Y18566D1*
X51738Y18609D1*
X51690Y18660D1*
X51650Y18717D1*
X51618Y18779D1*
X51595Y18846D1*
X51582Y18914D1*
X51579Y18984D1*
X51586Y19054D1*
X51603Y19122D1*
X51629Y19186D1*
X51665Y19247D1*
X51708Y19302D1*
X51759Y19349D1*
X51816Y19390D1*
X51879Y19421D1*
X51945Y19444D1*
X52014Y19456D1*
X52084Y19459D1*
X52153Y19452D1*
X52221Y19435D1*
X52286Y19408D1*
X52346Y19372D1*
X52401Y19329D1*
X52448Y19278D1*
X52488Y19220D1*
X52520Y19158D1*
X52542Y19091D1*
X52554Y19022D1*
X52557Y18960D1*
X47251Y3446D2*
X48259D1*
X48261Y3078D1*
X48285Y3143D1*
X48318Y3205D1*
X48358Y3262D1*
X48407Y3313D1*
X48461Y3356D1*
X48522Y3392D1*
X48586Y3419D1*
X48654Y3437D1*
X48723Y3445D1*
X48793Y3444D1*
X48862Y3434D1*
X48929Y3414D1*
X48993Y3384D1*
X49052Y3347D1*
X49105Y3302D1*
X49152Y3250D1*
X49191Y3191D1*
X49221Y3129D1*
X49243Y3062D1*
X49250Y3031D1*
X49267Y3097D1*
X49293Y3162D1*
X49328Y3222D1*
X49371Y3277D1*
X49422Y3326D1*
X49478Y3367D1*
X49540Y3401D1*
X49605Y3425D1*
X49673Y3440D1*
X49743Y3446D1*
X49813Y3442D1*
X49882Y3429D1*
X49948Y3406D1*
X50010Y3375D1*
X50068Y3335D1*
X50119Y3287D1*
X50164Y3233D1*
X50200Y3174D1*
X50229Y3110D1*
X50248Y3043D1*
X50250Y3031D1*
X50267Y3097D1*
X50293Y3162D1*
X50328Y3222D1*
X50371Y3277D1*
X50422Y3326D1*
X50478Y3367D1*
X50540Y3401D1*
X50605Y3425D1*
X50673Y3440D1*
X50743Y3446D1*
X50813Y3442D1*
X50882Y3429D1*
X50948Y3406D1*
X51010Y3375D1*
X51068Y3335D1*
X51119Y3287D1*
X51164Y3233D1*
X51200Y3174D1*
X51229Y3110D1*
X51248Y3043D1*
X51257Y2973D1*
Y2898D1*
X51247Y2828D1*
X51227Y2761D1*
X51198Y2697D1*
X51161Y2638D1*
X51116Y2585D1*
X51064Y2538D1*
X51007Y2498D1*
X50944Y2467D1*
X50878Y2445D1*
X50809Y2432D1*
X50739Y2429D1*
X50669Y2435D1*
X50601Y2451D1*
X50536Y2476D1*
X50475Y2510D1*
X50419Y2552D1*
X50369Y2601D1*
X50326Y2656D1*
X50292Y2717D1*
X50266Y2782D1*
X50250Y2845D1*
X50234Y2780D1*
X50208Y2715D1*
X50173Y2655D1*
X50130Y2599D1*
X50080Y2550D1*
X50024Y2509D1*
X49962Y2475D1*
X49897Y2451D1*
X49829Y2435D1*
X49759Y2429D1*
X49689Y2433D1*
X49620Y2446D1*
X49554Y2468D1*
X49492Y2499D1*
X49434Y2539D1*
X49382Y2586D1*
X49338Y2640D1*
X49301Y2699D1*
X49272Y2763D1*
X49253Y2830D1*
X49250Y2845D1*
X49234Y2780D1*
X49208Y2715D1*
X49173Y2655D1*
X49130Y2599D1*
X49080Y2550D1*
X49024Y2509D1*
X48962Y2475D1*
X48897Y2451D1*
X48829Y2435D1*
X48759Y2429D1*
X48689Y2433D1*
X48620Y2446D1*
X48554Y2468D1*
X48492Y2499D1*
X48434Y2539D1*
X48382Y2586D1*
X48338Y2640D1*
X48301Y2699D1*
X48272Y2763D1*
X48259Y2806D1*
Y2429D1*
X47241D1*
Y3446D1*
X47251D1*
X48879Y17491D2*
X49807D1*
Y16513D1*
X48829D1*
Y17491D1*
X48879D1*
X49807Y17976D2*
X49800Y17906D1*
X49784Y17838D1*
X49758Y17773D1*
X49723Y17713D1*
X49680Y17658D1*
X49629Y17609D1*
X49573Y17569D1*
X49510Y17537D1*
X49444Y17514D1*
X49376Y17501D1*
X49306Y17497D1*
X49236Y17504D1*
X49168Y17520D1*
X49103Y17547D1*
X49043Y17582D1*
X48988Y17625D1*
X48940Y17676D1*
X48899Y17733D1*
X48868Y17795D1*
X48845Y17861D1*
X48832Y17930D1*
X48829Y18000D1*
X48836Y18070D1*
X48853Y18137D1*
X48879Y18202D1*
X48914Y18263D1*
X48958Y18317D1*
X49009Y18365D1*
X49066Y18405D1*
X49129Y18437D1*
X49195Y18459D1*
X49264Y18472D1*
X49334Y18475D1*
X49403Y18467D1*
X49471Y18450D1*
X49536Y18424D1*
X49596Y18388D1*
X49650Y18344D1*
X49698Y18293D1*
X49738Y18236D1*
X49769Y18173D1*
X49791Y18107D1*
X49804Y18038D1*
X49807Y17976D1*
X49804Y18920D2*
X49796Y18871D1*
X49784Y18823D1*
X49766Y18776D1*
X49744Y18731D1*
X49717Y18689D1*
X49687Y18649D1*
X49652Y18613D1*
X49614Y18581D1*
X49573Y18553D1*
X49529Y18529D1*
X49482Y18510D1*
X49435Y18496D1*
X49386Y18486D1*
X49336Y18482D1*
X49286D1*
X49236Y18488D1*
X49187Y18499D1*
X49140Y18515D1*
X49094Y18535D1*
X49051Y18560D1*
X49011Y18590D1*
X48973Y18623D1*
X48940Y18660D1*
X48910Y18700D1*
X48885Y18743D1*
X48864Y18789D1*
X48848Y18836D1*
X48836Y18885D1*
X48830Y18934D1*
X48829Y18984D1*
X48833Y19034D1*
X48842Y19083D1*
X48856Y19131D1*
X48875Y19177D1*
X48898Y19222D1*
X48926Y19263D1*
X48958Y19302D1*
X48994Y19336D1*
X49033Y19368D1*
X49075Y19395D1*
X49119Y19417D1*
X49166Y19435D1*
X49214Y19448D1*
X49264Y19456D1*
X49314Y19459D1*
X49363Y19457D1*
X49413Y19450D1*
X49461Y19438D1*
X49508Y19421D1*
X49553Y19399D1*
X49596Y19372D1*
X49635Y19342D1*
X49672Y19308D1*
X49704Y19270D1*
X49733Y19229D1*
X49757Y19185D1*
X49777Y19139D1*
X49791Y19091D1*
X49801Y19042D1*
X49807Y18970D1*
X49804Y18920D1*
X26041Y13259D2*
X26368D1*
X26304Y13281D1*
X26216Y13328D1*
X26139Y13392D1*
X26076Y13469D1*
X26029Y13557D1*
X26001Y13653D1*
X25991Y13752D1*
X26002Y13851D1*
X26031Y13947D1*
X26078Y14035D1*
X26142Y14112D1*
X26220Y14175D1*
X26308Y14221D1*
X26404Y14250D1*
X26408D1*
X26351Y14264D1*
X26259Y14302D1*
X26176Y14358D1*
X26106Y14429D1*
X26051Y14512D1*
X26013Y14604D1*
X25994Y14702D1*
Y14802D1*
X26014Y14900D1*
X26053Y14992D1*
X26108Y15075D1*
X26179Y15145D1*
X26263Y15200D1*
X26355Y15238D1*
X26408Y15250D1*
X26351Y15264D1*
X26259Y15302D1*
X26176Y15358D1*
X26106Y15429D1*
X26051Y15512D1*
X26013Y15604D1*
X25994Y15702D1*
Y15802D1*
X26014Y15900D1*
X26053Y15992D1*
X26108Y16075D1*
X26179Y16145D1*
X26263Y16200D1*
X26355Y16238D1*
X26453Y16257D1*
X26553Y16256D1*
X26651Y16236D1*
X26743Y16197D1*
X26825Y16141D1*
X26895Y16070D1*
X26950Y15987D1*
X26988Y15894D1*
X27007Y15796D1*
X27006Y15700D1*
X26987Y15602D1*
X26948Y15510D1*
X26893Y15427D1*
X26822Y15357D1*
X26739Y15301D1*
X26647Y15263D1*
X26594Y15250D1*
X26651Y15236D1*
X26743Y15197D1*
X26825Y15141D1*
X26895Y15070D1*
X26950Y14987D1*
X26988Y14894D1*
X27007Y14796D1*
X27006Y14700D1*
X26987Y14602D1*
X26948Y14510D1*
X26893Y14427D1*
X26822Y14357D1*
X26739Y14301D1*
X26647Y14263D1*
X26594Y14250D1*
X26651Y14236D1*
X26743Y14197D1*
X26825Y14141D1*
X26895Y14070D1*
X26950Y13987D1*
X26988Y13894D1*
X27007Y13796D1*
X27006Y13700D1*
X26987Y13602D1*
X26948Y13510D1*
X26893Y13427D1*
X26822Y13357D1*
X26739Y13301D1*
X26647Y13263D1*
X26630Y13259D1*
X27009D1*
Y12241D1*
X25991D1*
Y13259D1*
X26041D1*
X28041Y11259D2*
X28361Y11261D1*
X28295Y11285D1*
X28233Y11317D1*
X28176Y11358D1*
X28125Y11406D1*
X28082Y11461D1*
X28046Y11521D1*
X28019Y11585D1*
X28001Y11653D1*
X27992Y11722D1*
X27993Y11792D1*
X28004Y11861D1*
X28024Y11928D1*
X28053Y11992D1*
X28090Y12051D1*
X28135Y12104D1*
X28187Y12151D1*
X28245Y12190D1*
X28308Y12221D1*
X28374Y12243D1*
X28407Y12250D1*
X28351Y12264D1*
X28259Y12302D1*
X28176Y12358D1*
X28106Y12429D1*
X28051Y12512D1*
X28013Y12604D1*
X27994Y12702D1*
Y12802D1*
X28014Y12900D1*
X28053Y12992D1*
X28108Y13075D1*
X28179Y13145D1*
X28263Y13200D1*
X28355Y13238D1*
X28408Y13250D1*
X28351Y13264D1*
X28259Y13302D1*
X28176Y13358D1*
X28106Y13429D1*
X28051Y13512D1*
X28013Y13604D1*
X27994Y13702D1*
Y13802D1*
X28014Y13900D1*
X28053Y13992D1*
X28108Y14075D1*
X28179Y14145D1*
X28263Y14200D1*
X28355Y14238D1*
X28408Y14250D1*
X28351Y14264D1*
X28259Y14302D1*
X28176Y14358D1*
X28106Y14429D1*
X28051Y14512D1*
X28013Y14604D1*
X27994Y14702D1*
Y14802D1*
X28014Y14900D1*
X28053Y14992D1*
X28108Y15075D1*
X28179Y15145D1*
X28263Y15200D1*
X28355Y15238D1*
X28408Y15250D1*
X28351Y15264D1*
X28259Y15302D1*
X28176Y15358D1*
X28106Y15429D1*
X28051Y15512D1*
X28013Y15604D1*
X27994Y15702D1*
Y15802D1*
X28014Y15900D1*
X28053Y15992D1*
X28108Y16075D1*
X28179Y16145D1*
X28263Y16200D1*
X28355Y16238D1*
X28408Y16250D1*
X28351Y16264D1*
X28259Y16302D1*
X28176Y16358D1*
X28106Y16429D1*
X28051Y16512D1*
X28013Y16604D1*
X27994Y16702D1*
Y16802D1*
X28014Y16900D1*
X28053Y16992D1*
X28108Y17075D1*
X28179Y17145D1*
X28263Y17200D1*
X28355Y17238D1*
X28408Y17250D1*
X28351Y17264D1*
X28286Y17289D1*
X28225Y17322D1*
X28169Y17364D1*
X28119Y17413D1*
X28076Y17469D1*
X28042Y17530D1*
X28016Y17595D1*
X27999Y17663D1*
X27992Y17732D1*
X27994Y17802D1*
X28006Y17871D1*
X28027Y17938D1*
X28057Y18001D1*
X28096Y18059D1*
X28142Y18112D1*
X28195Y18157D1*
X28254Y18195D1*
X28317Y18225D1*
X28384Y18245D1*
X28453Y18257D1*
X28523Y18258D1*
X28593Y18250D1*
X28660Y18233D1*
X28725Y18206D1*
X28785Y18171D1*
X28840Y18128D1*
X28889Y18078D1*
X28930Y18021D1*
X28964Y17960D1*
X28988Y17894D1*
X29003Y17826D1*
X29009Y17750D1*
X29004Y17680D1*
X28990Y17612D1*
X28966Y17546D1*
X28934Y17484D1*
X28893Y17427D1*
X28845Y17376D1*
X28790Y17332D1*
X28730Y17297D1*
X28666Y17269D1*
X28593Y17250D1*
X28651Y17236D1*
X28743Y17197D1*
X28825Y17141D1*
X28895Y17070D1*
X28950Y16987D1*
X28988Y16894D1*
X29007Y16796D1*
X29006Y16700D1*
X28987Y16602D1*
X28948Y16510D1*
X28893Y16427D1*
X28822Y16357D1*
X28739Y16301D1*
X28647Y16263D1*
X28594Y16250D1*
X28651Y16236D1*
X28743Y16197D1*
X28825Y16141D1*
X28895Y16070D1*
X28950Y15987D1*
X28988Y15894D1*
X29007Y15796D1*
X29006Y15700D1*
X28987Y15602D1*
X28948Y15510D1*
X28893Y15427D1*
X28822Y15357D1*
X28739Y15301D1*
X28647Y15263D1*
X28594Y15250D1*
X28651Y15236D1*
X28743Y15197D1*
X28825Y15141D1*
X28895Y15070D1*
X28950Y14987D1*
X28988Y14894D1*
X29007Y14796D1*
X29006Y14700D1*
X28987Y14602D1*
X28948Y14510D1*
X28893Y14427D1*
X28822Y14357D1*
X28739Y14301D1*
X28647Y14263D1*
X28594Y14250D1*
X28651Y14236D1*
X28743Y14197D1*
X28825Y14141D1*
X28895Y14070D1*
X28950Y13987D1*
X28988Y13894D1*
X29007Y13796D1*
X29006Y13700D1*
X28987Y13602D1*
X28948Y13510D1*
X28893Y13427D1*
X28822Y13357D1*
X28739Y13301D1*
X28647Y13263D1*
X28594Y13250D1*
X28651Y13236D1*
X28743Y13197D1*
X28825Y13141D1*
X28895Y13070D1*
X28950Y12987D1*
X28988Y12894D1*
X29007Y12796D1*
X29006Y12700D1*
X28987Y12602D1*
X28948Y12510D1*
X28893Y12427D1*
X28822Y12357D1*
X28739Y12301D1*
X28647Y12263D1*
X28594Y12250D1*
X28670Y12230D1*
X28734Y12202D1*
X28794Y12165D1*
X28848Y12121D1*
X28895Y12070D1*
X28936Y12013D1*
X28968Y11950D1*
X28991Y11884D1*
X29004Y11816D1*
X29009Y11740D1*
X29002Y11670D1*
X28987Y11602D1*
X28962Y11537D1*
X28928Y11476D1*
X28886Y11419D1*
X28837Y11370D1*
X28782Y11327D1*
X28721Y11292D1*
X28656Y11266D1*
X28631Y11259D1*
X29009D1*
Y10241D1*
X27991D1*
Y11259D1*
X28041D1*
X26556Y4544D2*
X27484D1*
Y3566D1*
X26506D1*
Y4544D1*
X26556D1*
X26497Y4005D2*
X26489Y3956D1*
X26477Y3907D1*
X26459Y3861D1*
X26437Y3816D1*
X26410Y3773D1*
X26380Y3734D1*
X26345Y3698D1*
X26307Y3666D1*
X26265Y3638D1*
X26222Y3614D1*
X26175Y3595D1*
X26128Y3580D1*
X26078Y3571D1*
X26029Y3566D1*
X25979Y3567D1*
X25929Y3573D1*
X25880Y3584D1*
X25833Y3600D1*
X25787Y3620D1*
X25744Y3645D1*
X25704Y3674D1*
X25666Y3708D1*
X25633Y3745D1*
X25603Y3785D1*
X25578Y3828D1*
X25557Y3873D1*
X25541Y3921D1*
X25529Y3969D1*
X25523Y4019D1*
X25522Y4069D1*
X25526Y4119D1*
X25535Y4168D1*
X25549Y4216D1*
X25568Y4262D1*
X25591Y4306D1*
X25619Y4348D1*
X25651Y4386D1*
X25687Y4421D1*
X25726Y4452D1*
X25768Y4479D1*
X25812Y4502D1*
X25859Y4520D1*
X25907Y4533D1*
X25957Y4541D1*
X26006Y4544D1*
X26056Y4542D1*
X26106Y4535D1*
X26154Y4522D1*
X26201Y4505D1*
X26246Y4483D1*
X26289Y4457D1*
X26328Y4427D1*
X26365Y4392D1*
X26397Y4354D1*
X26426Y4313D1*
X26450Y4270D1*
X26470Y4224D1*
X26484Y4176D1*
X26494Y4127D1*
X26500Y4055D1*
X26497Y4005D1*
X30064Y4489D2*
X30992D1*
Y3511D1*
X30014D1*
Y4489D1*
X30064D1*
X30005Y3951D2*
X29998Y3901D1*
X29985Y3853D1*
X29968Y3806D1*
X29945Y3761D1*
X29919Y3719D1*
X29888Y3680D1*
X29853Y3644D1*
X29815Y3611D1*
X29774Y3583D1*
X29730Y3559D1*
X29684Y3540D1*
X29636Y3526D1*
X29587Y3516D1*
X29537Y3512D1*
X29487Y3513D1*
X29437Y3518D1*
X29389Y3529D1*
X29341Y3545D1*
X29296Y3565D1*
X29252Y3591D1*
X29212Y3620D1*
X29175Y3653D1*
X29141Y3690D1*
X29111Y3730D1*
X29086Y3773D1*
X29065Y3819D1*
X29049Y3866D1*
X29038Y3915D1*
X29031Y3964D1*
X29030Y4014D1*
X29034Y4064D1*
X29043Y4113D1*
X29057Y4161D1*
X29076Y4208D1*
X29099Y4252D1*
X29127Y4293D1*
X29159Y4332D1*
X29195Y4367D1*
X29234Y4398D1*
X29276Y4425D1*
X29321Y4447D1*
X29367Y4465D1*
X29416Y4478D1*
X29465Y4486D1*
X29515Y4489D1*
X29565Y4487D1*
X29614Y4480D1*
X29663Y4468D1*
X29710Y4451D1*
X29755Y4429D1*
X29797Y4403D1*
X29837Y4372D1*
X29873Y4338D1*
X29906Y4300D1*
X29934Y4259D1*
X29958Y4215D1*
X29978Y4169D1*
X29993Y4121D1*
X30003Y4072D1*
X30008Y4000D1*
X30005Y3951D1*
X32291Y3634D2*
X33259D1*
X33261Y3265D1*
X33285Y3331D1*
X33318Y3393D1*
X33358Y3449D1*
X33407Y3500D1*
X33461Y3544D1*
X33522Y3579D1*
X33586Y3606D1*
X33654Y3624D1*
X33723Y3633D1*
X33793Y3632D1*
X33862Y3621D1*
X33929Y3601D1*
X33993Y3572D1*
X34052Y3534D1*
X34105Y3489D1*
X34152Y3437D1*
X34191Y3379D1*
X34221Y3316D1*
X34243Y3249D1*
X34256Y3181D1*
X34258Y3105D1*
X34251Y3035D1*
X34234Y2967D1*
X34208Y2903D1*
X34173Y2842D1*
X34130Y2787D1*
X34080Y2738D1*
X34024Y2696D1*
X33962Y2663D1*
X33897Y2638D1*
X33829Y2622D1*
X33759Y2616D1*
X33689Y2620D1*
X33620Y2633D1*
X33554Y2655D1*
X33492Y2687D1*
X33434Y2726D1*
X33382Y2773D1*
X33338Y2827D1*
X33301Y2887D1*
X33272Y2951D1*
X33259Y2994D1*
Y2616D1*
X32988D1*
X32989Y2530D1*
X33060Y2477D1*
X33096Y2442D1*
X33127Y2404D1*
X33155Y2362D1*
X33178Y2318D1*
X33196Y2271D1*
X33209Y2223D1*
X33217Y2173D1*
X33219Y2125D1*
X33217Y2075D1*
X33209Y2026D1*
X33196Y1977D1*
X33177Y1931D1*
X33154Y1887D1*
X33127Y1845D1*
X33095Y1806D1*
X33059Y1772D1*
X33020Y1741D1*
X32977Y1714D1*
X32932Y1692D1*
X32885Y1675D1*
X32837Y1664D1*
X32787Y1657D1*
X32737Y1656D1*
X32687Y1660D1*
X32638Y1669D1*
X32590Y1684D1*
X32544Y1703D1*
X32501Y1727D1*
X32460Y1756D1*
X32422Y1789D1*
X32388Y1826D1*
X32359Y1866D1*
X32333Y1909D1*
X32313Y1955D1*
X32297Y2002D1*
X32287Y2051D1*
X32281Y2101D1*
Y2151D1*
X32287Y2200D1*
X32297Y2249D1*
X32313Y2297D1*
X32334Y2342D1*
X32359Y2385D1*
X32389Y2425D1*
X32423Y2462D1*
X32461Y2495D1*
X32511Y2528D1*
Y2617D1*
X32241Y2616D1*
Y3634D1*
X32291D1*
X3752Y8048D2*
X3941D1*
X3893Y8084D1*
X3823Y8156D1*
X3768Y8239D1*
X3729Y8331D1*
X3707Y8429D1*
X3703Y8528D1*
X3717Y8627D1*
X3749Y8722D1*
X3797Y8809D1*
X3861Y8886D1*
X3938Y8950D1*
X4026Y9000D1*
X3965Y9032D1*
X3908Y9072D1*
X3856Y9119D1*
X3811Y9172D1*
X3773Y9231D1*
X3742Y9294D1*
X3720Y9360D1*
X3707Y9429D1*
X3702Y9498D1*
X3706Y9568D1*
X3719Y9637D1*
X3741Y9703D1*
X3771Y9767D1*
X3809Y9825D1*
X3854Y9879D1*
X3906Y9926D1*
X3963Y9967D1*
X4024Y9999D1*
X4090Y10024D1*
X4158Y10040D1*
X4228Y10048D1*
X4297Y10046D1*
X4367Y10035D1*
X4434Y10016D1*
X4498Y9989D1*
X4558Y9953D1*
X4614Y9910D1*
X4663Y9860D1*
X4705Y9805D1*
X4741Y9744D1*
X4768Y9680D1*
X4786Y9612D1*
X4796Y9543D1*
X4797Y9470D1*
X4789Y9401D1*
X4772Y9333D1*
X4746Y9268D1*
X4713Y9206D1*
X4671Y9150D1*
X4623Y9099D1*
X4569Y9055D1*
X4510Y9018D1*
X4474Y9000D1*
X4550Y8959D1*
X4628Y8896D1*
X4691Y8825D1*
X4911Y8824D1*
X4961Y8870D1*
X5002Y8898D1*
X5046Y8922D1*
X5092Y8942D1*
X5140Y8956D1*
X5189Y8965D1*
X5239Y8969D1*
X5289Y8968D1*
X5338Y8961D1*
X5387Y8949D1*
X5434Y8932D1*
X5478Y8910D1*
X5521Y8883D1*
X5560Y8852D1*
X5596Y8817D1*
X5627Y8779D1*
X5655Y8737D1*
X5678Y8693D1*
X5696Y8646D1*
X5709Y8598D1*
X5717Y8548D1*
X5719Y8500D1*
X5717Y8450D1*
X5709Y8401D1*
X5696Y8353D1*
X5677Y8306D1*
X5654Y8262D1*
X5627Y8220D1*
X5595Y8182D1*
X5559Y8147D1*
X5520Y8116D1*
X5477Y8089D1*
X5432Y8068D1*
X5385Y8051D1*
X5337Y8039D1*
X5287Y8032D1*
X5237Y8031D1*
X5187Y8035D1*
X5138Y8044D1*
X5090Y8059D1*
X5044Y8078D1*
X5001Y8102D1*
X4960Y8131D1*
X4911Y8177D1*
X4692Y8176D1*
X4623Y8099D1*
X4558Y8048D1*
X4798D1*
Y6952D1*
X3702D1*
Y8048D1*
X3752D1*
X51654Y5263D2*
X51646Y5213D1*
X51633Y5165D1*
X51615Y5118D1*
X51592Y5074D1*
X51564Y5033D1*
X51532Y4994D1*
X51496Y4959D1*
X51457Y4928D1*
X51415Y4902D1*
X51370Y4880D1*
X51323Y4863D1*
X51274Y4851D1*
X51225Y4845D1*
X51175Y4843D1*
X51125Y4847D1*
X51076Y4857D1*
X51028Y4871D1*
X50982Y4891D1*
X50938Y4915D1*
X50897Y4944D1*
X50860Y4977D1*
X50826Y5013D1*
X50784Y5074D1*
X50670D1*
X50609Y5039D1*
X50561Y5025D1*
X50512Y5019D1*
X50462Y5021D1*
X50413Y5032D1*
X50367Y5050D1*
X50325Y5077D1*
X50282Y5116D1*
X50216Y5062D1*
X50172Y5039D1*
X50124Y5025D1*
X50074Y5019D1*
X50025Y5021D1*
X49976Y5031D1*
X49929Y5050D1*
X49887Y5077D1*
X49850Y5110D1*
X49818Y5149D1*
X49794Y5192D1*
X49778Y5239D1*
X49769Y5289D1*
X49770Y5339D1*
X49778Y5388D1*
X49795Y5435D1*
X49825Y5484D1*
X49823Y6062D1*
Y6714D1*
X49775Y6761D1*
X49545D1*
X49484Y6727D1*
X49436Y6712D1*
X49387Y6706D1*
X49337Y6708D1*
X49288Y6719D1*
X49242Y6738D1*
X49200Y6764D1*
X49162Y6797D1*
X49131Y6836D1*
X49107Y6880D1*
X49090Y6927D1*
X49082Y6976D1*
Y7026D1*
X49091Y7075D1*
X49108Y7122D1*
X49132Y7166D1*
X49164Y7204D1*
X49201Y7237D1*
X49244Y7263D1*
X49290Y7282D1*
X49339Y7292D1*
X49389Y7294D1*
X49439Y7287D1*
X49486Y7272D1*
X49545Y7239D1*
X49875D1*
X49925Y7234D1*
X49972Y7218D1*
X50005Y7201D1*
X50044Y7169D1*
X50198Y7015D1*
Y7348D1*
X50163Y7357D1*
X50117Y7376D1*
X50078Y7399D1*
X48420D1*
X48359Y7365D1*
X48311Y7350D1*
X48262Y7344D1*
X48212Y7346D1*
X48163Y7357D1*
X48117Y7376D1*
X48075Y7402D1*
X48037Y7435D1*
X48006Y7474D1*
X47982Y7518D1*
X47965Y7565D1*
X47957Y7614D1*
Y7664D1*
X47966Y7713D1*
X47983Y7760D1*
X48007Y7804D1*
X48039Y7842D1*
X48076Y7875D1*
X48119Y7901D1*
X48165Y7919D1*
X48214Y7930D1*
X48264Y7932D1*
X48314Y7925D1*
X48361Y7910D1*
X48420Y7877D1*
X50080D1*
X50119Y7901D1*
X50165Y7919D1*
X50214Y7930D1*
X50264Y7932D1*
X50314Y7925D1*
X50361Y7910D1*
X50406Y7887D1*
X50446Y7857D1*
X50480Y7821D1*
X50508Y7779D1*
X50528Y7734D1*
X50540Y7687D1*
X50606Y7619D1*
X50638Y7581D1*
X50661Y7536D1*
X50671Y7501D1*
X50676Y7450D1*
Y5552D1*
X50783Y5551D1*
X50827Y5613D1*
X50861Y5649D1*
X50898Y5682D1*
X50939Y5711D1*
X50983Y5735D1*
X51029Y5754D1*
X51077Y5769D1*
X51126Y5778D1*
X51176Y5782D1*
X51226Y5780D1*
X51276Y5773D1*
X51324Y5761D1*
X51371Y5744D1*
X51416Y5722D1*
X51458Y5696D1*
X51497Y5665D1*
X51533Y5630D1*
X51565Y5591D1*
X51592Y5550D1*
X51615Y5505D1*
X51633Y5459D1*
X51646Y5410D1*
X51654Y5361D1*
X51657Y5312D1*
X51654Y5263D1*
X49154Y10325D2*
X49146Y10276D1*
X49133Y10228D1*
X49115Y10181D1*
X49092Y10137D1*
X49064Y10095D1*
X49032Y10057D1*
X48996Y10022D1*
X48927Y9972D1*
X48921Y9886D1*
X48915Y9825D1*
X48902Y9777D1*
X48882Y9731D1*
X48854Y9690D1*
X48819Y9654D1*
X48779Y9624D1*
X48734Y9602D1*
X48686Y9587D1*
X48637Y9581D1*
X48587Y9583D1*
X48538Y9594D1*
X48492Y9613D1*
X48450Y9639D1*
X48412Y9672D1*
X48381Y9711D1*
X48357Y9755D1*
X48340Y9802D1*
X48332Y9851D1*
Y9901D1*
X48341Y9950D1*
X48358Y9997D1*
X48374Y10026D1*
X48326Y10076D1*
X48296Y10116D1*
X48271Y10159D1*
X48250Y10205D1*
X48235Y10252D1*
X48224Y10301D1*
X48219Y10351D1*
Y10401D1*
X48224Y10450D1*
X48235Y10499D1*
X48251Y10547D1*
X48271Y10592D1*
X48297Y10635D1*
X48327Y10675D1*
X48361Y10712D1*
X48398Y10745D1*
X48439Y10773D1*
X48483Y10797D1*
X48529Y10817D1*
X48577Y10831D1*
X48626Y10840D1*
X48676Y10844D1*
X48726Y10843D1*
X48776Y10836D1*
X48824Y10824D1*
X48871Y10807D1*
X48916Y10785D1*
X48958Y10758D1*
X48997Y10727D1*
X49033Y10692D1*
X49065Y10654D1*
X49092Y10612D1*
X49115Y10568D1*
X49133Y10521D1*
X49146Y10473D1*
X49154Y10423D1*
X49157Y10375D1*
X49154Y10325D1*
X50279D2*
X50271Y10276D1*
X50258Y10228D1*
X50240Y10181D1*
X50217Y10137D1*
X50189Y10095D1*
X50127Y10027D1*
X50153Y9971D1*
X50165Y9923D1*
X50169Y9875D1*
X50165Y9825D1*
X50152Y9777D1*
X50132Y9731D1*
X50104Y9690D1*
X50069Y9654D1*
X50029Y9624D1*
X49984Y9602D1*
X49936Y9587D1*
X49887Y9581D1*
X49837Y9583D1*
X49788Y9594D1*
X49742Y9613D1*
X49700Y9639D1*
X49662Y9672D1*
X49631Y9711D1*
X49607Y9755D1*
X49590Y9802D1*
X49582Y9851D1*
X49579Y9887D1*
X49573Y9970D1*
X49522Y10006D1*
X49485Y10039D1*
X49451Y10076D1*
X49421Y10116D1*
X49396Y10159D1*
X49375Y10205D1*
X49360Y10252D1*
X49349Y10301D1*
X49344Y10351D1*
Y10401D1*
X49349Y10450D1*
X49360Y10499D1*
X49376Y10547D1*
X49396Y10592D1*
X49422Y10635D1*
X49452Y10675D1*
X49486Y10712D1*
X49523Y10745D1*
X49564Y10773D1*
X49608Y10797D1*
X49654Y10817D1*
X49702Y10831D1*
X49751Y10840D1*
X49801Y10844D1*
X49851Y10843D1*
X49901Y10836D1*
X49949Y10824D1*
X49996Y10807D1*
X50041Y10785D1*
X50083Y10758D1*
X50122Y10727D1*
X50158Y10692D1*
X50190Y10654D1*
X50217Y10612D1*
X50240Y10568D1*
X50258Y10521D1*
X50271Y10473D1*
X50279Y10423D1*
X50282Y10375D1*
X50279Y10325D1*
X32014Y5671D2*
Y7205D1*
X31985Y7255D1*
X31969Y7302D1*
X31960Y7352D1*
Y7401D1*
X31969Y7451D1*
X31986Y7498D1*
X32010Y7541D1*
X32042Y7580D1*
X32080Y7613D1*
X32122Y7639D1*
X32169Y7657D1*
X32218Y7667D1*
X32268Y7669D1*
X32317Y7662D1*
X32365Y7648D1*
X32409Y7625D1*
X32449Y7595D1*
X32483Y7559D1*
X32511Y7517D1*
X32531Y7471D1*
X32544Y7423D1*
X32547Y7375D1*
X32543Y7326D1*
X32531Y7277D1*
X32510Y7232D1*
X32492Y7205D1*
Y5671D1*
X32511Y5642D1*
X32531Y5597D1*
X32544Y5548D1*
X32547Y5501D1*
X32543Y5451D1*
X32531Y5402D1*
X32510Y5357D1*
X32482Y5316D1*
X32447Y5280D1*
X32407Y5250D1*
X32363Y5228D1*
X32315Y5213D1*
X32265Y5207D1*
X32215Y5209D1*
X32167Y5220D1*
X32120Y5238D1*
X32078Y5265D1*
X32040Y5298D1*
X32009Y5337D1*
X31985Y5380D1*
X31969Y5427D1*
X31960Y5477D1*
Y5527D1*
X31969Y5576D1*
X31986Y5623D1*
X32015Y5672D1*
X12261Y4771D2*
X12259Y4708D1*
X12251Y4668D1*
X12238Y4628D1*
X12220Y4591D1*
X12197Y4556D1*
X12170Y4524D1*
X12139Y4496D1*
X12105Y4472D1*
X12068Y4453D1*
X12029Y4439D1*
X11988Y4430D1*
X11937Y4426D1*
X7813D1*
X7763Y4430D1*
X7714Y4441D1*
X7668Y4460D1*
X7625Y4486D1*
X7587Y4518D1*
X7554Y4555D1*
X7527Y4597D1*
X7507Y4643D1*
X7494Y4691D1*
X7489Y4741D1*
X7491Y4791D1*
X7501Y4840D1*
X7519Y4887D1*
X7543Y4930D1*
X7574Y4969D1*
X7611Y5003D1*
X7652Y5031D1*
X7697Y5053D1*
X7745Y5067D1*
X7813Y5074D1*
X11745D1*
X11807Y5109D1*
X11846Y5123D1*
X11887Y5133D1*
X11929Y5136D1*
X11970Y5135D1*
X12011Y5128D1*
X12051Y5116D1*
X12089Y5099D1*
X12124Y5077D1*
X12157Y5051D1*
X12186Y5021D1*
X12210Y4987D1*
X12230Y4951D1*
X12246Y4912D1*
X12256Y4872D1*
X12261Y4812D1*
Y4771D1*
X13858Y12926D2*
X14517D1*
X14556Y12951D1*
X14603Y12969D1*
X14652Y12979D1*
X14702Y12981D1*
X14751Y12975D1*
X14799Y12960D1*
X14843Y12937D1*
X14883Y12907D1*
X14918Y12871D1*
X14945Y12829D1*
X14965Y12783D1*
X14978Y12735D1*
X14982Y12687D1*
X14977Y12638D1*
X14965Y12589D1*
X14944Y12544D1*
X14916Y12503D1*
X14882Y12467D1*
X14841Y12437D1*
X14797Y12414D1*
X14749Y12400D1*
X14699Y12394D1*
X14650Y12396D1*
X14601Y12406D1*
X14554Y12425D1*
X14516Y12449D1*
X13858D1*
X13797Y12414D1*
X13749Y12400D1*
X13699Y12394D1*
X13650Y12396D1*
X13601Y12406D1*
X13554Y12425D1*
X13512Y12452D1*
X13475Y12485D1*
X13443Y12524D1*
X13419Y12567D1*
X13403Y12614D1*
X13394Y12664D1*
X13395Y12714D1*
X13403Y12763D1*
X13420Y12810D1*
X13445Y12853D1*
X13476Y12892D1*
X13514Y12925D1*
X13556Y12951D1*
X13603Y12969D1*
X13652Y12979D1*
X13702Y12981D1*
X13751Y12975D1*
X13799Y12960D1*
X13857Y12927D1*
X11034Y9261D2*
X12362D1*
X12412Y9257D1*
X12461Y9246D1*
X12507Y9227D1*
X12550Y9201D1*
X12588Y9169D1*
X12621Y9132D1*
X12648Y9090D1*
X12668Y9044D1*
X12681Y8996D1*
X12686Y8946D1*
X12684Y8896D1*
X12673Y8847D1*
X12656Y8800D1*
X12631Y8757D1*
X12601Y8718D1*
X12564Y8684D1*
X12523Y8656D1*
X12477Y8634D1*
X12430Y8620D1*
X12362Y8613D1*
X10984D1*
X10934Y8617D1*
X10886Y8628D1*
X10840Y8647D1*
X10797Y8673D1*
X10758Y8705D1*
X10725Y8742D1*
X10698Y8784D1*
X10678Y8830D1*
X10666Y8878D1*
X10660Y8928D1*
X10663Y8978D1*
X10673Y9027D1*
X10690Y9074D1*
X10715Y9117D1*
X10746Y9156D1*
X10782Y9190D1*
X10824Y9218D1*
X10869Y9240D1*
X10917Y9254D1*
X10984Y9261D1*
X11034D1*
X17272Y9170D2*
X18733Y7709D1*
X18766Y7671D1*
X18792Y7629D1*
X18811Y7583D1*
X18823Y7535D1*
X18828Y7485D1*
X18825Y7435D1*
X18814Y7386D1*
X18796Y7340D1*
X18771Y7296D1*
X18739Y7258D1*
X18702Y7224D1*
X18660Y7197D1*
X18615Y7176D1*
X18567Y7162D1*
X18517Y7157D1*
X18467Y7158D1*
X18418Y7168D1*
X18371Y7185D1*
X18327Y7209D1*
X18275Y7251D1*
X16779Y8747D1*
X16746Y8785D1*
X16720Y8828D1*
X16701Y8874D1*
X16688Y8922D1*
X16684Y8972D1*
X16687Y9022D1*
X16698Y9071D1*
X16716Y9117D1*
X16741Y9160D1*
X16773Y9199D1*
X16810Y9233D1*
X16851Y9260D1*
X16897Y9281D1*
X16945Y9294D1*
X16994Y9300D1*
X17044Y9298D1*
X17093Y9289D1*
X17140Y9272D1*
X17184Y9248D1*
X17237Y9205D1*
X17272Y9170D1*
X13950Y15239D2*
X15340D1*
X15381Y15263D1*
X15427Y15282D1*
X15476Y15292D1*
X15526Y15294D1*
X15575Y15287D1*
X15623Y15272D1*
X15668Y15249D1*
X15708Y15219D1*
X15742Y15183D1*
X15770Y15142D1*
X15790Y15096D1*
X15802Y15048D1*
X15806Y15000D1*
X15802Y14950D1*
X15789Y14902D1*
X15768Y14856D1*
X15740Y14815D1*
X15706Y14779D1*
X15666Y14749D1*
X15621Y14727D1*
X15573Y14712D1*
X15524Y14706D1*
X15474Y14708D1*
X15425Y14719D1*
X15379Y14738D1*
X15340Y14762D1*
X13951Y14761D1*
X13889Y14727D1*
X13841Y14712D1*
X13791Y14706D1*
X13742Y14708D1*
X13693Y14719D1*
X13646Y14738D1*
X13604Y14764D1*
X13567Y14797D1*
X13535Y14836D1*
X13511Y14880D1*
X13495Y14927D1*
X13486Y14976D1*
X13487Y15026D1*
X13495Y15075D1*
X13512Y15122D1*
X13537Y15166D1*
X13568Y15204D1*
X13606Y15237D1*
X13648Y15263D1*
X13695Y15282D1*
X13744Y15292D1*
X13794Y15294D1*
X13843Y15287D1*
X13891Y15272D1*
X13949Y15239D1*
X12589Y10614D2*
Y11115D1*
X12413Y11113D1*
X10750D1*
X10700Y11117D1*
X10652Y11129D1*
X10605Y11148D1*
X10562Y11173D1*
X10524Y11205D1*
X10491Y11243D1*
X10464Y11285D1*
X10444Y11331D1*
X10431Y11379D1*
X10426Y11429D1*
X10429Y11478D1*
X10439Y11527D1*
X10456Y11574D1*
X10481Y11618D1*
X10512Y11657D1*
X10548Y11691D1*
X10590Y11719D1*
X10635Y11740D1*
X10683Y11754D1*
X10750Y11761D1*
X12589D1*
Y12060D1*
X12593Y12109D1*
X12605Y12158D1*
X12623Y12204D1*
X12649Y12247D1*
X12681Y12286D1*
X12719Y12319D1*
X12761Y12345D1*
X12806Y12366D1*
X12855Y12378D1*
X12904Y12384D1*
X12954Y12381D1*
X13003Y12371D1*
X13050Y12353D1*
X13094Y12329D1*
X13133Y12298D1*
X13167Y12261D1*
X13195Y12220D1*
X13216Y12175D1*
X13230Y12127D1*
X13237Y12060D1*
Y10564D1*
X13234Y10514D1*
X13222Y10465D1*
X13203Y10419D1*
X13178Y10376D1*
X13146Y10338D1*
X13108Y10305D1*
X13066Y10278D1*
X13020Y10258D1*
X12972Y10245D1*
X12922Y10240D1*
X12872Y10242D1*
X12824Y10252D1*
X12777Y10270D1*
X12733Y10294D1*
X12694Y10325D1*
X12660Y10362D1*
X12632Y10403D1*
X12611Y10448D1*
X12596Y10496D1*
X12589Y10564D1*
Y10614D1*
X16781Y12010D2*
Y10564D1*
X16777Y10514D1*
X16765Y10465D1*
X16747Y10419D1*
X16721Y10376D1*
X16689Y10338D1*
X16651Y10305D1*
X16609Y10278D1*
X16564Y10258D1*
X16515Y10245D1*
X16466Y10240D1*
X16416Y10242D1*
X16367Y10252D1*
X16320Y10270D1*
X16277Y10294D1*
X16237Y10325D1*
X16203Y10362D1*
X16175Y10403D1*
X16154Y10448D1*
X16140Y10496D1*
X16133Y10564D1*
Y12060D1*
X16137Y12109D1*
X16148Y12158D1*
X16167Y12204D1*
X16192Y12247D1*
X16224Y12286D1*
X16262Y12319D1*
X16304Y12345D1*
X16350Y12366D1*
X16398Y12378D1*
X16448Y12384D1*
X16498Y12381D1*
X16547Y12371D1*
X16593Y12353D1*
X16637Y12329D1*
X16676Y12298D1*
X16710Y12261D1*
X16738Y12220D1*
X16759Y12175D1*
X16774Y12127D1*
X16781Y12060D1*
Y12010D1*
X50670Y5074D2*
X50609Y5039D1*
X50561Y5025D1*
X50512Y5019D1*
X50462Y5021D1*
X50413Y5032D1*
X50367Y5050D1*
X50325Y5077D1*
X50282Y5116D1*
X47078Y10796D2*
Y14953D1*
X47049Y15005D1*
X47033Y15052D1*
X47024Y15101D1*
X47025Y15151D1*
X47033Y15200D1*
X47050Y15247D1*
X47075Y15291D1*
X47106Y15329D1*
X47144Y15362D1*
X47186Y15388D1*
X47233Y15407D1*
X47282Y15417D1*
X47332Y15419D1*
X47381Y15412D1*
X47429Y15397D1*
X47473Y15374D1*
X47513Y15344D1*
X47548Y15308D1*
X47575Y15267D1*
X47595Y15221D1*
X47608Y15173D1*
X47612Y15125D1*
X47607Y15075D1*
X47595Y15027D1*
X47574Y14981D1*
X47556Y14954D1*
Y13225D1*
Y10798D1*
X47575Y10768D1*
X47595Y10722D1*
X47608Y10674D1*
X47612Y10626D1*
X47607Y10576D1*
X47595Y10528D1*
X47574Y10483D1*
X47546Y10441D1*
X47512Y10405D1*
X47471Y10376D1*
X47427Y10353D1*
X47379Y10339D1*
X47329Y10332D1*
X47280Y10335D1*
X47231Y10345D1*
X47184Y10364D1*
X47142Y10390D1*
X47105Y10423D1*
X47073Y10462D1*
X47049Y10506D1*
X47033Y10553D1*
X47024Y10602D1*
X47025Y10652D1*
X47033Y10701D1*
X47050Y10748D1*
X47080Y10798D1*
X52698Y10608D2*
Y14823D1*
X51483Y14824D1*
X51422Y14789D1*
X51374Y14775D1*
X51324Y14769D1*
X51275Y14771D1*
X51226Y14782D1*
X51179Y14800D1*
X51137Y14827D1*
X51100Y14860D1*
X51068Y14899D1*
X51044Y14942D1*
X51028Y14989D1*
X51019Y15039D1*
X51020Y15089D1*
X51028Y15138D1*
X51045Y15185D1*
X51070Y15228D1*
X51101Y15267D1*
X51139Y15300D1*
X51181Y15326D1*
X51228Y15344D1*
X51277Y15354D1*
X51327Y15356D1*
X51376Y15350D1*
X51424Y15335D1*
X51482Y15302D1*
X52937D1*
X52987Y15296D1*
X53035Y15281D1*
X53078Y15256D1*
X53115Y15223D1*
X53144Y15182D1*
X53165Y15137D1*
X53175Y15086D1*
X53176Y14813D1*
Y10608D1*
X53195Y10579D1*
X53215Y10533D1*
X53228Y10485D1*
X53232Y10437D1*
X53227Y10388D1*
X53215Y10339D1*
X53194Y10294D1*
X53166Y10253D1*
X53132Y10217D1*
X53091Y10187D1*
X53047Y10164D1*
X52999Y10150D1*
X52949Y10144D1*
X52900Y10146D1*
X52851Y10156D1*
X52804Y10175D1*
X52762Y10202D1*
X52725Y10235D1*
X52693Y10274D1*
X52669Y10317D1*
X52653Y10364D1*
X52644Y10414D1*
X52645Y10464D1*
X52653Y10513D1*
X52670Y10560D1*
X52700Y10609D1*
X16000Y1508D2*
D20*
Y1000D1*
X17000Y1508D2*
Y1000D1*
X10400Y20000D2*
Y19492D1*
X38000Y3000D2*
Y2492D1*
Y3000D2*
X38508D1*
X37000D2*
Y2492D1*
X36492Y3000D2*
X37000D1*
X42000Y14508D2*
Y14000D1*
X42508D1*
X42000Y7508D2*
Y7000D1*
X42508D1*
X42000Y17000D2*
Y16492D1*
Y20508D2*
Y20000D1*
X8750Y17778D2*
Y16722D1*
X46500Y19457D2*
Y18480D1*
X46011Y18969D2*
X46989D1*
X52068Y19459D2*
Y18482D1*
X51579Y18970D2*
X52557D1*
X47750Y3446D2*
Y2429D1*
X47242Y2937D2*
X47750D1*
X48750Y3446D2*
Y2429D1*
X49750Y3446D2*
Y2429D1*
X50750Y3446D2*
Y2429D1*
Y2937D2*
X51258D1*
X49318Y18475D2*
Y17497D1*
X48829Y17986D2*
X49806D1*
X27992Y11750D2*
X29008D1*
X28500Y18259D2*
Y17750D1*
X27992D2*
X29008D1*
X33750Y3633D2*
Y2616D1*
Y3125D2*
X34258D1*
X2000Y10048D2*
Y9500D1*
X2548D1*
X4250Y10048D2*
Y9500D1*
X3702D2*
X4798D1*
D34*
X11000Y1000D3*
D35*
X12000D3*
X13000D3*
X14000D3*
X15000D3*
X16000D3*
X17000D3*
X18000D3*
D34*
X9400Y20000D3*
D35*
X10400D3*
X11400D3*
X12400D3*
X13400D3*
X14400D3*
X15400D3*
X16400D3*
D34*
X38000D3*
D35*
X37000D3*
X38000Y19000D3*
X37000D3*
X38000Y18000D3*
X37000D3*
X38000Y17000D3*
X37000D3*
X38000Y16000D3*
X37000D3*
X38000Y15000D3*
X37000D3*
X38000Y14000D3*
X37000D3*
X38000Y13000D3*
X37000D3*
X38000Y12000D3*
X37000D3*
X38000Y11000D3*
X37000D3*
X38000Y10000D3*
X37000D3*
X38000Y9000D3*
X37000D3*
X38000Y8000D3*
X37000D3*
X38000Y7000D3*
X37000D3*
X38000Y6000D3*
X37000D3*
X38000Y5000D3*
X37000D3*
X38000Y4000D3*
X37000D3*
X38000Y3000D3*
X37000D3*
D34*
X20000Y1000D3*
D35*
X21000D3*
X22000D3*
X23000D3*
X24000D3*
X25000D3*
X26000D3*
X27000D3*
D34*
X18000Y20000D3*
D35*
X19000D3*
X20000D3*
X21000D3*
X22000D3*
X23000D3*
X24000D3*
X25000D3*
D34*
X42000Y10000D3*
D35*
X41000D3*
X42000Y11000D3*
X41000D3*
X42000Y12000D3*
X41000D3*
X42000Y13000D3*
X41000D3*
X42000Y14000D3*
X41000D3*
D34*
X29000Y1000D3*
D35*
X30000D3*
X31000D3*
X32000D3*
X33000D3*
X34000D3*
X35000D3*
X36000D3*
D34*
X27000Y20000D3*
D35*
X28000D3*
X29000D3*
X30000D3*
X31000D3*
X32000D3*
X33000D3*
X34000D3*
D34*
X42000Y3000D3*
D35*
X41000D3*
X42000Y4000D3*
X41000D3*
X42000Y5000D3*
X41000D3*
X42000Y6000D3*
X41000D3*
X42000Y7000D3*
X41000D3*
D34*
X44500Y3000D3*
D35*
Y4000D3*
Y5000D3*
Y6000D3*
D34*
X41000Y17000D3*
D35*
Y18000D3*
Y19000D3*
Y20000D3*
D34*
X42000Y17000D3*
D35*
Y18000D3*
Y19000D3*
Y20000D3*
D34*
X43000Y17000D3*
D35*
Y18000D3*
Y19000D3*
Y20000D3*
D36*
X7750Y17250D3*
D37*
X8750D3*
X9750D3*
D38*
X46500Y17000D3*
D39*
Y17984D3*
Y18969D3*
D38*
X52068Y17002D3*
D39*
Y17986D3*
Y18970D3*
D34*
X47750Y2937D3*
D35*
X48750D3*
X49750D3*
X50750D3*
D38*
X49318Y17002D3*
D39*
Y17986D3*
Y18970D3*
D34*
X26500Y12750D3*
D35*
Y13750D3*
Y14750D3*
Y15750D3*
D34*
X33500Y10750D3*
D35*
Y11750D3*
Y12750D3*
Y13750D3*
Y14750D3*
Y15750D3*
Y16750D3*
Y17750D3*
D34*
X28500Y10750D3*
D35*
Y11750D3*
Y12750D3*
Y13750D3*
Y14750D3*
Y15750D3*
Y16750D3*
Y17750D3*
D38*
X26995Y4055D3*
D39*
X26011D3*
D38*
X30503Y4000D3*
D39*
X29519D3*
D40*
X4500Y18250D3*
D41*
X3500D3*
X2500D3*
X1500D3*
D34*
X32750Y3125D3*
D35*
X33750D3*
D45*
X2000Y7500D3*
D46*
Y8500D3*
Y9500D3*
D45*
X4250Y7500D3*
D46*
Y8500D3*
Y9500D3*
D50*
X7750Y16250D3*
X8750D3*
X9750D3*
X51187Y5312D3*
X45500Y17000D3*
Y18000D3*
X51187Y4437D3*
X51068Y17002D3*
Y18002D3*
X48687Y10375D3*
X49812D3*
X3000Y8500D3*
X5250D3*
X32750Y2125D3*
M02*
