G04 DipTrace 2.4.0.2*
%INBottomMask.gbr*%
%MOIN*%
%ADD36R,0.0709X0.0709*%
%ADD37C,0.0709*%
%ADD45R,0.0748X0.0748*%
%ADD46C,0.0748*%
%ADD50C,0.0591*%
%ADD85C,0.0828*%
%ADD86R,0.0828X0.0828*%
%ADD91O,0.0828X0.1064*%
%ADD93R,0.0828X0.1064*%
%ADD97C,0.0789*%
%ADD98R,0.0789X0.0789*%
%FSLAX44Y44*%
G04*
G70*
G90*
G75*
G01*
%LNBotMask*%
%LPD*%
D45*
X11000Y1000D3*
D46*
X12000D3*
X13000D3*
X14000D3*
X15000D3*
X16000D3*
X17000D3*
X18000D3*
D45*
X9400Y20000D3*
D46*
X10400D3*
X11400D3*
X12400D3*
X13400D3*
X14400D3*
X15400D3*
X16400D3*
D45*
X38000D3*
D46*
X37000D3*
X38000Y19000D3*
X37000D3*
X38000Y18000D3*
X37000D3*
X38000Y17000D3*
X37000D3*
X38000Y16000D3*
X37000D3*
X38000Y15000D3*
X37000D3*
X38000Y14000D3*
X37000D3*
X38000Y13000D3*
X37000D3*
X38000Y12000D3*
X37000D3*
X38000Y11000D3*
X37000D3*
X38000Y10000D3*
X37000D3*
X38000Y9000D3*
X37000D3*
X38000Y8000D3*
X37000D3*
X38000Y7000D3*
X37000D3*
X38000Y6000D3*
X37000D3*
X38000Y5000D3*
X37000D3*
X38000Y4000D3*
X37000D3*
X38000Y3000D3*
X37000D3*
D45*
X20000Y1000D3*
D46*
X21000D3*
X22000D3*
X23000D3*
X24000D3*
X25000D3*
X26000D3*
X27000D3*
D45*
X18000Y20000D3*
D46*
X19000D3*
X20000D3*
X21000D3*
X22000D3*
X23000D3*
X24000D3*
X25000D3*
D45*
X42000Y10000D3*
D46*
X41000D3*
X42000Y11000D3*
X41000D3*
X42000Y12000D3*
X41000D3*
X42000Y13000D3*
X41000D3*
X42000Y14000D3*
X41000D3*
D45*
X29000Y1000D3*
D46*
X30000D3*
X31000D3*
X32000D3*
X33000D3*
X34000D3*
X35000D3*
X36000D3*
D45*
X27000Y20000D3*
D46*
X28000D3*
X29000D3*
X30000D3*
X31000D3*
X32000D3*
X33000D3*
X34000D3*
D45*
X42000Y3000D3*
D46*
X41000D3*
X42000Y4000D3*
X41000D3*
X42000Y5000D3*
X41000D3*
X42000Y6000D3*
X41000D3*
X42000Y7000D3*
X41000D3*
D45*
X44500Y3000D3*
D46*
Y4000D3*
Y5000D3*
Y6000D3*
D45*
X41000Y17000D3*
D46*
Y18000D3*
Y19000D3*
Y20000D3*
D45*
X42000Y17000D3*
D46*
Y18000D3*
Y19000D3*
Y20000D3*
D45*
X43000Y17000D3*
D46*
Y18000D3*
Y19000D3*
Y20000D3*
D98*
X7750Y17250D3*
D97*
X8750D3*
X9750D3*
D36*
X46500Y17000D3*
D37*
Y17984D3*
Y18969D3*
D36*
X52068Y17002D3*
D37*
Y17986D3*
Y18970D3*
D45*
X47750Y2937D3*
D46*
X48750D3*
X49750D3*
X50750D3*
D36*
X49318Y17002D3*
D37*
Y17986D3*
Y18970D3*
D45*
X26500Y12750D3*
D46*
Y13750D3*
Y14750D3*
Y15750D3*
D45*
X33500Y10750D3*
D46*
Y11750D3*
Y12750D3*
Y13750D3*
Y14750D3*
Y15750D3*
Y16750D3*
Y17750D3*
D45*
X28500Y10750D3*
D46*
Y11750D3*
Y12750D3*
Y13750D3*
Y14750D3*
Y15750D3*
Y16750D3*
Y17750D3*
D36*
X26995Y4055D3*
D37*
X26011D3*
D36*
X30503Y4000D3*
D37*
X29519D3*
D93*
X4500Y18250D3*
D91*
X3500D3*
X2500D3*
X1500D3*
D45*
X32750Y3125D3*
D46*
X33750D3*
D86*
X2000Y7500D3*
D85*
Y8500D3*
Y9500D3*
D86*
X4250Y7500D3*
D85*
Y8500D3*
Y9500D3*
D50*
X7750Y16250D3*
X8750D3*
X9750D3*
X51187Y5312D3*
X45500Y17000D3*
Y18000D3*
X51187Y4437D3*
X51068Y17002D3*
Y18002D3*
X48687Y10375D3*
X49812D3*
X3000Y8500D3*
X5250D3*
X32750Y2125D3*
M02*
