M48
INCH
T01C0.012
T02C0.0394
T03C0.0433
T04C0.0492
T05C0.0512
%
T01
X+023625Y+017437
X+023625Y+016937
X+023625Y+016437
X+023625Y+015937
X+023625Y+015437
X+023625Y+014937
X+023625Y+014437
X+023625Y+013937
X+023625Y+013437
X+023625Y+012937
X+023625Y+012437
X+023625Y+011937
X+023625Y+011437
X+023625Y+010937
X+023625Y+010437
X+023625Y+009937
X+023625Y+009437
X+023625Y+008937
X+023625Y+008437
X+023625Y+007937
X+023625Y+007437
X+023625Y+006937
X+023625Y+006437
X+023625Y+005937
X+023625Y+005437
X+023625Y+004937
X+023625Y+004437
X+023625Y+003937
X+023625Y+003437
X+024125Y+003437
X+024125Y+003937
X+024125Y+004437
X+024125Y+004937
X+024125Y+005437
X+024125Y+005937
X+024125Y+006437
X+024125Y+006937
X+024125Y+007437
X+024125Y+007937
X+024125Y+008437
X+024125Y+008937
X+024125Y+009437
X+024125Y+009937
X+024125Y+010437
X+024125Y+010937
X+024125Y+011437
X+024125Y+011937
X+024125Y+012437
X+024125Y+012937
X+024125Y+013437
X+024125Y+013937
X+024125Y+014437
X+024125Y+014937
X+024125Y+015437
X+024125Y+015937
X+024125Y+016437
X+024125Y+016937
X+024125Y+017437
X+024125Y+017937
X+024625Y+017937
X+024625Y+017437
X+024625Y+016937
X+024625Y+016437
X+024625Y+015937
X+024625Y+015437
X+024625Y+014937
X+024625Y+014437
X+024625Y+013937
X+024625Y+013437
X+024625Y+012937
X+024625Y+012437
X+024625Y+011937
X+024625Y+011437
X+024625Y+010937
X+024625Y+010437
X+024625Y+009937
X+024625Y+009437
X+024625Y+008937
X+024625Y+008437
X+024625Y+007937
X+024625Y+007437
X+024625Y+006937
X+024625Y+006437
X+024625Y+005937
X+024625Y+005437
X+024625Y+004937
X+024625Y+004437
X+024625Y+003937
X+024625Y+003437
X+025062Y+002000
X+025562Y+002000
X+026062Y+002000
X+026562Y+002000
X+027062Y+002000
X+027562Y+002000
X+028062Y+002000
X+028562Y+002000
X+029062Y+002000
X+029562Y+002000
X+030062Y+002000
X+030562Y+002000
X+031062Y+002000
X+031562Y+002000
X+032062Y+002000
X+033562Y+002000
X+034062Y+002000
X+034562Y+002000
X+035062Y+002000
X+035562Y+002000
X+036062Y+002000
X+036562Y+002000
X+037062Y+002000
X+037562Y+002000
X+037562Y+001000
X+037062Y+001000
X+038062Y+001000
X+038562Y+001000
X+039062Y+001000
X+039562Y+001000
X+040062Y+001000
X+040562Y+001000
X+041062Y+001000
X+041562Y+001000
X+042062Y+001000
X+042562Y+001000
X+043062Y+001000
X+043562Y+001000
X+044062Y+001000
X+044562Y+001000
X+045062Y+001000
X+045562Y+001000
X+046062Y+001000
X+046562Y+001000
X+047062Y+001000
X+047562Y+001000
X+048062Y+001000
X+048562Y+001000
X+049062Y+001000
X+049562Y+001000
X+050062Y+001000
X+050562Y+001000
X+051062Y+001000
X+051562Y+001000
X+052062Y+001000
X+052562Y+001000
X+053062Y+001000
X+053375Y+001187
X+053375Y+001687
X+053375Y+002187
X+053375Y+002687
X+053375Y+003187
X+053375Y+003687
X+053375Y+004187
X+053375Y+004687
X+053375Y+005187
X+053375Y+005687
X+053375Y+006187
X+053375Y+006687
X+053375Y+007187
X+053375Y+007687
X+053375Y+008187
X+053375Y+008687
X+053375Y+009187
X+053375Y+009687
X+053375Y+010187
X+053375Y+010687
X+053375Y+011187
X+053375Y+011687
X+053375Y+012187
X+053375Y+012687
X+053375Y+013187
X+053375Y+013687
X+053375Y+014187
X+053375Y+014687
X+053375Y+015187
X+053375Y+015687
X+053375Y+016187
X+053375Y+016687
X+053875Y+016687
X+053875Y+017187
X+053381Y+017189
X+053375Y+017687
X+053375Y+018187
X+053375Y+018687
X+053375Y+019187
X+053375Y+019687
X+053375Y+020187
X+053875Y+020187
X+053875Y+019687
X+053875Y+019187
X+053875Y+018687
X+053875Y+018187
X+053875Y+017687
X+053875Y+016187
X+053881Y+015689
X+053875Y+015187
X+053875Y+014687
X+053875Y+014187
X+053875Y+013687
X+053875Y+013187
X+053875Y+012687
X+053875Y+012187
X+053875Y+011687
X+053875Y+011187
X+053875Y+010687
X+053875Y+010187
X+053875Y+009687
X+053875Y+009187
X+053875Y+008687
X+053875Y+008187
X+053875Y+007687
X+053875Y+007187
X+053875Y+006687
X+053875Y+006187
X+053875Y+005687
X+053875Y+004687
X+053875Y+004187
X+053875Y+003687
X+053875Y+003187
X+053875Y+002687
X+053875Y+002187
X+053875Y+001687
X+053875Y+001187
X+049687Y+004125
X+049687Y+004625
X+049187Y+004625
X+048687Y+004625
X+048187Y+004625
X+048187Y+004125
X+048687Y+004125
X+049187Y+004125
X+050062Y+005312
X+050500Y+005313
X+049375Y+007000
X+050250Y+007638
X+051000Y+007937
X+051500Y+008062
X+052000Y+008062
X+052000Y+007562
X+051500Y+007562
X+049875Y+009875
X+048937Y+009375
X+048625Y+009875
X+047317Y+010626
X+045005Y+011250
X+044562Y+011437
X+044562Y+010938
X+044562Y+010438
X+044062Y+010438
X+044062Y+010938
X+043562Y+010938
X+043562Y+010438
X+043562Y+009938
X+043562Y+009438
X+043562Y+008938
X+043562Y+008438
X+043562Y+007938
X+043562Y+007438
X+044062Y+007438
X+044062Y+007938
X+044062Y+008438
X+044062Y+008938
X+044062Y+009438
X+044062Y+009938
X+044562Y+009938
X+044562Y+009438
X+044562Y+008938
X+044562Y+008438
X+044562Y+007938
X+044562Y+007437
X+043062Y+007438
X+043062Y+007938
X+043062Y+008438
X+043062Y+008938
X+043062Y+009438
X+043062Y+009938
X+043062Y+010438
X+043062Y+010938
X+043062Y+011438
X+043062Y+011938
X+043562Y+011938
X+044062Y+011938
X+044062Y+011438
X+043562Y+011438
X+044562Y+011938
X+045005Y+011876
X+044375Y+014187
X+044375Y+014687
X+043875Y+014687
X+043875Y+014187
X+043875Y+015187
X+043875Y+015687
X+043875Y+016187
X+043875Y+016687
X+043875Y+017187
X+043875Y+017687
X+043875Y+018187
X+043875Y+018687
X+043875Y+019187
X+043875Y+019687
X+043875Y+020187
X+044375Y+020187
X+044875Y+020187
X+045375Y+020187
X+045875Y+020187
X+046375Y+020187
X+046875Y+020187
X+047375Y+020187
X+047875Y+020187
X+048375Y+020187
X+048875Y+020187
X+049375Y+020187
X+049875Y+020187
X+050375Y+020187
X+050875Y+020187
X+051375Y+020187
X+051875Y+020187
X+052375Y+020187
X+052875Y+020187
X+049500Y+016063
X+049000Y+016063
X+049000Y+015563
X+049000Y+015063
X+049500Y+015063
X+049500Y+015563
X+049500Y+014562
X+049500Y+014063
X+049500Y+013563
X+049000Y+013563
X+049000Y+014063
X+049000Y+014562
X+047317Y+015125
X+044375Y+015187
X+044375Y+015687
X+044375Y+016187
X+044375Y+016687
X+044375Y+017187
X+044375Y+017687
X+044375Y+018187
X+044375Y+018687
X+044375Y+019187
X+044375Y+019687
X+051312Y+015063
X+052250Y+012688
X+052250Y+012188
X+052250Y+011688
X+052255Y+011189
X+052255Y+010689
X+052937Y+010437
X+048250Y+007638
X+047500Y+007937
X+046750Y+008062
X+046250Y+008062
X+046250Y+007562
X+046250Y+007062
X+046250Y+006562
X+046750Y+006562
X+046750Y+007062
X+046750Y+007562
X+046750Y+006062
X+046250Y+006062
X+046187Y+004625
X+046187Y+004125
X+045687Y+004125
X+045687Y+004625
X+046687Y+004625
X+046687Y+004125
X+047187Y+004125
X+047687Y+004125
X+047687Y+004625
X+047187Y+004625
X+036062Y+004500
X+036062Y+005000
X+036062Y+005500
X+036062Y+006000
X+036062Y+006500
X+036062Y+007000
X+036062Y+007500
X+036062Y+008000
X+036062Y+008500
X+036062Y+009000
X+036062Y+009500
X+036062Y+010000
X+036062Y+010500
X+033750Y+009938
X+033250Y+009938
X+032750Y+009938
X+032250Y+009938
X+031750Y+009938
X+031250Y+009938
X+030750Y+009938
X+030250Y+009938
X+029750Y+009938
X+029250Y+009938
X+028750Y+009938
X+028250Y+009938
X+027750Y+009938
X+027940Y+008938
X+028565Y+006876
X+028565Y+005438
X+027753Y+005438
X+032253Y+005501
X+032253Y+007375
X+031628Y+008938
X+034254Y+007626
X+036062Y+004000
X+036062Y+003500
X+036062Y+003000
X+036062Y+002500
X+035191Y+012876
X+035191Y+013751
X+035191Y+014752
X+035191Y+016314
X+035191Y+017252
X+034504Y+018439
X+034504Y+018939
X+034004Y+018939
X+034000Y+018438
X+033500Y+018438
X+033000Y+018438
X+032500Y+018438
X+032000Y+018438
X+031500Y+018438
X+031000Y+018438
X+031000Y+018938
X+031500Y+018938
X+032000Y+018938
X+032500Y+018938
X+033000Y+018938
X+033500Y+018938
X+030125Y+018938
X+029625Y+018938
X+029625Y+018438
X+029125Y+018438
X+028625Y+018438
X+028625Y+018938
X+028125Y+018938
X+028125Y+018438
X+027625Y+018438
X+027625Y+018938
X+027125Y+018938
X+027125Y+018438
X+026625Y+018438
X+026125Y+018438
X+025625Y+018438
X+025625Y+018938
X+025125Y+018938
X+025125Y+018438
X+024625Y+018438
X+024625Y+018938
X+024125Y+018938
X+024125Y+018438
X+023125Y+018438
X+022625Y+018438
X+022625Y+018938
X+023125Y+018938
X+022125Y+018938
X+021625Y+018938
X+021625Y+018438
X+022125Y+018438
X+021125Y+018438
X+020625Y+018438
X+020625Y+018938
X+020125Y+018938
X+020125Y+018438
X+019625Y+018438
X+019625Y+018938
X+019125Y+018938
X+018625Y+018938
X+018125Y+018938
X+019125Y+018438
X+021125Y+018938
X+017625Y+016625
X+017125Y+016625
X+017125Y+016125
X+017625Y+016125
X+016625Y+016125
X+016125Y+016125
X+016125Y+016625
X+016625Y+016625
X+015625Y+016625
X+015125Y+016625
X+014625Y+016625
X+014125Y+016625
X+013625Y+016625
X+013125Y+016625
X+012625Y+016625
X+012125Y+016625
X+012125Y+016125
X+012625Y+016125
X+013125Y+016125
X+013625Y+016125
X+014125Y+016125
X+014625Y+016125
X+015125Y+016125
X+015625Y+016125
X+015512Y+015000
X+013780Y+015000
X+013687Y+012687
X+012913Y+012060
X+013625Y+011562
X+013625Y+011063
X+014125Y+011063
X+014125Y+011562
X+014625Y+011562
X+014625Y+011063
X+015125Y+011063
X+015125Y+011562
X+015625Y+011562
X+015625Y+011063
X+016457Y+010564
X+016457Y+012060
X+014688Y+012687
X+012913Y+010564
X+012362Y+008937
X+010984Y+008937
X+011125Y+006562
X+011125Y+006062
X+011125Y+005562
X+011937Y+004812
X+012000Y+004125
X+012500Y+004125
X+012500Y+003625
X+012000Y+003625
X+011500Y+003625
X+011500Y+004125
X+011000Y+004125
X+011000Y+003625
X+010938Y+002437
X+011438Y+002437
X+011938Y+002437
X+012437Y+002437
X+012938Y+002437
X+013437Y+002437
X+013938Y+002437
X+014437Y+002437
X+014937Y+002437
X+015437Y+002437
X+015937Y+002437
X+016437Y+002437
X+016937Y+002437
X+017437Y+002437
X+017938Y+002437
X+018438Y+002437
X+014500Y+003625
X+014000Y+003625
X+014000Y+004125
X+014500Y+004125
X+013500Y+004125
X+013000Y+004125
X+013000Y+003625
X+013500Y+003625
X+010438Y+002437
X+009938Y+002437
X+009438Y+002437
X+008938Y+002437
X+008438Y+002437
X+007813Y+004750
X+007687Y+005937
X+007687Y+006437
X+007687Y+006937
X+007687Y+007437
X+007687Y+007937
X+007687Y+008437
X+007687Y+008937
X+007687Y+009437
X+006062Y+009437
X+006062Y+009937
X+006062Y+010437
X+006062Y+010937
X+006062Y+011437
X+006062Y+011937
X+006062Y+012437
X+006062Y+012937
X+006062Y+013437
X+006062Y+013937
X+006062Y+014437
X+006062Y+014937
X+006062Y+015437
X+006062Y+015937
X+006062Y+016437
X+006062Y+016937
X+006062Y+017437
X+006062Y+017937
X+006062Y+018437
X+006062Y+018937
X+006062Y+019437
X+006062Y+019937
X+006625Y+018938
X+007125Y+018938
X+007625Y+018938
X+008125Y+018938
X+008625Y+018938
X+009125Y+018938
X+009625Y+018938
X+010125Y+018938
X+010625Y+018938
X+011125Y+018938
X+011625Y+018938
X+012126Y+018939
X+012626Y+018939
X+013125Y+018938
X+013625Y+018938
X+014125Y+018938
X+014625Y+018938
X+015125Y+018938
X+015625Y+018938
X+016125Y+018938
X+016625Y+018938
X+017562Y+013625
X+018062Y+013625
X+018562Y+013625
X+019062Y+013625
X+021625Y+009937
X+021625Y+009438
X+021625Y+008937
X+021625Y+008437
X+021625Y+007937
X+021625Y+007437
X+021625Y+006937
X+021625Y+006437
X+021625Y+005937
X+018504Y+007480
X+017008Y+008976
X+010750Y+011437
X+007000Y+012438
X+006062Y+008937
X+006062Y+008437
X+006062Y+007937
X+006062Y+007437
X+006062Y+006937
X+006062Y+006437
X+006062Y+005937
X+006062Y+005437
X+006062Y+004937
X+006062Y+004437
X+003500Y+004625
X+002750Y+004625
X+010062Y+000437
X+011625Y+016125
X+011625Y+016625
X+026125Y+018938
X+026625Y+018938
X+029125Y+018938
X+030125Y+018438
X+032500Y+015000
X+032500Y+014000
X+032500Y+013000
T02
X+046500Y+017000
X+046500Y+017984
X+046500Y+018969
X+049318Y+018970
X+049318Y+017986
X+049318Y+017002
X+052068Y+017002
X+052068Y+017986
X+052068Y+018970
X+030503Y+004000
X+029519Y+004000
X+026995Y+004055
X+026011Y+004055
T03
X+011000Y+001000
X+012000Y+001000
X+013000Y+001000
X+014000Y+001000
X+015000Y+001000
X+016000Y+001000
X+017000Y+001000
X+018000Y+001000
X+020000Y+001000
X+021000Y+001000
X+022000Y+001000
X+023000Y+001000
X+024000Y+001000
X+025000Y+001000
X+026000Y+001000
X+027000Y+001000
X+029000Y+001000
X+030000Y+001000
X+031000Y+001000
X+032000Y+001000
X+033000Y+001000
X+034000Y+001000
X+035000Y+001000
X+036000Y+001000
X+037000Y+003000
X+038000Y+003000
X+038000Y+004000
X+038000Y+005000
X+038000Y+006000
X+038000Y+007000
X+038000Y+008000
X+038000Y+009000
X+038000Y+010000
X+038000Y+011000
X+037000Y+011000
X+037000Y+010000
X+037000Y+009000
X+037000Y+008000
X+037000Y+007000
X+037000Y+006000
X+037000Y+005000
X+037000Y+004000
X+033750Y+003125
X+032750Y+003125
X+033500Y+010750
X+033500Y+011750
X+033500Y+012750
X+033500Y+013750
X+033500Y+014750
X+033500Y+015750
X+033500Y+016750
X+033500Y+017750
X+033000Y+020000
X+032000Y+020000
X+031000Y+020000
X+030000Y+020000
X+029000Y+020000
X+028000Y+020000
X+027000Y+020000
X+025000Y+020000
X+024000Y+020000
X+023000Y+020000
X+022000Y+020000
X+021000Y+020000
X+020000Y+020000
X+019000Y+020000
X+018000Y+020000
X+016400Y+020000
X+015400Y+020000
X+014400Y+020000
X+013400Y+020000
X+012400Y+020000
X+011400Y+020000
X+010400Y+020000
X+009400Y+020000
X+004250Y+009500
X+004250Y+008500
X+004250Y+007500
X+002000Y+007500
X+002000Y+008500
X+002000Y+009500
X+026500Y+012750
X+026500Y+013750
X+026500Y+014750
X+026500Y+015750
X+028500Y+015750
X+028500Y+016750
X+028500Y+017750
X+028500Y+014750
X+028500Y+013750
X+028500Y+012750
X+028500Y+011750
X+028500Y+010750
X+037000Y+012000
X+037000Y+013000
X+037000Y+014000
X+038000Y+014000
X+038000Y+013000
X+038000Y+012000
X+038000Y+015000
X+038000Y+016000
X+038000Y+017000
X+038000Y+018000
X+037000Y+018000
X+037000Y+019000
X+037000Y+020000
X+038000Y+020000
X+038000Y+019000
X+037000Y+017000
X+037000Y+016000
X+037000Y+015000
X+041000Y+014000
X+042000Y+014000
X+042000Y+013000
X+042000Y+012000
X+042000Y+011000
X+041000Y+011000
X+041000Y+012000
X+041000Y+013000
X+041000Y+010000
X+042000Y+010000
X+042000Y+007000
X+041000Y+007000
X+041000Y+006000
X+041000Y+005000
X+041000Y+004000
X+042000Y+004000
X+042000Y+005000
X+042000Y+006000
X+044500Y+006000
X+044500Y+005000
X+044500Y+004000
X+044500Y+003000
X+042000Y+003000
X+041000Y+003000
X+047750Y+002937
X+048750Y+002937
X+049750Y+002937
X+050750Y+002937
X+043000Y+017000
X+042000Y+017000
X+041000Y+017000
X+041000Y+018000
X+041000Y+019000
X+042000Y+019000
X+043000Y+019000
X+043000Y+020000
X+042000Y+020000
X+041000Y+020000
X+042000Y+018000
X+043000Y+018000
X+034000Y+020000
T04
X+007750Y+017250
X+008750Y+017250
X+009750Y+017250
T05
X+004500Y+018250
X+003500Y+018250
X+002500Y+018250
X+001500Y+018250
T00
M30
