G04 DipTrace 2.4.0.2*
%INTopAssy.gbr*%
%MOIN*%
%ADD10C,0.0098*%
%ADD12C,0.003*%
%ADD42C,0.0154*%
%ADD120C,0.0046*%
%ADD121C,0.0124*%
%FSLAX44Y44*%
G04*
G70*
G90*
G75*
G01*
%LNTopAssy*%
%LPD*%
X43902Y2106D2*
D10*
Y6894D1*
X40402Y16106D2*
Y20894D1*
X41402Y16106D2*
Y20894D1*
X42402Y16106D2*
Y20894D1*
X46856Y3536D2*
X51644D1*
X25902Y11856D2*
Y16644D1*
X32902Y10061D2*
Y18439D1*
X27902Y10061D2*
Y18439D1*
X31856Y3723D2*
X34644D1*
X4188Y47880D2*
X17311D1*
Y46305D1*
X4188D1*
Y47880D1*
Y46305D2*
X17311D1*
Y44730D1*
X4188D1*
Y46305D1*
Y44730D2*
X17311D1*
Y43156D1*
X4188D1*
Y44730D1*
Y43156D2*
X17311D1*
Y41581D1*
X4188D1*
Y43156D1*
Y41581D2*
X17311D1*
Y40006D1*
X4188D1*
Y41581D1*
Y40006D2*
X17311D1*
Y38431D1*
X4188D1*
Y40006D1*
X17311Y47880D2*
X23873D1*
Y46305D1*
X17311D1*
Y47880D1*
Y46305D2*
X23873D1*
Y44730D1*
X17311D1*
Y46305D1*
Y44730D2*
X23873D1*
Y43156D1*
X17311D1*
Y44730D1*
Y43156D2*
X23873D1*
Y41581D1*
X17311D1*
Y43156D1*
Y41581D2*
X23873D1*
Y40006D1*
X17311D1*
Y41581D1*
Y40006D2*
X23873D1*
Y38431D1*
X17311D1*
Y40006D1*
X11456Y12631D2*
D120*
X11441Y12659D1*
X11412Y12688D1*
X11384Y12703D1*
X11327D1*
X11298Y12688D1*
X11269Y12659D1*
X11255Y12631D1*
X11240Y12588D1*
Y12516D1*
X11255Y12473D1*
X11269Y12444D1*
X11298Y12416D1*
X11327Y12401D1*
X11384D1*
X11412Y12416D1*
X11441Y12444D1*
X11456Y12473D1*
X11548Y12645D2*
X11577Y12659D1*
X11620Y12702D1*
Y12401D1*
X11799Y12702D2*
X11756Y12688D1*
X11727Y12645D1*
X11713Y12573D1*
Y12530D1*
X11727Y12458D1*
X11756Y12415D1*
X11799Y12401D1*
X11827D1*
X11871Y12415D1*
X11899Y12458D1*
X11914Y12530D1*
Y12573D1*
X11899Y12645D1*
X11871Y12688D1*
X11827Y12702D1*
X11799D1*
X11899Y12645D2*
X11727Y12458D1*
X12006Y12645D2*
X12035Y12659D1*
X12078Y12702D1*
Y12401D1*
X11382Y13451D2*
X11367Y13479D1*
X11339Y13508D1*
X11310Y13523D1*
X11253D1*
X11224Y13508D1*
X11195Y13479D1*
X11181Y13451D1*
X11166Y13408D1*
Y13336D1*
X11181Y13293D1*
X11195Y13264D1*
X11224Y13236D1*
X11253Y13221D1*
X11310D1*
X11339Y13236D1*
X11367Y13264D1*
X11382Y13293D1*
X11474Y13465D2*
X11503Y13479D1*
X11546Y13522D1*
Y13221D1*
X11725Y13522D2*
X11682Y13508D1*
X11653Y13465D1*
X11639Y13393D1*
Y13350D1*
X11653Y13278D1*
X11682Y13235D1*
X11725Y13221D1*
X11754D1*
X11797Y13235D1*
X11825Y13278D1*
X11840Y13350D1*
Y13393D1*
X11825Y13465D1*
X11797Y13508D1*
X11754Y13522D1*
X11725D1*
X11825Y13465D2*
X11653Y13278D1*
X11947Y13451D2*
Y13465D1*
X11961Y13494D1*
X11976Y13508D1*
X12005Y13522D1*
X12062D1*
X12090Y13508D1*
X12105Y13494D1*
X12119Y13465D1*
Y13436D1*
X12105Y13407D1*
X12076Y13365D1*
X11933Y13221D1*
X12134D1*
X7712Y10749D2*
X7684Y10735D1*
X7655Y10706D1*
X7640Y10677D1*
Y10620D1*
X7655Y10591D1*
X7684Y10563D1*
X7712Y10548D1*
X7755Y10534D1*
X7827D1*
X7870Y10548D1*
X7899Y10563D1*
X7927Y10591D1*
X7942Y10620D1*
Y10677D1*
X7927Y10706D1*
X7899Y10735D1*
X7870Y10749D1*
X7698Y10842D2*
X7684Y10870D1*
X7641Y10913D1*
X7942D1*
X7641Y11092D2*
X7655Y11049D1*
X7698Y11020D1*
X7770Y11006D1*
X7813D1*
X7885Y11020D1*
X7928Y11049D1*
X7942Y11092D1*
Y11121D1*
X7928Y11164D1*
X7885Y11192D1*
X7813Y11207D1*
X7770D1*
X7698Y11192D1*
X7655Y11164D1*
X7641Y11121D1*
Y11092D1*
X7698Y11192D2*
X7885Y11020D1*
X7641Y11329D2*
Y11486D1*
X7756Y11400D1*
Y11443D1*
X7770Y11472D1*
X7784Y11486D1*
X7827Y11501D1*
X7856D1*
X7899Y11486D1*
X7928Y11458D1*
X7942Y11414D1*
Y11371D1*
X7928Y11329D1*
X7913Y11314D1*
X7885Y11300D1*
X9208Y3663D2*
X9194Y3692D1*
X9165Y3721D1*
X9137Y3735D1*
X9079D1*
X9050Y3721D1*
X9022Y3692D1*
X9007Y3663D1*
X8993Y3620D1*
Y3548D1*
X9007Y3505D1*
X9022Y3477D1*
X9050Y3448D1*
X9079Y3433D1*
X9137D1*
X9165Y3448D1*
X9194Y3477D1*
X9208Y3505D1*
X9301Y3677D2*
X9330Y3692D1*
X9373Y3735D1*
Y3433D1*
X9552Y3735D2*
X9509Y3720D1*
X9480Y3677D1*
X9465Y3606D1*
Y3562D1*
X9480Y3491D1*
X9509Y3448D1*
X9552Y3433D1*
X9580D1*
X9623Y3448D1*
X9652Y3491D1*
X9666Y3562D1*
Y3606D1*
X9652Y3677D1*
X9623Y3720D1*
X9580Y3735D1*
X9552D1*
X9652Y3677D2*
X9480Y3491D1*
X9903Y3433D2*
Y3735D1*
X9759Y3534D1*
X9974D1*
X12220Y10427D2*
X12206Y10455D1*
X12177Y10484D1*
X12149Y10498D1*
X12091D1*
X12063Y10484D1*
X12034Y10455D1*
X12019Y10427D1*
X12005Y10384D1*
Y10312D1*
X12019Y10269D1*
X12034Y10240D1*
X12063Y10212D1*
X12091Y10197D1*
X12149D1*
X12177Y10212D1*
X12206Y10240D1*
X12220Y10269D1*
X12313Y10441D2*
X12342Y10455D1*
X12385Y10498D1*
Y10197D1*
X12564Y10498D2*
X12521Y10484D1*
X12492Y10441D1*
X12478Y10369D1*
Y10326D1*
X12492Y10254D1*
X12521Y10211D1*
X12564Y10197D1*
X12592D1*
X12636Y10211D1*
X12664Y10254D1*
X12679Y10326D1*
Y10369D1*
X12664Y10441D1*
X12636Y10484D1*
X12592Y10498D1*
X12564D1*
X12664Y10441D2*
X12492Y10254D1*
X12943Y10498D2*
X12800D1*
X12786Y10369D1*
X12800Y10383D1*
X12843Y10398D1*
X12886D1*
X12929Y10383D1*
X12958Y10355D1*
X12972Y10312D1*
Y10283D1*
X12958Y10240D1*
X12929Y10211D1*
X12886Y10197D1*
X12843D1*
X12800Y10211D1*
X12786Y10226D1*
X12771Y10254D1*
X12249Y7468D2*
X12221Y7453D1*
X12192Y7425D1*
X12178Y7396D1*
Y7339D1*
X12192Y7310D1*
X12221Y7281D1*
X12249Y7267D1*
X12292Y7252D1*
X12364D1*
X12407Y7267D1*
X12436Y7281D1*
X12465Y7310D1*
X12479Y7339D1*
Y7396D1*
X12465Y7425D1*
X12436Y7453D1*
X12407Y7468D1*
X12235Y7560D2*
X12221Y7589D1*
X12178Y7632D1*
X12479D1*
X12178Y7811D2*
X12192Y7768D1*
X12235Y7739D1*
X12307Y7725D1*
X12350D1*
X12422Y7739D1*
X12465Y7768D1*
X12479Y7811D1*
Y7840D1*
X12465Y7883D1*
X12422Y7911D1*
X12350Y7926D1*
X12307D1*
X12235Y7911D1*
X12192Y7883D1*
X12178Y7840D1*
Y7811D1*
X12235Y7911D2*
X12422Y7739D1*
X12221Y8191D2*
X12192Y8176D1*
X12178Y8133D1*
Y8105D1*
X12192Y8062D1*
X12235Y8033D1*
X12307Y8019D1*
X12379D1*
X12436Y8033D1*
X12465Y8062D1*
X12479Y8105D1*
Y8119D1*
X12465Y8162D1*
X12436Y8191D1*
X12393Y8205D1*
X12379D1*
X12336Y8191D1*
X12307Y8162D1*
X12293Y8119D1*
Y8105D1*
X12307Y8062D1*
X12336Y8033D1*
X12379Y8019D1*
X13046Y6293D2*
X13031Y6322D1*
X13003Y6350D1*
X12974Y6365D1*
X12917D1*
X12888Y6350D1*
X12859Y6322D1*
X12845Y6293D1*
X12830Y6250D1*
Y6178D1*
X12845Y6135D1*
X12859Y6106D1*
X12888Y6078D1*
X12917Y6063D1*
X12974D1*
X13003Y6078D1*
X13031Y6106D1*
X13046Y6135D1*
X13138Y6307D2*
X13167Y6322D1*
X13210Y6364D1*
Y6063D1*
X13389Y6364D2*
X13346Y6350D1*
X13317Y6307D1*
X13303Y6235D1*
Y6192D1*
X13317Y6121D1*
X13346Y6077D1*
X13389Y6063D1*
X13418D1*
X13461Y6077D1*
X13489Y6121D1*
X13504Y6192D1*
Y6235D1*
X13489Y6307D1*
X13461Y6350D1*
X13418Y6364D1*
X13389D1*
X13489Y6307D2*
X13317Y6121D1*
X13654Y6063D2*
X13797Y6364D1*
X13596D1*
X14034Y14985D2*
X14005Y14971D1*
X13976Y14942D1*
X13962Y14913D1*
Y14856D1*
X13976Y14827D1*
X14005Y14799D1*
X14034Y14784D1*
X14077Y14770D1*
X14149D1*
X14192Y14784D1*
X14221Y14799D1*
X14249Y14827D1*
X14264Y14856D1*
Y14913D1*
X14249Y14942D1*
X14221Y14971D1*
X14192Y14985D1*
X14020Y15078D2*
X14005Y15106D1*
X13963Y15149D1*
X14264D1*
X13963Y15328D2*
X13977Y15285D1*
X14020Y15256D1*
X14092Y15242D1*
X14135D1*
X14206Y15256D1*
X14249Y15285D1*
X14264Y15328D1*
Y15357D1*
X14249Y15400D1*
X14206Y15428D1*
X14135Y15443D1*
X14092D1*
X14020Y15428D1*
X13977Y15400D1*
X13963Y15357D1*
Y15328D1*
X14020Y15428D2*
X14206Y15256D1*
X13963Y15607D2*
X13977Y15565D1*
X14005Y15550D1*
X14034D1*
X14063Y15565D1*
X14077Y15593D1*
X14092Y15650D1*
X14106Y15694D1*
X14135Y15722D1*
X14163Y15736D1*
X14206D1*
X14235Y15722D1*
X14249Y15708D1*
X14264Y15665D1*
Y15607D1*
X14249Y15565D1*
X14235Y15550D1*
X14206Y15536D1*
X14163D1*
X14135Y15550D1*
X14106Y15579D1*
X14092Y15622D1*
X14077Y15679D1*
X14063Y15708D1*
X14034Y15722D1*
X14005D1*
X13977Y15708D1*
X13963Y15665D1*
Y15607D1*
X16875Y7405D2*
X16846Y7391D1*
X16817Y7362D1*
X16803Y7333D1*
Y7276D1*
X16817Y7247D1*
X16846Y7219D1*
X16875Y7204D1*
X16918Y7190D1*
X16990D1*
X17033Y7204D1*
X17061Y7219D1*
X17090Y7247D1*
X17105Y7276D1*
Y7333D1*
X17090Y7362D1*
X17061Y7391D1*
X17033Y7405D1*
X16861Y7498D2*
X16846Y7527D1*
X16803Y7570D1*
X17105D1*
X16803Y7748D2*
X16818Y7705D1*
X16861Y7677D1*
X16932Y7662D1*
X16976D1*
X17047Y7677D1*
X17090Y7705D1*
X17105Y7748D1*
Y7777D1*
X17090Y7820D1*
X17047Y7849D1*
X16976Y7863D1*
X16932D1*
X16861Y7849D1*
X16818Y7820D1*
X16803Y7777D1*
Y7748D1*
X16861Y7849D2*
X17047Y7677D1*
X16904Y8143D2*
X16947Y8128D1*
X16976Y8099D1*
X16990Y8056D1*
Y8042D1*
X16976Y7999D1*
X16947Y7970D1*
X16904Y7956D1*
X16889D1*
X16846Y7970D1*
X16818Y7999D1*
X16803Y8042D1*
Y8056D1*
X16818Y8099D1*
X16846Y8128D1*
X16904Y8143D1*
X16976D1*
X17047Y8128D1*
X17090Y8099D1*
X17105Y8056D1*
Y8028D1*
X17090Y7985D1*
X17061Y7970D1*
X15096Y14987D2*
X15068Y14972D1*
X15039Y14944D1*
X15025Y14915D1*
Y14858D1*
X15039Y14829D1*
X15068Y14800D1*
X15096Y14786D1*
X15140Y14771D1*
X15211D1*
X15254Y14786D1*
X15283Y14800D1*
X15312Y14829D1*
X15326Y14858D1*
Y14915D1*
X15312Y14944D1*
X15283Y14972D1*
X15254Y14987D1*
X15082Y15079D2*
X15068Y15108D1*
X15025Y15151D1*
X15326D1*
X15082Y15244D2*
X15068Y15273D1*
X15025Y15316D1*
X15326D1*
X15025Y15495D2*
X15039Y15452D1*
X15082Y15423D1*
X15154Y15409D1*
X15197D1*
X15269Y15423D1*
X15312Y15452D1*
X15326Y15495D1*
Y15523D1*
X15312Y15566D1*
X15269Y15595D1*
X15197Y15609D1*
X15154D1*
X15082Y15595D1*
X15039Y15566D1*
X15025Y15523D1*
Y15495D1*
X15082Y15595D2*
X15269Y15423D1*
X15800Y6356D2*
X15786Y6384D1*
X15757Y6413D1*
X15728Y6427D1*
X15671D1*
X15642Y6413D1*
X15614Y6384D1*
X15599Y6356D1*
X15585Y6312D1*
Y6240D1*
X15599Y6198D1*
X15614Y6169D1*
X15642Y6140D1*
X15671Y6126D1*
X15728D1*
X15757Y6140D1*
X15786Y6169D1*
X15800Y6198D1*
X15893Y6369D2*
X15921Y6384D1*
X15964Y6427D1*
Y6126D1*
X16057Y6369D2*
X16086Y6384D1*
X16129Y6427D1*
Y6126D1*
X16222Y6369D2*
X16251Y6384D1*
X16294Y6427D1*
Y6126D1*
X16467Y10427D2*
X16453Y10455D1*
X16424Y10484D1*
X16395Y10498D1*
X16338D1*
X16309Y10484D1*
X16281Y10455D1*
X16266Y10427D1*
X16252Y10384D1*
Y10312D1*
X16266Y10269D1*
X16281Y10240D1*
X16309Y10212D1*
X16338Y10197D1*
X16395D1*
X16424Y10212D1*
X16453Y10240D1*
X16467Y10269D1*
X16560Y10441D2*
X16588Y10455D1*
X16632Y10498D1*
Y10197D1*
X16724Y10441D2*
X16753Y10455D1*
X16796Y10498D1*
Y10197D1*
X16903Y10426D2*
Y10441D1*
X16918Y10470D1*
X16932Y10484D1*
X16961Y10498D1*
X17018D1*
X17047Y10484D1*
X17061Y10470D1*
X17075Y10441D1*
Y10412D1*
X17061Y10383D1*
X17032Y10341D1*
X16889Y10197D1*
X17090D1*
X18503Y4163D2*
X18489Y4192D1*
X18460Y4221D1*
X18431Y4235D1*
X18374D1*
X18345Y4221D1*
X18317Y4192D1*
X18302Y4163D1*
X18288Y4120D1*
Y4048D1*
X18302Y4006D1*
X18317Y3977D1*
X18345Y3948D1*
X18374Y3934D1*
X18431D1*
X18460Y3948D1*
X18489Y3977D1*
X18503Y4006D1*
X18596Y4177D2*
X18625Y4192D1*
X18668Y4235D1*
Y3934D1*
X18760Y4177D2*
X18789Y4192D1*
X18832Y4235D1*
Y3934D1*
X18954Y4235D2*
X19111D1*
X19025Y4120D1*
X19068D1*
X19097Y4106D1*
X19111Y4091D1*
X19126Y4048D1*
Y4020D1*
X19111Y3977D1*
X19083Y3948D1*
X19040Y3934D1*
X18996D1*
X18954Y3948D1*
X18939Y3962D1*
X18925Y3991D1*
X18464Y14488D2*
X18436Y14473D1*
X18407Y14444D1*
X18393Y14416D1*
Y14359D1*
X18407Y14330D1*
X18436Y14301D1*
X18464Y14287D1*
X18507Y14272D1*
X18579D1*
X18622Y14287D1*
X18651Y14301D1*
X18680Y14330D1*
X18694Y14359D1*
Y14416D1*
X18680Y14444D1*
X18651Y14473D1*
X18622Y14488D1*
X18450Y14580D2*
X18436Y14609D1*
X18393Y14652D1*
X18694D1*
X18450Y14745D2*
X18436Y14774D1*
X18393Y14817D1*
X18694D1*
Y15053D2*
X18393D1*
X18594Y14909D1*
Y15125D1*
X19215Y14433D2*
X19187Y14419D1*
X19158Y14390D1*
X19144Y14362D1*
Y14304D1*
X19158Y14275D1*
X19187Y14247D1*
X19215Y14232D1*
X19259Y14218D1*
X19331D1*
X19373Y14232D1*
X19402Y14247D1*
X19431Y14275D1*
X19445Y14304D1*
Y14362D1*
X19431Y14390D1*
X19402Y14419D1*
X19373Y14433D1*
X19202Y14526D2*
X19187Y14555D1*
X19144Y14598D1*
X19445D1*
X19202Y14690D2*
X19187Y14719D1*
X19144Y14762D1*
X19445D1*
X19144Y15027D2*
Y14884D1*
X19273Y14870D1*
X19259Y14884D1*
X19244Y14927D1*
Y14970D1*
X19259Y15013D1*
X19287Y15042D1*
X19331Y15056D1*
X19359D1*
X19402Y15042D1*
X19431Y15013D1*
X19445Y14970D1*
Y14927D1*
X19431Y14884D1*
X19416Y14870D1*
X19388Y14855D1*
X19462Y12883D2*
X19433Y12869D1*
X19405Y12840D1*
X19390Y12812D1*
Y12754D1*
X19405Y12725D1*
X19433Y12697D1*
X19462Y12682D1*
X19505Y12668D1*
X19577D1*
X19620Y12682D1*
X19649Y12697D1*
X19677Y12725D1*
X19692Y12754D1*
Y12812D1*
X19677Y12840D1*
X19649Y12869D1*
X19620Y12883D1*
X19448Y12976D2*
X19433Y13005D1*
X19391Y13048D1*
X19692D1*
X19448Y13141D2*
X19433Y13169D1*
X19391Y13213D1*
X19692D1*
X19433Y13477D2*
X19405Y13463D1*
X19391Y13420D1*
Y13391D1*
X19405Y13348D1*
X19448Y13319D1*
X19520Y13305D1*
X19591D1*
X19649Y13319D1*
X19678Y13348D1*
X19692Y13391D1*
Y13406D1*
X19678Y13448D1*
X19649Y13477D1*
X19606Y13492D1*
X19591D1*
X19548Y13477D1*
X19520Y13448D1*
X19505Y13406D1*
Y13391D1*
X19520Y13348D1*
X19548Y13319D1*
X19591Y13305D1*
X14645Y5290D2*
X14631Y5319D1*
X14602Y5348D1*
X14573Y5362D1*
X14516D1*
X14487Y5348D1*
X14459Y5319D1*
X14444Y5290D1*
X14430Y5247D1*
Y5175D1*
X14444Y5133D1*
X14459Y5104D1*
X14487Y5075D1*
X14516Y5061D1*
X14573D1*
X14602Y5075D1*
X14631Y5104D1*
X14645Y5133D1*
X14738Y5304D2*
X14767Y5319D1*
X14810Y5362D1*
Y5061D1*
X14902Y5304D2*
X14931Y5319D1*
X14974Y5362D1*
Y5061D1*
X15124D2*
X15268Y5362D1*
X15067D1*
X14583Y4526D2*
X14568Y4555D1*
X14540Y4583D1*
X14511Y4598D1*
X14454D1*
X14425Y4583D1*
X14396Y4555D1*
X14382Y4526D1*
X14368Y4483D1*
Y4411D1*
X14382Y4368D1*
X14396Y4339D1*
X14425Y4311D1*
X14454Y4296D1*
X14511D1*
X14540Y4311D1*
X14568Y4339D1*
X14583Y4368D1*
X14675Y4540D2*
X14704Y4555D1*
X14747Y4597D1*
Y4296D1*
X14840Y4540D2*
X14869Y4555D1*
X14912Y4597D1*
Y4296D1*
X15076Y4597D2*
X15033Y4583D1*
X15019Y4555D1*
Y4526D1*
X15033Y4497D1*
X15062Y4483D1*
X15119Y4468D1*
X15162Y4454D1*
X15191Y4425D1*
X15205Y4397D1*
Y4354D1*
X15191Y4325D1*
X15177Y4311D1*
X15134Y4296D1*
X15076D1*
X15033Y4311D1*
X15019Y4325D1*
X15005Y4354D1*
Y4397D1*
X15019Y4425D1*
X15048Y4454D1*
X15090Y4468D1*
X15148Y4483D1*
X15177Y4497D1*
X15191Y4526D1*
Y4555D1*
X15177Y4583D1*
X15134Y4597D1*
X15076D1*
X46685Y7441D2*
X46657Y7427D1*
X46628Y7398D1*
X46614Y7370D1*
Y7312D1*
X46628Y7284D1*
X46657Y7255D1*
X46685Y7240D1*
X46729Y7226D1*
X46801D1*
X46843Y7240D1*
X46872Y7255D1*
X46901Y7284D1*
X46915Y7312D1*
Y7370D1*
X46901Y7398D1*
X46872Y7427D1*
X46843Y7441D1*
X46686Y7549D2*
X46672D1*
X46643Y7563D1*
X46628Y7577D1*
X46614Y7606D1*
Y7663D1*
X46628Y7692D1*
X46643Y7706D1*
X46672Y7721D1*
X46700D1*
X46729Y7706D1*
X46772Y7678D1*
X46915Y7534D1*
Y7735D1*
X46614Y7914D2*
X46628Y7871D1*
X46672Y7842D1*
X46743Y7828D1*
X46786D1*
X46858Y7842D1*
X46901Y7871D1*
X46915Y7914D1*
Y7942D1*
X46901Y7985D1*
X46858Y8014D1*
X46786Y8029D1*
X46743D1*
X46672Y8014D1*
X46628Y7985D1*
X46614Y7942D1*
Y7914D1*
X46672Y8014D2*
X46858Y7842D1*
X46672Y8121D2*
X46657Y8150D1*
X46614Y8193D1*
X46915D1*
X53462Y5962D2*
X53433Y5948D1*
X53405Y5919D1*
X53390Y5891D1*
Y5833D1*
X53405Y5805D1*
X53433Y5776D1*
X53462Y5761D1*
X53505Y5747D1*
X53577D1*
X53620Y5761D1*
X53649Y5776D1*
X53677Y5805D1*
X53692Y5833D1*
Y5891D1*
X53677Y5919D1*
X53649Y5948D1*
X53620Y5962D1*
X53462Y6070D2*
X53448D1*
X53419Y6084D1*
X53405Y6098D1*
X53391Y6127D1*
Y6184D1*
X53405Y6213D1*
X53419Y6227D1*
X53448Y6242D1*
X53477D1*
X53505Y6227D1*
X53548Y6199D1*
X53692Y6055D1*
Y6256D1*
X53391Y6435D2*
X53405Y6392D1*
X53448Y6363D1*
X53520Y6349D1*
X53563D1*
X53634Y6363D1*
X53678Y6392D1*
X53692Y6435D1*
Y6463D1*
X53678Y6506D1*
X53634Y6535D1*
X53563Y6550D1*
X53520D1*
X53448Y6535D1*
X53405Y6506D1*
X53391Y6463D1*
Y6435D1*
X53448Y6535D2*
X53634Y6363D1*
X53462Y6657D2*
X53448D1*
X53419Y6671D1*
X53405Y6685D1*
X53391Y6714D1*
Y6772D1*
X53405Y6800D1*
X53419Y6814D1*
X53448Y6829D1*
X53477D1*
X53505Y6814D1*
X53548Y6786D1*
X53692Y6642D1*
Y6843D1*
X47373Y15020D2*
X47344Y15006D1*
X47316Y14977D1*
X47301Y14948D1*
Y14891D1*
X47316Y14862D1*
X47344Y14834D1*
X47373Y14819D1*
X47416Y14805D1*
X47488D1*
X47531Y14819D1*
X47560Y14834D1*
X47588Y14862D1*
X47603Y14891D1*
Y14948D1*
X47588Y14977D1*
X47560Y15006D1*
X47531Y15020D1*
X47373Y15127D2*
X47359D1*
X47330Y15142D1*
X47316Y15156D1*
X47302Y15185D1*
Y15242D1*
X47316Y15271D1*
X47330Y15285D1*
X47359Y15299D1*
X47388D1*
X47416Y15285D1*
X47459Y15256D1*
X47603Y15113D1*
Y15314D1*
X47302Y15493D2*
X47316Y15449D1*
X47359Y15421D1*
X47431Y15406D1*
X47474D1*
X47545Y15421D1*
X47588Y15449D1*
X47603Y15493D1*
Y15521D1*
X47588Y15564D1*
X47545Y15593D1*
X47474Y15607D1*
X47431D1*
X47359Y15593D1*
X47316Y15564D1*
X47302Y15521D1*
Y15493D1*
X47359Y15593D2*
X47545Y15421D1*
X47302Y15729D2*
Y15886D1*
X47416Y15800D1*
Y15843D1*
X47431Y15872D1*
X47445Y15886D1*
X47488Y15901D1*
X47517D1*
X47560Y15886D1*
X47588Y15858D1*
X47603Y15815D1*
Y15772D1*
X47588Y15729D1*
X47574Y15714D1*
X47545Y15700D1*
X51685Y7432D2*
X51657Y7418D1*
X51628Y7389D1*
X51614Y7361D1*
Y7303D1*
X51628Y7274D1*
X51657Y7246D1*
X51685Y7231D1*
X51729Y7217D1*
X51801D1*
X51843Y7231D1*
X51872Y7246D1*
X51901Y7274D1*
X51915Y7303D1*
Y7361D1*
X51901Y7389D1*
X51872Y7418D1*
X51843Y7432D1*
X51686Y7539D2*
X51672D1*
X51643Y7554D1*
X51628Y7568D1*
X51614Y7597D1*
Y7654D1*
X51628Y7683D1*
X51643Y7697D1*
X51672Y7712D1*
X51700D1*
X51729Y7697D1*
X51772Y7668D1*
X51915Y7525D1*
Y7726D1*
X51614Y7905D2*
X51628Y7862D1*
X51672Y7833D1*
X51743Y7818D1*
X51786D1*
X51858Y7833D1*
X51901Y7862D1*
X51915Y7905D1*
Y7933D1*
X51901Y7976D1*
X51858Y8005D1*
X51786Y8019D1*
X51743D1*
X51672Y8005D1*
X51628Y7976D1*
X51614Y7933D1*
Y7905D1*
X51672Y8005D2*
X51858Y7833D1*
X51915Y8256D2*
X51614D1*
X51815Y8112D1*
Y8327D1*
X50935Y15020D2*
X50907Y15006D1*
X50878Y14977D1*
X50864Y14948D1*
Y14891D1*
X50878Y14862D1*
X50907Y14834D1*
X50935Y14819D1*
X50979Y14805D1*
X51051D1*
X51093Y14819D1*
X51122Y14834D1*
X51151Y14862D1*
X51165Y14891D1*
Y14948D1*
X51151Y14977D1*
X51122Y15006D1*
X51093Y15020D1*
X50936Y15127D2*
X50922D1*
X50893Y15142D1*
X50878Y15156D1*
X50864Y15185D1*
Y15242D1*
X50878Y15271D1*
X50893Y15285D1*
X50922Y15299D1*
X50950D1*
X50979Y15285D1*
X51022Y15256D1*
X51165Y15113D1*
Y15314D1*
X50864Y15493D2*
X50878Y15449D1*
X50922Y15421D1*
X50993Y15406D1*
X51036D1*
X51108Y15421D1*
X51151Y15449D1*
X51165Y15493D1*
Y15521D1*
X51151Y15564D1*
X51108Y15593D1*
X51036Y15607D1*
X50993D1*
X50922Y15593D1*
X50878Y15564D1*
X50864Y15521D1*
Y15493D1*
X50922Y15593D2*
X51108Y15421D1*
X50864Y15872D2*
Y15729D1*
X50993Y15714D1*
X50979Y15729D1*
X50964Y15772D1*
Y15815D1*
X50979Y15858D1*
X51007Y15887D1*
X51051Y15901D1*
X51079D1*
X51122Y15887D1*
X51151Y15858D1*
X51165Y15815D1*
Y15772D1*
X51151Y15729D1*
X51136Y15714D1*
X51108Y15700D1*
X48712Y8657D2*
X48683Y8643D1*
X48655Y8614D1*
X48640Y8586D1*
Y8528D1*
X48655Y8499D1*
X48683Y8471D1*
X48712Y8456D1*
X48755Y8442D1*
X48827D1*
X48870Y8456D1*
X48899Y8471D1*
X48927Y8499D1*
X48942Y8528D1*
Y8586D1*
X48927Y8614D1*
X48899Y8643D1*
X48870Y8657D1*
X48712Y8764D2*
X48698D1*
X48669Y8779D1*
X48655Y8793D1*
X48641Y8822D1*
Y8879D1*
X48655Y8908D1*
X48669Y8922D1*
X48698Y8937D1*
X48727D1*
X48755Y8922D1*
X48798Y8893D1*
X48942Y8750D1*
Y8951D1*
X48641Y9130D2*
X48655Y9087D1*
X48698Y9058D1*
X48770Y9043D1*
X48813D1*
X48884Y9058D1*
X48928Y9087D1*
X48942Y9130D1*
Y9158D1*
X48928Y9201D1*
X48884Y9230D1*
X48813Y9244D1*
X48770D1*
X48698Y9230D1*
X48655Y9201D1*
X48641Y9158D1*
Y9130D1*
X48698Y9230D2*
X48884Y9058D1*
X48683Y9509D2*
X48655Y9495D1*
X48641Y9452D1*
Y9423D1*
X48655Y9380D1*
X48698Y9351D1*
X48770Y9337D1*
X48841D1*
X48899Y9351D1*
X48928Y9380D1*
X48942Y9423D1*
Y9437D1*
X48928Y9480D1*
X48899Y9509D1*
X48856Y9523D1*
X48841D1*
X48798Y9509D1*
X48770Y9480D1*
X48755Y9437D1*
Y9423D1*
X48770Y9380D1*
X48798Y9351D1*
X48841Y9337D1*
X50462Y4150D2*
X50433Y4136D1*
X50405Y4107D1*
X50390Y4078D1*
Y4021D1*
X50405Y3992D1*
X50433Y3964D1*
X50462Y3949D1*
X50505Y3935D1*
X50577D1*
X50620Y3949D1*
X50649Y3964D1*
X50677Y3992D1*
X50692Y4021D1*
Y4078D1*
X50677Y4107D1*
X50649Y4136D1*
X50620Y4150D1*
X50462Y4257D2*
X50448D1*
X50419Y4271D1*
X50405Y4286D1*
X50391Y4314D1*
Y4372D1*
X50405Y4400D1*
X50419Y4415D1*
X50448Y4429D1*
X50477D1*
X50505Y4415D1*
X50548Y4386D1*
X50692Y4243D1*
Y4443D1*
X50391Y4622D2*
X50405Y4579D1*
X50448Y4550D1*
X50520Y4536D1*
X50563D1*
X50634Y4550D1*
X50678Y4579D1*
X50692Y4622D1*
Y4651D1*
X50678Y4694D1*
X50634Y4722D1*
X50563Y4737D1*
X50520D1*
X50448Y4722D1*
X50405Y4694D1*
X50391Y4651D1*
Y4622D1*
X50448Y4722D2*
X50634Y4550D1*
X50692Y4887D2*
X50391Y5031D1*
Y4830D1*
X52149Y11935D2*
X52121Y11920D1*
X52092Y11892D1*
X52078Y11863D1*
Y11806D1*
X52092Y11777D1*
X52121Y11748D1*
X52149Y11734D1*
X52193Y11719D1*
X52265D1*
X52307Y11734D1*
X52336Y11748D1*
X52365Y11777D1*
X52379Y11806D1*
Y11863D1*
X52365Y11892D1*
X52336Y11920D1*
X52307Y11935D1*
X52150Y12042D2*
X52136D1*
X52107Y12056D1*
X52092Y12070D1*
X52078Y12099D1*
Y12157D1*
X52092Y12185D1*
X52107Y12199D1*
X52136Y12214D1*
X52164D1*
X52193Y12199D1*
X52236Y12171D1*
X52379Y12027D1*
Y12228D1*
X52078Y12407D2*
X52092Y12364D1*
X52136Y12335D1*
X52207Y12321D1*
X52250D1*
X52322Y12335D1*
X52365Y12364D1*
X52379Y12407D1*
Y12436D1*
X52365Y12479D1*
X52322Y12507D1*
X52250Y12522D1*
X52207D1*
X52136Y12507D1*
X52092Y12479D1*
X52078Y12436D1*
Y12407D1*
X52136Y12507D2*
X52322Y12335D1*
X52078Y12686D2*
X52092Y12643D1*
X52121Y12629D1*
X52150D1*
X52178Y12643D1*
X52193Y12672D1*
X52207Y12729D1*
X52221Y12772D1*
X52250Y12801D1*
X52279Y12815D1*
X52322D1*
X52350Y12801D1*
X52365Y12787D1*
X52379Y12744D1*
Y12686D1*
X52365Y12643D1*
X52350Y12629D1*
X52322Y12615D1*
X52279D1*
X52250Y12629D1*
X52221Y12658D1*
X52207Y12700D1*
X52193Y12758D1*
X52178Y12787D1*
X52150Y12801D1*
X52121D1*
X52092Y12787D1*
X52078Y12744D1*
Y12686D1*
X52149Y10504D2*
X52121Y10490D1*
X52092Y10461D1*
X52078Y10433D1*
Y10375D1*
X52092Y10346D1*
X52121Y10318D1*
X52149Y10303D1*
X52193Y10289D1*
X52265D1*
X52307Y10303D1*
X52336Y10318D1*
X52365Y10346D1*
X52379Y10375D1*
Y10433D1*
X52365Y10461D1*
X52336Y10490D1*
X52307Y10504D1*
X52150Y10611D2*
X52136D1*
X52107Y10626D1*
X52092Y10640D1*
X52078Y10669D1*
Y10726D1*
X52092Y10755D1*
X52107Y10769D1*
X52136Y10783D1*
X52164D1*
X52193Y10769D1*
X52236Y10740D1*
X52379Y10597D1*
Y10798D1*
X52078Y10977D2*
X52092Y10934D1*
X52136Y10905D1*
X52207Y10890D1*
X52250D1*
X52322Y10905D1*
X52365Y10934D1*
X52379Y10977D1*
Y11005D1*
X52365Y11048D1*
X52322Y11077D1*
X52250Y11091D1*
X52207D1*
X52136Y11077D1*
X52092Y11048D1*
X52078Y11005D1*
Y10977D1*
X52136Y11077D2*
X52322Y10905D1*
X52178Y11371D2*
X52221Y11356D1*
X52250Y11328D1*
X52265Y11284D1*
Y11270D1*
X52250Y11227D1*
X52221Y11199D1*
X52178Y11184D1*
X52164D1*
X52121Y11199D1*
X52092Y11227D1*
X52078Y11270D1*
Y11284D1*
X52092Y11328D1*
X52121Y11356D1*
X52178Y11371D1*
X52250D1*
X52322Y11356D1*
X52365Y11328D1*
X52379Y11284D1*
Y11256D1*
X52365Y11213D1*
X52336Y11199D1*
X46900Y12589D2*
X46871Y12575D1*
X46842Y12546D1*
X46828Y12518D1*
Y12460D1*
X46842Y12432D1*
X46871Y12403D1*
X46900Y12388D1*
X46943Y12374D1*
X47015D1*
X47057Y12388D1*
X47086Y12403D1*
X47115Y12432D1*
X47129Y12460D1*
Y12518D1*
X47115Y12546D1*
X47086Y12575D1*
X47057Y12589D1*
X46900Y12697D2*
X46886D1*
X46857Y12711D1*
X46842Y12725D1*
X46828Y12754D1*
Y12811D1*
X46842Y12840D1*
X46857Y12854D1*
X46886Y12869D1*
X46914D1*
X46943Y12854D1*
X46986Y12826D1*
X47129Y12682D1*
Y12883D1*
X46886Y12976D2*
X46871Y13004D1*
X46828Y13048D1*
X47129D1*
X46828Y13226D2*
X46842Y13183D1*
X46886Y13154D1*
X46957Y13140D1*
X47000D1*
X47072Y13154D1*
X47115Y13183D1*
X47129Y13226D1*
Y13255D1*
X47115Y13298D1*
X47072Y13327D1*
X47000Y13341D1*
X46957D1*
X46886Y13327D1*
X46842Y13298D1*
X46828Y13255D1*
Y13226D1*
X46886Y13327D2*
X47072Y13154D1*
X29650Y18402D2*
X29621Y18388D1*
X29592Y18359D1*
X29578Y18330D1*
Y18273D1*
X29592Y18244D1*
X29621Y18216D1*
X29650Y18201D1*
X29693Y18187D1*
X29765D1*
X29807Y18201D1*
X29836Y18216D1*
X29865Y18244D1*
X29879Y18273D1*
Y18330D1*
X29865Y18359D1*
X29836Y18388D1*
X29807Y18402D1*
X29578Y18524D2*
Y18681D1*
X29693Y18595D1*
Y18638D1*
X29707Y18667D1*
X29721Y18681D1*
X29765Y18696D1*
X29793D1*
X29836Y18681D1*
X29865Y18653D1*
X29879Y18609D1*
Y18566D1*
X29865Y18524D1*
X29850Y18509D1*
X29822Y18495D1*
X29578Y18874D2*
X29592Y18831D1*
X29636Y18803D1*
X29707Y18788D1*
X29750D1*
X29822Y18803D1*
X29865Y18831D1*
X29879Y18874D1*
Y18903D1*
X29865Y18946D1*
X29822Y18975D1*
X29750Y18989D1*
X29707D1*
X29636Y18975D1*
X29592Y18946D1*
X29578Y18903D1*
Y18874D1*
X29636Y18975D2*
X29822Y18803D1*
X29636Y19082D2*
X29621Y19111D1*
X29578Y19154D1*
X29879D1*
X31198Y10107D2*
X31184Y10135D1*
X31155Y10164D1*
X31127Y10178D1*
X31069D1*
X31040Y10164D1*
X31012Y10135D1*
X30997Y10107D1*
X30983Y10063D1*
Y9991D1*
X30997Y9949D1*
X31012Y9920D1*
X31040Y9891D1*
X31069Y9877D1*
X31127D1*
X31155Y9891D1*
X31184Y9920D1*
X31198Y9949D1*
X31320Y10178D2*
X31477D1*
X31391Y10063D1*
X31434D1*
X31463Y10049D1*
X31477Y10035D1*
X31492Y9991D1*
Y9963D1*
X31477Y9920D1*
X31449Y9891D1*
X31406Y9877D1*
X31362D1*
X31320Y9891D1*
X31305Y9906D1*
X31291Y9934D1*
X31671Y10178D2*
X31628Y10164D1*
X31599Y10120D1*
X31584Y10049D1*
Y10006D1*
X31599Y9934D1*
X31628Y9891D1*
X31671Y9877D1*
X31699D1*
X31742Y9891D1*
X31771Y9934D1*
X31785Y10006D1*
Y10049D1*
X31771Y10120D1*
X31742Y10164D1*
X31699Y10178D1*
X31671D1*
X31771Y10120D2*
X31599Y9934D1*
X31893Y10106D2*
Y10120D1*
X31907Y10149D1*
X31921Y10164D1*
X31950Y10178D1*
X32007D1*
X32036Y10164D1*
X32050Y10149D1*
X32065Y10120D1*
Y10092D1*
X32050Y10063D1*
X32022Y10020D1*
X31878Y9877D1*
X32079D1*
X29636Y10107D2*
X29621Y10135D1*
X29593Y10164D1*
X29564Y10178D1*
X29507D1*
X29478Y10164D1*
X29449Y10135D1*
X29435Y10107D1*
X29421Y10063D1*
Y9991D1*
X29435Y9949D1*
X29449Y9920D1*
X29478Y9891D1*
X29507Y9877D1*
X29564D1*
X29593Y9891D1*
X29621Y9920D1*
X29636Y9949D1*
X29757Y10178D2*
X29915D1*
X29829Y10063D1*
X29872D1*
X29900Y10049D1*
X29915Y10035D1*
X29929Y9991D1*
Y9963D1*
X29915Y9920D1*
X29886Y9891D1*
X29843Y9877D1*
X29800D1*
X29757Y9891D1*
X29743Y9906D1*
X29728Y9934D1*
X30108Y10178D2*
X30065Y10164D1*
X30036Y10120D1*
X30022Y10049D1*
Y10006D1*
X30036Y9934D1*
X30065Y9891D1*
X30108Y9877D1*
X30137D1*
X30180Y9891D1*
X30208Y9934D1*
X30223Y10006D1*
Y10049D1*
X30208Y10120D1*
X30180Y10164D1*
X30137Y10178D1*
X30108D1*
X30208Y10120D2*
X30036Y9934D1*
X30344Y10178D2*
X30502D1*
X30416Y10063D1*
X30459D1*
X30488Y10049D1*
X30502Y10035D1*
X30517Y9991D1*
Y9963D1*
X30502Y9920D1*
X30473Y9891D1*
X30430Y9877D1*
X30387D1*
X30344Y9891D1*
X30330Y9906D1*
X30316Y9934D1*
X34461Y7039D2*
X34447Y7067D1*
X34418Y7096D1*
X34389Y7110D1*
X34332D1*
X34303Y7096D1*
X34275Y7067D1*
X34260Y7039D1*
X34246Y6996D1*
Y6924D1*
X34260Y6881D1*
X34275Y6852D1*
X34303Y6823D1*
X34332Y6809D1*
X34389D1*
X34418Y6823D1*
X34447Y6852D1*
X34461Y6881D1*
X34697Y6809D2*
Y7110D1*
X34554Y6909D1*
X34769D1*
X34948Y7110D2*
X34904Y7096D1*
X34876Y7053D1*
X34861Y6981D1*
Y6938D1*
X34876Y6866D1*
X34904Y6823D1*
X34948Y6809D1*
X34976D1*
X35019Y6823D1*
X35048Y6866D1*
X35062Y6938D1*
Y6981D1*
X35048Y7053D1*
X35019Y7096D1*
X34976Y7110D1*
X34948D1*
X35048Y7053D2*
X34876Y6866D1*
X35155Y7053D2*
X35184Y7067D1*
X35227Y7110D1*
Y6809D1*
X34396Y6289D2*
X34382Y6317D1*
X34353Y6346D1*
X34325Y6360D1*
X34267D1*
X34239Y6346D1*
X34210Y6317D1*
X34195Y6289D1*
X34181Y6245D1*
Y6174D1*
X34195Y6131D1*
X34210Y6102D1*
X34239Y6073D1*
X34267Y6059D1*
X34325D1*
X34353Y6073D1*
X34382Y6102D1*
X34396Y6131D1*
X34633Y6059D2*
Y6360D1*
X34489Y6159D1*
X34704D1*
X34883Y6360D2*
X34840Y6346D1*
X34811Y6303D1*
X34797Y6231D1*
Y6188D1*
X34811Y6116D1*
X34840Y6073D1*
X34883Y6059D1*
X34912D1*
X34955Y6073D1*
X34983Y6116D1*
X34998Y6188D1*
Y6231D1*
X34983Y6303D1*
X34955Y6346D1*
X34912Y6360D1*
X34883D1*
X34983Y6303D2*
X34811Y6116D1*
X35105Y6288D2*
Y6303D1*
X35119Y6331D1*
X35134Y6346D1*
X35162Y6360D1*
X35220D1*
X35248Y6346D1*
X35263Y6331D1*
X35277Y6303D1*
Y6274D1*
X35263Y6245D1*
X35234Y6202D1*
X35090Y6059D1*
X35291D1*
X2763Y13442D2*
X2748Y13470D1*
X2720Y13499D1*
X2691Y13513D1*
X2634D1*
X2605Y13499D1*
X2576Y13470D1*
X2562Y13442D1*
X2547Y13398D1*
Y13326D1*
X2562Y13284D1*
X2576Y13255D1*
X2605Y13226D1*
X2634Y13212D1*
X2691D1*
X2720Y13226D1*
X2748Y13255D1*
X2763Y13284D1*
X3027Y13513D2*
X2884D1*
X2870Y13384D1*
X2884Y13398D1*
X2927Y13413D1*
X2970D1*
X3013Y13398D1*
X3042Y13370D1*
X3056Y13326D1*
Y13298D1*
X3042Y13255D1*
X3013Y13226D1*
X2970Y13212D1*
X2927D1*
X2884Y13226D1*
X2870Y13241D1*
X2855Y13269D1*
X3235Y13513D2*
X3192Y13499D1*
X3163Y13455D1*
X3149Y13384D1*
Y13341D1*
X3163Y13269D1*
X3192Y13226D1*
X3235Y13212D1*
X3264D1*
X3307Y13226D1*
X3335Y13269D1*
X3350Y13341D1*
Y13384D1*
X3335Y13455D1*
X3307Y13499D1*
X3264Y13513D1*
X3235D1*
X3335Y13455D2*
X3163Y13269D1*
X3443Y13455D2*
X3471Y13470D1*
X3515Y13513D1*
Y13212D1*
X34464Y4413D2*
X34450Y4441D1*
X34421Y4470D1*
X34393Y4484D1*
X34335D1*
X34307Y4470D1*
X34278Y4441D1*
X34263Y4413D1*
X34249Y4370D1*
Y4298D1*
X34263Y4255D1*
X34278Y4226D1*
X34307Y4198D1*
X34335Y4183D1*
X34393D1*
X34421Y4198D1*
X34450Y4226D1*
X34464Y4255D1*
X34729Y4484D2*
X34586D1*
X34572Y4355D1*
X34586Y4369D1*
X34629Y4384D1*
X34672D1*
X34715Y4369D1*
X34744Y4341D1*
X34758Y4298D1*
Y4269D1*
X34744Y4226D1*
X34715Y4197D1*
X34672Y4183D1*
X34629D1*
X34586Y4197D1*
X34572Y4212D1*
X34557Y4240D1*
X34937Y4484D2*
X34894Y4470D1*
X34865Y4427D1*
X34851Y4355D1*
Y4312D1*
X34865Y4240D1*
X34894Y4197D1*
X34937Y4183D1*
X34965D1*
X35008Y4197D1*
X35037Y4240D1*
X35052Y4312D1*
Y4355D1*
X35037Y4427D1*
X35008Y4470D1*
X34965Y4484D1*
X34937D1*
X35037Y4427D2*
X34865Y4240D1*
X35159Y4412D2*
Y4427D1*
X35173Y4456D1*
X35187Y4470D1*
X35216Y4484D1*
X35274D1*
X35302Y4470D1*
X35316Y4456D1*
X35331Y4427D1*
Y4398D1*
X35316Y4369D1*
X35288Y4327D1*
X35144Y4183D1*
X35345D1*
X8929Y13326D2*
Y13025D1*
X9029D1*
X9072Y13039D1*
X9101Y13068D1*
X9115Y13097D1*
X9130Y13139D1*
Y13211D1*
X9115Y13255D1*
X9101Y13283D1*
X9072Y13312D1*
X9029Y13326D1*
X8929D1*
X9222Y13268D2*
X9251Y13283D1*
X9294Y13326D1*
Y13025D1*
X9473Y13326D2*
X9430Y13312D1*
X9401Y13268D1*
X9387Y13197D1*
Y13154D1*
X9401Y13082D1*
X9430Y13039D1*
X9473Y13025D1*
X9502D1*
X9545Y13039D1*
X9573Y13082D1*
X9588Y13154D1*
Y13197D1*
X9573Y13268D1*
X9545Y13312D1*
X9502Y13326D1*
X9473D1*
X9573Y13268D2*
X9401Y13082D1*
X9680Y13268D2*
X9709Y13283D1*
X9752Y13326D1*
Y13025D1*
X7266Y14068D2*
Y13767D1*
X7366D1*
X7410Y13781D1*
X7438Y13810D1*
X7453Y13839D1*
X7467Y13881D1*
Y13953D1*
X7453Y13997D1*
X7438Y14025D1*
X7410Y14054D1*
X7366Y14068D1*
X7266D1*
X7560Y14010D2*
X7588Y14025D1*
X7632Y14068D1*
Y13767D1*
X7810Y14068D2*
X7767Y14054D1*
X7738Y14010D1*
X7724Y13939D1*
Y13896D1*
X7738Y13824D1*
X7767Y13781D1*
X7810Y13767D1*
X7839D1*
X7882Y13781D1*
X7911Y13824D1*
X7925Y13896D1*
Y13939D1*
X7911Y14010D1*
X7882Y14054D1*
X7839Y14068D1*
X7810D1*
X7911Y14010D2*
X7738Y13824D1*
X8032Y13996D2*
Y14010D1*
X8047Y14039D1*
X8061Y14054D1*
X8090Y14068D1*
X8147D1*
X8176Y14054D1*
X8190Y14039D1*
X8204Y14010D1*
Y13982D1*
X8190Y13953D1*
X8161Y13910D1*
X8018Y13767D1*
X8219D1*
X9454Y14006D2*
Y13704D1*
X9554D1*
X9597Y13719D1*
X9626Y13747D1*
X9640Y13776D1*
X9655Y13819D1*
Y13891D1*
X9640Y13934D1*
X9626Y13963D1*
X9597Y13992D1*
X9554Y14006D1*
X9454D1*
X9747Y13948D2*
X9776Y13963D1*
X9819Y14005D1*
Y13704D1*
X9998Y14005D2*
X9955Y13991D1*
X9926Y13948D1*
X9912Y13876D1*
Y13833D1*
X9926Y13762D1*
X9955Y13719D1*
X9998Y13704D1*
X10027D1*
X10070Y13719D1*
X10098Y13762D1*
X10113Y13833D1*
Y13876D1*
X10098Y13948D1*
X10070Y13991D1*
X10027Y14005D1*
X9998D1*
X10098Y13948D2*
X9926Y13762D1*
X10234Y14005D2*
X10392D1*
X10306Y13891D1*
X10349D1*
X10378Y13876D1*
X10392Y13862D1*
X10406Y13819D1*
Y13791D1*
X10392Y13747D1*
X10363Y13719D1*
X10320Y13704D1*
X10277D1*
X10234Y13719D1*
X10220Y13733D1*
X10206Y13762D1*
X17303Y12390D2*
Y12088D1*
X17403D1*
X17446Y12103D1*
X17475Y12132D1*
X17489Y12160D1*
X17504Y12203D1*
Y12275D1*
X17489Y12318D1*
X17475Y12347D1*
X17446Y12376D1*
X17403Y12390D1*
X17303D1*
X17596Y12332D2*
X17625Y12347D1*
X17668Y12390D1*
Y12088D1*
X17847Y12390D2*
X17804Y12375D1*
X17775Y12332D1*
X17761Y12261D1*
Y12217D1*
X17775Y12146D1*
X17804Y12103D1*
X17847Y12088D1*
X17876D1*
X17919Y12103D1*
X17947Y12146D1*
X17962Y12217D1*
Y12261D1*
X17947Y12332D1*
X17919Y12375D1*
X17876Y12390D1*
X17847D1*
X17947Y12332D2*
X17775Y12146D1*
X18198Y12088D2*
Y12390D1*
X18054Y12189D1*
X18270D1*
X27033Y6429D2*
X27335D1*
Y6529D1*
X27320Y6572D1*
X27291Y6601D1*
X27263Y6615D1*
X27220Y6630D1*
X27148D1*
X27105Y6615D1*
X27076Y6601D1*
X27047Y6572D1*
X27033Y6529D1*
Y6429D1*
X27335Y6866D2*
X27033D1*
X27234Y6722D1*
Y6937D1*
X27033Y7116D2*
X27048Y7073D1*
X27091Y7044D1*
X27162Y7030D1*
X27206D1*
X27277Y7044D1*
X27320Y7073D1*
X27335Y7116D1*
Y7145D1*
X27320Y7188D1*
X27277Y7216D1*
X27206Y7231D1*
X27162D1*
X27091Y7216D1*
X27048Y7188D1*
X27033Y7145D1*
Y7116D1*
X27091Y7216D2*
X27277Y7044D1*
X27091Y7324D2*
X27076Y7353D1*
X27033Y7396D1*
X27335D1*
X799Y11614D2*
X1100D1*
Y11715D1*
X1086Y11758D1*
X1057Y11787D1*
X1028Y11801D1*
X986Y11815D1*
X914D1*
X870Y11801D1*
X842Y11787D1*
X813Y11758D1*
X799Y11715D1*
Y11614D1*
Y12080D2*
Y11937D1*
X928Y11922D1*
X914Y11937D1*
X899Y11980D1*
Y12023D1*
X914Y12066D1*
X942Y12095D1*
X986Y12109D1*
X1014D1*
X1057Y12095D1*
X1086Y12066D1*
X1100Y12023D1*
Y11980D1*
X1086Y11937D1*
X1071Y11922D1*
X1043Y11908D1*
X799Y12288D2*
X813Y12245D1*
X857Y12216D1*
X928Y12201D1*
X971D1*
X1043Y12216D1*
X1086Y12245D1*
X1100Y12288D1*
Y12316D1*
X1086Y12359D1*
X1043Y12388D1*
X971Y12402D1*
X928D1*
X857Y12388D1*
X813Y12359D1*
X799Y12316D1*
Y12288D1*
X857Y12388D2*
X1043Y12216D1*
X857Y12495D2*
X842Y12524D1*
X799Y12567D1*
X1100D1*
X5111Y11362D2*
X5413D1*
Y11463D1*
X5398Y11506D1*
X5370Y11535D1*
X5341Y11549D1*
X5298Y11563D1*
X5226D1*
X5183Y11549D1*
X5154Y11535D1*
X5126Y11506D1*
X5111Y11463D1*
Y11362D1*
X5112Y11828D2*
Y11685D1*
X5241Y11670D1*
X5226Y11685D1*
X5212Y11728D1*
Y11771D1*
X5226Y11814D1*
X5255Y11843D1*
X5298Y11857D1*
X5327D1*
X5370Y11843D1*
X5399Y11814D1*
X5413Y11771D1*
Y11728D1*
X5399Y11685D1*
X5384Y11670D1*
X5355Y11656D1*
X5112Y12036D2*
X5126Y11993D1*
X5169Y11964D1*
X5241Y11949D1*
X5284D1*
X5355Y11964D1*
X5399Y11993D1*
X5413Y12036D1*
Y12064D1*
X5399Y12107D1*
X5355Y12136D1*
X5284Y12150D1*
X5241D1*
X5169Y12136D1*
X5126Y12107D1*
X5112Y12064D1*
Y12036D1*
X5169Y12136D2*
X5355Y11964D1*
X5183Y12258D2*
X5169D1*
X5140Y12272D1*
X5126Y12286D1*
X5112Y12315D1*
Y12372D1*
X5126Y12401D1*
X5140Y12415D1*
X5169Y12430D1*
X5198D1*
X5226Y12415D1*
X5269Y12387D1*
X5413Y12243D1*
Y12444D1*
X21409Y4275D2*
X21223D1*
Y3973D1*
Y4131D2*
X21337D1*
X21502Y4275D2*
Y3973D1*
X21631D1*
X21674Y3988D1*
X21689Y4002D1*
X21703Y4031D1*
Y4074D1*
X21689Y4103D1*
X21674Y4117D1*
X21631Y4131D1*
X21674Y4146D1*
X21689Y4160D1*
X21703Y4188D1*
Y4217D1*
X21689Y4246D1*
X21674Y4260D1*
X21631Y4275D1*
X21502D1*
Y4131D2*
X21631D1*
X21796Y4217D2*
X21825Y4232D1*
X21868Y4274D1*
Y3973D1*
X22046Y4274D2*
X22003Y4260D1*
X21975Y4217D1*
X21960Y4145D1*
Y4102D1*
X21975Y4031D1*
X22003Y3987D1*
X22046Y3973D1*
X22075D1*
X22118Y3987D1*
X22147Y4031D1*
X22161Y4102D1*
Y4145D1*
X22147Y4217D1*
X22118Y4260D1*
X22075Y4274D1*
X22046D1*
X22147Y4217D2*
X21975Y4031D1*
X22254Y4217D2*
X22283Y4232D1*
X22326Y4274D1*
Y3973D1*
X22299Y13761D2*
X22112D1*
Y13460D1*
Y13618D2*
X22227D1*
X22391Y13761D2*
Y13460D1*
X22520D1*
X22564Y13474D1*
X22578Y13489D1*
X22592Y13517D1*
Y13560D1*
X22578Y13589D1*
X22564Y13603D1*
X22520Y13618D1*
X22564Y13632D1*
X22578Y13646D1*
X22592Y13675D1*
Y13704D1*
X22578Y13732D1*
X22564Y13747D1*
X22520Y13761D1*
X22391D1*
Y13618D2*
X22520D1*
X22685Y13703D2*
X22714Y13718D1*
X22757Y13761D1*
Y13460D1*
X22936Y13761D2*
X22892Y13747D1*
X22864Y13703D1*
X22849Y13632D1*
Y13589D1*
X22864Y13517D1*
X22892Y13474D1*
X22936Y13460D1*
X22964D1*
X23007Y13474D1*
X23036Y13517D1*
X23050Y13589D1*
Y13632D1*
X23036Y13703D1*
X23007Y13747D1*
X22964Y13761D1*
X22936D1*
X23036Y13703D2*
X22864Y13517D1*
X23158Y13689D2*
Y13703D1*
X23172Y13732D1*
X23186Y13747D1*
X23215Y13761D1*
X23272D1*
X23301Y13747D1*
X23315Y13732D1*
X23330Y13703D1*
Y13675D1*
X23315Y13646D1*
X23287Y13603D1*
X23143Y13460D1*
X23344D1*
X53361Y4386D2*
X53174D1*
Y4085D1*
Y4243D2*
X53289D1*
X53454Y4386D2*
Y4085D1*
X53583D1*
X53626Y4099D1*
X53640Y4114D1*
X53655Y4142D1*
Y4185D1*
X53640Y4214D1*
X53626Y4228D1*
X53583Y4243D1*
X53626Y4257D1*
X53640Y4271D1*
X53655Y4300D1*
Y4329D1*
X53640Y4357D1*
X53626Y4372D1*
X53583Y4386D1*
X53454D1*
Y4243D2*
X53583D1*
X53762Y4314D2*
Y4329D1*
X53776Y4357D1*
X53790Y4372D1*
X53819Y4386D1*
X53877D1*
X53905Y4372D1*
X53919Y4357D1*
X53934Y4329D1*
Y4300D1*
X53919Y4271D1*
X53891Y4228D1*
X53747Y4085D1*
X53948D1*
X54127Y4386D2*
X54084Y4372D1*
X54055Y4329D1*
X54041Y4257D1*
Y4214D1*
X54055Y4142D1*
X54084Y4099D1*
X54127Y4085D1*
X54156D1*
X54199Y4099D1*
X54227Y4142D1*
X54242Y4214D1*
Y4257D1*
X54227Y4329D1*
X54199Y4372D1*
X54156Y4386D1*
X54127D1*
X54227Y4329D2*
X54055Y4142D1*
X54334Y4329D2*
X54363Y4343D1*
X54406Y4386D1*
Y4085D1*
X25218Y11449D2*
X25031D1*
Y11147D1*
Y11305D2*
X25146D1*
X25310Y11449D2*
Y11147D1*
X25440D1*
X25483Y11162D1*
X25497Y11176D1*
X25511Y11205D1*
Y11248D1*
X25497Y11277D1*
X25483Y11291D1*
X25440Y11305D1*
X25483Y11320D1*
X25497Y11334D1*
X25511Y11363D1*
Y11391D1*
X25497Y11420D1*
X25483Y11435D1*
X25440Y11449D1*
X25310D1*
Y11305D2*
X25440D1*
X25633Y11448D2*
X25790D1*
X25705Y11334D1*
X25748D1*
X25776Y11319D1*
X25790Y11305D1*
X25805Y11262D1*
Y11234D1*
X25790Y11190D1*
X25762Y11162D1*
X25719Y11147D1*
X25676D1*
X25633Y11162D1*
X25619Y11176D1*
X25604Y11205D1*
X25984Y11448D2*
X25941Y11434D1*
X25912Y11391D1*
X25898Y11319D1*
Y11276D1*
X25912Y11205D1*
X25941Y11162D1*
X25984Y11147D1*
X26012D1*
X26055Y11162D1*
X26084Y11205D1*
X26099Y11276D1*
Y11319D1*
X26084Y11391D1*
X26055Y11434D1*
X26012Y11448D1*
X25984D1*
X26084Y11391D2*
X25912Y11205D1*
X26191Y11391D2*
X26220Y11406D1*
X26263Y11448D1*
Y11147D1*
X14489Y18189D2*
X14303D1*
Y17888D1*
Y18046D2*
X14417D1*
X14582Y18189D2*
Y17888D1*
X14682D1*
X14725Y17902D1*
X14754Y17931D1*
X14769Y17960D1*
X14783Y18003D1*
Y18075D1*
X14769Y18118D1*
X14754Y18146D1*
X14725Y18175D1*
X14682Y18189D1*
X14582D1*
X14875Y18132D2*
X14904Y18146D1*
X14947Y18189D1*
Y17888D1*
X8300Y1939D2*
X8113D1*
Y1638D1*
Y1796D2*
X8228D1*
X8392Y1939D2*
Y1638D1*
X8493D1*
X8536Y1652D1*
X8565Y1681D1*
X8579Y1710D1*
X8593Y1753D1*
Y1825D1*
X8579Y1868D1*
X8565Y1896D1*
X8536Y1925D1*
X8493Y1939D1*
X8392D1*
X8701Y1867D2*
Y1882D1*
X8715Y1910D1*
X8729Y1925D1*
X8758Y1939D1*
X8815D1*
X8844Y1925D1*
X8858Y1910D1*
X8873Y1882D1*
Y1853D1*
X8858Y1824D1*
X8830Y1781D1*
X8686Y1638D1*
X8887D1*
X52300Y2689D2*
X52113D1*
Y2388D1*
Y2546D2*
X52228D1*
X52392Y2689D2*
Y2388D1*
X52493D1*
X52536Y2402D1*
X52565Y2431D1*
X52579Y2460D1*
X52593Y2503D1*
Y2575D1*
X52579Y2618D1*
X52565Y2646D1*
X52536Y2675D1*
X52493Y2689D1*
X52392D1*
X52715D2*
X52872D1*
X52786Y2574D1*
X52830D1*
X52858Y2560D1*
X52872Y2546D1*
X52887Y2503D1*
Y2474D1*
X52872Y2431D1*
X52844Y2402D1*
X52801Y2388D1*
X52758D1*
X52715Y2402D1*
X52701Y2417D1*
X52686Y2445D1*
X41432Y14939D2*
Y14710D1*
X41418Y14667D1*
X41403Y14652D1*
X41375Y14638D1*
X41346D1*
X41318Y14652D1*
X41303Y14667D1*
X41289Y14710D1*
Y14738D1*
X41697Y14896D2*
X41683Y14925D1*
X41640Y14939D1*
X41611D1*
X41568Y14925D1*
X41539Y14882D1*
X41525Y14810D1*
Y14738D1*
X41539Y14681D1*
X41568Y14652D1*
X41611Y14638D1*
X41625D1*
X41668Y14652D1*
X41697Y14681D1*
X41711Y14724D1*
Y14738D1*
X41697Y14781D1*
X41668Y14810D1*
X41625Y14824D1*
X41611D1*
X41568Y14810D1*
X41539Y14781D1*
X41525Y14738D1*
X41432Y7939D2*
Y7710D1*
X41418Y7667D1*
X41403Y7652D1*
X41375Y7638D1*
X41346D1*
X41317Y7652D1*
X41303Y7667D1*
X41289Y7710D1*
Y7738D1*
X41711Y7839D2*
X41697Y7796D1*
X41668Y7767D1*
X41625Y7753D1*
X41611D1*
X41568Y7767D1*
X41539Y7796D1*
X41525Y7839D1*
Y7853D1*
X41539Y7896D1*
X41568Y7925D1*
X41611Y7939D1*
X41625D1*
X41668Y7925D1*
X41697Y7896D1*
X41711Y7839D1*
Y7767D1*
X41697Y7695D1*
X41668Y7652D1*
X41625Y7638D1*
X41597D1*
X41554Y7652D1*
X41539Y7681D1*
X44093Y7333D2*
Y7104D1*
X44078Y7060D1*
X44064Y7046D1*
X44035Y7032D1*
X44006D1*
X43978Y7046D1*
X43964Y7060D1*
X43949Y7104D1*
Y7132D1*
X44185Y7275D2*
X44214Y7290D1*
X44257Y7333D1*
Y7032D1*
X44436Y7333D2*
X44393Y7318D1*
X44364Y7275D1*
X44350Y7204D1*
Y7161D1*
X44364Y7089D1*
X44393Y7046D1*
X44436Y7032D1*
X44465D1*
X44508Y7046D1*
X44536Y7089D1*
X44551Y7161D1*
Y7204D1*
X44536Y7275D1*
X44508Y7318D1*
X44465Y7333D1*
X44436D1*
X44536Y7275D2*
X44364Y7089D1*
X40595Y21083D2*
Y20854D1*
X40580Y20810D1*
X40566Y20796D1*
X40537Y20782D1*
X40508D1*
X40480Y20796D1*
X40466Y20810D1*
X40451Y20854D1*
Y20882D1*
X40687Y21025D2*
X40716Y21040D1*
X40759Y21083D1*
Y20782D1*
X40852Y21025D2*
X40881Y21040D1*
X40924Y21083D1*
Y20782D1*
X41530Y21083D2*
Y20854D1*
X41516Y20810D1*
X41501Y20796D1*
X41473Y20782D1*
X41444D1*
X41415Y20796D1*
X41401Y20810D1*
X41387Y20854D1*
Y20882D1*
X41623Y21025D2*
X41652Y21040D1*
X41695Y21083D1*
Y20782D1*
X41802Y21011D2*
Y21025D1*
X41816Y21054D1*
X41831Y21068D1*
X41859Y21083D1*
X41917D1*
X41945Y21068D1*
X41960Y21054D1*
X41974Y21025D1*
Y20997D1*
X41960Y20968D1*
X41931Y20925D1*
X41787Y20782D1*
X41988D1*
X42530Y21083D2*
Y20854D1*
X42516Y20810D1*
X42501Y20796D1*
X42473Y20782D1*
X42444D1*
X42415Y20796D1*
X42401Y20810D1*
X42387Y20854D1*
Y20882D1*
X42623Y21025D2*
X42652Y21040D1*
X42695Y21083D1*
Y20782D1*
X42816Y21083D2*
X42974D1*
X42888Y20968D1*
X42931D1*
X42960Y20954D1*
X42974Y20939D1*
X42988Y20896D1*
Y20868D1*
X42974Y20825D1*
X42945Y20796D1*
X42902Y20782D1*
X42859D1*
X42816Y20796D1*
X42802Y20810D1*
X42787Y20839D1*
X6685Y16957D2*
X6915D1*
X6958Y16942D1*
X6972Y16928D1*
X6987Y16899D1*
Y16870D1*
X6972Y16842D1*
X6958Y16828D1*
X6915Y16813D1*
X6886D1*
X6743Y17049D2*
X6729Y17078D1*
X6686Y17121D1*
X6987D1*
X6686Y17300D2*
X6700Y17257D1*
X6743Y17228D1*
X6815Y17214D1*
X6858D1*
X6930Y17228D1*
X6973Y17257D1*
X6987Y17300D1*
Y17329D1*
X6973Y17372D1*
X6930Y17400D1*
X6858Y17415D1*
X6815D1*
X6743Y17400D1*
X6700Y17372D1*
X6686Y17329D1*
Y17300D1*
X6743Y17400D2*
X6930Y17228D1*
X6743Y17507D2*
X6729Y17536D1*
X6686Y17579D1*
X6987D1*
X45989Y20392D2*
Y20163D1*
X45975Y20120D1*
X45960Y20105D1*
X45932Y20091D1*
X45903D1*
X45875Y20105D1*
X45860Y20120D1*
X45846Y20163D1*
Y20191D1*
X46096Y20320D2*
Y20334D1*
X46111Y20363D1*
X46125Y20378D1*
X46154Y20392D1*
X46211D1*
X46240Y20378D1*
X46254Y20363D1*
X46269Y20334D1*
Y20306D1*
X46254Y20277D1*
X46225Y20234D1*
X46082Y20091D1*
X46283D1*
X46462Y20392D2*
X46419Y20378D1*
X46390Y20334D1*
X46375Y20263D1*
Y20220D1*
X46390Y20148D1*
X46419Y20105D1*
X46462Y20091D1*
X46490D1*
X46533Y20105D1*
X46562Y20148D1*
X46576Y20220D1*
Y20263D1*
X46562Y20334D1*
X46533Y20378D1*
X46490Y20392D1*
X46462D1*
X46562Y20334D2*
X46390Y20148D1*
X46669Y20334D2*
X46698Y20349D1*
X46741Y20392D1*
Y20091D1*
X51493Y20394D2*
Y20164D1*
X51478Y20121D1*
X51464Y20107D1*
X51435Y20092D1*
X51406D1*
X51378Y20107D1*
X51364Y20121D1*
X51349Y20164D1*
Y20193D1*
X51600Y20322D2*
Y20336D1*
X51614Y20365D1*
X51628Y20379D1*
X51657Y20394D1*
X51715D1*
X51743Y20379D1*
X51757Y20365D1*
X51772Y20336D1*
Y20308D1*
X51757Y20279D1*
X51729Y20236D1*
X51585Y20092D1*
X51786D1*
X51965Y20394D2*
X51922Y20379D1*
X51893Y20336D1*
X51879Y20265D1*
Y20221D1*
X51893Y20150D1*
X51922Y20107D1*
X51965Y20092D1*
X51994D1*
X52037Y20107D1*
X52065Y20150D1*
X52080Y20221D1*
Y20265D1*
X52065Y20336D1*
X52037Y20379D1*
X51994Y20394D1*
X51965D1*
X52065Y20336D2*
X51893Y20150D1*
X52187Y20322D2*
Y20336D1*
X52201Y20365D1*
X52216Y20379D1*
X52244Y20394D1*
X52302D1*
X52330Y20379D1*
X52345Y20365D1*
X52359Y20336D1*
Y20308D1*
X52345Y20279D1*
X52316Y20236D1*
X52173Y20092D1*
X52373D1*
X48881Y2189D2*
Y1960D1*
X48867Y1917D1*
X48853Y1902D1*
X48824Y1888D1*
X48795D1*
X48767Y1902D1*
X48752Y1917D1*
X48738Y1960D1*
Y1988D1*
X48989Y2117D2*
Y2132D1*
X49003Y2160D1*
X49017Y2175D1*
X49046Y2189D1*
X49103D1*
X49132Y2175D1*
X49146Y2160D1*
X49161Y2132D1*
Y2103D1*
X49146Y2074D1*
X49118Y2031D1*
X48974Y1888D1*
X49175D1*
X49354Y2189D2*
X49311Y2175D1*
X49282Y2132D1*
X49268Y2060D1*
Y2017D1*
X49282Y1945D1*
X49311Y1902D1*
X49354Y1888D1*
X49382D1*
X49425Y1902D1*
X49454Y1945D1*
X49469Y2017D1*
Y2060D1*
X49454Y2132D1*
X49425Y2175D1*
X49382Y2189D1*
X49354D1*
X49454Y2132D2*
X49282Y1945D1*
X49590Y2189D2*
X49748D1*
X49662Y2074D1*
X49705D1*
X49733Y2060D1*
X49748Y2046D1*
X49762Y2003D1*
Y1974D1*
X49748Y1931D1*
X49719Y1902D1*
X49676Y1888D1*
X49633D1*
X49590Y1902D1*
X49576Y1917D1*
X49561Y1945D1*
X48735Y20394D2*
Y20164D1*
X48721Y20121D1*
X48706Y20107D1*
X48678Y20092D1*
X48649D1*
X48621Y20107D1*
X48606Y20121D1*
X48592Y20164D1*
Y20193D1*
X48842Y20322D2*
Y20336D1*
X48857Y20365D1*
X48871Y20379D1*
X48900Y20394D1*
X48957D1*
X48986Y20379D1*
X49000Y20365D1*
X49015Y20336D1*
Y20308D1*
X49000Y20279D1*
X48971Y20236D1*
X48828Y20092D1*
X49029D1*
X49208Y20394D2*
X49165Y20379D1*
X49136Y20336D1*
X49121Y20265D1*
Y20221D1*
X49136Y20150D1*
X49165Y20107D1*
X49208Y20092D1*
X49236D1*
X49279Y20107D1*
X49308Y20150D1*
X49322Y20221D1*
Y20265D1*
X49308Y20336D1*
X49279Y20379D1*
X49236Y20394D1*
X49208D1*
X49308Y20336D2*
X49136Y20150D1*
X49559Y20092D2*
Y20394D1*
X49415Y20193D1*
X49630D1*
X25946Y17083D2*
Y16854D1*
X25932Y16811D1*
X25917Y16796D1*
X25889Y16782D1*
X25860D1*
X25831Y16796D1*
X25817Y16811D1*
X25802Y16854D1*
Y16882D1*
X26067Y17083D2*
X26225D1*
X26139Y16968D1*
X26182D1*
X26211Y16954D1*
X26225Y16940D1*
X26239Y16896D1*
Y16868D1*
X26225Y16825D1*
X26196Y16796D1*
X26153Y16782D1*
X26110D1*
X26067Y16796D1*
X26053Y16811D1*
X26039Y16839D1*
X26418Y17083D2*
X26375Y17069D1*
X26346Y17025D1*
X26332Y16954D1*
Y16911D1*
X26346Y16839D1*
X26375Y16796D1*
X26418Y16782D1*
X26447D1*
X26490Y16796D1*
X26519Y16839D1*
X26533Y16911D1*
Y16954D1*
X26519Y17025D1*
X26490Y17069D1*
X26447Y17083D1*
X26418D1*
X26519Y17025D2*
X26346Y16839D1*
X26626Y17025D2*
X26655Y17040D1*
X26698Y17083D1*
Y16782D1*
X32857Y18878D2*
Y18649D1*
X32843Y18606D1*
X32828Y18592D1*
X32799Y18577D1*
X32771D1*
X32742Y18592D1*
X32728Y18606D1*
X32713Y18649D1*
Y18677D1*
X32978Y18878D2*
X33136D1*
X33050Y18763D1*
X33093D1*
X33122Y18749D1*
X33136Y18735D1*
X33150Y18692D1*
Y18663D1*
X33136Y18620D1*
X33107Y18591D1*
X33064Y18577D1*
X33021D1*
X32978Y18591D1*
X32964Y18606D1*
X32949Y18634D1*
X33329Y18878D2*
X33286Y18864D1*
X33257Y18821D1*
X33243Y18749D1*
Y18706D1*
X33257Y18634D1*
X33286Y18591D1*
X33329Y18577D1*
X33358D1*
X33401Y18591D1*
X33429Y18634D1*
X33444Y18706D1*
Y18749D1*
X33429Y18821D1*
X33401Y18864D1*
X33358Y18878D1*
X33329D1*
X33429Y18821D2*
X33257Y18634D1*
X33551Y18806D2*
Y18821D1*
X33565Y18850D1*
X33580Y18864D1*
X33609Y18878D1*
X33666D1*
X33694Y18864D1*
X33709Y18850D1*
X33723Y18821D1*
Y18792D1*
X33709Y18763D1*
X33680Y18721D1*
X33537Y18577D1*
X33738D1*
X27857Y18878D2*
Y18649D1*
X27843Y18606D1*
X27828Y18592D1*
X27799Y18577D1*
X27771D1*
X27742Y18592D1*
X27728Y18606D1*
X27713Y18649D1*
Y18677D1*
X27978Y18878D2*
X28136D1*
X28050Y18763D1*
X28093D1*
X28122Y18749D1*
X28136Y18735D1*
X28150Y18692D1*
Y18663D1*
X28136Y18620D1*
X28107Y18591D1*
X28064Y18577D1*
X28021D1*
X27978Y18591D1*
X27964Y18606D1*
X27949Y18634D1*
X28329Y18878D2*
X28286Y18864D1*
X28257Y18821D1*
X28243Y18749D1*
Y18706D1*
X28257Y18634D1*
X28286Y18591D1*
X28329Y18577D1*
X28358D1*
X28401Y18591D1*
X28429Y18634D1*
X28444Y18706D1*
Y18749D1*
X28429Y18821D1*
X28401Y18864D1*
X28358Y18878D1*
X28329D1*
X28429Y18821D2*
X28257Y18634D1*
X28565Y18878D2*
X28723D1*
X28637Y18763D1*
X28680D1*
X28709Y18749D1*
X28723Y18735D1*
X28738Y18692D1*
Y18663D1*
X28723Y18620D1*
X28694Y18591D1*
X28651Y18577D1*
X28608D1*
X28565Y18591D1*
X28551Y18606D1*
X28537Y18634D1*
X24626Y4169D2*
X24855D1*
X24898Y4155D1*
X24913Y4140D1*
X24927Y4112D1*
Y4083D1*
X24913Y4054D1*
X24898Y4040D1*
X24855Y4025D1*
X24827D1*
X24927Y4405D2*
X24626D1*
X24827Y4262D1*
Y4477D1*
X24626Y4656D2*
X24640Y4613D1*
X24683Y4584D1*
X24755Y4569D1*
X24798D1*
X24870Y4584D1*
X24913Y4613D1*
X24927Y4656D1*
Y4684D1*
X24913Y4727D1*
X24870Y4756D1*
X24798Y4770D1*
X24755D1*
X24683Y4756D1*
X24640Y4727D1*
X24626Y4684D1*
Y4656D1*
X24683Y4756D2*
X24870Y4584D1*
X24683Y4863D2*
X24669Y4892D1*
X24626Y4935D1*
X24927D1*
X28072Y3862D2*
X28301D1*
X28344Y3848D1*
X28358Y3833D1*
X28373Y3805D1*
Y3776D1*
X28358Y3748D1*
X28344Y3733D1*
X28301Y3719D1*
X28273D1*
X28373Y4099D2*
X28072D1*
X28273Y3955D1*
Y4170D1*
X28072Y4349D2*
X28086Y4306D1*
X28129Y4277D1*
X28201Y4263D1*
X28244D1*
X28316Y4277D1*
X28359Y4306D1*
X28373Y4349D1*
Y4378D1*
X28359Y4421D1*
X28316Y4449D1*
X28244Y4464D1*
X28201D1*
X28129Y4449D1*
X28086Y4421D1*
X28072Y4378D1*
Y4349D1*
X28129Y4449D2*
X28316Y4277D1*
X28144Y4571D2*
X28129D1*
X28100Y4585D1*
X28086Y4600D1*
X28072Y4628D1*
Y4686D1*
X28086Y4714D1*
X28100Y4729D1*
X28129Y4743D1*
X28158D1*
X28187Y4729D1*
X28229Y4700D1*
X28373Y4556D1*
Y4757D1*
X2696Y19979D2*
Y19750D1*
X2682Y19707D1*
X2667Y19692D1*
X2639Y19678D1*
X2610D1*
X2581Y19692D1*
X2567Y19707D1*
X2552Y19750D1*
Y19778D1*
X2961Y19979D2*
X2817D1*
X2803Y19850D1*
X2817Y19864D1*
X2860Y19879D1*
X2903D1*
X2946Y19864D1*
X2975Y19836D1*
X2989Y19793D1*
Y19764D1*
X2975Y19721D1*
X2946Y19692D1*
X2903Y19678D1*
X2860D1*
X2817Y19692D1*
X2803Y19707D1*
X2789Y19735D1*
X3168Y19979D2*
X3125Y19965D1*
X3096Y19922D1*
X3082Y19850D1*
Y19807D1*
X3096Y19735D1*
X3125Y19692D1*
X3168Y19678D1*
X3197D1*
X3240Y19692D1*
X3269Y19735D1*
X3283Y19807D1*
Y19850D1*
X3269Y19922D1*
X3240Y19965D1*
X3197Y19979D1*
X3168D1*
X3269Y19922D2*
X3096Y19735D1*
X3376Y19922D2*
X3405Y19936D1*
X3448Y19979D1*
Y19678D1*
X34569Y3189D2*
Y2960D1*
X34555Y2917D1*
X34540Y2902D1*
X34512Y2888D1*
X34483D1*
X34454Y2902D1*
X34440Y2917D1*
X34425Y2960D1*
Y2988D1*
X34834Y3189D2*
X34690D1*
X34676Y3060D1*
X34690Y3074D1*
X34734Y3089D1*
X34776D1*
X34819Y3074D1*
X34848Y3046D1*
X34863Y3002D1*
Y2974D1*
X34848Y2931D1*
X34819Y2902D1*
X34776Y2888D1*
X34734D1*
X34690Y2902D1*
X34676Y2917D1*
X34662Y2945D1*
X35041Y3189D2*
X34998Y3175D1*
X34969Y3131D1*
X34955Y3060D1*
Y3017D1*
X34969Y2945D1*
X34998Y2902D1*
X35041Y2888D1*
X35070D1*
X35113Y2902D1*
X35142Y2945D1*
X35156Y3017D1*
Y3060D1*
X35142Y3131D1*
X35113Y3175D1*
X35070Y3189D1*
X35041D1*
X35142Y3131D2*
X34969Y2945D1*
X35263Y3117D2*
Y3131D1*
X35278Y3160D1*
X35292Y3175D1*
X35321Y3189D1*
X35378D1*
X35407Y3175D1*
X35421Y3160D1*
X35435Y3131D1*
Y3103D1*
X35421Y3074D1*
X35392Y3031D1*
X35249Y2888D1*
X35450D1*
X24913Y5767D2*
X24927Y5738D1*
X24956Y5709D1*
X24985Y5695D1*
X25028Y5681D1*
X25099D1*
X25142Y5695D1*
X25171Y5709D1*
X25200Y5738D1*
X25214Y5767D1*
Y5824D1*
X25200Y5853D1*
X25171Y5882D1*
X25142Y5896D1*
X25099Y5910D1*
X25028D1*
X24985Y5896D1*
X24956Y5882D1*
X24927Y5853D1*
X24913Y5824D1*
Y5767D1*
X25157Y5810D2*
X25243Y5896D1*
X25214Y6147D2*
X24913D1*
X25114Y6003D1*
Y6218D1*
X24913Y6397D2*
X24928Y6354D1*
X24971Y6325D1*
X25042Y6311D1*
X25085D1*
X25157Y6325D1*
X25200Y6354D1*
X25214Y6397D1*
Y6426D1*
X25200Y6469D1*
X25157Y6497D1*
X25085Y6512D1*
X25042D1*
X24971Y6497D1*
X24928Y6469D1*
X24913Y6426D1*
Y6397D1*
X24971Y6497D2*
X25157Y6325D1*
X24971Y6605D2*
X24956Y6633D1*
X24913Y6676D1*
X25214D1*
X30971Y5575D2*
X30943Y5561D1*
X30914Y5533D1*
X30899Y5504D1*
X30885Y5461D1*
Y5389D1*
X30899Y5346D1*
X30914Y5317D1*
X30943Y5289D1*
X30971Y5274D1*
X31028D1*
X31057Y5289D1*
X31086Y5317D1*
X31100Y5346D1*
X31115Y5389D1*
Y5461D1*
X31100Y5504D1*
X31086Y5533D1*
X31057Y5561D1*
X31028Y5575D1*
X30971D1*
X31014Y5332D2*
X31100Y5245D1*
X31351Y5274D2*
Y5575D1*
X31207Y5374D1*
X31422D1*
X31601Y5575D2*
X31558Y5561D1*
X31529Y5518D1*
X31515Y5446D1*
Y5403D1*
X31529Y5331D1*
X31558Y5288D1*
X31601Y5274D1*
X31630D1*
X31673Y5288D1*
X31701Y5331D1*
X31716Y5403D1*
Y5446D1*
X31701Y5518D1*
X31673Y5561D1*
X31630Y5575D1*
X31601D1*
X31701Y5518D2*
X31529Y5331D1*
X31823Y5503D2*
Y5518D1*
X31838Y5546D1*
X31852Y5561D1*
X31881Y5575D1*
X31938D1*
X31967Y5561D1*
X31981Y5546D1*
X31995Y5518D1*
Y5489D1*
X31981Y5460D1*
X31952Y5417D1*
X31809Y5274D1*
X32010D1*
X383Y8439D2*
X397Y8410D1*
X426Y8382D1*
X455Y8367D1*
X498Y8353D1*
X570D1*
X613Y8367D1*
X641Y8382D1*
X670Y8410D1*
X685Y8439D1*
Y8496D1*
X670Y8525D1*
X641Y8554D1*
X613Y8568D1*
X570Y8583D1*
X498D1*
X455Y8568D1*
X426Y8554D1*
X397Y8525D1*
X383Y8496D1*
Y8439D1*
X627Y8482D2*
X713Y8568D1*
X384Y8847D2*
Y8704D1*
X513Y8690D1*
X499Y8704D1*
X484Y8747D1*
Y8790D1*
X499Y8833D1*
X527Y8862D1*
X570Y8876D1*
X599D1*
X642Y8862D1*
X671Y8833D1*
X685Y8790D1*
Y8747D1*
X671Y8704D1*
X656Y8690D1*
X628Y8675D1*
X384Y9055D2*
X398Y9012D1*
X441Y8983D1*
X513Y8969D1*
X556D1*
X628Y8983D1*
X671Y9012D1*
X685Y9055D1*
Y9083D1*
X671Y9127D1*
X628Y9155D1*
X556Y9170D1*
X513D1*
X441Y9155D1*
X398Y9127D1*
X384Y9083D1*
Y9055D1*
X441Y9155D2*
X628Y8983D1*
X441Y9262D2*
X427Y9291D1*
X384Y9334D1*
X685D1*
X5196Y8437D2*
X5210Y8408D1*
X5239Y8380D1*
X5268Y8365D1*
X5311Y8351D1*
X5382D1*
X5425Y8365D1*
X5454Y8380D1*
X5483Y8408D1*
X5497Y8437D1*
Y8494D1*
X5483Y8523D1*
X5454Y8552D1*
X5425Y8566D1*
X5382Y8581D1*
X5311D1*
X5268Y8566D1*
X5239Y8552D1*
X5210Y8523D1*
X5196Y8494D1*
Y8437D1*
X5440Y8480D2*
X5526Y8566D1*
X5196Y8845D2*
Y8702D1*
X5325Y8688D1*
X5311Y8702D1*
X5296Y8745D1*
Y8788D1*
X5311Y8831D1*
X5340Y8860D1*
X5383Y8874D1*
X5411D1*
X5454Y8860D1*
X5483Y8831D1*
X5497Y8788D1*
Y8745D1*
X5483Y8702D1*
X5469Y8688D1*
X5440Y8673D1*
X5196Y9053D2*
X5211Y9010D1*
X5254Y8981D1*
X5325Y8967D1*
X5368D1*
X5440Y8981D1*
X5483Y9010D1*
X5497Y9053D1*
Y9081D1*
X5483Y9125D1*
X5440Y9153D1*
X5368Y9168D1*
X5325D1*
X5254Y9153D1*
X5211Y9125D1*
X5196Y9081D1*
Y9053D1*
X5254Y9153D2*
X5440Y8981D1*
X5268Y9275D2*
X5254D1*
X5225Y9289D1*
X5211Y9303D1*
X5196Y9332D1*
Y9390D1*
X5211Y9418D1*
X5225Y9432D1*
X5254Y9447D1*
X5282D1*
X5311Y9432D1*
X5354Y9404D1*
X5497Y9260D1*
Y9461D1*
X35696Y20517D2*
X35825D1*
X35868Y20531D1*
X35883Y20546D1*
X35897Y20574D1*
Y20603D1*
X35883Y20632D1*
X35868Y20646D1*
X35825Y20660D1*
X35696D1*
Y20359D1*
X35796Y20517D2*
X35897Y20359D1*
X35990Y20603D2*
X36018Y20617D1*
X36062Y20660D1*
Y20359D1*
X10912Y10327D2*
X11041D1*
X11084Y10342D1*
X11099Y10356D1*
X11113Y10385D1*
Y10413D1*
X11099Y10442D1*
X11084Y10457D1*
X11041Y10471D1*
X10912D1*
Y10169D1*
X11012Y10327D2*
X11113Y10169D1*
X11206Y10413D2*
X11234Y10428D1*
X11278Y10470D1*
Y10169D1*
X11456Y10470D2*
X11413Y10456D1*
X11384Y10413D1*
X11370Y10341D1*
Y10298D1*
X11384Y10227D1*
X11413Y10184D1*
X11456Y10169D1*
X11485D1*
X11528Y10184D1*
X11557Y10227D1*
X11571Y10298D1*
Y10341D1*
X11557Y10413D1*
X11528Y10456D1*
X11485Y10470D1*
X11456D1*
X11557Y10413D2*
X11384Y10227D1*
X11664Y10413D2*
X11693Y10428D1*
X11736Y10470D1*
Y10169D1*
X5877Y15307D2*
X6006D1*
X6049Y15321D1*
X6064Y15335D1*
X6078Y15364D1*
Y15393D1*
X6064Y15421D1*
X6049Y15436D1*
X6006Y15450D1*
X5877D1*
Y15149D1*
X5978Y15307D2*
X6078Y15149D1*
X6171Y15393D2*
X6200Y15407D1*
X6243Y15450D1*
Y15149D1*
X6422Y15450D2*
X6378Y15436D1*
X6350Y15393D1*
X6335Y15321D1*
Y15278D1*
X6350Y15206D1*
X6378Y15163D1*
X6422Y15149D1*
X6450D1*
X6493Y15163D1*
X6522Y15206D1*
X6536Y15278D1*
Y15321D1*
X6522Y15393D1*
X6493Y15436D1*
X6450Y15450D1*
X6422D1*
X6522Y15393D2*
X6350Y15206D1*
X6644Y15378D2*
Y15393D1*
X6658Y15421D1*
X6672Y15436D1*
X6701Y15450D1*
X6758D1*
X6787Y15436D1*
X6801Y15421D1*
X6816Y15393D1*
Y15364D1*
X6801Y15335D1*
X6773Y15292D1*
X6629Y15149D1*
X6830D1*
X10922Y15369D2*
X11051D1*
X11094Y15384D1*
X11109Y15398D1*
X11123Y15427D1*
Y15455D1*
X11109Y15484D1*
X11094Y15499D1*
X11051Y15513D1*
X10922D1*
Y15211D1*
X11022Y15369D2*
X11123Y15211D1*
X11216Y15455D2*
X11244Y15470D1*
X11287Y15513D1*
Y15211D1*
X11466Y15513D2*
X11423Y15498D1*
X11394Y15455D1*
X11380Y15384D1*
Y15340D1*
X11394Y15269D1*
X11423Y15226D1*
X11466Y15211D1*
X11495D1*
X11538Y15226D1*
X11566Y15269D1*
X11581Y15340D1*
Y15384D1*
X11566Y15455D1*
X11538Y15498D1*
X11495Y15513D1*
X11466D1*
X11566Y15455D2*
X11394Y15269D1*
X11703Y15513D2*
X11860D1*
X11774Y15398D1*
X11817D1*
X11846Y15384D1*
X11860Y15369D1*
X11875Y15326D1*
Y15298D1*
X11860Y15255D1*
X11832Y15226D1*
X11788Y15211D1*
X11745D1*
X11703Y15226D1*
X11688Y15240D1*
X11674Y15269D1*
X12725Y8531D2*
X12854D1*
X12897Y8546D1*
X12912Y8560D1*
X12926Y8589D1*
Y8618D1*
X12912Y8646D1*
X12897Y8661D1*
X12854Y8675D1*
X12725D1*
Y8374D1*
X12826Y8531D2*
X12926Y8374D1*
X13019Y8617D2*
X13048Y8632D1*
X13091Y8675D1*
Y8374D1*
X13270Y8675D2*
X13226Y8660D1*
X13198Y8617D1*
X13183Y8546D1*
Y8503D1*
X13198Y8431D1*
X13226Y8388D1*
X13270Y8374D1*
X13298D1*
X13341Y8388D1*
X13370Y8431D1*
X13384Y8503D1*
Y8546D1*
X13370Y8617D1*
X13341Y8660D1*
X13298Y8675D1*
X13270D1*
X13370Y8617D2*
X13198Y8431D1*
X13621Y8374D2*
Y8675D1*
X13477Y8474D1*
X13692D1*
X12642Y14834D2*
Y14963D1*
X12627Y15006D1*
X12613Y15021D1*
X12584Y15035D1*
X12555D1*
X12527Y15021D1*
X12512Y15006D1*
X12498Y14963D1*
Y14834D1*
X12799D1*
X12642Y14935D2*
X12799Y15035D1*
X12556Y15128D2*
X12541Y15157D1*
X12498Y15200D1*
X12799D1*
X12498Y15379D2*
X12513Y15336D1*
X12556Y15307D1*
X12627Y15293D1*
X12670D1*
X12742Y15307D1*
X12785Y15336D1*
X12799Y15379D1*
Y15407D1*
X12785Y15450D1*
X12742Y15479D1*
X12670Y15494D1*
X12627D1*
X12556Y15479D1*
X12513Y15450D1*
X12498Y15407D1*
Y15379D1*
X12556Y15479D2*
X12742Y15307D1*
X12498Y15758D2*
Y15615D1*
X12627Y15601D1*
X12613Y15615D1*
X12598Y15658D1*
Y15701D1*
X12613Y15744D1*
X12642Y15773D1*
X12685Y15787D1*
X12713D1*
X12756Y15773D1*
X12785Y15744D1*
X12799Y15701D1*
Y15658D1*
X12785Y15615D1*
X12771Y15601D1*
X12742Y15586D1*
X13329Y14823D2*
Y14952D1*
X13315Y14995D1*
X13300Y15010D1*
X13272Y15024D1*
X13243D1*
X13214Y15010D1*
X13200Y14995D1*
X13186Y14952D1*
Y14823D1*
X13487D1*
X13329Y14924D2*
X13487Y15024D1*
X13243Y15117D2*
X13229Y15146D1*
X13186Y15189D1*
X13487D1*
X13186Y15368D2*
X13200Y15325D1*
X13243Y15296D1*
X13315Y15282D1*
X13358D1*
X13430Y15296D1*
X13473Y15325D1*
X13487Y15368D1*
Y15396D1*
X13473Y15439D1*
X13430Y15468D1*
X13358Y15483D1*
X13315D1*
X13243Y15468D1*
X13200Y15439D1*
X13186Y15396D1*
Y15368D1*
X13243Y15468D2*
X13430Y15296D1*
X13229Y15747D2*
X13200Y15733D1*
X13186Y15690D1*
Y15661D1*
X13200Y15618D1*
X13243Y15589D1*
X13315Y15575D1*
X13386D1*
X13444Y15589D1*
X13473Y15618D1*
X13487Y15661D1*
Y15676D1*
X13473Y15718D1*
X13444Y15747D1*
X13401Y15762D1*
X13386D1*
X13343Y15747D1*
X13315Y15718D1*
X13301Y15676D1*
Y15661D1*
X13315Y15618D1*
X13343Y15589D1*
X13386Y15575D1*
X13196Y7234D2*
Y7363D1*
X13182Y7406D1*
X13167Y7421D1*
X13139Y7435D1*
X13110D1*
X13082Y7421D1*
X13067Y7406D1*
X13053Y7363D1*
Y7234D1*
X13354D1*
X13196Y7335D2*
X13354Y7435D1*
X13110Y7528D2*
X13096Y7556D1*
X13053Y7600D1*
X13354D1*
X13053Y7778D2*
X13067Y7735D1*
X13110Y7706D1*
X13182Y7692D1*
X13225D1*
X13297Y7706D1*
X13340Y7735D1*
X13354Y7778D1*
Y7807D1*
X13340Y7850D1*
X13297Y7879D1*
X13225Y7893D1*
X13182D1*
X13110Y7879D1*
X13067Y7850D1*
X13053Y7807D1*
Y7778D1*
X13110Y7879D2*
X13297Y7706D1*
X13354Y8043D2*
X13053Y8187D1*
Y7986D1*
X14321Y7047D2*
Y7176D1*
X14307Y7219D1*
X14293Y7233D1*
X14264Y7248D1*
X14235D1*
X14207Y7233D1*
X14192Y7219D1*
X14178Y7176D1*
Y7047D1*
X14479D1*
X14321Y7147D2*
X14479Y7248D1*
X14236Y7340D2*
X14221Y7369D1*
X14178Y7412D1*
X14479D1*
X14178Y7591D2*
X14192Y7548D1*
X14236Y7519D1*
X14307Y7505D1*
X14350D1*
X14422Y7519D1*
X14465Y7548D1*
X14479Y7591D1*
Y7620D1*
X14465Y7663D1*
X14422Y7691D1*
X14350Y7706D1*
X14307D1*
X14236Y7691D1*
X14192Y7663D1*
X14178Y7620D1*
Y7591D1*
X14236Y7691D2*
X14422Y7519D1*
X14178Y7870D2*
X14192Y7827D1*
X14221Y7813D1*
X14250D1*
X14278Y7827D1*
X14293Y7856D1*
X14307Y7913D1*
X14321Y7956D1*
X14350Y7985D1*
X14379Y7999D1*
X14422D1*
X14450Y7985D1*
X14465Y7971D1*
X14479Y7927D1*
Y7870D1*
X14465Y7827D1*
X14450Y7813D1*
X14422Y7798D1*
X14379D1*
X14350Y7813D1*
X14321Y7842D1*
X14307Y7884D1*
X14293Y7942D1*
X14278Y7971D1*
X14250Y7985D1*
X14221D1*
X14192Y7971D1*
X14178Y7927D1*
Y7870D1*
X14179Y10119D2*
X14308D1*
X14352Y10133D1*
X14366Y10147D1*
X14380Y10176D1*
Y10205D1*
X14366Y10233D1*
X14352Y10248D1*
X14308Y10262D1*
X14179D1*
Y9961D1*
X14280Y10119D2*
X14380Y9961D1*
X14473Y10204D2*
X14502Y10219D1*
X14545Y10262D1*
Y9961D1*
X14724Y10262D2*
X14681Y10248D1*
X14652Y10204D1*
X14638Y10133D1*
Y10090D1*
X14652Y10018D1*
X14681Y9975D1*
X14724Y9961D1*
X14752D1*
X14795Y9975D1*
X14824Y10018D1*
X14839Y10090D1*
Y10133D1*
X14824Y10204D1*
X14795Y10248D1*
X14752Y10262D1*
X14724D1*
X14824Y10204D2*
X14652Y10018D1*
X15118Y10162D2*
X15103Y10119D1*
X15075Y10090D1*
X15032Y10075D1*
X15017D1*
X14974Y10090D1*
X14946Y10119D1*
X14931Y10162D1*
Y10176D1*
X14946Y10219D1*
X14974Y10248D1*
X15017Y10262D1*
X15032D1*
X15075Y10248D1*
X15103Y10219D1*
X15118Y10162D1*
Y10090D1*
X15103Y10018D1*
X15075Y9975D1*
X15032Y9961D1*
X15003D1*
X14960Y9975D1*
X14946Y10004D1*
X14947Y7111D2*
Y7240D1*
X14932Y7283D1*
X14918Y7298D1*
X14889Y7312D1*
X14860D1*
X14832Y7298D1*
X14817Y7283D1*
X14803Y7240D1*
Y7111D1*
X15104D1*
X14947Y7212D2*
X15104Y7312D1*
X14861Y7405D2*
X14846Y7433D1*
X14803Y7477D1*
X15104D1*
X14861Y7569D2*
X14846Y7598D1*
X14803Y7641D1*
X15104D1*
X14803Y7820D2*
X14818Y7777D1*
X14861Y7748D1*
X14932Y7734D1*
X14975D1*
X15047Y7748D1*
X15090Y7777D1*
X15104Y7820D1*
Y7849D1*
X15090Y7892D1*
X15047Y7920D1*
X14975Y7935D1*
X14932D1*
X14861Y7920D1*
X14818Y7892D1*
X14803Y7849D1*
Y7820D1*
X14861Y7920D2*
X15047Y7748D1*
X16072Y7363D2*
Y7492D1*
X16057Y7535D1*
X16043Y7550D1*
X16014Y7564D1*
X15985D1*
X15957Y7550D1*
X15942Y7535D1*
X15928Y7492D1*
Y7363D1*
X16229D1*
X16072Y7464D2*
X16229Y7564D1*
X15986Y7657D2*
X15971Y7685D1*
X15928Y7729D1*
X16229D1*
X15986Y7821D2*
X15971Y7850D1*
X15928Y7893D1*
X16229D1*
X15986Y7986D2*
X15971Y8015D1*
X15928Y8058D1*
X16229D1*
X15892Y14756D2*
Y14885D1*
X15877Y14928D1*
X15863Y14942D1*
X15835Y14957D1*
X15806D1*
X15777Y14942D1*
X15763Y14928D1*
X15748Y14885D1*
Y14756D1*
X16050D1*
X15892Y14856D2*
X16050Y14957D1*
X15806Y15049D2*
X15791Y15078D1*
X15749Y15121D1*
X16050D1*
X15806Y15214D2*
X15791Y15243D1*
X15749Y15286D1*
X16050D1*
X15820Y15393D2*
X15806D1*
X15777Y15407D1*
X15763Y15421D1*
X15749Y15450D1*
Y15508D1*
X15763Y15536D1*
X15777Y15550D1*
X15806Y15565D1*
X15835D1*
X15863Y15550D1*
X15906Y15522D1*
X16050Y15378D1*
Y15579D1*
X15671Y8531D2*
X15800D1*
X15843Y8546D1*
X15858Y8560D1*
X15872Y8589D1*
Y8618D1*
X15858Y8646D1*
X15843Y8661D1*
X15800Y8675D1*
X15671D1*
Y8374D1*
X15771Y8531D2*
X15872Y8374D1*
X15964Y8617D2*
X15993Y8632D1*
X16036Y8675D1*
Y8374D1*
X16129Y8617D2*
X16158Y8632D1*
X16201Y8675D1*
Y8374D1*
X16322Y8675D2*
X16480D1*
X16394Y8560D1*
X16437D1*
X16466Y8546D1*
X16480Y8531D1*
X16495Y8488D1*
Y8460D1*
X16480Y8417D1*
X16451Y8388D1*
X16408Y8374D1*
X16365D1*
X16322Y8388D1*
X16308Y8402D1*
X16294Y8431D1*
X16704Y14829D2*
Y14958D1*
X16690Y15001D1*
X16676Y15016D1*
X16647Y15030D1*
X16618D1*
X16590Y15016D1*
X16575Y15001D1*
X16561Y14958D1*
Y14829D1*
X16862D1*
X16704Y14930D2*
X16862Y15030D1*
X16619Y15123D2*
X16604Y15152D1*
X16561Y15195D1*
X16862D1*
X16619Y15287D2*
X16604Y15316D1*
X16561Y15359D1*
X16862D1*
Y15596D2*
X16561D1*
X16762Y15452D1*
Y15667D1*
X20474Y12515D2*
X20603D1*
X20647Y12529D1*
X20661Y12544D1*
X20675Y12572D1*
Y12601D1*
X20661Y12629D1*
X20647Y12644D1*
X20603Y12658D1*
X20474D1*
Y12357D1*
X20575Y12515D2*
X20675Y12357D1*
X20768Y12601D2*
X20797Y12615D1*
X20840Y12658D1*
Y12357D1*
X20933Y12601D2*
X20961Y12615D1*
X21005Y12658D1*
Y12357D1*
X21269Y12658D2*
X21126D1*
X21112Y12529D1*
X21126Y12543D1*
X21169Y12558D1*
X21212D1*
X21255Y12543D1*
X21284Y12515D1*
X21298Y12472D1*
Y12443D1*
X21284Y12400D1*
X21255Y12371D1*
X21212Y12357D1*
X21169D1*
X21126Y12371D1*
X21112Y12386D1*
X21097Y12414D1*
X53189Y4993D2*
X53318D1*
X53361Y5007D1*
X53376Y5021D1*
X53390Y5050D1*
Y5079D1*
X53376Y5107D1*
X53361Y5122D1*
X53318Y5136D1*
X53189D1*
Y4835D1*
X53289Y4993D2*
X53390Y4835D1*
X53497Y5064D2*
Y5078D1*
X53511Y5107D1*
X53526Y5122D1*
X53555Y5136D1*
X53612D1*
X53640Y5122D1*
X53655Y5107D1*
X53669Y5078D1*
Y5050D1*
X53655Y5021D1*
X53626Y4978D1*
X53483Y4835D1*
X53684D1*
X53862Y5136D2*
X53819Y5122D1*
X53790Y5078D1*
X53776Y5007D1*
Y4964D1*
X53790Y4892D1*
X53819Y4849D1*
X53862Y4835D1*
X53891D1*
X53934Y4849D1*
X53963Y4892D1*
X53977Y4964D1*
Y5007D1*
X53963Y5078D1*
X53934Y5122D1*
X53891Y5136D1*
X53862D1*
X53963Y5078D2*
X53790Y4892D1*
X54070Y5078D2*
X54099Y5093D1*
X54142Y5136D1*
Y4835D1*
X47507Y7231D2*
Y7360D1*
X47493Y7403D1*
X47479Y7418D1*
X47450Y7432D1*
X47421D1*
X47393Y7418D1*
X47378Y7403D1*
X47364Y7360D1*
Y7231D1*
X47665D1*
X47507Y7332D2*
X47665Y7432D1*
X47436Y7539D2*
X47422D1*
X47393Y7554D1*
X47378Y7568D1*
X47364Y7597D1*
Y7654D1*
X47378Y7683D1*
X47393Y7697D1*
X47422Y7712D1*
X47450D1*
X47479Y7697D1*
X47522Y7668D1*
X47665Y7525D1*
Y7726D1*
X47364Y7905D2*
X47378Y7862D1*
X47422Y7833D1*
X47493Y7818D1*
X47536D1*
X47608Y7833D1*
X47651Y7862D1*
X47665Y7905D1*
Y7933D1*
X47651Y7976D1*
X47608Y8005D1*
X47536Y8019D1*
X47493D1*
X47422Y8005D1*
X47378Y7976D1*
X47364Y7933D1*
Y7905D1*
X47422Y8005D2*
X47608Y7833D1*
X47436Y8127D2*
X47422D1*
X47393Y8141D1*
X47378Y8155D1*
X47364Y8184D1*
Y8241D1*
X47378Y8270D1*
X47393Y8284D1*
X47422Y8299D1*
X47450D1*
X47479Y8284D1*
X47522Y8256D1*
X47665Y8112D1*
Y8313D1*
X46007Y7249D2*
Y7378D1*
X45993Y7422D1*
X45979Y7436D1*
X45950Y7450D1*
X45921D1*
X45893Y7436D1*
X45878Y7422D1*
X45864Y7378D1*
Y7249D1*
X46165D1*
X46007Y7350D2*
X46165Y7450D1*
X45936Y7558D2*
X45922D1*
X45893Y7572D1*
X45878Y7586D1*
X45864Y7615D1*
Y7672D1*
X45878Y7701D1*
X45893Y7715D1*
X45922Y7730D1*
X45950D1*
X45979Y7715D1*
X46022Y7687D1*
X46165Y7543D1*
Y7744D1*
X45864Y7923D2*
X45878Y7880D1*
X45922Y7851D1*
X45993Y7837D1*
X46036D1*
X46108Y7851D1*
X46151Y7880D1*
X46165Y7923D1*
Y7951D1*
X46151Y7995D1*
X46108Y8023D1*
X46036Y8038D1*
X45993D1*
X45922Y8023D1*
X45878Y7995D1*
X45864Y7951D1*
Y7923D1*
X45922Y8023D2*
X46108Y7851D1*
X45864Y8159D2*
Y8317D1*
X45979Y8231D1*
Y8274D1*
X45993Y8302D1*
X46007Y8317D1*
X46051Y8331D1*
X46079D1*
X46122Y8317D1*
X46151Y8288D1*
X46165Y8245D1*
Y8202D1*
X46151Y8159D1*
X46136Y8145D1*
X46108Y8130D1*
X46757Y14787D2*
Y14916D1*
X46743Y14959D1*
X46729Y14973D1*
X46700Y14988D1*
X46671D1*
X46643Y14973D1*
X46628Y14959D1*
X46614Y14916D1*
Y14787D1*
X46915D1*
X46757Y14887D2*
X46915Y14988D1*
X46686Y15095D2*
X46672D1*
X46643Y15109D1*
X46628Y15123D1*
X46614Y15152D1*
Y15210D1*
X46628Y15238D1*
X46643Y15252D1*
X46672Y15267D1*
X46700D1*
X46729Y15252D1*
X46772Y15224D1*
X46915Y15080D1*
Y15281D1*
X46614Y15460D2*
X46628Y15417D1*
X46672Y15388D1*
X46743Y15374D1*
X46786D1*
X46858Y15388D1*
X46901Y15417D1*
X46915Y15460D1*
Y15489D1*
X46901Y15532D1*
X46858Y15560D1*
X46786Y15575D1*
X46743D1*
X46672Y15560D1*
X46628Y15532D1*
X46614Y15489D1*
Y15460D1*
X46672Y15560D2*
X46858Y15388D1*
X46915Y15811D2*
X46614D1*
X46815Y15667D1*
Y15883D1*
X48195Y7231D2*
Y7360D1*
X48180Y7403D1*
X48166Y7418D1*
X48138Y7432D1*
X48109D1*
X48080Y7418D1*
X48066Y7403D1*
X48051Y7360D1*
Y7231D1*
X48353D1*
X48195Y7332D2*
X48353Y7432D1*
X48123Y7539D2*
X48109D1*
X48080Y7554D1*
X48066Y7568D1*
X48052Y7597D1*
Y7654D1*
X48066Y7683D1*
X48080Y7697D1*
X48109Y7712D1*
X48138D1*
X48166Y7697D1*
X48209Y7668D1*
X48353Y7525D1*
Y7726D1*
X48052Y7905D2*
X48066Y7862D1*
X48109Y7833D1*
X48181Y7818D1*
X48224D1*
X48295Y7833D1*
X48338Y7862D1*
X48353Y7905D1*
Y7933D1*
X48338Y7976D1*
X48295Y8005D1*
X48224Y8019D1*
X48181D1*
X48109Y8005D1*
X48066Y7976D1*
X48052Y7933D1*
Y7905D1*
X48109Y8005D2*
X48295Y7833D1*
X48052Y8284D2*
Y8141D1*
X48181Y8127D1*
X48166Y8141D1*
X48152Y8184D1*
Y8227D1*
X48166Y8270D1*
X48195Y8299D1*
X48238Y8313D1*
X48267D1*
X48310Y8299D1*
X48338Y8270D1*
X48353Y8227D1*
Y8184D1*
X48338Y8141D1*
X48324Y8127D1*
X48295Y8112D1*
X48257Y14882D2*
Y15011D1*
X48243Y15054D1*
X48229Y15068D1*
X48200Y15083D1*
X48171D1*
X48143Y15068D1*
X48128Y15054D1*
X48114Y15011D1*
Y14882D1*
X48415D1*
X48257Y14982D2*
X48415Y15083D1*
X48186Y15190D2*
X48172D1*
X48143Y15204D1*
X48128Y15218D1*
X48114Y15247D1*
Y15305D1*
X48128Y15333D1*
X48143Y15347D1*
X48172Y15362D1*
X48200D1*
X48229Y15347D1*
X48272Y15319D1*
X48415Y15175D1*
Y15376D1*
X48114Y15555D2*
X48128Y15512D1*
X48172Y15483D1*
X48243Y15469D1*
X48286D1*
X48358Y15483D1*
X48401Y15512D1*
X48415Y15555D1*
Y15584D1*
X48401Y15627D1*
X48358Y15655D1*
X48286Y15670D1*
X48243D1*
X48172Y15655D1*
X48128Y15627D1*
X48114Y15584D1*
Y15555D1*
X48172Y15655D2*
X48358Y15483D1*
X48157Y15935D2*
X48128Y15920D1*
X48114Y15877D1*
Y15849D1*
X48128Y15806D1*
X48172Y15777D1*
X48243Y15763D1*
X48315D1*
X48372Y15777D1*
X48401Y15806D1*
X48415Y15849D1*
Y15863D1*
X48401Y15906D1*
X48372Y15935D1*
X48329Y15949D1*
X48315D1*
X48272Y15935D1*
X48243Y15906D1*
X48229Y15863D1*
Y15849D1*
X48243Y15806D1*
X48272Y15777D1*
X48315Y15763D1*
X51007Y7231D2*
Y7360D1*
X50993Y7403D1*
X50979Y7418D1*
X50950Y7432D1*
X50921D1*
X50893Y7418D1*
X50878Y7403D1*
X50864Y7360D1*
Y7231D1*
X51165D1*
X51007Y7332D2*
X51165Y7432D1*
X50936Y7539D2*
X50922D1*
X50893Y7554D1*
X50878Y7568D1*
X50864Y7597D1*
Y7654D1*
X50878Y7683D1*
X50893Y7697D1*
X50922Y7712D1*
X50950D1*
X50979Y7697D1*
X51022Y7668D1*
X51165Y7525D1*
Y7726D1*
X50864Y7905D2*
X50878Y7862D1*
X50922Y7833D1*
X50993Y7818D1*
X51036D1*
X51108Y7833D1*
X51151Y7862D1*
X51165Y7905D1*
Y7933D1*
X51151Y7976D1*
X51108Y8005D1*
X51036Y8019D1*
X50993D1*
X50922Y8005D1*
X50878Y7976D1*
X50864Y7933D1*
Y7905D1*
X50922Y8005D2*
X51108Y7833D1*
X51165Y8169D2*
X50864Y8313D1*
Y8112D1*
X52507Y7248D2*
Y7377D1*
X52493Y7420D1*
X52479Y7434D1*
X52450Y7449D1*
X52421D1*
X52393Y7434D1*
X52378Y7420D1*
X52364Y7377D1*
Y7248D1*
X52665D1*
X52507Y7348D2*
X52665Y7449D1*
X52436Y7556D2*
X52422D1*
X52393Y7570D1*
X52378Y7584D1*
X52364Y7613D1*
Y7671D1*
X52378Y7699D1*
X52393Y7713D1*
X52422Y7728D1*
X52450D1*
X52479Y7713D1*
X52522Y7685D1*
X52665Y7541D1*
Y7742D1*
X52364Y7921D2*
X52378Y7878D1*
X52422Y7849D1*
X52493Y7835D1*
X52536D1*
X52608Y7849D1*
X52651Y7878D1*
X52665Y7921D1*
Y7950D1*
X52651Y7993D1*
X52608Y8021D1*
X52536Y8036D1*
X52493D1*
X52422Y8021D1*
X52378Y7993D1*
X52364Y7950D1*
Y7921D1*
X52422Y8021D2*
X52608Y7849D1*
X52364Y8200D2*
X52378Y8157D1*
X52407Y8143D1*
X52436D1*
X52464Y8157D1*
X52479Y8186D1*
X52493Y8243D1*
X52507Y8286D1*
X52536Y8315D1*
X52565Y8329D1*
X52608D1*
X52636Y8315D1*
X52651Y8301D1*
X52665Y8257D1*
Y8200D1*
X52651Y8157D1*
X52636Y8143D1*
X52608Y8128D1*
X52565D1*
X52536Y8143D1*
X52507Y8172D1*
X52493Y8214D1*
X52479Y8272D1*
X52464Y8301D1*
X52436Y8315D1*
X52407D1*
X52378Y8301D1*
X52364Y8257D1*
Y8200D1*
X51757Y14863D2*
Y14992D1*
X51743Y15036D1*
X51729Y15050D1*
X51700Y15064D1*
X51671D1*
X51643Y15050D1*
X51628Y15036D1*
X51614Y14992D1*
Y14863D1*
X51915D1*
X51757Y14964D2*
X51915Y15064D1*
X51686Y15172D2*
X51672D1*
X51643Y15186D1*
X51628Y15200D1*
X51614Y15229D1*
Y15286D1*
X51628Y15315D1*
X51643Y15329D1*
X51672Y15344D1*
X51700D1*
X51729Y15329D1*
X51772Y15301D1*
X51915Y15157D1*
Y15358D1*
X51614Y15537D2*
X51628Y15494D1*
X51672Y15465D1*
X51743Y15451D1*
X51786D1*
X51858Y15465D1*
X51901Y15494D1*
X51915Y15537D1*
Y15565D1*
X51901Y15608D1*
X51858Y15637D1*
X51786Y15652D1*
X51743D1*
X51672Y15637D1*
X51628Y15608D1*
X51614Y15565D1*
Y15537D1*
X51672Y15637D2*
X51858Y15465D1*
X51714Y15931D2*
X51757Y15916D1*
X51786Y15888D1*
X51801Y15845D1*
Y15830D1*
X51786Y15787D1*
X51757Y15759D1*
X51714Y15744D1*
X51700D1*
X51657Y15759D1*
X51628Y15787D1*
X51614Y15830D1*
Y15845D1*
X51628Y15888D1*
X51657Y15916D1*
X51714Y15931D1*
X51786D1*
X51858Y15916D1*
X51901Y15888D1*
X51915Y15845D1*
Y15816D1*
X51901Y15773D1*
X51872Y15759D1*
X50257Y7296D2*
Y7425D1*
X50243Y7468D1*
X50229Y7482D1*
X50200Y7497D1*
X50171D1*
X50143Y7482D1*
X50128Y7468D1*
X50114Y7425D1*
Y7296D1*
X50415D1*
X50257Y7396D2*
X50415Y7497D1*
X50186Y7604D2*
X50172D1*
X50143Y7618D1*
X50128Y7632D1*
X50114Y7661D1*
Y7719D1*
X50128Y7747D1*
X50143Y7761D1*
X50172Y7776D1*
X50200D1*
X50229Y7761D1*
X50272Y7733D1*
X50415Y7589D1*
Y7790D1*
X50172Y7883D2*
X50157Y7912D1*
X50114Y7955D1*
X50415D1*
X50114Y8134D2*
X50128Y8091D1*
X50172Y8062D1*
X50243Y8048D1*
X50286D1*
X50358Y8062D1*
X50401Y8091D1*
X50415Y8134D1*
Y8162D1*
X50401Y8205D1*
X50358Y8234D1*
X50286Y8249D1*
X50243D1*
X50172Y8234D1*
X50128Y8205D1*
X50114Y8162D1*
Y8134D1*
X50172Y8234D2*
X50358Y8062D1*
X50195Y14941D2*
Y15070D1*
X50180Y15113D1*
X50166Y15128D1*
X50138Y15142D1*
X50109D1*
X50080Y15128D1*
X50066Y15113D1*
X50051Y15070D1*
Y14941D1*
X50353D1*
X50195Y15041D2*
X50353Y15142D1*
X50123Y15249D2*
X50109D1*
X50080Y15263D1*
X50066Y15278D1*
X50052Y15307D1*
Y15364D1*
X50066Y15392D1*
X50080Y15407D1*
X50109Y15421D1*
X50138D1*
X50166Y15407D1*
X50209Y15378D1*
X50353Y15235D1*
Y15436D1*
X50109Y15528D2*
X50094Y15557D1*
X50052Y15600D1*
X50353D1*
X50109Y15693D2*
X50094Y15722D1*
X50052Y15765D1*
X50353D1*
X43939Y11930D2*
X44068D1*
X44111Y11945D1*
X44126Y11959D1*
X44140Y11987D1*
Y12016D1*
X44126Y12045D1*
X44111Y12059D1*
X44068Y12074D1*
X43939D1*
Y11772D1*
X44039Y11930D2*
X44140Y11772D1*
X44247Y12002D2*
Y12016D1*
X44261Y12045D1*
X44276Y12059D1*
X44304Y12073D1*
X44362D1*
X44390Y12059D1*
X44405Y12045D1*
X44419Y12016D1*
Y11987D1*
X44405Y11959D1*
X44376Y11916D1*
X44232Y11772D1*
X44433D1*
X44526Y12016D2*
X44555Y12031D1*
X44598Y12073D1*
Y11772D1*
X44705Y12002D2*
Y12016D1*
X44719Y12045D1*
X44734Y12059D1*
X44763Y12073D1*
X44820D1*
X44848Y12059D1*
X44863Y12045D1*
X44877Y12016D1*
Y11987D1*
X44863Y11959D1*
X44834Y11916D1*
X44691Y11772D1*
X44892D1*
X43921Y11243D2*
X44050D1*
X44093Y11257D1*
X44107Y11272D1*
X44122Y11300D1*
Y11329D1*
X44107Y11357D1*
X44093Y11372D1*
X44050Y11386D1*
X43921D1*
Y11085D1*
X44021Y11243D2*
X44122Y11085D1*
X44229Y11314D2*
Y11329D1*
X44243Y11357D1*
X44257Y11372D1*
X44286Y11386D1*
X44344D1*
X44372Y11372D1*
X44386Y11357D1*
X44401Y11329D1*
Y11300D1*
X44386Y11271D1*
X44358Y11228D1*
X44214Y11085D1*
X44415D1*
X44508Y11329D2*
X44537Y11343D1*
X44580Y11386D1*
Y11085D1*
X44701Y11386D2*
X44859D1*
X44773Y11271D1*
X44816D1*
X44845Y11257D1*
X44859Y11243D1*
X44873Y11200D1*
Y11171D1*
X44859Y11128D1*
X44830Y11099D1*
X44787Y11085D1*
X44744D1*
X44701Y11099D1*
X44687Y11114D1*
X44672Y11142D1*
X30673Y18211D2*
Y18340D1*
X30658Y18383D1*
X30644Y18398D1*
X30615Y18412D1*
X30587D1*
X30558Y18398D1*
X30543Y18383D1*
X30529Y18340D1*
Y18211D1*
X30831D1*
X30673Y18312D2*
X30831Y18412D1*
X30529Y18534D2*
Y18691D1*
X30644Y18605D1*
Y18648D1*
X30658Y18677D1*
X30673Y18691D1*
X30716Y18706D1*
X30744D1*
X30787Y18691D1*
X30816Y18663D1*
X30831Y18620D1*
Y18576D1*
X30816Y18534D1*
X30802Y18519D1*
X30773Y18505D1*
X30529Y18885D2*
X30544Y18842D1*
X30587Y18813D1*
X30658Y18798D1*
X30702D1*
X30773Y18813D1*
X30816Y18842D1*
X30831Y18885D1*
Y18913D1*
X30816Y18956D1*
X30773Y18985D1*
X30702Y18999D1*
X30658D1*
X30587Y18985D1*
X30544Y18956D1*
X30529Y18913D1*
Y18885D1*
X30587Y18985D2*
X30773Y18813D1*
X30587Y19092D2*
X30572Y19121D1*
X30529Y19164D1*
X30831D1*
X29624Y13493D2*
X29753D1*
X29797Y13507D1*
X29811Y13522D1*
X29825Y13550D1*
Y13579D1*
X29811Y13607D1*
X29797Y13622D1*
X29753Y13636D1*
X29624D1*
Y13335D1*
X29725Y13493D2*
X29825Y13335D1*
X29947Y13636D2*
X30104D1*
X30019Y13521D1*
X30062D1*
X30090Y13507D1*
X30104Y13493D1*
X30119Y13450D1*
Y13421D1*
X30104Y13378D1*
X30076Y13349D1*
X30033Y13335D1*
X29990D1*
X29947Y13349D1*
X29933Y13364D1*
X29918Y13392D1*
X30298Y13636D2*
X30255Y13622D1*
X30226Y13579D1*
X30212Y13507D1*
Y13464D1*
X30226Y13392D1*
X30255Y13349D1*
X30298Y13335D1*
X30326D1*
X30370Y13349D1*
X30398Y13392D1*
X30413Y13464D1*
Y13507D1*
X30398Y13579D1*
X30370Y13622D1*
X30326Y13636D1*
X30298D1*
X30398Y13579D2*
X30226Y13392D1*
X30520Y13564D2*
Y13579D1*
X30534Y13607D1*
X30548Y13622D1*
X30577Y13636D1*
X30635D1*
X30663Y13622D1*
X30677Y13607D1*
X30692Y13579D1*
Y13550D1*
X30677Y13521D1*
X30649Y13478D1*
X30505Y13335D1*
X30706D1*
X29624Y14493D2*
X29753D1*
X29797Y14507D1*
X29811Y14522D1*
X29825Y14550D1*
Y14579D1*
X29811Y14607D1*
X29797Y14622D1*
X29753Y14636D1*
X29624D1*
Y14335D1*
X29725Y14493D2*
X29825Y14335D1*
X29947Y14636D2*
X30104D1*
X30019Y14521D1*
X30062D1*
X30090Y14507D1*
X30104Y14493D1*
X30119Y14450D1*
Y14421D1*
X30104Y14378D1*
X30076Y14349D1*
X30033Y14335D1*
X29990D1*
X29947Y14349D1*
X29933Y14364D1*
X29918Y14392D1*
X30298Y14636D2*
X30255Y14622D1*
X30226Y14579D1*
X30212Y14507D1*
Y14464D1*
X30226Y14392D1*
X30255Y14349D1*
X30298Y14335D1*
X30326D1*
X30370Y14349D1*
X30398Y14392D1*
X30413Y14464D1*
Y14507D1*
X30398Y14579D1*
X30370Y14622D1*
X30326Y14636D1*
X30298D1*
X30398Y14579D2*
X30226Y14392D1*
X30534Y14636D2*
X30692D1*
X30606Y14521D1*
X30649D1*
X30677Y14507D1*
X30692Y14493D1*
X30706Y14450D1*
Y14421D1*
X30692Y14378D1*
X30663Y14349D1*
X30620Y14335D1*
X30577D1*
X30534Y14349D1*
X30520Y14364D1*
X30505Y14392D1*
X29617Y15493D2*
X29746D1*
X29789Y15507D1*
X29804Y15522D1*
X29818Y15550D1*
Y15579D1*
X29804Y15607D1*
X29789Y15622D1*
X29746Y15636D1*
X29617D1*
Y15335D1*
X29718Y15493D2*
X29818Y15335D1*
X29940Y15636D2*
X30097D1*
X30011Y15521D1*
X30055D1*
X30083Y15507D1*
X30097Y15493D1*
X30112Y15450D1*
Y15421D1*
X30097Y15378D1*
X30069Y15349D1*
X30026Y15335D1*
X29983D1*
X29940Y15349D1*
X29926Y15364D1*
X29911Y15392D1*
X30291Y15636D2*
X30248Y15622D1*
X30219Y15579D1*
X30205Y15507D1*
Y15464D1*
X30219Y15392D1*
X30248Y15349D1*
X30291Y15335D1*
X30319D1*
X30362Y15349D1*
X30391Y15392D1*
X30406Y15464D1*
Y15507D1*
X30391Y15579D1*
X30362Y15622D1*
X30319Y15636D1*
X30291D1*
X30391Y15579D2*
X30219Y15392D1*
X30642Y15335D2*
Y15636D1*
X30498Y15435D1*
X30713D1*
X31044Y13493D2*
X31173D1*
X31216Y13507D1*
X31230Y13522D1*
X31245Y13550D1*
Y13579D1*
X31230Y13607D1*
X31216Y13622D1*
X31173Y13636D1*
X31044D1*
Y13335D1*
X31144Y13493D2*
X31245Y13335D1*
X31366Y13636D2*
X31524D1*
X31438Y13521D1*
X31481D1*
X31509Y13507D1*
X31524Y13493D1*
X31538Y13450D1*
Y13421D1*
X31524Y13378D1*
X31495Y13349D1*
X31452Y13335D1*
X31409D1*
X31366Y13349D1*
X31352Y13364D1*
X31337Y13392D1*
X31717Y13636D2*
X31674Y13622D1*
X31645Y13579D1*
X31631Y13507D1*
Y13464D1*
X31645Y13392D1*
X31674Y13349D1*
X31717Y13335D1*
X31746D1*
X31789Y13349D1*
X31817Y13392D1*
X31832Y13464D1*
Y13507D1*
X31817Y13579D1*
X31789Y13622D1*
X31746Y13636D1*
X31717D1*
X31817Y13579D2*
X31645Y13392D1*
X32097Y13636D2*
X31953D1*
X31939Y13507D1*
X31953Y13521D1*
X31997Y13536D1*
X32039D1*
X32082Y13521D1*
X32111Y13493D1*
X32126Y13450D1*
Y13421D1*
X32111Y13378D1*
X32082Y13349D1*
X32039Y13335D1*
X31997D1*
X31953Y13349D1*
X31939Y13364D1*
X31925Y13392D1*
X31051Y14493D2*
X31180D1*
X31223Y14507D1*
X31238Y14522D1*
X31252Y14550D1*
Y14579D1*
X31238Y14607D1*
X31223Y14622D1*
X31180Y14636D1*
X31051D1*
Y14335D1*
X31152Y14493D2*
X31252Y14335D1*
X31374Y14636D2*
X31531D1*
X31445Y14521D1*
X31488D1*
X31517Y14507D1*
X31531Y14493D1*
X31546Y14450D1*
Y14421D1*
X31531Y14378D1*
X31503Y14349D1*
X31459Y14335D1*
X31416D1*
X31374Y14349D1*
X31359Y14364D1*
X31345Y14392D1*
X31724Y14636D2*
X31681Y14622D1*
X31653Y14579D1*
X31638Y14507D1*
Y14464D1*
X31653Y14392D1*
X31681Y14349D1*
X31724Y14335D1*
X31753D1*
X31796Y14349D1*
X31825Y14392D1*
X31839Y14464D1*
Y14507D1*
X31825Y14579D1*
X31796Y14622D1*
X31753Y14636D1*
X31724D1*
X31825Y14579D2*
X31653Y14392D1*
X32104Y14593D2*
X32090Y14622D1*
X32047Y14636D1*
X32018D1*
X31975Y14622D1*
X31946Y14579D1*
X31932Y14507D1*
Y14435D1*
X31946Y14378D1*
X31975Y14349D1*
X32018Y14335D1*
X32032D1*
X32075Y14349D1*
X32104Y14378D1*
X32118Y14421D1*
Y14435D1*
X32104Y14478D1*
X32075Y14507D1*
X32032Y14521D1*
X32018D1*
X31975Y14507D1*
X31946Y14478D1*
X31932Y14435D1*
X31044Y15493D2*
X31173D1*
X31216Y15507D1*
X31230Y15522D1*
X31245Y15550D1*
Y15579D1*
X31230Y15607D1*
X31216Y15622D1*
X31173Y15636D1*
X31044D1*
Y15335D1*
X31144Y15493D2*
X31245Y15335D1*
X31366Y15636D2*
X31524D1*
X31438Y15521D1*
X31481D1*
X31509Y15507D1*
X31524Y15493D1*
X31538Y15450D1*
Y15421D1*
X31524Y15378D1*
X31495Y15349D1*
X31452Y15335D1*
X31409D1*
X31366Y15349D1*
X31352Y15364D1*
X31337Y15392D1*
X31717Y15636D2*
X31674Y15622D1*
X31645Y15579D1*
X31631Y15507D1*
Y15464D1*
X31645Y15392D1*
X31674Y15349D1*
X31717Y15335D1*
X31746D1*
X31789Y15349D1*
X31817Y15392D1*
X31832Y15464D1*
Y15507D1*
X31817Y15579D1*
X31789Y15622D1*
X31746Y15636D1*
X31717D1*
X31817Y15579D2*
X31645Y15392D1*
X31982Y15335D2*
X32126Y15636D1*
X31925D1*
X34292Y8243D2*
X34421D1*
X34464Y8258D1*
X34479Y8272D1*
X34493Y8301D1*
Y8330D1*
X34479Y8358D1*
X34464Y8373D1*
X34421Y8387D1*
X34292D1*
Y8086D1*
X34393Y8243D2*
X34493Y8086D1*
X34729D2*
Y8387D1*
X34586Y8186D1*
X34801D1*
X34980Y8387D2*
X34937Y8372D1*
X34908Y8329D1*
X34894Y8258D1*
Y8215D1*
X34908Y8143D1*
X34937Y8100D1*
X34980Y8086D1*
X35008D1*
X35052Y8100D1*
X35080Y8143D1*
X35095Y8215D1*
Y8258D1*
X35080Y8329D1*
X35052Y8372D1*
X35008Y8387D1*
X34980D1*
X35080Y8329D2*
X34908Y8143D1*
X35187Y8329D2*
X35216Y8344D1*
X35259Y8387D1*
Y8086D1*
X34246Y7681D2*
X34375D1*
X34418Y7695D1*
X34433Y7710D1*
X34447Y7738D1*
Y7767D1*
X34433Y7796D1*
X34418Y7810D1*
X34375Y7824D1*
X34246D1*
Y7523D1*
X34347Y7681D2*
X34447Y7523D1*
X34683D2*
Y7824D1*
X34540Y7623D1*
X34755D1*
X34934Y7824D2*
X34891Y7810D1*
X34862Y7767D1*
X34847Y7695D1*
Y7652D1*
X34862Y7580D1*
X34891Y7537D1*
X34934Y7523D1*
X34962D1*
X35005Y7537D1*
X35034Y7580D1*
X35048Y7652D1*
Y7695D1*
X35034Y7767D1*
X35005Y7810D1*
X34962Y7824D1*
X34934D1*
X35034Y7767D2*
X34862Y7580D1*
X35156Y7752D2*
Y7767D1*
X35170Y7796D1*
X35184Y7810D1*
X35213Y7824D1*
X35270D1*
X35299Y7810D1*
X35313Y7796D1*
X35328Y7767D1*
Y7738D1*
X35313Y7709D1*
X35285Y7667D1*
X35141Y7523D1*
X35342D1*
X25495Y7993D2*
X25624D1*
X25667Y8008D1*
X25682Y8022D1*
X25696Y8051D1*
Y8080D1*
X25682Y8108D1*
X25667Y8123D1*
X25624Y8137D1*
X25495D1*
Y7836D1*
X25596Y7993D2*
X25696Y7836D1*
X25932D2*
Y8137D1*
X25789Y7936D1*
X26004D1*
X26183Y8137D2*
X26140Y8122D1*
X26111Y8079D1*
X26097Y8008D1*
Y7965D1*
X26111Y7893D1*
X26140Y7850D1*
X26183Y7836D1*
X26211D1*
X26254Y7850D1*
X26283Y7893D1*
X26298Y7965D1*
Y8008D1*
X26283Y8079D1*
X26254Y8122D1*
X26211Y8137D1*
X26183D1*
X26283Y8079D2*
X26111Y7893D1*
X26419Y8137D2*
X26577D1*
X26491Y8022D1*
X26534D1*
X26562Y8008D1*
X26577Y7993D1*
X26591Y7950D1*
Y7922D1*
X26577Y7879D1*
X26548Y7850D1*
X26505Y7836D1*
X26462D1*
X26419Y7850D1*
X26405Y7864D1*
X26390Y7893D1*
X29238Y7390D2*
Y7519D1*
X29224Y7562D1*
X29210Y7577D1*
X29181Y7591D1*
X29152D1*
X29124Y7577D1*
X29109Y7562D1*
X29095Y7519D1*
Y7390D1*
X29396D1*
X29238Y7491D2*
X29396Y7591D1*
Y7828D2*
X29095D1*
X29296Y7684D1*
Y7899D1*
X29095Y8078D2*
X29109Y8035D1*
X29153Y8006D1*
X29224Y7992D1*
X29267D1*
X29339Y8006D1*
X29382Y8035D1*
X29396Y8078D1*
Y8107D1*
X29382Y8150D1*
X29339Y8178D1*
X29267Y8193D1*
X29224D1*
X29153Y8178D1*
X29109Y8150D1*
X29095Y8107D1*
Y8078D1*
X29153Y8178D2*
X29339Y8006D1*
X29095Y8457D2*
Y8314D1*
X29224Y8300D1*
X29210Y8314D1*
X29195Y8357D1*
Y8400D1*
X29210Y8443D1*
X29238Y8472D1*
X29282Y8486D1*
X29310D1*
X29353Y8472D1*
X29382Y8443D1*
X29396Y8400D1*
Y8357D1*
X29382Y8314D1*
X29367Y8300D1*
X29339Y8285D1*
X28558Y6743D2*
X28687D1*
X28730Y6758D1*
X28745Y6772D1*
X28759Y6801D1*
Y6829D1*
X28745Y6858D1*
X28730Y6873D1*
X28687Y6887D1*
X28558D1*
Y6585D1*
X28658Y6743D2*
X28759Y6585D1*
X28995D2*
Y6887D1*
X28852Y6686D1*
X29067D1*
X29246Y6887D2*
X29203Y6872D1*
X29174Y6829D1*
X29159Y6758D1*
Y6714D1*
X29174Y6643D1*
X29203Y6600D1*
X29246Y6585D1*
X29274D1*
X29317Y6600D1*
X29346Y6643D1*
X29360Y6714D1*
Y6758D1*
X29346Y6829D1*
X29317Y6872D1*
X29274Y6887D1*
X29246D1*
X29346Y6829D2*
X29174Y6643D1*
X29510Y6585D2*
X29654Y6887D1*
X29453D1*
X639Y4630D2*
X768D1*
X811Y4645D1*
X826Y4659D1*
X840Y4688D1*
Y4717D1*
X826Y4745D1*
X811Y4760D1*
X768Y4774D1*
X639D1*
Y4473D1*
X740Y4630D2*
X840Y4473D1*
X1105Y4774D2*
X962D1*
X947Y4645D1*
X962Y4659D1*
X1005Y4674D1*
X1048D1*
X1091Y4659D1*
X1120Y4630D1*
X1134Y4587D1*
Y4559D1*
X1120Y4516D1*
X1091Y4487D1*
X1048Y4473D1*
X1005D1*
X962Y4487D1*
X947Y4501D1*
X933Y4530D1*
X1313Y4774D2*
X1270Y4759D1*
X1241Y4716D1*
X1226Y4645D1*
Y4602D1*
X1241Y4530D1*
X1270Y4487D1*
X1313Y4473D1*
X1341D1*
X1384Y4487D1*
X1413Y4530D1*
X1427Y4602D1*
Y4645D1*
X1413Y4716D1*
X1384Y4759D1*
X1341Y4774D1*
X1313D1*
X1413Y4716D2*
X1241Y4530D1*
X1520Y4716D2*
X1549Y4731D1*
X1592Y4774D1*
Y4473D1*
X4512Y4630D2*
X4641D1*
X4684Y4645D1*
X4699Y4659D1*
X4713Y4688D1*
Y4717D1*
X4699Y4745D1*
X4684Y4760D1*
X4641Y4774D1*
X4512D1*
Y4473D1*
X4613Y4630D2*
X4713Y4473D1*
X4978Y4774D2*
X4835D1*
X4820Y4645D1*
X4835Y4659D1*
X4878Y4674D1*
X4921D1*
X4964Y4659D1*
X4993Y4630D1*
X5007Y4587D1*
Y4559D1*
X4993Y4516D1*
X4964Y4487D1*
X4921Y4473D1*
X4878D1*
X4835Y4487D1*
X4820Y4501D1*
X4806Y4530D1*
X5186Y4774D2*
X5143Y4759D1*
X5114Y4716D1*
X5099Y4645D1*
Y4602D1*
X5114Y4530D1*
X5143Y4487D1*
X5186Y4473D1*
X5214D1*
X5257Y4487D1*
X5286Y4530D1*
X5300Y4602D1*
Y4645D1*
X5286Y4716D1*
X5257Y4759D1*
X5214Y4774D1*
X5186D1*
X5286Y4716D2*
X5114Y4530D1*
X5408Y4702D2*
Y4716D1*
X5422Y4745D1*
X5436Y4759D1*
X5465Y4774D1*
X5522D1*
X5551Y4759D1*
X5565Y4745D1*
X5580Y4716D1*
Y4688D1*
X5565Y4659D1*
X5537Y4616D1*
X5393Y4473D1*
X5594D1*
X34294Y5055D2*
X34423D1*
X34466Y5069D1*
X34480Y5084D1*
X34495Y5112D1*
Y5141D1*
X34480Y5170D1*
X34466Y5184D1*
X34423Y5198D1*
X34294D1*
Y4897D1*
X34394Y5055D2*
X34495Y4897D1*
X34759Y5198D2*
X34616D1*
X34602Y5069D1*
X34616Y5083D1*
X34659Y5098D1*
X34702D1*
X34745Y5083D1*
X34774Y5055D1*
X34788Y5012D1*
Y4983D1*
X34774Y4940D1*
X34745Y4911D1*
X34702Y4897D1*
X34659D1*
X34616Y4911D1*
X34602Y4926D1*
X34587Y4954D1*
X34967Y5198D2*
X34924Y5184D1*
X34895Y5141D1*
X34881Y5069D1*
Y5026D1*
X34895Y4954D1*
X34924Y4911D1*
X34967Y4897D1*
X34996D1*
X35039Y4911D1*
X35067Y4954D1*
X35082Y5026D1*
Y5069D1*
X35067Y5141D1*
X35039Y5184D1*
X34996Y5198D1*
X34967D1*
X35067Y5141D2*
X34895Y4954D1*
X35203Y5198D2*
X35361D1*
X35275Y5083D1*
X35318D1*
X35347Y5069D1*
X35361Y5055D1*
X35376Y5012D1*
Y4983D1*
X35361Y4940D1*
X35332Y4911D1*
X35289Y4897D1*
X35246D1*
X35203Y4911D1*
X35189Y4926D1*
X35175Y4954D1*
X1880Y4630D2*
X2009D1*
X2052Y4645D1*
X2067Y4659D1*
X2081Y4688D1*
Y4717D1*
X2067Y4745D1*
X2052Y4760D1*
X2009Y4774D1*
X1880D1*
Y4473D1*
X1981Y4630D2*
X2081Y4473D1*
X2346Y4774D2*
X2203D1*
X2188Y4645D1*
X2203Y4659D1*
X2246Y4674D1*
X2288D1*
X2332Y4659D1*
X2360Y4630D1*
X2375Y4587D1*
Y4559D1*
X2360Y4516D1*
X2332Y4487D1*
X2288Y4473D1*
X2246D1*
X2203Y4487D1*
X2188Y4501D1*
X2174Y4530D1*
X2554Y4774D2*
X2510Y4759D1*
X2482Y4716D1*
X2467Y4645D1*
Y4602D1*
X2482Y4530D1*
X2510Y4487D1*
X2554Y4473D1*
X2582D1*
X2625Y4487D1*
X2654Y4530D1*
X2668Y4602D1*
Y4645D1*
X2654Y4716D1*
X2625Y4759D1*
X2582Y4774D1*
X2554D1*
X2654Y4716D2*
X2482Y4530D1*
X2905Y4473D2*
Y4774D1*
X2761Y4573D1*
X2976D1*
X3200Y4630D2*
X3329D1*
X3372Y4645D1*
X3386Y4659D1*
X3401Y4688D1*
Y4717D1*
X3386Y4745D1*
X3372Y4760D1*
X3329Y4774D1*
X3200D1*
Y4473D1*
X3300Y4630D2*
X3401Y4473D1*
X3665Y4774D2*
X3522D1*
X3508Y4645D1*
X3522Y4659D1*
X3565Y4674D1*
X3608D1*
X3651Y4659D1*
X3680Y4630D1*
X3694Y4587D1*
Y4559D1*
X3680Y4516D1*
X3651Y4487D1*
X3608Y4473D1*
X3565D1*
X3522Y4487D1*
X3508Y4501D1*
X3493Y4530D1*
X3873Y4774D2*
X3830Y4759D1*
X3801Y4716D1*
X3787Y4645D1*
Y4602D1*
X3801Y4530D1*
X3830Y4487D1*
X3873Y4473D1*
X3902D1*
X3945Y4487D1*
X3973Y4530D1*
X3988Y4602D1*
Y4645D1*
X3973Y4716D1*
X3945Y4759D1*
X3902Y4774D1*
X3873D1*
X3973Y4716D2*
X3801Y4530D1*
X4253Y4774D2*
X4109D1*
X4095Y4645D1*
X4109Y4659D1*
X4153Y4674D1*
X4195D1*
X4238Y4659D1*
X4267Y4630D1*
X4282Y4587D1*
Y4559D1*
X4267Y4516D1*
X4238Y4487D1*
X4195Y4473D1*
X4153D1*
X4109Y4487D1*
X4095Y4501D1*
X4081Y4530D1*
X6889Y10451D2*
Y10150D1*
X6789Y10451D2*
X6990D1*
X7082Y10393D2*
X7111Y10408D1*
X7154Y10451D1*
Y10150D1*
X7333Y10451D2*
X7290Y10437D1*
X7261Y10393D1*
X7247Y10322D1*
Y10279D1*
X7261Y10207D1*
X7290Y10164D1*
X7333Y10150D1*
X7362D1*
X7405Y10164D1*
X7433Y10207D1*
X7448Y10279D1*
Y10322D1*
X7433Y10393D1*
X7405Y10437D1*
X7362Y10451D1*
X7333D1*
X7433Y10393D2*
X7261Y10207D1*
X7541Y10393D2*
X7569Y10408D1*
X7613Y10451D1*
Y10150D1*
X21302Y10985D2*
Y10683D1*
X21201Y10985D2*
X21402D1*
X21495Y10927D2*
X21523Y10942D1*
X21567Y10984D1*
Y10683D1*
X21745Y10984D2*
X21702Y10970D1*
X21673Y10927D1*
X21659Y10855D1*
Y10812D1*
X21673Y10741D1*
X21702Y10698D1*
X21745Y10683D1*
X21774D1*
X21817Y10698D1*
X21846Y10741D1*
X21860Y10812D1*
Y10855D1*
X21846Y10927D1*
X21817Y10970D1*
X21774Y10984D1*
X21745D1*
X21846Y10927D2*
X21673Y10741D1*
X21967Y10913D2*
Y10927D1*
X21982Y10956D1*
X21996Y10970D1*
X22025Y10984D1*
X22082D1*
X22111Y10970D1*
X22125Y10956D1*
X22140Y10927D1*
Y10899D1*
X22125Y10870D1*
X22096Y10827D1*
X21953Y10683D1*
X22154D1*
X14195Y12699D2*
Y12484D1*
X14210Y12441D1*
X14238Y12412D1*
X14282Y12398D1*
X14310D1*
X14353Y12412D1*
X14382Y12441D1*
X14396Y12484D1*
Y12699D1*
X14489Y12642D2*
X14518Y12656D1*
X14561Y12699D1*
Y12398D1*
X14740Y12699D2*
X14697Y12685D1*
X14668Y12642D1*
X14654Y12570D1*
Y12527D1*
X14668Y12455D1*
X14697Y12412D1*
X14740Y12398D1*
X14768D1*
X14811Y12412D1*
X14840Y12455D1*
X14855Y12527D1*
Y12570D1*
X14840Y12642D1*
X14811Y12685D1*
X14768Y12699D1*
X14740D1*
X14840Y12642D2*
X14668Y12455D1*
X14947Y12642D2*
X14976Y12656D1*
X15019Y12699D1*
Y12398D1*
X21230Y17615D2*
Y17400D1*
X21245Y17357D1*
X21273Y17328D1*
X21317Y17314D1*
X21345D1*
X21388Y17328D1*
X21417Y17357D1*
X21431Y17400D1*
Y17615D1*
X21524Y17558D2*
X21553Y17572D1*
X21596Y17615D1*
Y17314D1*
X21775Y17615D2*
X21732Y17601D1*
X21703Y17558D1*
X21688Y17486D1*
Y17443D1*
X21703Y17371D1*
X21732Y17328D1*
X21775Y17314D1*
X21803D1*
X21846Y17328D1*
X21875Y17371D1*
X21889Y17443D1*
Y17486D1*
X21875Y17558D1*
X21846Y17601D1*
X21803Y17615D1*
X21775D1*
X21875Y17558D2*
X21703Y17371D1*
X21997Y17543D2*
Y17558D1*
X22011Y17586D1*
X22025Y17601D1*
X22054Y17615D1*
X22111D1*
X22140Y17601D1*
X22154Y17586D1*
X22169Y17558D1*
Y17529D1*
X22154Y17500D1*
X22126Y17457D1*
X21982Y17314D1*
X22183D1*
X51117Y4488D2*
X51332D1*
X51375Y4502D1*
X51404Y4531D1*
X51418Y4574D1*
Y4603D1*
X51404Y4646D1*
X51375Y4675D1*
X51332Y4689D1*
X51117D1*
X51189Y4796D2*
X51174D1*
X51146Y4811D1*
X51131Y4825D1*
X51117Y4854D1*
Y4911D1*
X51131Y4940D1*
X51146Y4954D1*
X51174Y4969D1*
X51203D1*
X51232Y4954D1*
X51275Y4925D1*
X51418Y4782D1*
Y4983D1*
X51117Y5162D2*
X51131Y5119D1*
X51174Y5090D1*
X51246Y5075D1*
X51289D1*
X51361Y5090D1*
X51404Y5119D1*
X51418Y5162D1*
Y5190D1*
X51404Y5233D1*
X51361Y5262D1*
X51289Y5276D1*
X51246D1*
X51174Y5262D1*
X51131Y5233D1*
X51117Y5190D1*
Y5162D1*
X51174Y5262D2*
X51361Y5090D1*
X51174Y5369D2*
X51160Y5398D1*
X51117Y5441D1*
X51418D1*
X46397Y10459D2*
Y10244D1*
X46411Y10201D1*
X46440Y10172D1*
X46483Y10158D1*
X46511D1*
X46554Y10172D1*
X46583Y10201D1*
X46598Y10244D1*
Y10459D1*
X46705Y10387D2*
Y10401D1*
X46719Y10430D1*
X46733Y10444D1*
X46762Y10459D1*
X46820D1*
X46848Y10444D1*
X46862Y10430D1*
X46877Y10401D1*
Y10373D1*
X46862Y10344D1*
X46834Y10301D1*
X46690Y10158D1*
X46891D1*
X47070Y10459D2*
X47027Y10444D1*
X46998Y10401D1*
X46984Y10330D1*
Y10287D1*
X46998Y10215D1*
X47027Y10172D1*
X47070Y10158D1*
X47099D1*
X47142Y10172D1*
X47170Y10215D1*
X47185Y10287D1*
Y10330D1*
X47170Y10401D1*
X47142Y10444D1*
X47099Y10459D1*
X47070D1*
X47170Y10401D2*
X46998Y10215D1*
X47292Y10387D2*
Y10401D1*
X47306Y10430D1*
X47321Y10444D1*
X47349Y10459D1*
X47407D1*
X47435Y10444D1*
X47450Y10430D1*
X47464Y10401D1*
Y10373D1*
X47450Y10344D1*
X47421Y10301D1*
X47277Y10158D1*
X47478D1*
X48041Y5763D2*
X48257D1*
X48300Y5777D1*
X48328Y5806D1*
X48343Y5849D1*
Y5878D1*
X48328Y5921D1*
X48300Y5949D1*
X48257Y5964D1*
X48041D1*
X48113Y6071D2*
X48099D1*
X48070Y6085D1*
X48056Y6099D1*
X48042Y6128D1*
Y6186D1*
X48056Y6214D1*
X48070Y6228D1*
X48099Y6243D1*
X48128D1*
X48156Y6228D1*
X48199Y6200D1*
X48343Y6056D1*
Y6257D1*
X48042Y6436D2*
X48056Y6393D1*
X48099Y6364D1*
X48171Y6350D1*
X48214D1*
X48285Y6364D1*
X48329Y6393D1*
X48343Y6436D1*
Y6465D1*
X48329Y6508D1*
X48285Y6536D1*
X48214Y6551D1*
X48171D1*
X48099Y6536D1*
X48056Y6508D1*
X48042Y6465D1*
Y6436D1*
X48099Y6536D2*
X48285Y6364D1*
X48042Y6672D2*
Y6830D1*
X48156Y6744D1*
Y6787D1*
X48171Y6816D1*
X48185Y6830D1*
X48228Y6845D1*
X48257D1*
X48300Y6830D1*
X48329Y6801D1*
X48343Y6758D1*
Y6715D1*
X48329Y6672D1*
X48314Y6658D1*
X48285Y6644D1*
X31148Y9308D2*
Y9093D1*
X31162Y9050D1*
X31191Y9022D1*
X31234Y9007D1*
X31263D1*
X31306Y9022D1*
X31335Y9050D1*
X31349Y9093D1*
Y9308D1*
X31585Y9007D2*
Y9308D1*
X31442Y9108D1*
X31657D1*
X31836Y9308D2*
X31793Y9294D1*
X31764Y9251D1*
X31750Y9179D1*
Y9136D1*
X31764Y9064D1*
X31793Y9021D1*
X31836Y9007D1*
X31864D1*
X31907Y9021D1*
X31936Y9064D1*
X31951Y9136D1*
Y9179D1*
X31936Y9251D1*
X31907Y9294D1*
X31864Y9308D1*
X31836D1*
X31936Y9251D2*
X31764Y9064D1*
X32043Y9251D2*
X32072Y9265D1*
X32115Y9308D1*
Y9007D1*
X9633Y47543D2*
D121*
Y46739D1*
X10169Y47543D2*
Y46739D1*
X9633Y47160D2*
X10169D1*
X10607Y47275D2*
X10531Y47237D1*
X10454Y47160D1*
X10416Y47045D1*
Y46969D1*
X10454Y46854D1*
X10531Y46778D1*
X10607Y46739D1*
X10722D1*
X10799Y46778D1*
X10875Y46854D1*
X10914Y46969D1*
Y47045D1*
X10875Y47160D1*
X10799Y47237D1*
X10722Y47275D1*
X10607D1*
X11161Y47543D2*
Y46739D1*
X11408Y47045D2*
X11867D1*
Y47122D1*
X11828Y47199D1*
X11790Y47237D1*
X11714Y47275D1*
X11599D1*
X11523Y47237D1*
X11446Y47160D1*
X11408Y47045D1*
Y46969D1*
X11446Y46854D1*
X11523Y46778D1*
X11599Y46739D1*
X11714D1*
X11790Y46778D1*
X11867Y46854D1*
X4643Y45585D2*
X4987D1*
X5102Y45624D1*
X5141Y45662D1*
X5179Y45738D1*
Y45815D1*
X5141Y45891D1*
X5102Y45930D1*
X4987Y45968D1*
X4643D1*
Y45164D1*
X4911Y45585D2*
X5179Y45164D1*
X5617Y45700D2*
X5541Y45662D1*
X5464Y45585D1*
X5426Y45470D1*
Y45394D1*
X5464Y45279D1*
X5541Y45203D1*
X5617Y45164D1*
X5732D1*
X5809Y45203D1*
X5885Y45279D1*
X5924Y45394D1*
Y45470D1*
X5885Y45585D1*
X5809Y45662D1*
X5732Y45700D1*
X5617D1*
X6171D2*
Y45317D1*
X6209Y45203D1*
X6286Y45164D1*
X6401D1*
X6477Y45203D1*
X6592Y45317D1*
Y45700D2*
Y45164D1*
X6839Y45700D2*
Y45164D1*
Y45547D2*
X6954Y45662D1*
X7031Y45700D1*
X7145D1*
X7222Y45662D1*
X7260Y45547D1*
Y45164D1*
X7966Y45968D2*
Y45164D1*
Y45585D2*
X7890Y45662D1*
X7813Y45700D1*
X7698D1*
X7622Y45662D1*
X7545Y45585D1*
X7507Y45470D1*
Y45394D1*
X7545Y45279D1*
X7622Y45203D1*
X7698Y45164D1*
X7813D1*
X7890Y45203D1*
X7966Y45279D1*
X8991Y45814D2*
X9068Y45853D1*
X9183Y45967D1*
Y45164D1*
X9469Y45776D2*
Y45814D1*
X9507Y45891D1*
X9545Y45929D1*
X9622Y45967D1*
X9775D1*
X9851Y45929D1*
X9889Y45891D1*
X9928Y45814D1*
Y45738D1*
X9889Y45661D1*
X9813Y45547D1*
X9430Y45164D1*
X9966D1*
X10990Y45700D2*
Y45164D1*
Y45547D2*
X11105Y45662D1*
X11182Y45700D1*
X11296D1*
X11373Y45662D1*
X11411Y45547D1*
Y45164D1*
Y45547D2*
X11526Y45662D1*
X11603Y45700D1*
X11717D1*
X11794Y45662D1*
X11833Y45547D1*
Y45164D1*
X12080Y45968D2*
X12118Y45930D1*
X12157Y45968D1*
X12118Y46007D1*
X12080Y45968D1*
X12118Y45700D2*
Y45164D1*
X12404Y45968D2*
Y45164D1*
X4643Y44010D2*
X4987D1*
X5102Y44049D1*
X5141Y44087D1*
X5179Y44163D1*
Y44240D1*
X5141Y44316D1*
X5102Y44355D1*
X4987Y44393D1*
X4643D1*
Y43589D1*
X4911Y44010D2*
X5179Y43589D1*
X5617Y44125D2*
X5541Y44087D1*
X5464Y44010D1*
X5426Y43895D1*
Y43819D1*
X5464Y43704D1*
X5541Y43628D1*
X5617Y43589D1*
X5732D1*
X5809Y43628D1*
X5885Y43704D1*
X5924Y43819D1*
Y43895D1*
X5885Y44010D1*
X5809Y44087D1*
X5732Y44125D1*
X5617D1*
X6171D2*
Y43742D1*
X6209Y43628D1*
X6286Y43589D1*
X6401D1*
X6477Y43628D1*
X6592Y43742D1*
Y44125D2*
Y43589D1*
X6839Y44125D2*
Y43589D1*
Y43972D2*
X6954Y44087D1*
X7031Y44125D1*
X7145D1*
X7222Y44087D1*
X7260Y43972D1*
Y43589D1*
X7966Y44393D2*
Y43589D1*
Y44010D2*
X7890Y44087D1*
X7813Y44125D1*
X7698D1*
X7622Y44087D1*
X7545Y44010D1*
X7507Y43895D1*
Y43819D1*
X7545Y43704D1*
X7622Y43628D1*
X7698Y43589D1*
X7813D1*
X7890Y43628D1*
X7966Y43704D1*
X9068Y44392D2*
X9488D1*
X9259Y44086D1*
X9374D1*
X9450Y44048D1*
X9488Y44010D1*
X9527Y43895D1*
Y43819D1*
X9488Y43704D1*
X9412Y43627D1*
X9297Y43589D1*
X9182D1*
X9068Y43627D1*
X9030Y43666D1*
X8991Y43742D1*
X10272Y44125D2*
X10233Y44010D1*
X10157Y43933D1*
X10042Y43895D1*
X10004D1*
X9889Y43933D1*
X9813Y44010D1*
X9774Y44125D1*
Y44163D1*
X9813Y44278D1*
X9889Y44354D1*
X10004Y44392D1*
X10042D1*
X10157Y44354D1*
X10233Y44278D1*
X10272Y44125D1*
Y43933D1*
X10233Y43742D1*
X10157Y43627D1*
X10042Y43589D1*
X9966D1*
X9851Y43627D1*
X9813Y43704D1*
X10557Y43666D2*
X10519Y43627D1*
X10557Y43589D1*
X10595Y43627D1*
X10557Y43666D1*
X11225Y43589D2*
Y44392D1*
X10843Y43857D1*
X11416D1*
X12441Y44125D2*
Y43589D1*
Y43972D2*
X12556Y44087D1*
X12633Y44125D1*
X12747D1*
X12824Y44087D1*
X12862Y43972D1*
Y43589D1*
Y43972D2*
X12977Y44087D1*
X13054Y44125D1*
X13168D1*
X13245Y44087D1*
X13284Y43972D1*
Y43589D1*
X13531Y44393D2*
X13569Y44355D1*
X13608Y44393D1*
X13569Y44432D1*
X13531Y44393D1*
X13569Y44125D2*
Y43589D1*
X13855Y44393D2*
Y43589D1*
X4643Y42435D2*
X4987D1*
X5102Y42474D1*
X5141Y42512D1*
X5179Y42588D1*
Y42665D1*
X5141Y42741D1*
X5102Y42780D1*
X4987Y42818D1*
X4643D1*
Y42014D1*
X4911Y42435D2*
X5179Y42014D1*
X5617Y42550D2*
X5541Y42512D1*
X5464Y42435D1*
X5426Y42320D1*
Y42244D1*
X5464Y42129D1*
X5541Y42053D1*
X5617Y42014D1*
X5732D1*
X5809Y42053D1*
X5885Y42129D1*
X5924Y42244D1*
Y42320D1*
X5885Y42435D1*
X5809Y42512D1*
X5732Y42550D1*
X5617D1*
X6171D2*
Y42167D1*
X6209Y42053D1*
X6286Y42014D1*
X6401D1*
X6477Y42053D1*
X6592Y42167D1*
Y42550D2*
Y42014D1*
X6839Y42550D2*
Y42014D1*
Y42397D2*
X6954Y42512D1*
X7031Y42550D1*
X7145D1*
X7222Y42512D1*
X7260Y42397D1*
Y42014D1*
X7966Y42818D2*
Y42014D1*
Y42435D2*
X7890Y42512D1*
X7813Y42550D1*
X7698D1*
X7622Y42512D1*
X7545Y42435D1*
X7507Y42320D1*
Y42244D1*
X7545Y42129D1*
X7622Y42053D1*
X7698Y42014D1*
X7813D1*
X7890Y42053D1*
X7966Y42129D1*
X9374Y42014D2*
Y42817D1*
X8991Y42282D1*
X9565D1*
X9889Y42817D2*
X10309D1*
X10080Y42511D1*
X10195D1*
X10271Y42473D1*
X10309Y42435D1*
X10348Y42320D1*
Y42244D1*
X10309Y42129D1*
X10233Y42053D1*
X10118Y42014D1*
X10003D1*
X9889Y42053D1*
X9851Y42091D1*
X9812Y42167D1*
X10633Y42091D2*
X10595Y42053D1*
X10633Y42014D1*
X10672Y42053D1*
X10633Y42091D1*
X10996Y42817D2*
X11416D1*
X11187Y42511D1*
X11301D1*
X11378Y42473D1*
X11416Y42435D1*
X11454Y42320D1*
Y42244D1*
X11416Y42129D1*
X11340Y42053D1*
X11225Y42014D1*
X11110D1*
X10996Y42053D1*
X10957Y42091D1*
X10919Y42167D1*
X12479Y42550D2*
Y42014D1*
Y42397D2*
X12594Y42512D1*
X12671Y42550D1*
X12785D1*
X12862Y42512D1*
X12900Y42397D1*
Y42014D1*
Y42397D2*
X13015Y42512D1*
X13092Y42550D1*
X13206D1*
X13283Y42512D1*
X13322Y42397D1*
Y42014D1*
X13569Y42818D2*
X13607Y42780D1*
X13646Y42818D1*
X13607Y42857D1*
X13569Y42818D1*
X13607Y42550D2*
Y42014D1*
X13893Y42818D2*
Y42014D1*
X4643Y40861D2*
X4987D1*
X5102Y40900D1*
X5141Y40938D1*
X5179Y41014D1*
Y41091D1*
X5141Y41167D1*
X5102Y41206D1*
X4987Y41244D1*
X4643D1*
Y40440D1*
X4911Y40861D2*
X5179Y40440D1*
X5617Y40976D2*
X5541Y40938D1*
X5464Y40861D1*
X5426Y40746D1*
Y40670D1*
X5464Y40555D1*
X5541Y40479D1*
X5617Y40440D1*
X5732D1*
X5809Y40479D1*
X5885Y40555D1*
X5924Y40670D1*
Y40746D1*
X5885Y40861D1*
X5809Y40938D1*
X5732Y40976D1*
X5617D1*
X6171D2*
Y40593D1*
X6209Y40479D1*
X6286Y40440D1*
X6401D1*
X6477Y40479D1*
X6592Y40593D1*
Y40976D2*
Y40440D1*
X6839Y40976D2*
Y40440D1*
Y40823D2*
X6954Y40938D1*
X7031Y40976D1*
X7145D1*
X7222Y40938D1*
X7260Y40823D1*
Y40440D1*
X7966Y41244D2*
Y40440D1*
Y40861D2*
X7890Y40938D1*
X7813Y40976D1*
X7698D1*
X7622Y40938D1*
X7545Y40861D1*
X7507Y40746D1*
Y40670D1*
X7545Y40555D1*
X7622Y40479D1*
X7698Y40440D1*
X7813D1*
X7890Y40479D1*
X7966Y40555D1*
X9374Y40440D2*
Y41243D1*
X8991Y40708D1*
X9565D1*
X10310Y40976D2*
X10271Y40861D1*
X10195Y40784D1*
X10080Y40746D1*
X10042D1*
X9927Y40784D1*
X9851Y40861D1*
X9812Y40976D1*
Y41014D1*
X9851Y41129D1*
X9927Y41205D1*
X10042Y41243D1*
X10080D1*
X10195Y41205D1*
X10271Y41129D1*
X10310Y40976D1*
Y40784D1*
X10271Y40593D1*
X10195Y40478D1*
X10080Y40440D1*
X10004D1*
X9889Y40478D1*
X9851Y40555D1*
X10595Y40517D2*
X10557Y40478D1*
X10595Y40440D1*
X10634Y40478D1*
X10595Y40517D1*
X10919Y41052D2*
Y41090D1*
X10957Y41167D1*
X10996Y41205D1*
X11072Y41243D1*
X11225D1*
X11301Y41205D1*
X11340Y41167D1*
X11378Y41090D1*
Y41014D1*
X11340Y40937D1*
X11263Y40823D1*
X10881Y40440D1*
X11416D1*
X12441Y40976D2*
Y40440D1*
Y40823D2*
X12556Y40938D1*
X12633Y40976D1*
X12747D1*
X12824Y40938D1*
X12862Y40823D1*
Y40440D1*
Y40823D2*
X12977Y40938D1*
X13054Y40976D1*
X13168D1*
X13245Y40938D1*
X13284Y40823D1*
Y40440D1*
X13531Y41244D2*
X13569Y41206D1*
X13608Y41244D1*
X13569Y41282D1*
X13531Y41244D1*
X13569Y40976D2*
Y40440D1*
X13855Y41244D2*
Y40440D1*
X4643Y39286D2*
X4987D1*
X5102Y39325D1*
X5141Y39363D1*
X5179Y39439D1*
Y39516D1*
X5141Y39592D1*
X5102Y39631D1*
X4987Y39669D1*
X4643D1*
Y38865D1*
X4911Y39286D2*
X5179Y38865D1*
X5617Y39401D2*
X5541Y39363D1*
X5464Y39286D1*
X5426Y39171D1*
Y39095D1*
X5464Y38980D1*
X5541Y38904D1*
X5617Y38865D1*
X5732D1*
X5809Y38904D1*
X5885Y38980D1*
X5924Y39095D1*
Y39171D1*
X5885Y39286D1*
X5809Y39363D1*
X5732Y39401D1*
X5617D1*
X6171D2*
Y39018D1*
X6209Y38904D1*
X6286Y38865D1*
X6401D1*
X6477Y38904D1*
X6592Y39018D1*
Y39401D2*
Y38865D1*
X6839Y39401D2*
Y38865D1*
Y39248D2*
X6954Y39363D1*
X7031Y39401D1*
X7145D1*
X7222Y39363D1*
X7260Y39248D1*
Y38865D1*
X7966Y39669D2*
Y38865D1*
Y39286D2*
X7890Y39363D1*
X7813Y39401D1*
X7698D1*
X7622Y39363D1*
X7545Y39286D1*
X7507Y39171D1*
Y39095D1*
X7545Y38980D1*
X7622Y38904D1*
X7698Y38865D1*
X7813D1*
X7890Y38904D1*
X7966Y38980D1*
X9450Y39668D2*
X9068D1*
X9030Y39324D1*
X9068Y39362D1*
X9183Y39401D1*
X9297D1*
X9412Y39362D1*
X9489Y39286D1*
X9527Y39171D1*
Y39095D1*
X9489Y38980D1*
X9412Y38903D1*
X9297Y38865D1*
X9183D1*
X9068Y38903D1*
X9030Y38942D1*
X8991Y39018D1*
X9774Y39515D2*
X9851Y39554D1*
X9966Y39668D1*
Y38865D1*
X10251Y38942D2*
X10213Y38903D1*
X10251Y38865D1*
X10290Y38903D1*
X10251Y38942D1*
X10575Y39477D2*
Y39515D1*
X10613Y39592D1*
X10652Y39630D1*
X10728Y39668D1*
X10881D1*
X10957Y39630D1*
X10996Y39592D1*
X11034Y39515D1*
Y39439D1*
X10996Y39362D1*
X10919Y39248D1*
X10537Y38865D1*
X11072D1*
X12097Y39401D2*
Y38865D1*
Y39248D2*
X12212Y39363D1*
X12289Y39401D1*
X12403D1*
X12480Y39363D1*
X12518Y39248D1*
Y38865D1*
Y39248D2*
X12633Y39363D1*
X12710Y39401D1*
X12824D1*
X12901Y39363D1*
X12940Y39248D1*
Y38865D1*
X13187Y39669D2*
X13225Y39631D1*
X13264Y39669D1*
X13225Y39708D1*
X13187Y39669D1*
X13225Y39401D2*
Y38865D1*
X13511Y39669D2*
Y38865D1*
X19562Y47352D2*
X19524Y47428D1*
X19447Y47505D1*
X19371Y47543D1*
X19218D1*
X19141Y47505D1*
X19065Y47428D1*
X19026Y47352D1*
X18988Y47237D1*
Y47045D1*
X19026Y46931D1*
X19065Y46854D1*
X19141Y46778D1*
X19218Y46739D1*
X19371D1*
X19447Y46778D1*
X19524Y46854D1*
X19562Y46931D1*
X20000Y47275D2*
X19924Y47237D1*
X19847Y47160D1*
X19809Y47045D1*
Y46969D1*
X19847Y46854D1*
X19924Y46778D1*
X20000Y46739D1*
X20115D1*
X20192Y46778D1*
X20268Y46854D1*
X20307Y46969D1*
Y47045D1*
X20268Y47160D1*
X20192Y47237D1*
X20115Y47275D1*
X20000D1*
X20554D2*
Y46892D1*
X20592Y46778D1*
X20669Y46739D1*
X20784D1*
X20860Y46778D1*
X20975Y46892D1*
Y47275D2*
Y46739D1*
X21222Y47275D2*
Y46739D1*
Y47122D2*
X21337Y47237D1*
X21414Y47275D1*
X21528D1*
X21605Y47237D1*
X21643Y47122D1*
Y46739D1*
X22005Y47543D2*
Y46892D1*
X22043Y46778D1*
X22120Y46739D1*
X22196D1*
X21890Y47275D2*
X22158D1*
X18226Y45853D2*
X18188Y45929D1*
X18073Y45967D1*
X17997D1*
X17882Y45929D1*
X17805Y45814D1*
X17767Y45623D1*
Y45432D1*
X17805Y45279D1*
X17882Y45202D1*
X17997Y45164D1*
X18035D1*
X18149Y45202D1*
X18226Y45279D1*
X18264Y45394D1*
Y45432D1*
X18226Y45547D1*
X18149Y45623D1*
X18035Y45661D1*
X17997D1*
X17882Y45623D1*
X17805Y45547D1*
X17767Y45432D1*
X18894Y45164D2*
Y45967D1*
X18511Y45432D1*
X19085D1*
X19523Y45967D2*
X19409Y45929D1*
X19370Y45853D1*
Y45776D1*
X19409Y45700D1*
X19485Y45661D1*
X19638Y45623D1*
X19753Y45585D1*
X19829Y45508D1*
X19867Y45432D1*
Y45317D1*
X19829Y45241D1*
X19791Y45202D1*
X19676Y45164D1*
X19523D1*
X19409Y45202D1*
X19370Y45241D1*
X19332Y45317D1*
Y45432D1*
X19370Y45508D1*
X19447Y45585D1*
X19561Y45623D1*
X19714Y45661D1*
X19791Y45700D1*
X19829Y45776D1*
Y45853D1*
X19791Y45929D1*
X19676Y45967D1*
X19523D1*
X17767Y44239D2*
X17844Y44278D1*
X17959Y44392D1*
Y43589D1*
X18283Y44392D2*
X18703D1*
X18474Y44086D1*
X18589D1*
X18665Y44048D1*
X18703Y44010D1*
X18742Y43895D1*
Y43819D1*
X18703Y43704D1*
X18627Y43627D1*
X18512Y43589D1*
X18397D1*
X18283Y43627D1*
X18245Y43666D1*
X18206Y43742D1*
X17767Y42664D2*
X17844Y42703D1*
X17959Y42817D1*
Y42014D1*
X18665Y42817D2*
X18283D1*
X18245Y42473D1*
X18283Y42511D1*
X18398Y42550D1*
X18512D1*
X18627Y42511D1*
X18704Y42435D1*
X18742Y42320D1*
Y42244D1*
X18704Y42129D1*
X18627Y42053D1*
X18512Y42014D1*
X18398D1*
X18283Y42053D1*
X18245Y42091D1*
X18206Y42167D1*
X19028Y42626D2*
Y42664D1*
X19066Y42741D1*
X19104Y42779D1*
X19180Y42817D1*
X19333D1*
X19410Y42779D1*
X19448Y42741D1*
X19486Y42664D1*
Y42588D1*
X19448Y42511D1*
X19372Y42397D1*
X18989Y42014D1*
X19524D1*
X17844Y41243D2*
X18264D1*
X18035Y40937D1*
X18150D1*
X18226Y40899D1*
X18264Y40861D1*
X18303Y40746D1*
Y40670D1*
X18264Y40555D1*
X18188Y40478D1*
X18073Y40440D1*
X17958D1*
X17844Y40478D1*
X17806Y40517D1*
X17767Y40593D1*
X18150Y38865D2*
Y39668D1*
X17767Y39133D1*
X18341D1*
X685Y-4386D2*
D42*
X62D1*
Y-5391D1*
Y-4865D2*
X445D1*
X1567Y-4721D2*
Y-5391D1*
Y-4865D2*
X1472Y-4769D1*
X1376Y-4721D1*
X1233D1*
X1137Y-4769D1*
X1042Y-4865D1*
X994Y-5009D1*
Y-5104D1*
X1042Y-5247D1*
X1137Y-5342D1*
X1233Y-5391D1*
X1376D1*
X1472Y-5342D1*
X1567Y-5247D1*
X1876Y-4386D2*
Y-5391D1*
Y-4865D2*
X1972Y-4769D1*
X2067Y-4721D1*
X2211D1*
X2306Y-4769D1*
X2402Y-4865D1*
X2450Y-5009D1*
Y-5104D1*
X2402Y-5247D1*
X2306Y-5342D1*
X2211Y-5391D1*
X2067D1*
X1972Y-5342D1*
X1876Y-5247D1*
X4400Y-4386D2*
Y-5391D1*
X3731Y-4386D1*
Y-5391D1*
X4948Y-4721D2*
X4853Y-4769D1*
X4757Y-4865D1*
X4709Y-5009D1*
Y-5104D1*
X4757Y-5247D1*
X4853Y-5342D1*
X4948Y-5391D1*
X5092D1*
X5188Y-5342D1*
X5283Y-5247D1*
X5332Y-5104D1*
Y-5009D1*
X5283Y-4865D1*
X5188Y-4769D1*
X5092Y-4721D1*
X4948D1*
X5784Y-4386D2*
Y-5200D1*
X5832Y-5342D1*
X5928Y-5391D1*
X6023D1*
X5640Y-4721D2*
X5975D1*
X6332Y-5009D2*
X6905D1*
Y-4912D1*
X6858Y-4816D1*
X6810Y-4769D1*
X6714Y-4721D1*
X6570D1*
X6475Y-4769D1*
X6379Y-4865D1*
X6332Y-5009D1*
Y-5104D1*
X6379Y-5247D1*
X6475Y-5342D1*
X6570Y-5391D1*
X6714D1*
X6810Y-5342D1*
X6905Y-5247D1*
X7740Y-4865D2*
X7693Y-4769D1*
X7549Y-4721D1*
X7405D1*
X7262Y-4769D1*
X7214Y-4865D1*
X7262Y-4960D1*
X7358Y-5009D1*
X7597Y-5056D1*
X7693Y-5104D1*
X7740Y-5200D1*
Y-5247D1*
X7693Y-5342D1*
X7549Y-5391D1*
X7405D1*
X7262Y-5342D1*
X7214Y-5247D1*
X8098Y-4721D2*
X8049Y-4770D1*
X8098Y-4817D1*
X8145Y-4770D1*
X8098Y-4721D1*
Y-5295D2*
X8049Y-5344D1*
X8098Y-5391D1*
X8145Y-5344D1*
X8098Y-5295D1*
X1750Y-6954D2*
X1846Y-6905D1*
X1990Y-6763D1*
Y-7766D1*
X2299Y-6500D2*
X2395Y-6595D1*
X2490Y-6738D1*
X2586Y-6930D1*
X2634Y-7169D1*
Y-7361D1*
X2586Y-7599D1*
X2490Y-7791D1*
X2395Y-7934D1*
X2299Y-8029D1*
X3963Y-7001D2*
Y-6954D1*
X4011Y-6858D1*
X4058Y-6810D1*
X4154Y-6763D1*
X4346D1*
X4441Y-6810D1*
X4488Y-6858D1*
X4537Y-6954D1*
Y-7049D1*
X4488Y-7145D1*
X4393Y-7288D1*
X3915Y-7766D1*
X4584D1*
X5865Y-6762D2*
Y-7766D1*
X6439D1*
X7514D2*
X7130Y-6762D1*
X6748Y-7766D1*
X6891Y-7431D2*
X7370D1*
X7822Y-6762D2*
X8205Y-7240D1*
Y-7766D1*
X8587Y-6762D2*
X8205Y-7240D1*
X9517Y-6762D2*
X8896D1*
Y-7766D1*
X9517D1*
X8896Y-7240D2*
X9279D1*
X9826D2*
X10256D1*
X10400Y-7192D1*
X10449Y-7144D1*
X10496Y-7049D1*
Y-6953D1*
X10449Y-6858D1*
X10400Y-6809D1*
X10256Y-6762D1*
X9826D1*
Y-7766D1*
X10161Y-7240D2*
X10496Y-7766D1*
X11777Y-7288D2*
X12208D1*
X12351Y-7240D1*
X12399Y-7192D1*
X12447Y-7096D1*
Y-6953D1*
X12399Y-6858D1*
X12351Y-6809D1*
X12208Y-6762D1*
X11777D1*
Y-7766D1*
X13473Y-7000D2*
X13425Y-6905D1*
X13329Y-6809D1*
X13234Y-6762D1*
X13043D1*
X12947Y-6809D1*
X12852Y-6905D1*
X12803Y-7000D1*
X12756Y-7144D1*
Y-7384D1*
X12803Y-7526D1*
X12852Y-7623D1*
X12947Y-7718D1*
X13043Y-7766D1*
X13234D1*
X13329Y-7718D1*
X13425Y-7623D1*
X13473Y-7526D1*
X13782Y-6762D2*
Y-7766D1*
X14213D1*
X14357Y-7718D1*
X14404Y-7670D1*
X14452Y-7575D1*
Y-7431D1*
X14404Y-7335D1*
X14357Y-7288D1*
X14213Y-7240D1*
X14357Y-7192D1*
X14404Y-7144D1*
X14452Y-7049D1*
Y-6953D1*
X14404Y-6858D1*
X14357Y-6809D1*
X14213Y-6762D1*
X13782D1*
Y-7240D2*
X14213D1*
X16020Y-6763D2*
X15876Y-6810D1*
X15780Y-6954D1*
X15732Y-7193D1*
Y-7336D1*
X15780Y-7575D1*
X15876Y-7719D1*
X16020Y-7766D1*
X16115D1*
X16259Y-7719D1*
X16354Y-7575D1*
X16402Y-7336D1*
Y-7193D1*
X16354Y-6954D1*
X16259Y-6810D1*
X16115Y-6763D1*
X16020D1*
X16354Y-6954D2*
X15780Y-7575D1*
X16759Y-7670D2*
X16711Y-7719D1*
X16759Y-7766D1*
X16807Y-7719D1*
X16759Y-7670D1*
X17403Y-6763D2*
X17260Y-6810D1*
X17164Y-6954D1*
X17116Y-7193D1*
Y-7336D1*
X17164Y-7575D1*
X17260Y-7719D1*
X17403Y-7766D1*
X17498D1*
X17642Y-7719D1*
X17737Y-7575D1*
X17786Y-7336D1*
Y-7193D1*
X17737Y-6954D1*
X17642Y-6810D1*
X17498Y-6763D1*
X17403D1*
X17737Y-6954D2*
X17164Y-7575D1*
X18668Y-6905D2*
X18621Y-6810D1*
X18477Y-6763D1*
X18382D1*
X18238Y-6810D1*
X18142Y-6954D1*
X18095Y-7193D1*
Y-7431D1*
X18142Y-7623D1*
X18238Y-7719D1*
X18382Y-7766D1*
X18430D1*
X18572Y-7719D1*
X18668Y-7623D1*
X18716Y-7479D1*
Y-7431D1*
X18668Y-7288D1*
X18572Y-7193D1*
X18430Y-7145D1*
X18382D1*
X18238Y-7193D1*
X18142Y-7288D1*
X18095Y-7431D1*
X19073Y-7001D2*
Y-6954D1*
X19121Y-6858D1*
X19168Y-6810D1*
X19265Y-6763D1*
X19456D1*
X19551Y-6810D1*
X19598Y-6858D1*
X19647Y-6954D1*
Y-7049D1*
X19598Y-7145D1*
X19503Y-7288D1*
X19025Y-7766D1*
X19695D1*
X21310Y-6762D2*
Y-7766D1*
X20975Y-6762D2*
X21645D1*
X21954D2*
Y-7766D1*
X22624Y-6762D2*
Y-7766D1*
X21954Y-7240D2*
X22624D1*
X22933Y-6762D2*
Y-7766D1*
X23959Y-7000D2*
X23911Y-6905D1*
X23815Y-6809D1*
X23720Y-6762D1*
X23529D1*
X23433Y-6809D1*
X23338Y-6905D1*
X23289Y-7000D1*
X23241Y-7144D1*
Y-7384D1*
X23289Y-7526D1*
X23338Y-7623D1*
X23433Y-7718D1*
X23529Y-7766D1*
X23720D1*
X23815Y-7718D1*
X23911Y-7623D1*
X23959Y-7526D1*
X24268Y-6762D2*
Y-7766D1*
X24937Y-6762D2*
X24268Y-7431D1*
X24506Y-7192D2*
X24937Y-7766D1*
X26553Y-6500D2*
X26457Y-6595D1*
X26362Y-6738D1*
X26266Y-6930D1*
X26218Y-7169D1*
Y-7361D1*
X26266Y-7599D1*
X26362Y-7791D1*
X26457Y-7934D1*
X26553Y-8029D1*
X27292Y-6834D2*
Y-7695D1*
X26862Y-7265D2*
X27723D1*
X28032Y-7766D2*
X28702Y-6763D1*
X29011Y-7264D2*
X29563D1*
X29872Y-6954D2*
X29968Y-6905D1*
X30112Y-6763D1*
Y-7766D1*
X30708Y-6763D2*
X30564Y-6810D1*
X30468Y-6954D1*
X30421Y-7193D1*
Y-7336D1*
X30468Y-7575D1*
X30564Y-7719D1*
X30708Y-7766D1*
X30803D1*
X30947Y-7719D1*
X31042Y-7575D1*
X31091Y-7336D1*
Y-7193D1*
X31042Y-6954D1*
X30947Y-6810D1*
X30803Y-6763D1*
X30708D1*
X31042Y-6954D2*
X30468Y-7575D1*
X31543Y-6858D2*
X31638Y-6954D1*
X31543Y-7049D1*
X31447Y-6954D1*
X31543Y-6858D1*
X31829Y-7575D2*
X31925Y-7670D1*
X31829Y-7766D1*
X31734Y-7670D1*
X31829Y-7575D1*
X31399Y-7766D2*
X31973Y-6858D1*
X32282Y-6500D2*
X32378Y-6595D1*
X32473Y-6738D1*
X32569Y-6930D1*
X32617Y-7169D1*
Y-7361D1*
X32569Y-7599D1*
X32473Y-7791D1*
X32378Y-7934D1*
X32282Y-8029D1*
X1799Y-9064D2*
Y-9017D1*
X1846Y-8920D1*
X1894Y-8873D1*
X1990Y-8825D1*
X2181D1*
X2276Y-8873D1*
X2324Y-8920D1*
X2372Y-9017D1*
Y-9112D1*
X2324Y-9208D1*
X2229Y-9350D1*
X1750Y-9829D1*
X2420D1*
X2729Y-8562D2*
X2825Y-8657D1*
X2920Y-8801D1*
X3016Y-8992D1*
X3064Y-9232D1*
Y-9423D1*
X3016Y-9662D1*
X2920Y-9853D1*
X2825Y-9997D1*
X2729Y-10092D1*
X4967Y-8824D2*
X4345D1*
Y-9829D1*
Y-9303D2*
X4727D1*
X5276D2*
X5706D1*
X5849Y-9254D1*
X5898Y-9207D1*
X5945Y-9112D1*
Y-9015D1*
X5898Y-8920D1*
X5849Y-8872D1*
X5706Y-8824D1*
X5276D1*
Y-9829D1*
X5611Y-9303D2*
X5945Y-9829D1*
X6733D2*
Y-8825D1*
X6254Y-9494D1*
X6972D1*
X1909Y-11013D2*
X2434D1*
X2148Y-11396D1*
X2291D1*
X2386Y-11443D1*
X2434Y-11491D1*
X2482Y-11634D1*
Y-11729D1*
X2434Y-11873D1*
X2339Y-11969D1*
X2195Y-12017D1*
X2051D1*
X1909Y-11969D1*
X1861Y-11921D1*
X1813Y-11826D1*
X2791Y-10750D2*
X2887Y-10845D1*
X2983Y-10989D1*
X3079Y-11180D1*
X3126Y-11420D1*
Y-11611D1*
X3079Y-11850D1*
X2983Y-12041D1*
X2887Y-12185D1*
X2791Y-12280D1*
X4407Y-11204D2*
X4503Y-11156D1*
X4647Y-11013D1*
Y-12017D1*
X5243Y-11012D2*
X5147Y-11059D1*
X5052Y-11156D1*
X5003Y-11251D1*
X4956Y-11394D1*
Y-11634D1*
X5003Y-11777D1*
X5052Y-11873D1*
X5147Y-11968D1*
X5243Y-12017D1*
X5434D1*
X5529Y-11968D1*
X5626Y-11873D1*
X5673Y-11777D1*
X5721Y-11634D1*
Y-11394D1*
X5673Y-11251D1*
X5626Y-11156D1*
X5529Y-11059D1*
X5434Y-11012D1*
X5243D1*
X6029D2*
X6699D1*
X6029Y-12017D1*
X6699D1*
X8315Y-11012D2*
Y-12017D1*
X7980Y-11012D2*
X8650D1*
X9246D2*
X9150Y-11059D1*
X9055Y-11156D1*
X9006Y-11251D1*
X8959Y-11394D1*
Y-11634D1*
X9006Y-11777D1*
X9055Y-11873D1*
X9150Y-11968D1*
X9246Y-12017D1*
X9437D1*
X9532Y-11968D1*
X9629Y-11873D1*
X9676Y-11777D1*
X9724Y-11634D1*
Y-11394D1*
X9676Y-11251D1*
X9629Y-11156D1*
X9532Y-11059D1*
X9437Y-11012D1*
X9246D1*
X11053Y-11252D2*
Y-11204D1*
X11101Y-11108D1*
X11148Y-11061D1*
X11244Y-11013D1*
X11436D1*
X11531Y-11061D1*
X11578Y-11108D1*
X11627Y-11204D1*
Y-11299D1*
X11578Y-11396D1*
X11483Y-11538D1*
X11004Y-12017D1*
X11674D1*
X12270Y-11012D2*
X12174Y-11059D1*
X12079Y-11156D1*
X12031Y-11251D1*
X11983Y-11394D1*
Y-11634D1*
X12031Y-11777D1*
X12079Y-11873D1*
X12174Y-11968D1*
X12270Y-12017D1*
X12462D1*
X12557Y-11968D1*
X12653Y-11873D1*
X12700Y-11777D1*
X12748Y-11634D1*
Y-11394D1*
X12700Y-11251D1*
X12653Y-11156D1*
X12557Y-11059D1*
X12462Y-11012D1*
X12270D1*
X13057D2*
X13727D1*
X13057Y-12017D1*
X13727D1*
X15630Y-11012D2*
X15007D1*
Y-12017D1*
Y-11491D2*
X15390D1*
X15939Y-11012D2*
Y-12017D1*
X16917Y-11012D2*
Y-12017D1*
X16247Y-11012D1*
Y-12017D1*
X17226Y-11012D2*
Y-12017D1*
X18205Y-11156D2*
X18110Y-11059D1*
X17966Y-11012D1*
X17775D1*
X17631Y-11059D1*
X17535Y-11156D1*
Y-11251D1*
X17583Y-11347D1*
X17631Y-11394D1*
X17726Y-11442D1*
X18013Y-11538D1*
X18110Y-11586D1*
X18157Y-11634D1*
X18205Y-11729D1*
Y-11873D1*
X18110Y-11968D1*
X17966Y-12017D1*
X17775D1*
X17631Y-11968D1*
X17535Y-11873D1*
X18513Y-11012D2*
Y-12017D1*
X19183Y-11012D2*
Y-12017D1*
X18513Y-11491D2*
X19183D1*
X20113Y-11012D2*
X19492D1*
Y-12017D1*
X20113D1*
X19492Y-11491D2*
X19875D1*
X20422Y-11012D2*
Y-12017D1*
X20757D1*
X20901Y-11968D1*
X20997Y-11873D1*
X21044Y-11777D1*
X21092Y-11634D1*
Y-11394D1*
X21044Y-11251D1*
X20997Y-11156D1*
X20901Y-11059D1*
X20757Y-11012D1*
X20422D1*
X2291Y-14142D2*
Y-13138D1*
X1813Y-13807D1*
X2530D1*
X2839Y-12875D2*
X2935Y-12970D1*
X3030Y-13114D1*
X3126Y-13305D1*
X3174Y-13545D1*
Y-13736D1*
X3126Y-13975D1*
X3030Y-14166D1*
X2935Y-14310D1*
X2839Y-14405D1*
X5076Y-13137D2*
X4455D1*
Y-14142D1*
X5076D1*
X4455Y-13616D2*
X4837D1*
X6054Y-13137D2*
Y-14142D1*
X5385Y-13137D1*
Y-14142D1*
X6363Y-13137D2*
Y-14142D1*
X7389Y-13376D2*
X7342Y-13281D1*
X7246Y-13185D1*
X7151Y-13137D1*
X6959D1*
X6863Y-13185D1*
X6768Y-13281D1*
X6720Y-13376D1*
X6672Y-13520D1*
Y-13760D1*
X6720Y-13902D1*
X6768Y-13998D1*
X6863Y-14093D1*
X6959Y-14142D1*
X7151D1*
X7246Y-14093D1*
X7342Y-13998D1*
X7389Y-13902D1*
Y-13760D1*
X7151D1*
X8958Y-13137D2*
X8861Y-13185D1*
X8766Y-13281D1*
X8718Y-13376D1*
X8670Y-13520D1*
Y-13760D1*
X8718Y-13902D1*
X8766Y-13998D1*
X8861Y-14093D1*
X8958Y-14142D1*
X9149D1*
X9244Y-14093D1*
X9340Y-13998D1*
X9388Y-13902D1*
X9435Y-13760D1*
Y-13520D1*
X9388Y-13376D1*
X9340Y-13281D1*
X9244Y-13185D1*
X9149Y-13137D1*
X8958D1*
X9744Y-13616D2*
X10174D1*
X10318Y-13567D1*
X10366Y-13520D1*
X10414Y-13425D1*
Y-13328D1*
X10366Y-13233D1*
X10318Y-13185D1*
X10174Y-13137D1*
X9744D1*
Y-14142D1*
X10079Y-13616D2*
X10414Y-14142D1*
X11695Y-13137D2*
Y-14142D1*
X12268D1*
X13199Y-13137D2*
X12577D1*
Y-14142D1*
Y-13616D2*
X12960D1*
X13508Y-13640D2*
X14061D1*
X14370Y-13137D2*
Y-14142D1*
X15040Y-13137D2*
Y-14142D1*
X14370Y-13616D2*
X15040D1*
X16114Y-14142D2*
X15731Y-13137D1*
X15348Y-14142D1*
X15492Y-13807D2*
X15971D1*
X17093Y-13281D2*
X16998Y-13185D1*
X16854Y-13137D1*
X16663D1*
X16519Y-13185D1*
X16423Y-13281D1*
Y-13376D1*
X16472Y-13472D1*
X16519Y-13520D1*
X16614Y-13567D1*
X16902Y-13663D1*
X16998Y-13711D1*
X17045Y-13760D1*
X17093Y-13855D1*
Y-13998D1*
X16998Y-14093D1*
X16854Y-14142D1*
X16663D1*
X16519Y-14093D1*
X16423Y-13998D1*
X17402Y-13137D2*
Y-14142D1*
X17975D1*
X2324Y-15514D2*
X1846D1*
X1799Y-15944D1*
X1846Y-15896D1*
X1990Y-15847D1*
X2133D1*
X2276Y-15896D1*
X2372Y-15991D1*
X2420Y-16135D1*
Y-16230D1*
X2372Y-16374D1*
X2276Y-16470D1*
X2133Y-16517D1*
X1990D1*
X1846Y-16470D1*
X1799Y-16421D1*
X1750Y-16326D1*
X2729Y-15250D2*
X2825Y-15346D1*
X2920Y-15489D1*
X3016Y-15680D1*
X3064Y-15920D1*
Y-16112D1*
X3016Y-16350D1*
X2920Y-16542D1*
X2825Y-16685D1*
X2729Y-16780D1*
X5014Y-15656D2*
X4919Y-15560D1*
X4776Y-15512D1*
X4584D1*
X4441Y-15560D1*
X4345Y-15656D1*
Y-15751D1*
X4393Y-15847D1*
X4441Y-15895D1*
X4536Y-15942D1*
X4823Y-16039D1*
X4919Y-16086D1*
X4967Y-16135D1*
X5014Y-16230D1*
Y-16374D1*
X4919Y-16469D1*
X4776Y-16517D1*
X4584D1*
X4441Y-16469D1*
X4345Y-16374D1*
X5611Y-15512D2*
X5514Y-15560D1*
X5419Y-15656D1*
X5371Y-15751D1*
X5323Y-15895D1*
Y-16135D1*
X5371Y-16277D1*
X5419Y-16374D1*
X5514Y-16469D1*
X5611Y-16517D1*
X5802D1*
X5897Y-16469D1*
X5993Y-16374D1*
X6041Y-16277D1*
X6088Y-16135D1*
Y-15895D1*
X6041Y-15751D1*
X5993Y-15656D1*
X5897Y-15560D1*
X5802Y-15512D1*
X5611D1*
X6397D2*
Y-16517D1*
X6971D1*
X7279Y-15512D2*
Y-16517D1*
X7614D1*
X7758Y-16469D1*
X7854Y-16374D1*
X7902Y-16277D1*
X7949Y-16135D1*
Y-15895D1*
X7902Y-15751D1*
X7854Y-15656D1*
X7758Y-15560D1*
X7614Y-15512D1*
X7279D1*
X8879D2*
X8258D1*
Y-16517D1*
X8879D1*
X8258Y-15991D2*
X8640D1*
X9188D2*
X9618D1*
X9762Y-15942D1*
X9810Y-15895D1*
X9858Y-15800D1*
Y-15704D1*
X9810Y-15609D1*
X9762Y-15560D1*
X9618Y-15512D1*
X9188D1*
Y-16517D1*
X9523Y-15991D2*
X9858Y-16517D1*
X10932D2*
Y-15512D1*
X10549Y-16517D1*
X10167Y-15512D1*
Y-16517D1*
X12006D2*
X11623Y-15512D1*
X11240Y-16517D1*
X11384Y-16182D2*
X11863D1*
X12985Y-15656D2*
X12890Y-15560D1*
X12746Y-15512D1*
X12555D1*
X12411Y-15560D1*
X12315Y-15656D1*
Y-15751D1*
X12364Y-15847D1*
X12411Y-15895D1*
X12506Y-15942D1*
X12794Y-16039D1*
X12890Y-16086D1*
X12938Y-16135D1*
X12985Y-16230D1*
Y-16374D1*
X12890Y-16469D1*
X12746Y-16517D1*
X12555D1*
X12411Y-16469D1*
X12315Y-16374D1*
X13294Y-15512D2*
Y-16517D1*
X13964Y-15512D2*
X13294Y-16182D1*
X13533Y-15942D2*
X13964Y-16517D1*
X15245Y-16015D2*
X15797D1*
X17795Y-15751D2*
X17748Y-15656D1*
X17652Y-15560D1*
X17557Y-15512D1*
X17365D1*
X17269Y-15560D1*
X17174Y-15656D1*
X17126Y-15751D1*
X17078Y-15895D1*
Y-16135D1*
X17126Y-16277D1*
X17174Y-16374D1*
X17269Y-16469D1*
X17365Y-16517D1*
X17557D1*
X17652Y-16469D1*
X17748Y-16374D1*
X17795Y-16277D1*
Y-16135D1*
X17557D1*
X18104Y-15991D2*
X18534D1*
X18678Y-15942D1*
X18727Y-15895D1*
X18774Y-15800D1*
Y-15704D1*
X18727Y-15609D1*
X18678Y-15560D1*
X18534Y-15512D1*
X18104D1*
Y-16517D1*
X18439Y-15991D2*
X18774Y-16517D1*
X19704Y-15512D2*
X19083D1*
Y-16517D1*
X19704D1*
X19083Y-15991D2*
X19465D1*
X20634Y-15512D2*
X20013D1*
Y-16517D1*
X20634D1*
X20013Y-15991D2*
X20395D1*
X21613Y-15512D2*
Y-16517D1*
X20943Y-15512D1*
Y-16517D1*
X21970Y-15847D2*
X21922Y-15896D1*
X21970Y-15944D1*
X22018Y-15896D1*
X21970Y-15847D1*
X22018Y-16470D2*
X21970Y-16517D1*
X21922Y-16470D1*
X21970Y-16421D1*
X22018Y-16470D1*
Y-16565D1*
X21970Y-16661D1*
X21922Y-16708D1*
X23968Y-15656D2*
X23873Y-15560D1*
X23730Y-15512D1*
X23538D1*
X23395Y-15560D1*
X23299Y-15656D1*
Y-15751D1*
X23347Y-15847D1*
X23395Y-15895D1*
X23490Y-15942D1*
X23777Y-16039D1*
X23873Y-16086D1*
X23921Y-16135D1*
X23968Y-16230D1*
Y-16374D1*
X23873Y-16469D1*
X23730Y-16517D1*
X23538D1*
X23395Y-16469D1*
X23299Y-16374D1*
X24277Y-15512D2*
Y-16517D1*
X24586Y-15512D2*
Y-16517D1*
X25160D1*
X25468Y-15512D2*
Y-16517D1*
X26138Y-15512D2*
X25468Y-16182D1*
X25707Y-15942D2*
X26138Y-16517D1*
X27419Y-16015D2*
X27972D1*
X29253Y-15512D2*
X29492Y-16517D1*
X29731Y-15512D1*
X29970Y-16517D1*
X30210Y-15512D1*
X30519D2*
Y-16517D1*
X31189Y-15512D2*
Y-16517D1*
X30519Y-15991D2*
X31189D1*
X31497Y-15512D2*
Y-16517D1*
X32141Y-15512D2*
Y-16517D1*
X31806Y-15512D2*
X32476D1*
X33406D2*
X32785D1*
Y-16517D1*
X33406D1*
X32785Y-15991D2*
X33167D1*
X2386Y-18031D2*
X2339Y-17936D1*
X2195Y-17889D1*
X2100D1*
X1956Y-17936D1*
X1860Y-18080D1*
X1813Y-18319D1*
Y-18558D1*
X1860Y-18749D1*
X1956Y-18845D1*
X2100Y-18892D1*
X2148D1*
X2290Y-18845D1*
X2386Y-18749D1*
X2434Y-18605D1*
Y-18558D1*
X2386Y-18414D1*
X2290Y-18319D1*
X2148Y-18271D1*
X2100D1*
X1956Y-18319D1*
X1860Y-18414D1*
X1813Y-18558D1*
X2743Y-17626D2*
X2839Y-17721D1*
X2934Y-17864D1*
X3030Y-18056D1*
X3078Y-18296D1*
Y-18487D1*
X3030Y-18726D1*
X2934Y-18917D1*
X2839Y-19060D1*
X2743Y-19156D1*
X4358Y-18414D2*
X4789D1*
X4932Y-18366D1*
X4981Y-18318D1*
X5028Y-18223D1*
Y-18079D1*
X4981Y-17984D1*
X4932Y-17935D1*
X4789Y-17888D1*
X4358D1*
Y-18892D1*
X6103D2*
X5719Y-17888D1*
X5337Y-18892D1*
X5481Y-18558D2*
X5959D1*
X6412Y-18366D2*
X6842D1*
X6986Y-18318D1*
X7034Y-18270D1*
X7082Y-18175D1*
Y-18079D1*
X7034Y-17984D1*
X6986Y-17935D1*
X6842Y-17888D1*
X6412D1*
Y-18892D1*
X6747Y-18366D2*
X7082Y-18892D1*
X7725Y-17888D2*
Y-18892D1*
X7391Y-17888D2*
X8060D1*
X10011Y-18031D2*
X9916Y-17935D1*
X9772Y-17888D1*
X9581D1*
X9437Y-17935D1*
X9341Y-18031D1*
Y-18126D1*
X9390Y-18223D1*
X9437Y-18270D1*
X9532Y-18318D1*
X9820Y-18414D1*
X9916Y-18461D1*
X9964Y-18510D1*
X10011Y-18605D1*
Y-18749D1*
X9916Y-18844D1*
X9772Y-18892D1*
X9581D1*
X9437Y-18844D1*
X9341Y-18749D1*
X10320Y-17888D2*
Y-18605D1*
X10367Y-18749D1*
X10464Y-18844D1*
X10607Y-18892D1*
X10702D1*
X10846Y-18844D1*
X10942Y-18749D1*
X10990Y-18605D1*
Y-17888D1*
X11298D2*
Y-18892D1*
X11730D1*
X11873Y-18844D1*
X11921Y-18796D1*
X11968Y-18701D1*
Y-18558D1*
X11921Y-18461D1*
X11873Y-18414D1*
X11730Y-18366D1*
X11873Y-18318D1*
X11921Y-18270D1*
X11968Y-18175D1*
Y-18079D1*
X11921Y-17984D1*
X11873Y-17935D1*
X11730Y-17888D1*
X11298D1*
Y-18366D2*
X11730D1*
X12947Y-18031D2*
X12852Y-17935D1*
X12708Y-17888D1*
X12517D1*
X12373Y-17935D1*
X12277Y-18031D1*
Y-18126D1*
X12326Y-18223D1*
X12373Y-18270D1*
X12468Y-18318D1*
X12756Y-18414D1*
X12852Y-18461D1*
X12899Y-18510D1*
X12947Y-18605D1*
Y-18749D1*
X12852Y-18844D1*
X12708Y-18892D1*
X12517D1*
X12373Y-18844D1*
X12277Y-18749D1*
X13591Y-17888D2*
Y-18892D1*
X13256Y-17888D2*
X13926D1*
X14234D2*
Y-18892D1*
X14878Y-17888D2*
Y-18892D1*
X14543Y-17888D2*
X15213D1*
X15522D2*
Y-18605D1*
X15569Y-18749D1*
X15666Y-18844D1*
X15809Y-18892D1*
X15904D1*
X16048Y-18844D1*
X16144Y-18749D1*
X16192Y-18605D1*
Y-17888D1*
X16835D2*
Y-18892D1*
X16501Y-17888D2*
X17170D1*
X17479D2*
Y-18892D1*
X18075Y-17888D2*
X17979Y-17935D1*
X17884Y-18031D1*
X17835Y-18126D1*
X17788Y-18270D1*
Y-18510D1*
X17835Y-18653D1*
X17884Y-18749D1*
X17979Y-18844D1*
X18075Y-18892D1*
X18267D1*
X18362Y-18844D1*
X18458Y-18749D1*
X18505Y-18653D1*
X18553Y-18510D1*
Y-18270D1*
X18505Y-18126D1*
X18458Y-18031D1*
X18362Y-17935D1*
X18267Y-17888D1*
X18075D1*
X19532D2*
Y-18892D1*
X18862Y-17888D1*
Y-18892D1*
X20812Y-18391D2*
X21365D1*
X23267Y-17888D2*
X22646D1*
Y-18892D1*
X23267D1*
X22646Y-18366D2*
X23028D1*
X24246Y-17888D2*
Y-18892D1*
X23576Y-17888D1*
Y-18892D1*
X25272Y-18126D2*
X25224Y-18031D1*
X25128Y-17935D1*
X25033Y-17888D1*
X24842D1*
X24746Y-17935D1*
X24651Y-18031D1*
X24602Y-18126D1*
X24555Y-18270D1*
Y-18510D1*
X24602Y-18653D1*
X24651Y-18749D1*
X24746Y-18844D1*
X24842Y-18892D1*
X25033D1*
X25128Y-18844D1*
X25224Y-18749D1*
X25272Y-18653D1*
Y-18510D1*
X25033D1*
X25581Y-17888D2*
Y-18892D1*
X26559Y-17888D2*
Y-18892D1*
X25889Y-17888D1*
Y-18892D1*
X27489Y-17888D2*
X26868D1*
Y-18892D1*
X27489D1*
X26868Y-18366D2*
X27251D1*
X28419Y-17888D2*
X27798D1*
Y-18892D1*
X28419D1*
X27798Y-18366D2*
X28181D1*
X28728D2*
X29158D1*
X29302Y-18318D1*
X29350Y-18270D1*
X29398Y-18175D1*
Y-18079D1*
X29350Y-17984D1*
X29302Y-17935D1*
X29158Y-17888D1*
X28728D1*
Y-18892D1*
X29063Y-18366D2*
X29398Y-18892D1*
X29707Y-17888D2*
Y-18892D1*
X30685Y-17888D2*
Y-18892D1*
X30016Y-17888D1*
Y-18892D1*
X31712Y-18126D2*
X31664Y-18031D1*
X31568Y-17935D1*
X31473Y-17888D1*
X31282D1*
X31185Y-17935D1*
X31090Y-18031D1*
X31042Y-18126D1*
X30994Y-18270D1*
Y-18510D1*
X31042Y-18653D1*
X31090Y-18749D1*
X31185Y-18844D1*
X31282Y-18892D1*
X31473D1*
X31568Y-18844D1*
X31664Y-18749D1*
X31712Y-18653D1*
Y-18510D1*
X31473D1*
X33758Y-18892D2*
X33375Y-17888D1*
X32992Y-18892D1*
X33136Y-18558D2*
X33615D1*
X34067Y-18414D2*
X34498D1*
X34641Y-18366D1*
X34690Y-18318D1*
X34737Y-18223D1*
Y-18079D1*
X34690Y-17984D1*
X34641Y-17935D1*
X34498Y-17888D1*
X34067D1*
Y-18892D1*
X35046Y-18414D2*
X35477D1*
X35620Y-18366D1*
X35668Y-18318D1*
X35716Y-18223D1*
Y-18079D1*
X35668Y-17984D1*
X35620Y-17935D1*
X35477Y-17888D1*
X35046D1*
Y-18892D1*
X36025Y-18366D2*
X36455D1*
X36598Y-18318D1*
X36647Y-18270D1*
X36694Y-18175D1*
Y-18079D1*
X36647Y-17984D1*
X36598Y-17935D1*
X36455Y-17888D1*
X36025D1*
Y-18892D1*
X36360Y-18366D2*
X36694Y-18892D1*
X37291Y-17888D2*
X37194Y-17935D1*
X37099Y-18031D1*
X37051Y-18126D1*
X37003Y-18270D1*
Y-18510D1*
X37051Y-18653D1*
X37099Y-18749D1*
X37194Y-18844D1*
X37291Y-18892D1*
X37482D1*
X37577Y-18844D1*
X37673Y-18749D1*
X37721Y-18653D1*
X37768Y-18510D1*
Y-18270D1*
X37721Y-18126D1*
X37673Y-18031D1*
X37577Y-17935D1*
X37482Y-17888D1*
X37291D1*
X38077D2*
X38459Y-18892D1*
X38842Y-17888D1*
X39917Y-18892D2*
X39533Y-17888D1*
X39151Y-18892D1*
X39294Y-18558D2*
X39773D1*
X40225Y-17888D2*
Y-18892D1*
X40799D1*
X42367Y-17888D2*
X42271Y-17935D1*
X42176Y-18031D1*
X42128Y-18126D1*
X42080Y-18270D1*
Y-18510D1*
X42128Y-18653D1*
X42176Y-18749D1*
X42271Y-18844D1*
X42367Y-18892D1*
X42559D1*
X42654Y-18844D1*
X42750Y-18749D1*
X42797Y-18653D1*
X42845Y-18510D1*
Y-18270D1*
X42797Y-18126D1*
X42750Y-18031D1*
X42654Y-17935D1*
X42559Y-17888D1*
X42367D1*
X43824D2*
Y-18892D1*
X43154Y-17888D1*
Y-18892D1*
X44132Y-17888D2*
Y-18892D1*
X44706D1*
X45015Y-17888D2*
X45397Y-18366D1*
Y-18892D1*
X45780Y-17888D2*
X45397Y-18366D1*
X43568Y3506D2*
D12*
X43769D1*
Y3592D1*
X43759Y3621D1*
X43750Y3630D1*
X43731Y3640D1*
X43702D1*
X43683Y3630D1*
X43673Y3621D1*
X43664Y3592D1*
X43654Y3621D1*
X43644Y3630D1*
X43625Y3640D1*
X43606D1*
X43587Y3630D1*
X43577Y3621D1*
X43568Y3592D1*
Y3506D1*
X43664D2*
Y3592D1*
X43568Y3759D2*
X43577Y3740D1*
X43597Y3721D1*
X43616Y3711D1*
X43644Y3702D1*
X43692D1*
X43721Y3711D1*
X43740Y3721D1*
X43759Y3740D1*
X43769Y3759D1*
Y3797D1*
X43759Y3816D1*
X43740Y3835D1*
X43721Y3845D1*
X43692Y3854D1*
X43644D1*
X43616Y3845D1*
X43597Y3835D1*
X43577Y3816D1*
X43568Y3797D1*
Y3759D1*
X43769Y4069D2*
X43568Y3993D1*
X43769Y3916D1*
X43702Y3945D2*
Y4041D1*
X43664Y4131D2*
Y4217D1*
X43654Y4246D1*
X43644Y4256D1*
X43625Y4265D1*
X43606D1*
X43587Y4256D1*
X43577Y4246D1*
X43568Y4217D1*
Y4131D1*
X43769D1*
X43664Y4198D2*
X43769Y4265D1*
X43568Y4327D2*
X43769D1*
Y4394D1*
X43759Y4423D1*
X43740Y4442D1*
X43721Y4451D1*
X43692Y4461D1*
X43644D1*
X43616Y4451D1*
X43597Y4442D1*
X43577Y4423D1*
X43568Y4394D1*
Y4327D1*
Y4841D2*
Y4717D1*
X43769D1*
Y4841D1*
X43664Y4717D2*
Y4794D1*
X43568Y4903D2*
X43769D1*
Y4970D1*
X43759Y4999D1*
X43740Y5018D1*
X43721Y5028D1*
X43692Y5037D1*
X43644D1*
X43616Y5028D1*
X43597Y5018D1*
X43577Y4999D1*
X43568Y4970D1*
Y4903D1*
X43616Y5242D2*
X43597Y5233D1*
X43577Y5214D1*
X43568Y5195D1*
Y5156D1*
X43577Y5137D1*
X43597Y5118D1*
X43616Y5108D1*
X43644Y5099D1*
X43692D1*
X43721Y5108D1*
X43740Y5118D1*
X43759Y5137D1*
X43769Y5156D1*
Y5195D1*
X43759Y5214D1*
X43740Y5233D1*
X43721Y5242D1*
X43692D1*
Y5195D1*
X43568Y5428D2*
Y5304D1*
X43769D1*
Y5428D1*
X43664Y5304D2*
Y5381D1*
X40068Y17506D2*
X40269D1*
Y17592D1*
X40259Y17621D1*
X40250Y17630D1*
X40231Y17640D1*
X40202D1*
X40183Y17630D1*
X40173Y17621D1*
X40164Y17592D1*
X40154Y17621D1*
X40144Y17630D1*
X40125Y17640D1*
X40106D1*
X40087Y17630D1*
X40077Y17621D1*
X40068Y17592D1*
Y17506D1*
X40164D2*
Y17592D1*
X40068Y17759D2*
X40077Y17740D1*
X40097Y17721D1*
X40116Y17711D1*
X40144Y17702D1*
X40192D1*
X40221Y17711D1*
X40240Y17721D1*
X40259Y17740D1*
X40269Y17759D1*
Y17797D1*
X40259Y17816D1*
X40240Y17835D1*
X40221Y17845D1*
X40192Y17854D1*
X40144D1*
X40116Y17845D1*
X40097Y17835D1*
X40077Y17816D1*
X40068Y17797D1*
Y17759D1*
X40269Y18069D2*
X40068Y17993D1*
X40269Y17916D1*
X40202Y17945D2*
Y18041D1*
X40164Y18131D2*
Y18217D1*
X40154Y18246D1*
X40144Y18256D1*
X40125Y18265D1*
X40106D1*
X40087Y18256D1*
X40077Y18246D1*
X40068Y18217D1*
Y18131D1*
X40269D1*
X40164Y18198D2*
X40269Y18265D1*
X40068Y18327D2*
X40269D1*
Y18394D1*
X40259Y18423D1*
X40240Y18442D1*
X40221Y18451D1*
X40192Y18461D1*
X40144D1*
X40116Y18451D1*
X40097Y18442D1*
X40077Y18423D1*
X40068Y18394D1*
Y18327D1*
Y18841D2*
Y18717D1*
X40269D1*
Y18841D1*
X40164Y18717D2*
Y18794D1*
X40068Y18903D2*
X40269D1*
Y18970D1*
X40259Y18999D1*
X40240Y19018D1*
X40221Y19028D1*
X40192Y19037D1*
X40144D1*
X40116Y19028D1*
X40097Y19018D1*
X40077Y18999D1*
X40068Y18970D1*
Y18903D1*
X40116Y19242D2*
X40097Y19233D1*
X40077Y19214D1*
X40068Y19195D1*
Y19156D1*
X40077Y19137D1*
X40097Y19118D1*
X40116Y19108D1*
X40144Y19099D1*
X40192D1*
X40221Y19108D1*
X40240Y19118D1*
X40259Y19137D1*
X40269Y19156D1*
Y19195D1*
X40259Y19214D1*
X40240Y19233D1*
X40221Y19242D1*
X40192D1*
Y19195D1*
X40068Y19428D2*
Y19304D1*
X40269D1*
Y19428D1*
X40164Y19304D2*
Y19381D1*
X41068Y17506D2*
X41269D1*
Y17592D1*
X41259Y17621D1*
X41250Y17630D1*
X41231Y17640D1*
X41202D1*
X41183Y17630D1*
X41173Y17621D1*
X41164Y17592D1*
X41154Y17621D1*
X41144Y17630D1*
X41125Y17640D1*
X41106D1*
X41087Y17630D1*
X41077Y17621D1*
X41068Y17592D1*
Y17506D1*
X41164D2*
Y17592D1*
X41068Y17759D2*
X41077Y17740D1*
X41097Y17721D1*
X41116Y17711D1*
X41144Y17702D1*
X41192D1*
X41221Y17711D1*
X41240Y17721D1*
X41259Y17740D1*
X41269Y17759D1*
Y17797D1*
X41259Y17816D1*
X41240Y17835D1*
X41221Y17845D1*
X41192Y17854D1*
X41144D1*
X41116Y17845D1*
X41097Y17835D1*
X41077Y17816D1*
X41068Y17797D1*
Y17759D1*
X41269Y18069D2*
X41068Y17993D1*
X41269Y17916D1*
X41202Y17945D2*
Y18041D1*
X41164Y18131D2*
Y18217D1*
X41154Y18246D1*
X41144Y18256D1*
X41125Y18265D1*
X41106D1*
X41087Y18256D1*
X41077Y18246D1*
X41068Y18217D1*
Y18131D1*
X41269D1*
X41164Y18198D2*
X41269Y18265D1*
X41068Y18327D2*
X41269D1*
Y18394D1*
X41259Y18423D1*
X41240Y18442D1*
X41221Y18451D1*
X41192Y18461D1*
X41144D1*
X41116Y18451D1*
X41097Y18442D1*
X41077Y18423D1*
X41068Y18394D1*
Y18327D1*
Y18841D2*
Y18717D1*
X41269D1*
Y18841D1*
X41164Y18717D2*
Y18794D1*
X41068Y18903D2*
X41269D1*
Y18970D1*
X41259Y18999D1*
X41240Y19018D1*
X41221Y19028D1*
X41192Y19037D1*
X41144D1*
X41116Y19028D1*
X41097Y19018D1*
X41077Y18999D1*
X41068Y18970D1*
Y18903D1*
X41116Y19242D2*
X41097Y19233D1*
X41077Y19214D1*
X41068Y19195D1*
Y19156D1*
X41077Y19137D1*
X41097Y19118D1*
X41116Y19108D1*
X41144Y19099D1*
X41192D1*
X41221Y19108D1*
X41240Y19118D1*
X41259Y19137D1*
X41269Y19156D1*
Y19195D1*
X41259Y19214D1*
X41240Y19233D1*
X41221Y19242D1*
X41192D1*
Y19195D1*
X41068Y19428D2*
Y19304D1*
X41269D1*
Y19428D1*
X41164Y19304D2*
Y19381D1*
X42068Y17506D2*
X42269D1*
Y17592D1*
X42259Y17621D1*
X42250Y17630D1*
X42231Y17640D1*
X42202D1*
X42183Y17630D1*
X42173Y17621D1*
X42164Y17592D1*
X42154Y17621D1*
X42144Y17630D1*
X42125Y17640D1*
X42106D1*
X42087Y17630D1*
X42077Y17621D1*
X42068Y17592D1*
Y17506D1*
X42164D2*
Y17592D1*
X42068Y17759D2*
X42077Y17740D1*
X42097Y17721D1*
X42116Y17711D1*
X42144Y17702D1*
X42192D1*
X42221Y17711D1*
X42240Y17721D1*
X42259Y17740D1*
X42269Y17759D1*
Y17797D1*
X42259Y17816D1*
X42240Y17835D1*
X42221Y17845D1*
X42192Y17854D1*
X42144D1*
X42116Y17845D1*
X42097Y17835D1*
X42077Y17816D1*
X42068Y17797D1*
Y17759D1*
X42269Y18069D2*
X42068Y17993D1*
X42269Y17916D1*
X42202Y17945D2*
Y18041D1*
X42164Y18131D2*
Y18217D1*
X42154Y18246D1*
X42144Y18256D1*
X42125Y18265D1*
X42106D1*
X42087Y18256D1*
X42077Y18246D1*
X42068Y18217D1*
Y18131D1*
X42269D1*
X42164Y18198D2*
X42269Y18265D1*
X42068Y18327D2*
X42269D1*
Y18394D1*
X42259Y18423D1*
X42240Y18442D1*
X42221Y18451D1*
X42192Y18461D1*
X42144D1*
X42116Y18451D1*
X42097Y18442D1*
X42077Y18423D1*
X42068Y18394D1*
Y18327D1*
Y18841D2*
Y18717D1*
X42269D1*
Y18841D1*
X42164Y18717D2*
Y18794D1*
X42068Y18903D2*
X42269D1*
Y18970D1*
X42259Y18999D1*
X42240Y19018D1*
X42221Y19028D1*
X42192Y19037D1*
X42144D1*
X42116Y19028D1*
X42097Y19018D1*
X42077Y18999D1*
X42068Y18970D1*
Y18903D1*
X42116Y19242D2*
X42097Y19233D1*
X42077Y19214D1*
X42068Y19195D1*
Y19156D1*
X42077Y19137D1*
X42097Y19118D1*
X42116Y19108D1*
X42144Y19099D1*
X42192D1*
X42221Y19108D1*
X42240Y19118D1*
X42259Y19137D1*
X42269Y19156D1*
Y19195D1*
X42259Y19214D1*
X42240Y19233D1*
X42221Y19242D1*
X42192D1*
Y19195D1*
X42068Y19428D2*
Y19304D1*
X42269D1*
Y19428D1*
X42164Y19304D2*
Y19381D1*
X48256Y3870D2*
Y3669D1*
X48342D1*
X48371Y3678D1*
X48380Y3688D1*
X48390Y3707D1*
Y3736D1*
X48380Y3755D1*
X48371Y3764D1*
X48342Y3774D1*
X48371Y3784D1*
X48380Y3793D1*
X48390Y3812D1*
Y3831D1*
X48380Y3850D1*
X48371Y3860D1*
X48342Y3870D1*
X48256D1*
Y3774D2*
X48342D1*
X48509Y3870D2*
X48490Y3860D1*
X48471Y3841D1*
X48461Y3822D1*
X48452Y3793D1*
Y3745D1*
X48461Y3717D1*
X48471Y3697D1*
X48490Y3678D1*
X48509Y3669D1*
X48547D1*
X48566Y3678D1*
X48585Y3697D1*
X48595Y3717D1*
X48604Y3745D1*
Y3793D1*
X48595Y3822D1*
X48585Y3841D1*
X48566Y3860D1*
X48547Y3870D1*
X48509D1*
X48819Y3669D2*
X48743Y3870D1*
X48666Y3669D1*
X48695Y3736D2*
X48791D1*
X48881Y3774D2*
X48967D1*
X48996Y3784D1*
X49006Y3793D1*
X49015Y3812D1*
Y3831D1*
X49006Y3850D1*
X48996Y3860D1*
X48967Y3870D1*
X48881D1*
Y3669D1*
X48948Y3774D2*
X49015Y3669D1*
X49077Y3870D2*
Y3669D1*
X49144D1*
X49173Y3678D1*
X49192Y3697D1*
X49201Y3717D1*
X49211Y3745D1*
Y3793D1*
X49201Y3822D1*
X49192Y3841D1*
X49173Y3860D1*
X49144Y3870D1*
X49077D1*
X49591D2*
X49467D1*
Y3669D1*
X49591D1*
X49467Y3774D2*
X49544D1*
X49653Y3870D2*
Y3669D1*
X49720D1*
X49749Y3678D1*
X49768Y3697D1*
X49778Y3717D1*
X49787Y3745D1*
Y3793D1*
X49778Y3822D1*
X49768Y3841D1*
X49749Y3860D1*
X49720Y3870D1*
X49653D1*
X49992Y3822D2*
X49983Y3841D1*
X49964Y3860D1*
X49945Y3870D1*
X49906D1*
X49887Y3860D1*
X49868Y3841D1*
X49858Y3822D1*
X49849Y3793D1*
Y3745D1*
X49858Y3717D1*
X49868Y3697D1*
X49887Y3678D1*
X49906Y3669D1*
X49945D1*
X49964Y3678D1*
X49983Y3697D1*
X49992Y3717D1*
Y3745D1*
X49945D1*
X50178Y3870D2*
X50054D1*
Y3669D1*
X50178D1*
X50054Y3774D2*
X50131D1*
X25568Y13256D2*
X25769D1*
Y13342D1*
X25759Y13371D1*
X25750Y13380D1*
X25731Y13390D1*
X25702D1*
X25683Y13380D1*
X25673Y13371D1*
X25664Y13342D1*
X25654Y13371D1*
X25644Y13380D1*
X25625Y13390D1*
X25606D1*
X25587Y13380D1*
X25577Y13371D1*
X25568Y13342D1*
Y13256D1*
X25664D2*
Y13342D1*
X25568Y13509D2*
X25577Y13490D1*
X25597Y13471D1*
X25616Y13461D1*
X25644Y13452D1*
X25692D1*
X25721Y13461D1*
X25740Y13471D1*
X25759Y13490D1*
X25769Y13509D1*
Y13547D1*
X25759Y13566D1*
X25740Y13586D1*
X25721Y13595D1*
X25692Y13605D1*
X25644D1*
X25616Y13595D1*
X25597Y13586D1*
X25577Y13566D1*
X25568Y13547D1*
Y13509D1*
X25769Y13820D2*
X25568Y13743D1*
X25769Y13666D1*
X25702Y13695D2*
Y13791D1*
X25664Y13881D2*
Y13967D1*
X25654Y13996D1*
X25644Y14006D1*
X25625Y14015D1*
X25606D1*
X25587Y14006D1*
X25577Y13996D1*
X25568Y13967D1*
Y13881D1*
X25769D1*
X25664Y13948D2*
X25769Y14015D1*
X25568Y14077D2*
X25769D1*
Y14144D1*
X25759Y14173D1*
X25740Y14192D1*
X25721Y14202D1*
X25692Y14211D1*
X25644D1*
X25616Y14202D1*
X25597Y14192D1*
X25577Y14173D1*
X25568Y14144D1*
Y14077D1*
Y14591D2*
Y14467D1*
X25769D1*
Y14591D1*
X25664Y14467D2*
Y14544D1*
X25568Y14653D2*
X25769D1*
Y14720D1*
X25759Y14749D1*
X25740Y14768D1*
X25721Y14778D1*
X25692Y14787D1*
X25644D1*
X25616Y14778D1*
X25597Y14768D1*
X25577Y14749D1*
X25568Y14720D1*
Y14653D1*
X25616Y14992D2*
X25597Y14983D1*
X25577Y14964D1*
X25568Y14945D1*
Y14906D1*
X25577Y14887D1*
X25597Y14868D1*
X25616Y14858D1*
X25644Y14849D1*
X25692D1*
X25721Y14858D1*
X25740Y14868D1*
X25759Y14887D1*
X25769Y14906D1*
Y14945D1*
X25759Y14964D1*
X25740Y14983D1*
X25721Y14992D1*
X25692D1*
Y14945D1*
X25568Y15178D2*
Y15054D1*
X25769D1*
Y15178D1*
X25664Y15054D2*
Y15131D1*
X32519Y13256D2*
X32720D1*
Y13342D1*
X32710Y13371D1*
X32700Y13380D1*
X32681Y13390D1*
X32653D1*
X32633Y13380D1*
X32624Y13371D1*
X32614Y13342D1*
X32605Y13371D1*
X32595Y13380D1*
X32576Y13390D1*
X32557D1*
X32538Y13380D1*
X32528Y13371D1*
X32519Y13342D1*
Y13256D1*
X32614D2*
Y13342D1*
X32519Y13509D2*
X32528Y13490D1*
X32547Y13471D1*
X32566Y13461D1*
X32595Y13452D1*
X32643D1*
X32672Y13461D1*
X32691Y13471D1*
X32710Y13490D1*
X32720Y13509D1*
Y13547D1*
X32710Y13566D1*
X32691Y13586D1*
X32672Y13595D1*
X32643Y13605D1*
X32595D1*
X32566Y13595D1*
X32547Y13586D1*
X32528Y13566D1*
X32519Y13547D1*
Y13509D1*
X32720Y13820D2*
X32519Y13743D1*
X32720Y13667D1*
X32653Y13695D2*
Y13791D1*
X32614Y13881D2*
Y13967D1*
X32605Y13996D1*
X32595Y14006D1*
X32576Y14015D1*
X32557D1*
X32538Y14006D1*
X32528Y13996D1*
X32519Y13967D1*
Y13881D1*
X32720D1*
X32614Y13948D2*
X32720Y14015D1*
X32519Y14077D2*
X32720D1*
Y14144D1*
X32710Y14173D1*
X32691Y14192D1*
X32672Y14202D1*
X32643Y14211D1*
X32595D1*
X32566Y14202D1*
X32547Y14192D1*
X32528Y14173D1*
X32519Y14144D1*
Y14077D1*
Y14592D2*
Y14467D1*
X32720D1*
Y14592D1*
X32614Y14467D2*
Y14544D1*
X32519Y14653D2*
X32720D1*
Y14720D1*
X32710Y14749D1*
X32691Y14768D1*
X32672Y14778D1*
X32643Y14787D1*
X32595D1*
X32566Y14778D1*
X32547Y14768D1*
X32528Y14749D1*
X32519Y14720D1*
Y14653D1*
X32566Y14993D2*
X32547Y14983D1*
X32528Y14964D1*
X32519Y14945D1*
Y14907D1*
X32528Y14887D1*
X32547Y14868D1*
X32566Y14859D1*
X32595Y14849D1*
X32643D1*
X32672Y14859D1*
X32691Y14868D1*
X32710Y14887D1*
X32720Y14907D1*
Y14945D1*
X32710Y14964D1*
X32691Y14983D1*
X32672Y14993D1*
X32643D1*
Y14945D1*
X32519Y15179D2*
Y15054D1*
X32720D1*
Y15179D1*
X32614Y15054D2*
Y15131D1*
X27519Y13256D2*
X27720D1*
Y13342D1*
X27710Y13371D1*
X27700Y13380D1*
X27681Y13390D1*
X27653D1*
X27633Y13380D1*
X27624Y13371D1*
X27614Y13342D1*
X27605Y13371D1*
X27595Y13380D1*
X27576Y13390D1*
X27557D1*
X27538Y13380D1*
X27528Y13371D1*
X27519Y13342D1*
Y13256D1*
X27614D2*
Y13342D1*
X27519Y13509D2*
X27528Y13490D1*
X27547Y13471D1*
X27566Y13461D1*
X27595Y13452D1*
X27643D1*
X27672Y13461D1*
X27691Y13471D1*
X27710Y13490D1*
X27720Y13509D1*
Y13547D1*
X27710Y13566D1*
X27691Y13586D1*
X27672Y13595D1*
X27643Y13605D1*
X27595D1*
X27566Y13595D1*
X27547Y13586D1*
X27528Y13566D1*
X27519Y13547D1*
Y13509D1*
X27720Y13820D2*
X27519Y13743D1*
X27720Y13667D1*
X27653Y13695D2*
Y13791D1*
X27614Y13881D2*
Y13967D1*
X27605Y13996D1*
X27595Y14006D1*
X27576Y14015D1*
X27557D1*
X27538Y14006D1*
X27528Y13996D1*
X27519Y13967D1*
Y13881D1*
X27720D1*
X27614Y13948D2*
X27720Y14015D1*
X27519Y14077D2*
X27720D1*
Y14144D1*
X27710Y14173D1*
X27691Y14192D1*
X27672Y14202D1*
X27643Y14211D1*
X27595D1*
X27566Y14202D1*
X27547Y14192D1*
X27528Y14173D1*
X27519Y14144D1*
Y14077D1*
Y14592D2*
Y14467D1*
X27720D1*
Y14592D1*
X27614Y14467D2*
Y14544D1*
X27519Y14653D2*
X27720D1*
Y14720D1*
X27710Y14749D1*
X27691Y14768D1*
X27672Y14778D1*
X27643Y14787D1*
X27595D1*
X27566Y14778D1*
X27547Y14768D1*
X27528Y14749D1*
X27519Y14720D1*
Y14653D1*
X27566Y14993D2*
X27547Y14983D1*
X27528Y14964D1*
X27519Y14945D1*
Y14907D1*
X27528Y14887D1*
X27547Y14868D1*
X27566Y14859D1*
X27595Y14849D1*
X27643D1*
X27672Y14859D1*
X27691Y14868D1*
X27710Y14887D1*
X27720Y14907D1*
Y14945D1*
X27710Y14964D1*
X27691Y14983D1*
X27672Y14993D1*
X27643D1*
Y14945D1*
X27519Y15179D2*
Y15054D1*
X27720D1*
Y15179D1*
X27614Y15054D2*
Y15131D1*
X32265Y4057D2*
Y3856D1*
X32352D1*
X32380Y3866D1*
X32390Y3875D1*
X32399Y3894D1*
Y3923D1*
X32390Y3942D1*
X32380Y3952D1*
X32352Y3961D1*
X32380Y3971D1*
X32390Y3981D1*
X32399Y4000D1*
Y4019D1*
X32390Y4038D1*
X32380Y4048D1*
X32352Y4057D1*
X32265D1*
Y3961D2*
X32352D1*
X32519Y4057D2*
X32499Y4048D1*
X32480Y4028D1*
X32471Y4009D1*
X32461Y3981D1*
Y3933D1*
X32471Y3904D1*
X32480Y3885D1*
X32499Y3866D1*
X32519Y3856D1*
X32557D1*
X32576Y3866D1*
X32595Y3885D1*
X32605Y3904D1*
X32614Y3933D1*
Y3981D1*
X32605Y4009D1*
X32595Y4028D1*
X32576Y4048D1*
X32557Y4057D1*
X32519D1*
X32829Y3856D2*
X32752Y4057D1*
X32676Y3856D1*
X32705Y3923D2*
X32800D1*
X32891Y3961D2*
X32977D1*
X33005Y3971D1*
X33015Y3981D1*
X33025Y4000D1*
Y4019D1*
X33015Y4038D1*
X33005Y4048D1*
X32977Y4057D1*
X32891D1*
Y3856D1*
X32958Y3961D2*
X33025Y3856D1*
X33086Y4057D2*
Y3856D1*
X33153D1*
X33182Y3866D1*
X33201Y3885D1*
X33211Y3904D1*
X33220Y3933D1*
Y3981D1*
X33211Y4009D1*
X33201Y4028D1*
X33182Y4048D1*
X33153Y4057D1*
X33086D1*
X33601D2*
X33477D1*
Y3856D1*
X33601D1*
X33477Y3961D2*
X33553D1*
X33663Y4057D2*
Y3856D1*
X33730D1*
X33758Y3866D1*
X33778Y3885D1*
X33787Y3904D1*
X33797Y3933D1*
Y3981D1*
X33787Y4009D1*
X33778Y4028D1*
X33758Y4048D1*
X33730Y4057D1*
X33663D1*
X34002Y4009D2*
X33992Y4028D1*
X33973Y4048D1*
X33954Y4057D1*
X33916D1*
X33897Y4048D1*
X33878Y4028D1*
X33868Y4009D1*
X33858Y3981D1*
Y3933D1*
X33868Y3904D1*
X33878Y3885D1*
X33897Y3866D1*
X33916Y3856D1*
X33954D1*
X33973Y3866D1*
X33992Y3885D1*
X34002Y3904D1*
Y3933D1*
X33954D1*
X34188Y4057D2*
X34064D1*
Y3856D1*
X34188D1*
X34064Y3961D2*
X34140D1*
M02*
