G04 DipTrace 2.4.0.2*
%INTopDimension.gbr*%
%MOIN*%
%ADD13C,0.0014*%
%ADD122C,0.0062*%
%FSLAX44Y44*%
G04*
G70*
G90*
G75*
G01*
%LNTopDimension*%
%LPD*%
X0Y21500D2*
D13*
Y23009D1*
X55000Y21500D2*
Y23009D1*
X27500Y22812D2*
X394D1*
G36*
X0D2*
X394Y22891D1*
Y22734D1*
X0Y22812D1*
G37*
X27500D2*
D13*
X54606D1*
G36*
X55000D2*
X54606Y22734D1*
Y22891D1*
X55000Y22812D1*
G37*
Y21500D2*
D13*
X56509D1*
X55000Y0D2*
X56509D1*
X56312Y10750D2*
Y21106D1*
G36*
Y21500D2*
X56391Y21106D1*
X56234D1*
X56312Y21500D1*
G37*
Y10750D2*
D13*
Y394D1*
G36*
Y0D2*
X56234Y394D1*
X56391D1*
X56312Y0D1*
G37*
X27039Y23336D2*
D122*
X26848D1*
X26829Y23164D1*
X26848Y23183D1*
X26906Y23203D1*
X26963D1*
X27020Y23183D1*
X27059Y23145D1*
X27078Y23088D1*
Y23050D1*
X27059Y22992D1*
X27020Y22954D1*
X26963Y22935D1*
X26906D1*
X26848Y22954D1*
X26829Y22973D1*
X26810Y23011D1*
X27431Y23336D2*
X27240D1*
X27221Y23164D1*
X27240Y23183D1*
X27297Y23203D1*
X27354D1*
X27412Y23183D1*
X27450Y23145D1*
X27469Y23088D1*
Y23050D1*
X27450Y22992D1*
X27412Y22954D1*
X27354Y22935D1*
X27297D1*
X27240Y22954D1*
X27221Y22973D1*
X27201Y23011D1*
X27708Y23336D2*
X27650Y23317D1*
X27612Y23260D1*
X27593Y23164D1*
Y23107D1*
X27612Y23011D1*
X27650Y22954D1*
X27708Y22935D1*
X27746D1*
X27803Y22954D1*
X27841Y23011D1*
X27861Y23107D1*
Y23164D1*
X27841Y23260D1*
X27803Y23317D1*
X27746Y23336D1*
X27708D1*
X27841Y23260D2*
X27612Y23011D1*
X28099Y23336D2*
X28042Y23317D1*
X28003Y23260D1*
X27984Y23164D1*
Y23107D1*
X28003Y23011D1*
X28042Y22954D1*
X28099Y22935D1*
X28137D1*
X28195Y22954D1*
X28233Y23011D1*
X28252Y23107D1*
Y23164D1*
X28233Y23260D1*
X28195Y23317D1*
X28137Y23336D1*
X28099D1*
X28233Y23260D2*
X28003Y23011D1*
X56741Y11335D2*
X56760D1*
X56798Y11316D1*
X56817Y11297D1*
X56836Y11258D1*
Y11182D1*
X56817Y11144D1*
X56798Y11125D1*
X56760Y11105D1*
X56722D1*
X56683Y11125D1*
X56626Y11163D1*
X56435Y11354D1*
Y11086D1*
X56760Y10963D2*
X56779Y10924D1*
X56836Y10867D1*
X56435D1*
X56836Y10514D2*
Y10705D1*
X56664Y10724D1*
X56683Y10705D1*
X56703Y10647D1*
Y10590D1*
X56683Y10533D1*
X56645Y10494D1*
X56588Y10475D1*
X56550D1*
X56492Y10494D1*
X56454Y10533D1*
X56435Y10590D1*
Y10647D1*
X56454Y10705D1*
X56473Y10724D1*
X56511Y10743D1*
X56836Y10237D2*
X56817Y10294D1*
X56760Y10333D1*
X56664Y10352D1*
X56607D1*
X56511Y10333D1*
X56454Y10294D1*
X56435Y10237D1*
Y10199D1*
X56454Y10141D1*
X56511Y10103D1*
X56607Y10084D1*
X56664D1*
X56760Y10103D1*
X56817Y10141D1*
X56836Y10199D1*
Y10237D1*
X56760Y10103D2*
X56511Y10333D1*
M02*
