G04 DipTrace 2.4.0.2*
%INTopPaste.gbr*%
%MOIN*%
%ADD67R,0.0156X0.0353*%
%ADD69R,0.0077X0.0471*%
%ADD71R,0.0156X0.0707*%
%ADD73R,0.0766X0.12*%
%ADD75R,0.0766X0.0294*%
%ADD77R,0.2451X0.0959*%
%ADD79R,0.0018X0.0196*%
%ADD82R,0.0766X0.1692*%
%ADD84R,0.055X0.0983*%
%ADD88R,0.0333X0.0176*%
%ADD90R,0.0176X0.0333*%
%ADD103R,0.0747X0.0471*%
%ADD105R,0.055X0.0471*%
%ADD107R,0.0471X0.055*%
%ADD109R,0.0471X0.0747*%
%ADD111R,0.0983X0.055*%
%ADD113R,0.0353X0.0314*%
%ADD115R,0.0314X0.0353*%
%ADD117R,0.0511X0.0432*%
%ADD119R,0.0432X0.0511*%
%FSLAX44Y44*%
G04*
G70*
G90*
G75*
G01*
%LNTopPaste*%
%LPD*%
D119*
X11417Y11024D3*
X12165D3*
X11417Y11850D3*
X12165D3*
D117*
X8500Y11187D3*
Y10439D3*
D119*
X9188Y4188D3*
X9936D3*
X13228Y9724D3*
X12480D3*
D115*
X12751Y8063D3*
Y7394D3*
D113*
X13711Y6729D3*
X13042D3*
D117*
X14134Y13583D3*
Y14331D3*
D115*
X16502Y8063D3*
Y7394D3*
D117*
X15197Y13583D3*
Y14331D3*
D113*
X15667Y6729D3*
X16336D3*
D119*
X16063Y9764D3*
X16811D3*
X19065Y4750D3*
X18316D3*
D117*
X18440Y15778D3*
Y16526D3*
X19316Y15779D3*
Y16528D3*
X19500Y12062D3*
Y11314D3*
D119*
X16457Y5315D3*
X15709D3*
X16457Y4488D3*
X15709D3*
D115*
X46750Y8750D3*
Y9419D3*
D117*
X52812Y5875D3*
Y6623D3*
D115*
X47500Y14500D3*
Y13831D3*
X51750Y8750D3*
Y9419D3*
X51000Y14500D3*
Y13831D3*
D117*
X49375Y8625D3*
Y9373D3*
X50500Y5875D3*
Y6623D3*
X51500Y12687D3*
Y11939D3*
Y11187D3*
Y10439D3*
X47000Y11187D3*
Y11936D3*
X29750Y17000D3*
Y17748D3*
D111*
X31500Y10750D3*
Y11852D3*
X30000Y10750D3*
Y11852D3*
D119*
X33003Y7001D3*
X33751D3*
X33003Y6251D3*
X33751D3*
D111*
X3000Y12500D3*
Y11398D3*
D119*
X33002Y4375D3*
X33750D3*
D109*
X10187Y12250D3*
X8455D3*
D107*
X7126Y14564D3*
X8307D3*
X9188D3*
X10370D3*
D109*
X16939Y11314D3*
X18672D3*
D105*
X27787Y7591D3*
Y6410D3*
D103*
X1750Y12750D3*
Y11018D3*
X4312Y12750D3*
Y11018D3*
D113*
X22062Y4687D3*
X21393D3*
X21687Y13625D3*
X21018D3*
X52750Y4250D3*
X52081D3*
X25562Y10750D3*
X26232D3*
D90*
X26517Y6642D3*
X25769D3*
X26143Y5736D3*
D88*
X31128Y6876D3*
Y6128D3*
X32034Y6502D3*
D113*
X35544Y20024D3*
X36213D3*
D84*
X10375Y10812D3*
X9273D3*
D113*
X7813Y15314D3*
X7144D3*
X9689Y15377D3*
X10358D3*
X12874Y8976D3*
X13543D3*
D115*
X12634Y14270D3*
Y13601D3*
X13322Y13583D3*
Y14252D3*
X13689Y7376D3*
Y8045D3*
X14314Y8313D3*
Y8983D3*
D113*
Y9626D3*
X14983D3*
D115*
X14939Y8313D3*
Y8983D3*
X15627Y7376D3*
Y8045D3*
X15947Y13583D3*
Y14252D3*
D113*
X16417Y8976D3*
X15748D3*
D115*
X16697Y14270D3*
Y13601D3*
D84*
X21437Y11688D3*
X20335D3*
D113*
X52081Y5000D3*
X52750D3*
D115*
X47500Y8750D3*
Y9419D3*
X46000Y9500D3*
Y8831D3*
X46750Y13750D3*
Y14419D3*
X48250Y8750D3*
Y9419D3*
Y14500D3*
Y13831D3*
X51000Y8750D3*
Y9419D3*
X52500Y9498D3*
Y8829D3*
X51750Y13750D3*
Y14419D3*
X50250Y8750D3*
Y9419D3*
Y14500D3*
Y13831D3*
D113*
X46250Y11875D3*
X45581D3*
X45562Y11250D3*
X46232D3*
D115*
X30665Y17585D3*
Y16915D3*
D113*
X30500Y13000D3*
X29831D3*
X30500Y14000D3*
X29831D3*
X30500Y15000D3*
X29831D3*
X31250Y13000D3*
X31919D3*
X31250Y14000D3*
X31919D3*
X31250Y15000D3*
X31919D3*
X32941Y8251D3*
X33610D3*
X33629Y7688D3*
X32959D3*
X26440Y7313D3*
X25771D3*
D115*
X28606Y8148D3*
Y7479D3*
D113*
X29253Y6126D3*
X28584D3*
D115*
X2000Y5250D3*
Y5919D3*
X4250Y5250D3*
Y5919D3*
D113*
X33000Y5062D3*
X33669D3*
D115*
X2750Y5250D3*
Y5919D3*
X3500Y5250D3*
Y5919D3*
D82*
X10126Y9063D3*
X8776D3*
Y5717D3*
X10126D3*
X19127Y6188D3*
X20477D3*
Y9535D3*
X19127D3*
D79*
X13564Y10564D3*
X13761D3*
X13958D3*
X14154D3*
X14351D3*
X14548D3*
X14745D3*
X14942D3*
X15139D3*
X15336D3*
X15532D3*
X15729D3*
Y12060D3*
X15532D3*
X15336D3*
X15139D3*
X14942D3*
X14745D3*
X14548D3*
X14351D3*
X14154D3*
X13958D3*
X13761D3*
X13564D3*
D77*
X14647Y11312D3*
D75*
X20315Y16654D3*
Y15748D3*
Y14843D3*
D73*
X22598Y15748D3*
D88*
X52062Y5875D3*
Y6623D3*
X51157Y6249D3*
D71*
X47750Y10500D3*
X48250D3*
X48750D3*
X49250D3*
X49750D3*
X50250D3*
X50750D3*
Y12626D3*
X50250D3*
X49750D3*
X49250D3*
X48750D3*
X48250D3*
X47750D3*
D69*
X48875Y5875D3*
X49131D3*
X49387D3*
X49643D3*
Y7607D3*
X49387D3*
X49131D3*
X48875D3*
D67*
X32003Y8438D3*
X31629D3*
X31255D3*
Y7375D3*
X32003D3*
M02*
