999
dxflib 3.17.0.0
  0
SECTION
  2
HEADER
  9
$ACADVER
  1
AC1015
  9
$HANDSEED
  5
FFFF
  9
$ANGBASE
 50
0.0
  9
$ANGDIR
 70
0
  9
$ATTMODE
 70
1
  9
$AUNITS
 70
0
  9
$AUPREC
 70
0
  9
$CECOLOR
 62
18
  9
$CELTSCALE
 40
1.0
  9
$CHAMFERA
 40
0.0
  9
$CHAMFERB
 40
0.0
  9
$CHAMFERC
 40
0.0
  9
$CHAMFERD
 40
0.0
  9
$CMLJUST
 70
0
  9
$CMLSCALE
 40
1.0
  9
$DIMADEC
 70
0
  9
$DIMALT
 70
0
  9
$DIMALTD
 70
2
  9
$DIMALTF
 40
25.399999999999999
  9
$DIMALTRND
 40
0.0
  9
$DIMALTTD
 70
2
  9
$DIMALTTZ
 70
0
  9
$DIMALTU
 70
2
  9
$DIMALTZ
 70
0
  9
$DIMAPOST
  1

  9
$DIMASZ
 40
2.5
  9
$DIMATFIT
 70
3
  9
$DIMAUNIT
 70
0
  9
$DIMAZIN
 70
2
  9
$DIMBLK
  1

  9
$DIMBLK1
  1

  9
$DIMBLK2
  1

  9
$DIMCEN
 40
0.09
  9
$DIMCLRD
 70
18
  9
$DIMCLRE
 70
18
  9
$DIMCLRT
 70
18
  9
$DIMDEC
 70
4
  9
$DIMDLE
 40
0.0
  9
$DIMDLI
 40
0.38
  9
$DIMDSEP
 70
46
  9
$DIMEXE
 40
1.25
  9
$DIMEXO
 40
0.625
  9
$DIMFRAC
 70
0
  9
$DIMGAP
 40
0.625
  9
$DIMJUST
 70
0
  9
$DIMLDRBLK
  1

  9
$DIMLFAC
 40
1.0
  9
$DIMLIM
 70
0
  9
$DIMLUNIT
 70
2
  9
$DIMLWD
 70
-2
  9
$DIMLWE
 70
-2
  9
$DIMPOST
  1

  9
$DIMRND
 40
0.0
  9
$DIMSAH
 70
0
  9
$DIMSCALE
 40
1.0
  9
$DIMSD1
 70
0
  9
$DIMSD2
 70
0
  9
$DIMSE1
 70
0
  9
$DIMSE2
 70
0
  9
$DIMSOXD
 70
0
  9
$DIMTAD
 70
0
  9
$DIMTDEC
 70
4
  9
$DIMTFAC
 40
1.0
  9
$DIMTIH
 70
1
  9
$DIMTIX
 70
0
  9
$DIMTM
 40
0.0
  9
$DIMTOFL
 70
0
  9
$DIMTOH
 70
1
  9
$DIMTOL
 70
0
  9
$DIMTOLJ
 70
1
  9
$DIMTP
 40
0.0
  9
$DIMTSZ
 40
0.0
  9
$DIMTVP
 40
0.0
  9
$DIMTXSTY
  7
Standard
  9
$DIMTXT
 40
2.5
  9
$DIMTZIN
 70
0
  9
$DIMUPT
 70
0
  9
$DIMZIN
 70
8
  9
$DISPSILH
 70
0
  9
$DWGCODEPAGE
  3
ANSI_1252
  9
$ELEVATION
 40
0.0
  9
$EXTMAX
 10
-100000000000000000000.0
 20
-100000000000000000000.0
 30
-100000000000000000000.0
  9
$EXTMIN
 10
100000000000000000000.0
 20
100000000000000000000.0
 30
100000000000000000000.0
  9
$FILLETRAD
 40
0.5
  9
$FILLMODE
 70
1
  9
$INSBASE
 10
0.0
 20
0.0
 30
0.0
  9
$INSUNITS
 70
4
  9
$LIMCHECK
 70
0
  9
$LIMMAX
 10
12.0
 20
9.0
  9
$LIMMIN
 10
0.0
 20
0.0
  9
$LTSCALE
 40
1.0
  9
$LUNITS
 70
2
  9
$LUPREC
 70
4
  9
$MAXACTVP
 70
2
  9
$MEASUREMENT
 70
1
  9
$MIRRTEXT
 70
1
  9
$ORTHOMODE
 70
0
  9
$PDMODE
 70
0
  9
$PDSIZE
 40
0.0
  9
$PELEVATION
 40
0.0
  9
$PEXTMAX
 10
0.0
 20
0.0
 30
0.0
  9
$PEXTMIN
 10
0.0
 20
0.0
 30
0.0
  9
$PINSBASE
 10
0.0
 20
0.0
 30
0.0
  9
$PLIMCHECK
 70
0
  9
$PLIMMAX
 10
277.0
 20
202.5
  9
$PLIMMIN
 10
-20.0
 20
-7.5
  9
$PLINEGEN
 70
0
  9
$PLINEWID
 40
0.0
  9
$PROXYGRAPHICS
 70
1
  9
$PSLTSCALE
 70
1
  9
$PUCSNAME
  2

  9
$PUCSORG
 10
0.0
 20
0.0
 30
0.0
  9
$PUCSXDIR
 10
1.0
 20
0.0
 30
0.0
  9
$PUCSYDIR
 10
0.0
 20
1.0
 30
0.0
  9
$QTEXTMODE
 70
0
  9
$REGENMODE
 70
1
  9
$SHADEDGE
 70
3
  9
$SHADEDIF
 70
70
  9
$SKETCHINC
 40
0.1
  9
$SKPOLY
 70
0
  9
$SPLFRAME
 70
0
  9
$SPLINESEGS
 70
8
  9
$SPLINETYPE
 70
6
  9
$SURFTAB1
 70
6
  9
$SURFTAB2
 70
6
  9
$SURFTYPE
 70
6
  9
$SURFU
 70
6
  9
$SURFV
 70
6
  9
$TEXTSIZE
 40
2.5
  9
$TEXTSTYLE
  7
Standard
  9
$THICKNESS
 40
0.0
  9
$TILEMODE
 70
1
  9
$TRACEWID
 40
0.05
  9
$TREEDEPTH
 70
3020
  9
$UCSNAME
  2

  9
$UCSORG
 10
0.0
 20
0.0
 30
0.0
  9
$UCSXDIR
 10
1.0
 20
0.0
 30
0.0
  9
$UCSYDIR
 10
0.0
 20
1.0
 30
0.0
  9
$UNITMODE
 70
0
  9
$USERI1
 70
0
  9
$USERI2
 70
0
  9
$USERI3
 70
0
  9
$USERI4
 70
0
  9
$USERI5
 70
0
  9
$USERR1
 40
0.0
  9
$USERR2
 40
0.0
  9
$USERR3
 40
0.0
  9
$USERR4
 40
0.0
  9
$USERR5
 40
0.0
  9
$USRTIMER
 70
1
  9
$VISRETAIN
 70
1
  0
ENDSEC
  0
SECTION
  2
TABLES
  0
TABLE
  2
VPORT
  5
8
100
AcDbSymbolTable
 70
1
  0
VPORT
  5
30
100
AcDbSymbolTableRecord
100
AcDbViewportTableRecord
  2
*Active
 70
0
 10
0.0
 20
0.0
 11
1.0
 21
1.0
 12
286.30555555555549
 22
148.5
 13
0.0
 23
0.0
 14
10.0
 24
10.0
 15
10.0
 25
10.0
 16
0.0
 26
0.0
 36
1.0
 17
0.0
 27
0.0
 37
0.0
 40
297.0
 41
1.92798353909465
 42
50.0
 43
0.0
 44
0.0
 50
0.0
 51
0.0
 71
0
 72
100
 73
1
 74
3
 75
1
 76
1
 77
0
 78
0
281
0
 65
1
110
0.0
120
0.0
130
0.0
111
1.0
121
0.0
131
0.0
112
0.0
122
1.0
132
0.0
 79
0
146
0.0
  0
ENDTAB
  0
TABLE
  2
LTYPE
  5
5
100
AcDbSymbolTable
 70
50
  0
LTYPE
  5
16
100
AcDbSymbolTableRecord
100
AcDbLinetypeTableRecord
  2
Continuous
 70
0
  3
Solid line
 72
65
 73
0
 40
0.0
  0
LTYPE
  5
31
100
AcDbSymbolTableRecord
100
AcDbLinetypeTableRecord
  2
ACAD_ISO09W100
 70
0
  3
ISO long-dash double-short-dash ____ __ __ ____
 72
65
 73
6
 40
45.0
 49
24.0
 74
0
 49
-3.0
 74
0
 49
6.0
 74
0
 49
-3.0
 74
0
 49
6.0
 74
0
 49
-3.0
 74
0
  0
LTYPE
  5
32
100
AcDbSymbolTableRecord
100
AcDbLinetypeTableRecord
  2
ACAD_ISO14W100
 70
0
  3
ISO dash triple-dot __ . . . __ . . . __ . . . _
 72
65
 73
8
 40
24.0
 49
12.0
 74
0
 49
-2.9500000000000002
 74
0
 49
0.1
 74
0
 49
-2.8999999999999999
 74
0
 49
0.1
 74
0
 49
-2.8999999999999999
 74
0
 49
0.1
 74
0
 49
-2.9500000000000002
 74
0
  0
LTYPE
  5
33
100
AcDbSymbolTableRecord
100
AcDbLinetypeTableRecord
  2
DASHDOT2
 70
0
  3
Dash dot (.5x) _._._._._._._._._._._._._._._.
 72
65
 73
4
 40
12.699999999999999
 49
6.3499999999999996
 74
0
 49
-3.125
 74
0
 49
0.1
 74
0
 49
-3.125
 74
0
  0
LTYPE
  5
34
100
AcDbSymbolTableRecord
100
AcDbLinetypeTableRecord
  2
DASHDOT
 70
0
  3
Dash dot __ . __ . __ . __ . __ . __ . __ . __
 72
65
 73
4
 40
25.400000000000002
 49
12.699999999999999
 74
0
 49
-6.2999999999999998
 74
0
 49
0.1
 74
0
 49
-6.2999999999999998
 74
0
  0
LTYPE
  5
35
100
AcDbSymbolTableRecord
100
AcDbLinetypeTableRecord
  2
DIVIDEX2
 70
0
  3
Divide (2x) ________  .  .  ________  .  .  _
 72
65
 73
6
 40
63.5
 49
25.399999999999999
 74
0
 49
-12.65
 74
0
 49
0.1
 74
0
 49
-12.6
 74
0
 49
0.1
 74
0
 49
-12.65
 74
0
  0
LTYPE
  5
36
100
AcDbSymbolTableRecord
100
AcDbLinetypeTableRecord
  2
TRACKS
 70
0
  3
Tracks -|-|-|-|-|-|-|-|-|-|-|-|-|-|-|-|-|-|-|-|-|-|-|-|-
 72
65
 73
2
 40
7.6200000000000001
 49
3.8100000000000001
 74
0
 49
3.8100000000000001
 74
0
  0
LTYPE
  5
37
100
AcDbSymbolTableRecord
100
AcDbLinetypeTableRecord
  2
ACAD_ISO08W100
 70
0
  3
ISO long-dash short-dash ____ __ ____ __ ____ _
 72
65
 73
4
 40
36.0
 49
24.0
 74
0
 49
-3.0
 74
0
 49
6.0
 74
0
 49
-3.0
 74
0
  0
LTYPE
  5
38
100
AcDbSymbolTableRecord
100
AcDbLinetypeTableRecord
  2
HIDDEN
 70
0
  3
Hidden __ __ __ __ __ __ __ __ __ __ __ __ __ __
 72
65
 73
2
 40
9.5249999999999986
 49
6.3499999999999996
 74
0
 49
-3.1749999999999998
 74
0
  0
LTYPE
  5
39
100
AcDbSymbolTableRecord
100
AcDbLinetypeTableRecord
  2
FENCELINE1
 70
0
  3
Fenceline circle ----0-----0----0-----0----0-----0--
 72
65
 73
4
 40
36.829999999999998
 49
6.3499999999999996
 74
0
 49
-2.54
 74
0
 49
-2.54
 74
0
 49
25.399999999999999
 74
0
  0
LTYPE
  5
3A
100
AcDbSymbolTableRecord
100
AcDbLinetypeTableRecord
  2
FENCELINE2
 70
0
  3
Fenceline square ----[]-----[]----[]-----[]----[]---
 72
65
 73
4
 40
36.829999999999998
 49
6.3499999999999996
 74
0
 49
-2.54
 74
0
 49
-2.54
 74
0
 49
25.399999999999999
 74
0
  0
LTYPE
  5
3B
100
AcDbSymbolTableRecord
100
AcDbLinetypeTableRecord
  2
DIVIDE
 70
0
  3
Divide ____ . . ____ . . ____ . . ____ . . ____
 72
65
 73
6
 40
31.750000000000004
 49
12.699999999999999
 74
0
 49
-6.2999999999999998
 74
0
 49
0.1
 74
0
 49
-6.25
 74
0
 49
0.1
 74
0
 49
-6.2999999999999998
 74
0
  0
LTYPE
  5
3C
100
AcDbSymbolTableRecord
100
AcDbLinetypeTableRecord
  2
DOT2
 70
0
  3
Dot (.5x) ........................................
 72
65
 73
2
 40
3.1750000000000003
 49
0.1
 74
0
 49
-3.0750000000000002
 74
0
  0
LTYPE
  5
3D
100
AcDbSymbolTableRecord
100
AcDbLinetypeTableRecord
  2
DOT
 70
0
  3
Dot . . . . . . . . . . . . . . . . . . . . . . . .
 72
65
 73
2
 40
6.3499999999999996
 49
0.1
 74
0
 49
-6.25
 74
0
  0
LTYPE
  5
3E
100
AcDbSymbolTableRecord
100
AcDbLinetypeTableRecord
  2
PHANTOM
 70
0
  3
Phantom ______  __  __  ______  __  __  ______ 
 72
65
 73
6
 40
63.500000000000007
 49
31.75
 74
0
 49
-6.3499999999999996
 74
0
 49
6.3499999999999996
 74
0
 49
-6.3499999999999996
 74
0
 49
6.3499999999999996
 74
0
 49
-6.3499999999999996
 74
0
  0
LTYPE
  5
3F
100
AcDbSymbolTableRecord
100
AcDbLinetypeTableRecord
  2
DASHEDX2
 70
0
  3
Dashed (2x) ____  ____  ____  ____  ____  ___
 72
65
 73
2
 40
38.099999999999994
 49
25.399999999999999
 74
0
 49
-12.699999999999999
 74
0
  0
LTYPE
  5
40
100
AcDbSymbolTableRecord
100
AcDbLinetypeTableRecord
  2
ACAD_ISO13W100
 70
0
  3
ISO double-dash double-dot __ __ . . __ __ . . _
 72
65
 73
8
 40
36.000000000000007
 49
12.0
 74
0
 49
-3.0
 74
0
 49
12.0
 74
0
 49
-2.9500000000000002
 74
0
 49
0.1
 74
0
 49
-2.8999999999999999
 74
0
 49
0.1
 74
0
 49
-2.9500000000000002
 74
0
  0
LTYPE
  5
41
100
AcDbSymbolTableRecord
100
AcDbLinetypeTableRecord
  2
ACAD_ISO02W100
 70
0
  3
ISO dash __ __ __ __ __ __ __ __ __ __ __ __ __
 72
65
 73
2
 40
15.0
 49
12.0
 74
0
 49
-3.0
 74
0
  0
LTYPE
  5
42
100
AcDbSymbolTableRecord
100
AcDbLinetypeTableRecord
  2
PHANTOM2
 70
0
  3
Phantom (.5x) ___ _ _ ___ _ _ ___ _ _ ___ _ _
 72
65
 73
6
 40
31.750000000000004
 49
15.875
 74
0
 49
-3.1749999999999998
 74
0
 49
3.1749999999999998
 74
0
 49
-3.1749999999999998
 74
0
 49
3.1749999999999998
 74
0
 49
-3.1749999999999998
 74
0
  0
LTYPE
  5
43
100
AcDbSymbolTableRecord
100
AcDbLinetypeTableRecord
  2
BORDER2
 70
0
  3
Border (.5x) __.__.__.__.__.__.__.__.__.__.__.
 72
65
 73
6
 40
22.225000000000001
 49
6.3499999999999996
 74
0
 49
-3.1749999999999998
 74
0
 49
6.3499999999999996
 74
0
 49
-3.125
 74
0
 49
0.1
 74
0
 49
-3.125
 74
0
  0
LTYPE
  5
44
100
AcDbSymbolTableRecord
100
AcDbLinetypeTableRecord
  2
DOTX2
 70
0
  3
Dot (2x) .  .  .  .  .  .  .  .  .  .  .  .  .  .
 72
65
 73
2
 40
12.699999999999999
 49
0.1
 74
0
 49
-12.6
 74
0
  0
LTYPE
  5
45
100
AcDbSymbolTableRecord
100
AcDbLinetypeTableRecord
  2
PHANTOMX2
 70
0
  3
Phantom (2x) ____________    ____    ____   _
 72
65
 73
6
 40
127.00000000000001
 49
63.5
 74
0
 49
-12.699999999999999
 74
0
 49
12.699999999999999
 74
0
 49
-12.699999999999999
 74
0
 49
12.699999999999999
 74
0
 49
-12.699999999999999
 74
0
  0
LTYPE
  5
46
100
AcDbSymbolTableRecord
100
AcDbLinetypeTableRecord
  2
DASHDOTX2
 70
0
  3
Dash dot (2x) ____  .  ____  .  ____  .  ___
 72
65
 73
4
 40
50.799999999999997
 49
25.399999999999999
 74
0
 49
-12.65
 74
0
 49
0.1
 74
0
 49
-12.65
 74
0
  0
LTYPE
  5
47
100
AcDbSymbolTableRecord
100
AcDbLinetypeTableRecord
  2
BORDERX2
 70
0
  3
Border (2x) ____  ____  .  ____  ____  .  ___
 72
65
 73
6
 40
88.899999999999991
 49
25.399999999999999
 74
0
 49
-12.699999999999999
 74
0
 49
25.399999999999999
 74
0
 49
-12.65
 74
0
 49
0.1
 74
0
 49
-12.65
 74
0
  0
LTYPE
  5
48
100
AcDbSymbolTableRecord
100
AcDbLinetypeTableRecord
  2
ACAD_ISO15W100
 70
0
  3
ISO double-dash triple-dot __ __ . . . __ __ . .
 72
65
 73
10
 40
39.000000000000007
 49
12.0
 74
0
 49
-3.0
 74
0
 49
12.0
 74
0
 49
-2.9500000000000002
 74
0
 49
0.1
 74
0
 49
-2.8999999999999999
 74
0
 49
0.1
 74
0
 49
-2.8999999999999999
 74
0
 49
0.1
 74
0
 49
-2.9500000000000002
 74
0
  0
LTYPE
  5
49
100
AcDbSymbolTableRecord
100
AcDbLinetypeTableRecord
  2
BORDER
 70
0
  3
Border __ __ . __ __ . __ __ . __ __ . __ __ .
 72
65
 73
6
 40
44.449999999999996
 49
12.699999999999999
 74
0
 49
-6.3499999999999996
 74
0
 49
12.699999999999999
 74
0
 49
-6.2999999999999998
 74
0
 49
0.1
 74
0
 49
-6.2999999999999998
 74
0
  0
LTYPE
  5
4A
100
AcDbSymbolTableRecord
100
AcDbLinetypeTableRecord
  2
ACAD_ISO07W100
 70
0
  3
ISO dot . . . . . . . . . . . . . . . . . . . . 
 72
65
 73
2
 40
3.0
 49
0.1
 74
0
 49
-2.8999999999999999
 74
0
  0
LTYPE
  5
14
100
AcDbSymbolTableRecord
100
AcDbLinetypeTableRecord
  2
ByBlock
 70
0
  3

 72
65
 73
0
 40
0.0
  0
LTYPE
  5
4B
100
AcDbSymbolTableRecord
100
AcDbLinetypeTableRecord
  2
HIDDEN2
 70
0
  3
Hidden (.5x) _ _ _ _ _ _ _ _ _ _ _ _ _ _ _ _ _ 
 72
65
 73
2
 40
4.7624999999999993
 49
3.1749999999999998
 74
0
 49
-1.5874999999999999
 74
0
  0
LTYPE
  5
4C
100
AcDbSymbolTableRecord
100
AcDbLinetypeTableRecord
  2
GAS_LINE
 70
0
  3
Gas line ----GAS----GAS----GAS----GAS----GAS----GAS--
 72
65
 73
3
 40
24.130000000000003
 49
12.699999999999999
 74
0
 49
-5.0800000000000001
 74
0
 49
-6.3499999999999996
 74
0
  0
LTYPE
  5
4D
100
AcDbSymbolTableRecord
100
AcDbLinetypeTableRecord
  2
DASHED
 70
0
  3
Dashed __ __ __ __ __ __ __ __ __ __ __ __ __ _
 72
65
 73
2
 40
19.049999999999997
 49
12.699999999999999
 74
0
 49
-6.3499999999999996
 74
0
  0
LTYPE
  5
4E
100
AcDbSymbolTableRecord
100
AcDbLinetypeTableRecord
  2
CENTERX2
 70
0
  3
Center (2x) ________  __  ________  __  _____
 72
65
 73
4
 40
101.60000000000001
 49
63.5
 74
0
 49
-12.699999999999999
 74
0
 49
12.699999999999999
 74
0
 49
-12.699999999999999
 74
0
  0
LTYPE
  5
4F
100
AcDbSymbolTableRecord
100
AcDbLinetypeTableRecord
  2
ZIGZAG
 70
0
  3
Zig zag /\/\/\/\/\/\/\/\/\/\/\/\/\/\/\/\/\/\/\/\/\/\/\/
 72
65
 73
4
 40
20.32254
 49
0.00254
 74
0
 49
-5.0800000000000001
 74
0
 49
-10.16
 74
0
 49
-5.0800000000000001
 74
0
  0
LTYPE
  5
50
100
AcDbSymbolTableRecord
100
AcDbLinetypeTableRecord
  2
ACAD_ISO04W100
 70
0
  3
ISO long-dash dot ____ . ____ . ____ . ____ . _
 72
65
 73
4
 40
30.0
 49
24.0
 74
0
 49
-2.9500000000000002
 74
0
 49
0.1
 74
0
 49
-2.9500000000000002
 74
0
  0
LTYPE
  5
51
100
AcDbSymbolTableRecord
100
AcDbLinetypeTableRecord
  2
ACAD_ISO03W100
 70
0
  3
ISO dash space __    __    __    __    __    __
 72
65
 73
2
 40
30.0
 49
12.0
 74
0
 49
-18.0
 74
0
  0
LTYPE
  5
52
100
AcDbSymbolTableRecord
100
AcDbLinetypeTableRecord
  2
BATTING
 70
0
  3
Batting SSSSSSSSSSSSSSSSSSSSSSSSSSSSSSSSSSSSSSSSSSSSSSS
 72
65
 73
4
 40
10.16254
 49
0.00254
 74
0
 49
-2.54
 74
0
 49
-5.0800000000000001
 74
0
 49
-2.54
 74
0
  0
LTYPE
  5
53
100
AcDbSymbolTableRecord
100
AcDbLinetypeTableRecord
  2
HOT_WATER_SUPPLY
 70
0
  3
Hot water supply ---- HW ---- HW ---- HW ----
 72
65
 73
3
 40
22.859999999999999
 49
12.699999999999999
 74
0
 49
-5.0800000000000001
 74
0
 49
-5.0800000000000001
 74
0
  0
LTYPE
  5
54
100
AcDbSymbolTableRecord
100
AcDbLinetypeTableRecord
  2
DRAINAGE
 70
0
  3
Drainage ---->---->---->----
 72
65
 73
2
 40
10.16
 49
5.0800000000000001
 74
0
 49
5.0800000000000001
 74
0
  0
LTYPE
  5
55
100
AcDbSymbolTableRecord
100
AcDbLinetypeTableRecord
  2
ACAD_ISO10W100
 70
0
  3
ISO dash dot __ . __ . __ . __ . __ . __ . __ . 
 72
65
 73
4
 40
18.0
 49
12.0
 74
0
 49
-2.9500000000000002
 74
0
 49
0.1
 74
0
 49
-2.9500000000000002
 74
0
  0
LTYPE
  5
56
100
AcDbSymbolTableRecord
100
AcDbLinetypeTableRecord
  2
ACAD_ISO05W100
 70
0
  3
ISO long-dash double-dot ____ .. ____ .. ____ . 
 72
65
 73
6
 40
33.0
 49
24.0
 74
0
 49
-2.9500000000000002
 74
0
 49
0.1
 74
0
 49
-2.8999999999999999
 74
0
 49
0.1
 74
0
 49
-2.9500000000000002
 74
0
  0
LTYPE
  5
57
100
AcDbSymbolTableRecord
100
AcDbLinetypeTableRecord
  2
CENTER
 70
0
  3
Center ____ _ ____ _ ____ _ ____ _ ____ _ ____
 72
65
 73
4
 40
50.800000000000004
 49
31.75
 74
0
 49
-6.3499999999999996
 74
0
 49
6.3499999999999996
 74
0
 49
-6.3499999999999996
 74
0
  0
LTYPE
  5
58
100
AcDbSymbolTableRecord
100
AcDbLinetypeTableRecord
  2
DIVIDE2
 70
0
  3
Divide (.5x) __..__..__..__..__..__..__..__.._
 72
65
 73
6
 40
15.874999999999998
 49
6.3499999999999996
 74
0
 49
-3.125
 74
0
 49
0.1
 74
0
 49
-3.0750000000000002
 74
0
 49
0.1
 74
0
 49
-3.125
 74
0
  0
LTYPE
  5
15
100
AcDbSymbolTableRecord
100
AcDbLinetypeTableRecord
  2
ByLayer
 70
0
  3

 72
65
 73
0
 40
0.0
  0
LTYPE
  5
59
100
AcDbSymbolTableRecord
100
AcDbLinetypeTableRecord
  2
ACAD_ISO12W100
 70
0
  3
ISO dash double-dot __ . . __ . . __ . . __ . . 
 72
65
 73
6
 40
21.0
 49
12.0
 74
0
 49
-2.9500000000000002
 74
0
 49
0.1
 74
0
 49
-2.8999999999999999
 74
0
 49
0.1
 74
0
 49
-2.9500000000000002
 74
0
  0
LTYPE
  5
5A
100
AcDbSymbolTableRecord
100
AcDbLinetypeTableRecord
  2
ACAD_ISO11W100
 70
0
  3
ISO double-dash dot __ __ . __ __ . __ __ . __ _
 72
65
 73
6
 40
33.0
 49
12.0
 74
0
 49
-3.0
 74
0
 49
12.0
 74
0
 49
-2.9500000000000002
 74
0
 49
0.1
 74
0
 49
-2.9500000000000002
 74
0
  0
LTYPE
  5
5B
100
AcDbSymbolTableRecord
100
AcDbLinetypeTableRecord
  2
ACAD_ISO06W100
 70
0
  3
ISO long-dash triple-dot ____ ... ____ ... ____
 72
65
 73
8
 40
36.000000000000007
 49
24.0
 74
0
 49
-2.9500000000000002
 74
0
 49
0.1
 74
0
 49
-2.8999999999999999
 74
0
 49
0.1
 74
0
 49
-2.8999999999999999
 74
0
 49
0.1
 74
0
 49
-2.9500000000000002
 74
0
  0
LTYPE
  5
5C
100
AcDbSymbolTableRecord
100
AcDbLinetypeTableRecord
  2
CENTER2
 70
0
  3
Center (.5x) ___ _ ___ _ ___ _ ___ _ ___ _ ___
 72
65
 73
4
 40
28.575000000000003
 49
19.050000000000001
 74
0
 49
-3.1749999999999998
 74
0
 49
3.1749999999999998
 74
0
 49
-3.1749999999999998
 74
0
  0
LTYPE
  5
5D
100
AcDbSymbolTableRecord
100
AcDbLinetypeTableRecord
  2
DRAINAGE2
 70
0
  3
Drainage reversed----<----<----<----
 72
65
 73
2
 40
10.16
 49
5.0800000000000001
 74
0
 49
5.0800000000000001
 74
0
  0
LTYPE
  5
5E
100
AcDbSymbolTableRecord
100
AcDbLinetypeTableRecord
  2
DASHED2
 70
0
  3
Dashed (.5x) _ _ _ _ _ _ _ _ _ _ _ _ _ _ _ _ _ 
 72
65
 73
2
 40
9.5249999999999986
 49
6.3499999999999996
 74
0
 49
-3.1749999999999998
 74
0
  0
LTYPE
  5
5F
100
AcDbSymbolTableRecord
100
AcDbLinetypeTableRecord
  2
HIDDENX2
 70
0
  3
Hidden (2x) ____ ____ ____ ____ ____ ____ ____ 
 72
65
 73
2
 40
19.049999999999997
 49
12.699999999999999
 74
0
 49
-6.3499999999999996
 74
0
  0
ENDTAB
  0
TABLE
  2
LAYER
  5
2
100
AcDbSymbolTable
 70
1
  0
LAYER
  5
10
100
AcDbSymbolTableRecord
100
AcDbLayerTableRecord
  2
0
 70
0
 62
7
420
16777215
  6
Continuous
370
25
390
F
  0
ENDTAB
  0
TABLE
  2
STYLE
  5
3
100
AcDbSymbolTable
 70
2
  0
STYLE
  5
60
100
AcDbSymbolTableRecord
100
AcDbTextStyleTableRecord
  2
Standard
 70
0
 40
0.0
 41
1.0
 50
0.0
 71
0
 42
2.5
  3

  4

1001
ACAD
1000
txt
1071
0
  0
STYLE
  5
61
100
AcDbSymbolTableRecord
100
AcDbTextStyleTableRecord
  2
textstyle0
 70
0
 40
0.0
 41
1.0
 50
0.0
 71
0
 42
10.0
  3

  4

1001
ACAD
1000
Arial
1071
0
  0
ENDTAB
  0
TABLE
  2
VIEW
  5
6
100
AcDbSymbolTable
 70
0
  0
ENDTAB
  0
TABLE
  2
UCS
  5
7
100
AcDbSymbolTable
 70
0
  0
ENDTAB
  0
TABLE
  2
APPID
  5
9
100
AcDbSymbolTable
 70
1
  0
APPID
  5
12
100
AcDbSymbolTableRecord
100
AcDbRegAppTableRecord
  2
ACAD
 70
0
  0
APPID
  5
62
100
AcDbSymbolTableRecord
100
AcDbRegAppTableRecord
  2
QCAD
 70
0
  0
ENDTAB
  0
TABLE
  2
DIMSTYLE
  5
A
100
AcDbSymbolTable
 70
1
100
AcDbDimStyleTable
 71
0
  0
DIMSTYLE
105
27
100
AcDbSymbolTableRecord
100
AcDbDimStyleTableRecord
  2
Standard
 41
2.5
 42
0.625
 43
3.75
 44
1.25
 70
0
 73
0
 74
0
 77
1
 78
8
140
2.5
141
2.5
143
0.03937007874016
147
0.625
171
3
172
1
271
2
272
2
274
3
278
44
283
0
284
8
340
60
  0
ENDTAB
  0
TABLE
  2
BLOCK_RECORD
  5
1
100
AcDbSymbolTable
 70
1
  0
BLOCK_RECORD
  5
1F
100
AcDbSymbolTableRecord
100
AcDbBlockTableRecord
  2
*Model_Space
340
22
  0
BLOCK_RECORD
  5
1B
100
AcDbSymbolTableRecord
100
AcDbBlockTableRecord
  2
*Paper_Space
340
1E
  0
BLOCK_RECORD
  5
23
100
AcDbSymbolTableRecord
100
AcDbBlockTableRecord
  2
*Paper_Space0
340
26
  0
ENDTAB
  0
ENDSEC
  0
SECTION
  2
BLOCKS
  0
BLOCK
  5
20
100
AcDbEntity
  8
0
100
AcDbBlockBegin
  2
*Model_Space
 70
0
 10
0.0
 20
0.0
 30
0.0
  3
*Model_Space
  1

  0
ENDBLK
  5
21
100
AcDbEntity
  8
0
100
AcDbBlockEnd
  0
BLOCK
  5
1C
100
AcDbEntity
 67
1
  8
0
100
AcDbBlockBegin
  2
*Paper_Space
 70
0
 10
0.0
 20
0.0
 30
0.0
  3
*Paper_Space
  1

  0
ENDBLK
  5
1D
100
AcDbEntity
 67
1
  8
0
100
AcDbBlockEnd
  0
BLOCK
  5
24
100
AcDbEntity
  8
0
100
AcDbBlockBegin
  2
*Paper_Space0
 70
0
 10
0.0
 20
0.0
 30
0.0
  3
*Paper_Space0
  1

  0
ENDBLK
  5
25
100
AcDbEntity
  8
0
100
AcDbBlockEnd
  0
ENDSEC
  0
SECTION
  2
ENTITIES
  0
ARC
  5
63
100
AcDbEntity
  8
0
 62
256
370
-1
 48
1.0
  6
ByLayer
100
AcDbCircle
 10
52.279999999999852
 20
-309.94000000000005
 30
0.0
 40
5.9999999999999778
100
AcDbArc
 50
194.47751218592995
 51
345.52248781407002
  0
LINE
  5
64
100
AcDbEntity
  8
0
 62
256
370
-1
 48
1.0
  6
ByLayer
100
AcDbLine
 10
46.470524980688751
 20
-311.44000000000005
 30
0.0
 11
46.279999999999859
 21
-311.44000000000005
 31
0.0
  0
LINE
  5
65
100
AcDbEntity
  8
0
 62
256
370
-1
 48
1.0
  6
ByLayer
100
AcDbLine
 10
46.279999999999859
 20
-311.44000000000005
 30
0.0
 11
46.279999999999859
 21
-308.44000000000005
 31
0.0
  0
LINE
  5
66
100
AcDbEntity
  8
0
 62
256
370
-1
 48
1.0
  6
ByLayer
100
AcDbLine
 10
46.279999999999859
 20
-308.44000000000005
 30
0.0
 11
46.470524980688651
 21
-308.44000000000005
 31
0.0
  0
ARC
  5
67
100
AcDbEntity
  8
0
 62
256
370
-1
 48
1.0
  6
ByLayer
100
AcDbCircle
 10
52.279999999999802
 20
-309.94000000000005
 30
0.0
 40
6.0000000000000222
100
AcDbArc
 50
14.477512185929866
 51
165.52248781407013
  0
LINE
  5
68
100
AcDbEntity
  8
0
 62
256
370
-1
 48
1.0
  6
ByLayer
100
AcDbLine
 10
58.089475019310953
 20
-308.44000000000005
 30
0.0
 11
58.279999999999859
 21
-308.44000000000005
 31
0.0
  0
LINE
  5
69
100
AcDbEntity
  8
0
 62
256
370
-1
 48
1.0
  6
ByLayer
100
AcDbLine
 10
58.279999999999859
 20
-308.44000000000005
 30
0.0
 11
58.279999999999859
 21
-311.44000000000005
 31
0.0
  0
LINE
  5
6A
100
AcDbEntity
  8
0
 62
256
370
-1
 48
1.0
  6
ByLayer
100
AcDbLine
 10
58.279999999999859
 20
-311.44000000000005
 30
0.0
 11
58.089475019310953
 21
-311.44000000000005
 31
0.0
  0
ARC
  5
6B
100
AcDbEntity
  8
0
 62
256
370
-1
 48
1.0
  6
ByLayer
100
AcDbCircle
 10
-52.060000000000215
 20
-294.60000000000008
 30
0.0
 40
1.5
100
AcDbArc
 50
180.0
 51
0.0
  0
LINE
  5
6C
100
AcDbEntity
  8
0
 62
256
370
-1
 48
1.0
  6
ByLayer
100
AcDbLine
 10
-50.560000000000215
 20
-294.60000000000008
 30
0.0
 11
-50.560000000000215
 21
-248.60000000000008
 31
0.0
  0
ARC
  5
6D
100
AcDbEntity
  8
0
 62
256
370
-1
 48
1.0
  6
ByLayer
100
AcDbCircle
 10
-52.060000000000208
 20
-248.60000000000008
 30
0.0
 40
1.4999999999999929
100
AcDbArc
 50
0.0
 51
180.0
  0
LINE
  5
6E
100
AcDbEntity
  8
0
 62
256
370
-1
 48
1.0
  6
ByLayer
100
AcDbLine
 10
-53.560000000000201
 20
-248.60000000000008
 30
0.0
 11
-53.560000000000215
 21
-294.60000000000008
 31
0.0
  0
LINE
  5
6F
100
AcDbEntity
  8
0
 62
256
370
-1
 48
1.0
  6
ByLayer
100
AcDbLine
 10
-127.06500000000017
 20
-49.119999999999891
 30
0.0
 11
-127.0650000000001
 21
-44.339999999999861
 31
0.0
  0
LINE
  5
70
100
AcDbEntity
  8
0
 62
256
370
-1
 48
1.0
  6
ByLayer
100
AcDbLine
 10
-127.0650000000001
 20
-44.339999999999861
 30
0.0
 11
-111.49999999999982
 21
-44.339999999999861
 31
0.0
  0
LINE
  5
71
100
AcDbEntity
  8
0
 62
256
370
-1
 48
1.0
  6
ByLayer
100
AcDbLine
 10
-111.49999999999982
 20
-44.339999999999861
 30
0.0
 11
-111.49999999999991
 21
-85.499999999999829
 31
0.0
  0
LINE
  5
72
100
AcDbEntity
  8
0
 62
256
370
-1
 48
1.0
  6
ByLayer
100
AcDbLine
 10
-111.49999999999991
 20
-85.499999999999829
 30
0.0
 11
-72.000000000000256
 21
-85.499999999999829
 31
0.0
  0
ARC
  5
73
100
AcDbEntity
  8
0
 62
256
370
-1
 48
1.0
  6
ByLayer
100
AcDbCircle
 10
-62.000000000000242
 20
-85.499999999999858
 30
0.0
 40
10.000000000000014
100
AcDbArc
 50
180.0
 51
360.0
  0
LINE
  5
74
100
AcDbEntity
  8
0
 62
256
370
-1
 48
1.0
  6
ByLayer
100
AcDbLine
 10
-52.000000000000227
 20
-85.499999999999886
 30
0.0
 11
21.779999999999916
 21
-85.499999999999773
 31
0.0
  0
LINE
  5
75
100
AcDbEntity
  8
0
 62
256
370
-1
 48
1.0
  6
ByLayer
100
AcDbLine
 10
21.779999999999916
 20
-85.499999999999773
 30
0.0
 11
21.780000000000143
 21
-111.55999999999972
 31
0.0
  0
LINE
  5
76
100
AcDbEntity
  8
0
 62
256
370
-1
 48
1.0
  6
ByLayer
100
AcDbLine
 10
21.780000000000143
 20
-111.55999999999972
 30
0.0
 11
28.499999999999858
 21
-111.55999999999989
 31
0.0
  0
LINE
  5
77
100
AcDbEntity
  8
0
 62
256
370
-1
 48
1.0
  6
ByLayer
100
AcDbLine
 10
28.499999999999858
 20
-111.55999999999989
 30
0.0
 11
28.499999999999972
 21
355.49999999999994
 31
0.0
  0
LINE
  5
78
100
AcDbEntity
  8
0
 62
256
370
-1
 48
1.0
  6
ByLayer
100
AcDbLine
 10
28.499999999999886
 20
93.000000000000114
 30
0.0
 11
28.799999999999898
 21
93.000000000000057
 31
0.0
  0
ARC
  5
79
100
AcDbEntity
  8
0
 62
256
370
-1
 48
1.0
  6
ByLayer
100
AcDbCircle
 10
28.799999999999955
 20
95.000000000000085
 30
0.0
 40
2.0000000000000284
100
AcDbArc
 50
269.99999999999835
 51
89.999999999998366
  0
LINE
  5
7A
100
AcDbEntity
  8
0
 62
256
370
-1
 48
1.0
  6
ByLayer
100
AcDbLine
 10
28.800000000000011
 20
97.000000000000114
 30
0.0
 11
28.499999999999915
 21
97.000000000000114
 31
0.0
  0
LINE
  5
7B
100
AcDbEntity
  8
0
 62
256
370
-1
 48
1.0
  6
ByLayer
100
AcDbLine
 10
28.499999999999915
 20
97.000000000000114
 30
0.0
 11
28.500000000000085
 21
100.00000000000028
 31
0.0
  0
LINE
  5
7C
100
AcDbEntity
  8
0
 62
256
370
-1
 48
1.0
  6
ByLayer
100
AcDbLine
 10
28.500000000000085
 20
100.00000000000028
 30
0.0
 11
35.219999999999914
 21
100.00000000000011
 31
0.0
  0
LINE
  5
7D
100
AcDbEntity
  8
0
 62
256
370
-1
 48
1.0
  6
ByLayer
100
AcDbLine
 10
35.219999999999914
 20
100.00000000000011
 30
0.0
 11
35.219999999999942
 21
106.72000000000008
 31
0.0
  0
LINE
  5
7E
100
AcDbEntity
  8
0
 62
256
370
-1
 48
1.0
  6
ByLayer
100
AcDbLine
 10
35.219999999999942
 20
106.72000000000008
 30
0.0
 11
28.500000000000028
 21
106.7200000000002
 31
0.0
  0
LINE
  5
7F
100
AcDbEntity
  8
0
 62
256
370
-1
 48
1.0
  6
ByLayer
100
AcDbLine
 10
28.499999999999943
 20
241.72000000000017
 30
0.0
 11
31.649999999999977
 21
241.7200000000002
 31
0.0
  0
LINE
  5
80
100
AcDbEntity
  8
0
 62
256
370
-1
 48
1.0
  6
ByLayer
100
AcDbLine
 10
31.649999999999977
 20
241.7200000000002
 30
0.0
 11
31.64999999999992
 21
291.71999999999997
 31
0.0
  0
LINE
  5
81
100
AcDbEntity
  8
0
 62
256
370
-1
 48
1.0
  6
ByLayer
100
AcDbLine
 10
31.64999999999992
 20
291.71999999999997
 30
0.0
 11
28.499999999999943
 21
291.72000000000014
 31
0.0
  0
LINE
  5
82
100
AcDbEntity
  8
0
 62
256
370
-1
 48
1.0
  6
ByLayer
100
AcDbLine
 10
28.499999999999972
 20
355.50000000000011
 30
0.0
 11
-152.50000000000003
 21
355.50000000000011
 31
0.0
  0
LINE
  5
83
100
AcDbEntity
  8
0
 62
256
370
-1
 48
1.0
  6
ByLayer
100
AcDbLine
 10
-152.50000000000003
 20
291.72000000000014
 30
0.0
 11
-155.65000000000009
 21
291.72000000000003
 31
0.0
  0
LINE
  5
84
100
AcDbEntity
  8
0
 62
256
370
-1
 48
1.0
  6
ByLayer
100
AcDbLine
 10
-155.65000000000009
 20
291.72000000000003
 30
0.0
 11
-155.65000000000012
 21
241.72000000000014
 31
0.0
  0
LINE
  5
85
100
AcDbEntity
  8
0
 62
256
370
-1
 48
1.0
  6
ByLayer
100
AcDbLine
 10
-155.65000000000012
 20
241.72000000000014
 30
0.0
 11
-152.5
 21
241.72000000000014
 31
0.0
  0
LINE
  5
86
100
AcDbEntity
  8
0
 62
256
370
-1
 48
1.0
  6
ByLayer
100
AcDbLine
 10
-152.50000000000003
 20
355.50000000000011
 30
0.0
 11
-152.49999999999991
 21
106.7200000000002
 31
0.0
  0
LINE
  5
87
100
AcDbEntity
  8
0
 62
256
370
-1
 48
1.0
  6
ByLayer
100
AcDbLine
 10
-152.49999999999991
 20
106.7200000000002
 30
0.0
 11
-159.22000000000008
 21
106.72000000000014
 31
0.0
  0
LINE
  5
88
100
AcDbEntity
  8
0
 62
256
370
-1
 48
1.0
  6
ByLayer
100
AcDbLine
 10
-159.22000000000008
 20
106.72000000000014
 30
0.0
 11
-159.22000000000008
 21
100.00000000000017
 31
0.0
  0
LINE
  5
89
100
AcDbEntity
  8
0
 62
256
370
-1
 48
1.0
  6
ByLayer
100
AcDbLine
 10
-159.22000000000008
 20
100.00000000000017
 30
0.0
 11
-152.50000000000011
 21
100.00000000000011
 31
0.0
  0
LINE
  5
8A
100
AcDbEntity
  8
0
 62
256
370
-1
 48
1.0
  6
ByLayer
100
AcDbLine
 10
-152.50000000000011
 20
100.00000000000011
 30
0.0
 11
-152.50000000000011
 21
97.000000000000114
 31
0.0
  0
LINE
  5
8B
100
AcDbEntity
  8
0
 62
256
370
-1
 48
1.0
  6
ByLayer
100
AcDbLine
 10
-152.50000000000011
 20
97.000000000000114
 30
0.0
 11
-152.80000000000013
 21
97.000000000000057
 31
0.0
  0
ARC
  5
8C
100
AcDbEntity
  8
0
 62
256
370
-1
 48
1.0
  6
ByLayer
100
AcDbCircle
 10
-152.80000000000018
 20
95.000000000000085
 30
0.0
 40
1.9999999999999716
100
AcDbArc
 50
89.999999999998366
 51
269.99999999999835
  0
LINE
  5
8D
100
AcDbEntity
  8
0
 62
256
370
-1
 48
1.0
  6
ByLayer
100
AcDbLine
 10
-152.80000000000024
 20
93.000000000000114
 30
0.0
 11
-152.50000000000011
 21
93.000000000000057
 31
0.0
  0
LINE
  5
8E
100
AcDbEntity
  8
0
 62
256
370
-1
 48
1.0
  6
ByLayer
100
AcDbLine
 10
-152.50000000000011
 20
93.000000000000057
 30
0.0
 11
-152.49999999999994
 21
-111.55999999999983
 31
0.0
  0
LINE
  5
8F
100
AcDbEntity
  8
0
 62
256
370
-1
 48
1.0
  6
ByLayer
100
AcDbLine
 10
-152.49999999999994
 20
-111.55999999999983
 30
0.0
 11
-145.78000000000014
 21
-111.55999999999983
 31
0.0
  0
LINE
  5
90
100
AcDbEntity
  8
0
 62
256
370
-1
 48
1.0
  6
ByLayer
100
AcDbLine
 10
-145.78000000000014
 20
-111.55999999999983
 30
0.0
 11
-145.77999999999992
 21
-44.339999999999804
 31
0.0
  0
LINE
  5
91
100
AcDbEntity
  8
0
 62
256
370
-1
 48
1.0
  6
ByLayer
100
AcDbLine
 10
-145.77999999999992
 20
-44.339999999999804
 30
0.0
 11
-130.2150000000002
 21
-44.339999999999861
 31
0.0
  0
LINE
  5
92
100
AcDbEntity
  8
0
 62
256
370
-1
 48
1.0
  6
ByLayer
100
AcDbLine
 10
-130.2150000000002
 20
-44.339999999999861
 30
0.0
 11
-130.21500000000006
 21
-49.119999999999891
 31
0.0
  0
LINE
  5
93
100
AcDbEntity
  8
0
 62
256
370
-1
 48
1.0
  6
ByLayer
100
AcDbLine
 10
-130.21500000000006
 20
-49.119999999999891
 30
0.0
 11
-131.23999999999975
 21
-49.119999999999891
 31
0.0
  0
ARC
  5
94
100
AcDbEntity
  8
0
 62
256
370
-1
 48
1.0
  6
ByLayer
100
AcDbCircle
 10
-131.4899999999999
 20
-49.119999999999763
 30
0.0
 40
0.2500000000001279
100
AcDbArc
 50
360.0
 51
269.99999999997397
  0
LINE
  5
95
100
AcDbEntity
  8
0
 62
256
370
-1
 48
1.0
  6
ByLayer
100
AcDbLine
 10
-131.49000000000001
 20
-49.369999999999891
 30
0.0
 11
-131.49000000000029
 21
-51.369999999999834
 31
0.0
  0
ARC
  5
96
100
AcDbEntity
  8
0
 62
256
370
-1
 48
1.0
  6
ByLayer
100
AcDbCircle
 10
-131.49000000000004
 20
-51.62000000000009
 30
0.0
 40
0.2500000000002558
100
AcDbArc
 50
90.000000000058634
 51
0.0
  0
LINE
  5
97
100
AcDbEntity
  8
0
 62
256
370
-1
 48
1.0
  6
ByLayer
100
AcDbLine
 10
-131.23999999999978
 20
-51.619999999999834
 30
0.0
 11
-130.21500000000023
 21
-51.619999999999948
 31
0.0
  0
LINE
  5
98
100
AcDbEntity
  8
0
 62
256
370
-1
 48
1.0
  6
ByLayer
100
AcDbLine
 10
-130.21500000000023
 20
-51.619999999999948
 30
0.0
 11
-130.215
 21
-52.619999999999834
 31
0.0
  0
LINE
  5
99
100
AcDbEntity
  8
0
 62
256
370
-1
 48
1.0
  6
ByLayer
100
AcDbLine
 10
-130.215
 20
-52.619999999999834
 30
0.0
 11
-127.06499999999997
 21
-52.619999999999834
 31
0.0
  0
LINE
  5
9A
100
AcDbEntity
  8
0
 62
256
370
-1
 48
1.0
  6
ByLayer
100
AcDbLine
 10
-127.06499999999997
 20
-52.619999999999834
 30
0.0
 11
-127.06500000000008
 21
-51.619999999999891
 31
0.0
  0
LINE
  5
9B
100
AcDbEntity
  8
0
 62
256
370
-1
 48
1.0
  6
ByLayer
100
AcDbLine
 10
-127.06500000000008
 20
-51.619999999999891
 30
0.0
 11
-126.03999999999985
 21
-51.619999999999834
 31
0.0
  0
ARC
  5
9C
100
AcDbEntity
  8
0
 62
256
370
-1
 48
1.0
  6
ByLayer
100
AcDbCircle
 10
-125.78999999999995
 20
-51.619999999999735
 30
0.0
 40
0.2499999999999005
100
AcDbArc
 50
180.0
 51
90.000000000022808
  0
LINE
  5
9D
100
AcDbEntity
  8
0
 62
256
370
-1
 48
1.0
  6
ByLayer
100
AcDbLine
 10
-125.79000000000005
 20
-51.369999999999834
 30
0.0
 11
-125.79000000000019
 21
-49.369999999999891
 31
0.0
  0
ARC
  5
9E
100
AcDbEntity
  8
0
 62
256
370
-1
 48
1.0
  6
ByLayer
100
AcDbCircle
 10
-125.79000000000011
 20
-49.119999999999983
 30
0.0
 40
0.2499999999999076
100
AcDbArc
 50
269.99999999998045
 51
180.0
  0
LINE
  5
9F
100
AcDbEntity
  8
0
 62
256
370
-1
 48
1.0
  6
ByLayer
100
AcDbLine
 10
-126.04000000000001
 20
-49.119999999999891
 30
0.0
 11
-127.06500000000017
 21
-49.119999999999891
 31
0.0
  0
LINE
  5
A0
100
AcDbEntity
  8
0
 62
256
370
-1
 48
1.0
  6
ByLayer
100
AcDbLine
 10
-2.0000000000001421
 20
-230.66000000000003
 30
0.0
 11
-2.000000000000135
 21
-350.66000000000003
 31
0.0
  0
LINE
  5
A1
100
AcDbEntity
  8
0
 62
256
370
-1
 48
1.0
  6
ByLayer
100
AcDbLine
 10
-2.000000000000135
 20
-350.66000000000003
 30
0.0
 11
-122.00000000000014
 21
-350.66000000000003
 31
0.0
  0
LINE
  5
A2
100
AcDbEntity
  8
0
 62
256
370
-1
 48
1.0
  6
ByLayer
100
AcDbLine
 10
-122.00000000000014
 20
-350.66000000000003
 30
0.0
 11
-122.00000000000014
 21
-230.66000000000003
 31
0.0
  0
LINE
  5
A3
100
AcDbEntity
  8
0
 62
256
370
-1
 48
1.0
  6
ByLayer
100
AcDbLine
 10
-122.00000000000014
 20
-230.66000000000003
 30
0.0
 11
-2.0000000000001421
 21
-230.66000000000003
 31
0.0
  0
ARC
  5
A4
100
AcDbEntity
  8
0
 62
256
370
-1
 48
1.0
  6
ByLayer
100
AcDbCircle
 10
-12.060000000000215
 20
-294.60000000000008
 30
0.0
 40
1.5
100
AcDbArc
 50
180.0
 51
0.0
  0
LINE
  5
A5
100
AcDbEntity
  8
0
 62
256
370
-1
 48
1.0
  6
ByLayer
100
AcDbLine
 10
-10.560000000000215
 20
-294.60000000000008
 30
0.0
 11
-10.560000000000203
 21
-248.60000000000008
 31
0.0
  0
ARC
  5
A6
100
AcDbEntity
  8
0
 62
256
370
-1
 48
1.0
  6
ByLayer
100
AcDbCircle
 10
-12.060000000000205
 20
-248.60000000000008
 30
0.0
 40
1.5000000000000027
100
AcDbArc
 50
0.0
 51
180.0
  0
LINE
  5
A7
100
AcDbEntity
  8
0
 62
256
370
-1
 48
1.0
  6
ByLayer
100
AcDbLine
 10
-13.560000000000208
 20
-248.60000000000008
 30
0.0
 11
-13.560000000000215
 21
-294.60000000000008
 31
0.0
  0
LINE
  5
A8
100
AcDbEntity
  8
0
 62
256
370
-1
 48
1.0
  6
ByLayer
100
AcDbLine
 10
-8.2200000000002547
 20
-96.219999999999914
 30
0.0
 11
-8.220000000000141
 21
-99.0
 31
0.0
  0
ARC
  5
A9
100
AcDbEntity
  8
0
 62
256
370
-1
 48
1.0
  6
ByLayer
100
AcDbCircle
 10
-1.5000000000001124
 20
-98.999999999999886
 30
0.0
 40
6.7200000000000273
100
AcDbArc
 50
180.0
 51
270.00000000000097
  0
LINE
  5
AA
100
AcDbEntity
  8
0
 62
256
370
-1
 48
1.0
  6
ByLayer
100
AcDbLine
 10
-1.5
 20
-105.71999999999991
 30
0.0
 11
11.059999999999775
 21
-105.71999999999997
 31
0.0
  0
ARC
  5
AB
100
AcDbEntity
  8
0
 62
256
370
-1
 48
1.0
  6
ByLayer
100
AcDbCircle
 10
11.059999999999805
 20
-98.999999999999972
 30
0.0
 40
6.719999999999998
100
AcDbArc
 50
269.99999999999977
 51
360.0
  0
LINE
  5
AC
100
AcDbEntity
  8
0
 62
256
370
-1
 48
1.0
  6
ByLayer
100
AcDbLine
 10
17.779999999999802
 20
-99.0
 30
0.0
 11
17.780000000000086
 21
-96.219999999999743
 31
0.0
  0
ARC
  5
AD
100
AcDbEntity
  8
0
 62
256
370
-1
 48
1.0
  6
ByLayer
100
AcDbCircle
 10
11.060000000000089
 20
-96.219999999999715
 30
0.0
 40
6.719999999999998
100
AcDbArc
 50
360.0
 51
89.999999999999773
  0
LINE
  5
AE
100
AcDbEntity
  8
0
 62
256
370
-1
 48
1.0
  6
ByLayer
100
AcDbLine
 10
11.060000000000116
 20
-89.499999999999716
 30
0.0
 11
-1.5
 21
-89.499999999999829
 31
0.0
  0
ARC
  5
AF
100
AcDbEntity
  8
0
 62
256
370
-1
 48
1.0
  6
ByLayer
100
AcDbCircle
 10
-1.5000000000000857
 20
-96.219999999999999
 30
0.0
 40
6.7200000000001694
100
AcDbArc
 50
89.999999999999275
 51
180.0
  0
LINE
  5
B0
100
AcDbEntity
  8
0
 62
256
370
-1
 48
1.0
  6
ByLayer
100
AcDbLine
 10
31.649999999999935
 20
-224.94000000000005
 30
0.0
 11
28.499999999999858
 21
-224.94000000000005
 31
0.0
  0
LINE
  5
B1
100
AcDbEntity
  8
0
 62
256
370
-1
 48
1.0
  6
ByLayer
100
AcDbLine
 10
28.499999999999858
 20
-224.94000000000005
 30
0.0
 11
28.499999999999858
 21
-208.42000000000007
 31
0.0
  0
LINE
  5
B2
100
AcDbEntity
  8
0
 62
256
370
-1
 48
1.0
  6
ByLayer
100
AcDbLine
 10
28.499999999999858
 20
-208.42000000000007
 30
0.0
 11
31.649999999999864
 21
-208.42000000000007
 31
0.0
  0
LINE
  5
B3
100
AcDbEntity
  8
0
 62
256
370
-1
 48
1.0
  6
ByLayer
100
AcDbLine
 10
31.649999999999864
 20
-208.42000000000007
 30
0.0
 11
31.649999999999935
 21
-224.94000000000005
 31
0.0
  0
LINE
  5
B4
100
AcDbEntity
  8
0
 62
256
370
-1
 48
1.0
  6
ByLayer
100
AcDbLine
 10
-2.0000000000001705
 20
-312.54000000000008
 30
0.0
 11
-36.280000000000229
 21
-312.54000000000008
 31
0.0
  0
LINE
  5
B5
100
AcDbEntity
  8
0
 62
256
370
-1
 48
1.0
  6
ByLayer
100
AcDbLine
 10
-36.280000000000229
 20
-312.54000000000008
 30
0.0
 11
-36.280000000000229
 21
-305.82000000000005
 31
0.0
  0
LINE
  5
B6
100
AcDbEntity
  8
0
 62
256
370
-1
 48
1.0
  6
ByLayer
100
AcDbLine
 10
-36.280000000000229
 20
-305.82000000000005
 30
0.0
 11
-69.06000000000023
 21
-305.82000000000005
 31
0.0
  0
LINE
  5
B7
100
AcDbEntity
  8
0
 62
256
370
-1
 48
1.0
  6
ByLayer
100
AcDbLine
 10
-69.06000000000023
 20
-305.82000000000005
 30
0.0
 11
-69.060000000000187
 21
-237.38000000000008
 31
0.0
  0
LINE
  5
B8
100
AcDbEntity
  8
0
 62
256
370
-1
 48
1.0
  6
ByLayer
100
AcDbLine
 10
-69.060000000000187
 20
-237.38000000000008
 30
0.0
 11
-36.2800000000002
 21
-237.38000000000008
 31
0.0
  0
LINE
  5
B9
100
AcDbEntity
  8
0
 62
256
370
-1
 48
1.0
  6
ByLayer
100
AcDbLine
 10
-36.2800000000002
 20
-237.38000000000008
 30
0.0
 11
-36.2800000000002
 21
-230.66000000000008
 31
0.0
  0
LINE
  5
BA
100
AcDbEntity
  8
0
 62
256
370
-1
 48
1.0
  6
ByLayer
100
AcDbLine
 10
-115.78000000000004
 20
-99.000000000000284
 30
0.0
 11
-115.78000000000002
 21
-96.220000000000198
 31
0.0
  0
ARC
  5
BB
100
AcDbEntity
  8
0
 62
256
370
-1
 48
1.0
  6
ByLayer
100
AcDbCircle
 10
-122.50000000000001
 20
-96.220000000000226
 30
0.0
 40
6.7200000000000024
100
AcDbArc
 50
0.0
 51
90.0
  0
LINE
  5
BC
100
AcDbEntity
  8
0
 62
256
370
-1
 48
1.0
  6
ByLayer
100
AcDbLine
 10
-122.50000000000001
 20
-89.500000000000227
 30
0.0
 11
-135.06000000000012
 21
-89.500000000000284
 31
0.0
  0
ARC
  5
BD
100
AcDbEntity
  8
0
 62
256
370
-1
 48
1.0
  6
ByLayer
100
AcDbCircle
 10
-135.06000000000014
 20
-96.220000000000312
 30
0.0
 40
6.7200000000000237
100
AcDbArc
 50
89.999999999999758
 51
180.0
  0
LINE
  5
BE
100
AcDbEntity
  8
0
 62
256
370
-1
 48
1.0
  6
ByLayer
100
AcDbLine
 10
-141.78000000000017
 20
-96.220000000000312
 30
0.0
 11
-141.77999999999977
 21
-99.000000000000398
 31
0.0
  0
ARC
  5
BF
100
AcDbEntity
  8
0
 62
256
370
-1
 48
1.0
  6
ByLayer
100
AcDbCircle
 10
-135.0599999999998
 20
-99.000000000000355
 30
0.0
 40
6.7199999999999598
100
AcDbArc
 50
180.0
 51
270.0
  0
LINE
  5
C0
100
AcDbEntity
  8
0
 62
256
370
-1
 48
1.0
  6
ByLayer
100
AcDbLine
 10
-135.0599999999998
 20
-105.72000000000031
 30
0.0
 11
-122.49999999999982
 21
-105.72000000000037
 31
0.0
  0
ARC
  5
C1
100
AcDbEntity
  8
0
 62
256
370
-1
 48
1.0
  6
ByLayer
100
AcDbCircle
 10
-122.49999999999996
 20
-99.000000000000455
 30
0.0
 40
6.7199999999999109
100
AcDbArc
 50
270.00000000000125
 51
0.0
  0
CIRCLE
  5
C2
100
AcDbEntity
  8
0
 62
256
370
-1
 48
1.0
  6
ByLayer
100
AcDbCircle
 10
-19.1400000000002
 20
-309.18000000000006
 30
0.0
 40
1.5749999999999971
  0
LINE
  5
C3
100
AcDbEntity
  8
0
 62
256
370
-1
 48
1.0
  6
ByLayer
100
AcDbLine
 10
-18.666666666666771
 20
-118.27999999999986
 30
0.0
 11
-105.33333333333314
 21
-118.27999999999986
 31
0.0
  0
LINE
  5
C4
100
AcDbEntity
  8
0
 62
256
370
-1
 48
1.0
  6
ByLayer
100
AcDbLine
 10
-105.33333333333314
 20
-118.27999999999986
 30
0.0
 11
-105.33333333333343
 21
-125.0
 31
0.0
  0
LINE
  5
C5
100
AcDbEntity
  8
0
 62
256
370
-1
 48
1.0
  6
ByLayer
100
AcDbLine
 10
-185.28000000000017
 20
-124.99999999999989
 30
0.0
 11
-185.28000000000014
 21
100.00000000000011
 31
0.0
  0
LINE
  5
C6
100
AcDbEntity
  8
0
 62
256
370
-1
 48
1.0
  6
ByLayer
100
AcDbLine
 10
-185.28000000000014
 20
100.00000000000011
 30
0.0
 11
-192.00000000000009
 21
100.00000000000011
 31
0.0
  0
LINE
  5
C7
100
AcDbEntity
  8
0
 62
256
370
-1
 48
1.0
  6
ByLayer
100
AcDbLine
 10
-192.00000000000009
 20
100.00000000000011
 30
0.0
 11
-192.00000000000003
 21
395.0
 31
0.0
  0
LINE
  5
C8
100
AcDbEntity
  8
0
 62
256
370
-1
 48
1.0
  6
ByLayer
100
AcDbLine
 10
-192.00000000000003
 20
395.0
 30
0.0
 11
-105.33333333333361
 21
395.0
 31
0.0
  0
LINE
  5
C9
100
AcDbEntity
  8
0
 62
256
370
-1
 48
1.0
  6
ByLayer
100
AcDbLine
 10
-105.33333333333361
 20
395.0
 30
0.0
 11
-105.33333333333361
 21
388.28000000000009
 31
0.0
  0
LINE
  5
CA
100
AcDbEntity
  8
0
 62
256
370
-1
 48
1.0
  6
ByLayer
100
AcDbLine
 10
-105.33333333333361
 20
388.28000000000009
 30
0.0
 11
-18.666666666666913
 21
388.27999999999997
 31
0.0
  0
LINE
  5
CB
100
AcDbEntity
  8
0
 62
256
370
-1
 48
1.0
  6
ByLayer
100
AcDbLine
 10
-18.666666666666913
 20
388.27999999999997
 30
0.0
 11
-18.666666666666913
 21
394.99999999999994
 31
0.0
  0
LINE
  5
CC
100
AcDbEntity
  8
0
 62
256
370
-1
 48
1.0
  6
ByLayer
100
AcDbLine
 10
-18.666666666666913
 20
394.99999999999994
 30
0.0
 11
67.999999999999972
 21
394.99999999999994
 31
0.0
  0
LINE
  5
CD
100
AcDbEntity
  8
0
 62
256
370
-1
 48
1.0
  6
ByLayer
100
AcDbLine
 10
67.999999999999972
 20
394.99999999999994
 30
0.0
 11
67.999999999999915
 21
100.00000000000006
 31
0.0
  0
LINE
  5
CE
100
AcDbEntity
  8
0
 62
256
370
-1
 48
1.0
  6
ByLayer
100
AcDbLine
 10
-152.50000000000017
 20
-224.94000000000005
 30
0.0
 11
-155.65000000000018
 21
-224.94000000000005
 31
0.0
  0
LINE
  5
CF
100
AcDbEntity
  8
0
 62
256
370
-1
 48
1.0
  6
ByLayer
100
AcDbLine
 10
-155.65000000000018
 20
-224.94000000000005
 30
0.0
 11
-155.6500000000002
 21
-208.42000000000007
 31
0.0
  0
LINE
  5
D0
100
AcDbEntity
  8
0
 62
256
370
-1
 48
1.0
  6
ByLayer
100
AcDbLine
 10
-155.6500000000002
 20
-208.42000000000007
 30
0.0
 11
-152.50000000000017
 21
-208.42000000000007
 31
0.0
  0
LINE
  5
D1
100
AcDbEntity
  8
0
 62
256
370
-1
 48
1.0
  6
ByLayer
100
AcDbLine
 10
-152.50000000000017
 20
-208.42000000000007
 30
0.0
 11
-152.50000000000017
 21
-224.94000000000005
 31
0.0
  0
CIRCLE
  5
D2
100
AcDbEntity
  8
0
 62
256
370
-1
 48
1.0
  6
ByLayer
100
AcDbCircle
 10
-33.720000000000198
 20
-92.219999999999914
 30
0.0
 40
1.574999999999998
  0
CIRCLE
  5
D3
100
AcDbEntity
  8
0
 62
256
370
-1
 48
1.0
  6
ByLayer
100
AcDbCircle
 10
-19.1400000000002
 20
-234.02000000000004
 30
0.0
 40
1.5749999999999971
  0
LINE
  5
D4
100
AcDbEntity
  8
0
 62
256
370
-1
 48
1.0
  6
ByLayer
100
AcDbLine
 10
-155.6500000000002
 20
-356.38000000000011
 30
0.0
 11
-152.50000000000017
 21
-356.38000000000011
 31
0.0
  0
LINE
  5
D5
100
AcDbEntity
  8
0
 62
256
370
-1
 48
1.0
  6
ByLayer
100
AcDbLine
 10
-152.50000000000017
 20
-356.38000000000011
 30
0.0
 11
-152.50000000000017
 21
-372.90000000000009
 31
0.0
  0
LINE
  5
D6
100
AcDbEntity
  8
0
 62
256
370
-1
 48
1.0
  6
ByLayer
100
AcDbLine
 10
-152.50000000000017
 20
-372.90000000000009
 30
0.0
 11
-155.65000000000015
 21
-372.90000000000009
 31
0.0
  0
LINE
  5
D7
100
AcDbEntity
  8
0
 62
256
370
-1
 48
1.0
  6
ByLayer
100
AcDbLine
 10
-155.65000000000015
 20
-372.90000000000009
 30
0.0
 11
-155.6500000000002
 21
-356.38000000000011
 31
0.0
  0
CIRCLE
  5
D8
100
AcDbEntity
  8
0
 62
256
370
-1
 48
1.0
  6
ByLayer
100
AcDbCircle
 10
-86.280000000000157
 20
-92.219999999999857
 30
0.0
 40
1.575000000000002
  0
LINE
  5
D9
100
AcDbEntity
  8
0
 62
256
370
-1
 48
1.0
  6
ByLayer
100
AcDbLine
 10
31.649999999999835
 20
-372.90000000000009
 30
0.0
 11
28.499999999999858
 21
-372.90000000000009
 31
0.0
  0
LINE
  5
DA
100
AcDbEntity
  8
0
 62
256
370
-1
 48
1.0
  6
ByLayer
100
AcDbLine
 10
28.499999999999858
 20
-372.90000000000009
 30
0.0
 11
28.499999999999858
 21
-356.38000000000011
 31
0.0
  0
LINE
  5
DB
100
AcDbEntity
  8
0
 62
256
370
-1
 48
1.0
  6
ByLayer
100
AcDbLine
 10
28.499999999999858
 20
-356.38000000000011
 30
0.0
 11
31.649999999999935
 21
-356.38000000000011
 31
0.0
  0
LINE
  5
DC
100
AcDbEntity
  8
0
 62
256
370
-1
 48
1.0
  6
ByLayer
100
AcDbLine
 10
31.649999999999935
 20
-356.38000000000011
 30
0.0
 11
31.649999999999835
 21
-372.90000000000009
 31
0.0
  0
CIRCLE
  5
DD
100
AcDbEntity
  8
0
 62
256
370
-1
 48
1.0
  6
ByLayer
100
AcDbCircle
 10
1.0833333333333997
 20
-121.63999999999987
 30
0.0
 40
1.5750000000000159
  0
LINE
  5
DE
100
AcDbEntity
  8
0
 62
256
370
-1
 48
1.0
  6
ByLayer
100
AcDbLine
 10
43.074999999999861
 20
-256.44000000000005
 30
0.0
 11
43.074999999999861
 21
-261.22000000000008
 31
0.0
  0
LINE
  5
DF
100
AcDbEntity
  8
0
 62
256
370
-1
 48
1.0
  6
ByLayer
100
AcDbLine
 10
43.074999999999861
 20
-261.22000000000008
 30
0.0
 11
44.099999999999852
 21
-261.22000000000008
 31
0.0
  0
ARC
  5
E0
100
AcDbEntity
  8
0
 62
256
370
-1
 48
1.0
  6
ByLayer
100
AcDbCircle
 10
44.349999999999852
 20
-261.22000000000008
 30
0.0
 40
0.25
100
AcDbArc
 50
270.0
 51
180.0
  0
LINE
  5
E1
100
AcDbEntity
  8
0
 62
256
370
-1
 48
1.0
  6
ByLayer
100
AcDbLine
 10
44.349999999999852
 20
-261.47000000000008
 30
0.0
 11
44.349999999999852
 21
-263.47000000000008
 31
0.0
  0
ARC
  5
E2
100
AcDbEntity
  8
0
 62
256
370
-1
 48
1.0
  6
ByLayer
100
AcDbCircle
 10
44.349999999999852
 20
-263.72000000000008
 30
0.0
 40
0.25
100
AcDbArc
 50
180.0
 51
90.0
  0
LINE
  5
E3
100
AcDbEntity
  8
0
 62
256
370
-1
 48
1.0
  6
ByLayer
100
AcDbLine
 10
44.099999999999852
 20
-263.72000000000008
 30
0.0
 11
43.074999999999861
 21
-263.72000000000008
 31
0.0
  0
LINE
  5
E4
100
AcDbEntity
  8
0
 62
256
370
-1
 48
1.0
  6
ByLayer
100
AcDbLine
 10
43.074999999999861
 20
-263.72000000000008
 30
0.0
 11
43.074999999999861
 21
-264.72000000000008
 31
0.0
  0
LINE
  5
E5
100
AcDbEntity
  8
0
 62
256
370
-1
 48
1.0
  6
ByLayer
100
AcDbLine
 10
43.074999999999861
 20
-264.72000000000008
 30
0.0
 11
39.924999999999756
 21
-264.72000000000008
 31
0.0
  0
LINE
  5
E6
100
AcDbEntity
  8
0
 62
256
370
-1
 48
1.0
  6
ByLayer
100
AcDbLine
 10
39.924999999999756
 20
-264.72000000000008
 30
0.0
 11
39.924999999999756
 21
-263.72000000000008
 31
0.0
  0
LINE
  5
E7
100
AcDbEntity
  8
0
 62
256
370
-1
 48
1.0
  6
ByLayer
100
AcDbLine
 10
39.924999999999756
 20
-263.72000000000008
 30
0.0
 11
38.899999999999864
 21
-263.72000000000008
 31
0.0
  0
ARC
  5
E8
100
AcDbEntity
  8
0
 62
256
370
-1
 48
1.0
  6
ByLayer
100
AcDbCircle
 10
38.649999999999864
 20
-263.72000000000008
 30
0.0
 40
0.25
100
AcDbArc
 50
90.0
 51
0.0
  0
LINE
  5
E9
100
AcDbEntity
  8
0
 62
256
370
-1
 48
1.0
  6
ByLayer
100
AcDbLine
 10
38.649999999999864
 20
-263.47000000000008
 30
0.0
 11
38.649999999999864
 21
-261.47000000000008
 31
0.0
  0
ARC
  5
EA
100
AcDbEntity
  8
0
 62
256
370
-1
 48
1.0
  6
ByLayer
100
AcDbCircle
 10
38.649999999999864
 20
-261.22000000000008
 30
0.0
 40
0.25
100
AcDbArc
 50
0.0
 51
270.0
  0
LINE
  5
EB
100
AcDbEntity
  8
0
 62
256
370
-1
 48
1.0
  6
ByLayer
100
AcDbLine
 10
38.899999999999864
 20
-261.22000000000008
 30
0.0
 11
39.924999999999756
 21
-261.22000000000008
 31
0.0
  0
LINE
  5
EC
100
AcDbEntity
  8
0
 62
256
370
-1
 48
1.0
  6
ByLayer
100
AcDbLine
 10
39.924999999999756
 20
-261.22000000000008
 30
0.0
 11
39.924999999999756
 21
-256.44000000000005
 31
0.0
  0
LINE
  5
ED
100
AcDbEntity
  8
0
 62
256
370
-1
 48
1.0
  6
ByLayer
100
AcDbLine
 10
39.924999999999756
 20
-256.44000000000005
 30
0.0
 11
35.219999999999871
 21
-256.44
 31
0.0
  0
LINE
  5
EE
100
AcDbEntity
  8
0
 62
256
370
-1
 48
1.0
  6
ByLayer
100
AcDbLine
 10
35.219999999999871
 20
-256.44
 30
0.0
 11
35.219999999999814
 21
-200.15999999999997
 31
0.0
  0
LINE
  5
EF
100
AcDbEntity
  8
0
 62
256
370
-1
 48
1.0
  6
ByLayer
100
AcDbLine
 10
-84.650000000000148
 20
-200.16000000000008
 30
0.0
 11
-84.650000000000148
 21
-203.31000000000009
 31
0.0
  0
LINE
  5
F0
100
AcDbEntity
  8
0
 62
256
370
-1
 48
1.0
  6
ByLayer
100
AcDbLine
 10
-84.650000000000148
 20
-203.31000000000009
 30
0.0
 11
-114.85000000000016
 21
-203.31000000000009
 31
0.0
  0
LINE
  5
F1
100
AcDbEntity
  8
0
 62
256
370
-1
 48
1.0
  6
ByLayer
100
AcDbLine
 10
-114.85000000000016
 20
-203.31000000000009
 30
0.0
 11
-114.85000000000015
 21
-200.16000000000008
 31
0.0
  0
LINE
  5
F2
100
AcDbEntity
  8
0
 62
256
370
-1
 48
1.0
  6
ByLayer
100
AcDbLine
 10
-114.85000000000015
 20
-200.16000000000008
 30
0.0
 11
-159.22000000000017
 21
-200.16000000000003
 31
0.0
  0
LINE
  5
F3
100
AcDbEntity
  8
0
 62
256
370
-1
 48
1.0
  6
ByLayer
100
AcDbLine
 10
-159.22000000000017
 20
-200.16000000000003
 30
0.0
 11
-159.2200000000002
 21
-256.44000000000011
 31
0.0
  0
LINE
  5
F4
100
AcDbEntity
  8
0
 62
256
370
-1
 48
1.0
  6
ByLayer
100
AcDbLine
 10
-159.2200000000002
 20
-256.44000000000011
 30
0.0
 11
-163.92500000000004
 21
-256.44000000000005
 31
0.0
  0
LINE
  5
F5
100
AcDbEntity
  8
0
 62
256
370
-1
 48
1.0
  6
ByLayer
100
AcDbLine
 10
-163.92500000000004
 20
-256.44000000000005
 30
0.0
 11
-163.92500000000004
 21
-261.22000000000008
 31
0.0
  0
LINE
  5
F6
100
AcDbEntity
  8
0
 62
256
370
-1
 48
1.0
  6
ByLayer
100
AcDbLine
 10
-163.92500000000004
 20
-261.22000000000008
 30
0.0
 11
-162.90000000000015
 21
-261.22000000000008
 31
0.0
  0
ARC
  5
F7
100
AcDbEntity
  8
0
 62
256
370
-1
 48
1.0
  6
ByLayer
100
AcDbCircle
 10
-162.65000000000015
 20
-261.22000000000008
 30
0.0
 40
0.25
100
AcDbArc
 50
270.0
 51
180.0
  0
LINE
  5
F8
100
AcDbEntity
  8
0
 62
256
370
-1
 48
1.0
  6
ByLayer
100
AcDbLine
 10
-162.65000000000015
 20
-261.47000000000008
 30
0.0
 11
-162.65000000000015
 21
-263.47000000000008
 31
0.0
  0
ARC
  5
F9
100
AcDbEntity
  8
0
 62
256
370
-1
 48
1.0
  6
ByLayer
100
AcDbCircle
 10
-162.65000000000015
 20
-263.72000000000008
 30
0.0
 40
0.25
100
AcDbArc
 50
180.0
 51
90.0
  0
LINE
  5
FA
100
AcDbEntity
  8
0
 62
256
370
-1
 48
1.0
  6
ByLayer
100
AcDbLine
 10
-162.90000000000015
 20
-263.72000000000008
 30
0.0
 11
-163.92500000000004
 21
-263.72000000000008
 31
0.0
  0
LINE
  5
FB
100
AcDbEntity
  8
0
 62
256
370
-1
 48
1.0
  6
ByLayer
100
AcDbLine
 10
-163.92500000000004
 20
-263.72000000000008
 30
0.0
 11
-163.92500000000004
 21
-264.72000000000008
 31
0.0
  0
LINE
  5
FC
100
AcDbEntity
  8
0
 62
256
370
-1
 48
1.0
  6
ByLayer
100
AcDbLine
 10
-163.92500000000004
 20
-264.72000000000008
 30
0.0
 11
-167.07500000000016
 21
-264.72000000000008
 31
0.0
  0
LINE
  5
FD
100
AcDbEntity
  8
0
 62
256
370
-1
 48
1.0
  6
ByLayer
100
AcDbLine
 10
-167.07500000000016
 20
-264.72000000000008
 30
0.0
 11
-167.07500000000016
 21
-263.72000000000008
 31
0.0
  0
LINE
  5
FE
100
AcDbEntity
  8
0
 62
256
370
-1
 48
1.0
  6
ByLayer
100
AcDbLine
 10
-167.07500000000016
 20
-263.72000000000008
 30
0.0
 11
-168.10000000000014
 21
-263.72000000000008
 31
0.0
  0
ARC
  5
FF
100
AcDbEntity
  8
0
 62
256
370
-1
 48
1.0
  6
ByLayer
100
AcDbCircle
 10
-168.35000000000014
 20
-263.72000000000008
 30
0.0
 40
0.25
100
AcDbArc
 50
90.0
 51
0.0
  0
LINE
  5
100
100
AcDbEntity
  8
0
 62
256
370
-1
 48
1.0
  6
ByLayer
100
AcDbLine
 10
-168.35000000000014
 20
-263.47000000000008
 30
0.0
 11
-168.35000000000014
 21
-261.47000000000008
 31
0.0
  0
ARC
  5
101
100
AcDbEntity
  8
0
 62
256
370
-1
 48
1.0
  6
ByLayer
100
AcDbCircle
 10
-168.35000000000014
 20
-261.22000000000008
 30
0.0
 40
0.25
100
AcDbArc
 50
0.0
 51
270.0
  0
LINE
  5
102
100
AcDbEntity
  8
0
 62
256
370
-1
 48
1.0
  6
ByLayer
100
AcDbLine
 10
-168.10000000000014
 20
-261.22000000000008
 30
0.0
 11
-167.07500000000016
 21
-261.22000000000008
 31
0.0
  0
LINE
  5
103
100
AcDbEntity
  8
0
 62
256
370
-1
 48
1.0
  6
ByLayer
100
AcDbLine
 10
-167.07500000000016
 20
-261.22000000000008
 30
0.0
 11
-167.07500000000016
 21
-256.44000000000005
 31
0.0
  0
LINE
  5
104
100
AcDbEntity
  8
0
 62
256
370
-1
 48
1.0
  6
ByLayer
100
AcDbLine
 10
-167.07500000000016
 20
-256.44000000000005
 30
0.0
 11
-185.28000000000014
 21
-256.44000000000011
 31
0.0
  0
LINE
  5
105
100
AcDbEntity
  8
0
 62
256
370
-1
 48
1.0
  6
ByLayer
100
AcDbLine
 10
-185.28000000000014
 20
-256.44000000000011
 30
0.0
 11
-185.28000000000014
 21
-279.25333333333344
 31
0.0
  0
LINE
  5
106
100
AcDbEntity
  8
0
 62
256
370
-1
 48
1.0
  6
ByLayer
100
AcDbLine
 10
-185.28000000000014
 20
-279.25333333333344
 30
0.0
 11
-192.00000000000014
 21
-279.25333333333344
 31
0.0
  0
LINE
  5
107
100
AcDbEntity
  8
0
 62
256
370
-1
 48
1.0
  6
ByLayer
100
AcDbLine
 10
-192.00000000000014
 20
-279.25333333333344
 30
0.0
 11
-192.00000000000014
 21
-302.06666666666678
 31
0.0
  0
LINE
  5
108
100
AcDbEntity
  8
0
 62
256
370
-1
 48
1.0
  6
ByLayer
100
AcDbLine
 10
-192.00000000000014
 20
-302.06666666666678
 30
0.0
 11
-185.28000000000014
 21
-302.06666666666672
 31
0.0
  0
LINE
  5
109
100
AcDbEntity
  8
0
 62
256
370
-1
 48
1.0
  6
ByLayer
100
AcDbLine
 10
-185.28000000000014
 20
-302.06666666666672
 30
0.0
 11
-185.28000000000014
 21
-324.88000000000011
 31
0.0
  0
LINE
  5
10A
100
AcDbEntity
  8
0
 62
256
370
-1
 48
1.0
  6
ByLayer
100
AcDbLine
 10
-185.28000000000014
 20
-324.88000000000011
 30
0.0
 11
-167.07500000000016
 21
-324.88000000000011
 31
0.0
  0
LINE
  5
10B
100
AcDbEntity
  8
0
 62
256
370
-1
 48
1.0
  6
ByLayer
100
AcDbLine
 10
-167.07500000000016
 20
-324.88000000000011
 30
0.0
 11
-167.07500000000016
 21
-320.10000000000008
 31
0.0
  0
LINE
  5
10C
100
AcDbEntity
  8
0
 62
256
370
-1
 48
1.0
  6
ByLayer
100
AcDbLine
 10
-167.07500000000016
 20
-320.10000000000008
 30
0.0
 11
-168.10000000000014
 21
-320.10000000000008
 31
0.0
  0
ARC
  5
10D
100
AcDbEntity
  8
0
 62
256
370
-1
 48
1.0
  6
ByLayer
100
AcDbCircle
 10
-168.35000000000014
 20
-320.10000000000008
 30
0.0
 40
0.25
100
AcDbArc
 50
90.0
 51
0.0
  0
LINE
  5
10E
100
AcDbEntity
  8
0
 62
256
370
-1
 48
1.0
  6
ByLayer
100
AcDbLine
 10
-168.35000000000014
 20
-319.85000000000008
 30
0.0
 11
-168.35000000000014
 21
-317.85000000000008
 31
0.0
  0
ARC
  5
10F
100
AcDbEntity
  8
0
 62
256
370
-1
 48
1.0
  6
ByLayer
100
AcDbCircle
 10
-168.35000000000014
 20
-317.60000000000008
 30
0.0
 40
0.25
100
AcDbArc
 50
0.0
 51
270.0
  0
LINE
  5
110
100
AcDbEntity
  8
0
 62
256
370
-1
 48
1.0
  6
ByLayer
100
AcDbLine
 10
-168.10000000000014
 20
-317.60000000000008
 30
0.0
 11
-167.07500000000016
 21
-317.60000000000008
 31
0.0
  0
LINE
  5
111
100
AcDbEntity
  8
0
 62
256
370
-1
 48
1.0
  6
ByLayer
100
AcDbLine
 10
-167.07500000000016
 20
-317.60000000000008
 30
0.0
 11
-167.07500000000016
 21
-316.60000000000008
 31
0.0
  0
LINE
  5
112
100
AcDbEntity
  8
0
 62
256
370
-1
 48
1.0
  6
ByLayer
100
AcDbLine
 10
-167.07500000000016
 20
-316.60000000000008
 30
0.0
 11
-163.92500000000004
 21
-316.60000000000008
 31
0.0
  0
LINE
  5
113
100
AcDbEntity
  8
0
 62
256
370
-1
 48
1.0
  6
ByLayer
100
AcDbLine
 10
-163.92500000000004
 20
-316.60000000000008
 30
0.0
 11
-163.92500000000004
 21
-317.60000000000008
 31
0.0
  0
LINE
  5
114
100
AcDbEntity
  8
0
 62
256
370
-1
 48
1.0
  6
ByLayer
100
AcDbLine
 10
-163.92500000000004
 20
-317.60000000000008
 30
0.0
 11
-162.90000000000015
 21
-317.60000000000008
 31
0.0
  0
ARC
  5
115
100
AcDbEntity
  8
0
 62
256
370
-1
 48
1.0
  6
ByLayer
100
AcDbCircle
 10
-162.65000000000015
 20
-317.60000000000008
 30
0.0
 40
0.25
100
AcDbArc
 50
270.0
 51
180.0
  0
LINE
  5
116
100
AcDbEntity
  8
0
 62
256
370
-1
 48
1.0
  6
ByLayer
100
AcDbLine
 10
-162.65000000000015
 20
-317.85000000000008
 30
0.0
 11
-162.65000000000015
 21
-319.85000000000008
 31
0.0
  0
ARC
  5
117
100
AcDbEntity
  8
0
 62
256
370
-1
 48
1.0
  6
ByLayer
100
AcDbCircle
 10
-162.65000000000015
 20
-320.10000000000008
 30
0.0
 40
0.25
100
AcDbArc
 50
180.0
 51
90.0
  0
LINE
  5
118
100
AcDbEntity
  8
0
 62
256
370
-1
 48
1.0
  6
ByLayer
100
AcDbLine
 10
-162.90000000000015
 20
-320.10000000000008
 30
0.0
 11
-163.92500000000004
 21
-320.10000000000008
 31
0.0
  0
LINE
  5
119
100
AcDbEntity
  8
0
 62
256
370
-1
 48
1.0
  6
ByLayer
100
AcDbLine
 10
-163.92500000000004
 20
-320.10000000000008
 30
0.0
 11
-163.92500000000004
 21
-324.88000000000011
 31
0.0
  0
LINE
  5
11A
100
AcDbEntity
  8
0
 62
256
370
-1
 48
1.0
  6
ByLayer
100
AcDbLine
 10
-163.92500000000004
 20
-324.88000000000011
 30
0.0
 11
-159.2200000000002
 21
-324.88000000000011
 31
0.0
  0
LINE
  5
11B
100
AcDbEntity
  8
0
 62
256
370
-1
 48
1.0
  6
ByLayer
100
AcDbLine
 10
-159.2200000000002
 20
-324.88000000000011
 30
0.0
 11
-159.22000000000014
 21
-381.16000000000014
 31
0.0
  0
LINE
  5
11C
100
AcDbEntity
  8
0
 62
256
370
-1
 48
1.0
  6
ByLayer
100
AcDbLine
 10
-159.22000000000014
 20
-381.16000000000014
 30
0.0
 11
-39.350000000000151
 21
-381.16000000000008
 31
0.0
  0
LINE
  5
11D
100
AcDbEntity
  8
0
 62
256
370
-1
 48
1.0
  6
ByLayer
100
AcDbLine
 10
-39.350000000000151
 20
-381.16000000000008
 30
0.0
 11
-39.350000000000136
 21
-378.0100000000001
 31
0.0
  0
LINE
  5
11E
100
AcDbEntity
  8
0
 62
256
370
-1
 48
1.0
  6
ByLayer
100
AcDbLine
 10
-39.350000000000136
 20
-378.0100000000001
 30
0.0
 11
-9.1500000000001336
 21
-378.0100000000001
 31
0.0
  0
LINE
  5
11F
100
AcDbEntity
  8
0
 62
256
370
-1
 48
1.0
  6
ByLayer
100
AcDbLine
 10
-9.1500000000001336
 20
-378.0100000000001
 30
0.0
 11
-9.1500000000001407
 21
-381.16000000000008
 31
0.0
  0
LINE
  5
120
100
AcDbEntity
  8
0
 62
256
370
-1
 48
1.0
  6
ByLayer
100
AcDbLine
 10
-9.1500000000001407
 20
-381.16000000000008
 30
0.0
 11
35.219999999999942
 21
-381.16000000000008
 31
0.0
  0
LINE
  5
121
100
AcDbEntity
  8
0
 62
256
370
-1
 48
1.0
  6
ByLayer
100
AcDbLine
 10
35.219999999999942
 20
-381.16000000000008
 30
0.0
 11
35.219999999999942
 21
-324.88
 31
0.0
  0
LINE
  5
122
100
AcDbEntity
  8
0
 62
256
370
-1
 48
1.0
  6
ByLayer
100
AcDbLine
 10
35.219999999999942
 20
-324.88
 30
0.0
 11
39.924999999999756
 21
-324.88000000000011
 31
0.0
  0
LINE
  5
123
100
AcDbEntity
  8
0
 62
256
370
-1
 48
1.0
  6
ByLayer
100
AcDbLine
 10
39.924999999999756
 20
-324.88000000000011
 30
0.0
 11
39.924999999999756
 21
-320.10000000000008
 31
0.0
  0
LINE
  5
124
100
AcDbEntity
  8
0
 62
256
370
-1
 48
1.0
  6
ByLayer
100
AcDbLine
 10
39.924999999999756
 20
-320.10000000000008
 30
0.0
 11
38.899999999999864
 21
-320.10000000000008
 31
0.0
  0
ARC
  5
125
100
AcDbEntity
  8
0
 62
256
370
-1
 48
1.0
  6
ByLayer
100
AcDbCircle
 10
38.649999999999864
 20
-320.10000000000008
 30
0.0
 40
0.25
100
AcDbArc
 50
90.0
 51
0.0
  0
LINE
  5
126
100
AcDbEntity
  8
0
 62
256
370
-1
 48
1.0
  6
ByLayer
100
AcDbLine
 10
38.649999999999864
 20
-319.85000000000008
 30
0.0
 11
38.649999999999864
 21
-317.85000000000008
 31
0.0
  0
ARC
  5
127
100
AcDbEntity
  8
0
 62
256
370
-1
 48
1.0
  6
ByLayer
100
AcDbCircle
 10
38.649999999999864
 20
-317.60000000000008
 30
0.0
 40
0.25
100
AcDbArc
 50
0.0
 51
270.0
  0
LINE
  5
128
100
AcDbEntity
  8
0
 62
256
370
-1
 48
1.0
  6
ByLayer
100
AcDbLine
 10
38.899999999999864
 20
-317.60000000000008
 30
0.0
 11
39.924999999999756
 21
-317.60000000000008
 31
0.0
  0
LINE
  5
129
100
AcDbEntity
  8
0
 62
256
370
-1
 48
1.0
  6
ByLayer
100
AcDbLine
 10
39.924999999999756
 20
-317.60000000000008
 30
0.0
 11
39.924999999999756
 21
-316.60000000000008
 31
0.0
  0
LINE
  5
12A
100
AcDbEntity
  8
0
 62
256
370
-1
 48
1.0
  6
ByLayer
100
AcDbLine
 10
39.924999999999756
 20
-316.60000000000008
 30
0.0
 11
43.074999999999861
 21
-316.60000000000008
 31
0.0
  0
LINE
  5
12B
100
AcDbEntity
  8
0
 62
256
370
-1
 48
1.0
  6
ByLayer
100
AcDbLine
 10
43.074999999999861
 20
-316.60000000000008
 30
0.0
 11
43.074999999999861
 21
-317.60000000000008
 31
0.0
  0
LINE
  5
12C
100
AcDbEntity
  8
0
 62
256
370
-1
 48
1.0
  6
ByLayer
100
AcDbLine
 10
43.074999999999861
 20
-317.60000000000008
 30
0.0
 11
44.099999999999852
 21
-317.60000000000008
 31
0.0
  0
ARC
  5
12D
100
AcDbEntity
  8
0
 62
256
370
-1
 48
1.0
  6
ByLayer
100
AcDbCircle
 10
44.349999999999852
 20
-317.60000000000008
 30
0.0
 40
0.25
100
AcDbArc
 50
270.0
 51
180.0
  0
LINE
  5
12E
100
AcDbEntity
  8
0
 62
256
370
-1
 48
1.0
  6
ByLayer
100
AcDbLine
 10
44.349999999999852
 20
-317.85000000000008
 30
0.0
 11
44.349999999999852
 21
-319.85000000000008
 31
0.0
  0
ARC
  5
12F
100
AcDbEntity
  8
0
 62
256
370
-1
 48
1.0
  6
ByLayer
100
AcDbCircle
 10
44.349999999999852
 20
-320.10000000000008
 30
0.0
 40
0.25
100
AcDbArc
 50
180.0
 51
90.0
  0
LINE
  5
130
100
AcDbEntity
  8
0
 62
256
370
-1
 48
1.0
  6
ByLayer
100
AcDbLine
 10
44.099999999999852
 20
-320.10000000000008
 30
0.0
 11
43.074999999999861
 21
-320.10000000000008
 31
0.0
  0
LINE
  5
131
100
AcDbEntity
  8
0
 62
256
370
-1
 48
1.0
  6
ByLayer
100
AcDbLine
 10
43.074999999999861
 20
-320.10000000000008
 30
0.0
 11
43.074999999999861
 21
-324.88000000000011
 31
0.0
  0
LINE
  5
132
100
AcDbEntity
  8
0
 62
256
370
-1
 48
1.0
  6
ByLayer
100
AcDbLine
 10
43.074999999999861
 20
-324.88000000000011
 30
0.0
 11
61.279999999999859
 21
-324.88
 31
0.0
  0
LINE
  5
133
100
AcDbEntity
  8
0
 62
256
370
-1
 48
1.0
  6
ByLayer
100
AcDbLine
 10
61.279999999999859
 20
-324.88
 30
0.0
 11
61.279999999999859
 21
-302.06666666666666
 31
0.0
  0
LINE
  5
134
100
AcDbEntity
  8
0
 62
256
370
-1
 48
1.0
  6
ByLayer
100
AcDbLine
 10
61.279999999999859
 20
-302.06666666666666
 30
0.0
 11
67.999999999999858
 21
-302.06666666666666
 31
0.0
  0
LINE
  5
135
100
AcDbEntity
  8
0
 62
256
370
-1
 48
1.0
  6
ByLayer
100
AcDbLine
 10
67.999999999999858
 20
-279.25333333333333
 30
0.0
 11
61.279999999999859
 21
-279.25333333333333
 31
0.0
  0
LINE
  5
136
100
AcDbEntity
  8
0
 62
256
370
-1
 48
1.0
  6
ByLayer
100
AcDbLine
 10
61.279999999999859
 20
-279.25333333333333
 30
0.0
 11
61.27999999999976
 21
-256.44
 31
0.0
  0
LINE
  5
137
100
AcDbEntity
  8
0
 62
256
370
-1
 48
1.0
  6
ByLayer
100
AcDbLine
 10
61.27999999999976
 20
-256.44
 30
0.0
 11
43.074999999999861
 21
-256.44000000000005
 31
0.0
  0
CIRCLE
  5
138
100
AcDbEntity
  8
0
 62
256
370
-1
 48
1.0
  6
ByLayer
100
AcDbCircle
 10
1.0833333333334281
 20
391.63999999999925
 30
0.0
 40
1.575
  0
CIRCLE
  5
139
100
AcDbEntity
  8
0
 62
256
370
-1
 48
1.0
  6
ByLayer
100
AcDbCircle
 10
52.279999999999859
 20
-271.38000000000005
 30
0.0
 40
6.0
  0
CIRCLE
  5
13A
100
AcDbEntity
  8
0
 62
256
370
-1
 48
1.0
  6
ByLayer
100
AcDbCircle
 10
64.639999999999844
 20
375.25000000000011
 30
0.0
 40
1.575
  0
CIRCLE
  5
13B
100
AcDbEntity
  8
0
 62
256
370
-1
 48
1.0
  6
ByLayer
100
AcDbCircle
 10
-176.28000000000014
 20
-309.94000000000011
 30
0.0
 40
6.0
  0
CIRCLE
  5
13C
100
AcDbEntity
  8
0
 62
256
370
-1
 48
1.0
  6
ByLayer
100
AcDbCircle
 10
64.639999999999787
 20
119.74999999999989
 30
0.0
 40
1.574999999999996
  0
CIRCLE
  5
13D
100
AcDbEntity
  8
0
 62
256
370
-1
 48
1.0
  6
ByLayer
100
AcDbCircle
 10
-176.28000000000014
 20
-271.38000000000011
 30
0.0
 40
6.0
  0
CIRCLE
  5
13E
100
AcDbEntity
  8
0
 62
256
370
-1
 48
1.0
  6
ByLayer
100
AcDbCircle
 10
-172.25000000000011
 20
-121.63999999999999
 30
0.0
 40
1.574999999999998
  0
CIRCLE
  5
13F
100
AcDbEntity
  8
0
 62
256
370
-1
 48
1.0
  6
ByLayer
100
AcDbCircle
 10
-62.000000000000121
 20
-373.66000000000003
 30
0.0
 40
2.5
  0
CIRCLE
  5
140
100
AcDbEntity
  8
0
 62
256
370
-1
 48
1.0
  6
ByLayer
100
AcDbCircle
 10
48.249999999999886
 20
391.64000000000249
 30
0.0
 40
1.574999999999998
  0
CIRCLE
  5
141
100
AcDbEntity
  8
0
 62
256
370
-1
 48
1.0
  6
ByLayer
100
AcDbCircle
 10
20.999999999999901
 20
-268.95500000000004
 30
0.0
 40
2.0000000000000031
  0
CIRCLE
  5
142
100
AcDbEntity
  8
0
 62
256
370
-1
 48
1.0
  6
ByLayer
100
AcDbCircle
 10
-172.25000000000003
 20
391.64000000000016
 30
0.0
 40
1.574999999999998
  0
CIRCLE
  5
143
100
AcDbEntity
  8
0
 62
256
370
-1
 48
1.0
  6
ByLayer
100
AcDbCircle
 10
-145.00000000000017
 20
-312.36500000000007
 30
0.0
 40
2.0000000000000031
  0
CIRCLE
  5
144
100
AcDbEntity
  8
0
 62
256
370
-1
 48
1.0
  6
ByLayer
100
AcDbCircle
 10
-188.64000000000019
 20
119.75000000000006
 30
0.0
 40
1.574999999999996
  0
CIRCLE
  5
145
100
AcDbEntity
  8
0
 62
256
370
-1
 48
1.0
  6
ByLayer
100
AcDbCircle
 10
20.999999999999901
 20
-312.36500000000007
 30
0.0
 40
2.0000000000000031
  0
CIRCLE
  5
146
100
AcDbEntity
  8
0
 62
256
370
-1
 48
1.0
  6
ByLayer
100
AcDbCircle
 10
48.250000000000085
 20
-121.63999999999987
 30
0.0
 40
1.574999999999998
  0
CIRCLE
  5
147
100
AcDbEntity
  8
0
 62
256
370
-1
 48
1.0
  6
ByLayer
100
AcDbCircle
 10
-145.00000000000017
 20
-268.95500000000004
 30
0.0
 40
2.0000000000000031
  0
CIRCLE
  5
148
100
AcDbEntity
  8
0
 62
256
370
-1
 48
1.0
  6
ByLayer
100
AcDbCircle
 10
-188.64000000000001
 20
375.25000000000006
 30
0.0
 40
1.575
  0
CIRCLE
  5
149
100
AcDbEntity
  8
0
 62
256
370
-1
 48
1.0
  6
ByLayer
100
AcDbCircle
 10
-62.000000000000121
 20
-207.66
 30
0.0
 40
2.5
  0
CIRCLE
  5
14A
100
AcDbEntity
  8
0
 62
256
370
-1
 48
1.0
  6
ByLayer
100
AcDbCircle
 10
-125.08333333333353
 20
391.64000000000021
 30
0.0
 40
1.575
  0
CIRCLE
  5
14B
100
AcDbEntity
  8
0
 62
256
370
-1
 48
1.0
  6
ByLayer
100
AcDbCircle
 10
41.499999999999957
 20
-274.66000000000037
 30
0.0
 40
2.625
  0
CIRCLE
  5
14C
100
AcDbEntity
  8
0
 62
256
370
-1
 48
1.0
  6
ByLayer
100
AcDbCircle
 10
-125.0833333333332
 20
-121.63999999999987
 30
0.0
 40
1.5750000000000159
  0
CIRCLE
  5
14D
100
AcDbEntity
  8
0
 62
256
370
-1
 48
1.0
  6
ByLayer
100
AcDbCircle
 10
41.499999999999858
 20
-306.65999999999991
 30
0.0
 40
2.625
  0
CIRCLE
  5
14E
100
AcDbEntity
  8
0
 62
256
370
-1
 48
1.0
  6
ByLayer
100
AcDbCircle
 10
-165.50000000000011
 20
103.36000000000013
 30
0.0
 40
1.575
  0
CIRCLE
  5
14F
100
AcDbEntity
  8
0
 62
256
370
-1
 48
1.0
  6
ByLayer
100
AcDbCircle
 10
41.499999999999858
 20
-290.66000000000014
 30
0.0
 40
4.04
  0
CIRCLE
  5
150
100
AcDbEntity
  8
0
 62
256
370
-1
 48
1.0
  6
ByLayer
100
AcDbCircle
 10
41.5
 20
103.36000000000013
 30
0.0
 40
1.575
  0
CIRCLE
  5
151
100
AcDbEntity
  8
0
 62
256
370
-1
 48
1.0
  6
ByLayer
100
AcDbCircle
 10
-165.50000000000023
 20
-274.66000000000037
 30
0.0
 40
2.625
  0
CIRCLE
  5
152
100
AcDbEntity
  8
0
 62
256
370
-1
 48
1.0
  6
ByLayer
100
AcDbCircle
 10
-165.50000000000014
 20
-306.65999999999991
 30
0.0
 40
2.625
  0
CIRCLE
  5
153
100
AcDbEntity
  8
0
 62
256
370
-1
 48
1.0
  6
ByLayer
100
AcDbCircle
 10
-165.50000000000014
 20
-290.66000000000014
 30
0.0
 40
4.04
  0
MTEXT
  5
154
100
AcDbEntity
  8
0
 62
256
370
-1
 48
1.0
  6
ByLayer
100
AcDbMText
 10
234.4410325987651
 20
77.969216343684337
 30
0.0
 40
10.0
 41
0.0
 71
1
 72
1
  1
\c0;\H20;NOTES: UNLESS OTHERWISE SPECIFIED\PDIMENSION: mm\PMATERIAL: Laminated MDF - White\P                   THICKNESS - 6.4mm\PCERN OHL v1.2\Pby Alch3my LLC
  7
textstyle0
 50
0.0
 73
2
 44
1.0
  0
ARC
  5
155
100
AcDbEntity
  8
0
 62
256
370
-1
 48
1.0
  6
ByLayer
100
AcDbCircle
 10
119.56000000000013
 20
-365.16468129124098
 30
0.0
 40
2.0000000000000102
100
AcDbArc
 50
180.0
 51
264.99999999999937
  0
LINE
  5
156
100
AcDbEntity
  8
0
 62
256
370
-1
 48
1.0
  6
ByLayer
100
AcDbLine
 10
119.38568851450479
 20
-367.15707068742449
 30
0.0
 11
125.82000000000008
 21
-367.72000000000008
 31
0.0
  0
LINE
  5
157
100
AcDbEntity
  8
0
 62
256
370
-1
 48
1.0
  6
ByLayer
100
AcDbLine
 10
125.82000000000008
 20
-367.72000000000008
 30
0.0
 11
134.0800000000001
 21
-367.72000000000003
 31
0.0
  0
LINE
  5
158
100
AcDbEntity
  8
0
 62
256
370
-1
 48
1.0
  6
ByLayer
100
AcDbLine
 10
134.0800000000001
 20
-367.72000000000003
 30
0.0
 11
134.08000000000013
 21
-381.15999999999997
 31
0.0
  0
LINE
  5
159
100
AcDbEntity
  8
0
 62
256
370
-1
 48
1.0
  6
ByLayer
100
AcDbLine
 10
134.08000000000013
 20
-381.15999999999997
 30
0.0
 11
150.60000000000014
 21
-381.15999999999997
 31
0.0
  0
LINE
  5
15A
100
AcDbEntity
  8
0
 62
256
370
-1
 48
1.0
  6
ByLayer
100
AcDbLine
 10
150.60000000000014
 20
-381.15999999999997
 30
0.0
 11
150.60000000000014
 21
-374.43999999999994
 31
0.0
  0
LINE
  5
15B
100
AcDbEntity
  8
0
 62
256
370
-1
 48
1.0
  6
ByLayer
100
AcDbLine
 10
150.60000000000014
 20
-374.43999999999994
 30
0.0
 11
159.87500000000006
 21
-374.44000000000005
 31
0.0
  0
LINE
  5
15C
100
AcDbEntity
  8
0
 62
256
370
-1
 48
1.0
  6
ByLayer
100
AcDbLine
 10
159.87500000000006
 20
-374.44000000000005
 30
0.0
 11
159.87500000000003
 21
-369.66000000000003
 31
0.0
  0
LINE
  5
15D
100
AcDbEntity
  8
0
 62
256
370
-1
 48
1.0
  6
ByLayer
100
AcDbLine
 10
159.87500000000003
 20
-369.66000000000003
 30
0.0
 11
158.85000000000002
 21
-369.66000000000003
 31
0.0
  0
ARC
  5
15E
100
AcDbEntity
  8
0
 62
256
370
-1
 48
1.0
  6
ByLayer
100
AcDbCircle
 10
158.60000000000002
 20
-369.66000000000003
 30
0.0
 40
0.25
100
AcDbArc
 50
90.0
 51
0.0
  0
LINE
  5
15F
100
AcDbEntity
  8
0
 62
256
370
-1
 48
1.0
  6
ByLayer
100
AcDbLine
 10
158.60000000000002
 20
-369.41000000000003
 30
0.0
 11
158.60000000000002
 21
-367.41000000000008
 31
0.0
  0
ARC
  5
160
100
AcDbEntity
  8
0
 62
256
370
-1
 48
1.0
  6
ByLayer
100
AcDbCircle
 10
158.59999999999999
 20
-367.16000000000008
 30
0.0
 40
0.2500000000000284
100
AcDbArc
 50
0.0
 51
270.00000000000654
  0
LINE
  5
161
100
AcDbEntity
  8
0
 62
256
370
-1
 48
1.0
  6
ByLayer
100
AcDbLine
 10
158.85000000000002
 20
-367.16000000000003
 30
0.0
 11
159.87500000000003
 21
-367.16000000000003
 31
0.0
  0
LINE
  5
162
100
AcDbEntity
  8
0
 62
256
370
-1
 48
1.0
  6
ByLayer
100
AcDbLine
 10
159.87500000000003
 20
-367.16000000000003
 30
0.0
 11
159.87500000000003
 21
-366.16000000000008
 31
0.0
  0
LINE
  5
163
100
AcDbEntity
  8
0
 62
256
370
-1
 48
1.0
  6
ByLayer
100
AcDbLine
 10
159.87500000000003
 20
-366.16000000000008
 30
0.0
 11
163.02500000000003
 21
-366.16000000000003
 31
0.0
  0
LINE
  5
164
100
AcDbEntity
  8
0
 62
256
370
-1
 48
1.0
  6
ByLayer
100
AcDbLine
 10
163.02500000000003
 20
-366.16000000000003
 30
0.0
 11
163.02500000000003
 21
-367.16000000000003
 31
0.0
  0
LINE
  5
165
100
AcDbEntity
  8
0
 62
256
370
-1
 48
1.0
  6
ByLayer
100
AcDbLine
 10
163.02500000000003
 20
-367.16000000000003
 30
0.0
 11
164.05000000000001
 21
-367.16000000000003
 31
0.0
  0
ARC
  5
166
100
AcDbEntity
  8
0
 62
256
370
-1
 48
1.0
  6
ByLayer
100
AcDbCircle
 10
164.30000000000001
 20
-367.16000000000003
 30
0.0
 40
0.2500000000000142
100
AcDbArc
 50
270.00000000000654
 51
180.0
  0
LINE
  5
167
100
AcDbEntity
  8
0
 62
256
370
-1
 48
1.0
  6
ByLayer
100
AcDbLine
 10
164.30000000000004
 20
-367.41000000000003
 30
0.0
 11
164.30000000000004
 21
-369.41000000000003
 31
0.0
  0
ARC
  5
168
100
AcDbEntity
  8
0
 62
256
370
-1
 48
1.0
  6
ByLayer
100
AcDbCircle
 10
164.30000000000004
 20
-369.66000000000003
 30
0.0
 40
0.2500000000000022
100
AcDbArc
 50
180.0
 51
90.0
  0
LINE
  5
169
100
AcDbEntity
  8
0
 62
256
370
-1
 48
1.0
  6
ByLayer
100
AcDbLine
 10
164.05000000000004
 20
-369.66000000000003
 30
0.0
 11
163.02500000000003
 21
-369.66000000000003
 31
0.0
  0
LINE
  5
16A
100
AcDbEntity
  8
0
 62
256
370
-1
 48
1.0
  6
ByLayer
100
AcDbLine
 10
163.02500000000003
 20
-369.66000000000003
 30
0.0
 11
163.02500000000003
 21
-374.44000000000005
 31
0.0
  0
LINE
  5
16B
100
AcDbEntity
  8
0
 62
256
370
-1
 48
1.0
  6
ByLayer
100
AcDbLine
 10
163.02500000000003
 20
-374.44000000000005
 30
0.0
 11
173.84
 21
-374.44000000000005
 31
0.0
  0
LINE
  5
16C
100
AcDbEntity
  8
0
 62
256
370
-1
 48
1.0
  6
ByLayer
100
AcDbLine
 10
173.84
 20
-374.44000000000005
 30
0.0
 11
173.84000000000003
 21
-318.16000000000003
 31
0.0
  0
LINE
  5
16D
100
AcDbEntity
  8
0
 62
256
370
-1
 48
1.0
  6
ByLayer
100
AcDbLine
 10
173.84000000000003
 20
-318.16000000000003
 30
0.0
 11
167.12000000000003
 21
-318.16000000000003
 31
0.0
  0
LINE
  5
16E
100
AcDbEntity
  8
0
 62
256
370
-1
 48
1.0
  6
ByLayer
100
AcDbLine
 10
167.12000000000003
 20
-318.16000000000003
 30
0.0
 11
167.12
 21
-285.51499999999999
 31
0.0
  0
LINE
  5
16F
100
AcDbEntity
  8
0
 62
256
370
-1
 48
1.0
  6
ByLayer
100
AcDbLine
 10
167.12
 20
-285.51499999999999
 30
0.0
 11
162.34000000000006
 21
-285.51499999999999
 31
0.0
  0
LINE
  5
170
100
AcDbEntity
  8
0
 62
256
370
-1
 48
1.0
  6
ByLayer
100
AcDbLine
 10
162.34000000000006
 20
-285.51499999999999
 30
0.0
 11
162.34000000000009
 21
-286.54000000000002
 31
0.0
  0
ARC
  5
171
100
AcDbEntity
  8
0
 62
256
370
-1
 48
1.0
  6
ByLayer
100
AcDbCircle
 10
162.34000000000006
 20
-286.78999999999996
 30
0.0
 40
0.2499999999999573
100
AcDbArc
 50
180.0
 51
89.999999999993491
  0
LINE
  5
172
100
AcDbEntity
  8
0
 62
256
370
-1
 48
1.0
  6
ByLayer
100
AcDbLine
 10
162.09000000000012
 20
-286.78999999999996
 30
0.0
 11
160.09000000000003
 21
-286.79000000000002
 31
0.0
  0
ARC
  5
173
100
AcDbEntity
  8
0
 62
256
370
-1
 48
1.0
  6
ByLayer
100
AcDbCircle
 10
159.84
 20
-286.79000000000002
 30
0.0
 40
0.2500000000000284
100
AcDbArc
 50
90.000000000006509
 51
0.0
  0
LINE
  5
174
100
AcDbEntity
  8
0
 62
256
370
-1
 48
1.0
  6
ByLayer
100
AcDbLine
 10
159.83999999999997
 20
-286.54000000000002
 30
0.0
 11
159.84000000000012
 21
-285.51499999999999
 31
0.0
  0
LINE
  5
175
100
AcDbEntity
  8
0
 62
256
370
-1
 48
1.0
  6
ByLayer
100
AcDbLine
 10
159.84000000000012
 20
-285.51499999999999
 30
0.0
 11
158.84000000000009
 21
-285.51499999999999
 31
0.0
  0
LINE
  5
176
100
AcDbEntity
  8
0
 62
256
370
-1
 48
1.0
  6
ByLayer
100
AcDbLine
 10
158.84000000000009
 20
-285.51499999999999
 30
0.0
 11
158.84000000000015
 21
-282.36500000000001
 31
0.0
  0
LINE
  5
177
100
AcDbEntity
  8
0
 62
256
370
-1
 48
1.0
  6
ByLayer
100
AcDbLine
 10
158.84000000000015
 20
-282.36500000000001
 30
0.0
 11
159.84000000000009
 21
-282.36500000000001
 31
0.0
  0
LINE
  5
178
100
AcDbEntity
  8
0
 62
256
370
-1
 48
1.0
  6
ByLayer
100
AcDbLine
 10
159.84000000000009
 20
-282.36500000000001
 30
0.0
 11
159.84000000000009
 21
-281.34000000000003
 31
0.0
  0
ARC
  5
179
100
AcDbEntity
  8
0
 62
256
370
-1
 48
1.0
  6
ByLayer
100
AcDbCircle
 10
159.84000000000009
 20
-281.09000000000003
 30
0.0
 40
0.2499999999999858
100
AcDbArc
 50
0.0
 51
270.0
  0
LINE
  5
17A
100
AcDbEntity
  8
0
 62
256
370
-1
 48
1.0
  6
ByLayer
100
AcDbLine
 10
160.09000000000006
 20
-281.09000000000003
 30
0.0
 11
162.09000000000012
 21
-281.09000000000003
 31
0.0
  0
ARC
  5
17B
100
AcDbEntity
  8
0
 62
256
370
-1
 48
1.0
  6
ByLayer
100
AcDbCircle
 10
162.34000000000009
 20
-281.09000000000003
 30
0.0
 40
0.2499999999999737
100
AcDbArc
 50
269.99999999999346
 51
180.0
  0
LINE
  5
17C
100
AcDbEntity
  8
0
 62
256
370
-1
 48
1.0
  6
ByLayer
100
AcDbLine
 10
162.34000000000006
 20
-281.34000000000003
 30
0.0
 11
162.34000000000023
 21
-282.36500000000001
 31
0.0
  0
LINE
  5
17D
100
AcDbEntity
  8
0
 62
256
370
-1
 48
1.0
  6
ByLayer
100
AcDbLine
 10
162.34000000000023
 20
-282.36500000000001
 30
0.0
 11
167.12000000000023
 21
-282.36500000000001
 31
0.0
  0
LINE
  5
17E
100
AcDbEntity
  8
0
 62
256
370
-1
 48
1.0
  6
ByLayer
100
AcDbLine
 10
167.12000000000023
 20
-282.36500000000001
 30
0.0
 11
167.12
 21
-249.72000000000003
 31
0.0
  0
LINE
  5
17F
100
AcDbEntity
  8
0
 62
256
370
-1
 48
1.0
  6
ByLayer
100
AcDbLine
 10
167.12
 20
-249.72000000000003
 30
0.0
 11
173.84000000000003
 21
-249.72000000000003
 31
0.0
  0
LINE
  5
180
100
AcDbEntity
  8
0
 62
256
370
-1
 48
1.0
  6
ByLayer
100
AcDbLine
 10
173.84000000000003
 20
-249.72000000000003
 30
0.0
 11
173.84000000000006
 21
-193.44000000000005
 31
0.0
  0
LINE
  5
181
100
AcDbEntity
  8
0
 62
256
370
-1
 48
1.0
  6
ByLayer
100
AcDbLine
 10
173.84000000000006
 20
-193.44000000000005
 30
0.0
 11
163.02499999999995
 21
-193.44000000000005
 31
0.0
  0
LINE
  5
182
100
AcDbEntity
  8
0
 62
256
370
-1
 48
1.0
  6
ByLayer
100
AcDbLine
 10
163.02499999999995
 20
-193.44000000000005
 30
0.0
 11
163.02500000000009
 21
-198.22000000000003
 31
0.0
  0
LINE
  5
183
100
AcDbEntity
  8
0
 62
256
370
-1
 48
1.0
  6
ByLayer
100
AcDbLine
 10
163.02500000000009
 20
-198.22000000000003
 30
0.0
 11
164.04999999999998
 21
-198.22000000000003
 31
0.0
  0
ARC
  5
184
100
AcDbEntity
  8
0
 62
256
370
-1
 48
1.0
  6
ByLayer
100
AcDbCircle
 10
164.29999999999998
 20
-198.22000000000003
 30
0.0
 40
0.2500000000000022
100
AcDbArc
 50
270.0
 51
180.0
  0
LINE
  5
185
100
AcDbEntity
  8
0
 62
256
370
-1
 48
1.0
  6
ByLayer
100
AcDbLine
 10
164.29999999999998
 20
-198.47000000000003
 30
0.0
 11
164.30000000000058
 21
-200.47000000000003
 31
0.0
  0
ARC
  5
186
100
AcDbEntity
  8
0
 62
256
370
-1
 48
1.0
  6
ByLayer
100
AcDbCircle
 10
164.30000000000024
 20
-200.72000000000037
 30
0.0
 40
0.250000000000341
100
AcDbArc
 50
180.0
 51
89.999999999921826
  0
LINE
  5
187
100
AcDbEntity
  8
0
 62
256
370
-1
 48
1.0
  6
ByLayer
100
AcDbLine
 10
164.0499999999999
 20
-200.72000000000003
 30
0.0
 11
163.02500000000003
 21
-200.72000000000003
 31
0.0
  0
LINE
  5
188
100
AcDbEntity
  8
0
 62
256
370
-1
 48
1.0
  6
ByLayer
100
AcDbLine
 10
163.02500000000003
 20
-200.72000000000003
 30
0.0
 11
163.02500000000015
 21
-201.72000000000003
 31
0.0
  0
LINE
  5
189
100
AcDbEntity
  8
0
 62
256
370
-1
 48
1.0
  6
ByLayer
100
AcDbLine
 10
163.02500000000015
 20
-201.72000000000003
 30
0.0
 11
159.87499999999991
 21
-201.72000000000003
 31
0.0
  0
LINE
  5
18A
100
AcDbEntity
  8
0
 62
256
370
-1
 48
1.0
  6
ByLayer
100
AcDbLine
 10
159.87499999999991
 20
-201.72000000000003
 30
0.0
 11
159.8749999999998
 21
-200.72000000000003
 31
0.0
  0
LINE
  5
18B
100
AcDbEntity
  8
0
 62
256
370
-1
 48
1.0
  6
ByLayer
100
AcDbLine
 10
159.8749999999998
 20
-200.72000000000003
 30
0.0
 11
158.85000000000036
 21
-200.72
 31
0.0
  0
ARC
  5
18C
100
AcDbEntity
  8
0
 62
256
370
-1
 48
1.0
  6
ByLayer
100
AcDbCircle
 10
158.60000000000031
 20
-200.72000000000011
 30
0.0
 40
0.2500000000000711
100
AcDbArc
 50
90.000000000026063
 51
0.0
  0
LINE
  5
18D
100
AcDbEntity
  8
0
 62
256
370
-1
 48
1.0
  6
ByLayer
100
AcDbLine
 10
158.60000000000019
 20
-200.47000000000003
 30
0.0
 11
158.60000000000031
 21
-198.47
 31
0.0
  0
ARC
  5
18E
100
AcDbEntity
  8
0
 62
256
370
-1
 48
1.0
  6
ByLayer
100
AcDbCircle
 10
158.60000000000019
 20
-198.22000000000017
 30
0.0
 40
0.2499999999998437
100
AcDbArc
 50
0.0
 51
270.00000000002603
  0
LINE
  5
18F
100
AcDbEntity
  8
0
 62
256
370
-1
 48
1.0
  6
ByLayer
100
AcDbLine
 10
158.85000000000002
 20
-198.22000000000003
 30
0.0
 11
159.87500000000014
 21
-198.22000000000003
 31
0.0
  0
LINE
  5
190
100
AcDbEntity
  8
0
 62
256
370
-1
 48
1.0
  6
ByLayer
100
AcDbLine
 10
159.87500000000014
 20
-198.22000000000003
 30
0.0
 11
159.875
 21
-193.44000000000005
 31
0.0
  0
LINE
  5
191
100
AcDbEntity
  8
0
 62
256
370
-1
 48
1.0
  6
ByLayer
100
AcDbLine
 10
159.875
 20
-193.44000000000005
 30
0.0
 11
150.60000000000005
 21
-193.44000000000011
 31
0.0
  0
LINE
  5
192
100
AcDbEntity
  8
0
 62
256
370
-1
 48
1.0
  6
ByLayer
100
AcDbLine
 10
150.60000000000005
 20
-193.44000000000011
 30
0.0
 11
150.60000000000014
 21
-186.72000000000006
 31
0.0
  0
LINE
  5
193
100
AcDbEntity
  8
0
 62
256
370
-1
 48
1.0
  6
ByLayer
100
AcDbLine
 10
150.60000000000014
 20
-186.72000000000006
 30
0.0
 11
134.0800000000001
 21
-186.72000000000006
 31
0.0
  0
LINE
  5
194
100
AcDbEntity
  8
0
 62
256
370
-1
 48
1.0
  6
ByLayer
100
AcDbLine
 10
134.0800000000001
 20
-186.72000000000006
 30
0.0
 11
134.08000000000018
 21
-200.16000000000005
 31
0.0
  0
LINE
  5
195
100
AcDbEntity
  8
0
 62
256
370
-1
 48
1.0
  6
ByLayer
100
AcDbLine
 10
134.08000000000018
 20
-200.16000000000005
 30
0.0
 11
125.82000000000011
 21
-200.16000000000003
 31
0.0
  0
LINE
  5
196
100
AcDbEntity
  8
0
 62
256
370
-1
 48
1.0
  6
ByLayer
100
AcDbLine
 10
125.82000000000011
 20
-200.16000000000003
 30
0.0
 11
119.38568851450478
 21
-200.72292931257559
 31
0.0
  0
ARC
  5
197
100
AcDbEntity
  8
0
 62
256
370
-1
 48
1.0
  6
ByLayer
100
AcDbCircle
 10
119.56000000000004
 20
-202.7153187087591
 30
0.0
 40
2.0000000000000147
100
AcDbArc
 50
94.999999999998522
 51
180.0
  0
LINE
  5
198
100
AcDbEntity
  8
0
 62
256
370
-1
 48
1.0
  6
ByLayer
100
AcDbLine
 10
117.56000000000003
 20
-202.71531870875904
 30
0.0
 11
117.56000000000012
 21
-365.16468129124098
 31
0.0
  0
ARC
  5
199
100
AcDbEntity
  8
0
 62
256
370
-1
 48
1.0
  6
ByLayer
100
AcDbCircle
 10
115.55999999999993
 20
-365.16468129124104
 30
0.0
 40
1.9999999999999862
100
AcDbArc
 50
274.99999999999926
 51
360.0
  0
LINE
  5
19A
100
AcDbEntity
  8
0
 62
256
370
-1
 48
1.0
  6
ByLayer
100
AcDbLine
 10
115.73431148549523
 20
-367.15707068742455
 30
0.0
 11
109.29999999999991
 21
-367.72000000000008
 31
0.0
  0
LINE
  5
19B
100
AcDbEntity
  8
0
 62
256
370
-1
 48
1.0
  6
ByLayer
100
AcDbLine
 10
109.29999999999991
 20
-367.72000000000008
 30
0.0
 11
101.03999999999991
 21
-367.72000000000003
 31
0.0
  0
LINE
  5
19C
100
AcDbEntity
  8
0
 62
256
370
-1
 48
1.0
  6
ByLayer
100
AcDbLine
 10
101.03999999999991
 20
-367.72000000000003
 30
0.0
 11
101.03999999999986
 21
-381.16000000000003
 31
0.0
  0
LINE
  5
19D
100
AcDbEntity
  8
0
 62
256
370
-1
 48
1.0
  6
ByLayer
100
AcDbLine
 10
101.03999999999986
 20
-381.16000000000003
 30
0.0
 11
84.519999999999868
 21
-381.15999999999997
 31
0.0
  0
LINE
  5
19E
100
AcDbEntity
  8
0
 62
256
370
-1
 48
1.0
  6
ByLayer
100
AcDbLine
 10
84.519999999999868
 20
-381.15999999999997
 30
0.0
 11
84.519999999999882
 21
-374.43999999999994
 31
0.0
  0
LINE
  5
19F
100
AcDbEntity
  8
0
 62
256
370
-1
 48
1.0
  6
ByLayer
100
AcDbLine
 10
84.519999999999882
 20
-374.43999999999994
 30
0.0
 11
75.244999999999962
 21
-374.44000000000005
 31
0.0
  0
LINE
  5
1A0
100
AcDbEntity
  8
0
 62
256
370
-1
 48
1.0
  6
ByLayer
100
AcDbLine
 10
75.244999999999962
 20
-374.44000000000005
 30
0.0
 11
75.244999999999962
 21
-369.66000000000003
 31
0.0
  0
LINE
  5
1A1
100
AcDbEntity
  8
0
 62
256
370
-1
 48
1.0
  6
ByLayer
100
AcDbLine
 10
75.244999999999962
 20
-369.66000000000003
 30
0.0
 11
76.269999999999982
 21
-369.66000000000003
 31
0.0
  0
ARC
  5
1A2
100
AcDbEntity
  8
0
 62
256
370
-1
 48
1.0
  6
ByLayer
100
AcDbCircle
 10
76.519999999999982
 20
-369.66000000000003
 30
0.0
 40
0.25
100
AcDbArc
 50
180.0
 51
90.0
  0
LINE
  5
1A3
100
AcDbEntity
  8
0
 62
256
370
-1
 48
1.0
  6
ByLayer
100
AcDbLine
 10
76.519999999999982
 20
-369.41000000000003
 30
0.0
 11
76.519999999999982
 21
-367.41000000000008
 31
0.0
  0
ARC
  5
1A4
100
AcDbEntity
  8
0
 62
256
370
-1
 48
1.0
  6
ByLayer
100
AcDbCircle
 10
76.52000000000001
 20
-367.16000000000008
 30
0.0
 40
0.2500000000000284
100
AcDbArc
 50
269.99999999999346
 51
180.0
  0
LINE
  5
1A5
100
AcDbEntity
  8
0
 62
256
370
-1
 48
1.0
  6
ByLayer
100
AcDbLine
 10
76.269999999999982
 20
-367.16000000000003
 30
0.0
 11
75.244999999999976
 21
-367.16000000000003
 31
0.0
  0
LINE
  5
1A6
100
AcDbEntity
  8
0
 62
256
370
-1
 48
1.0
  6
ByLayer
100
AcDbLine
 10
75.244999999999976
 20
-367.16000000000003
 30
0.0
 11
75.244999999999976
 21
-366.16000000000008
 31
0.0
  0
LINE
  5
1A7
100
AcDbEntity
  8
0
 62
256
370
-1
 48
1.0
  6
ByLayer
100
AcDbLine
 10
75.244999999999976
 20
-366.16000000000008
 30
0.0
 11
72.09499999999997
 21
-366.16000000000003
 31
0.0
  0
LINE
  5
1A8
100
AcDbEntity
  8
0
 62
256
370
-1
 48
1.0
  6
ByLayer
100
AcDbLine
 10
72.09499999999997
 20
-366.16000000000003
 30
0.0
 11
72.09499999999997
 21
-367.16000000000003
 31
0.0
  0
LINE
  5
1A9
100
AcDbEntity
  8
0
 62
256
370
-1
 48
1.0
  6
ByLayer
100
AcDbLine
 10
72.09499999999997
 20
-367.16000000000003
 30
0.0
 11
71.069999999999979
 21
-367.16000000000003
 31
0.0
  0
ARC
  5
1AA
100
AcDbEntity
  8
0
 62
256
370
-1
 48
1.0
  6
ByLayer
100
AcDbCircle
 10
70.819999999999951
 20
-367.16000000000008
 30
0.0
 40
0.2500000000000284
100
AcDbArc
 50
0.0
 51
270.00000000000654
  0
LINE
  5
1AB
100
AcDbEntity
  8
0
 62
256
370
-1
 48
1.0
  6
ByLayer
100
AcDbLine
 10
70.819999999999979
 20
-367.41000000000008
 30
0.0
 11
70.819999999999979
 21
-369.41000000000003
 31
0.0
  0
ARC
  5
1AC
100
AcDbEntity
  8
0
 62
256
370
-1
 48
1.0
  6
ByLayer
100
AcDbCircle
 10
70.819999999999965
 20
-369.66000000000003
 30
0.0
 40
0.2499999999999951
100
AcDbArc
 50
89.999999999996746
 51
0.0
  0
LINE
  5
1AD
100
AcDbEntity
  8
0
 62
256
370
-1
 48
1.0
  6
ByLayer
100
AcDbLine
 10
71.069999999999965
 20
-369.66000000000003
 30
0.0
 11
72.09499999999997
 21
-369.66000000000003
 31
0.0
  0
LINE
  5
1AE
100
AcDbEntity
  8
0
 62
256
370
-1
 48
1.0
  6
ByLayer
100
AcDbLine
 10
72.09499999999997
 20
-369.66000000000003
 30
0.0
 11
72.09499999999997
 21
-374.44000000000005
 31
0.0
  0
LINE
  5
1AF
100
AcDbEntity
  8
0
 62
256
370
-1
 48
1.0
  6
ByLayer
100
AcDbLine
 10
72.09499999999997
 20
-374.44000000000005
 30
0.0
 11
61.280000000000001
 21
-374.44000000000005
 31
0.0
  0
LINE
  5
1B0
100
AcDbEntity
  8
0
 62
256
370
-1
 48
1.0
  6
ByLayer
100
AcDbLine
 10
61.280000000000001
 20
-374.44000000000005
 30
0.0
 11
61.280000000000015
 21
-318.16000000000003
 31
0.0
  0
LINE
  5
1B1
100
AcDbEntity
  8
0
 62
256
370
-1
 48
1.0
  6
ByLayer
100
AcDbLine
 10
61.280000000000015
 20
-318.16000000000003
 30
0.0
 11
68.000000000000014
 21
-318.16000000000003
 31
0.0
  0
LINE
  5
1B2
100
AcDbEntity
  8
0
 62
256
370
-1
 48
1.0
  6
ByLayer
100
AcDbLine
 10
68.000000000000014
 20
-318.16000000000003
 30
0.0
 11
68.000000000000085
 21
-249.72000000000003
 31
0.0
  0
LINE
  5
1B3
100
AcDbEntity
  8
0
 62
256
370
-1
 48
1.0
  6
ByLayer
100
AcDbLine
 10
68.000000000000043
 20
-285.51499999999999
 30
0.0
 11
72.780000000000001
 21
-285.51499999999999
 31
0.0
  0
LINE
  5
1B4
100
AcDbEntity
  8
0
 62
256
370
-1
 48
1.0
  6
ByLayer
100
AcDbLine
 10
72.780000000000001
 20
-285.51499999999999
 30
0.0
 11
72.779999999999959
 21
-286.54000000000002
 31
0.0
  0
ARC
  5
1B5
100
AcDbEntity
  8
0
 62
256
370
-1
 48
1.0
  6
ByLayer
100
AcDbCircle
 10
72.779999999999944
 20
-286.79000000000002
 30
0.0
 40
0.2499999999999858
100
AcDbArc
 50
89.999999999996746
 51
0.0
  0
LINE
  5
1B6
100
AcDbEntity
  8
0
 62
256
370
-1
 48
1.0
  6
ByLayer
100
AcDbLine
 10
73.02999999999993
 20
-286.79000000000002
 30
0.0
 11
75.030000000000015
 21
-286.79000000000002
 31
0.0
  0
ARC
  5
1B7
100
AcDbEntity
  8
0
 62
256
370
-1
 48
1.0
  6
ByLayer
100
AcDbCircle
 10
75.280000000000001
 20
-286.79000000000002
 30
0.0
 40
0.2499999999999929
100
AcDbArc
 50
180.0
 51
90.0
  0
LINE
  5
1B8
100
AcDbEntity
  8
0
 62
256
370
-1
 48
1.0
  6
ByLayer
100
AcDbLine
 10
75.280000000000001
 20
-286.54000000000002
 30
0.0
 11
75.27999999999993
 21
-285.51499999999999
 31
0.0
  0
LINE
  5
1B9
100
AcDbEntity
  8
0
 62
256
370
-1
 48
1.0
  6
ByLayer
100
AcDbLine
 10
75.27999999999993
 20
-285.51499999999999
 30
0.0
 11
76.279999999999973
 21
-285.51499999999999
 31
0.0
  0
LINE
  5
1BA
100
AcDbEntity
  8
0
 62
256
370
-1
 48
1.0
  6
ByLayer
100
AcDbLine
 10
76.279999999999973
 20
-285.51499999999999
 30
0.0
 11
76.279999999999902
 21
-282.36500000000001
 31
0.0
  0
LINE
  5
1BB
100
AcDbEntity
  8
0
 62
256
370
-1
 48
1.0
  6
ByLayer
100
AcDbLine
 10
76.279999999999902
 20
-282.36500000000001
 30
0.0
 11
75.279999999999987
 21
-282.36500000000001
 31
0.0
  0
LINE
  5
1BC
100
AcDbEntity
  8
0
 62
256
370
-1
 48
1.0
  6
ByLayer
100
AcDbLine
 10
75.279999999999987
 20
-282.36500000000001
 30
0.0
 11
75.279999999999887
 21
-281.34000000000003
 31
0.0
  0
ARC
  5
1BD
100
AcDbEntity
  8
0
 62
256
370
-1
 48
1.0
  6
ByLayer
100
AcDbCircle
 10
75.279999999999944
 20
-281.09000000000009
 30
0.0
 40
0.2499999999999502
100
AcDbArc
 50
269.99999999998698
 51
180.0
  0
LINE
  5
1BE
100
AcDbEntity
  8
0
 62
256
370
-1
 48
1.0
  6
ByLayer
100
AcDbLine
 10
75.029999999999987
 20
-281.09000000000003
 30
0.0
 11
73.029999999999959
 21
-281.09000000000003
 31
0.0
  0
ARC
  5
1BF
100
AcDbEntity
  8
0
 62
256
370
-1
 48
1.0
  6
ByLayer
100
AcDbCircle
 10
72.779999999999973
 20
-281.09000000000003
 30
0.0
 40
0.2499999999999809
100
AcDbArc
 50
0.0
 51
270.00000000000654
  0
LINE
  5
1C0
100
AcDbEntity
  8
0
 62
256
370
-1
 48
1.0
  6
ByLayer
100
AcDbLine
 10
72.780000000000001
 20
-281.34000000000003
 30
0.0
 11
72.779999999999831
 21
-282.36500000000001
 31
0.0
  0
LINE
  5
1C1
100
AcDbEntity
  8
0
 62
256
370
-1
 48
1.0
  6
ByLayer
100
AcDbLine
 10
72.779999999999831
 20
-282.36500000000001
 30
0.0
 11
67.999999999999844
 21
-282.36500000000001
 31
0.0
  0
LINE
  5
1C2
100
AcDbEntity
  8
0
 62
256
370
-1
 48
1.0
  6
ByLayer
100
AcDbLine
 10
68.000000000000085
 20
-249.72000000000003
 30
0.0
 11
61.280000000000037
 21
-249.72000000000003
 31
0.0
  0
LINE
  5
1C3
100
AcDbEntity
  8
0
 62
256
370
-1
 48
1.0
  6
ByLayer
100
AcDbLine
 10
61.280000000000037
 20
-249.72000000000003
 30
0.0
 11
61.280000000000058
 21
-193.44000000000005
 31
0.0
  0
LINE
  5
1C4
100
AcDbEntity
  8
0
 62
256
370
-1
 48
1.0
  6
ByLayer
100
AcDbLine
 10
72.095000000000155
 20
-193.44000000000005
 30
0.0
 11
72.095000000000027
 21
-198.22000000000003
 31
0.0
  0
LINE
  5
1C5
100
AcDbEntity
  8
0
 62
256
370
-1
 48
1.0
  6
ByLayer
100
AcDbLine
 10
72.095000000000027
 20
-198.22000000000003
 30
0.0
 11
71.070000000000135
 21
-198.22000000000003
 31
0.0
  0
ARC
  5
1C6
100
AcDbEntity
  8
0
 62
256
370
-1
 48
1.0
  6
ByLayer
100
AcDbCircle
 10
70.820000000000135
 20
-198.22000000000003
 30
0.0
 40
0.2500000000000022
100
AcDbArc
 50
0.0
 51
270.0
  0
LINE
  5
1C7
100
AcDbEntity
  8
0
 62
256
370
-1
 48
1.0
  6
ByLayer
100
AcDbLine
 10
70.820000000000135
 20
-198.47000000000003
 30
0.0
 11
70.819999999999524
 21
-200.47000000000003
 31
0.0
  0
ARC
  5
1C8
100
AcDbEntity
  8
0
 62
256
370
-1
 48
1.0
  6
ByLayer
100
AcDbCircle
 10
70.819999999999865
 20
-200.72000000000037
 30
0.0
 40
0.250000000000341
100
AcDbArc
 50
90.00000000007816
 51
0.0
  0
LINE
  5
1C9
100
AcDbEntity
  8
0
 62
256
370
-1
 48
1.0
  6
ByLayer
100
AcDbLine
 10
71.070000000000206
 20
-200.72000000000003
 30
0.0
 11
72.095000000000084
 21
-200.72000000000003
 31
0.0
  0
LINE
  5
1CA
100
AcDbEntity
  8
0
 62
256
370
-1
 48
1.0
  6
ByLayer
100
AcDbLine
 10
72.095000000000084
 20
-200.72000000000003
 30
0.0
 11
72.09499999999997
 21
-201.72000000000003
 31
0.0
  0
LINE
  5
1CB
100
AcDbEntity
  8
0
 62
256
370
-1
 48
1.0
  6
ByLayer
100
AcDbLine
 10
72.09499999999997
 20
-201.72000000000003
 30
0.0
 11
75.245000000000203
 21
-201.72000000000003
 31
0.0
  0
LINE
  5
1CC
100
AcDbEntity
  8
0
 62
256
370
-1
 48
1.0
  6
ByLayer
100
AcDbLine
 10
75.245000000000203
 20
-201.72000000000003
 30
0.0
 11
75.245000000000317
 21
-200.72000000000006
 31
0.0
  0
LINE
  5
1CD
100
AcDbEntity
  8
0
 62
256
370
-1
 48
1.0
  6
ByLayer
100
AcDbLine
 10
75.245000000000317
 20
-200.72000000000006
 30
0.0
 11
76.269999999999754
 21
-200.72000000000003
 31
0.0
  0
ARC
  5
1CE
100
AcDbEntity
  8
0
 62
256
370
-1
 48
1.0
  6
ByLayer
100
AcDbCircle
 10
76.51999999999984
 20
-200.72000000000011
 30
0.0
 40
0.2500000000000853
100
AcDbArc
 50
180.0
 51
89.99999999998046
  0
LINE
  5
1CF
100
AcDbEntity
  8
0
 62
256
370
-1
 48
1.0
  6
ByLayer
100
AcDbLine
 10
76.519999999999925
 20
-200.47000000000003
 30
0.0
 11
76.519999999999783
 21
-198.47000000000003
 31
0.0
  0
ARC
  5
1D0
100
AcDbEntity
  8
0
 62
256
370
-1
 48
1.0
  6
ByLayer
100
AcDbCircle
 10
76.519999999999939
 20
-198.2200000000002
 30
0.0
 40
0.2499999999998437
100
AcDbArc
 50
269.99999999996419
 51
180.0
  0
LINE
  5
1D1
100
AcDbEntity
  8
0
 62
256
370
-1
 48
1.0
  6
ByLayer
100
AcDbLine
 10
76.270000000000095
 20
-198.22000000000003
 30
0.0
 11
75.244999999999962
 21
-198.22000000000003
 31
0.0
  0
LINE
  5
1D2
100
AcDbEntity
  8
0
 62
256
370
-1
 48
1.0
  6
ByLayer
100
AcDbLine
 10
75.244999999999962
 20
-198.22000000000003
 30
0.0
 11
75.245000000000132
 21
-193.44000000000005
 31
0.0
  0
LINE
  5
1D3
100
AcDbEntity
  8
0
 62
256
370
-1
 48
1.0
  6
ByLayer
100
AcDbLine
 10
75.245000000000132
 20
-193.44000000000005
 30
0.0
 11
84.520000000000067
 21
-193.44000000000011
 31
0.0
  0
LINE
  5
1D4
100
AcDbEntity
  8
0
 62
256
370
-1
 48
1.0
  6
ByLayer
100
AcDbLine
 10
84.520000000000067
 20
-193.44000000000011
 30
0.0
 11
84.519999999999982
 21
-186.72000000000008
 31
0.0
  0
LINE
  5
1D5
100
AcDbEntity
  8
0
 62
256
370
-1
 48
1.0
  6
ByLayer
100
AcDbLine
 10
84.519999999999982
 20
-186.72000000000008
 30
0.0
 11
101.04000000000018
 21
-186.72000000000008
 31
0.0
  0
LINE
  5
1D6
100
AcDbEntity
  8
0
 62
256
370
-1
 48
1.0
  6
ByLayer
100
AcDbLine
 10
101.04000000000018
 20
-186.72000000000008
 30
0.0
 11
101.03999999999994
 21
-200.16000000000008
 31
0.0
  0
LINE
  5
1D7
100
AcDbEntity
  8
0
 62
256
370
-1
 48
1.0
  6
ByLayer
100
AcDbLine
 10
101.03999999999994
 20
-200.16000000000008
 30
0.0
 11
109.30000000000001
 21
-200.16000000000008
 31
0.0
  0
LINE
  5
1D8
100
AcDbEntity
  8
0
 62
256
370
-1
 48
1.0
  6
ByLayer
100
AcDbLine
 10
109.30000000000001
 20
-200.16000000000008
 30
0.0
 11
115.73431148549533
 21
-200.72292931257562
 31
0.0
  0
ARC
  5
1D9
100
AcDbEntity
  8
0
 62
256
370
-1
 48
1.0
  6
ByLayer
100
AcDbCircle
 10
115.56000000000006
 20
-202.71531870875916
 30
0.0
 40
2.0000000000000373
100
AcDbArc
 50
0.0
 51
85.000000000001549
  0
CIRCLE
  5
1DA
100
AcDbEntity
  8
0
 62
256
370
-1
 48
1.0
  6
ByLayer
100
AcDbCircle
 10
97.819999999999993
 20
-323.69000000000005
 30
0.0
 40
2.0
  0
CIRCLE
  5
1DB
100
AcDbEntity
  8
0
 62
256
370
-1
 48
1.0
  6
ByLayer
100
AcDbCircle
 10
137.30000000000004
 20
-323.69000000000005
 30
0.0
 40
2.0
  0
CIRCLE
  5
1DC
100
AcDbEntity
  8
0
 62
256
370
-1
 48
1.0
  6
ByLayer
100
AcDbCircle
 10
97.82000000000005
 20
-265.69000000000005
 30
0.0
 40
2.0
  0
CIRCLE
  5
1DD
100
AcDbEntity
  8
0
 62
256
370
-1
 48
1.0
  6
ByLayer
100
AcDbCircle
 10
137.30000000000001
 20
-265.69000000000005
 30
0.0
 40
2.0
  0
LINE
  5
1DE
100
AcDbEntity
  8
0
 62
256
370
-1
 48
1.0
  6
ByLayer
100
AcDbLine
 10
157.36499999999992
 20
128.04500000000002
 30
0.0
 11
157.36499999999992
 21
132.82500000000002
 31
0.0
  0
LINE
  5
1DF
100
AcDbEntity
  8
0
 62
256
370
-1
 48
1.0
  6
ByLayer
100
AcDbLine
 10
157.36499999999992
 20
132.82500000000002
 30
0.0
 11
156.33999999999992
 21
132.82500000000002
 31
0.0
  0
ARC
  5
1E0
100
AcDbEntity
  8
0
 62
256
370
-1
 48
1.0
  6
ByLayer
100
AcDbCircle
 10
156.08999999999992
 20
132.82500000000002
 30
0.0
 40
0.25
100
AcDbArc
 50
90.0
 51
0.0
  0
LINE
  5
1E1
100
AcDbEntity
  8
0
 62
256
370
-1
 48
1.0
  6
ByLayer
100
AcDbLine
 10
156.08999999999992
 20
133.07500000000002
 30
0.0
 11
156.08999999999992
 21
135.07500000000002
 31
0.0
  0
ARC
  5
1E2
100
AcDbEntity
  8
0
 62
256
370
-1
 48
1.0
  6
ByLayer
100
AcDbCircle
 10
156.08999999999992
 20
135.32500000000002
 30
0.0
 40
0.25
100
AcDbArc
 50
0.0
 51
270.0
  0
LINE
  5
1E3
100
AcDbEntity
  8
0
 62
256
370
-1
 48
1.0
  6
ByLayer
100
AcDbLine
 10
156.33999999999992
 20
135.32500000000002
 30
0.0
 11
157.36499999999992
 21
135.32500000000002
 31
0.0
  0
LINE
  5
1E4
100
AcDbEntity
  8
0
 62
256
370
-1
 48
1.0
  6
ByLayer
100
AcDbLine
 10
157.36499999999992
 20
135.32500000000002
 30
0.0
 11
157.36499999999992
 21
136.32500000000002
 31
0.0
  0
LINE
  5
1E5
100
AcDbEntity
  8
0
 62
256
370
-1
 48
1.0
  6
ByLayer
100
AcDbLine
 10
157.36499999999992
 20
136.32500000000002
 30
0.0
 11
160.51499999999993
 21
136.32500000000002
 31
0.0
  0
LINE
  5
1E6
100
AcDbEntity
  8
0
 62
256
370
-1
 48
1.0
  6
ByLayer
100
AcDbLine
 10
160.51499999999993
 20
136.32500000000002
 30
0.0
 11
160.51499999999993
 21
135.32500000000002
 31
0.0
  0
LINE
  5
1E7
100
AcDbEntity
  8
0
 62
256
370
-1
 48
1.0
  6
ByLayer
100
AcDbLine
 10
160.51499999999993
 20
135.32500000000002
 30
0.0
 11
161.53999999999991
 21
135.32500000000002
 31
0.0
  0
ARC
  5
1E8
100
AcDbEntity
  8
0
 62
256
370
-1
 48
1.0
  6
ByLayer
100
AcDbCircle
 10
161.78999999999991
 20
135.32500000000002
 30
0.0
 40
0.25
100
AcDbArc
 50
270.0
 51
180.0
  0
LINE
  5
1E9
100
AcDbEntity
  8
0
 62
256
370
-1
 48
1.0
  6
ByLayer
100
AcDbLine
 10
161.78999999999991
 20
135.07500000000002
 30
0.0
 11
161.78999999999991
 21
133.07499999999999
 31
0.0
  0
ARC
  5
1EA
100
AcDbEntity
  8
0
 62
256
370
-1
 48
1.0
  6
ByLayer
100
AcDbCircle
 10
161.78999999999988
 20
132.82499999999999
 30
0.0
 40
0.2499999999999858
100
AcDbArc
 50
180.0
 51
89.999999999993491
  0
LINE
  5
1EB
100
AcDbEntity
  8
0
 62
256
370
-1
 48
1.0
  6
ByLayer
100
AcDbLine
 10
161.53999999999991
 20
132.82500000000002
 30
0.0
 11
160.51499999999993
 21
132.82500000000002
 31
0.0
  0
LINE
  5
1EC
100
AcDbEntity
  8
0
 62
256
370
-1
 48
1.0
  6
ByLayer
100
AcDbLine
 10
160.51499999999993
 20
132.82500000000002
 30
0.0
 11
160.51499999999993
 21
128.04500000000002
 31
0.0
  0
LINE
  5
1ED
100
AcDbEntity
  8
0
 62
256
370
-1
 48
1.0
  6
ByLayer
100
AcDbLine
 10
160.51499999999993
 20
128.04500000000002
 30
0.0
 11
166.43999999999991
 21
128.04499999999965
 31
0.0
  0
LINE
  5
1EE
100
AcDbEntity
  8
0
 62
256
370
-1
 48
1.0
  6
ByLayer
100
AcDbLine
 10
166.43999999999991
 20
128.04499999999965
 30
0.0
 11
166.43999999999966
 21
309.04499999999967
 31
0.0
  0
LINE
  5
1EF
100
AcDbEntity
  8
0
 62
256
370
-1
 48
1.0
  6
ByLayer
100
AcDbLine
 10
166.43999999999966
 20
309.04499999999967
 30
0.0
 11
160.51500000000016
 21
309.04499999999962
 31
0.0
  0
LINE
  5
1F0
100
AcDbEntity
  8
0
 62
256
370
-1
 48
1.0
  6
ByLayer
100
AcDbLine
 10
160.51500000000016
 20
309.04499999999962
 30
0.0
 11
160.51499999999984
 21
304.26499999999965
 31
0.0
  0
LINE
  5
1F1
100
AcDbEntity
  8
0
 62
256
370
-1
 48
1.0
  6
ByLayer
100
AcDbLine
 10
160.51499999999984
 20
304.26499999999965
 30
0.0
 11
161.53999999999991
 21
304.26499999999965
 31
0.0
  0
ARC
  5
1F2
100
AcDbEntity
  8
0
 62
256
370
-1
 48
1.0
  6
ByLayer
100
AcDbCircle
 10
161.78999999999985
 20
304.26499999999959
 30
0.0
 40
0.2499999999999431
100
AcDbArc
 50
269.99999999998698
 51
180.0
  0
LINE
  5
1F3
100
AcDbEntity
  8
0
 62
256
370
-1
 48
1.0
  6
ByLayer
100
AcDbLine
 10
161.78999999999979
 20
304.01499999999965
 30
0.0
 11
161.78999999999985
 21
302.01499999999965
 31
0.0
  0
ARC
  5
1F4
100
AcDbEntity
  8
0
 62
256
370
-1
 48
1.0
  6
ByLayer
100
AcDbCircle
 10
161.78999999999979
 20
301.76499999999959
 30
0.0
 40
0.2500000000000426
100
AcDbArc
 50
180.0
 51
89.999999999986969
  0
LINE
  5
1F5
100
AcDbEntity
  8
0
 62
256
370
-1
 48
1.0
  6
ByLayer
100
AcDbLine
 10
161.53999999999976
 20
301.76499999999965
 30
0.0
 11
160.51499999999996
 21
301.76499999999965
 31
0.0
  0
LINE
  5
1F6
100
AcDbEntity
  8
0
 62
256
370
-1
 48
1.0
  6
ByLayer
100
AcDbLine
 10
160.51499999999996
 20
301.76499999999965
 30
0.0
 11
160.51499999999996
 21
300.76499999999965
 31
0.0
  0
LINE
  5
1F7
100
AcDbEntity
  8
0
 62
256
370
-1
 48
1.0
  6
ByLayer
100
AcDbLine
 10
160.51499999999996
 20
300.76499999999965
 30
0.0
 11
157.36500000000001
 21
300.76499999999965
 31
0.0
  0
LINE
  5
1F8
100
AcDbEntity
  8
0
 62
256
370
-1
 48
1.0
  6
ByLayer
100
AcDbLine
 10
157.36500000000001
 20
300.76499999999965
 30
0.0
 11
157.36499999999995
 21
301.76499999999965
 31
0.0
  0
LINE
  5
1F9
100
AcDbEntity
  8
0
 62
256
370
-1
 48
1.0
  6
ByLayer
100
AcDbLine
 10
157.36499999999995
 20
301.76499999999965
 30
0.0
 11
156.33999999999997
 21
301.76499999999965
 31
0.0
  0
ARC
  5
1FA
100
AcDbEntity
  8
0
 62
256
370
-1
 48
1.0
  6
ByLayer
100
AcDbCircle
 10
156.08999999999989
 20
301.76499999999953
 30
0.0
 40
0.2500000000000853
100
AcDbArc
 50
90.00000000001954
 51
0.0
  0
LINE
  5
1FB
100
AcDbEntity
  8
0
 62
256
370
-1
 48
1.0
  6
ByLayer
100
AcDbLine
 10
156.0899999999998
 20
302.01499999999965
 30
0.0
 11
156.08999999999983
 21
304.01499999999965
 31
0.0
  0
ARC
  5
1FC
100
AcDbEntity
  8
0
 62
256
370
-1
 48
1.0
  6
ByLayer
100
AcDbCircle
 10
156.0899999999998
 20
304.26499999999959
 30
0.0
 40
0.2499999999999716
100
AcDbArc
 50
0.0
 51
270.00000000000654
  0
LINE
  5
1FD
100
AcDbEntity
  8
0
 62
256
370
-1
 48
1.0
  6
ByLayer
100
AcDbLine
 10
156.33999999999978
 20
304.26499999999965
 30
0.0
 11
157.36500000000001
 21
304.26499999999965
 31
0.0
  0
LINE
  5
1FE
100
AcDbEntity
  8
0
 62
256
370
-1
 48
1.0
  6
ByLayer
100
AcDbLine
 10
157.36500000000001
 20
304.26499999999965
 30
0.0
 11
157.36500000000009
 21
309.04499999999967
 31
0.0
  0
LINE
  5
1FF
100
AcDbEntity
  8
0
 62
256
370
-1
 48
1.0
  6
ByLayer
100
AcDbLine
 10
157.36500000000009
 20
309.04499999999967
 30
0.0
 11
151.43999999999983
 21
309.04499999999967
 31
0.0
  0
LINE
  5
200
100
AcDbEntity
  8
0
 62
256
370
-1
 48
1.0
  6
ByLayer
100
AcDbLine
 10
151.43999999999983
 20
309.04499999999967
 30
0.0
 11
151.44
 21
315.7649999999997
 31
0.0
  0
LINE
  5
201
100
AcDbEntity
  8
0
 62
256
370
-1
 48
1.0
  6
ByLayer
100
AcDbLine
 10
151.44
 20
315.7649999999997
 30
0.0
 11
136.44000000000008
 21
315.7649999999997
 31
0.0
  0
LINE
  5
202
100
AcDbEntity
  8
0
 62
256
370
-1
 48
1.0
  6
ByLayer
100
AcDbLine
 10
136.44000000000003
 20
121.32500000000005
 30
0.0
 11
151.44000000000003
 21
121.32500000000005
 31
0.0
  0
LINE
  5
203
100
AcDbEntity
  8
0
 62
256
370
-1
 48
1.0
  6
ByLayer
100
AcDbLine
 10
151.44000000000003
 20
121.32500000000005
 30
0.0
 11
151.44000000000003
 21
128.04500000000002
 31
0.0
  0
LINE
  5
204
100
AcDbEntity
  8
0
 62
256
370
-1
 48
1.0
  6
ByLayer
100
AcDbLine
 10
151.44000000000003
 20
128.04500000000002
 30
0.0
 11
157.36499999999992
 21
128.04500000000002
 31
0.0
  0
CIRCLE
  5
205
100
AcDbEntity
  8
0
 62
256
370
-1
 48
1.0
  6
ByLayer
100
AcDbCircle
 10
151.44000000000193
 20
278.87833333333299
 30
0.0
 40
1.9999999999999989
  0
CIRCLE
  5
206
100
AcDbEntity
  8
0
 62
256
370
-1
 48
1.0
  6
ByLayer
100
AcDbCircle
 10
151.4400000000019
 20
158.2116666666663
 30
0.0
 40
1.9999999999999989
  0
LINE
  5
207
100
AcDbEntity
  8
0
 62
256
370
-1
 48
1.0
  6
ByLayer
100
AcDbLine
 10
-152.50000000000009
 20
-170.62666666666658
 30
0.0
 11
-152.50000000000006
 21
-147.81333333333328
 31
0.0
  0
LINE
  5
208
100
AcDbEntity
  8
0
 62
256
370
-1
 48
1.0
  6
ByLayer
100
AcDbLine
 10
-152.50000000000006
 20
-147.81333333333328
 30
0.0
 11
-145.78000000000006
 21
-147.81333333333325
 31
0.0
  0
LINE
  5
209
100
AcDbEntity
  8
0
 62
256
370
-1
 48
1.0
  6
ByLayer
100
AcDbLine
 10
-145.78000000000006
 20
-147.81333333333325
 30
0.0
 11
-145.78000000000009
 21
-170.62666666666661
 31
0.0
  0
LINE
  5
20A
100
AcDbEntity
  8
0
 62
256
370
-1
 48
1.0
  6
ByLayer
100
AcDbLine
 10
-145.78000000000009
 20
-170.62666666666661
 30
0.0
 11
-152.50000000000009
 21
-170.62666666666658
 31
0.0
  0
LINE
  5
20B
100
AcDbEntity
  8
0
 62
256
370
-1
 48
1.0
  6
ByLayer
100
AcDbLine
 10
21.779999999999887
 20
-170.62666666666689
 30
0.0
 11
21.779999999999916
 21
-147.81333333333333
 31
0.0
  0
LINE
  5
20C
100
AcDbEntity
  8
0
 62
256
370
-1
 48
1.0
  6
ByLayer
100
AcDbLine
 10
21.779999999999916
 20
-147.81333333333333
 30
0.0
 11
28.499999999999915
 21
-147.81333333333322
 31
0.0
  0
LINE
  5
20D
100
AcDbEntity
  8
0
 62
256
370
-1
 48
1.0
  6
ByLayer
100
AcDbLine
 10
28.499999999999915
 20
-147.81333333333322
 30
0.0
 11
28.499999999999915
 21
-170.62666666666675
 31
0.0
  0
LINE
  5
20E
100
AcDbEntity
  8
0
 62
256
370
-1
 48
1.0
  6
ByLayer
100
AcDbLine
 10
28.499999999999915
 20
-170.62666666666675
 30
0.0
 11
21.779999999999887
 21
-170.62666666666689
 31
0.0
  0
LINE
  5
20F
100
AcDbEntity
  8
0
 62
256
370
-1
 48
1.0
  6
ByLayer
100
AcDbLine
 10
-78.000000000000071
 20
-131.72000000000008
 30
0.0
 11
-78.000000000000071
 21
-125.00000000000003
 31
0.0
  0
LINE
  5
210
100
AcDbEntity
  8
0
 62
256
370
-1
 48
1.0
  6
ByLayer
100
AcDbLine
 10
-78.000000000000071
 20
-125.00000000000003
 30
0.0
 11
-46.000000000000057
 21
-125.00000000000004
 31
0.0
  0
LINE
  5
211
100
AcDbEntity
  8
0
 62
256
370
-1
 48
1.0
  6
ByLayer
100
AcDbLine
 10
-46.000000000000057
 20
-125.00000000000004
 30
0.0
 11
-46.000000000000057
 21
-131.71999999999974
 31
0.0
  0
LINE
  5
212
100
AcDbEntity
  8
0
 62
256
370
-1
 48
1.0
  6
ByLayer
100
AcDbLine
 10
-46.000000000000057
 20
-131.71999999999974
 30
0.0
 11
-78.000000000000071
 21
-131.72000000000008
 31
0.0
  0
LINE
  5
213
100
AcDbEntity
  8
0
 62
256
370
-1
 48
1.0
  6
ByLayer
100
AcDbLine
 10
-185.28000000000011
 20
-157.64500000000004
 30
0.0
 11
-180.50000000000009
 21
-157.64500000000004
 31
0.0
  0
LINE
  5
214
100
AcDbEntity
  8
0
 62
256
370
-1
 48
1.0
  6
ByLayer
100
AcDbLine
 10
-180.50000000000009
 20
-157.64500000000004
 30
0.0
 11
-180.50000000000006
 21
-156.62000000000003
 31
0.0
  0
ARC
  5
215
100
AcDbEntity
  8
0
 62
256
370
-1
 48
1.0
  6
ByLayer
100
AcDbCircle
 10
-180.50000000000006
 20
-156.37000000000006
 30
0.0
 40
0.2499999999999856
100
AcDbArc
 50
0.0
 51
270.0
  0
LINE
  5
216
100
AcDbEntity
  8
0
 62
256
370
-1
 48
1.0
  6
ByLayer
100
AcDbLine
 10
-180.25000000000009
 20
-156.37000000000003
 30
0.0
 11
-178.25000000000009
 21
-156.37000000000003
 31
0.0
  0
ARC
  5
217
100
AcDbEntity
  8
0
 62
256
370
-1
 48
1.0
  6
ByLayer
100
AcDbCircle
 10
-178.00000000000009
 20
-156.37000000000003
 30
0.0
 40
0.25
100
AcDbArc
 50
270.0
 51
180.0
  0
LINE
  5
218
100
AcDbEntity
  8
0
 62
256
370
-1
 48
1.0
  6
ByLayer
100
AcDbLine
 10
-178.00000000000009
 20
-156.62000000000003
 30
0.0
 11
-178.00000000000009
 21
-157.64500000000004
 31
0.0
  0
LINE
  5
219
100
AcDbEntity
  8
0
 62
256
370
-1
 48
1.0
  6
ByLayer
100
AcDbLine
 10
-178.00000000000009
 20
-157.64500000000004
 30
0.0
 11
-177.00000000000009
 21
-157.64500000000004
 31
0.0
  0
LINE
  5
21A
100
AcDbEntity
  8
0
 62
256
370
-1
 48
1.0
  6
ByLayer
100
AcDbLine
 10
-177.00000000000009
 20
-157.64500000000004
 30
0.0
 11
-177.00000000000009
 21
-160.79500000000004
 31
0.0
  0
LINE
  5
21B
100
AcDbEntity
  8
0
 62
256
370
-1
 48
1.0
  6
ByLayer
100
AcDbLine
 10
-177.00000000000009
 20
-160.79500000000004
 30
0.0
 11
-178.00000000000011
 21
-160.79500000000004
 31
0.0
  0
LINE
  5
21C
100
AcDbEntity
  8
0
 62
256
370
-1
 48
1.0
  6
ByLayer
100
AcDbLine
 10
-178.00000000000011
 20
-160.79500000000004
 30
0.0
 11
-178.00000000000011
 21
-161.82000000000005
 31
0.0
  0
ARC
  5
21D
100
AcDbEntity
  8
0
 62
256
370
-1
 48
1.0
  6
ByLayer
100
AcDbCircle
 10
-178.00000000000011
 20
-162.07000000000005
 30
0.0
 40
0.2499999999999858
100
AcDbArc
 50
180.0
 51
90.0
  0
LINE
  5
21E
100
AcDbEntity
  8
0
 62
256
370
-1
 48
1.0
  6
ByLayer
100
AcDbLine
 10
-178.25000000000009
 20
-162.07000000000005
 30
0.0
 11
-180.25000000000011
 21
-162.07000000000005
 31
0.0
  0
ARC
  5
21F
100
AcDbEntity
  8
0
 62
256
370
-1
 48
1.0
  6
ByLayer
100
AcDbCircle
 10
-180.50000000000011
 20
-162.07000000000005
 30
0.0
 40
0.25
100
AcDbArc
 50
90.0
 51
0.0
  0
LINE
  5
220
100
AcDbEntity
  8
0
 62
256
370
-1
 48
1.0
  6
ByLayer
100
AcDbLine
 10
-180.50000000000011
 20
-161.82000000000005
 30
0.0
 11
-180.50000000000009
 21
-160.79500000000004
 31
0.0
  0
LINE
  5
221
100
AcDbEntity
  8
0
 62
256
370
-1
 48
1.0
  6
ByLayer
100
AcDbLine
 10
-180.50000000000009
 20
-160.79500000000004
 30
0.0
 11
-185.28000000000009
 21
-160.79500000000004
 31
0.0
  0
LINE
  5
222
100
AcDbEntity
  8
0
 62
256
370
-1
 48
1.0
  6
ByLayer
100
AcDbLine
 10
-185.28000000000009
 20
-160.79500000000004
 30
0.0
 11
-185.28000000000009
 21
-170.62666666666672
 31
0.0
  0
LINE
  5
223
100
AcDbEntity
  8
0
 62
256
370
-1
 48
1.0
  6
ByLayer
100
AcDbLine
 10
-185.28000000000009
 20
-170.62666666666672
 30
0.0
 11
-192.00000000000009
 21
-170.62666666666672
 31
0.0
  0
LINE
  5
224
100
AcDbEntity
  8
0
 62
256
370
-1
 48
1.0
  6
ByLayer
100
AcDbLine
 10
-192.00000000000009
 20
-170.62666666666672
 30
0.0
 11
-192.00000000000009
 21
-193.44
 31
0.0
  0
LINE
  5
225
100
AcDbEntity
  8
0
 62
256
370
-1
 48
1.0
  6
ByLayer
100
AcDbLine
 10
-192.00000000000009
 20
-193.44
 30
0.0
 11
-173.82500000000013
 21
-193.44000000000005
 31
0.0
  0
LINE
  5
226
100
AcDbEntity
  8
0
 62
256
370
-1
 48
1.0
  6
ByLayer
100
AcDbLine
 10
-173.82500000000013
 20
-193.44000000000005
 30
0.0
 11
-173.82500000000007
 21
-188.66000000000005
 31
0.0
  0
LINE
  5
227
100
AcDbEntity
  8
0
 62
256
370
-1
 48
1.0
  6
ByLayer
100
AcDbLine
 10
-173.82500000000007
 20
-188.66000000000005
 30
0.0
 11
-174.84999999999997
 21
-188.66000000000005
 31
0.0
  0
ARC
  5
228
100
AcDbEntity
  8
0
 62
256
370
-1
 48
1.0
  6
ByLayer
100
AcDbCircle
 10
-175.10000000000002
 20
-188.66000000000011
 30
0.0
 40
0.2500000000000568
100
AcDbArc
 50
90.000000000013031
 51
0.0
  0
LINE
  5
229
100
AcDbEntity
  8
0
 62
256
370
-1
 48
1.0
  6
ByLayer
100
AcDbLine
 10
-175.10000000000008
 20
-188.41000000000005
 30
0.0
 11
-175.10000000000008
 21
-186.41000000000005
 31
0.0
  0
ARC
  5
22A
100
AcDbEntity
  8
0
 62
256
370
-1
 48
1.0
  6
ByLayer
100
AcDbCircle
 10
-175.10000000000002
 20
-186.16000000000003
 30
0.0
 40
0.2500000000000426
100
AcDbArc
 50
360.0
 51
269.99999999998698
  0
LINE
  5
22B
100
AcDbEntity
  8
0
 62
256
370
-1
 48
1.0
  6
ByLayer
100
AcDbLine
 10
-174.84999999999999
 20
-186.16000000000005
 30
0.0
 11
-173.8250000000001
 21
-186.16000000000005
 31
0.0
  0
LINE
  5
22C
100
AcDbEntity
  8
0
 62
256
370
-1
 48
1.0
  6
ByLayer
100
AcDbLine
 10
-173.8250000000001
 20
-186.16000000000005
 30
0.0
 11
-173.82500000000007
 21
-185.16000000000005
 31
0.0
  0
LINE
  5
22D
100
AcDbEntity
  8
0
 62
256
370
-1
 48
1.0
  6
ByLayer
100
AcDbLine
 10
-173.82500000000007
 20
-185.16000000000005
 30
0.0
 11
-170.67500000000013
 21
-185.16000000000005
 31
0.0
  0
LINE
  5
22E
100
AcDbEntity
  8
0
 62
256
370
-1
 48
1.0
  6
ByLayer
100
AcDbLine
 10
-170.67500000000013
 20
-185.16000000000005
 30
0.0
 11
-170.67500000000013
 21
-186.16000000000008
 31
0.0
  0
LINE
  5
22F
100
AcDbEntity
  8
0
 62
256
370
-1
 48
1.0
  6
ByLayer
100
AcDbLine
 10
-170.67500000000013
 20
-186.16000000000008
 30
0.0
 11
-169.65000000000012
 21
-186.16000000000005
 31
0.0
  0
ARC
  5
230
100
AcDbEntity
  8
0
 62
256
370
-1
 48
1.0
  6
ByLayer
100
AcDbCircle
 10
-169.40000000000006
 20
-186.16
 30
0.0
 40
0.2500000000000568
100
AcDbArc
 50
270.00000000001302
 51
180.0
  0
LINE
  5
231
100
AcDbEntity
  8
0
 62
256
370
-1
 48
1.0
  6
ByLayer
100
AcDbLine
 10
-169.40000000000001
 20
-186.41000000000005
 30
0.0
 11
-169.40000000000001
 21
-188.41000000000005
 31
0.0
  0
ARC
  5
232
100
AcDbEntity
  8
0
 62
256
370
-1
 48
1.0
  6
ByLayer
100
AcDbCircle
 10
-169.40000000000003
 20
-188.66000000000008
 30
0.0
 40
0.2500000000000284
100
AcDbArc
 50
180.0
 51
89.999999999993491
  0
LINE
  5
233
100
AcDbEntity
  8
0
 62
256
370
-1
 48
1.0
  6
ByLayer
100
AcDbLine
 10
-169.65000000000006
 20
-188.66000000000005
 30
0.0
 11
-170.6750000000001
 21
-188.66000000000008
 31
0.0
  0
LINE
  5
234
100
AcDbEntity
  8
0
 62
256
370
-1
 48
1.0
  6
ByLayer
100
AcDbLine
 10
-170.6750000000001
 20
-188.66000000000008
 30
0.0
 11
-170.6750000000001
 21
-193.44000000000005
 31
0.0
  0
LINE
  5
235
100
AcDbEntity
  8
0
 62
256
370
-1
 48
1.0
  6
ByLayer
100
AcDbLine
 10
-170.6750000000001
 20
-193.44000000000005
 30
0.0
 11
-126.65833333333349
 21
-193.44000000000011
 31
0.0
  0
LINE
  5
236
100
AcDbEntity
  8
0
 62
256
370
-1
 48
1.0
  6
ByLayer
100
AcDbLine
 10
-126.65833333333349
 20
-193.44000000000011
 30
0.0
 11
-126.65833333333345
 21
-188.66000000000005
 31
0.0
  0
LINE
  5
237
100
AcDbEntity
  8
0
 62
256
370
-1
 48
1.0
  6
ByLayer
100
AcDbLine
 10
-126.65833333333345
 20
-188.66000000000005
 30
0.0
 11
-127.68333333333345
 21
-188.66000000000005
 31
0.0
  0
ARC
  5
238
100
AcDbEntity
  8
0
 62
256
370
-1
 48
1.0
  6
ByLayer
100
AcDbCircle
 10
-127.93333333333345
 20
-188.66000000000005
 30
0.0
 40
0.25
100
AcDbArc
 50
90.0
 51
0.0
  0
LINE
  5
239
100
AcDbEntity
  8
0
 62
256
370
-1
 48
1.0
  6
ByLayer
100
AcDbLine
 10
-127.93333333333345
 20
-188.41000000000005
 30
0.0
 11
-127.93333333333347
 21
-186.41000000000008
 31
0.0
  0
ARC
  5
23A
100
AcDbEntity
  8
0
 62
256
370
-1
 48
1.0
  6
ByLayer
100
AcDbCircle
 10
-127.93333333333347
 20
-186.16000000000008
 30
0.0
 40
0.2500000000000284
100
AcDbArc
 50
0.0
 51
270.0
  0
LINE
  5
23B
100
AcDbEntity
  8
0
 62
256
370
-1
 48
1.0
  6
ByLayer
100
AcDbLine
 10
-127.68333333333344
 20
-186.16000000000005
 30
0.0
 11
-126.6583333333334
 21
-186.16000000000003
 31
0.0
  0
LINE
  5
23C
100
AcDbEntity
  8
0
 62
256
370
-1
 48
1.0
  6
ByLayer
100
AcDbLine
 10
-126.6583333333334
 20
-186.16000000000003
 30
0.0
 11
-126.65833333333345
 21
-185.16000000000005
 31
0.0
  0
LINE
  5
23D
100
AcDbEntity
  8
0
 62
256
370
-1
 48
1.0
  6
ByLayer
100
AcDbLine
 10
-126.65833333333345
 20
-185.16000000000005
 30
0.0
 11
-123.50833333333345
 21
-185.16000000000005
 31
0.0
  0
LINE
  5
23E
100
AcDbEntity
  8
0
 62
256
370
-1
 48
1.0
  6
ByLayer
100
AcDbLine
 10
-123.50833333333345
 20
-185.16000000000005
 30
0.0
 11
-123.50833333333348
 21
-186.16000000000008
 31
0.0
  0
LINE
  5
23F
100
AcDbEntity
  8
0
 62
256
370
-1
 48
1.0
  6
ByLayer
100
AcDbLine
 10
-123.50833333333348
 20
-186.16000000000008
 30
0.0
 11
-122.48333333333345
 21
-186.16000000000005
 31
0.0
  0
ARC
  5
240
100
AcDbEntity
  8
0
 62
256
370
-1
 48
1.0
  6
ByLayer
100
AcDbCircle
 10
-122.23333333333346
 20
-186.16
 30
0.0
 40
0.2499999999999929
100
AcDbArc
 50
270.00000000001302
 51
180.0
  0
LINE
  5
241
100
AcDbEntity
  8
0
 62
256
370
-1
 48
1.0
  6
ByLayer
100
AcDbLine
 10
-122.23333333333341
 20
-186.41
 30
0.0
 11
-122.23333333333342
 21
-188.41000000000003
 31
0.0
  0
ARC
  5
242
100
AcDbEntity
  8
0
 62
256
370
-1
 48
1.0
  6
ByLayer
100
AcDbCircle
 10
-122.23333333333342
 20
-188.66000000000003
 30
0.0
 40
0.25
100
AcDbArc
 50
180.0
 51
90.0
  0
LINE
  5
243
100
AcDbEntity
  8
0
 62
256
370
-1
 48
1.0
  6
ByLayer
100
AcDbLine
 10
-122.48333333333342
 20
-188.66000000000003
 30
0.0
 11
-123.50833333333348
 21
-188.66000000000008
 31
0.0
  0
LINE
  5
244
100
AcDbEntity
  8
0
 62
256
370
-1
 48
1.0
  6
ByLayer
100
AcDbLine
 10
-123.50833333333348
 20
-188.66000000000008
 30
0.0
 11
-123.50833333333348
 21
-193.44000000000008
 31
0.0
  0
LINE
  5
245
100
AcDbEntity
  8
0
 62
256
370
-1
 48
1.0
  6
ByLayer
100
AcDbLine
 10
-123.50833333333348
 20
-193.44000000000008
 30
0.0
 11
-105.33333333333346
 21
-193.44000000000005
 31
0.0
  0
LINE
  5
246
100
AcDbEntity
  8
0
 62
256
370
-1
 48
1.0
  6
ByLayer
100
AcDbLine
 10
-105.33333333333346
 20
-193.44000000000005
 30
0.0
 11
-105.33333333333344
 21
-200.16000000000008
 31
0.0
  0
LINE
  5
247
100
AcDbEntity
  8
0
 62
256
370
-1
 48
1.0
  6
ByLayer
100
AcDbLine
 10
-105.33333333333344
 20
-200.16000000000008
 30
0.0
 11
35.219999999999814
 21
-200.15999999999997
 31
0.0
  0
LINE
  5
248
100
AcDbEntity
  8
0
 62
256
370
-1
 48
1.0
  6
ByLayer
100
AcDbLine
 10
-18.666666666666828
 20
-200.16000000000017
 30
0.0
 11
-18.666666666666799
 21
-193.44000000000014
 31
0.0
  0
LINE
  5
249
100
AcDbEntity
  8
0
 62
256
370
-1
 48
1.0
  6
ByLayer
100
AcDbLine
 10
-18.666666666666799
 20
-193.44000000000014
 30
0.0
 11
-0.4916666666667311
 21
-193.44000000000011
 31
0.0
  0
LINE
  5
24A
100
AcDbEntity
  8
0
 62
256
370
-1
 48
1.0
  6
ByLayer
100
AcDbLine
 10
-0.4916666666667311
 20
-193.44000000000011
 30
0.0
 11
-0.4916666666666743
 21
-188.65999999999997
 31
0.0
  0
LINE
  5
24B
100
AcDbEntity
  8
0
 62
256
370
-1
 48
1.0
  6
ByLayer
100
AcDbLine
 10
-0.4916666666666743
 20
-188.65999999999997
 30
0.0
 11
-1.5166666666667368
 21
-188.66000000000005
 31
0.0
  0
ARC
  5
24C
100
AcDbEntity
  8
0
 62
256
370
-1
 48
1.0
  6
ByLayer
100
AcDbCircle
 10
-1.7666666666667368
 20
-188.66000000000008
 30
0.0
 40
0.25
100
AcDbArc
 50
90.000000000006509
 51
0.0
  0
LINE
  5
24D
100
AcDbEntity
  8
0
 62
256
370
-1
 48
1.0
  6
ByLayer
100
AcDbLine
 10
-1.7666666666667652
 20
-188.41000000000008
 30
0.0
 11
-1.7666666666667368
 21
-186.41000000000003
 31
0.0
  0
ARC
  5
24E
100
AcDbEntity
  8
0
 62
256
370
-1
 48
1.0
  6
ByLayer
100
AcDbCircle
 10
-1.7666666666667084
 20
-186.16000000000003
 30
0.0
 40
0.25
100
AcDbArc
 50
360.0
 51
269.99999999999346
  0
LINE
  5
24F
100
AcDbEntity
  8
0
 62
256
370
-1
 48
1.0
  6
ByLayer
100
AcDbLine
 10
-1.5166666666667084
 20
-186.16000000000005
 30
0.0
 11
-0.4916666666667311
 21
-186.16000000000005
 31
0.0
  0
LINE
  5
250
100
AcDbEntity
  8
0
 62
256
370
-1
 48
1.0
  6
ByLayer
100
AcDbLine
 10
-0.4916666666667311
 20
-186.16000000000005
 30
0.0
 11
-0.4916666666667595
 21
-185.16000000000011
 31
0.0
  0
LINE
  5
251
100
AcDbEntity
  8
0
 62
256
370
-1
 48
1.0
  6
ByLayer
100
AcDbLine
 10
-0.4916666666667595
 20
-185.16000000000011
 30
0.0
 11
2.6583333333332462
 21
-185.16000000000008
 31
0.0
  0
LINE
  5
252
100
AcDbEntity
  8
0
 62
256
370
-1
 48
1.0
  6
ByLayer
100
AcDbLine
 10
2.6583333333332462
 20
-185.16000000000008
 30
0.0
 11
2.6583333333332746
 21
-186.16000000000005
 31
0.0
  0
LINE
  5
253
100
AcDbEntity
  8
0
 62
256
370
-1
 48
1.0
  6
ByLayer
100
AcDbLine
 10
2.6583333333332746
 20
-186.16000000000005
 30
0.0
 11
3.6833333333332803
 21
-186.16
 31
0.0
  0
ARC
  5
254
100
AcDbEntity
  8
0
 62
256
370
-1
 48
1.0
  6
ByLayer
100
AcDbCircle
 10
3.9333333333333087
 20
-186.16000000000008
 30
0.0
 40
0.2500000000000284
100
AcDbArc
 50
269.99999999998045
 51
180.0
  0
LINE
  5
255
100
AcDbEntity
  8
0
 62
256
370
-1
 48
1.0
  6
ByLayer
100
AcDbLine
 10
3.9333333333332234
 20
-186.41000000000011
 30
0.0
 11
3.9333333333332803
 21
-188.41
 31
0.0
  0
ARC
  5
256
100
AcDbEntity
  8
0
 62
256
370
-1
 48
1.0
  6
ByLayer
100
AcDbCircle
 10
3.9333333333333229
 20
-188.66000000000011
 30
0.0
 40
0.2500000000000995
100
AcDbArc
 50
180.0
 51
90.000000000009777
  0
LINE
  5
257
100
AcDbEntity
  8
0
 62
256
370
-1
 48
1.0
  6
ByLayer
100
AcDbLine
 10
3.6833333333332234
 20
-188.66000000000014
 30
0.0
 11
2.6583333333332462
 21
-188.66000000000014
 31
0.0
  0
LINE
  5
258
100
AcDbEntity
  8
0
 62
256
370
-1
 48
1.0
  6
ByLayer
100
AcDbLine
 10
2.6583333333332462
 20
-188.66000000000014
 30
0.0
 11
2.6583333333332746
 21
-193.44000000000005
 31
0.0
  0
LINE
  5
259
100
AcDbEntity
  8
0
 62
256
370
-1
 48
1.0
  6
ByLayer
100
AcDbLine
 10
2.6583333333332746
 20
-193.44000000000005
 30
0.0
 11
46.674999999999898
 21
-193.44000000000011
 31
0.0
  0
LINE
  5
25A
100
AcDbEntity
  8
0
 62
256
370
-1
 48
1.0
  6
ByLayer
100
AcDbLine
 10
46.674999999999898
 20
-193.44000000000011
 30
0.0
 11
46.674999999999926
 21
-188.6600000000002
 31
0.0
  0
LINE
  5
25B
100
AcDbEntity
  8
0
 62
256
370
-1
 48
1.0
  6
ByLayer
100
AcDbLine
 10
46.674999999999926
 20
-188.6600000000002
 30
0.0
 11
45.64999999999992
 21
-188.66000000000003
 31
0.0
  0
ARC
  5
25C
100
AcDbEntity
  8
0
 62
256
370
-1
 48
1.0
  6
ByLayer
100
AcDbCircle
 10
45.399999999999963
 20
-188.6600000000002
 30
0.0
 40
0.2499999999999573
100
AcDbArc
 50
90.000000000035826
 51
0.0
  0
LINE
  5
25D
100
AcDbEntity
  8
0
 62
256
370
-1
 48
1.0
  6
ByLayer
100
AcDbLine
 10
45.399999999999807
 20
-188.41000000000022
 30
0.0
 11
45.399999999999835
 21
-186.4100000000002
 31
0.0
  0
ARC
  5
25E
100
AcDbEntity
  8
0
 62
256
370
-1
 48
1.0
  6
ByLayer
100
AcDbCircle
 10
45.399999999999793
 20
-186.16000000000011
 30
0.0
 40
0.2500000000000995
100
AcDbArc
 50
0.0
 51
270.00000000000978
  0
LINE
  5
25F
100
AcDbEntity
  8
0
 62
256
370
-1
 48
1.0
  6
ByLayer
100
AcDbLine
 10
45.649999999999892
 20
-186.16000000000005
 30
0.0
 11
46.674999999999926
 21
-186.15999999999994
 31
0.0
  0
LINE
  5
260
100
AcDbEntity
  8
0
 62
256
370
-1
 48
1.0
  6
ByLayer
100
AcDbLine
 10
46.674999999999926
 20
-186.15999999999994
 30
0.0
 11
46.674999999999926
 21
-185.16000000000005
 31
0.0
  0
LINE
  5
261
100
AcDbEntity
  8
0
 62
256
370
-1
 48
1.0
  6
ByLayer
100
AcDbLine
 10
46.674999999999926
 20
-185.16000000000005
 30
0.0
 11
49.824999999999903
 21
-185.16000000000017
 31
0.0
  0
LINE
  5
262
100
AcDbEntity
  8
0
 62
256
370
-1
 48
1.0
  6
ByLayer
100
AcDbLine
 10
49.824999999999903
 20
-185.16000000000017
 30
0.0
 11
49.824999999999903
 21
-186.16000000000003
 31
0.0
  0
LINE
  5
263
100
AcDbEntity
  8
0
 62
256
370
-1
 48
1.0
  6
ByLayer
100
AcDbLine
 10
49.824999999999903
 20
-186.16000000000003
 30
0.0
 11
50.849999999999824
 21
-186.16000000000011
 31
0.0
  0
ARC
  5
264
100
AcDbEntity
  8
0
 62
256
370
-1
 48
1.0
  6
ByLayer
100
AcDbCircle
 10
51.099999999999781
 20
-186.15999999999997
 30
0.0
 40
0.2499999999999573
100
AcDbArc
 50
270.00000000003581
 51
180.0
  0
LINE
  5
265
100
AcDbEntity
  8
0
 62
256
370
-1
 48
1.0
  6
ByLayer
100
AcDbLine
 10
51.099999999999937
 20
-186.40999999999991
 30
0.0
 11
51.099999999999881
 21
-188.41000000000011
 31
0.0
  0
ARC
  5
266
100
AcDbEntity
  8
0
 62
256
370
-1
 48
1.0
  6
ByLayer
100
AcDbCircle
 10
51.099999999999866
 20
-188.66000000000017
 30
0.0
 40
0.2500000000000426
100
AcDbArc
 50
180.0
 51
89.999999999996746
  0
LINE
  5
267
100
AcDbEntity
  8
0
 62
256
370
-1
 48
1.0
  6
ByLayer
100
AcDbLine
 10
50.849999999999824
 20
-188.66000000000014
 30
0.0
 11
49.824999999999903
 21
-188.66000000000003
 31
0.0
  0
LINE
  5
268
100
AcDbEntity
  8
0
 62
256
370
-1
 48
1.0
  6
ByLayer
100
AcDbLine
 10
49.824999999999903
 20
-188.66000000000003
 30
0.0
 11
49.824999999999903
 21
-193.44
 31
0.0
  0
LINE
  5
269
100
AcDbEntity
  8
0
 62
256
370
-1
 48
1.0
  6
ByLayer
100
AcDbLine
 10
49.824999999999903
 20
-193.44
 30
0.0
 11
72.095000000000155
 21
-193.44000000000005
 31
0.0
  0
LINE
  5
26A
100
AcDbEntity
  8
0
 62
256
370
-1
 48
1.0
  6
ByLayer
100
AcDbLine
 10
67.999999999999915
 20
-193.44000000000005
 30
0.0
 11
67.999999999999858
 21
-170.62666666666695
 31
0.0
  0
LINE
  5
26B
100
AcDbEntity
  8
0
 62
256
370
-1
 48
1.0
  6
ByLayer
100
AcDbLine
 10
67.999999999999858
 20
-170.62666666666695
 30
0.0
 11
61.279999999999887
 21
-170.62666666666667
 31
0.0
  0
LINE
  5
26C
100
AcDbEntity
  8
0
 62
256
370
-1
 48
1.0
  6
ByLayer
100
AcDbLine
 10
61.279999999999887
 20
-170.62666666666667
 30
0.0
 11
61.279999999999887
 21
-160.79500000000002
 31
0.0
  0
LINE
  5
26D
100
AcDbEntity
  8
0
 62
256
370
-1
 48
1.0
  6
ByLayer
100
AcDbLine
 10
61.279999999999887
 20
-160.79500000000002
 30
0.0
 11
56.499999999999915
 21
-160.79500000000002
 31
0.0
  0
LINE
  5
26E
100
AcDbEntity
  8
0
 62
256
370
-1
 48
1.0
  6
ByLayer
100
AcDbLine
 10
56.499999999999915
 20
-160.79500000000002
 30
0.0
 11
56.499999999999915
 21
-161.82000000000011
 31
0.0
  0
ARC
  5
26F
100
AcDbEntity
  8
0
 62
256
370
-1
 48
1.0
  6
ByLayer
100
AcDbCircle
 10
56.499999999999886
 20
-162.07000000000002
 30
0.0
 40
0.2499999999999431
100
AcDbArc
 50
180.0
 51
89.999999999993491
  0
LINE
  5
270
100
AcDbEntity
  8
0
 62
256
370
-1
 48
1.0
  6
ByLayer
100
AcDbLine
 10
56.249999999999943
 20
-162.07000000000002
 30
0.0
 11
54.249999999999886
 21
-162.07000000000019
 31
0.0
  0
ARC
  5
271
100
AcDbEntity
  8
0
 62
256
370
-1
 48
1.0
  6
ByLayer
100
AcDbCircle
 10
53.999999999999815
 20
-162.07000000000008
 30
0.0
 40
0.2500000000000711
100
AcDbArc
 50
89.999999999970683
 51
360.0
  0
LINE
  5
272
100
AcDbEntity
  8
0
 62
256
370
-1
 48
1.0
  6
ByLayer
100
AcDbLine
 10
53.999999999999943
 20
-161.81999999999999
 30
0.0
 11
53.999999999999915
 21
-160.79499999999999
 31
0.0
  0
LINE
  5
273
100
AcDbEntity
  8
0
 62
256
370
-1
 48
1.0
  6
ByLayer
100
AcDbLine
 10
53.999999999999915
 20
-160.79499999999999
 30
0.0
 11
52.999999999999915
 21
-160.7949999999999
 31
0.0
  0
LINE
  5
274
100
AcDbEntity
  8
0
 62
256
370
-1
 48
1.0
  6
ByLayer
100
AcDbLine
 10
52.999999999999915
 20
-160.7949999999999
 30
0.0
 11
52.999999999999915
 21
-157.64500000000012
 31
0.0
  0
LINE
  5
275
100
AcDbEntity
  8
0
 62
256
370
-1
 48
1.0
  6
ByLayer
100
AcDbLine
 10
52.999999999999915
 20
-157.64500000000012
 30
0.0
 11
53.999999999999915
 21
-157.64500000000015
 31
0.0
  0
LINE
  5
276
100
AcDbEntity
  8
0
 62
256
370
-1
 48
1.0
  6
ByLayer
100
AcDbLine
 10
53.999999999999915
 20
-157.64500000000015
 30
0.0
 11
53.999999999999915
 21
-156.62000000000029
 31
0.0
  0
ARC
  5
277
100
AcDbEntity
  8
0
 62
256
370
-1
 48
1.0
  6
ByLayer
100
AcDbCircle
 10
53.999999999999801
 20
-156.37000000000018
 30
0.0
 40
0.2500000000001137
100
AcDbArc
 50
0.0
 51
270.00000000002603
  0
LINE
  5
278
100
AcDbEntity
  8
0
 62
256
370
-1
 48
1.0
  6
ByLayer
100
AcDbLine
 10
54.249999999999915
 20
-156.37000000000006
 30
0.0
 11
56.249999999999915
 21
-156.37000000000018
 31
0.0
  0
ARC
  5
279
100
AcDbEntity
  8
0
 62
256
370
-1
 48
1.0
  6
ByLayer
100
AcDbCircle
 10
56.499999999999815
 20
-156.37000000000006
 30
0.0
 40
0.2499999999999003
100
AcDbArc
 50
270.00000000002279
 51
180.0
  0
LINE
  5
27A
100
AcDbEntity
  8
0
 62
256
370
-1
 48
1.0
  6
ByLayer
100
AcDbLine
 10
56.499999999999915
 20
-156.61999999999998
 30
0.0
 11
56.499999999999886
 21
-157.6450000000001
 31
0.0
  0
LINE
  5
27B
100
AcDbEntity
  8
0
 62
256
370
-1
 48
1.0
  6
ByLayer
100
AcDbLine
 10
56.499999999999886
 20
-157.6450000000001
 30
0.0
 11
61.279999999999887
 21
-157.64499999999998
 31
0.0
  0
LINE
  5
27C
100
AcDbEntity
  8
0
 62
256
370
-1
 48
1.0
  6
ByLayer
100
AcDbLine
 10
61.279999999999887
 20
-157.64499999999998
 30
0.0
 11
61.279999999999859
 21
-147.81333333333336
 31
0.0
  0
LINE
  5
27D
100
AcDbEntity
  8
0
 62
256
370
-1
 48
1.0
  6
ByLayer
100
AcDbLine
 10
61.279999999999859
 20
-147.81333333333336
 30
0.0
 11
67.999999999999915
 21
-147.81333333333342
 31
0.0
  0
LINE
  5
27E
100
AcDbEntity
  8
0
 62
256
370
-1
 48
1.0
  6
ByLayer
100
AcDbLine
 10
67.999999999999915
 20
-147.81333333333342
 30
0.0
 11
67.999999999999915
 21
-125.00000000000006
 31
0.0
  0
LINE
  5
27F
100
AcDbEntity
  8
0
 62
256
370
-1
 48
1.0
  6
ByLayer
100
AcDbLine
 10
67.999999999999915
 20
-125.00000000000006
 30
0.0
 11
-18.666666666666771
 21
-125.00000000000004
 31
0.0
  0
LINE
  5
280
100
AcDbEntity
  8
0
 62
256
370
-1
 48
1.0
  6
ByLayer
100
AcDbLine
 10
49.824999999999903
 20
-125.00000000000006
 30
0.0
 11
49.824999999999903
 21
-129.77999999999983
 31
0.0
  0
LINE
  5
281
100
AcDbEntity
  8
0
 62
256
370
-1
 48
1.0
  6
ByLayer
100
AcDbLine
 10
49.824999999999903
 20
-129.77999999999983
 30
0.0
 11
50.849999999999824
 21
-129.77999999999921
 31
0.0
  0
ARC
  5
282
100
AcDbEntity
  8
0
 62
256
370
-1
 48
1.0
  6
ByLayer
100
AcDbCircle
 10
51.100000000000165
 20
-129.77999999999949
 30
0.0
 40
0.250000000000341
100
AcDbArc
 50
269.99999999994145
 51
180.0
  0
LINE
  5
283
100
AcDbEntity
  8
0
 62
256
370
-1
 48
1.0
  6
ByLayer
100
AcDbLine
 10
51.099999999999909
 20
-130.0299999999998
 30
0.0
 11
51.099999999999909
 21
-132.03000000000006
 31
0.0
  0
ARC
  5
284
100
AcDbEntity
  8
0
 62
256
370
-1
 48
1.0
  6
ByLayer
100
AcDbCircle
 10
51.099999999999611
 20
-132.27999999999986
 30
0.0
 40
0.2499999999997868
100
AcDbArc
 50
180.0
 51
89.999999999931603
  0
LINE
  5
285
100
AcDbEntity
  8
0
 62
256
370
-1
 48
1.0
  6
ByLayer
100
AcDbLine
 10
50.849999999999824
 20
-132.27999999999955
 30
0.0
 11
49.824999999999903
 21
-132.27999999999994
 31
0.0
  0
LINE
  5
286
100
AcDbEntity
  8
0
 62
256
370
-1
 48
1.0
  6
ByLayer
100
AcDbLine
 10
49.824999999999903
 20
-132.27999999999994
 30
0.0
 11
49.824999999999903
 21
-133.27999999999972
 31
0.0
  0
LINE
  5
287
100
AcDbEntity
  8
0
 62
256
370
-1
 48
1.0
  6
ByLayer
100
AcDbLine
 10
49.824999999999903
 20
-133.27999999999972
 30
0.0
 11
46.674999999999926
 21
-133.28000000000037
 31
0.0
  0
LINE
  5
288
100
AcDbEntity
  8
0
 62
256
370
-1
 48
1.0
  6
ByLayer
100
AcDbLine
 10
46.674999999999926
 20
-133.28000000000037
 30
0.0
 11
46.674999999999926
 21
-132.27999999999986
 31
0.0
  0
LINE
  5
289
100
AcDbEntity
  8
0
 62
256
370
-1
 48
1.0
  6
ByLayer
100
AcDbLine
 10
46.674999999999926
 20
-132.27999999999986
 30
0.0
 11
45.64999999999992
 21
-132.27999999999994
 31
0.0
  0
ARC
  5
28A
100
AcDbEntity
  8
0
 62
256
370
-1
 48
1.0
  6
ByLayer
100
AcDbCircle
 10
45.399999999999991
 20
-132.28000000000009
 30
0.0
 40
0.2499999999999289
100
AcDbArc
 50
90.000000000035826
 51
0.0
  0
LINE
  5
28B
100
AcDbEntity
  8
0
 62
256
370
-1
 48
1.0
  6
ByLayer
100
AcDbLine
 10
45.399999999999835
 20
-132.03000000000017
 30
0.0
 11
45.399999999999835
 21
-130.03000000000074
 31
0.0
  0
ARC
  5
28C
100
AcDbEntity
  8
0
 62
256
370
-1
 48
1.0
  6
ByLayer
100
AcDbCircle
 10
45.399999999999665
 20
-129.78000000000048
 30
0.0
 40
0.2500000000002558
100
AcDbArc
 50
0.0
 51
270.00000000003911
  0
LINE
  5
28D
100
AcDbEntity
  8
0
 62
256
370
-1
 48
1.0
  6
ByLayer
100
AcDbLine
 10
45.64999999999992
 20
-129.78000000000031
 30
0.0
 11
46.674999999999926
 21
-129.78000000000029
 31
0.0
  0
LINE
  5
28E
100
AcDbEntity
  8
0
 62
256
370
-1
 48
1.0
  6
ByLayer
100
AcDbLine
 10
46.674999999999926
 20
-129.78000000000029
 30
0.0
 11
46.674999999999926
 21
-125.00000000000006
 31
0.0
  0
LINE
  5
28F
100
AcDbEntity
  8
0
 62
256
370
-1
 48
1.0
  6
ByLayer
100
AcDbLine
 10
2.6583333333332746
 20
-125.00000000000004
 30
0.0
 11
2.6583333333332746
 21
-129.78000000000014
 31
0.0
  0
LINE
  5
290
100
AcDbEntity
  8
0
 62
256
370
-1
 48
1.0
  6
ByLayer
100
AcDbLine
 10
2.6583333333332746
 20
-129.78000000000014
 30
0.0
 11
3.6833333333332519
 21
-129.77999999999943
 31
0.0
  0
ARC
  5
291
100
AcDbEntity
  8
0
 62
256
370
-1
 48
1.0
  6
ByLayer
100
AcDbCircle
 10
3.9333333333335219
 20
-129.77999999999969
 30
0.0
 40
0.25000000000027
100
AcDbArc
 50
269.99999999993815
 51
180.0
  0
LINE
  5
292
100
AcDbEntity
  8
0
 62
256
370
-1
 48
1.0
  6
ByLayer
100
AcDbLine
 10
3.9333333333332519
 20
-130.02999999999997
 30
0.0
 11
3.9333333333332519
 21
-132.0299999999998
 31
0.0
  0
ARC
  5
293
100
AcDbEntity
  8
0
 62
256
370
-1
 48
1.0
  6
ByLayer
100
AcDbCircle
 10
3.9333333333333371
 20
-132.27999999999989
 30
0.0
 40
0.2500000000000853
100
AcDbArc
 50
180.0
 51
90.00000000001954
  0
LINE
  5
294
100
AcDbEntity
  8
0
 62
256
370
-1
 48
1.0
  6
ByLayer
100
AcDbLine
 10
3.6833333333332519
 20
-132.27999999999997
 30
0.0
 11
2.6583333333332746
 21
-132.27999999999997
 31
0.0
  0
LINE
  5
295
100
AcDbEntity
  8
0
 62
256
370
-1
 48
1.0
  6
ByLayer
100
AcDbLine
 10
2.6583333333332746
 20
-132.27999999999997
 30
0.0
 11
2.6583333333332746
 21
-133.28000000000023
 31
0.0
  0
LINE
  5
296
100
AcDbEntity
  8
0
 62
256
370
-1
 48
1.0
  6
ByLayer
100
AcDbLine
 10
2.6583333333332746
 20
-133.28000000000023
 30
0.0
 11
-0.4916666666667027
 21
-133.28000000000009
 31
0.0
  0
LINE
  5
297
100
AcDbEntity
  8
0
 62
256
370
-1
 48
1.0
  6
ByLayer
100
AcDbLine
 10
-0.4916666666667027
 20
-133.28000000000009
 30
0.0
 11
-0.4916666666667027
 21
-132.27999999999949
 31
0.0
  0
LINE
  5
298
100
AcDbEntity
  8
0
 62
256
370
-1
 48
1.0
  6
ByLayer
100
AcDbLine
 10
-0.4916666666667027
 20
-132.27999999999949
 30
0.0
 11
-1.5166666666667368
 21
-132.27999999999983
 31
0.0
  0
ARC
  5
299
100
AcDbEntity
  8
0
 62
256
370
-1
 48
1.0
  6
ByLayer
100
AcDbCircle
 10
-1.7666666666668505
 20
-132.27999999999972
 30
0.0
 40
0.2500000000001137
100
AcDbArc
 50
89.999999999973937
 51
360.0
  0
LINE
  5
29A
100
AcDbEntity
  8
0
 62
256
370
-1
 48
1.0
  6
ByLayer
100
AcDbLine
 10
-1.7666666666667368
 20
-132.0299999999996
 30
0.0
 11
-1.7666666666667368
 21
-130.02999999999969
 31
0.0
  0
ARC
  5
29B
100
AcDbEntity
  8
0
 62
256
370
-1
 48
1.0
  6
ByLayer
100
AcDbCircle
 10
-1.7666666666661683
 20
-129.78000000000026
 30
0.0
 40
0.2499999999994315
100
AcDbArc
 50
360.0
 51
269.99999999986977
  0
LINE
  5
29C
100
AcDbEntity
  8
0
 62
256
370
-1
 48
1.0
  6
ByLayer
100
AcDbLine
 10
-1.5166666666667368
 20
-129.78000000000083
 30
0.0
 11
-0.4916666666667027
 21
-129.78000000000006
 31
0.0
  0
LINE
  5
29D
100
AcDbEntity
  8
0
 62
256
370
-1
 48
1.0
  6
ByLayer
100
AcDbLine
 10
-0.4916666666667027
 20
-129.78000000000006
 30
0.0
 11
-0.4916666666667027
 21
-125.00000000000004
 31
0.0
  0
LINE
  5
29E
100
AcDbEntity
  8
0
 62
256
370
-1
 48
1.0
  6
ByLayer
100
AcDbLine
 10
-18.666666666666771
 20
-125.00000000000004
 30
0.0
 11
-18.666666666666771
 21
-118.28000000000004
 31
0.0
  0
LINE
  5
29F
100
AcDbEntity
  8
0
 62
256
370
-1
 48
1.0
  6
ByLayer
100
AcDbLine
 10
-123.50833333333345
 20
-125.00000000000001
 30
0.0
 11
-123.50833333333345
 21
-129.77999999999997
 31
0.0
  0
LINE
  5
2A0
100
AcDbEntity
  8
0
 62
256
370
-1
 48
1.0
  6
ByLayer
100
AcDbLine
 10
-123.50833333333345
 20
-129.77999999999997
 30
0.0
 11
-122.48333333333343
 21
-129.77999999999992
 31
0.0
  0
ARC
  5
2A1
100
AcDbEntity
  8
0
 62
256
370
-1
 48
1.0
  6
ByLayer
100
AcDbCircle
 10
-122.23333333333341
 20
-129.77999999999994
 30
0.0
 40
0.2500000000000284
100
AcDbArc
 50
269.99999999999346
 51
180.0
  0
LINE
  5
2A2
100
AcDbEntity
  8
0
 62
256
370
-1
 48
1.0
  6
ByLayer
100
AcDbLine
 10
-122.23333333333343
 20
-130.02999999999997
 30
0.0
 11
-122.23333333333343
 21
-132.02999999999989
 31
0.0
  0
ARC
  5
2A3
100
AcDbEntity
  8
0
 62
256
370
-1
 48
1.0
  6
ByLayer
100
AcDbCircle
 10
-122.23333333333341
 20
-132.27999999999992
 30
0.0
 40
0.2500000000000284
100
AcDbArc
 50
180.0
 51
90.000000000006509
  0
LINE
  5
2A4
100
AcDbEntity
  8
0
 62
256
370
-1
 48
1.0
  6
ByLayer
100
AcDbLine
 10
-122.48333333333343
 20
-132.27999999999994
 30
0.0
 11
-123.50833333333345
 21
-132.28000000000003
 31
0.0
  0
LINE
  5
2A5
100
AcDbEntity
  8
0
 62
256
370
-1
 48
1.0
  6
ByLayer
100
AcDbLine
 10
-123.50833333333345
 20
-132.28000000000003
 30
0.0
 11
-123.50833333333345
 21
-133.28000000000003
 31
0.0
  0
LINE
  5
2A6
100
AcDbEntity
  8
0
 62
256
370
-1
 48
1.0
  6
ByLayer
100
AcDbLine
 10
-123.50833333333345
 20
-133.28000000000003
 30
0.0
 11
-126.65833333333343
 21
-133.27999999999994
 31
0.0
  0
LINE
  5
2A7
100
AcDbEntity
  8
0
 62
256
370
-1
 48
1.0
  6
ByLayer
100
AcDbLine
 10
-126.65833333333343
 20
-133.27999999999994
 30
0.0
 11
-126.65833333333343
 21
-132.28000000000006
 31
0.0
  0
LINE
  5
2A8
100
AcDbEntity
  8
0
 62
256
370
-1
 48
1.0
  6
ByLayer
100
AcDbLine
 10
-126.65833333333343
 20
-132.28000000000006
 30
0.0
 11
-127.68333333333344
 21
-132.27999999999994
 31
0.0
  0
ARC
  5
2A9
100
AcDbEntity
  8
0
 62
256
370
-1
 48
1.0
  6
ByLayer
100
AcDbCircle
 10
-127.93333333333335
 20
-132.28000000000003
 30
0.0
 40
0.2499999999999147
100
AcDbArc
 50
90.00000000001954
 51
0.0
  0
LINE
  5
2AA
100
AcDbEntity
  8
0
 62
256
370
-1
 48
1.0
  6
ByLayer
100
AcDbLine
 10
-127.93333333333344
 20
-132.03000000000011
 30
0.0
 11
-127.93333333333344
 21
-130.03
 31
0.0
  0
ARC
  5
2AB
100
AcDbEntity
  8
0
 62
256
370
-1
 48
1.0
  6
ByLayer
100
AcDbCircle
 10
-127.93333333333348
 20
-129.77999999999997
 30
0.0
 40
0.2500000000000426
100
AcDbArc
 50
0.0
 51
270.00000000000978
  0
LINE
  5
2AC
100
AcDbEntity
  8
0
 62
256
370
-1
 48
1.0
  6
ByLayer
100
AcDbLine
 10
-127.68333333333344
 20
-129.77999999999992
 30
0.0
 11
-126.65833333333343
 21
-129.77999999999994
 31
0.0
  0
LINE
  5
2AD
100
AcDbEntity
  8
0
 62
256
370
-1
 48
1.0
  6
ByLayer
100
AcDbLine
 10
-126.65833333333343
 20
-129.77999999999994
 30
0.0
 11
-126.65833333333343
 21
-125.00000000000001
 31
0.0
  0
LINE
  5
2AE
100
AcDbEntity
  8
0
 62
256
370
-1
 48
1.0
  6
ByLayer
100
AcDbLine
 10
-170.67500000000007
 20
-125.0
 30
0.0
 11
-170.67500000000007
 21
-129.78
 31
0.0
  0
LINE
  5
2AF
100
AcDbEntity
  8
0
 62
256
370
-1
 48
1.0
  6
ByLayer
100
AcDbLine
 10
-170.67500000000007
 20
-129.78
 30
0.0
 11
-169.65000000000009
 21
-129.78
 31
0.0
  0
ARC
  5
2B0
100
AcDbEntity
  8
0
 62
256
370
-1
 48
1.0
  6
ByLayer
100
AcDbCircle
 10
-169.40000000000003
 20
-129.77999999999994
 30
0.0
 40
0.2500000000000568
100
AcDbArc
 50
270.00000000001302
 51
180.0
  0
LINE
  5
2B1
100
AcDbEntity
  8
0
 62
256
370
-1
 48
1.0
  6
ByLayer
100
AcDbLine
 10
-169.39999999999998
 20
-130.03
 30
0.0
 11
-169.39999999999998
 21
-132.03
 31
0.0
  0
ARC
  5
2B2
100
AcDbEntity
  8
0
 62
256
370
-1
 48
1.0
  6
ByLayer
100
AcDbCircle
 10
-169.40000000000003
 20
-132.28000000000006
 30
0.0
 40
0.2500000000000568
100
AcDbArc
 50
180.0
 51
89.999999999986969
  0
LINE
  5
2B3
100
AcDbEntity
  8
0
 62
256
370
-1
 48
1.0
  6
ByLayer
100
AcDbLine
 10
-169.65000000000009
 20
-132.28
 30
0.0
 11
-170.67500000000007
 21
-132.28
 31
0.0
  0
LINE
  5
2B4
100
AcDbEntity
  8
0
 62
256
370
-1
 48
1.0
  6
ByLayer
100
AcDbLine
 10
-170.67500000000007
 20
-132.28
 30
0.0
 11
-170.6750000000001
 21
-133.28
 31
0.0
  0
LINE
  5
2B5
100
AcDbEntity
  8
0
 62
256
370
-1
 48
1.0
  6
ByLayer
100
AcDbLine
 10
-170.6750000000001
 20
-133.28
 30
0.0
 11
-173.8250000000001
 21
-133.28
 31
0.0
  0
LINE
  5
2B6
100
AcDbEntity
  8
0
 62
256
370
-1
 48
1.0
  6
ByLayer
100
AcDbLine
 10
-173.8250000000001
 20
-133.28
 30
0.0
 11
-173.8250000000001
 21
-132.28
 31
0.0
  0
LINE
  5
2B7
100
AcDbEntity
  8
0
 62
256
370
-1
 48
1.0
  6
ByLayer
100
AcDbLine
 10
-173.8250000000001
 20
-132.28
 30
0.0
 11
-174.84999999999997
 21
-132.28
 31
0.0
  0
ARC
  5
2B8
100
AcDbEntity
  8
0
 62
256
370
-1
 48
1.0
  6
ByLayer
100
AcDbCircle
 10
-175.10000000000002
 20
-132.28000000000006
 30
0.0
 40
0.2500000000000568
100
AcDbArc
 50
90.000000000013031
 51
0.0
  0
LINE
  5
2B9
100
AcDbEntity
  8
0
 62
256
370
-1
 48
1.0
  6
ByLayer
100
AcDbLine
 10
-175.10000000000008
 20
-132.03
 30
0.0
 11
-175.10000000000008
 21
-130.03
 31
0.0
  0
ARC
  5
2BA
100
AcDbEntity
  8
0
 62
256
370
-1
 48
1.0
  6
ByLayer
100
AcDbCircle
 10
-175.10000000000002
 20
-129.78
 30
0.0
 40
0.2500000000000284
100
AcDbArc
 50
360.0
 51
269.99999999998698
  0
LINE
  5
2BB
100
AcDbEntity
  8
0
 62
256
370
-1
 48
1.0
  6
ByLayer
100
AcDbLine
 10
-174.84999999999999
 20
-129.78000000000003
 30
0.0
 11
-173.82500000000007
 21
-129.78
 31
0.0
  0
LINE
  5
2BC
100
AcDbEntity
  8
0
 62
256
370
-1
 48
1.0
  6
ByLayer
100
AcDbLine
 10
-173.82500000000007
 20
-129.78
 30
0.0
 11
-173.8250000000001
 21
-125.0
 31
0.0
  0
LINE
  5
2BD
100
AcDbEntity
  8
0
 62
256
370
-1
 48
1.0
  6
ByLayer
100
AcDbLine
 10
-105.33333333333343
 20
-125.0
 30
0.0
 11
-192.00000000000009
 21
-125.0
 31
0.0
  0
LINE
  5
2BE
100
AcDbEntity
  8
0
 62
256
370
-1
 48
1.0
  6
ByLayer
100
AcDbLine
 10
-192.00000000000009
 20
-125.0
 30
0.0
 11
-192.00000000000009
 21
-147.81333333333328
 31
0.0
  0
LINE
  5
2BF
100
AcDbEntity
  8
0
 62
256
370
-1
 48
1.0
  6
ByLayer
100
AcDbLine
 10
-192.00000000000009
 20
-147.81333333333328
 30
0.0
 11
-185.28000000000009
 21
-147.8133333333333
 31
0.0
  0
LINE
  5
2C0
100
AcDbEntity
  8
0
 62
256
370
-1
 48
1.0
  6
ByLayer
100
AcDbLine
 10
-185.28000000000009
 20
-147.8133333333333
 30
0.0
 11
-185.28000000000011
 21
-157.64500000000004
 31
0.0
  0
CIRCLE
  5
2C1
100
AcDbEntity
  8
0
 62
256
370
-1
 48
1.0
  6
ByLayer
100
AcDbCircle
 10
-149.14000000000013
 20
-182.0333333333333
 30
0.0
 40
1.5750000000000011
  0
CIRCLE
  5
2C2
100
AcDbEntity
  8
0
 62
256
370
-1
 48
1.0
  6
ByLayer
100
AcDbCircle
 10
-149.1400000000001
 20
-136.40666666666664
 30
0.0
 40
1.5750000000000011
  0
CIRCLE
  5
2C3
100
AcDbEntity
  8
0
 62
256
370
-1
 48
1.0
  6
ByLayer
100
AcDbCircle
 10
25.13999999999993
 20
-182.03333333333336
 30
0.0
 40
1.5750000000000011
  0
CIRCLE
  5
2C4
100
AcDbEntity
  8
0
 62
256
370
-1
 48
1.0
  6
ByLayer
100
AcDbCircle
 10
25.13999999999993
 20
-136.40666666666681
 30
0.0
 40
1.5750000000000011
  0
LINE
  5
2C5
100
AcDbEntity
  8
0
 62
256
370
-1
 48
1.0
  6
ByLayer
100
AcDbLine
 10
-96.220000000000184
 20
142.89999999999998
 30
0.0
 11
-152.50000000000006
 21
142.90000000000003
 31
0.0
  0
LINE
  5
2C6
100
AcDbEntity
  8
0
 62
256
370
-1
 48
1.0
  6
ByLayer
100
AcDbLine
 10
-152.50000000000003
 20
355.5
 30
0.0
 11
28.499999999999972
 21
355.49999999999994
 31
0.0
  0
LINE
  5
2C7
100
AcDbEntity
  8
0
 62
256
370
-1
 48
1.0
  6
ByLayer
100
AcDbLine
 10
28.5
 20
142.90000000000001
 30
0.0
 11
-27.780000000000101
 21
142.89999999999998
 31
0.0
  0
LINE
  5
2C8
100
AcDbEntity
  8
0
 62
256
370
-1
 48
1.0
  6
ByLayer
100
AcDbLine
 10
-27.780000000000015
 20
136.18000000000001
 30
0.0
 11
-96.21999999999997
 21
136.18000000000004
 31
0.0
  0
LINE
  5
2C9
100
AcDbEntity
  8
0
 62
256
370
-1
 48
1.0
  6
ByLayer
100
AcDbLine
 10
-96.21999999999997
 20
136.18000000000004
 30
0.0
 11
-96.220000000000184
 21
142.89999999999998
 31
0.0
  0
CIRCLE
  5
2CA
100
AcDbEntity
  8
0
 62
256
370
-1
 48
1.0
  6
ByLayer
100
AcDbCircle
 10
-1.6666666666666572
 20
291.22000000000003
 30
0.0
 40
1.5750000000000011
  0
CIRCLE
  5
2CB
100
AcDbEntity
  8
0
 62
256
370
-1
 48
1.0
  6
ByLayer
100
AcDbCircle
 10
-122.33333333333336
 20
291.21999999999997
 30
0.0
 40
1.5750000000000011
  0
CIRCLE
  5
2CC
100
AcDbEntity
  8
0
 62
256
370
-1
 48
1.0
  6
ByLayer
100
AcDbCircle
 10
-62.000000000000043
 20
139.54000000000002
 30
0.0
 40
1.5749999999999991
  0
CIRCLE
  5
2CD
100
AcDbEntity
  8
0
 62
256
370
-1
 48
1.0
  6
ByLayer
100
AcDbCircle
 10
-14.749999999999972
 20
330.90000000000003
 30
0.0
 40
1.575
  0
CIRCLE
  5
2CE
100
AcDbEntity
  8
0
 62
256
370
-1
 48
1.0
  6
ByLayer
100
AcDbCircle
 10
-33.749999999999957
 20
330.89999999999998
 30
0.0
 40
1.575
  0
LINE
  5
2CF
100
AcDbEntity
  8
0
 62
256
370
-1
 48
1.0
  6
ByLayer
100
AcDbLine
 10
-49.499999999999993
 20
27.425000000000125
 30
0.0
 11
-34.5
 21
27.425000000000125
 31
0.0
  0
LINE
  5
2D0
100
AcDbEntity
  8
0
 62
256
370
-1
 48
1.0
  6
ByLayer
100
AcDbLine
 10
-34.5
 20
27.425000000000125
 30
0.0
 11
-34.500000000000014
 21
14.535000000000139
 31
0.0
  0
LINE
  5
2D1
100
AcDbEntity
  8
0
 62
256
370
-1
 48
1.0
  6
ByLayer
100
AcDbLine
 10
-34.500000000000014
 20
14.535000000000139
 30
0.0
 11
-49.500000000000014
 21
14.535000000000139
 31
0.0
  0
LINE
  5
2D2
100
AcDbEntity
  8
0
 62
256
370
-1
 48
1.0
  6
ByLayer
100
AcDbLine
 10
-49.500000000000014
 20
14.535000000000139
 30
0.0
 11
-49.499999999999993
 21
27.425000000000125
 31
0.0
  0
LINE
  5
2D3
100
AcDbEntity
  8
0
 62
256
370
-1
 48
1.0
  6
ByLayer
100
AcDbLine
 10
-34.499999999999986
 20
43.74500000000009
 30
0.0
 11
-54.499999999999993
 21
43.74500000000009
 31
0.0
  0
LINE
  5
2D4
100
AcDbEntity
  8
0
 62
256
370
-1
 48
1.0
  6
ByLayer
100
AcDbLine
 10
-54.499999999999993
 20
43.74500000000009
 30
0.0
 11
-54.499999999999993
 21
59.175000000000068
 31
0.0
  0
LINE
  5
2D5
100
AcDbEntity
  8
0
 62
256
370
-1
 48
1.0
  6
ByLayer
100
AcDbLine
 10
-54.499999999999993
 20
59.175000000000068
 30
0.0
 11
-34.499999999999986
 21
59.175000000000068
 31
0.0
  0
LINE
  5
2D6
100
AcDbEntity
  8
0
 62
256
370
-1
 48
1.0
  6
ByLayer
100
AcDbLine
 10
-34.499999999999986
 20
59.175000000000068
 30
0.0
 11
-34.499999999999986
 21
43.74500000000009
 31
0.0
  0
LINE
  5
2D7
100
AcDbEntity
  8
0
 62
256
370
-1
 48
1.0
  6
ByLayer
100
AcDbLine
 10
-34.500000000000512
 20
84.700000000000074
 30
0.0
 11
-34.500000000000512
 21
69.700000000000074
 31
0.0
  0
LINE
  5
2D8
100
AcDbEntity
  8
0
 62
256
370
-1
 48
1.0
  6
ByLayer
100
AcDbLine
 10
-34.500000000000512
 20
69.700000000000074
 30
0.0
 11
-41.220000000000525
 21
69.700000000000074
 31
0.0
  0
LINE
  5
2D9
100
AcDbEntity
  8
0
 62
256
370
-1
 48
1.0
  6
ByLayer
100
AcDbLine
 10
-41.220000000000525
 20
69.700000000000074
 30
0.0
 11
-41.22000000000051
 21
84.700000000000074
 31
0.0
  0
LINE
  5
2DA
100
AcDbEntity
  8
0
 62
256
370
-1
 48
1.0
  6
ByLayer
100
AcDbLine
 10
-41.22000000000051
 20
84.700000000000074
 30
0.0
 11
-34.500000000000512
 21
84.700000000000074
 31
0.0
  0
LINE
  5
2DB
100
AcDbEntity
  8
0
 62
256
370
-1
 48
1.0
  6
ByLayer
100
AcDbLine
 10
-84.05999999999996
 20
136.18000000000009
 30
0.0
 11
-84.060000000000031
 21
-70.339999999999918
 31
0.0
  0
LINE
  5
2DC
100
AcDbEntity
  8
0
 62
256
370
-1
 48
1.0
  6
ByLayer
100
AcDbLine
 10
-84.060000000000031
 20
-70.339999999999918
 30
0.0
 11
-67.54000000000002
 21
-70.339999999999904
 31
0.0
  0
LINE
  5
2DD
100
AcDbEntity
  8
0
 62
256
370
-1
 48
1.0
  6
ByLayer
100
AcDbLine
 10
-67.54000000000002
 20
-70.339999999999904
 30
0.0
 11
-67.54000000000002
 21
-63.619999999999905
 31
0.0
  0
LINE
  5
2DE
100
AcDbEntity
  8
0
 62
256
370
-1
 48
1.0
  6
ByLayer
100
AcDbLine
 10
-67.54000000000002
 20
-63.619999999999905
 30
0.0
 11
-51.020000000000024
 21
-63.619999999999919
 31
0.0
  0
LINE
  5
2DF
100
AcDbEntity
  8
0
 62
256
370
-1
 48
1.0
  6
ByLayer
100
AcDbLine
 10
-51.020000000000024
 20
-63.619999999999919
 30
0.0
 11
-51.020000000000032
 21
-70.339999999999918
 31
0.0
  0
LINE
  5
2E0
100
AcDbEntity
  8
0
 62
256
370
-1
 48
1.0
  6
ByLayer
100
AcDbLine
 10
-51.020000000000032
 20
-70.339999999999918
 30
0.0
 11
-27.780000000000001
 21
-70.339999999999918
 31
0.0
  0
CIRCLE
  5
2E1
100
AcDbEntity
  8
0
 62
256
370
-1
 48
1.0
  6
ByLayer
100
AcDbCircle
 10
-74.060000000000002
 20
-45.619999999999891
 30
0.0
 40
1.575
  0
CIRCLE
  5
2E2
100
AcDbEntity
  8
0
 62
256
370
-1
 48
1.0
  6
ByLayer
100
AcDbCircle
 10
-40.170000000000002
 20
-66.979999999999919
 30
0.0
 40
1.575
  0
CIRCLE
  5
2E3
100
AcDbEntity
  8
0
 62
256
370
-1
 48
1.0
  6
ByLayer
100
AcDbCircle
 10
-38.500000000000497
 20
92.200000000000074
 30
0.0
 40
1.5750000000000111
  0
LINE
  5
2E4
100
AcDbEntity
  8
0
 62
256
370
-1
 48
1.0
  6
ByLayer
100
AcDbLine
 10
21.779999999999355
 20
91.420000000000442
 30
0.0
 11
21.779999999999365
 21
76.420000000000442
 31
0.0
  0
LINE
  5
2E5
100
AcDbEntity
  8
0
 62
256
370
-1
 48
1.0
  6
ByLayer
100
AcDbLine
 10
21.779999999999365
 20
76.420000000000442
 30
0.0
 11
15.059999999999356
 21
76.420000000000442
 31
0.0
  0
LINE
  5
2E6
100
AcDbEntity
  8
0
 62
256
370
-1
 48
1.0
  6
ByLayer
100
AcDbLine
 10
15.059999999999356
 20
76.420000000000442
 30
0.0
 11
15.059999999999356
 21
91.420000000000442
 31
0.0
  0
LINE
  5
2E7
100
AcDbEntity
  8
0
 62
256
370
-1
 48
1.0
  6
ByLayer
100
AcDbLine
 10
15.059999999999356
 20
91.420000000000442
 30
0.0
 11
21.779999999999355
 21
91.420000000000442
 31
0.0
  0
LINE
  5
2E8
100
AcDbEntity
  8
0
 62
256
370
-1
 48
1.0
  6
ByLayer
100
AcDbLine
 10
-27.780000000000143
 20
142.90000000000035
 30
0.0
 11
-27.780000000000001
 21
-70.339999999999918
 31
0.0
  0
LINE
  5
2E9
100
AcDbEntity
  8
0
 62
256
370
-1
 48
1.0
  6
ByLayer
100
AcDbLine
 10
-27.780000000000086
 20
-63.619999999999663
 30
0.0
 11
-11.26000000000009
 21
-63.619999999999656
 31
0.0
  0
LINE
  5
2EA
100
AcDbEntity
  8
0
 62
256
370
-1
 48
1.0
  6
ByLayer
100
AcDbLine
 10
-11.26000000000009
 20
-63.619999999999656
 30
0.0
 11
-11.26000000000009
 21
-56.899999999999665
 31
0.0
  0
LINE
  5
2EB
100
AcDbEntity
  8
0
 62
256
370
-1
 48
1.0
  6
ByLayer
100
AcDbLine
 10
-11.26000000000009
 20
-56.899999999999665
 30
0.0
 11
5.2599999999999127
 21
-56.899999999999665
 31
0.0
  0
LINE
  5
2EC
100
AcDbEntity
  8
0
 62
256
370
-1
 48
1.0
  6
ByLayer
100
AcDbLine
 10
5.2599999999999127
 20
-56.899999999999665
 30
0.0
 11
5.2599999999999127
 21
-63.619999999999656
 31
0.0
  0
LINE
  5
2ED
100
AcDbEntity
  8
0
 62
256
370
-1
 48
1.0
  6
ByLayer
100
AcDbLine
 10
5.2599999999999127
 20
-63.619999999999656
 30
0.0
 11
28.499999999999943
 21
-63.619999999999663
 31
0.0
  0
CIRCLE
  5
2EE
100
AcDbEntity
  8
0
 62
256
370
-1
 48
1.0
  6
ByLayer
100
AcDbCircle
 10
-17.780000000000086
 20
-38.89999999999965
 30
0.0
 40
1.575
  0
CIRCLE
  5
2EF
100
AcDbEntity
  8
0
 62
256
370
-1
 48
1.0
  6
ByLayer
100
AcDbCircle
 10
16.109999999999935
 20
-60.259999999999657
 30
0.0
 40
1.575
  0
CIRCLE
  5
2F0
100
AcDbEntity
  8
0
 62
256
370
-1
 48
1.0
  6
ByLayer
100
AcDbCircle
 10
17.779999999999355
 20
98.920000000000329
 30
0.0
 40
1.5750000000000111
  0
LINE
  5
2F1
100
AcDbEntity
  8
0
 62
256
370
-1
 48
1.0
  6
ByLayer
100
AcDbLine
 10
113.62666666666669
 20
99.999999999999972
 30
0.0
 11
90.813333333333375
 21
99.999999999999943
 31
0.0
  0
LINE
  5
2F2
100
AcDbEntity
  8
0
 62
256
370
-1
 48
1.0
  6
ByLayer
100
AcDbLine
 10
90.813333333333375
 20
99.999999999999943
 30
0.0
 11
90.813333333333361
 21
106.71999999999997
 31
0.0
  0
LINE
  5
2F3
100
AcDbEntity
  8
0
 62
256
370
-1
 48
1.0
  6
ByLayer
100
AcDbLine
 10
90.813333333333361
 20
106.71999999999997
 30
0.0
 11
113.62666666666669
 21
106.71999999999997
 31
0.0
  0
LINE
  5
2F4
100
AcDbEntity
  8
0
 62
256
370
-1
 48
1.0
  6
ByLayer
100
AcDbLine
 10
113.62666666666669
 20
106.71999999999997
 30
0.0
 11
113.62666666666669
 21
99.999999999999972
 31
0.0
  0
LINE
  5
2F5
100
AcDbEntity
  8
0
 62
256
370
-1
 48
1.0
  6
ByLayer
100
AcDbLine
 10
72.779999999999973
 20
118.17499999999993
 30
0.0
 11
67.999999999999972
 21
118.17499999999993
 31
0.0
  0
LINE
  5
2F6
100
AcDbEntity
  8
0
 62
256
370
-1
 48
1.0
  6
ByLayer
100
AcDbLine
 10
68.0
 20
99.999999999999943
 30
0.0
 11
61.279999999999902
 21
99.999999999999915
 31
0.0
  0
LINE
  5
2F7
100
AcDbEntity
  8
0
 62
256
370
-1
 48
1.0
  6
ByLayer
100
AcDbLine
 10
61.279999999999902
 20
99.999999999999915
 30
0.0
 11
61.280000000000115
 21
-125.0
 31
0.0
  0
LINE
  5
2F8
100
AcDbEntity
  8
0
 62
256
370
-1
 48
1.0
  6
ByLayer
100
AcDbLine
 10
68.0
 20
-125.0
 30
0.0
 11
68.0
 21
-118.28
 31
0.0
  0
LINE
  5
2F9
100
AcDbEntity
  8
0
 62
256
370
-1
 48
1.0
  6
ByLayer
100
AcDbLine
 10
68.0
 20
-118.28
 30
0.0
 11
90.813333333333333
 21
-118.28
 31
0.0
  0
LINE
  5
2FA
100
AcDbEntity
  8
0
 62
256
370
-1
 48
1.0
  6
ByLayer
100
AcDbLine
 10
90.813333333333333
 20
-118.28
 30
0.0
 11
90.813333333333347
 21
-125.0
 31
0.0
  0
LINE
  5
2FB
100
AcDbEntity
  8
0
 62
256
370
-1
 48
1.0
  6
ByLayer
100
AcDbLine
 10
90.813333333333347
 20
-125.0
 30
0.0
 11
113.62666666666667
 21
-125.0
 31
0.0
  0
LINE
  5
2FC
100
AcDbEntity
  8
0
 62
256
370
-1
 48
1.0
  6
ByLayer
100
AcDbLine
 10
113.62666666666667
 20
-125.0
 30
0.0
 11
113.62666666666667
 21
-118.28
 31
0.0
  0
LINE
  5
2FD
100
AcDbEntity
  8
0
 62
256
370
-1
 48
1.0
  6
ByLayer
100
AcDbLine
 10
113.62666666666667
 20
-118.28
 30
0.0
 11
136.44
 21
-118.28
 31
0.0
  0
LINE
  5
2FE
100
AcDbEntity
  8
0
 62
256
370
-1
 48
1.0
  6
ByLayer
100
AcDbLine
 10
136.44
 20
-118.28
 30
0.0
 11
136.44
 21
-125.0
 31
0.0
  0
LINE
  5
2FF
100
AcDbEntity
  8
0
 62
256
370
-1
 48
1.0
  6
ByLayer
100
AcDbLine
 10
136.44
 20
-125.0
 30
0.0
 11
143.16000000000008
 21
-125.0
 31
0.0
  0
LINE
  5
300
100
AcDbEntity
  8
0
 62
256
370
-1
 48
1.0
  6
ByLayer
100
AcDbLine
 10
143.16000000000008
 20
-125.0
 30
0.0
 11
143.15999999999991
 21
100.0
 31
0.0
  0
LINE
  5
301
100
AcDbEntity
  8
0
 62
256
370
-1
 48
1.0
  6
ByLayer
100
AcDbLine
 10
143.15999999999991
 20
100.0
 30
0.0
 11
136.44000000000005
 21
100.0
 31
0.0
  0
LINE
  5
302
100
AcDbEntity
  8
0
 62
256
370
-1
 48
1.0
  6
ByLayer
100
AcDbLine
 10
136.44000000000005
 20
100.0
 30
0.0
 11
136.44000000000005
 21
118.17499999999998
 31
0.0
  0
LINE
  5
303
100
AcDbEntity
  8
0
 62
256
370
-1
 48
1.0
  6
ByLayer
100
AcDbLine
 10
136.44000000000005
 20
118.17499999999998
 30
0.0
 11
131.66000000000005
 21
118.17499999999998
 31
0.0
  0
LINE
  5
304
100
AcDbEntity
  8
0
 62
256
370
-1
 48
1.0
  6
ByLayer
100
AcDbLine
 10
131.66000000000005
 20
118.17499999999998
 30
0.0
 11
131.66000000000005
 21
117.14999999999998
 31
0.0
  0
ARC
  5
305
100
AcDbEntity
  8
0
 62
256
370
-1
 48
1.0
  6
ByLayer
100
AcDbCircle
 10
131.66000000000005
 20
116.89999999999998
 30
0.0
 40
0.2499999999999989
100
AcDbArc
 50
180.0
 51
90.0
  0
LINE
  5
306
100
AcDbEntity
  8
0
 62
256
370
-1
 48
1.0
  6
ByLayer
100
AcDbLine
 10
131.41000000000005
 20
116.89999999999998
 30
0.0
 11
129.41000000000005
 21
116.89999999999998
 31
0.0
  0
ARC
  5
307
100
AcDbEntity
  8
0
 62
256
370
-1
 48
1.0
  6
ByLayer
100
AcDbCircle
 10
129.16000000000005
 20
116.89999999999998
 30
0.0
 40
0.25
100
AcDbArc
 50
90.0
 51
0.0
  0
LINE
  5
308
100
AcDbEntity
  8
0
 62
256
370
-1
 48
1.0
  6
ByLayer
100
AcDbLine
 10
129.16000000000005
 20
117.14999999999998
 30
0.0
 11
129.16000000000005
 21
118.17499999999998
 31
0.0
  0
LINE
  5
309
100
AcDbEntity
  8
0
 62
256
370
-1
 48
1.0
  6
ByLayer
100
AcDbLine
 10
129.16000000000005
 20
118.17499999999998
 30
0.0
 11
128.16000000000005
 21
118.17499999999998
 31
0.0
  0
LINE
  5
30A
100
AcDbEntity
  8
0
 62
256
370
-1
 48
1.0
  6
ByLayer
100
AcDbLine
 10
128.16000000000005
 20
118.17499999999998
 30
0.0
 11
128.16000000000005
 21
121.32499999999999
 31
0.0
  0
LINE
  5
30B
100
AcDbEntity
  8
0
 62
256
370
-1
 48
1.0
  6
ByLayer
100
AcDbLine
 10
128.16000000000005
 20
121.32499999999999
 30
0.0
 11
129.16000000000005
 21
121.32499999999999
 31
0.0
  0
LINE
  5
30C
100
AcDbEntity
  8
0
 62
256
370
-1
 48
1.0
  6
ByLayer
100
AcDbLine
 10
129.16000000000005
 20
121.32499999999999
 30
0.0
 11
129.16000000000005
 21
122.34999999999997
 31
0.0
  0
ARC
  5
30D
100
AcDbEntity
  8
0
 62
256
370
-1
 48
1.0
  6
ByLayer
100
AcDbCircle
 10
129.16000000000005
 20
122.59999999999997
 30
0.0
 40
0.25
100
AcDbArc
 50
0.0
 51
270.0
  0
LINE
  5
30E
100
AcDbEntity
  8
0
 62
256
370
-1
 48
1.0
  6
ByLayer
100
AcDbLine
 10
129.41000000000005
 20
122.59999999999997
 30
0.0
 11
131.41000000000005
 21
122.59999999999997
 31
0.0
  0
ARC
  5
30F
100
AcDbEntity
  8
0
 62
256
370
-1
 48
1.0
  6
ByLayer
100
AcDbCircle
 10
131.66000000000005
 20
122.59999999999997
 30
0.0
 40
0.25
100
AcDbArc
 50
270.0
 51
180.0
  0
LINE
  5
310
100
AcDbEntity
  8
0
 62
256
370
-1
 48
1.0
  6
ByLayer
100
AcDbLine
 10
131.66000000000005
 20
122.34999999999997
 30
0.0
 11
131.66000000000005
 21
121.32499999999999
 31
0.0
  0
LINE
  5
311
100
AcDbEntity
  8
0
 62
256
370
-1
 48
1.0
  6
ByLayer
100
AcDbLine
 10
131.66000000000005
 20
121.32499999999999
 30
0.0
 11
136.44000000000005
 21
121.32499999999999
 31
0.0
  0
LINE
  5
312
100
AcDbEntity
  8
0
 62
256
370
-1
 48
1.0
  6
ByLayer
100
AcDbLine
 10
136.44000000000005
 20
121.32499999999999
 30
0.0
 11
136.44000000000005
 21
373.67499999999978
 31
0.0
  0
LINE
  5
313
100
AcDbEntity
  8
0
 62
256
370
-1
 48
1.0
  6
ByLayer
100
AcDbLine
 10
136.44000000000005
 20
373.67499999999978
 30
0.0
 11
131.66000000000005
 21
373.67499999999978
 31
0.0
  0
LINE
  5
314
100
AcDbEntity
  8
0
 62
256
370
-1
 48
1.0
  6
ByLayer
100
AcDbLine
 10
131.66000000000005
 20
373.67499999999978
 30
0.0
 11
131.66000000000005
 21
372.64999999999981
 31
0.0
  0
ARC
  5
315
100
AcDbEntity
  8
0
 62
256
370
-1
 48
1.0
  6
ByLayer
100
AcDbCircle
 10
131.66000000000005
 20
372.39999999999981
 30
0.0
 40
0.25
100
AcDbArc
 50
180.0
 51
90.0
  0
LINE
  5
316
100
AcDbEntity
  8
0
 62
256
370
-1
 48
1.0
  6
ByLayer
100
AcDbLine
 10
131.41000000000005
 20
372.39999999999981
 30
0.0
 11
129.41000000000005
 21
372.39999999999981
 31
0.0
  0
ARC
  5
317
100
AcDbEntity
  8
0
 62
256
370
-1
 48
1.0
  6
ByLayer
100
AcDbCircle
 10
129.16000000000005
 20
372.39999999999981
 30
0.0
 40
0.25
100
AcDbArc
 50
90.0
 51
0.0
  0
LINE
  5
318
100
AcDbEntity
  8
0
 62
256
370
-1
 48
1.0
  6
ByLayer
100
AcDbLine
 10
129.16000000000005
 20
372.64999999999981
 30
0.0
 11
129.16000000000005
 21
373.67499999999978
 31
0.0
  0
LINE
  5
319
100
AcDbEntity
  8
0
 62
256
370
-1
 48
1.0
  6
ByLayer
100
AcDbLine
 10
129.16000000000005
 20
373.67499999999978
 30
0.0
 11
128.16000000000005
 21
373.67499999999978
 31
0.0
  0
LINE
  5
31A
100
AcDbEntity
  8
0
 62
256
370
-1
 48
1.0
  6
ByLayer
100
AcDbLine
 10
128.16000000000005
 20
373.67499999999978
 30
0.0
 11
128.16000000000005
 21
376.82499999999976
 31
0.0
  0
LINE
  5
31B
100
AcDbEntity
  8
0
 62
256
370
-1
 48
1.0
  6
ByLayer
100
AcDbLine
 10
128.16000000000005
 20
376.82499999999976
 30
0.0
 11
129.16000000000005
 21
376.82499999999976
 31
0.0
  0
LINE
  5
31C
100
AcDbEntity
  8
0
 62
256
370
-1
 48
1.0
  6
ByLayer
100
AcDbLine
 10
129.16000000000005
 20
376.82499999999976
 30
0.0
 11
129.16000000000005
 21
377.84999999999974
 31
0.0
  0
ARC
  5
31D
100
AcDbEntity
  8
0
 62
256
370
-1
 48
1.0
  6
ByLayer
100
AcDbCircle
 10
129.15999999999994
 20
378.09999999999985
 30
0.0
 40
0.2500000000001137
100
AcDbArc
 50
0.0
 51
270.00000000002603
  0
LINE
  5
31E
100
AcDbEntity
  8
0
 62
256
370
-1
 48
1.0
  6
ByLayer
100
AcDbLine
 10
129.41000000000005
 20
378.09999999999997
 30
0.0
 11
131.41000000000005
 21
378.09999999999997
 31
0.0
  0
ARC
  5
31F
100
AcDbEntity
  8
0
 62
256
370
-1
 48
1.0
  6
ByLayer
100
AcDbCircle
 10
131.66000000000017
 20
378.09999999999985
 30
0.0
 40
0.2500000000001137
100
AcDbArc
 50
269.99999999997397
 51
180.0
  0
LINE
  5
320
100
AcDbEntity
  8
0
 62
256
370
-1
 48
1.0
  6
ByLayer
100
AcDbLine
 10
131.66000000000005
 20
377.84999999999974
 30
0.0
 11
131.66000000000005
 21
376.82499999999976
 31
0.0
  0
LINE
  5
321
100
AcDbEntity
  8
0
 62
256
370
-1
 48
1.0
  6
ByLayer
100
AcDbLine
 10
131.66000000000005
 20
376.82499999999976
 30
0.0
 11
136.44000000000005
 21
376.82499999999976
 31
0.0
  0
LINE
  5
322
100
AcDbEntity
  8
0
 62
256
370
-1
 48
1.0
  6
ByLayer
100
AcDbLine
 10
136.44000000000005
 20
376.82499999999976
 30
0.0
 11
136.44000000000005
 21
388.27999999999997
 31
0.0
  0
LINE
  5
323
100
AcDbEntity
  8
0
 62
256
370
-1
 48
1.0
  6
ByLayer
100
AcDbLine
 10
136.44000000000005
 20
388.27999999999997
 30
0.0
 11
113.62666666666678
 21
388.27999999999997
 31
0.0
  0
LINE
  5
324
100
AcDbEntity
  8
0
 62
256
370
-1
 48
1.0
  6
ByLayer
100
AcDbLine
 10
113.62666666666678
 20
388.27999999999997
 30
0.0
 11
113.62666666666678
 21
394.99999999999977
 31
0.0
  0
LINE
  5
325
100
AcDbEntity
  8
0
 62
256
370
-1
 48
1.0
  6
ByLayer
100
AcDbLine
 10
113.62666666666678
 20
394.99999999999977
 30
0.0
 11
90.813333333333446
 21
395.0
 31
0.0
  0
LINE
  5
326
100
AcDbEntity
  8
0
 62
256
370
-1
 48
1.0
  6
ByLayer
100
AcDbLine
 10
90.813333333333446
 20
395.0
 30
0.0
 11
90.813333333333475
 21
388.27999999999997
 31
0.0
  0
LINE
  5
327
100
AcDbEntity
  8
0
 62
256
370
-1
 48
1.0
  6
ByLayer
100
AcDbLine
 10
90.813333333333475
 20
388.27999999999997
 30
0.0
 11
68.000000000000085
 21
388.27999999999997
 31
0.0
  0
LINE
  5
328
100
AcDbEntity
  8
0
 62
256
370
-1
 48
1.0
  6
ByLayer
100
AcDbLine
 10
67.999999999999432
 20
376.82499999999976
 30
0.0
 11
72.779999999999433
 21
376.82499999999976
 31
0.0
  0
LINE
  5
329
100
AcDbEntity
  8
0
 62
256
370
-1
 48
1.0
  6
ByLayer
100
AcDbLine
 10
72.779999999999433
 20
376.82499999999976
 30
0.0
 11
72.779999999999433
 21
377.84999999999974
 31
0.0
  0
ARC
  5
32A
100
AcDbEntity
  8
0
 62
256
370
-1
 48
1.0
  6
ByLayer
100
AcDbCircle
 10
72.779999999999433
 20
378.09999999999974
 30
0.0
 40
0.2500000000000071
100
AcDbArc
 50
0.0
 51
270.0
  0
LINE
  5
32B
100
AcDbEntity
  8
0
 62
256
370
-1
 48
1.0
  6
ByLayer
100
AcDbLine
 10
73.029999999999447
 20
378.09999999999974
 30
0.0
 11
75.029999999999447
 21
378.09999999999974
 31
0.0
  0
ARC
  5
32C
100
AcDbEntity
  8
0
 62
256
370
-1
 48
1.0
  6
ByLayer
100
AcDbCircle
 10
75.279999999999461
 20
378.09999999999974
 30
0.0
 40
0.2500000000000071
100
AcDbArc
 50
270.0
 51
180.0
  0
LINE
  5
32D
100
AcDbEntity
  8
0
 62
256
370
-1
 48
1.0
  6
ByLayer
100
AcDbLine
 10
75.279999999999461
 20
377.84999999999974
 30
0.0
 11
75.279999999999461
 21
376.82499999999976
 31
0.0
  0
LINE
  5
32E
100
AcDbEntity
  8
0
 62
256
370
-1
 48
1.0
  6
ByLayer
100
AcDbLine
 10
75.279999999999461
 20
376.82499999999976
 30
0.0
 11
76.279999999999447
 21
376.82499999999976
 31
0.0
  0
LINE
  5
32F
100
AcDbEntity
  8
0
 62
256
370
-1
 48
1.0
  6
ByLayer
100
AcDbLine
 10
76.279999999999447
 20
376.82499999999976
 30
0.0
 11
76.279999999999447
 21
373.67499999999967
 31
0.0
  0
LINE
  5
330
100
AcDbEntity
  8
0
 62
256
370
-1
 48
1.0
  6
ByLayer
100
AcDbLine
 10
76.279999999999447
 20
373.67499999999967
 30
0.0
 11
75.279999999999461
 21
373.67499999999967
 31
0.0
  0
LINE
  5
331
100
AcDbEntity
  8
0
 62
256
370
-1
 48
1.0
  6
ByLayer
100
AcDbLine
 10
75.279999999999461
 20
373.67499999999967
 30
0.0
 11
75.279999999999461
 21
372.64999999999969
 31
0.0
  0
ARC
  5
332
100
AcDbEntity
  8
0
 62
256
370
-1
 48
1.0
  6
ByLayer
100
AcDbCircle
 10
75.27999999999939
 20
372.39999999999975
 30
0.0
 40
0.2499999999999573
100
AcDbArc
 50
180.0
 51
89.999999999983714
  0
LINE
  5
333
100
AcDbEntity
  8
0
 62
256
370
-1
 48
1.0
  6
ByLayer
100
AcDbLine
 10
75.029999999999433
 20
372.39999999999981
 30
0.0
 11
73.029999999999447
 21
372.39999999999981
 31
0.0
  0
ARC
  5
334
100
AcDbEntity
  8
0
 62
256
370
-1
 48
1.0
  6
ByLayer
100
AcDbCircle
 10
72.779999999999518
 20
372.39999999999975
 30
0.0
 40
0.249999999999936
100
AcDbArc
 50
90.000000000013031
 51
0.0
  0
LINE
  5
335
100
AcDbEntity
  8
0
 62
256
370
-1
 48
1.0
  6
ByLayer
100
AcDbLine
 10
72.779999999999461
 20
372.64999999999969
 30
0.0
 11
72.779999999999461
 21
373.67499999999967
 31
0.0
  0
LINE
  5
336
100
AcDbEntity
  8
0
 62
256
370
-1
 48
1.0
  6
ByLayer
100
AcDbLine
 10
72.779999999999461
 20
373.67499999999967
 30
0.0
 11
67.999999999999446
 21
373.67499999999967
 31
0.0
  0
LINE
  5
337
100
AcDbEntity
  8
0
 62
256
370
-1
 48
1.0
  6
ByLayer
100
AcDbLine
 10
67.999999999999957
 20
121.32499999999993
 30
0.0
 11
72.779999999999973
 21
121.32499999999993
 31
0.0
  0
LINE
  5
338
100
AcDbEntity
  8
0
 62
256
370
-1
 48
1.0
  6
ByLayer
100
AcDbLine
 10
72.779999999999973
 20
121.32499999999993
 30
0.0
 11
72.779999999999973
 21
122.34999999999991
 31
0.0
  0
ARC
  5
339
100
AcDbEntity
  8
0
 62
256
370
-1
 48
1.0
  6
ByLayer
100
AcDbCircle
 10
72.779999999999973
 20
122.59999999999991
 30
0.0
 40
0.25
100
AcDbArc
 50
0.0
 51
270.0
  0
LINE
  5
33A
100
AcDbEntity
  8
0
 62
256
370
-1
 48
1.0
  6
ByLayer
100
AcDbLine
 10
73.029999999999973
 20
122.59999999999991
 30
0.0
 11
75.029999999999973
 21
122.59999999999991
 31
0.0
  0
ARC
  5
33B
100
AcDbEntity
  8
0
 62
256
370
-1
 48
1.0
  6
ByLayer
100
AcDbCircle
 10
75.279999999999973
 20
122.59999999999991
 30
0.0
 40
0.25
100
AcDbArc
 50
270.0
 51
180.0
  0
LINE
  5
33C
100
AcDbEntity
  8
0
 62
256
370
-1
 48
1.0
  6
ByLayer
100
AcDbLine
 10
75.279999999999973
 20
122.34999999999991
 30
0.0
 11
75.279999999999973
 21
121.32499999999993
 31
0.0
  0
LINE
  5
33D
100
AcDbEntity
  8
0
 62
256
370
-1
 48
1.0
  6
ByLayer
100
AcDbLine
 10
75.279999999999973
 20
121.32499999999993
 30
0.0
 11
76.279999999999973
 21
121.32499999999993
 31
0.0
  0
LINE
  5
33E
100
AcDbEntity
  8
0
 62
256
370
-1
 48
1.0
  6
ByLayer
100
AcDbLine
 10
76.279999999999973
 20
121.32499999999993
 30
0.0
 11
76.279999999999973
 21
118.17499999999993
 31
0.0
  0
LINE
  5
33F
100
AcDbEntity
  8
0
 62
256
370
-1
 48
1.0
  6
ByLayer
100
AcDbLine
 10
76.279999999999973
 20
118.17499999999993
 30
0.0
 11
75.279999999999973
 21
118.17499999999993
 31
0.0
  0
LINE
  5
340
100
AcDbEntity
  8
0
 62
256
370
-1
 48
1.0
  6
ByLayer
100
AcDbLine
 10
75.279999999999973
 20
118.17499999999993
 30
0.0
 11
75.279999999999973
 21
117.14999999999992
 31
0.0
  0
ARC
  5
341
100
AcDbEntity
  8
0
 62
256
370
-1
 48
1.0
  6
ByLayer
100
AcDbCircle
 10
75.279999999999973
 20
116.89999999999992
 30
0.0
 40
0.25
100
AcDbArc
 50
180.0
 51
90.0
  0
LINE
  5
342
100
AcDbEntity
  8
0
 62
256
370
-1
 48
1.0
  6
ByLayer
100
AcDbLine
 10
75.029999999999973
 20
116.89999999999992
 30
0.0
 11
73.029999999999973
 21
116.89999999999992
 31
0.0
  0
ARC
  5
343
100
AcDbEntity
  8
0
 62
256
370
-1
 48
1.0
  6
ByLayer
100
AcDbCircle
 10
72.779999999999973
 20
116.89999999999992
 30
0.0
 40
0.2500000000000011
100
AcDbArc
 50
90.0
 51
0.0
  0
LINE
  5
344
100
AcDbEntity
  8
0
 62
256
370
-1
 48
1.0
  6
ByLayer
100
AcDbLine
 10
72.779999999999973
 20
117.14999999999992
 30
0.0
 11
72.779999999999973
 21
118.17499999999993
 31
0.0
  0
CIRCLE
  5
345
100
AcDbEntity
  8
0
 62
256
370
-1
 48
1.0
  6
ByLayer
100
AcDbCircle
 10
102.22000000000004
 20
391.63999999999987
 30
0.0
 40
1.574999999999988
  0
CIRCLE
  5
346
100
AcDbEntity
  8
0
 62
256
370
-1
 48
1.0
  6
ByLayer
100
AcDbCircle
 10
102.22
 20
-121.6400000000001
 30
0.0
 40
1.5749999999999931
  0
ENDSEC
  0
SECTION
  2
OBJECTS
  0
DICTIONARY
  5
C
100
AcDbDictionary
280
0
281
1
  3
ACAD_GROUP
350
D
  3
ACAD_LAYOUT
350
1A
  3
ACAD_MLINESTYLE
350
17
  3
ACAD_PLOTSETTINGS
350
19
  3
ACAD_PLOTSTYLENAME
350
E
  3
AcDbVariableDictionary
350
347
  3
QCAD_OBJECTS
350
348
  0
DICTIONARY
  5
D
100
AcDbDictionary
280
0
281
1
  0
ACDBDICTIONARYWDFLT
  5
E
100
AcDbDictionary
281
1
  3
Normal
350
F
100
AcDbDictionaryWithDefault
340
F
  0
ACDBPLACEHOLDER
  5
F
  0
DICTIONARY
  5
17
100
AcDbDictionary
280
0
281
1
  3
Standard
350
18
  0
MLINESTYLE
  5
18
100
AcDbMlineStyle
  2
STANDARD
 70
0
  3

 62
256
 51
90.0
 52
90.0
 71
2
 49
0.5
 62
256
  6
BYLAYER
 49
-0.5
 62
256
  6
BYLAYER
  0
DICTIONARY
  5
19
100
AcDbDictionary
280
0
281
1
  0
DICTIONARY
  5
1A
100
AcDbDictionary
281
1
  3
Layout1
350
1E
  3
Layout2
350
26
  3
Model
350
22
  0
LAYOUT
  5
1E
100
AcDbPlotSettings
  1

  2
none_device
  4

  6

 40
0.0
 41
0.0
 42
0.0
 43
0.0
 44
0.0
 45
0.0
 46
0.0
 47
0.0
 48
0.0
 49
0.0
140
0.0
141
0.0
142
1.0
143
1.0
 70
688
 72
0
 73
0
 74
5
  7

 75
16
147
1.0
148
0.0
149
0.0
100
AcDbLayout
  1
Layout1
 70
1
 71
1
 10
0.0
 20
0.0
 11
420.0
 21
297.0
 12
0.0
 22
0.0
 32
0.0
 14
100000000000000000000.0
 24
100000000000000000000.0
 34
100000000000000000000.0
 15
-100000000000000000000.0
 25
-100000000000000000000.0
 35
-100000000000000000000.0
146
0.0
 13
0.0
 23
0.0
 33
0.0
 16
1.0
 26
0.0
 36
0.0
 17
0.0
 27
1.0
 37
0.0
 76
0
330
1B
  0
LAYOUT
  5
22
100
AcDbPlotSettings
  1

  2
none_device
  4

  6

 40
0.0
 41
0.0
 42
0.0
 43
0.0
 44
0.0
 45
0.0
 46
0.0
 47
0.0
 48
0.0
 49
0.0
140
0.0
141
0.0
142
1.0
143
1.0
 70
1712
 72
0
 73
0
 74
0
  7

 75
0
147
1.0
148
0.0
149
0.0
100
AcDbLayout
  1
Model
 70
1
 71
0
 10
0.0
 20
0.0
 11
12.0
 21
9.0
 12
0.0
 22
0.0
 32
0.0
 14
0.0
 24
0.0
 34
0.0
 15
0.0
 25
0.0
 35
0.0
146
0.0
 13
0.0
 23
0.0
 33
0.0
 16
1.0
 26
0.0
 36
0.0
 17
0.0
 27
1.0
 37
0.0
 76
0
330
1F
  0
LAYOUT
  5
26
100
AcDbPlotSettings
  1

  2
none_device
  4

  6

 40
0.0
 41
0.0
 42
0.0
 43
0.0
 44
0.0
 45
0.0
 46
0.0
 47
0.0
 48
0.0
 49
0.0
140
0.0
141
0.0
142
1.0
143
1.0
 70
688
 72
0
 73
0
 74
5
  7

 75
16
147
1.0
148
0.0
149
0.0
100
AcDbLayout
  1
Layout2
 70
1
 71
2
 10
0.0
 20
0.0
 11
12.0
 21
9.0
 12
0.0
 22
0.0
 32
0.0
 14
0.0
 24
0.0
 34
0.0
 15
0.0
 25
0.0
 35
0.0
146
0.0
 13
0.0
 23
0.0
 33
0.0
 16
1.0
 26
0.0
 36
0.0
 17
0.0
 27
1.0
 37
0.0
 76
0
330
23
  0
DICTIONARY
  5
347
100
AcDbDictionary
281
1
  3
DIMASSOC
350
34A
  3
HIDETEXT
350
349
  0
DICTIONARYVAR
  5
349
100
DictionaryVariables
280
0
  1
2
  0
DICTIONARYVAR
  5
34A
100
DictionaryVariables
280
0
  1
1
  0
DICTIONARY
  5
348
100
AcDbDictionary
281
1
  3
ColorSettings/BackgroundColor
350
34B
  3
ColorSettings/ColorMode
350
34C
  3
Grid/DisplayGrid00
350
34D
  3
Grid/DisplayGrid01
350
34E
  3
Grid/DisplayGrid02
350
34F
  3
Grid/DisplayGrid03
350
350
  3
Grid/GridSpacingX00
350
351
  3
Grid/GridSpacingX01
350
352
  3
Grid/GridSpacingX02
350
353
  3
Grid/GridSpacingX03
350
354
  3
Grid/GridSpacingY00
350
355
  3
Grid/GridSpacingY01
350
356
  3
Grid/GridSpacingY02
350
357
  3
Grid/GridSpacingY03
350
358
  3
Grid/IsometricGrid00
350
359
  3
Grid/IsometricGrid01
350
35A
  3
Grid/IsometricGrid02
350
35B
  3
Grid/IsometricGrid03
350
35C
  3
Grid/IsometricProjection00
350
35D
  3
Grid/IsometricProjection01
350
35E
  3
Grid/IsometricProjection02
350
35F
  3
Grid/IsometricProjection03
350
360
  3
Grid/MetaGridSpacingX00
350
361
  3
Grid/MetaGridSpacingX01
350
362
  3
Grid/MetaGridSpacingX02
350
363
  3
Grid/MetaGridSpacingX03
350
364
  3
Grid/MetaGridSpacingY00
350
365
  3
Grid/MetaGridSpacingY01
350
366
  3
Grid/MetaGridSpacingY02
350
367
  3
Grid/MetaGridSpacingY03
350
368
  3
MultiPageSettings/Columns
350
369
  3
MultiPageSettings/GlueMarginsBottom
350
36A
  3
MultiPageSettings/GlueMarginsLeft
350
36B
  3
MultiPageSettings/GlueMarginsRight
350
36C
  3
MultiPageSettings/GlueMarginsTop
350
36D
  3
MultiPageSettings/PrintCropMarks
350
36E
  3
MultiPageSettings/Rows
350
36F
  3
PageSettings/OffsetX
350
370
  3
PageSettings/OffsetY
350
371
  3
PageSettings/PageOrientation
350
372
  3
PageSettings/PaperHeight
350
373
  3
PageSettings/PaperWidth
350
374
  3
PageSettings/Scale
350
375
  3
PageSettings/ShowPaperBorders
350
376
  3
QCADVersion
350
377
  3
UnitSettings/PaperUnit
350
378
  3
ViewportCenter
350
379
  3
ViewportHeight
350
37A
  3
ViewportWidth
350
37B
  0
XRECORD
  5
34B
330
348
100
AcDbXrecord
280
1
1000
White
  0
XRECORD
  5
34C
330
348
100
AcDbXrecord
280
1
1000
FullColor
  0
XRECORD
  5
34D
330
348
100
AcDbXrecord
280
1
290
1
  0
XRECORD
  5
34E
330
348
100
AcDbXrecord
280
1
290
1
  0
XRECORD
  5
34F
330
348
100
AcDbXrecord
280
1
290
1
  0
XRECORD
  5
350
330
348
100
AcDbXrecord
280
1
290
1
  0
XRECORD
  5
351
330
348
100
AcDbXrecord
280
1
1000
auto
  0
XRECORD
  5
352
330
348
100
AcDbXrecord
280
1
1000
auto
  0
XRECORD
  5
353
330
348
100
AcDbXrecord
280
1
1000
auto
  0
XRECORD
  5
354
330
348
100
AcDbXrecord
280
1
1000
auto
  0
XRECORD
  5
355
330
348
100
AcDbXrecord
280
1
1000
auto
  0
XRECORD
  5
356
330
348
100
AcDbXrecord
280
1
1000
auto
  0
XRECORD
  5
357
330
348
100
AcDbXrecord
280
1
1000
auto
  0
XRECORD
  5
358
330
348
100
AcDbXrecord
280
1
1000
auto
  0
XRECORD
  5
359
330
348
100
AcDbXrecord
280
1
290
0
  0
XRECORD
  5
35A
330
348
100
AcDbXrecord
280
1
290
0
  0
XRECORD
  5
35B
330
348
100
AcDbXrecord
280
1
290
0
  0
XRECORD
  5
35C
330
348
100
AcDbXrecord
280
1
290
0
  0
XRECORD
  5
35D
330
348
100
AcDbXrecord
280
1
 90
0
  0
XRECORD
  5
35E
330
348
100
AcDbXrecord
280
1
 90
0
  0
XRECORD
  5
35F
330
348
100
AcDbXrecord
280
1
 90
0
  0
XRECORD
  5
360
330
348
100
AcDbXrecord
280
1
 90
0
  0
XRECORD
  5
361
330
348
100
AcDbXrecord
280
1
1000
auto
  0
XRECORD
  5
362
330
348
100
AcDbXrecord
280
1
1000
auto
  0
XRECORD
  5
363
330
348
100
AcDbXrecord
280
1
1000
auto
  0
XRECORD
  5
364
330
348
100
AcDbXrecord
280
1
1000
auto
  0
XRECORD
  5
365
330
348
100
AcDbXrecord
280
1
1000
auto
  0
XRECORD
  5
366
330
348
100
AcDbXrecord
280
1
1000
auto
  0
XRECORD
  5
367
330
348
100
AcDbXrecord
280
1
1000
auto
  0
XRECORD
  5
368
330
348
100
AcDbXrecord
280
1
1000
auto
  0
XRECORD
  5
369
330
348
100
AcDbXrecord
280
1
 90
1
  0
XRECORD
  5
36A
330
348
100
AcDbXrecord
280
1
 40
10.0
  0
XRECORD
  5
36B
330
348
100
AcDbXrecord
280
1
 40
10.0
  0
XRECORD
  5
36C
330
348
100
AcDbXrecord
280
1
 40
10.0
  0
XRECORD
  5
36D
330
348
100
AcDbXrecord
280
1
 40
10.0
  0
XRECORD
  5
36E
330
348
100
AcDbXrecord
280
1
290
0
  0
XRECORD
  5
36F
330
348
100
AcDbXrecord
280
1
 90
1
  0
XRECORD
  5
370
330
348
100
AcDbXrecord
280
1
 40
0.0
  0
XRECORD
  5
371
330
348
100
AcDbXrecord
280
1
 40
0.0
  0
XRECORD
  5
372
330
348
100
AcDbXrecord
280
1
1000
Portrait
  0
XRECORD
  5
373
330
348
100
AcDbXrecord
280
1
 40
297.0
  0
XRECORD
  5
374
330
348
100
AcDbXrecord
280
1
 40
210.0
  0
XRECORD
  5
375
330
348
100
AcDbXrecord
280
1
1000
1:1
  0
XRECORD
  5
376
330
348
100
AcDbXrecord
280
1
290
1
  0
XRECORD
  5
377
330
348
100
AcDbXrecord
280
1
1000
3.20.1
  0
XRECORD
  5
378
330
348
100
AcDbXrecord
280
1
 90
4
  0
XRECORD
  5
37A
330
348
100
AcDbXrecord
280
1
 40
822.08117647058828
  0
XRECORD
  5
37B
330
348
100
AcDbXrecord
280
1
 40
1190.1908588235294
  0
ENDSEC
  0
EOF
