999
dxflib 3.17.0.0
  0
SECTION
  2
HEADER
  9
$ACADVER
  1
AC1015
  9
$HANDSEED
  5
FFFF
  9
$ANGBASE
 50
0.0
  9
$ANGDIR
 70
0
  9
$ATTMODE
 70
1
  9
$AUNITS
 70
0
  9
$AUPREC
 70
0
  9
$CECOLOR
 62
18
  9
$CELTSCALE
 40
1.0
  9
$CHAMFERA
 40
0.0
  9
$CHAMFERB
 40
0.0
  9
$CHAMFERC
 40
0.0
  9
$CHAMFERD
 40
0.0
  9
$CMLJUST
 70
0
  9
$CMLSCALE
 40
1.0
  9
$DIMADEC
 70
0
  9
$DIMALT
 70
0
  9
$DIMALTD
 70
2
  9
$DIMALTF
 40
25.399999999999999
  9
$DIMALTRND
 40
0.0
  9
$DIMALTTD
 70
2
  9
$DIMALTTZ
 70
0
  9
$DIMALTU
 70
2
  9
$DIMALTZ
 70
0
  9
$DIMAPOST
  1

  9
$DIMASZ
 40
2.5
  9
$DIMATFIT
 70
3
  9
$DIMAUNIT
 70
0
  9
$DIMAZIN
 70
2
  9
$DIMBLK
  1

  9
$DIMBLK1
  1

  9
$DIMBLK2
  1

  9
$DIMCEN
 40
0.09
  9
$DIMCLRD
 70
18
  9
$DIMCLRE
 70
18
  9
$DIMCLRT
 70
18
  9
$DIMDEC
 70
4
  9
$DIMDLE
 40
0.0
  9
$DIMDLI
 40
0.38
  9
$DIMDSEP
 70
46
  9
$DIMEXE
 40
1.25
  9
$DIMEXO
 40
0.625
  9
$DIMFRAC
 70
0
  9
$DIMGAP
 40
0.625
  9
$DIMJUST
 70
0
  9
$DIMLDRBLK
  1

  9
$DIMLFAC
 40
1.0
  9
$DIMLIM
 70
0
  9
$DIMLUNIT
 70
2
  9
$DIMLWD
 70
-2
  9
$DIMLWE
 70
-2
  9
$DIMPOST
  1

  9
$DIMRND
 40
0.0
  9
$DIMSAH
 70
0
  9
$DIMSCALE
 40
1.0
  9
$DIMSD1
 70
0
  9
$DIMSD2
 70
0
  9
$DIMSE1
 70
0
  9
$DIMSE2
 70
0
  9
$DIMSOXD
 70
0
  9
$DIMTAD
 70
0
  9
$DIMTDEC
 70
4
  9
$DIMTFAC
 40
1.0
  9
$DIMTIH
 70
1
  9
$DIMTIX
 70
0
  9
$DIMTM
 40
0.0
  9
$DIMTOFL
 70
0
  9
$DIMTOH
 70
1
  9
$DIMTOL
 70
0
  9
$DIMTOLJ
 70
1
  9
$DIMTP
 40
0.0
  9
$DIMTSZ
 40
0.0
  9
$DIMTVP
 40
0.0
  9
$DIMTXSTY
  7
Standard
  9
$DIMTXT
 40
2.5
  9
$DIMTZIN
 70
0
  9
$DIMUPT
 70
0
  9
$DIMZIN
 70
8
  9
$DISPSILH
 70
0
  9
$DWGCODEPAGE
  3
ANSI_1252
  9
$ELEVATION
 40
0.0
  9
$EXTMAX
 10
-100000000000000000000.0
 20
-100000000000000000000.0
 30
-100000000000000000000.0
  9
$EXTMIN
 10
100000000000000000000.0
 20
100000000000000000000.0
 30
100000000000000000000.0
  9
$FILLETRAD
 40
0.5
  9
$FILLMODE
 70
1
  9
$INSBASE
 10
0.0
 20
0.0
 30
0.0
  9
$INSUNITS
 70
4
  9
$LIMCHECK
 70
0
  9
$LIMMAX
 10
12.0
 20
9.0
  9
$LIMMIN
 10
0.0
 20
0.0
  9
$LTSCALE
 40
1.0
  9
$LUNITS
 70
2
  9
$LUPREC
 70
4
  9
$MAXACTVP
 70
2
  9
$MEASUREMENT
 70
1
  9
$MIRRTEXT
 70
1
  9
$ORTHOMODE
 70
0
  9
$PDMODE
 70
0
  9
$PDSIZE
 40
0.0
  9
$PELEVATION
 40
0.0
  9
$PEXTMAX
 10
0.0
 20
0.0
 30
0.0
  9
$PEXTMIN
 10
0.0
 20
0.0
 30
0.0
  9
$PINSBASE
 10
0.0
 20
0.0
 30
0.0
  9
$PLIMCHECK
 70
0
  9
$PLIMMAX
 10
277.0
 20
202.5
  9
$PLIMMIN
 10
-20.0
 20
-7.5
  9
$PLINEGEN
 70
0
  9
$PLINEWID
 40
0.0
  9
$PROXYGRAPHICS
 70
1
  9
$PSLTSCALE
 70
1
  9
$PUCSNAME
  2

  9
$PUCSORG
 10
0.0
 20
0.0
 30
0.0
  9
$PUCSXDIR
 10
1.0
 20
0.0
 30
0.0
  9
$PUCSYDIR
 10
0.0
 20
1.0
 30
0.0
  9
$QTEXTMODE
 70
0
  9
$REGENMODE
 70
1
  9
$SHADEDGE
 70
3
  9
$SHADEDIF
 70
70
  9
$SKETCHINC
 40
0.1
  9
$SKPOLY
 70
0
  9
$SPLFRAME
 70
0
  9
$SPLINESEGS
 70
8
  9
$SPLINETYPE
 70
6
  9
$SURFTAB1
 70
6
  9
$SURFTAB2
 70
6
  9
$SURFTYPE
 70
6
  9
$SURFU
 70
6
  9
$SURFV
 70
6
  9
$TEXTSIZE
 40
2.5
  9
$TEXTSTYLE
  7
Standard
  9
$THICKNESS
 40
0.0
  9
$TILEMODE
 70
1
  9
$TRACEWID
 40
0.05
  9
$TREEDEPTH
 70
3020
  9
$UCSNAME
  2

  9
$UCSORG
 10
0.0
 20
0.0
 30
0.0
  9
$UCSXDIR
 10
1.0
 20
0.0
 30
0.0
  9
$UCSYDIR
 10
0.0
 20
1.0
 30
0.0
  9
$UNITMODE
 70
0
  9
$USERI1
 70
0
  9
$USERI2
 70
0
  9
$USERI3
 70
0
  9
$USERI4
 70
0
  9
$USERI5
 70
0
  9
$USERR1
 40
0.0
  9
$USERR2
 40
0.0
  9
$USERR3
 40
0.0
  9
$USERR4
 40
0.0
  9
$USERR5
 40
0.0
  9
$USRTIMER
 70
1
  9
$VISRETAIN
 70
1
  0
ENDSEC
  0
SECTION
  2
TABLES
  0
TABLE
  2
VPORT
  5
8
100
AcDbSymbolTable
 70
1
  0
VPORT
  5
30
100
AcDbSymbolTableRecord
100
AcDbViewportTableRecord
  2
*Active
 70
0
 10
0.0
 20
0.0
 11
1.0
 21
1.0
 12
286.30555555555549
 22
148.5
 13
0.0
 23
0.0
 14
10.0
 24
10.0
 15
10.0
 25
10.0
 16
0.0
 26
0.0
 36
1.0
 17
0.0
 27
0.0
 37
0.0
 40
297.0
 41
1.92798353909465
 42
50.0
 43
0.0
 44
0.0
 50
0.0
 51
0.0
 71
0
 72
100
 73
1
 74
3
 75
1
 76
1
 77
0
 78
0
281
0
 65
1
110
0.0
120
0.0
130
0.0
111
1.0
121
0.0
131
0.0
112
0.0
122
1.0
132
0.0
 79
0
146
0.0
  0
ENDTAB
  0
TABLE
  2
LTYPE
  5
5
100
AcDbSymbolTable
 70
50
  0
LTYPE
  5
16
100
AcDbSymbolTableRecord
100
AcDbLinetypeTableRecord
  2
Continuous
 70
0
  3
Solid line
 72
65
 73
0
 40
0.0
  0
LTYPE
  5
31
100
AcDbSymbolTableRecord
100
AcDbLinetypeTableRecord
  2
ACAD_ISO09W100
 70
0
  3
ISO long-dash double-short-dash ____ __ __ ____
 72
65
 73
6
 40
45.0
 49
24.0
 74
0
 49
-3.0
 74
0
 49
6.0
 74
0
 49
-3.0
 74
0
 49
6.0
 74
0
 49
-3.0
 74
0
  0
LTYPE
  5
32
100
AcDbSymbolTableRecord
100
AcDbLinetypeTableRecord
  2
ACAD_ISO14W100
 70
0
  3
ISO dash triple-dot __ . . . __ . . . __ . . . _
 72
65
 73
8
 40
24.0
 49
12.0
 74
0
 49
-2.9500000000000002
 74
0
 49
0.1
 74
0
 49
-2.8999999999999999
 74
0
 49
0.1
 74
0
 49
-2.8999999999999999
 74
0
 49
0.1
 74
0
 49
-2.9500000000000002
 74
0
  0
LTYPE
  5
33
100
AcDbSymbolTableRecord
100
AcDbLinetypeTableRecord
  2
DASHDOT2
 70
0
  3
Dash dot (.5x) _._._._._._._._._._._._._._._.
 72
65
 73
4
 40
12.699999999999999
 49
6.3499999999999996
 74
0
 49
-3.125
 74
0
 49
0.1
 74
0
 49
-3.125
 74
0
  0
LTYPE
  5
34
100
AcDbSymbolTableRecord
100
AcDbLinetypeTableRecord
  2
DASHDOT
 70
0
  3
Dash dot __ . __ . __ . __ . __ . __ . __ . __
 72
65
 73
4
 40
25.400000000000002
 49
12.699999999999999
 74
0
 49
-6.2999999999999998
 74
0
 49
0.1
 74
0
 49
-6.2999999999999998
 74
0
  0
LTYPE
  5
35
100
AcDbSymbolTableRecord
100
AcDbLinetypeTableRecord
  2
DIVIDEX2
 70
0
  3
Divide (2x) ________  .  .  ________  .  .  _
 72
65
 73
6
 40
63.5
 49
25.399999999999999
 74
0
 49
-12.65
 74
0
 49
0.1
 74
0
 49
-12.6
 74
0
 49
0.1
 74
0
 49
-12.65
 74
0
  0
LTYPE
  5
36
100
AcDbSymbolTableRecord
100
AcDbLinetypeTableRecord
  2
TRACKS
 70
0
  3
Tracks -|-|-|-|-|-|-|-|-|-|-|-|-|-|-|-|-|-|-|-|-|-|-|-|-
 72
65
 73
2
 40
7.6200000000000001
 49
3.8100000000000001
 74
0
 49
3.8100000000000001
 74
0
  0
LTYPE
  5
37
100
AcDbSymbolTableRecord
100
AcDbLinetypeTableRecord
  2
ACAD_ISO08W100
 70
0
  3
ISO long-dash short-dash ____ __ ____ __ ____ _
 72
65
 73
4
 40
36.0
 49
24.0
 74
0
 49
-3.0
 74
0
 49
6.0
 74
0
 49
-3.0
 74
0
  0
LTYPE
  5
38
100
AcDbSymbolTableRecord
100
AcDbLinetypeTableRecord
  2
HIDDEN
 70
0
  3
Hidden __ __ __ __ __ __ __ __ __ __ __ __ __ __
 72
65
 73
2
 40
9.5249999999999986
 49
6.3499999999999996
 74
0
 49
-3.1749999999999998
 74
0
  0
LTYPE
  5
39
100
AcDbSymbolTableRecord
100
AcDbLinetypeTableRecord
  2
FENCELINE1
 70
0
  3
Fenceline circle ----0-----0----0-----0----0-----0--
 72
65
 73
4
 40
36.829999999999998
 49
6.3499999999999996
 74
0
 49
-2.54
 74
0
 49
-2.54
 74
0
 49
25.399999999999999
 74
0
  0
LTYPE
  5
3A
100
AcDbSymbolTableRecord
100
AcDbLinetypeTableRecord
  2
FENCELINE2
 70
0
  3
Fenceline square ----[]-----[]----[]-----[]----[]---
 72
65
 73
4
 40
36.829999999999998
 49
6.3499999999999996
 74
0
 49
-2.54
 74
0
 49
-2.54
 74
0
 49
25.399999999999999
 74
0
  0
LTYPE
  5
3B
100
AcDbSymbolTableRecord
100
AcDbLinetypeTableRecord
  2
DIVIDE
 70
0
  3
Divide ____ . . ____ . . ____ . . ____ . . ____
 72
65
 73
6
 40
31.750000000000004
 49
12.699999999999999
 74
0
 49
-6.2999999999999998
 74
0
 49
0.1
 74
0
 49
-6.25
 74
0
 49
0.1
 74
0
 49
-6.2999999999999998
 74
0
  0
LTYPE
  5
3C
100
AcDbSymbolTableRecord
100
AcDbLinetypeTableRecord
  2
DOT2
 70
0
  3
Dot (.5x) ........................................
 72
65
 73
2
 40
3.1750000000000003
 49
0.1
 74
0
 49
-3.0750000000000002
 74
0
  0
LTYPE
  5
3D
100
AcDbSymbolTableRecord
100
AcDbLinetypeTableRecord
  2
DOT
 70
0
  3
Dot . . . . . . . . . . . . . . . . . . . . . . . .
 72
65
 73
2
 40
6.3499999999999996
 49
0.1
 74
0
 49
-6.25
 74
0
  0
LTYPE
  5
3E
100
AcDbSymbolTableRecord
100
AcDbLinetypeTableRecord
  2
PHANTOM
 70
0
  3
Phantom ______  __  __  ______  __  __  ______ 
 72
65
 73
6
 40
63.500000000000007
 49
31.75
 74
0
 49
-6.3499999999999996
 74
0
 49
6.3499999999999996
 74
0
 49
-6.3499999999999996
 74
0
 49
6.3499999999999996
 74
0
 49
-6.3499999999999996
 74
0
  0
LTYPE
  5
3F
100
AcDbSymbolTableRecord
100
AcDbLinetypeTableRecord
  2
DASHEDX2
 70
0
  3
Dashed (2x) ____  ____  ____  ____  ____  ___
 72
65
 73
2
 40
38.099999999999994
 49
25.399999999999999
 74
0
 49
-12.699999999999999
 74
0
  0
LTYPE
  5
40
100
AcDbSymbolTableRecord
100
AcDbLinetypeTableRecord
  2
ACAD_ISO13W100
 70
0
  3
ISO double-dash double-dot __ __ . . __ __ . . _
 72
65
 73
8
 40
36.000000000000007
 49
12.0
 74
0
 49
-3.0
 74
0
 49
12.0
 74
0
 49
-2.9500000000000002
 74
0
 49
0.1
 74
0
 49
-2.8999999999999999
 74
0
 49
0.1
 74
0
 49
-2.9500000000000002
 74
0
  0
LTYPE
  5
41
100
AcDbSymbolTableRecord
100
AcDbLinetypeTableRecord
  2
ACAD_ISO02W100
 70
0
  3
ISO dash __ __ __ __ __ __ __ __ __ __ __ __ __
 72
65
 73
2
 40
15.0
 49
12.0
 74
0
 49
-3.0
 74
0
  0
LTYPE
  5
42
100
AcDbSymbolTableRecord
100
AcDbLinetypeTableRecord
  2
PHANTOM2
 70
0
  3
Phantom (.5x) ___ _ _ ___ _ _ ___ _ _ ___ _ _
 72
65
 73
6
 40
31.750000000000004
 49
15.875
 74
0
 49
-3.1749999999999998
 74
0
 49
3.1749999999999998
 74
0
 49
-3.1749999999999998
 74
0
 49
3.1749999999999998
 74
0
 49
-3.1749999999999998
 74
0
  0
LTYPE
  5
43
100
AcDbSymbolTableRecord
100
AcDbLinetypeTableRecord
  2
BORDER2
 70
0
  3
Border (.5x) __.__.__.__.__.__.__.__.__.__.__.
 72
65
 73
6
 40
22.225000000000001
 49
6.3499999999999996
 74
0
 49
-3.1749999999999998
 74
0
 49
6.3499999999999996
 74
0
 49
-3.125
 74
0
 49
0.1
 74
0
 49
-3.125
 74
0
  0
LTYPE
  5
44
100
AcDbSymbolTableRecord
100
AcDbLinetypeTableRecord
  2
DOTX2
 70
0
  3
Dot (2x) .  .  .  .  .  .  .  .  .  .  .  .  .  .
 72
65
 73
2
 40
12.699999999999999
 49
0.1
 74
0
 49
-12.6
 74
0
  0
LTYPE
  5
45
100
AcDbSymbolTableRecord
100
AcDbLinetypeTableRecord
  2
PHANTOMX2
 70
0
  3
Phantom (2x) ____________    ____    ____   _
 72
65
 73
6
 40
127.00000000000001
 49
63.5
 74
0
 49
-12.699999999999999
 74
0
 49
12.699999999999999
 74
0
 49
-12.699999999999999
 74
0
 49
12.699999999999999
 74
0
 49
-12.699999999999999
 74
0
  0
LTYPE
  5
46
100
AcDbSymbolTableRecord
100
AcDbLinetypeTableRecord
  2
DASHDOTX2
 70
0
  3
Dash dot (2x) ____  .  ____  .  ____  .  ___
 72
65
 73
4
 40
50.799999999999997
 49
25.399999999999999
 74
0
 49
-12.65
 74
0
 49
0.1
 74
0
 49
-12.65
 74
0
  0
LTYPE
  5
47
100
AcDbSymbolTableRecord
100
AcDbLinetypeTableRecord
  2
BORDERX2
 70
0
  3
Border (2x) ____  ____  .  ____  ____  .  ___
 72
65
 73
6
 40
88.899999999999991
 49
25.399999999999999
 74
0
 49
-12.699999999999999
 74
0
 49
25.399999999999999
 74
0
 49
-12.65
 74
0
 49
0.1
 74
0
 49
-12.65
 74
0
  0
LTYPE
  5
48
100
AcDbSymbolTableRecord
100
AcDbLinetypeTableRecord
  2
ACAD_ISO15W100
 70
0
  3
ISO double-dash triple-dot __ __ . . . __ __ . .
 72
65
 73
10
 40
39.000000000000007
 49
12.0
 74
0
 49
-3.0
 74
0
 49
12.0
 74
0
 49
-2.9500000000000002
 74
0
 49
0.1
 74
0
 49
-2.8999999999999999
 74
0
 49
0.1
 74
0
 49
-2.8999999999999999
 74
0
 49
0.1
 74
0
 49
-2.9500000000000002
 74
0
  0
LTYPE
  5
49
100
AcDbSymbolTableRecord
100
AcDbLinetypeTableRecord
  2
BORDER
 70
0
  3
Border __ __ . __ __ . __ __ . __ __ . __ __ .
 72
65
 73
6
 40
44.449999999999996
 49
12.699999999999999
 74
0
 49
-6.3499999999999996
 74
0
 49
12.699999999999999
 74
0
 49
-6.2999999999999998
 74
0
 49
0.1
 74
0
 49
-6.2999999999999998
 74
0
  0
LTYPE
  5
4A
100
AcDbSymbolTableRecord
100
AcDbLinetypeTableRecord
  2
ACAD_ISO07W100
 70
0
  3
ISO dot . . . . . . . . . . . . . . . . . . . . 
 72
65
 73
2
 40
3.0
 49
0.1
 74
0
 49
-2.8999999999999999
 74
0
  0
LTYPE
  5
14
100
AcDbSymbolTableRecord
100
AcDbLinetypeTableRecord
  2
ByBlock
 70
0
  3

 72
65
 73
0
 40
0.0
  0
LTYPE
  5
4B
100
AcDbSymbolTableRecord
100
AcDbLinetypeTableRecord
  2
HIDDEN2
 70
0
  3
Hidden (.5x) _ _ _ _ _ _ _ _ _ _ _ _ _ _ _ _ _ 
 72
65
 73
2
 40
4.7624999999999993
 49
3.1749999999999998
 74
0
 49
-1.5874999999999999
 74
0
  0
LTYPE
  5
4C
100
AcDbSymbolTableRecord
100
AcDbLinetypeTableRecord
  2
GAS_LINE
 70
0
  3
Gas line ----GAS----GAS----GAS----GAS----GAS----GAS--
 72
65
 73
3
 40
24.130000000000003
 49
12.699999999999999
 74
0
 49
-5.0800000000000001
 74
0
 49
-6.3499999999999996
 74
0
  0
LTYPE
  5
4D
100
AcDbSymbolTableRecord
100
AcDbLinetypeTableRecord
  2
DASHED
 70
0
  3
Dashed __ __ __ __ __ __ __ __ __ __ __ __ __ _
 72
65
 73
2
 40
19.049999999999997
 49
12.699999999999999
 74
0
 49
-6.3499999999999996
 74
0
  0
LTYPE
  5
4E
100
AcDbSymbolTableRecord
100
AcDbLinetypeTableRecord
  2
CENTERX2
 70
0
  3
Center (2x) ________  __  ________  __  _____
 72
65
 73
4
 40
101.60000000000001
 49
63.5
 74
0
 49
-12.699999999999999
 74
0
 49
12.699999999999999
 74
0
 49
-12.699999999999999
 74
0
  0
LTYPE
  5
4F
100
AcDbSymbolTableRecord
100
AcDbLinetypeTableRecord
  2
ZIGZAG
 70
0
  3
Zig zag /\/\/\/\/\/\/\/\/\/\/\/\/\/\/\/\/\/\/\/\/\/\/\/
 72
65
 73
4
 40
20.32254
 49
0.00254
 74
0
 49
-5.0800000000000001
 74
0
 49
-10.16
 74
0
 49
-5.0800000000000001
 74
0
  0
LTYPE
  5
50
100
AcDbSymbolTableRecord
100
AcDbLinetypeTableRecord
  2
ACAD_ISO04W100
 70
0
  3
ISO long-dash dot ____ . ____ . ____ . ____ . _
 72
65
 73
4
 40
30.0
 49
24.0
 74
0
 49
-2.9500000000000002
 74
0
 49
0.1
 74
0
 49
-2.9500000000000002
 74
0
  0
LTYPE
  5
51
100
AcDbSymbolTableRecord
100
AcDbLinetypeTableRecord
  2
ACAD_ISO03W100
 70
0
  3
ISO dash space __    __    __    __    __    __
 72
65
 73
2
 40
30.0
 49
12.0
 74
0
 49
-18.0
 74
0
  0
LTYPE
  5
52
100
AcDbSymbolTableRecord
100
AcDbLinetypeTableRecord
  2
BATTING
 70
0
  3
Batting SSSSSSSSSSSSSSSSSSSSSSSSSSSSSSSSSSSSSSSSSSSSSSS
 72
65
 73
4
 40
10.16254
 49
0.00254
 74
0
 49
-2.54
 74
0
 49
-5.0800000000000001
 74
0
 49
-2.54
 74
0
  0
LTYPE
  5
53
100
AcDbSymbolTableRecord
100
AcDbLinetypeTableRecord
  2
HOT_WATER_SUPPLY
 70
0
  3
Hot water supply ---- HW ---- HW ---- HW ----
 72
65
 73
3
 40
22.859999999999999
 49
12.699999999999999
 74
0
 49
-5.0800000000000001
 74
0
 49
-5.0800000000000001
 74
0
  0
LTYPE
  5
54
100
AcDbSymbolTableRecord
100
AcDbLinetypeTableRecord
  2
DRAINAGE
 70
0
  3
Drainage ---->---->---->----
 72
65
 73
2
 40
10.16
 49
5.0800000000000001
 74
0
 49
5.0800000000000001
 74
0
  0
LTYPE
  5
55
100
AcDbSymbolTableRecord
100
AcDbLinetypeTableRecord
  2
ACAD_ISO10W100
 70
0
  3
ISO dash dot __ . __ . __ . __ . __ . __ . __ . 
 72
65
 73
4
 40
18.0
 49
12.0
 74
0
 49
-2.9500000000000002
 74
0
 49
0.1
 74
0
 49
-2.9500000000000002
 74
0
  0
LTYPE
  5
56
100
AcDbSymbolTableRecord
100
AcDbLinetypeTableRecord
  2
ACAD_ISO05W100
 70
0
  3
ISO long-dash double-dot ____ .. ____ .. ____ . 
 72
65
 73
6
 40
33.0
 49
24.0
 74
0
 49
-2.9500000000000002
 74
0
 49
0.1
 74
0
 49
-2.8999999999999999
 74
0
 49
0.1
 74
0
 49
-2.9500000000000002
 74
0
  0
LTYPE
  5
57
100
AcDbSymbolTableRecord
100
AcDbLinetypeTableRecord
  2
CENTER
 70
0
  3
Center ____ _ ____ _ ____ _ ____ _ ____ _ ____
 72
65
 73
4
 40
50.800000000000004
 49
31.75
 74
0
 49
-6.3499999999999996
 74
0
 49
6.3499999999999996
 74
0
 49
-6.3499999999999996
 74
0
  0
LTYPE
  5
58
100
AcDbSymbolTableRecord
100
AcDbLinetypeTableRecord
  2
DIVIDE2
 70
0
  3
Divide (.5x) __..__..__..__..__..__..__..__.._
 72
65
 73
6
 40
15.874999999999998
 49
6.3499999999999996
 74
0
 49
-3.125
 74
0
 49
0.1
 74
0
 49
-3.0750000000000002
 74
0
 49
0.1
 74
0
 49
-3.125
 74
0
  0
LTYPE
  5
15
100
AcDbSymbolTableRecord
100
AcDbLinetypeTableRecord
  2
ByLayer
 70
0
  3

 72
65
 73
0
 40
0.0
  0
LTYPE
  5
59
100
AcDbSymbolTableRecord
100
AcDbLinetypeTableRecord
  2
ACAD_ISO12W100
 70
0
  3
ISO dash double-dot __ . . __ . . __ . . __ . . 
 72
65
 73
6
 40
21.0
 49
12.0
 74
0
 49
-2.9500000000000002
 74
0
 49
0.1
 74
0
 49
-2.8999999999999999
 74
0
 49
0.1
 74
0
 49
-2.9500000000000002
 74
0
  0
LTYPE
  5
5A
100
AcDbSymbolTableRecord
100
AcDbLinetypeTableRecord
  2
ACAD_ISO11W100
 70
0
  3
ISO double-dash dot __ __ . __ __ . __ __ . __ _
 72
65
 73
6
 40
33.0
 49
12.0
 74
0
 49
-3.0
 74
0
 49
12.0
 74
0
 49
-2.9500000000000002
 74
0
 49
0.1
 74
0
 49
-2.9500000000000002
 74
0
  0
LTYPE
  5
5B
100
AcDbSymbolTableRecord
100
AcDbLinetypeTableRecord
  2
ACAD_ISO06W100
 70
0
  3
ISO long-dash triple-dot ____ ... ____ ... ____
 72
65
 73
8
 40
36.000000000000007
 49
24.0
 74
0
 49
-2.9500000000000002
 74
0
 49
0.1
 74
0
 49
-2.8999999999999999
 74
0
 49
0.1
 74
0
 49
-2.8999999999999999
 74
0
 49
0.1
 74
0
 49
-2.9500000000000002
 74
0
  0
LTYPE
  5
5C
100
AcDbSymbolTableRecord
100
AcDbLinetypeTableRecord
  2
CENTER2
 70
0
  3
Center (.5x) ___ _ ___ _ ___ _ ___ _ ___ _ ___
 72
65
 73
4
 40
28.575000000000003
 49
19.050000000000001
 74
0
 49
-3.1749999999999998
 74
0
 49
3.1749999999999998
 74
0
 49
-3.1749999999999998
 74
0
  0
LTYPE
  5
5D
100
AcDbSymbolTableRecord
100
AcDbLinetypeTableRecord
  2
DRAINAGE2
 70
0
  3
Drainage reversed----<----<----<----
 72
65
 73
2
 40
10.16
 49
5.0800000000000001
 74
0
 49
5.0800000000000001
 74
0
  0
LTYPE
  5
5E
100
AcDbSymbolTableRecord
100
AcDbLinetypeTableRecord
  2
DASHED2
 70
0
  3
Dashed (.5x) _ _ _ _ _ _ _ _ _ _ _ _ _ _ _ _ _ 
 72
65
 73
2
 40
9.5249999999999986
 49
6.3499999999999996
 74
0
 49
-3.1749999999999998
 74
0
  0
LTYPE
  5
5F
100
AcDbSymbolTableRecord
100
AcDbLinetypeTableRecord
  2
HIDDENX2
 70
0
  3
Hidden (2x) ____ ____ ____ ____ ____ ____ ____ 
 72
65
 73
2
 40
19.049999999999997
 49
12.699999999999999
 74
0
 49
-6.3499999999999996
 74
0
  0
ENDTAB
  0
TABLE
  2
LAYER
  5
2
100
AcDbSymbolTable
 70
1
  0
LAYER
  5
10
100
AcDbSymbolTableRecord
100
AcDbLayerTableRecord
  2
0
 70
0
 62
7
420
16777215
  6
Continuous
370
25
390
F
  0
ENDTAB
  0
TABLE
  2
STYLE
  5
3
100
AcDbSymbolTable
 70
2
  0
STYLE
  5
60
100
AcDbSymbolTableRecord
100
AcDbTextStyleTableRecord
  2
Standard
 70
0
 40
0.0
 41
1.0
 50
0.0
 71
0
 42
2.5
  3

  4

1001
ACAD
1000
txt
1071
0
  0
STYLE
  5
61
100
AcDbSymbolTableRecord
100
AcDbTextStyleTableRecord
  2
textstyle0
 70
0
 40
0.0
 41
1.0
 50
0.0
 71
0
 42
10.0
  3

  4

1001
ACAD
1000
Arial
1071
0
  0
ENDTAB
  0
TABLE
  2
VIEW
  5
6
100
AcDbSymbolTable
 70
0
  0
ENDTAB
  0
TABLE
  2
UCS
  5
7
100
AcDbSymbolTable
 70
0
  0
ENDTAB
  0
TABLE
  2
APPID
  5
9
100
AcDbSymbolTable
 70
1
  0
APPID
  5
12
100
AcDbSymbolTableRecord
100
AcDbRegAppTableRecord
  2
ACAD
 70
0
  0
APPID
  5
62
100
AcDbSymbolTableRecord
100
AcDbRegAppTableRecord
  2
QCAD
 70
0
  0
ENDTAB
  0
TABLE
  2
DIMSTYLE
  5
A
100
AcDbSymbolTable
 70
1
100
AcDbDimStyleTable
 71
0
  0
DIMSTYLE
105
27
100
AcDbSymbolTableRecord
100
AcDbDimStyleTableRecord
  2
Standard
 41
2.5
 42
0.625
 43
3.75
 44
1.25
 70
0
 73
0
 74
0
 77
1
 78
8
140
2.5
141
2.5
143
0.03937007874016
147
0.625
171
3
172
1
271
2
272
2
274
3
278
44
283
0
284
8
340
60
  0
ENDTAB
  0
TABLE
  2
BLOCK_RECORD
  5
1
100
AcDbSymbolTable
 70
1
  0
BLOCK_RECORD
  5
1F
100
AcDbSymbolTableRecord
100
AcDbBlockTableRecord
  2
*Model_Space
340
22
  0
BLOCK_RECORD
  5
1B
100
AcDbSymbolTableRecord
100
AcDbBlockTableRecord
  2
*Paper_Space
340
1E
  0
BLOCK_RECORD
  5
23
100
AcDbSymbolTableRecord
100
AcDbBlockTableRecord
  2
*Paper_Space0
340
26
  0
ENDTAB
  0
ENDSEC
  0
SECTION
  2
BLOCKS
  0
BLOCK
  5
20
100
AcDbEntity
  8
0
100
AcDbBlockBegin
  2
*Model_Space
 70
0
 10
0.0
 20
0.0
 30
0.0
  3
*Model_Space
  1

  0
ENDBLK
  5
21
100
AcDbEntity
  8
0
100
AcDbBlockEnd
  0
BLOCK
  5
1C
100
AcDbEntity
 67
1
  8
0
100
AcDbBlockBegin
  2
*Paper_Space
 70
0
 10
0.0
 20
0.0
 30
0.0
  3
*Paper_Space
  1

  0
ENDBLK
  5
1D
100
AcDbEntity
 67
1
  8
0
100
AcDbBlockEnd
  0
BLOCK
  5
24
100
AcDbEntity
  8
0
100
AcDbBlockBegin
  2
*Paper_Space0
 70
0
 10
0.0
 20
0.0
 30
0.0
  3
*Paper_Space0
  1

  0
ENDBLK
  5
25
100
AcDbEntity
  8
0
100
AcDbBlockEnd
  0
ENDSEC
  0
SECTION
  2
ENTITIES
  0
LINE
  5
63
100
AcDbEntity
  8
0
 62
256
370
-1
 48
1.0
  6
ByLayer
100
AcDbLine
 10
-128.05999999999963
 20
136.18000000000018
 30
0.0
 11
-150.05999999999969
 21
136.18000000000018
 31
0.0
  0
LINE
  5
64
100
AcDbEntity
  8
0
 62
256
370
-1
 48
1.0
  6
ByLayer
100
AcDbLine
 10
-150.05999999999969
 20
136.18000000000018
 30
0.0
 11
-150.05999999999972
 21
66.180000000000064
 31
0.0
  0
LINE
  5
65
100
AcDbEntity
  8
0
 62
256
370
-1
 48
1.0
  6
ByLayer
100
AcDbLine
 10
-150.05999999999972
 20
66.180000000000064
 30
0.0
 11
-84.059999999999704
 21
66.180000000000049
 31
0.0
  0
LINE
  5
66
100
AcDbEntity
  8
0
 62
256
370
-1
 48
1.0
  6
ByLayer
100
AcDbLine
 10
-106.05999999999969
 20
136.18000000000018
 30
0.0
 11
-106.05999999999966
 21
142.90000000000015
 31
0.0
  0
LINE
  5
67
100
AcDbEntity
  8
0
 62
256
370
-1
 48
1.0
  6
ByLayer
100
AcDbLine
 10
-128.05999999999963
 20
142.90000000000018
 30
0.0
 11
-128.05999999999963
 21
136.18000000000018
 31
0.0
  0
ARC
  5
68
100
AcDbEntity
  8
0
 62
256
370
-1
 48
1.0
  6
ByLayer
100
AcDbCircle
 10
70.173962824641336
 20
-339.88000000000011
 30
0.0
 40
1.5749999999999886
100
AcDbArc
 50
0.0
 51
180.0
  0
LINE
  5
69
100
AcDbEntity
  8
0
 62
256
370
-1
 48
1.0
  6
ByLayer
100
AcDbLine
 10
71.748962824641325
 20
-339.87999999999954
 30
0.0
 11
71.748962824641325
 21
-339.97999999999956
 31
0.0
  0
ARC
  5
6A
100
AcDbEntity
  8
0
 62
256
370
-1
 48
1.0
  6
ByLayer
100
AcDbCircle
 10
70.173962824641336
 20
-339.98000000000013
 30
0.0
 40
1.5749999999999886
100
AcDbArc
 50
180.0
 51
0.0
  0
LINE
  5
6B
100
AcDbEntity
  8
0
 62
256
370
-1
 48
1.0
  6
ByLayer
100
AcDbLine
 10
68.598962824641347
 20
-339.9800000000007
 30
0.0
 11
68.598962824641347
 21
-339.88000000000068
 31
0.0
  0
ARC
  5
6C
100
AcDbEntity
  8
0
 62
256
370
-1
 48
1.0
  6
ByLayer
100
AcDbCircle
 10
-158.88603717535841
 20
-298.15999999999997
 30
0.0
 40
7.5000000000000142
100
AcDbArc
 50
180.0
 51
0.0
  0
LINE
  5
6D
100
AcDbEntity
  8
0
 62
256
370
-1
 48
1.0
  6
ByLayer
100
AcDbLine
 10
-166.38603717535841
 20
-298.15999999999997
 30
0.0
 11
-166.38603717535835
 21
-283.15999999999997
 31
0.0
  0
ARC
  5
6E
100
AcDbEntity
  8
0
 62
256
370
-1
 48
1.0
  6
ByLayer
100
AcDbCircle
 10
-158.88603717535841
 20
-283.15999999999997
 30
0.0
 40
7.4999999999999574
100
AcDbArc
 50
0.0
 51
180.0
  0
LINE
  5
6F
100
AcDbEntity
  8
0
 62
256
370
-1
 48
1.0
  6
ByLayer
100
AcDbLine
 10
-151.38603717535844
 20
-283.15999999999997
 30
0.0
 11
-151.38603717535838
 21
-298.15999999999997
 31
0.0
  0
LINE
  5
70
100
AcDbEntity
  8
0
 62
256
370
-1
 48
1.0
  6
ByLayer
100
AcDbLine
 10
-59.576037175358792
 20
-320.1600000000002
 30
0.0
 11
-59.576037175358778
 21
-326.88000000000017
 31
0.0
  0
LINE
  5
71
100
AcDbEntity
  8
0
 62
256
370
-1
 48
1.0
  6
ByLayer
100
AcDbLine
 10
-59.576037175358778
 20
-326.88000000000017
 30
0.0
 11
-69.576037175358778
 21
-326.88000000000022
 31
0.0
  0
LINE
  5
72
100
AcDbEntity
  8
0
 62
256
370
-1
 48
1.0
  6
ByLayer
100
AcDbLine
 10
-69.576037175358778
 20
-326.88000000000022
 30
0.0
 11
-69.576037175358763
 21
-320.16000000000014
 31
0.0
  0
LINE
  5
73
100
AcDbEntity
  8
0
 62
256
370
-1
 48
1.0
  6
ByLayer
100
AcDbLine
 10
-69.576037175358763
 20
-320.16000000000014
 30
0.0
 11
-59.576037175358792
 21
-320.1600000000002
 31
0.0
  0
ARC
  5
74
100
AcDbEntity
  8
0
 62
256
370
-1
 48
1.0
  6
ByLayer
100
AcDbCircle
 10
133.23396282464114
 20
-270.27999999999986
 30
0.0
 40
7.5
100
AcDbArc
 50
0.0
 51
180.0
  0
LINE
  5
75
100
AcDbEntity
  8
0
 62
256
370
-1
 48
1.0
  6
ByLayer
100
AcDbLine
 10
140.73396282464114
 20
-270.27999999999986
 30
0.0
 11
140.73396282464108
 21
-285.27999999999986
 31
0.0
  0
ARC
  5
76
100
AcDbEntity
  8
0
 62
256
370
-1
 48
1.0
  6
ByLayer
100
AcDbCircle
 10
133.23396282464111
 20
-285.27999999999986
 30
0.0
 40
7.4999999999999645
100
AcDbArc
 50
180.0
 51
0.0
  0
LINE
  5
77
100
AcDbEntity
  8
0
 62
256
370
-1
 48
1.0
  6
ByLayer
100
AcDbLine
 10
125.73396282464115
 20
-285.27999999999986
 30
0.0
 11
125.73396282464114
 21
-270.27999999999986
 31
0.0
  0
LINE
  5
78
100
AcDbEntity
  8
0
 62
256
370
-1
 48
1.0
  6
ByLayer
100
AcDbLine
 10
-141.78
 20
-99.000000000000114
 30
0.0
 11
-141.78
 21
-96.219999999999914
 31
0.0
  0
ARC
  5
79
100
AcDbEntity
  8
0
 62
256
370
-1
 48
1.0
  6
ByLayer
100
AcDbCircle
 10
-135.06
 20
-96.219999999999899
 30
0.0
 40
6.7200000000000122
100
AcDbArc
 50
90.0
 51
180.0
  0
LINE
  5
7A
100
AcDbEntity
  8
0
 62
256
370
-1
 48
1.0
  6
ByLayer
100
AcDbLine
 10
-135.06
 20
-89.499999999999886
 30
0.0
 11
-122.5
 21
-89.499999999999886
 31
0.0
  0
ARC
  5
7B
100
AcDbEntity
  8
0
 62
256
370
-1
 48
1.0
  6
ByLayer
100
AcDbCircle
 10
-122.50000000000001
 20
-96.219999999999899
 30
0.0
 40
6.7200000000000122
100
AcDbArc
 50
360.0
 51
89.999999999999886
  0
LINE
  5
7C
100
AcDbEntity
  8
0
 62
256
370
-1
 48
1.0
  6
ByLayer
100
AcDbLine
 10
-115.78
 20
-96.219999999999914
 30
0.0
 11
-115.78
 21
-99.000000000000114
 31
0.0
  0
ARC
  5
7D
100
AcDbEntity
  8
0
 62
256
370
-1
 48
1.0
  6
ByLayer
100
AcDbCircle
 10
-122.50000000000001
 20
-99.000000000000128
 30
0.0
 40
6.7200000000000122
100
AcDbArc
 50
270.00000000000011
 51
0.0
  0
LINE
  5
7E
100
AcDbEntity
  8
0
 62
256
370
-1
 48
1.0
  6
ByLayer
100
AcDbLine
 10
-122.5
 20
-105.72000000000014
 30
0.0
 11
-135.06
 21
-105.72000000000014
 31
0.0
  0
ARC
  5
7F
100
AcDbEntity
  8
0
 62
256
370
-1
 48
1.0
  6
ByLayer
100
AcDbCircle
 10
-135.06
 20
-99.000000000000128
 30
0.0
 40
6.7200000000000122
100
AcDbArc
 50
180.0
 51
270.0
  0
ARC
  5
80
100
AcDbEntity
  8
0
 62
256
370
-1
 48
1.0
  6
ByLayer
100
AcDbCircle
 10
70.173962824641336
 20
-253.88000000000011
 30
0.0
 40
1.5749999999999886
100
AcDbArc
 50
180.0
 51
360.0
  0
LINE
  5
81
100
AcDbEntity
  8
0
 62
256
370
-1
 48
1.0
  6
ByLayer
100
AcDbLine
 10
71.748962824641325
 20
-253.88000000000068
 30
0.0
 11
71.748962824641325
 21
-253.78000000000065
 31
0.0
  0
ARC
  5
82
100
AcDbEntity
  8
0
 62
256
370
-1
 48
1.0
  6
ByLayer
100
AcDbCircle
 10
70.173962824641336
 20
-253.78000000000009
 30
0.0
 40
1.5749999999999886
100
AcDbArc
 50
360.0
 51
180.0
  0
LINE
  5
83
100
AcDbEntity
  8
0
 62
256
370
-1
 48
1.0
  6
ByLayer
100
AcDbLine
 10
68.598962824641347
 20
-253.77999999999955
 30
0.0
 11
68.598962824641347
 21
-253.87999999999957
 31
0.0
  0
CIRCLE
  5
84
100
AcDbEntity
  8
0
 62
256
370
-1
 48
1.0
  6
ByLayer
100
AcDbCircle
 10
-133.55999999999969
 20
79.210000000000164
 30
0.0
 40
2.0
  0
ARC
  5
85
100
AcDbEntity
  8
0
 62
256
370
-1
 48
1.0
  6
ByLayer
100
AcDbCircle
 10
-114.82603717535866
 20
-339.88000000000011
 30
0.0
 40
1.5749999999999886
100
AcDbArc
 50
0.0
 51
180.0
  0
LINE
  5
86
100
AcDbEntity
  8
0
 62
256
370
-1
 48
1.0
  6
ByLayer
100
AcDbLine
 10
-113.25103717535868
 20
-339.87999999999954
 30
0.0
 11
-113.25103717535868
 21
-339.97999999999956
 31
0.0
  0
ARC
  5
87
100
AcDbEntity
  8
0
 62
256
370
-1
 48
1.0
  6
ByLayer
100
AcDbCircle
 10
-114.82603717535866
 20
-339.98000000000013
 30
0.0
 40
1.5749999999999886
100
AcDbArc
 50
180.0
 51
0.0
  0
LINE
  5
88
100
AcDbEntity
  8
0
 62
256
370
-1
 48
1.0
  6
ByLayer
100
AcDbLine
 10
-116.40103717535865
 20
-339.9800000000007
 30
0.0
 11
-116.40103717535865
 21
-339.88000000000068
 31
0.0
  0
ARC
  5
89
100
AcDbEntity
  8
0
 62
256
370
-1
 48
1.0
  6
ByLayer
100
AcDbCircle
 10
-175.88603717535841
 20
-322.87999999999977
 30
0.0
 40
2.0000000000000142
100
AcDbArc
 50
180.0
 51
270.0
  0
LINE
  5
8A
100
AcDbEntity
  8
0
 62
256
370
-1
 48
1.0
  6
ByLayer
100
AcDbLine
 10
-175.88603717535841
 20
-324.87999999999977
 30
0.0
 11
-171.16603717535841
 21
-324.87999999999982
 31
0.0
  0
LINE
  5
8B
100
AcDbEntity
  8
0
 62
256
370
-1
 48
1.0
  6
ByLayer
100
AcDbLine
 10
-171.16603717535841
 20
-324.87999999999982
 30
0.0
 11
-171.16603717535841
 21
-331.5999999999998
 31
0.0
  0
LINE
  5
8C
100
AcDbEntity
  8
0
 62
256
370
-1
 48
1.0
  6
ByLayer
100
AcDbLine
 10
-171.16603717535841
 20
-331.5999999999998
 30
0.0
 11
-190.60603717535886
 21
-331.59999999999974
 31
0.0
  0
LINE
  5
8D
100
AcDbEntity
  8
0
 62
256
370
-1
 48
1.0
  6
ByLayer
100
AcDbLine
 10
-190.60603717535886
 20
-331.59999999999974
 30
0.0
 11
-190.60603717535909
 21
-387.87999999999994
 31
0.0
  0
LINE
  5
8E
100
AcDbEntity
  8
0
 62
256
370
-1
 48
1.0
  6
ByLayer
100
AcDbLine
 10
-190.60603717535909
 20
-387.87999999999994
 30
0.0
 11
-166.32603717535855
 21
-387.8799999999996
 31
0.0
  0
LINE
  5
8F
100
AcDbEntity
  8
0
 62
256
370
-1
 48
1.0
  6
ByLayer
100
AcDbLine
 10
-166.32603717535855
 20
-387.8799999999996
 30
0.0
 11
-166.32603717535846
 21
-348.11999999999961
 31
0.0
  0
LINE
  5
90
100
AcDbEntity
  8
0
 62
256
370
-1
 48
1.0
  6
ByLayer
100
AcDbLine
 10
-166.32603717535846
 20
-348.11999999999961
 30
0.0
 11
-159.60603717535847
 21
-348.11999999999961
 31
0.0
  0
LINE
  5
91
100
AcDbEntity
  8
0
 62
256
370
-1
 48
1.0
  6
ByLayer
100
AcDbLine
 10
-159.60603717535847
 20
-348.11999999999961
 30
0.0
 11
-159.60603717535847
 21
-354.83999999999912
 31
0.0
  0
LINE
  5
92
100
AcDbEntity
  8
0
 62
256
370
-1
 48
1.0
  6
ByLayer
100
AcDbLine
 10
-159.60603717535847
 20
-354.83999999999912
 30
0.0
 11
-159.01811335646417
 21
-361.55999999999966
 31
0.0
  0
LINE
  5
93
100
AcDbEntity
  8
0
 62
256
370
-1
 48
1.0
  6
ByLayer
100
AcDbLine
 10
-159.01811335646417
 20
-361.55999999999966
 30
0.0
 11
-135.10603717535855
 21
-361.55999999999972
 31
0.0
  0
LINE
  5
94
100
AcDbEntity
  8
0
 62
256
370
-1
 48
1.0
  6
ByLayer
100
AcDbLine
 10
-135.10603717535855
 20
-324.87999999999982
 30
0.0
 11
-137.94603717535841
 21
-324.87999999999982
 31
0.0
  0
LINE
  5
95
100
AcDbEntity
  8
0
 62
256
370
-1
 48
1.0
  6
ByLayer
100
AcDbLine
 10
-137.94603717535841
 20
-324.87999999999982
 30
0.0
 11
-137.94603717535836
 21
-256.43999999999983
 31
0.0
  0
LINE
  5
96
100
AcDbEntity
  8
0
 62
256
370
-1
 48
1.0
  6
ByLayer
100
AcDbLine
 10
-137.94603717535836
 20
-256.43999999999983
 30
0.0
 11
-135.10603717535855
 21
-256.43999999999983
 31
0.0
  0
LINE
  5
97
100
AcDbEntity
  8
0
 62
256
370
-1
 48
1.0
  6
ByLayer
100
AcDbLine
 10
-135.10603717535855
 20
-219.75999999999996
 30
0.0
 11
-159.01811335646403
 21
-219.75999999999996
 31
0.0
  0
LINE
  5
98
100
AcDbEntity
  8
0
 62
256
370
-1
 48
1.0
  6
ByLayer
100
AcDbLine
 10
-159.01811335646403
 20
-219.75999999999996
 30
0.0
 11
-159.60603717535841
 21
-226.48000000000022
 31
0.0
  0
LINE
  5
99
100
AcDbEntity
  8
0
 62
256
370
-1
 48
1.0
  6
ByLayer
100
AcDbLine
 10
-159.60603717535841
 20
-226.48000000000022
 30
0.0
 11
-159.60603717535838
 21
-233.20000000000002
 31
0.0
  0
LINE
  5
9A
100
AcDbEntity
  8
0
 62
256
370
-1
 48
1.0
  6
ByLayer
100
AcDbLine
 10
-159.60603717535838
 20
-233.20000000000002
 30
0.0
 11
-166.32603717535835
 21
-233.19999999999999
 31
0.0
  0
LINE
  5
9B
100
AcDbEntity
  8
0
 62
256
370
-1
 48
1.0
  6
ByLayer
100
AcDbLine
 10
-166.32603717535835
 20
-233.19999999999999
 30
0.0
 11
-166.32603717535835
 21
-193.44000000000005
 31
0.0
  0
LINE
  5
9C
100
AcDbEntity
  8
0
 62
256
370
-1
 48
1.0
  6
ByLayer
100
AcDbLine
 10
-190.60603717535821
 20
-193.43999999999991
 30
0.0
 11
-190.60603717535858
 21
-249.71999999999977
 31
0.0
  0
LINE
  5
9D
100
AcDbEntity
  8
0
 62
256
370
-1
 48
1.0
  6
ByLayer
100
AcDbLine
 10
-190.60603717535858
 20
-249.71999999999977
 30
0.0
 11
-171.16603717535835
 21
-249.7199999999998
 31
0.0
  0
LINE
  5
9E
100
AcDbEntity
  8
0
 62
256
370
-1
 48
1.0
  6
ByLayer
100
AcDbLine
 10
-171.16603717535835
 20
-249.7199999999998
 30
0.0
 11
-171.1660371753583
 21
-256.43999999999977
 31
0.0
  0
LINE
  5
9F
100
AcDbEntity
  8
0
 62
256
370
-1
 48
1.0
  6
ByLayer
100
AcDbLine
 10
-171.1660371753583
 20
-256.43999999999977
 30
0.0
 11
-175.88603717535833
 21
-256.43999999999983
 31
0.0
  0
ARC
  5
A0
100
AcDbEntity
  8
0
 62
256
370
-1
 48
1.0
  6
ByLayer
100
AcDbCircle
 10
-175.88603717535833
 20
-258.43999999999983
 30
0.0
 40
1.9999999999999574
100
AcDbArc
 50
90.0
 51
180.0
  0
LINE
  5
A1
100
AcDbEntity
  8
0
 62
256
370
-1
 48
1.0
  6
ByLayer
100
AcDbLine
 10
-177.8860371753583
 20
-258.43999999999977
 30
0.0
 11
-177.88603717535833
 21
-266.27166666666676
 31
0.0
  0
LINE
  5
A2
100
AcDbEntity
  8
0
 62
256
370
-1
 48
1.0
  6
ByLayer
100
AcDbLine
 10
-177.88603717535833
 20
-266.27166666666676
 30
0.0
 11
-173.10603717535832
 21
-266.27166666666676
 31
0.0
  0
LINE
  5
A3
100
AcDbEntity
  8
0
 62
256
370
-1
 48
1.0
  6
ByLayer
100
AcDbLine
 10
-173.10603717535832
 20
-266.27166666666676
 30
0.0
 11
-173.10603717535832
 21
-265.24666666666678
 31
0.0
  0
ARC
  5
A4
100
AcDbEntity
  8
0
 62
256
370
-1
 48
1.0
  6
ByLayer
100
AcDbCircle
 10
-173.10603717535832
 20
-264.99666666666678
 30
0.0
 40
0.2500000000000142
100
AcDbArc
 50
0.0
 51
270.0
  0
LINE
  5
A5
100
AcDbEntity
  8
0
 62
256
370
-1
 48
1.0
  6
ByLayer
100
AcDbLine
 10
-172.8560371753583
 20
-264.99666666666678
 30
0.0
 11
-170.85603717535832
 21
-264.99666666666678
 31
0.0
  0
ARC
  5
A6
100
AcDbEntity
  8
0
 62
256
370
-1
 48
1.0
  6
ByLayer
100
AcDbCircle
 10
-170.60603717535835
 20
-264.99666666666684
 30
0.0
 40
0.2499999999999716
100
AcDbArc
 50
269.99999999999346
 51
180.0
  0
LINE
  5
A7
100
AcDbEntity
  8
0
 62
256
370
-1
 48
1.0
  6
ByLayer
100
AcDbLine
 10
-170.60603717535838
 20
-265.24666666666678
 30
0.0
 11
-170.60603717535832
 21
-266.27166666666676
 31
0.0
  0
LINE
  5
A8
100
AcDbEntity
  8
0
 62
256
370
-1
 48
1.0
  6
ByLayer
100
AcDbLine
 10
-170.60603717535832
 20
-266.27166666666676
 30
0.0
 11
-169.60603717535832
 21
-266.27166666666676
 31
0.0
  0
LINE
  5
A9
100
AcDbEntity
  8
0
 62
256
370
-1
 48
1.0
  6
ByLayer
100
AcDbLine
 10
-169.60603717535832
 20
-266.27166666666676
 30
0.0
 11
-169.60603717535832
 21
-269.42166666666674
 31
0.0
  0
LINE
  5
AA
100
AcDbEntity
  8
0
 62
256
370
-1
 48
1.0
  6
ByLayer
100
AcDbLine
 10
-169.60603717535832
 20
-269.42166666666674
 30
0.0
 11
-170.60603717535832
 21
-269.42166666666674
 31
0.0
  0
LINE
  5
AB
100
AcDbEntity
  8
0
 62
256
370
-1
 48
1.0
  6
ByLayer
100
AcDbLine
 10
-170.60603717535832
 20
-269.42166666666674
 30
0.0
 11
-170.60603717535832
 21
-270.44666666666677
 31
0.0
  0
ARC
  5
AC
100
AcDbEntity
  8
0
 62
256
370
-1
 48
1.0
  6
ByLayer
100
AcDbCircle
 10
-170.60603717535832
 20
-270.69666666666677
 30
0.0
 40
0.2499999999999858
100
AcDbArc
 50
180.0
 51
90.0
  0
LINE
  5
AD
100
AcDbEntity
  8
0
 62
256
370
-1
 48
1.0
  6
ByLayer
100
AcDbLine
 10
-170.8560371753583
 20
-270.69666666666677
 30
0.0
 11
-172.85603717535832
 21
-270.69666666666677
 31
0.0
  0
ARC
  5
AE
100
AcDbEntity
  8
0
 62
256
370
-1
 48
1.0
  6
ByLayer
100
AcDbCircle
 10
-173.10603717535835
 20
-270.69666666666672
 30
0.0
 40
0.2500000000000142
100
AcDbArc
 50
89.999999999986969
 51
360.0
  0
LINE
  5
AF
100
AcDbEntity
  8
0
 62
256
370
-1
 48
1.0
  6
ByLayer
100
AcDbLine
 10
-173.1060371753583
 20
-270.44666666666672
 30
0.0
 11
-173.10603717535832
 21
-269.42166666666674
 31
0.0
  0
LINE
  5
B0
100
AcDbEntity
  8
0
 62
256
370
-1
 48
1.0
  6
ByLayer
100
AcDbLine
 10
-173.10603717535832
 20
-269.42166666666674
 30
0.0
 11
-177.88603717535835
 21
-269.42166666666674
 31
0.0
  0
LINE
  5
B1
100
AcDbEntity
  8
0
 62
256
370
-1
 48
1.0
  6
ByLayer
100
AcDbLine
 10
-177.88603717535835
 20
-269.42166666666674
 30
0.0
 11
-177.88603717535838
 21
-279.2533333333331
 31
0.0
  0
LINE
  5
B2
100
AcDbEntity
  8
0
 62
256
370
-1
 48
1.0
  6
ByLayer
100
AcDbLine
 10
-177.88603717535838
 20
-279.2533333333331
 30
0.0
 11
-184.60603717535841
 21
-279.2533333333331
 31
0.0
  0
LINE
  5
B3
100
AcDbEntity
  8
0
 62
256
370
-1
 48
1.0
  6
ByLayer
100
AcDbLine
 10
-184.60603717535841
 20
-279.2533333333331
 30
0.0
 11
-184.60603717535838
 21
-302.06666666666644
 31
0.0
  0
LINE
  5
B4
100
AcDbEntity
  8
0
 62
256
370
-1
 48
1.0
  6
ByLayer
100
AcDbLine
 10
-184.60603717535838
 20
-302.06666666666644
 30
0.0
 11
-177.88603717535838
 21
-302.06666666666649
 31
0.0
  0
LINE
  5
B5
100
AcDbEntity
  8
0
 62
256
370
-1
 48
1.0
  6
ByLayer
100
AcDbLine
 10
-177.88603717535838
 20
-302.06666666666649
 30
0.0
 11
-177.88603717535841
 21
-311.89833333333314
 31
0.0
  0
LINE
  5
B6
100
AcDbEntity
  8
0
 62
256
370
-1
 48
1.0
  6
ByLayer
100
AcDbLine
 10
-177.88603717535841
 20
-311.89833333333314
 30
0.0
 11
-173.10603717535841
 21
-311.89833333333314
 31
0.0
  0
LINE
  5
B7
100
AcDbEntity
  8
0
 62
256
370
-1
 48
1.0
  6
ByLayer
100
AcDbLine
 10
-173.10603717535841
 20
-311.89833333333314
 30
0.0
 11
-173.10603717535838
 21
-310.87333333333311
 31
0.0
  0
ARC
  5
B8
100
AcDbEntity
  8
0
 62
256
370
-1
 48
1.0
  6
ByLayer
100
AcDbCircle
 10
-173.10603717535838
 20
-310.62333333333311
 30
0.0
 40
0.2499999999999858
100
AcDbArc
 50
0.0
 51
270.0
  0
LINE
  5
B9
100
AcDbEntity
  8
0
 62
256
370
-1
 48
1.0
  6
ByLayer
100
AcDbLine
 10
-172.85603717535841
 20
-310.62333333333311
 30
0.0
 11
-170.85603717535838
 21
-310.62333333333311
 31
0.0
  0
ARC
  5
BA
100
AcDbEntity
  8
0
 62
256
370
-1
 48
1.0
  6
ByLayer
100
AcDbCircle
 10
-170.60603717535838
 20
-310.62333333333311
 30
0.0
 40
0.2499999999999858
100
AcDbArc
 50
269.99999999999346
 51
180.0
  0
LINE
  5
BB
100
AcDbEntity
  8
0
 62
256
370
-1
 48
1.0
  6
ByLayer
100
AcDbLine
 10
-170.60603717535841
 20
-310.87333333333311
 30
0.0
 11
-170.60603717535841
 21
-311.89833333333314
 31
0.0
  0
LINE
  5
BC
100
AcDbEntity
  8
0
 62
256
370
-1
 48
1.0
  6
ByLayer
100
AcDbLine
 10
-170.60603717535841
 20
-311.89833333333314
 30
0.0
 11
-169.60603717535844
 21
-311.89833333333314
 31
0.0
  0
LINE
  5
BD
100
AcDbEntity
  8
0
 62
256
370
-1
 48
1.0
  6
ByLayer
100
AcDbLine
 10
-169.60603717535844
 20
-311.89833333333314
 30
0.0
 11
-169.60603717535844
 21
-315.04833333333312
 31
0.0
  0
LINE
  5
BE
100
AcDbEntity
  8
0
 62
256
370
-1
 48
1.0
  6
ByLayer
100
AcDbLine
 10
-169.60603717535844
 20
-315.04833333333312
 30
0.0
 11
-170.60603717535838
 21
-315.04833333333312
 31
0.0
  0
LINE
  5
BF
100
AcDbEntity
  8
0
 62
256
370
-1
 48
1.0
  6
ByLayer
100
AcDbLine
 10
-170.60603717535838
 20
-315.04833333333312
 30
0.0
 11
-170.60603717535841
 21
-316.07333333333315
 31
0.0
  0
ARC
  5
C0
100
AcDbEntity
  8
0
 62
256
370
-1
 48
1.0
  6
ByLayer
100
AcDbCircle
 10
-170.60603717535841
 20
-316.32333333333315
 30
0.0
 40
0.25
100
AcDbArc
 50
180.0
 51
90.0
  0
LINE
  5
C1
100
AcDbEntity
  8
0
 62
256
370
-1
 48
1.0
  6
ByLayer
100
AcDbLine
 10
-170.85603717535841
 20
-316.32333333333315
 30
0.0
 11
-172.85603717535844
 21
-316.32333333333315
 31
0.0
  0
ARC
  5
C2
100
AcDbEntity
  8
0
 62
256
370
-1
 48
1.0
  6
ByLayer
100
AcDbCircle
 10
-173.10603717535844
 20
-316.32333333333315
 30
0.0
 40
0.2499999999999858
100
AcDbArc
 50
89.999999999993491
 51
0.0
  0
LINE
  5
C3
100
AcDbEntity
  8
0
 62
256
370
-1
 48
1.0
  6
ByLayer
100
AcDbLine
 10
-173.10603717535841
 20
-316.07333333333315
 30
0.0
 11
-173.10603717535838
 21
-315.04833333333312
 31
0.0
  0
LINE
  5
C4
100
AcDbEntity
  8
0
 62
256
370
-1
 48
1.0
  6
ByLayer
100
AcDbLine
 10
-173.10603717535838
 20
-315.04833333333312
 30
0.0
 11
-177.88603717535844
 21
-315.04833333333312
 31
0.0
  0
LINE
  5
C5
100
AcDbEntity
  8
0
 62
256
370
-1
 48
1.0
  6
ByLayer
100
AcDbLine
 10
-177.88603717535844
 20
-315.04833333333312
 30
0.0
 11
-177.88603717535844
 21
-322.87999999999977
 31
0.0
  0
LINE
  5
C6
100
AcDbEntity
  8
0
 62
256
370
-1
 48
1.0
  6
ByLayer
100
AcDbLine
 10
33.923962824641166
 20
-326.88000000000022
 30
0.0
 11
33.923962824641251
 21
-320.16000000000014
 31
0.0
  0
LINE
  5
C7
100
AcDbEntity
  8
0
 62
256
370
-1
 48
1.0
  6
ByLayer
100
AcDbLine
 10
33.923962824641251
 20
-320.16000000000014
 30
0.0
 11
43.923962824641194
 21
-320.16000000000037
 31
0.0
  0
LINE
  5
C8
100
AcDbEntity
  8
0
 62
256
370
-1
 48
1.0
  6
ByLayer
100
AcDbLine
 10
43.923962824641194
 20
-320.16000000000037
 30
0.0
 11
43.923962824641222
 21
-326.88000000000028
 31
0.0
  0
LINE
  5
C9
100
AcDbEntity
  8
0
 62
256
370
-1
 48
1.0
  6
ByLayer
100
AcDbLine
 10
43.923962824641222
 20
-326.88000000000028
 30
0.0
 11
33.923962824641166
 21
-326.88000000000022
 31
0.0
  0
ARC
  5
CA
100
AcDbEntity
  8
0
 62
256
370
-1
 48
1.0
  6
ByLayer
100
AcDbCircle
 10
150.23396282464114
 20
-245.56000000000006
 30
0.0
 40
2.0
100
AcDbArc
 50
0.0
 51
90.0
  0
LINE
  5
CB
100
AcDbEntity
  8
0
 62
256
370
-1
 48
1.0
  6
ByLayer
100
AcDbLine
 10
150.23396282464114
 20
-243.56000000000006
 30
0.0
 11
145.51396282464117
 21
-243.56
 31
0.0
  0
LINE
  5
CC
100
AcDbEntity
  8
0
 62
256
370
-1
 48
1.0
  6
ByLayer
100
AcDbLine
 10
145.51396282464117
 20
-243.56
 30
0.0
 11
145.51396282464117
 21
-236.84
 31
0.0
  0
LINE
  5
CD
100
AcDbEntity
  8
0
 62
256
370
-1
 48
1.0
  6
ByLayer
100
AcDbLine
 10
145.51396282464117
 20
-236.84
 30
0.0
 11
164.95396282464159
 21
-236.84000000000009
 31
0.0
  0
LINE
  5
CE
100
AcDbEntity
  8
0
 62
256
370
-1
 48
1.0
  6
ByLayer
100
AcDbLine
 10
164.95396282464159
 20
-236.84000000000009
 30
0.0
 11
164.95396282464179
 21
-180.55999999999986
 31
0.0
  0
LINE
  5
CF
100
AcDbEntity
  8
0
 62
256
370
-1
 48
1.0
  6
ByLayer
100
AcDbLine
 10
164.95396282464179
 20
-180.55999999999986
 30
0.0
 11
140.67396282464128
 21
-180.56000000000023
 31
0.0
  0
LINE
  5
D0
100
AcDbEntity
  8
0
 62
256
370
-1
 48
1.0
  6
ByLayer
100
AcDbLine
 10
140.67396282464128
 20
-180.56000000000023
 30
0.0
 11
140.67396282464119
 21
-220.32000000000022
 31
0.0
  0
LINE
  5
D1
100
AcDbEntity
  8
0
 62
256
370
-1
 48
1.0
  6
ByLayer
100
AcDbLine
 10
140.67396282464119
 20
-220.32000000000022
 30
0.0
 11
133.9539628246412
 21
-220.32000000000022
 31
0.0
  0
LINE
  5
D2
100
AcDbEntity
  8
0
 62
256
370
-1
 48
1.0
  6
ByLayer
100
AcDbLine
 10
133.9539628246412
 20
-220.32000000000022
 30
0.0
 11
133.9539628246412
 21
-213.60000000000065
 31
0.0
  0
LINE
  5
D3
100
AcDbEntity
  8
0
 62
256
370
-1
 48
1.0
  6
ByLayer
100
AcDbLine
 10
133.9539628246412
 20
-213.60000000000065
 30
0.0
 11
133.3660390057469
 21
-206.88000000000017
 31
0.0
  0
LINE
  5
D4
100
AcDbEntity
  8
0
 62
256
370
-1
 48
1.0
  6
ByLayer
100
AcDbLine
 10
133.3660390057469
 20
-206.88000000000017
 30
0.0
 11
109.45396282464128
 21
-206.88000000000011
 31
0.0
  0
LINE
  5
D5
100
AcDbEntity
  8
0
 62
256
370
-1
 48
1.0
  6
ByLayer
100
AcDbLine
 10
109.45396282464128
 20
-243.55999999999997
 30
0.0
 11
112.29396282464114
 21
-243.56
 31
0.0
  0
LINE
  5
D6
100
AcDbEntity
  8
0
 62
256
370
-1
 48
1.0
  6
ByLayer
100
AcDbLine
 10
112.29396282464114
 20
-243.56
 30
0.0
 11
112.29396282464111
 21
-312.0
 31
0.0
  0
LINE
  5
D7
100
AcDbEntity
  8
0
 62
256
370
-1
 48
1.0
  6
ByLayer
100
AcDbLine
 10
112.29396282464111
 20
-312.0
 30
0.0
 11
109.45396282464127
 21
-312.0
 31
0.0
  0
LINE
  5
D8
100
AcDbEntity
  8
0
 62
256
370
-1
 48
1.0
  6
ByLayer
100
AcDbLine
 10
109.45396282464125
 20
-348.67999999999984
 30
0.0
 11
133.36603900574687
 21
-348.67999999999984
 31
0.0
  0
LINE
  5
D9
100
AcDbEntity
  8
0
 62
256
370
-1
 48
1.0
  6
ByLayer
100
AcDbLine
 10
133.36603900574687
 20
-348.67999999999984
 30
0.0
 11
133.9539628246412
 21
-341.95999999999958
 31
0.0
  0
LINE
  5
DA
100
AcDbEntity
  8
0
 62
256
370
-1
 48
1.0
  6
ByLayer
100
AcDbLine
 10
133.9539628246412
 20
-341.95999999999958
 30
0.0
 11
133.95396282464108
 21
-335.23999999999978
 31
0.0
  0
LINE
  5
DB
100
AcDbEntity
  8
0
 62
256
370
-1
 48
1.0
  6
ByLayer
100
AcDbLine
 10
133.95396282464108
 20
-335.23999999999978
 30
0.0
 11
140.67396282464108
 21
-335.23999999999984
 31
0.0
  0
LINE
  5
DC
100
AcDbEntity
  8
0
 62
256
370
-1
 48
1.0
  6
ByLayer
100
AcDbLine
 10
140.67396282464108
 20
-335.23999999999984
 30
0.0
 11
140.67396282464114
 21
-374.99999999999977
 31
0.0
  0
LINE
  5
DD
100
AcDbEntity
  8
0
 62
256
370
-1
 48
1.0
  6
ByLayer
100
AcDbLine
 10
140.67396282464114
 20
-374.99999999999977
 30
0.0
 11
164.95396282464105
 21
-374.99999999999989
 31
0.0
  0
LINE
  5
DE
100
AcDbEntity
  8
0
 62
256
370
-1
 48
1.0
  6
ByLayer
100
AcDbLine
 10
164.95396282464105
 20
-374.99999999999989
 30
0.0
 11
164.95396282464128
 21
-318.72000000000003
 31
0.0
  0
LINE
  5
DF
100
AcDbEntity
  8
0
 62
256
370
-1
 48
1.0
  6
ByLayer
100
AcDbLine
 10
164.95396282464128
 20
-318.72000000000003
 30
0.0
 11
145.51396282464106
 21
-318.72000000000003
 31
0.0
  0
LINE
  5
E0
100
AcDbEntity
  8
0
 62
256
370
-1
 48
1.0
  6
ByLayer
100
AcDbLine
 10
145.51396282464106
 20
-318.72000000000003
 30
0.0
 11
145.51396282464106
 21
-312.0
 31
0.0
  0
LINE
  5
E1
100
AcDbEntity
  8
0
 62
256
370
-1
 48
1.0
  6
ByLayer
100
AcDbLine
 10
145.51396282464106
 20
-312.0
 30
0.0
 11
150.23396282464103
 21
-312.00000000000006
 31
0.0
  0
ARC
  5
E2
100
AcDbEntity
  8
0
 62
256
370
-1
 48
1.0
  6
ByLayer
100
AcDbCircle
 10
150.23396282464103
 20
-310.0
 30
0.0
 40
2.0000000000000568
100
AcDbArc
 50
270.0
 51
0.0
  0
LINE
  5
E3
100
AcDbEntity
  8
0
 62
256
370
-1
 48
1.0
  6
ByLayer
100
AcDbLine
 10
152.23396282464108
 20
-310.0
 30
0.0
 11
152.23396282464114
 21
-302.16833333333307
 31
0.0
  0
LINE
  5
E4
100
AcDbEntity
  8
0
 62
256
370
-1
 48
1.0
  6
ByLayer
100
AcDbLine
 10
152.23396282464114
 20
-302.16833333333307
 30
0.0
 11
147.45396282464105
 21
-302.16833333333307
 31
0.0
  0
LINE
  5
E5
100
AcDbEntity
  8
0
 62
256
370
-1
 48
1.0
  6
ByLayer
100
AcDbLine
 10
147.45396282464105
 20
-302.16833333333307
 30
0.0
 11
147.45396282464105
 21
-303.19333333333304
 31
0.0
  0
ARC
  5
E6
100
AcDbEntity
  8
0
 62
256
370
-1
 48
1.0
  6
ByLayer
100
AcDbCircle
 10
147.45396282464105
 20
-303.44333333333304
 30
0.0
 40
0.2500000000000142
100
AcDbArc
 50
180.0
 51
90.0
  0
LINE
  5
E7
100
AcDbEntity
  8
0
 62
256
370
-1
 48
1.0
  6
ByLayer
100
AcDbLine
 10
147.20396282464102
 20
-303.44333333333304
 30
0.0
 11
145.20396282464111
 21
-303.44333333333304
 31
0.0
  0
ARC
  5
E8
100
AcDbEntity
  8
0
 62
256
370
-1
 48
1.0
  6
ByLayer
100
AcDbCircle
 10
144.95396282464114
 20
-303.44333333333299
 30
0.0
 40
0.2499999999999716
100
AcDbArc
 50
89.999999999993491
 51
360.0
  0
LINE
  5
E9
100
AcDbEntity
  8
0
 62
256
370
-1
 48
1.0
  6
ByLayer
100
AcDbLine
 10
144.95396282464117
 20
-303.19333333333304
 30
0.0
 11
144.95396282464114
 21
-302.16833333333307
 31
0.0
  0
LINE
  5
EA
100
AcDbEntity
  8
0
 62
256
370
-1
 48
1.0
  6
ByLayer
100
AcDbLine
 10
144.95396282464114
 20
-302.16833333333307
 30
0.0
 11
143.95396282464111
 21
-302.16833333333307
 31
0.0
  0
LINE
  5
EB
100
AcDbEntity
  8
0
 62
256
370
-1
 48
1.0
  6
ByLayer
100
AcDbLine
 10
143.95396282464111
 20
-302.16833333333307
 30
0.0
 11
143.95396282464108
 21
-299.01833333333309
 31
0.0
  0
LINE
  5
EC
100
AcDbEntity
  8
0
 62
256
370
-1
 48
1.0
  6
ByLayer
100
AcDbLine
 10
143.95396282464108
 20
-299.01833333333309
 30
0.0
 11
144.95396282464105
 21
-299.01833333333309
 31
0.0
  0
LINE
  5
ED
100
AcDbEntity
  8
0
 62
256
370
-1
 48
1.0
  6
ByLayer
100
AcDbLine
 10
144.95396282464105
 20
-299.01833333333309
 30
0.0
 11
144.95396282464111
 21
-297.99333333333306
 31
0.0
  0
ARC
  5
EE
100
AcDbEntity
  8
0
 62
256
370
-1
 48
1.0
  6
ByLayer
100
AcDbCircle
 10
144.95396282464108
 20
-297.74333333333317
 30
0.0
 40
0.2499999999999289
100
AcDbArc
 50
0.0
 51
270.00000000000654
  0
LINE
  5
EF
100
AcDbEntity
  8
0
 62
256
370
-1
 48
1.0
  6
ByLayer
100
AcDbLine
 10
145.20396282464102
 20
-297.74333333333311
 30
0.0
 11
147.20396282464105
 21
-297.74333333333311
 31
0.0
  0
ARC
  5
F0
100
AcDbEntity
  8
0
 62
256
370
-1
 48
1.0
  6
ByLayer
100
AcDbCircle
 10
147.45396282464105
 20
-297.74333333333311
 30
0.0
 40
0.25
100
AcDbArc
 50
270.00000000001302
 51
180.0
  0
LINE
  5
F1
100
AcDbEntity
  8
0
 62
256
370
-1
 48
1.0
  6
ByLayer
100
AcDbLine
 10
147.45396282464111
 20
-297.99333333333306
 30
0.0
 11
147.45396282464108
 21
-299.01833333333309
 31
0.0
  0
LINE
  5
F2
100
AcDbEntity
  8
0
 62
256
370
-1
 48
1.0
  6
ByLayer
100
AcDbLine
 10
147.45396282464108
 20
-299.01833333333309
 30
0.0
 11
152.23396282464114
 21
-299.01833333333303
 31
0.0
  0
LINE
  5
F3
100
AcDbEntity
  8
0
 62
256
370
-1
 48
1.0
  6
ByLayer
100
AcDbLine
 10
152.23396282464114
 20
-299.01833333333303
 30
0.0
 11
152.23396282464114
 21
-289.18666666666667
 31
0.0
  0
LINE
  5
F4
100
AcDbEntity
  8
0
 62
256
370
-1
 48
1.0
  6
ByLayer
100
AcDbLine
 10
152.23396282464114
 20
-289.18666666666667
 30
0.0
 11
158.95396282464117
 21
-289.18666666666667
 31
0.0
  0
LINE
  5
F5
100
AcDbEntity
  8
0
 62
256
370
-1
 48
1.0
  6
ByLayer
100
AcDbLine
 10
158.95396282464117
 20
-289.18666666666667
 30
0.0
 11
158.95396282464114
 21
-266.37333333333339
 31
0.0
  0
LINE
  5
F6
100
AcDbEntity
  8
0
 62
256
370
-1
 48
1.0
  6
ByLayer
100
AcDbLine
 10
158.95396282464114
 20
-266.37333333333339
 30
0.0
 11
152.23396282464114
 21
-266.37333333333333
 31
0.0
  0
LINE
  5
F7
100
AcDbEntity
  8
0
 62
256
370
-1
 48
1.0
  6
ByLayer
100
AcDbLine
 10
152.23396282464114
 20
-266.37333333333333
 30
0.0
 11
152.2339628246412
 21
-256.54166666666669
 31
0.0
  0
LINE
  5
F8
100
AcDbEntity
  8
0
 62
256
370
-1
 48
1.0
  6
ByLayer
100
AcDbLine
 10
152.2339628246412
 20
-256.54166666666669
 30
0.0
 11
147.45396282464114
 21
-256.54166666666669
 31
0.0
  0
LINE
  5
F9
100
AcDbEntity
  8
0
 62
256
370
-1
 48
1.0
  6
ByLayer
100
AcDbLine
 10
147.45396282464114
 20
-256.54166666666669
 30
0.0
 11
147.45396282464114
 21
-257.56666666666672
 31
0.0
  0
ARC
  5
FA
100
AcDbEntity
  8
0
 62
256
370
-1
 48
1.0
  6
ByLayer
100
AcDbCircle
 10
147.45396282464117
 20
-257.81666666666672
 30
0.0
 40
0.2499999999999858
100
AcDbArc
 50
180.0
 51
90.000000000006509
  0
LINE
  5
FB
100
AcDbEntity
  8
0
 62
256
370
-1
 48
1.0
  6
ByLayer
100
AcDbLine
 10
147.20396282464117
 20
-257.81666666666672
 30
0.0
 11
145.20396282464117
 21
-257.81666666666666
 31
0.0
  0
ARC
  5
FC
100
AcDbEntity
  8
0
 62
256
370
-1
 48
1.0
  6
ByLayer
100
AcDbCircle
 10
144.95396282464117
 20
-257.81666666666666
 30
0.0
 40
0.25
100
AcDbArc
 50
90.0
 51
0.0
  0
LINE
  5
FD
100
AcDbEntity
  8
0
 62
256
370
-1
 48
1.0
  6
ByLayer
100
AcDbLine
 10
144.95396282464117
 20
-257.56666666666666
 30
0.0
 11
144.9539628246412
 21
-256.54166666666669
 31
0.0
  0
LINE
  5
FE
100
AcDbEntity
  8
0
 62
256
370
-1
 48
1.0
  6
ByLayer
100
AcDbLine
 10
144.9539628246412
 20
-256.54166666666669
 30
0.0
 11
143.95396282464117
 21
-256.54166666666669
 31
0.0
  0
LINE
  5
FF
100
AcDbEntity
  8
0
 62
256
370
-1
 48
1.0
  6
ByLayer
100
AcDbLine
 10
143.95396282464117
 20
-256.54166666666669
 30
0.0
 11
143.95396282464117
 21
-253.39166666666671
 31
0.0
  0
LINE
  5
100
100
AcDbEntity
  8
0
 62
256
370
-1
 48
1.0
  6
ByLayer
100
AcDbLine
 10
143.95396282464117
 20
-253.39166666666671
 30
0.0
 11
144.95396282464117
 21
-253.39166666666665
 31
0.0
  0
LINE
  5
101
100
AcDbEntity
  8
0
 62
256
370
-1
 48
1.0
  6
ByLayer
100
AcDbLine
 10
144.95396282464117
 20
-253.39166666666665
 30
0.0
 11
144.95396282464114
 21
-252.36666666666667
 31
0.0
  0
ARC
  5
102
100
AcDbEntity
  8
0
 62
256
370
-1
 48
1.0
  6
ByLayer
100
AcDbCircle
 10
144.95396282464117
 20
-252.11666666666667
 30
0.0
 40
0.2500000000000142
100
AcDbArc
 50
0.0
 51
269.99999999999346
  0
LINE
  5
103
100
AcDbEntity
  8
0
 62
256
370
-1
 48
1.0
  6
ByLayer
100
AcDbLine
 10
145.20396282464117
 20
-252.11666666666667
 30
0.0
 11
147.20396282464117
 21
-252.11666666666667
 31
0.0
  0
ARC
  5
104
100
AcDbEntity
  8
0
 62
256
370
-1
 48
1.0
  6
ByLayer
100
AcDbCircle
 10
147.4539628246412
 20
-252.1166666666667
 30
0.0
 40
0.25
100
AcDbArc
 50
269.99999999998698
 51
180.0
  0
LINE
  5
105
100
AcDbEntity
  8
0
 62
256
370
-1
 48
1.0
  6
ByLayer
100
AcDbLine
 10
147.45396282464114
 20
-252.3666666666667
 30
0.0
 11
147.45396282464111
 21
-253.39166666666668
 31
0.0
  0
LINE
  5
106
100
AcDbEntity
  8
0
 62
256
370
-1
 48
1.0
  6
ByLayer
100
AcDbLine
 10
147.45396282464111
 20
-253.39166666666668
 30
0.0
 11
152.2339628246412
 21
-253.39166666666665
 31
0.0
  0
LINE
  5
107
100
AcDbEntity
  8
0
 62
256
370
-1
 48
1.0
  6
ByLayer
100
AcDbLine
 10
152.2339628246412
 20
-253.39166666666665
 30
0.0
 11
152.23396282464117
 21
-245.56000000000003
 31
0.0
  0
LINE
  5
108
100
AcDbEntity
  8
0
 62
256
370
-1
 48
1.0
  6
ByLayer
100
AcDbLine
 10
-8.2199999999997999
 20
-99.0
 30
0.0
 11
-8.2199999999997999
 21
-96.219999999999914
 31
0.0
  0
ARC
  5
109
100
AcDbEntity
  8
0
 62
256
370
-1
 48
1.0
  6
ByLayer
100
AcDbCircle
 10
-1.4999999999997882
 20
-96.219999999999899
 30
0.0
 40
6.7200000000000122
100
AcDbArc
 50
90.000000000000114
 51
180.0
  0
LINE
  5
10A
100
AcDbEntity
  8
0
 62
256
370
-1
 48
1.0
  6
ByLayer
100
AcDbLine
 10
-1.499999999999801
 20
-89.499999999999886
 30
0.0
 11
11.060000000000173
 21
-89.499999999999886
 31
0.0
  0
ARC
  5
10B
100
AcDbEntity
  8
0
 62
256
370
-1
 48
1.0
  6
ByLayer
100
AcDbCircle
 10
11.060000000000173
 20
-96.219999999999914
 30
0.0
 40
6.7200000000000273
100
AcDbArc
 50
0.0
 51
90.0
  0
LINE
  5
10C
100
AcDbEntity
  8
0
 62
256
370
-1
 48
1.0
  6
ByLayer
100
AcDbLine
 10
17.7800000000002
 20
-96.219999999999914
 30
0.0
 11
17.7800000000002
 21
-99.0
 31
0.0
  0
ARC
  5
10D
100
AcDbEntity
  8
0
 62
256
370
-1
 48
1.0
  6
ByLayer
100
AcDbCircle
 10
11.06000000000013
 20
-99.000000000000071
 30
0.0
 40
6.7200000000000699
100
AcDbArc
 50
270.00000000000068
 51
0.0
  0
LINE
  5
10E
100
AcDbEntity
  8
0
 62
256
370
-1
 48
1.0
  6
ByLayer
100
AcDbLine
 10
11.060000000000201
 20
-105.72000000000014
 30
0.0
 11
-1.499999999999801
 21
-105.72000000000014
 31
0.0
  0
ARC
  5
10F
100
AcDbEntity
  8
0
 62
256
370
-1
 48
1.0
  6
ByLayer
100
AcDbCircle
 10
-1.49999999999973
 20
-99.000000000000071
 30
0.0
 40
6.7200000000000699
100
AcDbArc
 50
180.0
 51
269.99999999999932
  0
ARC
  5
110
100
AcDbEntity
  8
0
 62
256
370
-1
 48
1.0
  6
ByLayer
100
AcDbCircle
 10
-114.82603717535866
 20
-253.88000000000011
 30
0.0
 40
1.5749999999999886
100
AcDbArc
 50
180.0
 51
360.0
  0
LINE
  5
111
100
AcDbEntity
  8
0
 62
256
370
-1
 48
1.0
  6
ByLayer
100
AcDbLine
 10
-113.25103717535868
 20
-253.88000000000068
 30
0.0
 11
-113.25103717535868
 21
-253.78000000000065
 31
0.0
  0
ARC
  5
112
100
AcDbEntity
  8
0
 62
256
370
-1
 48
1.0
  6
ByLayer
100
AcDbCircle
 10
-114.82603717535866
 20
-253.78000000000009
 30
0.0
 40
1.5749999999999886
100
AcDbArc
 50
360.0
 51
180.0
  0
LINE
  5
113
100
AcDbEntity
  8
0
 62
256
370
-1
 48
1.0
  6
ByLayer
100
AcDbLine
 10
-116.40103717535865
 20
-253.77999999999955
 30
0.0
 11
-116.40103717535865
 21
-253.87999999999957
 31
0.0
  0
CIRCLE
  5
114
100
AcDbEntity
  8
0
 62
256
370
-1
 48
1.0
  6
ByLayer
100
AcDbCircle
 10
115.9539628246411
 20
-226.84000000000003
 30
0.0
 40
1.9999999999999989
  0
CIRCLE
  5
115
100
AcDbEntity
  8
0
 62
256
370
-1
 48
1.0
  6
ByLayer
100
AcDbCircle
 10
-141.60603717535835
 20
-341.5999999999998
 30
0.0
 40
1.9999999999999989
  0
CIRCLE
  5
116
100
AcDbEntity
  8
0
 62
256
370
-1
 48
1.0
  6
ByLayer
100
AcDbCircle
 10
-117.05999999999966
 20
102.81000000000014
 30
0.0
 40
2.0
  0
ARC
  5
117
100
AcDbEntity
  8
0
 62
256
370
-1
 48
1.0
  6
ByLayer
100
AcDbCircle
 10
89.173962824641322
 20
-339.88000000000011
 30
0.0
 40
1.5750000000000028
100
AcDbArc
 50
360.0
 51
180.0
  0
LINE
  5
118
100
AcDbEntity
  8
0
 62
256
370
-1
 48
1.0
  6
ByLayer
100
AcDbLine
 10
90.748962824641325
 20
-339.88000000000068
 30
0.0
 11
90.748962824641268
 21
-339.9800000000007
 31
0.0
  0
ARC
  5
119
100
AcDbEntity
  8
0
 62
256
370
-1
 48
1.0
  6
ByLayer
100
AcDbCircle
 10
89.173962824641293
 20
-339.98000000000013
 30
0.0
 40
1.5749999999999744
100
AcDbArc
 50
180.0
 51
360.0
  0
LINE
  5
11A
100
AcDbEntity
  8
0
 62
256
370
-1
 48
1.0
  6
ByLayer
100
AcDbLine
 10
87.598962824641319
 20
-339.97999999999956
 30
0.0
 11
87.598962824641319
 21
-339.87999999999954
 31
0.0
  0
LINE
  5
11B
100
AcDbEntity
  8
0
 62
256
370
-1
 48
1.0
  6
ByLayer
100
AcDbLine
 10
-59.576037175358763
 20
-266.88000000000011
 30
0.0
 11
-59.576037175358763
 21
-273.59999999999997
 31
0.0
  0
LINE
  5
11C
100
AcDbEntity
  8
0
 62
256
370
-1
 48
1.0
  6
ByLayer
100
AcDbLine
 10
-59.576037175358763
 20
-273.59999999999997
 30
0.0
 11
-69.576037175358763
 21
-273.60000000000008
 31
0.0
  0
LINE
  5
11D
100
AcDbEntity
  8
0
 62
256
370
-1
 48
1.0
  6
ByLayer
100
AcDbLine
 10
-69.576037175358763
 20
-273.60000000000008
 30
0.0
 11
-69.576037175358763
 21
-266.88000000000011
 31
0.0
  0
LINE
  5
11E
100
AcDbEntity
  8
0
 62
256
370
-1
 48
1.0
  6
ByLayer
100
AcDbLine
 10
-69.576037175358763
 20
-266.88000000000011
 30
0.0
 11
-59.576037175358763
 21
-266.88000000000011
 31
0.0
  0
LINE
  5
11F
100
AcDbEntity
  8
0
 62
256
370
-1
 48
1.0
  6
ByLayer
100
AcDbLine
 10
61.279999999999916
 20
-125.0
 30
0.0
 11
61.280000000000001
 21
100.0
 31
0.0
  0
LINE
  5
120
100
AcDbEntity
  8
0
 62
256
370
-1
 48
1.0
  6
ByLayer
100
AcDbLine
 10
68.0
 20
100.0
 30
0.0
 11
68.0
 21
395.0
 31
0.0
  0
LINE
  5
121
100
AcDbEntity
  8
0
 62
256
370
-1
 48
1.0
  6
ByLayer
100
AcDbLine
 10
68.0
 20
395.0
 30
0.0
 11
-18.666666666666856
 21
395.0
 31
0.0
  0
LINE
  5
122
100
AcDbEntity
  8
0
 62
256
370
-1
 48
1.0
  6
ByLayer
100
AcDbLine
 10
-18.666666666666856
 20
395.0
 30
0.0
 11
-18.666666666666856
 21
388.27999999999992
 31
0.0
  0
LINE
  5
123
100
AcDbEntity
  8
0
 62
256
370
-1
 48
1.0
  6
ByLayer
100
AcDbLine
 10
-18.666666666666856
 20
388.27999999999992
 30
0.0
 11
-105.33333333333351
 21
388.27999999999992
 31
0.0
  0
LINE
  5
124
100
AcDbEntity
  8
0
 62
256
370
-1
 48
1.0
  6
ByLayer
100
AcDbLine
 10
-105.33333333333351
 20
388.27999999999992
 30
0.0
 11
-105.33333333333351
 21
395.0
 31
0.0
  0
LINE
  5
125
100
AcDbEntity
  8
0
 62
256
370
-1
 48
1.0
  6
ByLayer
100
AcDbLine
 10
-105.33333333333351
 20
395.0
 30
0.0
 11
-192.0
 21
395.0
 31
0.0
  0
LINE
  5
126
100
AcDbEntity
  8
0
 62
256
370
-1
 48
1.0
  6
ByLayer
100
AcDbLine
 10
-192.0
 20
395.0
 30
0.0
 11
-192.0
 21
100.0
 31
0.0
  0
LINE
  5
127
100
AcDbEntity
  8
0
 62
256
370
-1
 48
1.0
  6
ByLayer
100
AcDbLine
 10
-192.0
 20
100.0
 30
0.0
 11
-185.28
 21
100.0
 31
0.0
  0
LINE
  5
128
100
AcDbEntity
  8
0
 62
256
370
-1
 48
1.0
  6
ByLayer
100
AcDbLine
 10
-185.28
 20
100.0
 30
0.0
 11
-185.27999999999992
 21
-125.0
 31
0.0
  0
ARC
  5
129
100
AcDbEntity
  8
0
 62
256
370
-1
 48
1.0
  6
ByLayer
100
AcDbCircle
 10
89.173962824641322
 20
-253.88000000000011
 30
0.0
 40
1.5750000000000028
100
AcDbArc
 50
180.0
 51
0.0
  0
LINE
  5
12A
100
AcDbEntity
  8
0
 62
256
370
-1
 48
1.0
  6
ByLayer
100
AcDbLine
 10
90.748962824641325
 20
-253.87999999999957
 30
0.0
 11
90.748962824641268
 21
-253.77999999999955
 31
0.0
  0
ARC
  5
12B
100
AcDbEntity
  8
0
 62
256
370
-1
 48
1.0
  6
ByLayer
100
AcDbCircle
 10
89.173962824641293
 20
-253.78000000000009
 30
0.0
 40
1.5749999999999744
100
AcDbArc
 50
0.0
 51
180.0
  0
LINE
  5
12C
100
AcDbEntity
  8
0
 62
256
370
-1
 48
1.0
  6
ByLayer
100
AcDbLine
 10
87.598962824641319
 20
-253.78000000000065
 30
0.0
 11
87.598962824641319
 21
-253.88000000000068
 31
0.0
  0
MTEXT
  5
12D
100
AcDbEntity
  8
0
 62
256
370
-1
 48
1.0
  6
ByLayer
100
AcDbMText
 10
282.39143903414742
 20
67.193509011273022
 30
0.0
 40
10.0
 41
0.0
 71
1
 72
1
  1
\c0;\H20;NOTES: UNLESS OTHERWISE SPECIFIED\PDIMENSION: mm\PMATERIAL: Laminated MDF - White\P                   THICKNESS - 6.4mm\PCERN OHL v1.2\Pby Alch3my LLC
  7
textstyle0
 50
0.0
 73
2
 44
1.0
  0
CIRCLE
  5
12E
100
AcDbEntity
  8
0
 62
256
370
-1
 48
1.0
  6
ByLayer
100
AcDbCircle
 10
115.95396282464101
 20
-328.72000000000003
 30
0.0
 40
1.9999999999999989
  0
CIRCLE
  5
12F
100
AcDbEntity
  8
0
 62
256
370
-1
 48
1.0
  6
ByLayer
100
AcDbCircle
 10
-141.60603717535824
 20
-239.71999999999983
 30
0.0
 40
1.9999999999999989
  0
CIRCLE
  5
130
100
AcDbEntity
  8
0
 62
256
370
-1
 48
1.0
  6
ByLayer
100
AcDbCircle
 10
-90.779999999999646
 20
110.12000000000015
 30
0.0
 40
1.9999999999999989
  0
ARC
  5
131
100
AcDbEntity
  8
0
 62
256
370
-1
 48
1.0
  6
ByLayer
100
AcDbCircle
 10
-95.826037175358664
 20
-339.98000000000013
 30
0.0
 40
1.5749999999999886
100
AcDbArc
 50
180.0
 51
360.0
  0
LINE
  5
132
100
AcDbEntity
  8
0
 62
256
370
-1
 48
1.0
  6
ByLayer
100
AcDbLine
 10
-97.401037175358653
 20
-339.97999999999956
 30
0.0
 11
-97.401037175358653
 21
-339.87999999999954
 31
0.0
  0
ARC
  5
133
100
AcDbEntity
  8
0
 62
256
370
-1
 48
1.0
  6
ByLayer
100
AcDbCircle
 10
-95.826037175358664
 20
-339.88000000000011
 30
0.0
 40
1.5749999999999886
100
AcDbArc
 50
360.0
 51
180.0
  0
LINE
  5
134
100
AcDbEntity
  8
0
 62
256
370
-1
 48
1.0
  6
ByLayer
100
AcDbLine
 10
-94.251037175358675
 20
-339.88000000000068
 30
0.0
 11
-94.251037175358675
 21
-339.9800000000007
 31
0.0
  0
LINE
  5
135
100
AcDbEntity
  8
0
 62
256
370
-1
 48
1.0
  6
ByLayer
100
AcDbLine
 10
33.923962824641251
 20
-273.60000000000014
 30
0.0
 11
33.923962824641251
 21
-266.88000000000017
 31
0.0
  0
LINE
  5
136
100
AcDbEntity
  8
0
 62
256
370
-1
 48
1.0
  6
ByLayer
100
AcDbLine
 10
33.923962824641251
 20
-266.88000000000017
 30
0.0
 11
43.923962824641251
 21
-266.88000000000017
 31
0.0
  0
LINE
  5
137
100
AcDbEntity
  8
0
 62
256
370
-1
 48
1.0
  6
ByLayer
100
AcDbLine
 10
43.923962824641251
 20
-266.88000000000017
 30
0.0
 11
43.923962824641251
 21
-273.60000000000065
 31
0.0
  0
LINE
  5
138
100
AcDbEntity
  8
0
 62
256
370
-1
 48
1.0
  6
ByLayer
100
AcDbLine
 10
43.923962824641251
 20
-273.60000000000065
 30
0.0
 11
33.923962824641251
 21
-273.60000000000014
 31
0.0
  0
ARC
  5
139
100
AcDbEntity
  8
0
 62
256
370
-1
 48
1.0
  6
ByLayer
100
AcDbCircle
 10
-5.7799999999998883
 20
-92.219999999999885
 30
0.0
 40
6.719999999999998
100
AcDbArc
 50
90.000000000000242
 51
180.0
  0
LINE
  5
13A
100
AcDbEntity
  8
0
 62
256
370
-1
 48
1.0
  6
ByLayer
100
AcDbLine
 10
-12.499999999999886
 20
-92.219999999999914
 30
0.0
 11
-12.499999999999886
 21
-104.84000000000003
 31
0.0
  0
LINE
  5
13B
100
AcDbEntity
  8
0
 62
256
370
-1
 48
1.0
  6
ByLayer
100
AcDbLine
 10
-12.499999999999886
 20
-104.84000000000003
 30
0.0
 11
-111.49999999999991
 21
-104.84000000000003
 31
0.0
  0
LINE
  5
13C
100
AcDbEntity
  8
0
 62
256
370
-1
 48
1.0
  6
ByLayer
100
AcDbLine
 10
-111.49999999999991
 20
-104.84000000000003
 30
0.0
 11
-111.49999999999994
 21
-44.340000000000032
 31
0.0
  0
LINE
  5
13D
100
AcDbEntity
  8
0
 62
256
370
-1
 48
1.0
  6
ByLayer
100
AcDbLine
 10
-111.49999999999994
 20
-44.340000000000032
 30
0.0
 11
-127.06499999999998
 21
-44.340000000000032
 31
0.0
  0
LINE
  5
13E
100
AcDbEntity
  8
0
 62
256
370
-1
 48
1.0
  6
ByLayer
100
AcDbLine
 10
-127.06499999999998
 20
-44.340000000000032
 30
0.0
 11
-127.06499999999998
 21
-49.120000000000005
 31
0.0
  0
LINE
  5
13F
100
AcDbEntity
  8
0
 62
256
370
-1
 48
1.0
  6
ByLayer
100
AcDbLine
 10
-127.06499999999998
 20
-49.120000000000005
 30
0.0
 11
-126.03999999999995
 21
-49.120000000000005
 31
0.0
  0
ARC
  5
140
100
AcDbEntity
  8
0
 62
256
370
-1
 48
1.0
  6
ByLayer
100
AcDbCircle
 10
-125.78999999999995
 20
-49.120000000000005
 30
0.0
 40
0.25
100
AcDbArc
 50
270.0
 51
180.0
  0
LINE
  5
141
100
AcDbEntity
  8
0
 62
256
370
-1
 48
1.0
  6
ByLayer
100
AcDbLine
 10
-125.78999999999995
 20
-49.370000000000005
 30
0.0
 11
-125.78999999999995
 21
-51.370000000000005
 31
0.0
  0
ARC
  5
142
100
AcDbEntity
  8
0
 62
256
370
-1
 48
1.0
  6
ByLayer
100
AcDbCircle
 10
-125.78999999999995
 20
-51.620000000000005
 30
0.0
 40
0.25
100
AcDbArc
 50
180.0
 51
90.0
  0
LINE
  5
143
100
AcDbEntity
  8
0
 62
256
370
-1
 48
1.0
  6
ByLayer
100
AcDbLine
 10
-126.03999999999995
 20
-51.620000000000005
 30
0.0
 11
-127.06499999999998
 21
-51.620000000000005
 31
0.0
  0
LINE
  5
144
100
AcDbEntity
  8
0
 62
256
370
-1
 48
1.0
  6
ByLayer
100
AcDbLine
 10
-127.06499999999998
 20
-51.620000000000005
 30
0.0
 11
-127.06499999999997
 21
-52.620000000000005
 31
0.0
  0
LINE
  5
145
100
AcDbEntity
  8
0
 62
256
370
-1
 48
1.0
  6
ByLayer
100
AcDbLine
 10
-127.06499999999997
 20
-52.620000000000005
 30
0.0
 11
-130.21499999999997
 21
-52.620000000000005
 31
0.0
  0
LINE
  5
146
100
AcDbEntity
  8
0
 62
256
370
-1
 48
1.0
  6
ByLayer
100
AcDbLine
 10
-130.21499999999997
 20
-52.620000000000005
 30
0.0
 11
-130.21499999999997
 21
-51.620000000000005
 31
0.0
  0
LINE
  5
147
100
AcDbEntity
  8
0
 62
256
370
-1
 48
1.0
  6
ByLayer
100
AcDbLine
 10
-130.21499999999997
 20
-51.620000000000005
 30
0.0
 11
-131.23999999999995
 21
-51.620000000000005
 31
0.0
  0
ARC
  5
148
100
AcDbEntity
  8
0
 62
256
370
-1
 48
1.0
  6
ByLayer
100
AcDbCircle
 10
-131.48999999999995
 20
-51.620000000000005
 30
0.0
 40
0.25
100
AcDbArc
 50
90.0
 51
0.0
  0
LINE
  5
149
100
AcDbEntity
  8
0
 62
256
370
-1
 48
1.0
  6
ByLayer
100
AcDbLine
 10
-131.48999999999995
 20
-51.370000000000005
 30
0.0
 11
-131.48999999999995
 21
-49.370000000000005
 31
0.0
  0
ARC
  5
14A
100
AcDbEntity
  8
0
 62
256
370
-1
 48
1.0
  6
ByLayer
100
AcDbCircle
 10
-131.48999999999995
 20
-49.120000000000005
 30
0.0
 40
0.25
100
AcDbArc
 50
0.0
 51
270.0
  0
LINE
  5
14B
100
AcDbEntity
  8
0
 62
256
370
-1
 48
1.0
  6
ByLayer
100
AcDbLine
 10
-131.23999999999995
 20
-49.120000000000005
 30
0.0
 11
-130.21499999999997
 21
-49.120000000000005
 31
0.0
  0
LINE
  5
14C
100
AcDbEntity
  8
0
 62
256
370
-1
 48
1.0
  6
ByLayer
100
AcDbLine
 10
-130.21499999999997
 20
-49.120000000000005
 30
0.0
 11
-130.21499999999997
 21
-44.340000000000032
 31
0.0
  0
LINE
  5
14D
100
AcDbEntity
  8
0
 62
256
370
-1
 48
1.0
  6
ByLayer
100
AcDbLine
 10
-130.21499999999997
 20
-44.340000000000032
 30
0.0
 11
-145.78000000000003
 21
-44.340000000000032
 31
0.0
  0
LINE
  5
14E
100
AcDbEntity
  8
0
 62
256
370
-1
 48
1.0
  6
ByLayer
100
AcDbLine
 10
-145.78000000000003
 20
-44.340000000000032
 30
0.0
 11
-145.78
 21
-111.56
 31
0.0
  0
LINE
  5
14F
100
AcDbEntity
  8
0
 62
256
370
-1
 48
1.0
  6
ByLayer
100
AcDbLine
 10
-145.78
 20
-111.56
 30
0.0
 11
-152.5
 21
-111.56
 31
0.0
  0
LINE
  5
150
100
AcDbEntity
  8
0
 62
256
370
-1
 48
1.0
  6
ByLayer
100
AcDbLine
 10
-152.5
 20
-111.56
 30
0.0
 11
-152.5
 21
93.0
 31
0.0
  0
LINE
  5
151
100
AcDbEntity
  8
0
 62
256
370
-1
 48
1.0
  6
ByLayer
100
AcDbLine
 10
-152.5
 20
93.0
 30
0.0
 11
-152.8000000000001
 21
93.0
 31
0.0
  0
ARC
  5
152
100
AcDbEntity
  8
0
 62
256
370
-1
 48
1.0
  6
ByLayer
100
AcDbCircle
 10
-152.8000000000001
 20
95.0
 30
0.0
 40
2.0
100
AcDbArc
 50
90.0
 51
270.0
  0
LINE
  5
153
100
AcDbEntity
  8
0
 62
256
370
-1
 48
1.0
  6
ByLayer
100
AcDbLine
 10
-152.8000000000001
 20
97.0
 30
0.0
 11
-152.5
 21
97.0
 31
0.0
  0
LINE
  5
154
100
AcDbEntity
  8
0
 62
256
370
-1
 48
1.0
  6
ByLayer
100
AcDbLine
 10
-152.5
 20
97.0
 30
0.0
 11
-152.5
 21
100.0
 31
0.0
  0
LINE
  5
155
100
AcDbEntity
  8
0
 62
256
370
-1
 48
1.0
  6
ByLayer
100
AcDbLine
 10
-152.5
 20
100.0
 30
0.0
 11
-159.22000000000003
 21
100.0
 31
0.0
  0
LINE
  5
156
100
AcDbEntity
  8
0
 62
256
370
-1
 48
1.0
  6
ByLayer
100
AcDbLine
 10
-159.22000000000003
 20
100.0
 30
0.0
 11
-159.22000000000003
 21
106.72000000000003
 31
0.0
  0
LINE
  5
157
100
AcDbEntity
  8
0
 62
256
370
-1
 48
1.0
  6
ByLayer
100
AcDbLine
 10
-159.22000000000003
 20
106.72000000000003
 30
0.0
 11
-152.5
 21
106.72000000000003
 31
0.0
  0
LINE
  5
158
100
AcDbEntity
  8
0
 62
256
370
-1
 48
1.0
  6
ByLayer
100
AcDbLine
 10
-152.5
 20
106.72000000000003
 30
0.0
 11
-152.49999999999977
 21
355.5
 31
0.0
  0
LINE
  5
159
100
AcDbEntity
  8
0
 62
256
370
-1
 48
1.0
  6
ByLayer
100
AcDbLine
 10
-152.5
 20
241.71999999999991
 30
0.0
 11
-155.65000000000001
 21
241.71999999999991
 31
0.0
  0
LINE
  5
15A
100
AcDbEntity
  8
0
 62
256
370
-1
 48
1.0
  6
ByLayer
100
AcDbLine
 10
-155.65000000000001
 20
241.71999999999991
 30
0.0
 11
-155.65000000000001
 21
291.71999999999991
 31
0.0
  0
LINE
  5
15B
100
AcDbEntity
  8
0
 62
256
370
-1
 48
1.0
  6
ByLayer
100
AcDbLine
 10
-155.65000000000001
 20
291.71999999999991
 30
0.0
 11
-152.5
 21
291.72000000000003
 31
0.0
  0
LINE
  5
15C
100
AcDbEntity
  8
0
 62
256
370
-1
 48
1.0
  6
ByLayer
100
AcDbLine
 10
-152.5
 20
355.5
 30
0.0
 11
28.5
 21
355.5
 31
0.0
  0
LINE
  5
15D
100
AcDbEntity
  8
0
 62
256
370
-1
 48
1.0
  6
ByLayer
100
AcDbLine
 10
28.5
 20
291.72000000000003
 30
0.0
 11
31.650000000000006
 21
291.71999999999991
 31
0.0
  0
LINE
  5
15E
100
AcDbEntity
  8
0
 62
256
370
-1
 48
1.0
  6
ByLayer
100
AcDbLine
 10
31.650000000000006
 20
291.71999999999991
 30
0.0
 11
31.650000000000006
 21
241.71999999999991
 31
0.0
  0
LINE
  5
15F
100
AcDbEntity
  8
0
 62
256
370
-1
 48
1.0
  6
ByLayer
100
AcDbLine
 10
31.650000000000006
 20
241.71999999999991
 30
0.0
 11
28.5
 21
241.71999999999991
 31
0.0
  0
LINE
  5
160
100
AcDbEntity
  8
0
 62
256
370
-1
 48
1.0
  6
ByLayer
100
AcDbLine
 10
28.5
 20
106.72000000000003
 30
0.0
 11
35.220000000000027
 21
106.72000000000003
 31
0.0
  0
LINE
  5
161
100
AcDbEntity
  8
0
 62
256
370
-1
 48
1.0
  6
ByLayer
100
AcDbLine
 10
35.220000000000027
 20
106.72000000000003
 30
0.0
 11
35.220000000000027
 21
100.0
 31
0.0
  0
LINE
  5
162
100
AcDbEntity
  8
0
 62
256
370
-1
 48
1.0
  6
ByLayer
100
AcDbLine
 10
35.220000000000027
 20
100.0
 30
0.0
 11
28.5
 21
100.0
 31
0.0
  0
LINE
  5
163
100
AcDbEntity
  8
0
 62
256
370
-1
 48
1.0
  6
ByLayer
100
AcDbLine
 10
28.5
 20
100.0
 30
0.0
 11
28.5
 21
97.0
 31
0.0
  0
LINE
  5
164
100
AcDbEntity
  8
0
 62
256
370
-1
 48
1.0
  6
ByLayer
100
AcDbLine
 10
28.5
 20
97.0
 30
0.0
 11
28.800000000000097
 21
97.0
 31
0.0
  0
ARC
  5
165
100
AcDbEntity
  8
0
 62
256
370
-1
 48
1.0
  6
ByLayer
100
AcDbCircle
 10
28.800000000000097
 20
95.0
 30
0.0
 40
2.0
100
AcDbArc
 50
270.0
 51
90.0
  0
LINE
  5
166
100
AcDbEntity
  8
0
 62
256
370
-1
 48
1.0
  6
ByLayer
100
AcDbLine
 10
28.800000000000097
 20
93.0
 30
0.0
 11
28.5
 21
93.0
 31
0.0
  0
LINE
  5
167
100
AcDbEntity
  8
0
 62
256
370
-1
 48
1.0
  6
ByLayer
100
AcDbLine
 10
28.5
 20
355.5
 30
0.0
 11
28.5
 21
-111.56
 31
0.0
  0
LINE
  5
168
100
AcDbEntity
  8
0
 62
256
370
-1
 48
1.0
  6
ByLayer
100
AcDbLine
 10
28.5
 20
-111.56
 30
0.0
 11
21.780000000000001
 21
-111.56
 31
0.0
  0
LINE
  5
169
100
AcDbEntity
  8
0
 62
256
370
-1
 48
1.0
  6
ByLayer
100
AcDbLine
 10
21.780000000000001
 20
-111.56
 30
0.0
 11
21.780000000000001
 21
-85.5
 31
0.0
  0
LINE
  5
16A
100
AcDbEntity
  8
0
 62
256
370
-1
 48
1.0
  6
ByLayer
100
AcDbLine
 10
21.780000000000001
 20
-85.5
 30
0.0
 11
-5.7799999999999159
 21
-85.499999999999886
 31
0.0
  0
ARC
  5
16B
100
AcDbEntity
  8
0
 62
256
370
-1
 48
1.0
  6
ByLayer
100
AcDbCircle
 10
-95.826037175358664
 20
-253.78000000000009
 30
0.0
 40
1.5749999999999886
100
AcDbArc
 50
0.0
 51
180.0
  0
LINE
  5
16C
100
AcDbEntity
  8
0
 62
256
370
-1
 48
1.0
  6
ByLayer
100
AcDbLine
 10
-97.401037175358653
 20
-253.78000000000065
 30
0.0
 11
-97.401037175358653
 21
-253.88000000000068
 31
0.0
  0
ARC
  5
16D
100
AcDbEntity
  8
0
 62
256
370
-1
 48
1.0
  6
ByLayer
100
AcDbCircle
 10
-95.826037175358664
 20
-253.88000000000011
 30
0.0
 40
1.5749999999999886
100
AcDbArc
 50
180.0
 51
0.0
  0
LINE
  5
16E
100
AcDbEntity
  8
0
 62
256
370
-1
 48
1.0
  6
ByLayer
100
AcDbLine
 10
-94.251037175358675
 20
-253.87999999999957
 30
0.0
 11
-94.251037175358675
 21
-253.77999999999955
 31
0.0
  0
CIRCLE
  5
16F
100
AcDbEntity
  8
0
 62
256
370
-1
 48
1.0
  6
ByLayer
100
AcDbCircle
 10
41.5
 20
103.36000000000001
 30
0.0
 40
1.575
  0
CIRCLE
  5
170
100
AcDbEntity
  8
0
 62
256
370
-1
 48
1.0
  6
ByLayer
100
AcDbCircle
 10
-143.33999999999966
 20
110.12000000000018
 30
0.0
 40
1.9999999999999989
  0
LINE
  5
171
100
AcDbEntity
  8
0
 62
256
370
-1
 48
1.0
  6
ByLayer
100
AcDbLine
 10
89.098962824641319
 20
-386.88000000000011
 30
0.0
 11
89.098962824641319
 21
-382.10000000000014
 31
0.0
  0
LINE
  5
172
100
AcDbEntity
  8
0
 62
256
370
-1
 48
1.0
  6
ByLayer
100
AcDbLine
 10
89.098962824641319
 20
-382.10000000000014
 30
0.0
 11
88.073962824641342
 21
-382.10000000000014
 31
0.0
  0
ARC
  5
173
100
AcDbEntity
  8
0
 62
256
370
-1
 48
1.0
  6
ByLayer
100
AcDbCircle
 10
87.823962824641342
 20
-382.10000000000014
 30
0.0
 40
0.25
100
AcDbArc
 50
90.0
 51
0.0
  0
LINE
  5
174
100
AcDbEntity
  8
0
 62
256
370
-1
 48
1.0
  6
ByLayer
100
AcDbLine
 10
87.823962824641342
 20
-381.85000000000014
 30
0.0
 11
87.823962824641342
 21
-379.85000000000014
 31
0.0
  0
ARC
  5
175
100
AcDbEntity
  8
0
 62
256
370
-1
 48
1.0
  6
ByLayer
100
AcDbCircle
 10
87.823962824641342
 20
-379.60000000000014
 30
0.0
 40
0.25
100
AcDbArc
 50
0.0
 51
270.0
  0
LINE
  5
176
100
AcDbEntity
  8
0
 62
256
370
-1
 48
1.0
  6
ByLayer
100
AcDbLine
 10
88.073962824641342
 20
-379.60000000000014
 30
0.0
 11
89.098962824641319
 21
-379.60000000000014
 31
0.0
  0
LINE
  5
177
100
AcDbEntity
  8
0
 62
256
370
-1
 48
1.0
  6
ByLayer
100
AcDbLine
 10
89.098962824641319
 20
-379.60000000000014
 30
0.0
 11
89.098962824641319
 21
-378.60000000000014
 31
0.0
  0
LINE
  5
178
100
AcDbEntity
  8
0
 62
256
370
-1
 48
1.0
  6
ByLayer
100
AcDbLine
 10
89.098962824641319
 20
-378.60000000000014
 30
0.0
 11
92.248962824641296
 21
-378.60000000000014
 31
0.0
  0
LINE
  5
179
100
AcDbEntity
  8
0
 62
256
370
-1
 48
1.0
  6
ByLayer
100
AcDbLine
 10
92.248962824641296
 20
-378.60000000000014
 30
0.0
 11
92.248962824641296
 21
-379.60000000000014
 31
0.0
  0
LINE
  5
17A
100
AcDbEntity
  8
0
 62
256
370
-1
 48
1.0
  6
ByLayer
100
AcDbLine
 10
92.248962824641296
 20
-379.60000000000014
 30
0.0
 11
93.27396282464133
 21
-379.60000000000014
 31
0.0
  0
ARC
  5
17B
100
AcDbEntity
  8
0
 62
256
370
-1
 48
1.0
  6
ByLayer
100
AcDbCircle
 10
93.52396282464133
 20
-379.60000000000014
 30
0.0
 40
0.25
100
AcDbArc
 50
270.0
 51
180.0
  0
LINE
  5
17C
100
AcDbEntity
  8
0
 62
256
370
-1
 48
1.0
  6
ByLayer
100
AcDbLine
 10
93.52396282464133
 20
-379.85000000000014
 30
0.0
 11
93.52396282464133
 21
-381.85000000000014
 31
0.0
  0
ARC
  5
17D
100
AcDbEntity
  8
0
 62
256
370
-1
 48
1.0
  6
ByLayer
100
AcDbCircle
 10
93.52396282464133
 20
-382.10000000000014
 30
0.0
 40
0.25
100
AcDbArc
 50
180.0
 51
90.0
  0
LINE
  5
17E
100
AcDbEntity
  8
0
 62
256
370
-1
 48
1.0
  6
ByLayer
100
AcDbLine
 10
93.27396282464133
 20
-382.10000000000014
 30
0.0
 11
92.248962824641296
 21
-382.10000000000014
 31
0.0
  0
LINE
  5
17F
100
AcDbEntity
  8
0
 62
256
370
-1
 48
1.0
  6
ByLayer
100
AcDbLine
 10
92.248962824641296
 20
-382.10000000000014
 30
0.0
 11
92.248962824641296
 21
-386.88000000000011
 31
0.0
  0
LINE
  5
180
100
AcDbEntity
  8
0
 62
256
370
-1
 48
1.0
  6
ByLayer
100
AcDbLine
 10
92.248962824641296
 20
-386.88000000000011
 30
0.0
 11
109.45396282464134
 21
-386.88000000000011
 31
0.0
  0
LINE
  5
181
100
AcDbEntity
  8
0
 62
256
370
-1
 48
1.0
  6
ByLayer
100
AcDbLine
 10
109.45396282464134
 20
-386.88000000000011
 30
0.0
 11
109.45396282464122
 21
-266.88000000000017
 31
0.0
  0
LINE
  5
182
100
AcDbEntity
  8
0
 62
256
370
-1
 48
1.0
  6
ByLayer
100
AcDbLine
 10
109.45396282464134
 20
-336.88000000000011
 30
0.0
 11
39.798962824641308
 21
-336.88000000000011
 31
0.0
  0
LINE
  5
183
100
AcDbEntity
  8
0
 62
256
370
-1
 48
1.0
  6
ByLayer
100
AcDbLine
 10
39.798962824641308
 20
-336.88000000000011
 30
0.0
 11
39.798962824641308
 21
-344.38000000000011
 31
0.0
  0
ARC
  5
184
100
AcDbEntity
  8
0
 62
256
370
-1
 48
1.0
  6
ByLayer
100
AcDbCircle
 10
37.173962824641308
 20
-344.38000000000011
 30
0.0
 40
2.625
100
AcDbArc
 50
180.0
 51
0.0
  0
LINE
  5
185
100
AcDbEntity
  8
0
 62
256
370
-1
 48
1.0
  6
ByLayer
100
AcDbLine
 10
34.548962824641308
 20
-344.38000000000011
 30
0.0
 11
34.548962824641336
 21
-336.88000000000011
 31
0.0
  0
LINE
  5
186
100
AcDbEntity
  8
0
 62
256
370
-1
 48
1.0
  6
ByLayer
100
AcDbLine
 10
-60.201037175358664
 20
-336.88000000000011
 30
0.0
 11
-60.201037175358664
 21
-344.38000000000011
 31
0.0
  0
ARC
  5
187
100
AcDbEntity
  8
0
 62
256
370
-1
 48
1.0
  6
ByLayer
100
AcDbCircle
 10
-62.826037175358664
 20
-344.38000000000011
 30
0.0
 40
2.625
100
AcDbArc
 50
180.0
 51
0.0
  0
LINE
  5
188
100
AcDbEntity
  8
0
 62
256
370
-1
 48
1.0
  6
ByLayer
100
AcDbLine
 10
-65.451037175358664
 20
-344.38000000000011
 30
0.0
 11
-65.451037175358664
 21
-336.88000000000011
 31
0.0
  0
LINE
  5
189
100
AcDbEntity
  8
0
 62
256
370
-1
 48
1.0
  6
ByLayer
100
AcDbLine
 10
39.798962824641308
 20
-336.88000000000011
 30
0.0
 11
-135.10603717535867
 21
-336.88000000000011
 31
0.0
  0
LINE
  5
18A
100
AcDbEntity
  8
0
 62
256
370
-1
 48
1.0
  6
ByLayer
100
AcDbLine
 10
-135.10603717535867
 20
-386.88000000000011
 30
0.0
 11
-117.90103717535865
 21
-386.88000000000011
 31
0.0
  0
LINE
  5
18B
100
AcDbEntity
  8
0
 62
256
370
-1
 48
1.0
  6
ByLayer
100
AcDbLine
 10
-117.90103717535865
 20
-386.88000000000011
 30
0.0
 11
-117.90103717535865
 21
-382.10000000000014
 31
0.0
  0
LINE
  5
18C
100
AcDbEntity
  8
0
 62
256
370
-1
 48
1.0
  6
ByLayer
100
AcDbLine
 10
-117.90103717535865
 20
-382.10000000000014
 30
0.0
 11
-118.92603717535866
 21
-382.10000000000014
 31
0.0
  0
ARC
  5
18D
100
AcDbEntity
  8
0
 62
256
370
-1
 48
1.0
  6
ByLayer
100
AcDbCircle
 10
-119.17603717535866
 20
-382.10000000000014
 30
0.0
 40
0.25
100
AcDbArc
 50
90.0
 51
0.0
  0
LINE
  5
18E
100
AcDbEntity
  8
0
 62
256
370
-1
 48
1.0
  6
ByLayer
100
AcDbLine
 10
-119.17603717535866
 20
-381.85000000000014
 30
0.0
 11
-119.17603717535866
 21
-379.85000000000014
 31
0.0
  0
ARC
  5
18F
100
AcDbEntity
  8
0
 62
256
370
-1
 48
1.0
  6
ByLayer
100
AcDbCircle
 10
-119.17603717535872
 20
-379.60000000000019
 30
0.0
 40
0.2499999999999431
100
AcDbArc
 50
0.0
 51
270.00000000001302
  0
LINE
  5
190
100
AcDbEntity
  8
0
 62
256
370
-1
 48
1.0
  6
ByLayer
100
AcDbLine
 10
-118.92603717535877
 20
-379.60000000000014
 30
0.0
 11
-117.90103717535865
 21
-379.60000000000014
 31
0.0
  0
LINE
  5
191
100
AcDbEntity
  8
0
 62
256
370
-1
 48
1.0
  6
ByLayer
100
AcDbLine
 10
-117.90103717535865
 20
-379.60000000000014
 30
0.0
 11
-117.90103717535865
 21
-378.60000000000014
 31
0.0
  0
LINE
  5
192
100
AcDbEntity
  8
0
 62
256
370
-1
 48
1.0
  6
ByLayer
100
AcDbLine
 10
-117.90103717535865
 20
-378.60000000000014
 30
0.0
 11
-114.75103717535868
 21
-378.60000000000014
 31
0.0
  0
LINE
  5
193
100
AcDbEntity
  8
0
 62
256
370
-1
 48
1.0
  6
ByLayer
100
AcDbLine
 10
-114.75103717535868
 20
-378.60000000000014
 30
0.0
 11
-114.75103717535868
 21
-379.60000000000014
 31
0.0
  0
LINE
  5
194
100
AcDbEntity
  8
0
 62
256
370
-1
 48
1.0
  6
ByLayer
100
AcDbLine
 10
-114.75103717535868
 20
-379.60000000000014
 30
0.0
 11
-113.72603717535875
 21
-379.60000000000014
 31
0.0
  0
ARC
  5
195
100
AcDbEntity
  8
0
 62
256
370
-1
 48
1.0
  6
ByLayer
100
AcDbCircle
 10
-113.47603717535871
 20
-379.60000000000008
 30
0.0
 40
0.2500000000000426
100
AcDbArc
 50
270.00000000000978
 51
180.0
  0
LINE
  5
196
100
AcDbEntity
  8
0
 62
256
370
-1
 48
1.0
  6
ByLayer
100
AcDbLine
 10
-113.47603717535867
 20
-379.85000000000014
 30
0.0
 11
-113.47603717535867
 21
-381.85000000000014
 31
0.0
  0
ARC
  5
197
100
AcDbEntity
  8
0
 62
256
370
-1
 48
1.0
  6
ByLayer
100
AcDbCircle
 10
-113.47603717535867
 20
-382.10000000000014
 30
0.0
 40
0.25
100
AcDbArc
 50
180.0
 51
90.0
  0
LINE
  5
198
100
AcDbEntity
  8
0
 62
256
370
-1
 48
1.0
  6
ByLayer
100
AcDbLine
 10
-113.72603717535867
 20
-382.10000000000014
 30
0.0
 11
-114.75103717535868
 21
-382.10000000000014
 31
0.0
  0
LINE
  5
199
100
AcDbEntity
  8
0
 62
256
370
-1
 48
1.0
  6
ByLayer
100
AcDbLine
 10
-114.75103717535868
 20
-382.10000000000014
 30
0.0
 11
-114.75103717535868
 21
-386.88000000000011
 31
0.0
  0
LINE
  5
19A
100
AcDbEntity
  8
0
 62
256
370
-1
 48
1.0
  6
ByLayer
100
AcDbLine
 10
-114.75103717535868
 20
-386.88000000000011
 30
0.0
 11
-69.576037175358664
 21
-386.88000000000011
 31
0.0
  0
LINE
  5
19B
100
AcDbEntity
  8
0
 62
256
370
-1
 48
1.0
  6
ByLayer
100
AcDbLine
 10
-69.576037175358664
 20
-386.88000000000011
 30
0.0
 11
-69.576037175358664
 21
-393.60000000000014
 31
0.0
  0
LINE
  5
19C
100
AcDbEntity
  8
0
 62
256
370
-1
 48
1.0
  6
ByLayer
100
AcDbLine
 10
-69.576037175358664
 20
-393.60000000000014
 30
0.0
 11
-59.576037175358664
 21
-393.60000000000014
 31
0.0
  0
LINE
  5
19D
100
AcDbEntity
  8
0
 62
256
370
-1
 48
1.0
  6
ByLayer
100
AcDbLine
 10
-59.576037175358664
 20
-393.60000000000014
 30
0.0
 11
-59.576037175358664
 21
-386.88000000000011
 31
0.0
  0
LINE
  5
19E
100
AcDbEntity
  8
0
 62
256
370
-1
 48
1.0
  6
ByLayer
100
AcDbLine
 10
-59.576037175358664
 20
-386.88000000000011
 30
0.0
 11
-48.901037175358653
 21
-386.88000000000011
 31
0.0
  0
LINE
  5
19F
100
AcDbEntity
  8
0
 62
256
370
-1
 48
1.0
  6
ByLayer
100
AcDbLine
 10
-48.901037175358653
 20
-386.88000000000011
 30
0.0
 11
-48.901037175358653
 21
-382.10000000000014
 31
0.0
  0
LINE
  5
1A0
100
AcDbEntity
  8
0
 62
256
370
-1
 48
1.0
  6
ByLayer
100
AcDbLine
 10
-48.901037175358653
 20
-382.10000000000014
 30
0.0
 11
-49.926037175358658
 21
-382.10000000000014
 31
0.0
  0
ARC
  5
1A1
100
AcDbEntity
  8
0
 62
256
370
-1
 48
1.0
  6
ByLayer
100
AcDbCircle
 10
-50.176037175358658
 20
-382.10000000000014
 30
0.0
 40
0.25
100
AcDbArc
 50
90.0
 51
0.0
  0
LINE
  5
1A2
100
AcDbEntity
  8
0
 62
256
370
-1
 48
1.0
  6
ByLayer
100
AcDbLine
 10
-50.176037175358658
 20
-381.85000000000014
 30
0.0
 11
-50.176037175358658
 21
-379.85000000000014
 31
0.0
  0
ARC
  5
1A3
100
AcDbEntity
  8
0
 62
256
370
-1
 48
1.0
  6
ByLayer
100
AcDbCircle
 10
-50.176037175358658
 20
-379.60000000000014
 30
0.0
 40
0.25
100
AcDbArc
 50
0.0
 51
270.0
  0
LINE
  5
1A4
100
AcDbEntity
  8
0
 62
256
370
-1
 48
1.0
  6
ByLayer
100
AcDbLine
 10
-49.926037175358658
 20
-379.60000000000014
 30
0.0
 11
-48.901037175358653
 21
-379.60000000000014
 31
0.0
  0
LINE
  5
1A5
100
AcDbEntity
  8
0
 62
256
370
-1
 48
1.0
  6
ByLayer
100
AcDbLine
 10
-48.901037175358653
 20
-379.60000000000014
 30
0.0
 11
-48.901037175358653
 21
-378.60000000000014
 31
0.0
  0
LINE
  5
1A6
100
AcDbEntity
  8
0
 62
256
370
-1
 48
1.0
  6
ByLayer
100
AcDbLine
 10
-48.901037175358653
 20
-378.60000000000014
 30
0.0
 11
-45.751037175358675
 21
-378.60000000000014
 31
0.0
  0
LINE
  5
1A7
100
AcDbEntity
  8
0
 62
256
370
-1
 48
1.0
  6
ByLayer
100
AcDbLine
 10
-45.751037175358675
 20
-378.60000000000014
 30
0.0
 11
-45.751037175358675
 21
-379.60000000000014
 31
0.0
  0
LINE
  5
1A8
100
AcDbEntity
  8
0
 62
256
370
-1
 48
1.0
  6
ByLayer
100
AcDbLine
 10
-45.751037175358675
 20
-379.60000000000014
 30
0.0
 11
-44.72603717535867
 21
-379.60000000000014
 31
0.0
  0
ARC
  5
1A9
100
AcDbEntity
  8
0
 62
256
370
-1
 48
1.0
  6
ByLayer
100
AcDbCircle
 10
-44.47603717535867
 20
-379.60000000000014
 30
0.0
 40
0.25
100
AcDbArc
 50
270.0
 51
180.0
  0
LINE
  5
1AA
100
AcDbEntity
  8
0
 62
256
370
-1
 48
1.0
  6
ByLayer
100
AcDbLine
 10
-44.47603717535867
 20
-379.85000000000014
 30
0.0
 11
-44.47603717535867
 21
-381.85000000000014
 31
0.0
  0
ARC
  5
1AB
100
AcDbEntity
  8
0
 62
256
370
-1
 48
1.0
  6
ByLayer
100
AcDbCircle
 10
-44.47603717535867
 20
-382.10000000000014
 30
0.0
 40
0.25
100
AcDbArc
 50
180.0
 51
90.0
  0
LINE
  5
1AC
100
AcDbEntity
  8
0
 62
256
370
-1
 48
1.0
  6
ByLayer
100
AcDbLine
 10
-44.72603717535867
 20
-382.10000000000014
 30
0.0
 11
-45.751037175358675
 21
-382.10000000000014
 31
0.0
  0
LINE
  5
1AD
100
AcDbEntity
  8
0
 62
256
370
-1
 48
1.0
  6
ByLayer
100
AcDbLine
 10
-45.751037175358675
 20
-382.10000000000014
 30
0.0
 11
-45.751037175358675
 21
-386.88000000000011
 31
0.0
  0
LINE
  5
1AE
100
AcDbEntity
  8
0
 62
256
370
-1
 48
1.0
  6
ByLayer
100
AcDbLine
 10
-45.751037175358675
 20
-386.88000000000011
 30
0.0
 11
20.098962824641319
 21
-386.88000000000011
 31
0.0
  0
LINE
  5
1AF
100
AcDbEntity
  8
0
 62
256
370
-1
 48
1.0
  6
ByLayer
100
AcDbLine
 10
20.098962824641319
 20
-386.88000000000011
 30
0.0
 11
20.098962824641319
 21
-382.10000000000014
 31
0.0
  0
LINE
  5
1B0
100
AcDbEntity
  8
0
 62
256
370
-1
 48
1.0
  6
ByLayer
100
AcDbLine
 10
20.098962824641319
 20
-382.10000000000014
 30
0.0
 11
19.073962824641313
 21
-382.10000000000014
 31
0.0
  0
ARC
  5
1B1
100
AcDbEntity
  8
0
 62
256
370
-1
 48
1.0
  6
ByLayer
100
AcDbCircle
 10
18.823962824641313
 20
-382.10000000000014
 30
0.0
 40
0.25
100
AcDbArc
 50
90.0
 51
0.0
  0
LINE
  5
1B2
100
AcDbEntity
  8
0
 62
256
370
-1
 48
1.0
  6
ByLayer
100
AcDbLine
 10
18.823962824641313
 20
-381.85000000000014
 30
0.0
 11
18.823962824641313
 21
-379.85000000000014
 31
0.0
  0
ARC
  5
1B3
100
AcDbEntity
  8
0
 62
256
370
-1
 48
1.0
  6
ByLayer
100
AcDbCircle
 10
18.823962824641313
 20
-379.60000000000014
 30
0.0
 40
0.25
100
AcDbArc
 50
0.0
 51
270.0
  0
LINE
  5
1B4
100
AcDbEntity
  8
0
 62
256
370
-1
 48
1.0
  6
ByLayer
100
AcDbLine
 10
19.073962824641313
 20
-379.60000000000014
 30
0.0
 11
20.098962824641319
 21
-379.60000000000014
 31
0.0
  0
LINE
  5
1B5
100
AcDbEntity
  8
0
 62
256
370
-1
 48
1.0
  6
ByLayer
100
AcDbLine
 10
20.098962824641319
 20
-379.60000000000014
 30
0.0
 11
20.098962824641319
 21
-378.60000000000014
 31
0.0
  0
LINE
  5
1B6
100
AcDbEntity
  8
0
 62
256
370
-1
 48
1.0
  6
ByLayer
100
AcDbLine
 10
20.098962824641319
 20
-378.60000000000014
 30
0.0
 11
23.248962824641296
 21
-378.60000000000014
 31
0.0
  0
LINE
  5
1B7
100
AcDbEntity
  8
0
 62
256
370
-1
 48
1.0
  6
ByLayer
100
AcDbLine
 10
23.248962824641296
 20
-378.60000000000014
 30
0.0
 11
23.248962824641296
 21
-379.60000000000014
 31
0.0
  0
LINE
  5
1B8
100
AcDbEntity
  8
0
 62
256
370
-1
 48
1.0
  6
ByLayer
100
AcDbLine
 10
23.248962824641296
 20
-379.60000000000014
 30
0.0
 11
24.27396282464133
 21
-379.60000000000014
 31
0.0
  0
ARC
  5
1B9
100
AcDbEntity
  8
0
 62
256
370
-1
 48
1.0
  6
ByLayer
100
AcDbCircle
 10
24.52396282464133
 20
-379.60000000000014
 30
0.0
 40
0.25
100
AcDbArc
 50
270.0
 51
180.0
  0
LINE
  5
1BA
100
AcDbEntity
  8
0
 62
256
370
-1
 48
1.0
  6
ByLayer
100
AcDbLine
 10
24.52396282464133
 20
-379.85000000000014
 30
0.0
 11
24.52396282464133
 21
-381.85000000000014
 31
0.0
  0
ARC
  5
1BB
100
AcDbEntity
  8
0
 62
256
370
-1
 48
1.0
  6
ByLayer
100
AcDbCircle
 10
24.52396282464133
 20
-382.10000000000014
 30
0.0
 40
0.25
100
AcDbArc
 50
180.0
 51
90.0
  0
LINE
  5
1BC
100
AcDbEntity
  8
0
 62
256
370
-1
 48
1.0
  6
ByLayer
100
AcDbLine
 10
24.27396282464133
 20
-382.10000000000014
 30
0.0
 11
23.248962824641296
 21
-382.10000000000014
 31
0.0
  0
LINE
  5
1BD
100
AcDbEntity
  8
0
 62
256
370
-1
 48
1.0
  6
ByLayer
100
AcDbLine
 10
23.248962824641296
 20
-382.10000000000014
 30
0.0
 11
23.248962824641296
 21
-386.88000000000011
 31
0.0
  0
LINE
  5
1BE
100
AcDbEntity
  8
0
 62
256
370
-1
 48
1.0
  6
ByLayer
100
AcDbLine
 10
23.248962824641296
 20
-386.88000000000011
 30
0.0
 11
33.923962824641336
 21
-386.88000000000011
 31
0.0
  0
LINE
  5
1BF
100
AcDbEntity
  8
0
 62
256
370
-1
 48
1.0
  6
ByLayer
100
AcDbLine
 10
33.923962824641336
 20
-386.88000000000011
 30
0.0
 11
33.923962824641336
 21
-393.60000000000014
 31
0.0
  0
LINE
  5
1C0
100
AcDbEntity
  8
0
 62
256
370
-1
 48
1.0
  6
ByLayer
100
AcDbLine
 10
33.923962824641336
 20
-393.60000000000014
 30
0.0
 11
43.923962824641336
 21
-393.60000000000014
 31
0.0
  0
LINE
  5
1C1
100
AcDbEntity
  8
0
 62
256
370
-1
 48
1.0
  6
ByLayer
100
AcDbLine
 10
43.923962824641336
 20
-393.60000000000014
 30
0.0
 11
43.923962824641336
 21
-386.88000000000011
 31
0.0
  0
LINE
  5
1C2
100
AcDbEntity
  8
0
 62
256
370
-1
 48
1.0
  6
ByLayer
100
AcDbLine
 10
43.923962824641336
 20
-386.88000000000011
 30
0.0
 11
89.098962824641319
 21
-386.88000000000011
 31
0.0
  0
LINE
  5
1C3
100
AcDbEntity
  8
0
 62
256
370
-1
 48
1.0
  6
ByLayer
100
AcDbLine
 10
-101.32603717535878
 20
-326.88000000000011
 30
0.0
 11
-101.32603717535875
 21
-336.88000000000011
 31
0.0
  0
LINE
  5
1C4
100
AcDbEntity
  8
0
 62
256
370
-1
 48
1.0
  6
ByLayer
100
AcDbLine
 10
75.673962824641336
 20
-336.88000000000005
 30
0.0
 11
75.673962824641222
 21
-326.88000000000028
 31
0.0
  0
LINE
  5
1C5
100
AcDbEntity
  8
0
 62
256
370
-1
 48
1.0
  6
ByLayer
100
AcDbLine
 10
75.673962824641222
 20
-326.88000000000028
 30
0.0
 11
109.45396282464122
 21
-326.88000000000011
 31
0.0
  0
LINE
  5
1C6
100
AcDbEntity
  8
0
 62
256
370
-1
 48
1.0
  6
ByLayer
100
AcDbLine
 10
109.45396282464122
 20
-266.88000000000017
 30
0.0
 11
75.673962824641308
 21
-266.88000000000017
 31
0.0
  0
LINE
  5
1C7
100
AcDbEntity
  8
0
 62
256
370
-1
 48
1.0
  6
ByLayer
100
AcDbLine
 10
75.673962824641308
 20
-266.88000000000017
 30
0.0
 11
75.673962824641308
 21
-256.88000000000039
 31
0.0
  0
LINE
  5
1C8
100
AcDbEntity
  8
0
 62
256
370
-1
 48
1.0
  6
ByLayer
100
AcDbLine
 10
75.673962824641308
 20
-256.88000000000039
 30
0.0
 11
-101.32603717535873
 21
-256.88000000000011
 31
0.0
  0
LINE
  5
1C9
100
AcDbEntity
  8
0
 62
256
370
-1
 48
1.0
  6
ByLayer
100
AcDbLine
 10
-101.32603717535873
 20
-256.88000000000011
 30
0.0
 11
-101.32603717535875
 21
-266.88000000000011
 31
0.0
  0
LINE
  5
1CA
100
AcDbEntity
  8
0
 62
256
370
-1
 48
1.0
  6
ByLayer
100
AcDbLine
 10
-101.32603717535875
 20
-266.88000000000011
 30
0.0
 11
-135.10603717535867
 21
-266.88000000000011
 31
0.0
  0
LINE
  5
1CB
100
AcDbEntity
  8
0
 62
256
370
-1
 48
1.0
  6
ByLayer
100
AcDbLine
 10
-135.10603717535867
 20
-266.88000000000011
 30
0.0
 11
-135.10603717535867
 21
-386.88000000000011
 31
0.0
  0
LINE
  5
1CC
100
AcDbEntity
  8
0
 62
256
370
-1
 48
1.0
  6
ByLayer
100
AcDbLine
 10
-135.10603717535867
 20
-326.88000000000011
 30
0.0
 11
-101.32603717535878
 21
-326.88000000000011
 31
0.0
  0
LINE
  5
1CD
100
AcDbEntity
  8
0
 62
256
370
-1
 48
1.0
  6
ByLayer
100
AcDbLine
 10
89.098962824641319
 20
-206.88000000000011
 30
0.0
 11
89.098962824641319
 21
-211.66000000000011
 31
0.0
  0
LINE
  5
1CE
100
AcDbEntity
  8
0
 62
256
370
-1
 48
1.0
  6
ByLayer
100
AcDbLine
 10
89.098962824641319
 20
-211.66000000000011
 30
0.0
 11
88.073962824641342
 21
-211.66000000000011
 31
0.0
  0
ARC
  5
1CF
100
AcDbEntity
  8
0
 62
256
370
-1
 48
1.0
  6
ByLayer
100
AcDbCircle
 10
87.823962824641342
 20
-211.66000000000011
 30
0.0
 40
0.25
100
AcDbArc
 50
0.0
 51
270.0
  0
LINE
  5
1D0
100
AcDbEntity
  8
0
 62
256
370
-1
 48
1.0
  6
ByLayer
100
AcDbLine
 10
87.823962824641342
 20
-211.91000000000011
 30
0.0
 11
87.823962824641342
 21
-213.91000000000011
 31
0.0
  0
ARC
  5
1D1
100
AcDbEntity
  8
0
 62
256
370
-1
 48
1.0
  6
ByLayer
100
AcDbCircle
 10
87.823962824641342
 20
-214.16000000000011
 30
0.0
 40
0.25
100
AcDbArc
 50
90.0
 51
0.0
  0
LINE
  5
1D2
100
AcDbEntity
  8
0
 62
256
370
-1
 48
1.0
  6
ByLayer
100
AcDbLine
 10
88.073962824641342
 20
-214.16000000000011
 30
0.0
 11
89.098962824641319
 21
-214.16000000000011
 31
0.0
  0
LINE
  5
1D3
100
AcDbEntity
  8
0
 62
256
370
-1
 48
1.0
  6
ByLayer
100
AcDbLine
 10
89.098962824641319
 20
-214.16000000000011
 30
0.0
 11
89.098962824641319
 21
-215.16000000000011
 31
0.0
  0
LINE
  5
1D4
100
AcDbEntity
  8
0
 62
256
370
-1
 48
1.0
  6
ByLayer
100
AcDbLine
 10
89.098962824641319
 20
-215.16000000000011
 30
0.0
 11
92.248962824641296
 21
-215.16000000000011
 31
0.0
  0
LINE
  5
1D5
100
AcDbEntity
  8
0
 62
256
370
-1
 48
1.0
  6
ByLayer
100
AcDbLine
 10
92.248962824641296
 20
-215.16000000000011
 30
0.0
 11
92.248962824641296
 21
-214.16000000000011
 31
0.0
  0
LINE
  5
1D6
100
AcDbEntity
  8
0
 62
256
370
-1
 48
1.0
  6
ByLayer
100
AcDbLine
 10
92.248962824641296
 20
-214.16000000000011
 30
0.0
 11
93.27396282464133
 21
-214.16000000000011
 31
0.0
  0
ARC
  5
1D7
100
AcDbEntity
  8
0
 62
256
370
-1
 48
1.0
  6
ByLayer
100
AcDbCircle
 10
93.52396282464133
 20
-214.16000000000011
 30
0.0
 40
0.25
100
AcDbArc
 50
180.0
 51
90.0
  0
LINE
  5
1D8
100
AcDbEntity
  8
0
 62
256
370
-1
 48
1.0
  6
ByLayer
100
AcDbLine
 10
93.52396282464133
 20
-213.91000000000011
 30
0.0
 11
93.52396282464133
 21
-211.91000000000011
 31
0.0
  0
ARC
  5
1D9
100
AcDbEntity
  8
0
 62
256
370
-1
 48
1.0
  6
ByLayer
100
AcDbCircle
 10
93.52396282464133
 20
-211.66000000000011
 30
0.0
 40
0.25
100
AcDbArc
 50
270.0
 51
180.0
  0
LINE
  5
1DA
100
AcDbEntity
  8
0
 62
256
370
-1
 48
1.0
  6
ByLayer
100
AcDbLine
 10
93.27396282464133
 20
-211.66000000000011
 30
0.0
 11
92.248962824641296
 21
-211.66000000000011
 31
0.0
  0
LINE
  5
1DB
100
AcDbEntity
  8
0
 62
256
370
-1
 48
1.0
  6
ByLayer
100
AcDbLine
 10
92.248962824641296
 20
-211.66000000000011
 30
0.0
 11
92.248962824641296
 21
-206.88000000000011
 31
0.0
  0
LINE
  5
1DC
100
AcDbEntity
  8
0
 62
256
370
-1
 48
1.0
  6
ByLayer
100
AcDbLine
 10
92.248962824641296
 20
-206.88000000000011
 30
0.0
 11
109.45396282464134
 21
-206.88000000000011
 31
0.0
  0
LINE
  5
1DD
100
AcDbEntity
  8
0
 62
256
370
-1
 48
1.0
  6
ByLayer
100
AcDbLine
 10
109.45396282464134
 20
-206.88000000000011
 30
0.0
 11
109.45396282464134
 21
-256.88000000000011
 31
0.0
  0
LINE
  5
1DE
100
AcDbEntity
  8
0
 62
256
370
-1
 48
1.0
  6
ByLayer
100
AcDbLine
 10
109.45396282464134
 20
-256.88000000000011
 30
0.0
 11
39.798962824641308
 21
-256.88000000000011
 31
0.0
  0
LINE
  5
1DF
100
AcDbEntity
  8
0
 62
256
370
-1
 48
1.0
  6
ByLayer
100
AcDbLine
 10
39.798962824641308
 20
-256.88000000000011
 30
0.0
 11
39.798962824641308
 21
-249.38000000000011
 31
0.0
  0
ARC
  5
1E0
100
AcDbEntity
  8
0
 62
256
370
-1
 48
1.0
  6
ByLayer
100
AcDbCircle
 10
37.173962824641308
 20
-249.38000000000011
 30
0.0
 40
2.625
100
AcDbArc
 50
0.0
 51
180.0
  0
LINE
  5
1E1
100
AcDbEntity
  8
0
 62
256
370
-1
 48
1.0
  6
ByLayer
100
AcDbLine
 10
34.548962824641308
 20
-249.38000000000011
 30
0.0
 11
34.548962824641336
 21
-256.88000000000011
 31
0.0
  0
LINE
  5
1E2
100
AcDbEntity
  8
0
 62
256
370
-1
 48
1.0
  6
ByLayer
100
AcDbLine
 10
34.548962824641336
 20
-256.88000000000011
 30
0.0
 11
-60.201037175358664
 21
-256.88000000000011
 31
0.0
  0
LINE
  5
1E3
100
AcDbEntity
  8
0
 62
256
370
-1
 48
1.0
  6
ByLayer
100
AcDbLine
 10
-60.201037175358664
 20
-256.88000000000011
 30
0.0
 11
-60.201037175358664
 21
-249.38000000000011
 31
0.0
  0
ARC
  5
1E4
100
AcDbEntity
  8
0
 62
256
370
-1
 48
1.0
  6
ByLayer
100
AcDbCircle
 10
-62.826037175358664
 20
-249.38000000000011
 30
0.0
 40
2.625
100
AcDbArc
 50
0.0
 51
180.0
  0
LINE
  5
1E5
100
AcDbEntity
  8
0
 62
256
370
-1
 48
1.0
  6
ByLayer
100
AcDbLine
 10
-65.451037175358664
 20
-249.38000000000011
 30
0.0
 11
-65.451037175358664
 21
-256.88000000000011
 31
0.0
  0
LINE
  5
1E6
100
AcDbEntity
  8
0
 62
256
370
-1
 48
1.0
  6
ByLayer
100
AcDbLine
 10
-65.451037175358664
 20
-256.88000000000011
 30
0.0
 11
-135.10603717535867
 21
-256.88000000000011
 31
0.0
  0
LINE
  5
1E7
100
AcDbEntity
  8
0
 62
256
370
-1
 48
1.0
  6
ByLayer
100
AcDbLine
 10
-135.10603717535867
 20
-256.88000000000011
 30
0.0
 11
-135.10603717535867
 21
-206.88000000000011
 31
0.0
  0
LINE
  5
1E8
100
AcDbEntity
  8
0
 62
256
370
-1
 48
1.0
  6
ByLayer
100
AcDbLine
 10
-135.10603717535867
 20
-206.88000000000011
 30
0.0
 11
-117.90103717535865
 21
-206.88000000000011
 31
0.0
  0
LINE
  5
1E9
100
AcDbEntity
  8
0
 62
256
370
-1
 48
1.0
  6
ByLayer
100
AcDbLine
 10
-117.90103717535865
 20
-206.88000000000011
 30
0.0
 11
-117.90103717535865
 21
-211.66000000000011
 31
0.0
  0
LINE
  5
1EA
100
AcDbEntity
  8
0
 62
256
370
-1
 48
1.0
  6
ByLayer
100
AcDbLine
 10
-117.90103717535865
 20
-211.66000000000011
 30
0.0
 11
-118.92603717535866
 21
-211.66000000000011
 31
0.0
  0
ARC
  5
1EB
100
AcDbEntity
  8
0
 62
256
370
-1
 48
1.0
  6
ByLayer
100
AcDbCircle
 10
-119.17603717535866
 20
-211.66000000000011
 30
0.0
 40
0.25
100
AcDbArc
 50
0.0
 51
270.0
  0
LINE
  5
1EC
100
AcDbEntity
  8
0
 62
256
370
-1
 48
1.0
  6
ByLayer
100
AcDbLine
 10
-119.17603717535866
 20
-211.91000000000011
 30
0.0
 11
-119.17603717535866
 21
-213.91000000000011
 31
0.0
  0
ARC
  5
1ED
100
AcDbEntity
  8
0
 62
256
370
-1
 48
1.0
  6
ByLayer
100
AcDbCircle
 10
-119.17603717535872
 20
-214.16000000000005
 30
0.0
 40
0.2499999999999431
100
AcDbArc
 50
89.999999999986969
 51
360.0
  0
LINE
  5
1EE
100
AcDbEntity
  8
0
 62
256
370
-1
 48
1.0
  6
ByLayer
100
AcDbLine
 10
-118.92603717535877
 20
-214.16000000000011
 30
0.0
 11
-117.90103717535865
 21
-214.16000000000011
 31
0.0
  0
LINE
  5
1EF
100
AcDbEntity
  8
0
 62
256
370
-1
 48
1.0
  6
ByLayer
100
AcDbLine
 10
-117.90103717535865
 20
-214.16000000000011
 30
0.0
 11
-117.90103717535865
 21
-215.16000000000011
 31
0.0
  0
LINE
  5
1F0
100
AcDbEntity
  8
0
 62
256
370
-1
 48
1.0
  6
ByLayer
100
AcDbLine
 10
-117.90103717535865
 20
-215.16000000000011
 30
0.0
 11
-114.75103717535868
 21
-215.16000000000011
 31
0.0
  0
LINE
  5
1F1
100
AcDbEntity
  8
0
 62
256
370
-1
 48
1.0
  6
ByLayer
100
AcDbLine
 10
-114.75103717535868
 20
-215.16000000000011
 30
0.0
 11
-114.75103717535868
 21
-214.16000000000011
 31
0.0
  0
LINE
  5
1F2
100
AcDbEntity
  8
0
 62
256
370
-1
 48
1.0
  6
ByLayer
100
AcDbLine
 10
-114.75103717535868
 20
-214.16000000000011
 30
0.0
 11
-113.72603717535875
 21
-214.16000000000011
 31
0.0
  0
ARC
  5
1F3
100
AcDbEntity
  8
0
 62
256
370
-1
 48
1.0
  6
ByLayer
100
AcDbCircle
 10
-113.47603717535871
 20
-214.16000000000014
 30
0.0
 40
0.2500000000000426
100
AcDbArc
 50
180.0
 51
89.999999999990223
  0
LINE
  5
1F4
100
AcDbEntity
  8
0
 62
256
370
-1
 48
1.0
  6
ByLayer
100
AcDbLine
 10
-113.47603717535867
 20
-213.91000000000011
 30
0.0
 11
-113.47603717535867
 21
-211.91000000000011
 31
0.0
  0
ARC
  5
1F5
100
AcDbEntity
  8
0
 62
256
370
-1
 48
1.0
  6
ByLayer
100
AcDbCircle
 10
-113.47603717535867
 20
-211.66000000000011
 30
0.0
 40
0.25
100
AcDbArc
 50
270.0
 51
180.0
  0
LINE
  5
1F6
100
AcDbEntity
  8
0
 62
256
370
-1
 48
1.0
  6
ByLayer
100
AcDbLine
 10
-113.72603717535867
 20
-211.66000000000011
 30
0.0
 11
-114.75103717535868
 21
-211.66000000000011
 31
0.0
  0
LINE
  5
1F7
100
AcDbEntity
  8
0
 62
256
370
-1
 48
1.0
  6
ByLayer
100
AcDbLine
 10
-114.75103717535868
 20
-211.66000000000011
 30
0.0
 11
-114.75103717535868
 21
-206.88000000000011
 31
0.0
  0
LINE
  5
1F8
100
AcDbEntity
  8
0
 62
256
370
-1
 48
1.0
  6
ByLayer
100
AcDbLine
 10
-114.75103717535868
 20
-206.88000000000011
 30
0.0
 11
-69.576037175358664
 21
-206.88000000000011
 31
0.0
  0
LINE
  5
1F9
100
AcDbEntity
  8
0
 62
256
370
-1
 48
1.0
  6
ByLayer
100
AcDbLine
 10
-69.576037175358664
 20
-206.88000000000011
 30
0.0
 11
-69.576037175358664
 21
-200.16000000000011
 31
0.0
  0
LINE
  5
1FA
100
AcDbEntity
  8
0
 62
256
370
-1
 48
1.0
  6
ByLayer
100
AcDbLine
 10
-59.576037175358664
 20
-200.16000000000011
 30
0.0
 11
-59.576037175358664
 21
-206.88000000000011
 31
0.0
  0
LINE
  5
1FB
100
AcDbEntity
  8
0
 62
256
370
-1
 48
1.0
  6
ByLayer
100
AcDbLine
 10
-59.576037175358664
 20
-206.88000000000011
 30
0.0
 11
-48.901037175358653
 21
-206.88000000000011
 31
0.0
  0
LINE
  5
1FC
100
AcDbEntity
  8
0
 62
256
370
-1
 48
1.0
  6
ByLayer
100
AcDbLine
 10
-48.901037175358653
 20
-206.88000000000011
 30
0.0
 11
-48.901037175358653
 21
-211.66000000000011
 31
0.0
  0
LINE
  5
1FD
100
AcDbEntity
  8
0
 62
256
370
-1
 48
1.0
  6
ByLayer
100
AcDbLine
 10
-48.901037175358653
 20
-211.66000000000011
 30
0.0
 11
-49.926037175358658
 21
-211.66000000000011
 31
0.0
  0
ARC
  5
1FE
100
AcDbEntity
  8
0
 62
256
370
-1
 48
1.0
  6
ByLayer
100
AcDbCircle
 10
-50.176037175358658
 20
-211.66000000000011
 30
0.0
 40
0.25
100
AcDbArc
 50
0.0
 51
270.0
  0
LINE
  5
1FF
100
AcDbEntity
  8
0
 62
256
370
-1
 48
1.0
  6
ByLayer
100
AcDbLine
 10
-50.176037175358658
 20
-211.91000000000011
 30
0.0
 11
-50.176037175358658
 21
-213.91000000000011
 31
0.0
  0
ARC
  5
200
100
AcDbEntity
  8
0
 62
256
370
-1
 48
1.0
  6
ByLayer
100
AcDbCircle
 10
-50.176037175358658
 20
-214.16000000000011
 30
0.0
 40
0.25
100
AcDbArc
 50
90.0
 51
0.0
  0
LINE
  5
201
100
AcDbEntity
  8
0
 62
256
370
-1
 48
1.0
  6
ByLayer
100
AcDbLine
 10
-49.926037175358658
 20
-214.16000000000011
 30
0.0
 11
-48.901037175358653
 21
-214.16000000000011
 31
0.0
  0
LINE
  5
202
100
AcDbEntity
  8
0
 62
256
370
-1
 48
1.0
  6
ByLayer
100
AcDbLine
 10
-48.901037175358653
 20
-214.16000000000011
 30
0.0
 11
-48.901037175358653
 21
-215.16000000000011
 31
0.0
  0
LINE
  5
203
100
AcDbEntity
  8
0
 62
256
370
-1
 48
1.0
  6
ByLayer
100
AcDbLine
 10
-48.901037175358653
 20
-215.16000000000011
 30
0.0
 11
-45.751037175358675
 21
-215.16000000000011
 31
0.0
  0
LINE
  5
204
100
AcDbEntity
  8
0
 62
256
370
-1
 48
1.0
  6
ByLayer
100
AcDbLine
 10
-45.751037175358675
 20
-215.16000000000011
 30
0.0
 11
-45.751037175358675
 21
-214.16000000000011
 31
0.0
  0
LINE
  5
205
100
AcDbEntity
  8
0
 62
256
370
-1
 48
1.0
  6
ByLayer
100
AcDbLine
 10
-45.751037175358675
 20
-214.16000000000011
 30
0.0
 11
-44.72603717535867
 21
-214.16000000000011
 31
0.0
  0
ARC
  5
206
100
AcDbEntity
  8
0
 62
256
370
-1
 48
1.0
  6
ByLayer
100
AcDbCircle
 10
-44.47603717535867
 20
-214.16000000000011
 30
0.0
 40
0.25
100
AcDbArc
 50
180.0
 51
90.0
  0
LINE
  5
207
100
AcDbEntity
  8
0
 62
256
370
-1
 48
1.0
  6
ByLayer
100
AcDbLine
 10
-44.47603717535867
 20
-213.91000000000011
 30
0.0
 11
-44.47603717535867
 21
-211.91000000000011
 31
0.0
  0
ARC
  5
208
100
AcDbEntity
  8
0
 62
256
370
-1
 48
1.0
  6
ByLayer
100
AcDbCircle
 10
-44.47603717535867
 20
-211.66000000000011
 30
0.0
 40
0.25
100
AcDbArc
 50
270.0
 51
180.0
  0
LINE
  5
209
100
AcDbEntity
  8
0
 62
256
370
-1
 48
1.0
  6
ByLayer
100
AcDbLine
 10
-44.72603717535867
 20
-211.66000000000011
 30
0.0
 11
-45.751037175358675
 21
-211.66000000000011
 31
0.0
  0
LINE
  5
20A
100
AcDbEntity
  8
0
 62
256
370
-1
 48
1.0
  6
ByLayer
100
AcDbLine
 10
-45.751037175358675
 20
-211.66000000000011
 30
0.0
 11
-45.751037175358675
 21
-206.88000000000011
 31
0.0
  0
LINE
  5
20B
100
AcDbEntity
  8
0
 62
256
370
-1
 48
1.0
  6
ByLayer
100
AcDbLine
 10
-45.751037175358675
 20
-206.88000000000011
 30
0.0
 11
20.098962824641319
 21
-206.88000000000011
 31
0.0
  0
LINE
  5
20C
100
AcDbEntity
  8
0
 62
256
370
-1
 48
1.0
  6
ByLayer
100
AcDbLine
 10
20.098962824641319
 20
-206.88000000000011
 30
0.0
 11
20.098962824641319
 21
-211.66000000000011
 31
0.0
  0
LINE
  5
20D
100
AcDbEntity
  8
0
 62
256
370
-1
 48
1.0
  6
ByLayer
100
AcDbLine
 10
20.098962824641319
 20
-211.66000000000011
 30
0.0
 11
19.073962824641313
 21
-211.66000000000011
 31
0.0
  0
ARC
  5
20E
100
AcDbEntity
  8
0
 62
256
370
-1
 48
1.0
  6
ByLayer
100
AcDbCircle
 10
18.823962824641313
 20
-211.66000000000011
 30
0.0
 40
0.25
100
AcDbArc
 50
0.0
 51
270.0
  0
LINE
  5
20F
100
AcDbEntity
  8
0
 62
256
370
-1
 48
1.0
  6
ByLayer
100
AcDbLine
 10
18.823962824641313
 20
-211.91000000000011
 30
0.0
 11
18.823962824641313
 21
-213.91000000000011
 31
0.0
  0
ARC
  5
210
100
AcDbEntity
  8
0
 62
256
370
-1
 48
1.0
  6
ByLayer
100
AcDbCircle
 10
18.823962824641313
 20
-214.16000000000011
 30
0.0
 40
0.25
100
AcDbArc
 50
90.0
 51
0.0
  0
LINE
  5
211
100
AcDbEntity
  8
0
 62
256
370
-1
 48
1.0
  6
ByLayer
100
AcDbLine
 10
19.073962824641313
 20
-214.16000000000011
 30
0.0
 11
20.098962824641319
 21
-214.16000000000011
 31
0.0
  0
LINE
  5
212
100
AcDbEntity
  8
0
 62
256
370
-1
 48
1.0
  6
ByLayer
100
AcDbLine
 10
20.098962824641319
 20
-214.16000000000011
 30
0.0
 11
20.098962824641319
 21
-215.16000000000011
 31
0.0
  0
LINE
  5
213
100
AcDbEntity
  8
0
 62
256
370
-1
 48
1.0
  6
ByLayer
100
AcDbLine
 10
20.098962824641319
 20
-215.16000000000011
 30
0.0
 11
23.248962824641296
 21
-215.16000000000011
 31
0.0
  0
LINE
  5
214
100
AcDbEntity
  8
0
 62
256
370
-1
 48
1.0
  6
ByLayer
100
AcDbLine
 10
23.248962824641296
 20
-215.16000000000011
 30
0.0
 11
23.248962824641296
 21
-214.16000000000011
 31
0.0
  0
LINE
  5
215
100
AcDbEntity
  8
0
 62
256
370
-1
 48
1.0
  6
ByLayer
100
AcDbLine
 10
23.248962824641296
 20
-214.16000000000011
 30
0.0
 11
24.27396282464133
 21
-214.16000000000011
 31
0.0
  0
ARC
  5
216
100
AcDbEntity
  8
0
 62
256
370
-1
 48
1.0
  6
ByLayer
100
AcDbCircle
 10
24.52396282464133
 20
-214.16000000000011
 30
0.0
 40
0.25
100
AcDbArc
 50
180.0
 51
90.0
  0
LINE
  5
217
100
AcDbEntity
  8
0
 62
256
370
-1
 48
1.0
  6
ByLayer
100
AcDbLine
 10
24.52396282464133
 20
-213.91000000000011
 30
0.0
 11
24.52396282464133
 21
-211.91000000000011
 31
0.0
  0
ARC
  5
218
100
AcDbEntity
  8
0
 62
256
370
-1
 48
1.0
  6
ByLayer
100
AcDbCircle
 10
24.52396282464133
 20
-211.66000000000011
 30
0.0
 40
0.25
100
AcDbArc
 50
270.0
 51
180.0
  0
LINE
  5
219
100
AcDbEntity
  8
0
 62
256
370
-1
 48
1.0
  6
ByLayer
100
AcDbLine
 10
24.27396282464133
 20
-211.66000000000011
 30
0.0
 11
23.248962824641296
 21
-211.66000000000011
 31
0.0
  0
LINE
  5
21A
100
AcDbEntity
  8
0
 62
256
370
-1
 48
1.0
  6
ByLayer
100
AcDbLine
 10
23.248962824641296
 20
-211.66000000000011
 30
0.0
 11
23.248962824641296
 21
-206.88000000000011
 31
0.0
  0
LINE
  5
21B
100
AcDbEntity
  8
0
 62
256
370
-1
 48
1.0
  6
ByLayer
100
AcDbLine
 10
23.248962824641296
 20
-206.88000000000011
 30
0.0
 11
33.923962824641336
 21
-206.88000000000011
 31
0.0
  0
LINE
  5
21C
100
AcDbEntity
  8
0
 62
256
370
-1
 48
1.0
  6
ByLayer
100
AcDbLine
 10
33.923962824641336
 20
-206.88000000000011
 30
0.0
 11
33.923962824641336
 21
-200.16000000000011
 31
0.0
  0
LINE
  5
21D
100
AcDbEntity
  8
0
 62
256
370
-1
 48
1.0
  6
ByLayer
100
AcDbLine
 10
33.923962824641336
 20
-200.16000000000011
 30
0.0
 11
43.923962824641336
 21
-200.16000000000011
 31
0.0
  0
LINE
  5
21E
100
AcDbEntity
  8
0
 62
256
370
-1
 48
1.0
  6
ByLayer
100
AcDbLine
 10
43.923962824641336
 20
-200.16000000000011
 30
0.0
 11
43.923962824641336
 21
-206.88000000000011
 31
0.0
  0
LINE
  5
21F
100
AcDbEntity
  8
0
 62
256
370
-1
 48
1.0
  6
ByLayer
100
AcDbLine
 10
43.923962824641336
 20
-206.88000000000011
 30
0.0
 11
89.098962824641319
 21
-206.88000000000011
 31
0.0
  0
CIRCLE
  5
220
100
AcDbEntity
  8
0
 62
256
370
-1
 48
1.0
  6
ByLayer
100
AcDbCircle
 10
-107.84075580112017
 20
-305.36528137423875
 30
0.0
 40
2.0
  0
CIRCLE
  5
221
100
AcDbEntity
  8
0
 62
256
370
-1
 48
1.0
  6
ByLayer
100
AcDbCircle
 10
-165.5
 20
103.36000000000001
 30
0.0
 40
1.575
  0
CIRCLE
  5
222
100
AcDbEntity
  8
0
 62
256
370
-1
 48
1.0
  6
ByLayer
100
AcDbCircle
 10
-133.55999999999969
 20
91.710000000000178
 30
0.0
 40
2.0
  0
CIRCLE
  5
223
100
AcDbEntity
  8
0
 62
256
370
-1
 48
1.0
  6
ByLayer
100
AcDbCircle
 10
-124.81131854959727
 20
-288.39471862576164
 30
0.0
 40
2.0
  0
CIRCLE
  5
224
100
AcDbEntity
  8
0
 62
256
370
-1
 48
1.0
  6
ByLayer
100
AcDbCircle
 10
-125.08333333333323
 20
-121.63999999999999
 30
0.0
 40
1.5750000000000159
  0
CIRCLE
  5
225
100
AcDbEntity
  8
0
 62
256
370
-1
 48
1.0
  6
ByLayer
100
AcDbCircle
 10
-107.84075580112018
 20
-288.39471862576158
 30
0.0
 40
2.0
  0
CIRCLE
  5
226
100
AcDbEntity
  8
0
 62
256
370
-1
 48
1.0
  6
ByLayer
100
AcDbCircle
 10
-125.08333333333351
 20
391.63999999999999
 30
0.0
 40
1.575
  0
CIRCLE
  5
227
100
AcDbEntity
  8
0
 62
256
370
-1
 48
1.0
  6
ByLayer
100
AcDbCircle
 10
-124.81131854959726
 20
-305.36528137423875
 30
0.0
 40
2.0
  0
CIRCLE
  5
228
100
AcDbEntity
  8
0
 62
256
370
-1
 48
1.0
  6
ByLayer
100
AcDbCircle
 10
-188.63999999999999
 20
375.25
 30
0.0
 40
1.575
  0
CIRCLE
  5
229
100
AcDbEntity
  8
0
 62
256
370
-1
 48
1.0
  6
ByLayer
100
AcDbCircle
 10
-116.32603717535878
 20
-296.88000000000017
 30
0.0
 40
7.5
  0
CIRCLE
  5
22A
100
AcDbEntity
  8
0
 62
256
370
-1
 48
1.0
  6
ByLayer
100
AcDbCircle
 10
48.25
 20
-121.63999999999999
 30
0.0
 40
1.574999999999998
  0
CIRCLE
  5
22B
100
AcDbEntity
  8
0
 62
256
370
-1
 48
1.0
  6
ByLayer
100
AcDbCircle
 10
82.188681450402669
 20
-305.36528137423886
 30
0.0
 40
2.0
  0
CIRCLE
  5
22C
100
AcDbEntity
  8
0
 62
256
370
-1
 48
1.0
  6
ByLayer
100
AcDbCircle
 10
-188.63999999999999
 20
119.75
 30
0.0
 40
1.574999999999996
  0
CIRCLE
  5
22D
100
AcDbEntity
  8
0
 62
256
370
-1
 48
1.0
  6
ByLayer
100
AcDbCircle
 10
99.159244198879719
 20
-288.39471862576153
 30
0.0
 40
2.0
  0
CIRCLE
  5
22E
100
AcDbEntity
  8
0
 62
256
370
-1
 48
1.0
  6
ByLayer
100
AcDbCircle
 10
-172.25
 20
391.63999999999999
 30
0.0
 40
1.574999999999998
  0
CIRCLE
  5
22F
100
AcDbEntity
  8
0
 62
256
370
-1
 48
1.0
  6
ByLayer
100
AcDbCircle
 10
82.188681450402669
 20
-288.39471862576164
 30
0.0
 40
2.0
  0
CIRCLE
  5
230
100
AcDbEntity
  8
0
 62
256
370
-1
 48
1.0
  6
ByLayer
100
AcDbCircle
 10
48.25
 20
391.63999999999999
 30
0.0
 40
1.574999999999998
  0
CIRCLE
  5
231
100
AcDbEntity
  8
0
 62
256
370
-1
 48
1.0
  6
ByLayer
100
AcDbCircle
 10
99.159244198879719
 20
-305.36528137423875
 30
0.0
 40
2.0
  0
CIRCLE
  5
232
100
AcDbEntity
  8
0
 62
256
370
-1
 48
1.0
  6
ByLayer
100
AcDbCircle
 10
-172.25
 20
-121.63999999999999
 30
0.0
 40
1.574999999999998
  0
CIRCLE
  5
233
100
AcDbEntity
  8
0
 62
256
370
-1
 48
1.0
  6
ByLayer
100
AcDbCircle
 10
90.673962824641251
 20
-296.88000000000022
 30
0.0
 40
7.5
  0
CIRCLE
  5
234
100
AcDbEntity
  8
0
 62
256
370
-1
 48
1.0
  6
ByLayer
100
AcDbCircle
 10
64.639999999999986
 20
119.75
 30
0.0
 40
1.574999999999996
  0
CIRCLE
  5
235
100
AcDbEntity
  8
0
 62
256
370
-1
 48
1.0
  6
ByLayer
100
AcDbCircle
 10
-12.826037175358707
 20
-296.88000000000011
 30
0.0
 40
11.0
  0
CIRCLE
  5
236
100
AcDbEntity
  8
0
 62
256
370
-1
 48
1.0
  6
ByLayer
100
AcDbCircle
 10
64.639999999999873
 20
375.25
 30
0.0
 40
1.575
  0
CIRCLE
  5
237
100
AcDbEntity
  8
0
 62
256
370
-1
 48
1.0
  6
ByLayer
100
AcDbCircle
 10
2.6739628246412508
 20
-281.38000000000022
 30
0.0
 40
1.575
  0
CIRCLE
  5
238
100
AcDbEntity
  8
0
 62
256
370
-1
 48
1.0
  6
ByLayer
100
AcDbCircle
 10
1.0833333333334849
 20
391.63999999999999
 30
0.0
 40
1.575
  0
CIRCLE
  5
239
100
AcDbEntity
  8
0
 62
256
370
-1
 48
1.0
  6
ByLayer
100
AcDbCircle
 10
2.6739628246412508
 20
-312.38000000000011
 30
0.0
 40
1.575
  0
CIRCLE
  5
23A
100
AcDbEntity
  8
0
 62
256
370
-1
 48
1.0
  6
ByLayer
100
AcDbCircle
 10
1.0833333333332575
 20
-121.63999999999999
 30
0.0
 40
1.5750000000000159
  0
CIRCLE
  5
23B
100
AcDbEntity
  8
0
 62
256
370
-1
 48
1.0
  6
ByLayer
100
AcDbCircle
 10
-28.326037175358707
 20
-312.38000000000011
 30
0.0
 40
1.575
  0
CIRCLE
  5
23C
100
AcDbEntity
  8
0
 62
256
370
-1
 48
1.0
  6
ByLayer
100
AcDbCircle
 10
-28.326037175358721
 20
-281.38000000000022
 30
0.0
 40
1.575
  0
CIRCLE
  5
23D
100
AcDbEntity
  8
0
 62
256
370
-1
 48
1.0
  6
ByLayer
100
AcDbCircle
 10
-47.326037175358721
 20
-323.5200000000001
 30
0.0
 40
1.6499999999999999
  0
CIRCLE
  5
23E
100
AcDbEntity
  8
0
 62
256
370
-1
 48
1.0
  6
ByLayer
100
AcDbCircle
 10
90.673962824641279
 20
-323.51999999999998
 30
0.0
 40
1.6499999999999999
  0
CIRCLE
  5
23F
100
AcDbEntity
  8
0
 62
256
370
-1
 48
1.0
  6
ByLayer
100
AcDbCircle
 10
-47.326037175358735
 20
-270.24000000000018
 30
0.0
 40
1.6499999999999999
  0
CIRCLE
  5
240
100
AcDbEntity
  8
0
 62
256
370
-1
 48
1.0
  6
ByLayer
100
AcDbCircle
 10
90.673962824641251
 20
-270.24000000000035
 30
0.0
 40
1.6499999999999999
  0
CIRCLE
  5
241
100
AcDbEntity
  8
0
 62
256
370
-1
 48
1.0
  6
ByLayer
100
AcDbCircle
 10
21.673962824641308
 20
-270.24000000000069
 30
0.0
 40
1.6499999999999999
  0
CIRCLE
  5
242
100
AcDbEntity
  8
0
 62
256
370
-1
 48
1.0
  6
ByLayer
100
AcDbCircle
 10
-116.32603717535866
 20
-270.24000000000007
 30
0.0
 40
1.6499999999999999
  0
CIRCLE
  5
243
100
AcDbEntity
  8
0
 62
256
370
-1
 48
1.0
  6
ByLayer
100
AcDbCircle
 10
21.673962824641336
 20
-323.51999999999998
 30
0.0
 40
1.6499999999999999
  0
CIRCLE
  5
244
100
AcDbEntity
  8
0
 62
256
370
-1
 48
1.0
  6
ByLayer
100
AcDbCircle
 10
-116.32603717535866
 20
-323.5200000000001
 30
0.0
 40
1.6499999999999999
  0
CIRCLE
  5
245
100
AcDbEntity
  8
0
 62
256
370
-1
 48
1.0
  6
ByLayer
100
AcDbCircle
 10
-12.826037175358735
 20
-331.88000000000005
 30
0.0
 40
1.9999999999999989
  0
CIRCLE
  5
246
100
AcDbEntity
  8
0
 62
256
370
-1
 48
1.0
  6
ByLayer
100
AcDbCircle
 10
-12.826037175358735
 20
-261.87999999999994
 30
0.0
 40
1.9999999999999989
  0
LINE
  5
247
100
AcDbEntity
  8
0
 62
256
370
-1
 48
1.0
  6
ByLayer
100
AcDbLine
 10
157.36499999999984
 20
309.04499999999967
 30
0.0
 11
157.36499999999984
 21
304.26499999999965
 31
0.0
  0
LINE
  5
248
100
AcDbEntity
  8
0
 62
256
370
-1
 48
1.0
  6
ByLayer
100
AcDbLine
 10
157.36499999999984
 20
304.26499999999965
 30
0.0
 11
156.33999999999983
 21
304.26499999999965
 31
0.0
  0
ARC
  5
249
100
AcDbEntity
  8
0
 62
256
370
-1
 48
1.0
  6
ByLayer
100
AcDbCircle
 10
156.0899999999998
 20
304.26499999999965
 30
0.0
 40
0.2500000000000142
100
AcDbArc
 50
0.0
 51
270.0
  0
LINE
  5
24A
100
AcDbEntity
  8
0
 62
256
370
-1
 48
1.0
  6
ByLayer
100
AcDbLine
 10
156.0899999999998
 20
304.01499999999965
 30
0.0
 11
156.08999999999983
 21
302.01499999999965
 31
0.0
  0
ARC
  5
24B
100
AcDbEntity
  8
0
 62
256
370
-1
 48
1.0
  6
ByLayer
100
AcDbCircle
 10
156.08999999999983
 20
301.76499999999965
 30
0.0
 40
0.25
100
AcDbArc
 50
90.0
 51
0.0
  0
LINE
  5
24C
100
AcDbEntity
  8
0
 62
256
370
-1
 48
1.0
  6
ByLayer
100
AcDbLine
 10
156.33999999999983
 20
301.76499999999965
 30
0.0
 11
157.36499999999984
 21
301.76499999999965
 31
0.0
  0
LINE
  5
24D
100
AcDbEntity
  8
0
 62
256
370
-1
 48
1.0
  6
ByLayer
100
AcDbLine
 10
157.36499999999984
 20
301.76499999999965
 30
0.0
 11
157.36499999999984
 21
300.76499999999965
 31
0.0
  0
LINE
  5
24E
100
AcDbEntity
  8
0
 62
256
370
-1
 48
1.0
  6
ByLayer
100
AcDbLine
 10
157.36499999999984
 20
300.76499999999965
 30
0.0
 11
160.51499999999982
 21
300.76499999999965
 31
0.0
  0
LINE
  5
24F
100
AcDbEntity
  8
0
 62
256
370
-1
 48
1.0
  6
ByLayer
100
AcDbLine
 10
160.51499999999982
 20
300.76499999999965
 30
0.0
 11
160.51499999999984
 21
301.76499999999965
 31
0.0
  0
LINE
  5
250
100
AcDbEntity
  8
0
 62
256
370
-1
 48
1.0
  6
ByLayer
100
AcDbLine
 10
160.51499999999984
 20
301.76499999999965
 30
0.0
 11
161.53999999999979
 21
301.76499999999965
 31
0.0
  0
ARC
  5
251
100
AcDbEntity
  8
0
 62
256
370
-1
 48
1.0
  6
ByLayer
100
AcDbCircle
 10
161.78999999999979
 20
301.76499999999965
 30
0.0
 40
0.25
100
AcDbArc
 50
180.0
 51
90.0
  0
LINE
  5
252
100
AcDbEntity
  8
0
 62
256
370
-1
 48
1.0
  6
ByLayer
100
AcDbLine
 10
161.78999999999979
 20
302.01499999999965
 30
0.0
 11
161.78999999999982
 21
304.01499999999965
 31
0.0
  0
ARC
  5
253
100
AcDbEntity
  8
0
 62
256
370
-1
 48
1.0
  6
ByLayer
100
AcDbCircle
 10
161.78999999999982
 20
304.26499999999965
 30
0.0
 40
0.25
100
AcDbArc
 50
270.0
 51
180.0
  0
LINE
  5
254
100
AcDbEntity
  8
0
 62
256
370
-1
 48
1.0
  6
ByLayer
100
AcDbLine
 10
161.53999999999982
 20
304.26499999999965
 30
0.0
 11
160.51499999999984
 21
304.26499999999965
 31
0.0
  0
LINE
  5
255
100
AcDbEntity
  8
0
 62
256
370
-1
 48
1.0
  6
ByLayer
100
AcDbLine
 10
160.51499999999984
 20
304.26499999999965
 30
0.0
 11
160.51499999999984
 21
309.04499999999967
 31
0.0
  0
LINE
  5
256
100
AcDbEntity
  8
0
 62
256
370
-1
 48
1.0
  6
ByLayer
100
AcDbLine
 10
160.51499999999984
 20
309.04499999999967
 30
0.0
 11
166.43999999999983
 21
309.04500000000002
 31
0.0
  0
LINE
  5
257
100
AcDbEntity
  8
0
 62
256
370
-1
 48
1.0
  6
ByLayer
100
AcDbLine
 10
166.43999999999983
 20
309.04500000000002
 30
0.0
 11
166.43999999999943
 21
128.04499999999996
 31
0.0
  0
LINE
  5
258
100
AcDbEntity
  8
0
 62
256
370
-1
 48
1.0
  6
ByLayer
100
AcDbLine
 10
166.43999999999943
 20
128.04499999999996
 30
0.0
 11
160.51499999999996
 21
128.04500000000002
 31
0.0
  0
LINE
  5
259
100
AcDbEntity
  8
0
 62
256
370
-1
 48
1.0
  6
ByLayer
100
AcDbLine
 10
160.51499999999996
 20
128.04500000000002
 30
0.0
 11
160.51499999999965
 21
132.82500000000002
 31
0.0
  0
LINE
  5
25A
100
AcDbEntity
  8
0
 62
256
370
-1
 48
1.0
  6
ByLayer
100
AcDbLine
 10
160.51499999999965
 20
132.82500000000002
 30
0.0
 11
161.53999999999985
 21
132.82500000000007
 31
0.0
  0
ARC
  5
25B
100
AcDbEntity
  8
0
 62
256
370
-1
 48
1.0
  6
ByLayer
100
AcDbCircle
 10
161.78999999999968
 20
132.82500000000019
 30
0.0
 40
0.2499999999998294
100
AcDbArc
 50
180.0
 51
90.000000000026063
  0
LINE
  5
25C
100
AcDbEntity
  8
0
 62
256
370
-1
 48
1.0
  6
ByLayer
100
AcDbLine
 10
161.78999999999957
 20
133.07500000000002
 30
0.0
 11
161.78999999999965
 21
135.07500000000005
 31
0.0
  0
ARC
  5
25D
100
AcDbEntity
  8
0
 62
256
370
-1
 48
1.0
  6
ByLayer
100
AcDbCircle
 10
161.78999999999968
 20
135.32499999999999
 30
0.0
 40
0.2499999999999573
100
AcDbArc
 50
269.99999999999346
 51
180.0
  0
LINE
  5
25E
100
AcDbEntity
  8
0
 62
256
370
-1
 48
1.0
  6
ByLayer
100
AcDbLine
 10
161.53999999999974
 20
135.32500000000005
 30
0.0
 11
160.51499999999976
 21
135.32500000000005
 31
0.0
  0
LINE
  5
25F
100
AcDbEntity
  8
0
 62
256
370
-1
 48
1.0
  6
ByLayer
100
AcDbLine
 10
160.51499999999976
 20
135.32500000000005
 30
0.0
 11
160.51499999999973
 21
136.32500000000005
 31
0.0
  0
LINE
  5
260
100
AcDbEntity
  8
0
 62
256
370
-1
 48
1.0
  6
ByLayer
100
AcDbLine
 10
160.51499999999973
 20
136.32500000000005
 30
0.0
 11
157.36499999999978
 21
136.32500000000002
 31
0.0
  0
LINE
  5
261
100
AcDbEntity
  8
0
 62
256
370
-1
 48
1.0
  6
ByLayer
100
AcDbLine
 10
157.36499999999978
 20
136.32500000000002
 30
0.0
 11
157.36499999999955
 21
135.32499999999999
 31
0.0
  0
LINE
  5
262
100
AcDbEntity
  8
0
 62
256
370
-1
 48
1.0
  6
ByLayer
100
AcDbLine
 10
157.36499999999955
 20
135.32499999999999
 30
0.0
 11
156.33999999999975
 21
135.32500000000005
 31
0.0
  0
ARC
  5
263
100
AcDbEntity
  8
0
 62
256
370
-1
 48
1.0
  6
ByLayer
100
AcDbCircle
 10
156.08999999999969
 20
135.32500000000013
 30
0.0
 40
0.2500000000000853
100
AcDbArc
 50
360.0
 51
269.99999999998045
  0
LINE
  5
264
100
AcDbEntity
  8
0
 62
256
370
-1
 48
1.0
  6
ByLayer
100
AcDbLine
 10
156.08999999999961
 20
135.07500000000002
 30
0.0
 11
156.08999999999961
 21
133.07500000000002
 31
0.0
  0
ARC
  5
265
100
AcDbEntity
  8
0
 62
256
370
-1
 48
1.0
  6
ByLayer
100
AcDbCircle
 10
156.08999999999958
 20
132.82500000000007
 30
0.0
 40
0.2499999999999573
100
AcDbArc
 50
89.999999999993491
 51
360.0
  0
LINE
  5
266
100
AcDbEntity
  8
0
 62
256
370
-1
 48
1.0
  6
ByLayer
100
AcDbLine
 10
156.33999999999955
 20
132.82500000000005
 30
0.0
 11
157.36499999999978
 21
132.82500000000005
 31
0.0
  0
LINE
  5
267
100
AcDbEntity
  8
0
 62
256
370
-1
 48
1.0
  6
ByLayer
100
AcDbLine
 10
157.36499999999978
 20
132.82500000000005
 30
0.0
 11
157.36499999999987
 21
128.04499999999999
 31
0.0
  0
LINE
  5
268
100
AcDbEntity
  8
0
 62
256
370
-1
 48
1.0
  6
ByLayer
100
AcDbLine
 10
157.36499999999987
 20
128.04499999999999
 30
0.0
 11
151.43999999999963
 21
128.04500000000002
 31
0.0
  0
LINE
  5
269
100
AcDbEntity
  8
0
 62
256
370
-1
 48
1.0
  6
ByLayer
100
AcDbLine
 10
151.43999999999963
 20
128.04500000000002
 30
0.0
 11
151.43999999999994
 21
121.32499999999999
 31
0.0
  0
LINE
  5
26A
100
AcDbEntity
  8
0
 62
256
370
-1
 48
1.0
  6
ByLayer
100
AcDbLine
 10
151.43999999999994
 20
121.32499999999999
 30
0.0
 11
136.43999999999986
 21
121.32499999999999
 31
0.0
  0
LINE
  5
26B
100
AcDbEntity
  8
0
 62
256
370
-1
 48
1.0
  6
ByLayer
100
AcDbLine
 10
136.43999999999994
 20
315.76499999999965
 30
0.0
 11
151.43999999999994
 21
315.76499999999965
 31
0.0
  0
LINE
  5
26C
100
AcDbEntity
  8
0
 62
256
370
-1
 48
1.0
  6
ByLayer
100
AcDbLine
 10
151.43999999999994
 20
315.76499999999965
 30
0.0
 11
151.43999999999994
 21
309.04499999999967
 31
0.0
  0
LINE
  5
26D
100
AcDbEntity
  8
0
 62
256
370
-1
 48
1.0
  6
ByLayer
100
AcDbLine
 10
151.43999999999994
 20
309.04499999999967
 30
0.0
 11
157.36499999999984
 21
309.04499999999967
 31
0.0
  0
CIRCLE
  5
26E
100
AcDbEntity
  8
0
 62
256
370
-1
 48
1.0
  6
ByLayer
100
AcDbCircle
 10
151.44000000000185
 20
158.2116666666667
 30
0.0
 40
1.9999999999999989
  0
CIRCLE
  5
26F
100
AcDbEntity
  8
0
 62
256
370
-1
 48
1.0
  6
ByLayer
100
AcDbCircle
 10
151.44000000000179
 20
278.87833333333339
 30
0.0
 40
1.9999999999999989
  0
LINE
  5
270
100
AcDbEntity
  8
0
 62
256
370
-1
 48
1.0
  6
ByLayer
100
AcDbLine
 10
-185.27999999999977
 20
-157.64499999999998
 30
0.0
 11
-180.49999999999977
 21
-157.64499999999998
 31
0.0
  0
LINE
  5
271
100
AcDbEntity
  8
0
 62
256
370
-1
 48
1.0
  6
ByLayer
100
AcDbLine
 10
-180.49999999999977
 20
-157.64499999999998
 30
0.0
 11
-180.49999999999977
 21
-156.61999999999998
 31
0.0
  0
ARC
  5
272
100
AcDbEntity
  8
0
 62
256
370
-1
 48
1.0
  6
ByLayer
100
AcDbCircle
 10
-180.4999999999998
 20
-156.36999999999995
 30
0.0
 40
0.2500000000000142
100
AcDbArc
 50
0.0
 51
270.00000000000654
  0
LINE
  5
273
100
AcDbEntity
  8
0
 62
256
370
-1
 48
1.0
  6
ByLayer
100
AcDbLine
 10
-180.24999999999977
 20
-156.36999999999995
 30
0.0
 11
-178.24999999999977
 21
-156.36999999999998
 31
0.0
  0
ARC
  5
274
100
AcDbEntity
  8
0
 62
256
370
-1
 48
1.0
  6
ByLayer
100
AcDbCircle
 10
-177.99999999999977
 20
-156.36999999999995
 30
0.0
 40
0.2499999999999858
100
AcDbArc
 50
270.0
 51
180.0
  0
LINE
  5
275
100
AcDbEntity
  8
0
 62
256
370
-1
 48
1.0
  6
ByLayer
100
AcDbLine
 10
-177.99999999999977
 20
-156.61999999999995
 30
0.0
 11
-177.99999999999977
 21
-157.64499999999995
 31
0.0
  0
LINE
  5
276
100
AcDbEntity
  8
0
 62
256
370
-1
 48
1.0
  6
ByLayer
100
AcDbLine
 10
-177.99999999999977
 20
-157.64499999999995
 30
0.0
 11
-176.99999999999977
 21
-157.64499999999998
 31
0.0
  0
LINE
  5
277
100
AcDbEntity
  8
0
 62
256
370
-1
 48
1.0
  6
ByLayer
100
AcDbLine
 10
-176.99999999999977
 20
-157.64499999999998
 30
0.0
 11
-176.99999999999977
 21
-160.79499999999996
 31
0.0
  0
LINE
  5
278
100
AcDbEntity
  8
0
 62
256
370
-1
 48
1.0
  6
ByLayer
100
AcDbLine
 10
-176.99999999999977
 20
-160.79499999999996
 30
0.0
 11
-177.99999999999977
 21
-160.79499999999996
 31
0.0
  0
LINE
  5
279
100
AcDbEntity
  8
0
 62
256
370
-1
 48
1.0
  6
ByLayer
100
AcDbLine
 10
-177.99999999999977
 20
-160.79499999999996
 30
0.0
 11
-177.99999999999974
 21
-161.81999999999996
 31
0.0
  0
ARC
  5
27A
100
AcDbEntity
  8
0
 62
256
370
-1
 48
1.0
  6
ByLayer
100
AcDbCircle
 10
-177.99999999999977
 20
-162.06999999999999
 30
0.0
 40
0.2500000000000142
100
AcDbArc
 50
180.0
 51
89.999999999993491
  0
LINE
  5
27B
100
AcDbEntity
  8
0
 62
256
370
-1
 48
1.0
  6
ByLayer
100
AcDbLine
 10
-178.24999999999977
 20
-162.06999999999996
 30
0.0
 11
-180.24999999999977
 21
-162.06999999999996
 31
0.0
  0
ARC
  5
27C
100
AcDbEntity
  8
0
 62
256
370
-1
 48
1.0
  6
ByLayer
100
AcDbCircle
 10
-180.49999999999977
 20
-162.06999999999996
 30
0.0
 40
0.25
100
AcDbArc
 50
90.0
 51
0.0
  0
LINE
  5
27D
100
AcDbEntity
  8
0
 62
256
370
-1
 48
1.0
  6
ByLayer
100
AcDbLine
 10
-180.49999999999977
 20
-161.81999999999996
 30
0.0
 11
-180.49999999999977
 21
-160.79499999999996
 31
0.0
  0
LINE
  5
27E
100
AcDbEntity
  8
0
 62
256
370
-1
 48
1.0
  6
ByLayer
100
AcDbLine
 10
-180.49999999999977
 20
-160.79499999999996
 30
0.0
 11
-185.2799999999998
 21
-160.79499999999996
 31
0.0
  0
LINE
  5
27F
100
AcDbEntity
  8
0
 62
256
370
-1
 48
1.0
  6
ByLayer
100
AcDbLine
 10
-185.2799999999998
 20
-160.79499999999996
 30
0.0
 11
-185.27999999999977
 21
-170.62666666666669
 31
0.0
  0
LINE
  5
280
100
AcDbEntity
  8
0
 62
256
370
-1
 48
1.0
  6
ByLayer
100
AcDbLine
 10
-185.27999999999977
 20
-170.62666666666669
 30
0.0
 11
-191.99999999999977
 21
-170.62666666666669
 31
0.0
  0
LINE
  5
281
100
AcDbEntity
  8
0
 62
256
370
-1
 48
1.0
  6
ByLayer
100
AcDbLine
 10
-191.99999999999977
 20
-170.62666666666669
 30
0.0
 11
-191.99999999999977
 21
-193.44
 31
0.0
  0
LINE
  5
282
100
AcDbEntity
  8
0
 62
256
370
-1
 48
1.0
  6
ByLayer
100
AcDbLine
 10
-173.89999999999978
 20
-193.43999999999997
 30
0.0
 11
-173.89999999999981
 21
-189.15999999999997
 31
0.0
  0
LINE
  5
283
100
AcDbEntity
  8
0
 62
256
370
-1
 48
1.0
  6
ByLayer
100
AcDbLine
 10
-173.89999999999981
 20
-189.15999999999997
 30
0.0
 11
-174.99999999999977
 21
-189.15999999999997
 31
0.0
  0
ARC
  5
284
100
AcDbEntity
  8
0
 62
256
370
-1
 48
1.0
  6
ByLayer
100
AcDbCircle
 10
-175.24999999999977
 20
-189.15999999999997
 30
0.0
 40
0.25
100
AcDbArc
 50
90.0
 51
0.0
  0
LINE
  5
285
100
AcDbEntity
  8
0
 62
256
370
-1
 48
1.0
  6
ByLayer
100
AcDbLine
 10
-175.24999999999977
 20
-188.90999999999997
 30
0.0
 11
-175.24999999999977
 21
-186.40999999999997
 31
0.0
  0
ARC
  5
286
100
AcDbEntity
  8
0
 62
256
370
-1
 48
1.0
  6
ByLayer
100
AcDbCircle
 10
-175.24999999999977
 20
-186.15999999999997
 30
0.0
 40
0.25
100
AcDbArc
 50
0.0
 51
270.0
  0
LINE
  5
287
100
AcDbEntity
  8
0
 62
256
370
-1
 48
1.0
  6
ByLayer
100
AcDbLine
 10
-174.99999999999977
 20
-186.15999999999997
 30
0.0
 11
-173.89999999999978
 21
-186.15999999999997
 31
0.0
  0
LINE
  5
288
100
AcDbEntity
  8
0
 62
256
370
-1
 48
1.0
  6
ByLayer
100
AcDbLine
 10
-173.89999999999978
 20
-186.15999999999997
 30
0.0
 11
-173.89999999999981
 21
-185.15999999999997
 31
0.0
  0
LINE
  5
289
100
AcDbEntity
  8
0
 62
256
370
-1
 48
1.0
  6
ByLayer
100
AcDbLine
 10
-173.89999999999981
 20
-185.15999999999997
 30
0.0
 11
-170.5999999999998
 21
-185.15999999999997
 31
0.0
  0
LINE
  5
28A
100
AcDbEntity
  8
0
 62
256
370
-1
 48
1.0
  6
ByLayer
100
AcDbLine
 10
-170.5999999999998
 20
-185.15999999999997
 30
0.0
 11
-170.59999999999977
 21
-186.15999999999997
 31
0.0
  0
LINE
  5
28B
100
AcDbEntity
  8
0
 62
256
370
-1
 48
1.0
  6
ByLayer
100
AcDbLine
 10
-170.59999999999977
 20
-186.15999999999997
 30
0.0
 11
-169.49999999999977
 21
-186.15999999999997
 31
0.0
  0
ARC
  5
28C
100
AcDbEntity
  8
0
 62
256
370
-1
 48
1.0
  6
ByLayer
100
AcDbCircle
 10
-169.24999999999977
 20
-186.15999999999997
 30
0.0
 40
0.25
100
AcDbArc
 50
270.0
 51
180.0
  0
LINE
  5
28D
100
AcDbEntity
  8
0
 62
256
370
-1
 48
1.0
  6
ByLayer
100
AcDbLine
 10
-169.24999999999977
 20
-186.40999999999997
 30
0.0
 11
-169.24999999999977
 21
-188.90999999999997
 31
0.0
  0
ARC
  5
28E
100
AcDbEntity
  8
0
 62
256
370
-1
 48
1.0
  6
ByLayer
100
AcDbCircle
 10
-169.24999999999977
 20
-189.15999999999997
 30
0.0
 40
0.2500000000000142
100
AcDbArc
 50
180.0
 51
90.0
  0
LINE
  5
28F
100
AcDbEntity
  8
0
 62
256
370
-1
 48
1.0
  6
ByLayer
100
AcDbLine
 10
-169.4999999999998
 20
-189.15999999999997
 30
0.0
 11
-170.59999999999977
 21
-189.15999999999997
 31
0.0
  0
LINE
  5
290
100
AcDbEntity
  8
0
 62
256
370
-1
 48
1.0
  6
ByLayer
100
AcDbLine
 10
-170.59999999999977
 20
-189.15999999999997
 30
0.0
 11
-170.59999999999982
 21
-193.44
 31
0.0
  0
LINE
  5
291
100
AcDbEntity
  8
0
 62
256
370
-1
 48
1.0
  6
ByLayer
100
AcDbLine
 10
-191.99999999999977
 20
-193.44
 30
0.0
 11
-126.65833333333308
 21
-193.43999999999994
 31
0.0
  0
LINE
  5
292
100
AcDbEntity
  8
0
 62
256
370
-1
 48
1.0
  6
ByLayer
100
AcDbLine
 10
-126.65833333333308
 20
-193.43999999999994
 30
0.0
 11
-126.6583333333331
 21
-188.65999999999997
 31
0.0
  0
LINE
  5
293
100
AcDbEntity
  8
0
 62
256
370
-1
 48
1.0
  6
ByLayer
100
AcDbLine
 10
-126.6583333333331
 20
-188.65999999999997
 30
0.0
 11
-127.68333333333311
 21
-188.65999999999997
 31
0.0
  0
ARC
  5
294
100
AcDbEntity
  8
0
 62
256
370
-1
 48
1.0
  6
ByLayer
100
AcDbCircle
 10
-127.93333333333311
 20
-188.65999999999997
 30
0.0
 40
0.25
100
AcDbArc
 50
90.0
 51
0.0
  0
LINE
  5
295
100
AcDbEntity
  8
0
 62
256
370
-1
 48
1.0
  6
ByLayer
100
AcDbLine
 10
-127.93333333333311
 20
-188.40999999999997
 30
0.0
 11
-127.93333333333312
 21
-186.40999999999997
 31
0.0
  0
ARC
  5
296
100
AcDbEntity
  8
0
 62
256
370
-1
 48
1.0
  6
ByLayer
100
AcDbCircle
 10
-127.93333333333311
 20
-186.15999999999997
 30
0.0
 40
0.2500000000000071
100
AcDbArc
 50
0.0
 51
269.99999999999676
  0
LINE
  5
297
100
AcDbEntity
  8
0
 62
256
370
-1
 48
1.0
  6
ByLayer
100
AcDbLine
 10
-127.68333333333311
 20
-186.15999999999997
 30
0.0
 11
-126.65833333333313
 21
-186.16
 31
0.0
  0
LINE
  5
298
100
AcDbEntity
  8
0
 62
256
370
-1
 48
1.0
  6
ByLayer
100
AcDbLine
 10
-126.65833333333313
 20
-186.16
 30
0.0
 11
-126.6583333333331
 21
-185.15999999999997
 31
0.0
  0
LINE
  5
299
100
AcDbEntity
  8
0
 62
256
370
-1
 48
1.0
  6
ByLayer
100
AcDbLine
 10
-126.6583333333331
 20
-185.15999999999997
 30
0.0
 11
-123.5083333333331
 21
-185.16
 31
0.0
  0
LINE
  5
29A
100
AcDbEntity
  8
0
 62
256
370
-1
 48
1.0
  6
ByLayer
100
AcDbLine
 10
-123.5083333333331
 20
-185.16
 30
0.0
 11
-123.50833333333308
 21
-186.15999999999994
 31
0.0
  0
LINE
  5
29B
100
AcDbEntity
  8
0
 62
256
370
-1
 48
1.0
  6
ByLayer
100
AcDbLine
 10
-123.50833333333308
 20
-186.15999999999994
 30
0.0
 11
-122.48333333333311
 21
-186.15999999999997
 31
0.0
  0
ARC
  5
29C
100
AcDbEntity
  8
0
 62
256
370
-1
 48
1.0
  6
ByLayer
100
AcDbCircle
 10
-122.23333333333309
 20
-186.15999999999997
 30
0.0
 40
0.2500000000000142
100
AcDbArc
 50
269.99999999999676
 51
180.0
  0
LINE
  5
29D
100
AcDbEntity
  8
0
 62
256
370
-1
 48
1.0
  6
ByLayer
100
AcDbLine
 10
-122.23333333333311
 20
-186.41
 30
0.0
 11
-122.23333333333308
 21
-188.40999999999997
 31
0.0
  0
ARC
  5
29E
100
AcDbEntity
  8
0
 62
256
370
-1
 48
1.0
  6
ByLayer
100
AcDbCircle
 10
-122.23333333333308
 20
-188.66
 30
0.0
 40
0.25000000000004
100
AcDbArc
 50
180.0
 51
90.0
  0
LINE
  5
29F
100
AcDbEntity
  8
0
 62
256
370
-1
 48
1.0
  6
ByLayer
100
AcDbLine
 10
-122.48333333333312
 20
-188.66
 30
0.0
 11
-123.50833333333307
 21
-188.65999999999997
 31
0.0
  0
LINE
  5
2A0
100
AcDbEntity
  8
0
 62
256
370
-1
 48
1.0
  6
ByLayer
100
AcDbLine
 10
-123.50833333333307
 20
-188.65999999999997
 30
0.0
 11
-123.50833333333307
 21
-193.43999999999994
 31
0.0
  0
LINE
  5
2A1
100
AcDbEntity
  8
0
 62
256
370
-1
 48
1.0
  6
ByLayer
100
AcDbLine
 10
-123.50833333333307
 20
-193.43999999999994
 30
0.0
 11
-105.33333333333316
 21
-193.44000000000005
 31
0.0
  0
LINE
  5
2A2
100
AcDbEntity
  8
0
 62
256
370
-1
 48
1.0
  6
ByLayer
100
AcDbLine
 10
-105.33333333333316
 20
-193.44000000000005
 30
0.0
 11
-105.33333333333307
 21
-200.15999999999997
 31
0.0
  0
LINE
  5
2A3
100
AcDbEntity
  8
0
 62
256
370
-1
 48
1.0
  6
ByLayer
100
AcDbLine
 10
-105.33333333333307
 20
-200.15999999999997
 30
0.0
 11
-18.666666666666458
 21
-200.16
 31
0.0
  0
LINE
  5
2A4
100
AcDbEntity
  8
0
 62
256
370
-1
 48
1.0
  6
ByLayer
100
AcDbLine
 10
-18.666666666666458
 20
-200.16
 30
0.0
 11
-18.666666666666487
 21
-193.43999999999997
 31
0.0
  0
LINE
  5
2A5
100
AcDbEntity
  8
0
 62
256
370
-1
 48
1.0
  6
ByLayer
100
AcDbLine
 10
-18.666666666666487
 20
-193.43999999999997
 30
0.0
 11
-0.4916666666665037
 21
-193.44000000000011
 31
0.0
  0
LINE
  5
2A6
100
AcDbEntity
  8
0
 62
256
370
-1
 48
1.0
  6
ByLayer
100
AcDbLine
 10
-0.4916666666665037
 20
-193.44000000000011
 30
0.0
 11
-0.4916666666664469
 21
-188.65999999999997
 31
0.0
  0
LINE
  5
2A7
100
AcDbEntity
  8
0
 62
256
370
-1
 48
1.0
  6
ByLayer
100
AcDbLine
 10
-0.4916666666664469
 20
-188.65999999999997
 30
0.0
 11
-1.516666666666481
 21
-188.66000000000003
 31
0.0
  0
ARC
  5
2A8
100
AcDbEntity
  8
0
 62
256
370
-1
 48
1.0
  6
ByLayer
100
AcDbCircle
 10
-1.7666666666665138
 20
-188.65999999999994
 30
0.0
 40
0.2500000000000329
100
AcDbArc
 50
89.999999999979437
 51
360.0
  0
LINE
  5
2A9
100
AcDbEntity
  8
0
 62
256
370
-1
 48
1.0
  6
ByLayer
100
AcDbLine
 10
-1.7666666666664241
 20
-188.40999999999991
 30
0.0
 11
-1.766666666666481
 21
-186.41000000000003
 31
0.0
  0
ARC
  5
2AA
100
AcDbEntity
  8
0
 62
256
370
-1
 48
1.0
  6
ByLayer
100
AcDbCircle
 10
-1.7666666666664668
 20
-186.16000000000003
 30
0.0
 40
0.2500000000000142
100
AcDbArc
 50
0.0
 51
269.99999999999676
  0
LINE
  5
2AB
100
AcDbEntity
  8
0
 62
256
370
-1
 48
1.0
  6
ByLayer
100
AcDbLine
 10
-1.5166666666664526
 20
-186.16000000000003
 30
0.0
 11
-0.4916666666664753
 21
-186.16000000000003
 31
0.0
  0
LINE
  5
2AC
100
AcDbEntity
  8
0
 62
256
370
-1
 48
1.0
  6
ByLayer
100
AcDbLine
 10
-0.4916666666664753
 20
-186.16000000000003
 30
0.0
 11
-0.4916666666665037
 21
-185.16000000000011
 31
0.0
  0
LINE
  5
2AD
100
AcDbEntity
  8
0
 62
256
370
-1
 48
1.0
  6
ByLayer
100
AcDbLine
 10
-0.4916666666665037
 20
-185.16000000000011
 30
0.0
 11
2.6583333333335872
 21
-185.15999999999991
 31
0.0
  0
LINE
  5
2AE
100
AcDbEntity
  8
0
 62
256
370
-1
 48
1.0
  6
ByLayer
100
AcDbLine
 10
2.6583333333335872
 20
-185.15999999999991
 30
0.0
 11
2.6583333333335304
 21
-186.16000000000003
 31
0.0
  0
LINE
  5
2AF
100
AcDbEntity
  8
0
 62
256
370
-1
 48
1.0
  6
ByLayer
100
AcDbLine
 10
2.6583333333335304
 20
-186.16000000000003
 30
0.0
 11
3.6833333333335645
 21
-186.15999999999997
 31
0.0
  0
ARC
  5
2B0
100
AcDbEntity
  8
0
 62
256
370
-1
 48
1.0
  6
ByLayer
100
AcDbCircle
 10
3.9333333333335361
 20
-186.15999999999994
 30
0.0
 40
0.2499999999999716
100
AcDbArc
 50
270.00000000000654
 51
180.0
  0
LINE
  5
2B1
100
AcDbEntity
  8
0
 62
256
370
-1
 48
1.0
  6
ByLayer
100
AcDbLine
 10
3.9333333333335645
 20
-186.40999999999991
 30
0.0
 11
3.9333333333335645
 21
-188.41
 31
0.0
  0
ARC
  5
2B2
100
AcDbEntity
  8
0
 62
256
370
-1
 48
1.0
  6
ByLayer
100
AcDbCircle
 10
3.9333333333335361
 20
-188.65999999999997
 30
0.0
 40
0.25
100
AcDbArc
 50
180.0
 51
89.999999999993491
  0
LINE
  5
2B3
100
AcDbEntity
  8
0
 62
256
370
-1
 48
1.0
  6
ByLayer
100
AcDbLine
 10
3.6833333333335361
 20
-188.65999999999997
 30
0.0
 11
2.6583333333335588
 21
-188.65999999999994
 31
0.0
  0
LINE
  5
2B4
100
AcDbEntity
  8
0
 62
256
370
-1
 48
1.0
  6
ByLayer
100
AcDbLine
 10
2.6583333333335588
 20
-188.65999999999994
 30
0.0
 11
2.6583333333335588
 21
-193.43999999999986
 31
0.0
  0
LINE
  5
2B5
100
AcDbEntity
  8
0
 62
256
370
-1
 48
1.0
  6
ByLayer
100
AcDbLine
 10
2.6583333333335588
 20
-193.43999999999986
 30
0.0
 11
46.600000000000165
 21
-193.44000000000023
 31
0.0
  0
LINE
  5
2B6
100
AcDbEntity
  8
0
 62
256
370
-1
 48
1.0
  6
ByLayer
100
AcDbLine
 10
46.600000000000165
 20
-193.44000000000023
 30
0.0
 11
46.60000000000025
 21
-189.15999999999997
 31
0.0
  0
LINE
  5
2B7
100
AcDbEntity
  8
0
 62
256
370
-1
 48
1.0
  6
ByLayer
100
AcDbLine
 10
46.60000000000025
 20
-189.15999999999997
 30
0.0
 11
45.500000000000199
 21
-189.16000000000008
 31
0.0
  0
ARC
  5
2B8
100
AcDbEntity
  8
0
 62
256
370
-1
 48
1.0
  6
ByLayer
100
AcDbCircle
 10
45.250000000000227
 20
-189.16000000000011
 30
0.0
 40
0.2499999999999716
100
AcDbArc
 50
90.000000000006509
 51
0.0
  0
LINE
  5
2B9
100
AcDbEntity
  8
0
 62
256
370
-1
 48
1.0
  6
ByLayer
100
AcDbLine
 10
45.250000000000199
 20
-188.91000000000014
 30
0.0
 11
45.250000000000199
 21
-186.41000000000008
 31
0.0
  0
ARC
  5
2BA
100
AcDbEntity
  8
0
 62
256
370
-1
 48
1.0
  6
ByLayer
100
AcDbCircle
 10
45.250000000000085
 20
-186.15999999999991
 30
0.0
 40
0.2500000000001705
100
AcDbArc
 50
0.0
 51
270.00000000002603
  0
LINE
  5
2BB
100
AcDbEntity
  8
0
 62
256
370
-1
 48
1.0
  6
ByLayer
100
AcDbLine
 10
45.500000000000256
 20
-186.1599999999998
 30
0.0
 11
46.600000000000193
 21
-186.16000000000014
 31
0.0
  0
LINE
  5
2BC
100
AcDbEntity
  8
0
 62
256
370
-1
 48
1.0
  6
ByLayer
100
AcDbLine
 10
46.600000000000193
 20
-186.16000000000014
 30
0.0
 11
46.600000000000222
 21
-185.15999999999997
 31
0.0
  0
LINE
  5
2BD
100
AcDbEntity
  8
0
 62
256
370
-1
 48
1.0
  6
ByLayer
100
AcDbLine
 10
46.600000000000222
 20
-185.15999999999997
 30
0.0
 11
49.900000000000233
 21
-185.15999999999994
 31
0.0
  0
LINE
  5
2BE
100
AcDbEntity
  8
0
 62
256
370
-1
 48
1.0
  6
ByLayer
100
AcDbLine
 10
49.900000000000233
 20
-185.15999999999994
 30
0.0
 11
49.900000000000261
 21
-186.15999999999983
 31
0.0
  0
LINE
  5
2BF
100
AcDbEntity
  8
0
 62
256
370
-1
 48
1.0
  6
ByLayer
100
AcDbLine
 10
49.900000000000261
 20
-186.15999999999983
 30
0.0
 11
51.000000000000227
 21
-186.16000000000003
 31
0.0
  0
ARC
  5
2C0
100
AcDbEntity
  8
0
 62
256
370
-1
 48
1.0
  6
ByLayer
100
AcDbCircle
 10
51.250000000000242
 20
-186.16000000000008
 30
0.0
 40
0.2500000000000142
100
AcDbArc
 50
269.99999999999022
 51
180.0
  0
LINE
  5
2C1
100
AcDbEntity
  8
0
 62
256
370
-1
 48
1.0
  6
ByLayer
100
AcDbLine
 10
51.250000000000199
 20
-186.41000000000008
 30
0.0
 11
51.250000000000199
 21
-188.91000000000008
 31
0.0
  0
ARC
  5
2C2
100
AcDbEntity
  8
0
 62
256
370
-1
 48
1.0
  6
ByLayer
100
AcDbCircle
 10
51.250000000000199
 20
-189.16000000000005
 30
0.0
 40
0.2499999999999716
100
AcDbArc
 50
180.0
 51
90.0
  0
LINE
  5
2C3
100
AcDbEntity
  8
0
 62
256
370
-1
 48
1.0
  6
ByLayer
100
AcDbLine
 10
51.000000000000227
 20
-189.16000000000005
 30
0.0
 11
49.900000000000233
 21
-189.16000000000005
 31
0.0
  0
LINE
  5
2C4
100
AcDbEntity
  8
0
 62
256
370
-1
 48
1.0
  6
ByLayer
100
AcDbLine
 10
49.900000000000233
 20
-189.16000000000005
 30
0.0
 11
49.900000000000233
 21
-193.43999999999997
 31
0.0
  0
LINE
  5
2C5
100
AcDbEntity
  8
0
 62
256
370
-1
 48
1.0
  6
ByLayer
100
AcDbLine
 10
49.900000000000233
 20
-193.43999999999997
 30
0.0
 11
68.000000000000227
 21
-193.44000000000005
 31
0.0
  0
LINE
  5
2C6
100
AcDbEntity
  8
0
 62
256
370
-1
 48
1.0
  6
ByLayer
100
AcDbLine
 10
68.000000000000227
 20
-193.44000000000005
 30
0.0
 11
68.000000000000171
 21
-170.62666666666695
 31
0.0
  0
LINE
  5
2C7
100
AcDbEntity
  8
0
 62
256
370
-1
 48
1.0
  6
ByLayer
100
AcDbLine
 10
68.000000000000171
 20
-170.62666666666695
 30
0.0
 11
61.2800000000002
 21
-170.62666666666667
 31
0.0
  0
LINE
  5
2C8
100
AcDbEntity
  8
0
 62
256
370
-1
 48
1.0
  6
ByLayer
100
AcDbLine
 10
61.2800000000002
 20
-170.62666666666667
 30
0.0
 11
61.280000000000229
 21
-160.79500000000002
 31
0.0
  0
LINE
  5
2C9
100
AcDbEntity
  8
0
 62
256
370
-1
 48
1.0
  6
ByLayer
100
AcDbLine
 10
61.280000000000229
 20
-160.79500000000002
 30
0.0
 11
56.500000000000227
 21
-160.79500000000002
 31
0.0
  0
LINE
  5
2CA
100
AcDbEntity
  8
0
 62
256
370
-1
 48
1.0
  6
ByLayer
100
AcDbLine
 10
56.500000000000227
 20
-160.79500000000002
 30
0.0
 11
56.500000000000227
 21
-161.82000000000011
 31
0.0
  0
ARC
  5
2CB
100
AcDbEntity
  8
0
 62
256
370
-1
 48
1.0
  6
ByLayer
100
AcDbCircle
 10
56.500000000000199
 20
-162.07000000000002
 30
0.0
 40
0.2499999999999431
100
AcDbArc
 50
180.0
 51
89.999999999993491
  0
LINE
  5
2CC
100
AcDbEntity
  8
0
 62
256
370
-1
 48
1.0
  6
ByLayer
100
AcDbLine
 10
56.250000000000256
 20
-162.07000000000002
 30
0.0
 11
54.250000000000199
 21
-162.07000000000019
 31
0.0
  0
ARC
  5
2CD
100
AcDbEntity
  8
0
 62
256
370
-1
 48
1.0
  6
ByLayer
100
AcDbCircle
 10
54.000000000000114
 20
-162.07000000000011
 30
0.0
 40
0.2500000000000853
100
AcDbArc
 50
89.999999999973937
 51
360.0
  0
LINE
  5
2CE
100
AcDbEntity
  8
0
 62
256
370
-1
 48
1.0
  6
ByLayer
100
AcDbLine
 10
54.000000000000227
 20
-161.81999999999999
 30
0.0
 11
54.000000000000227
 21
-160.79499999999999
 31
0.0
  0
LINE
  5
2CF
100
AcDbEntity
  8
0
 62
256
370
-1
 48
1.0
  6
ByLayer
100
AcDbLine
 10
54.000000000000227
 20
-160.79499999999999
 30
0.0
 11
53.000000000000227
 21
-160.7949999999999
 31
0.0
  0
LINE
  5
2D0
100
AcDbEntity
  8
0
 62
256
370
-1
 48
1.0
  6
ByLayer
100
AcDbLine
 10
53.000000000000227
 20
-160.7949999999999
 30
0.0
 11
53.000000000000227
 21
-157.64499999999992
 31
0.0
  0
LINE
  5
2D1
100
AcDbEntity
  8
0
 62
256
370
-1
 48
1.0
  6
ByLayer
100
AcDbLine
 10
53.000000000000227
 20
-157.64499999999992
 30
0.0
 11
54.000000000000227
 21
-157.64499999999992
 31
0.0
  0
LINE
  5
2D2
100
AcDbEntity
  8
0
 62
256
370
-1
 48
1.0
  6
ByLayer
100
AcDbLine
 10
54.000000000000227
 20
-157.64499999999992
 30
0.0
 11
54.000000000000227
 21
-156.62000000000006
 31
0.0
  0
ARC
  5
2D3
100
AcDbEntity
  8
0
 62
256
370
-1
 48
1.0
  6
ByLayer
100
AcDbCircle
 10
54.000000000000227
 20
-156.37000000000006
 30
0.0
 40
0.25
100
AcDbArc
 50
0.0
 51
270.0
  0
LINE
  5
2D4
100
AcDbEntity
  8
0
 62
256
370
-1
 48
1.0
  6
ByLayer
100
AcDbLine
 10
54.250000000000227
 20
-156.37000000000006
 30
0.0
 11
56.250000000000227
 21
-156.37000000000018
 31
0.0
  0
ARC
  5
2D5
100
AcDbEntity
  8
0
 62
256
370
-1
 48
1.0
  6
ByLayer
100
AcDbCircle
 10
56.500000000000128
 20
-156.37000000000006
 30
0.0
 40
0.2499999999999005
100
AcDbArc
 50
270.00000000002279
 51
180.0
  0
LINE
  5
2D6
100
AcDbEntity
  8
0
 62
256
370
-1
 48
1.0
  6
ByLayer
100
AcDbLine
 10
56.500000000000227
 20
-156.61999999999998
 30
0.0
 11
56.500000000000199
 21
-157.6450000000001
 31
0.0
  0
LINE
  5
2D7
100
AcDbEntity
  8
0
 62
256
370
-1
 48
1.0
  6
ByLayer
100
AcDbLine
 10
56.500000000000199
 20
-157.6450000000001
 30
0.0
 11
61.280000000000229
 21
-157.64499999999998
 31
0.0
  0
LINE
  5
2D8
100
AcDbEntity
  8
0
 62
256
370
-1
 48
1.0
  6
ByLayer
100
AcDbLine
 10
61.280000000000229
 20
-157.64499999999998
 30
0.0
 11
61.2800000000002
 21
-147.81333333333336
 31
0.0
  0
LINE
  5
2D9
100
AcDbEntity
  8
0
 62
256
370
-1
 48
1.0
  6
ByLayer
100
AcDbLine
 10
61.2800000000002
 20
-147.81333333333336
 30
0.0
 11
68.000000000000227
 21
-147.81333333333342
 31
0.0
  0
LINE
  5
2DA
100
AcDbEntity
  8
0
 62
256
370
-1
 48
1.0
  6
ByLayer
100
AcDbLine
 10
68.000000000000227
 20
-147.81333333333342
 30
0.0
 11
68.000000000000227
 21
-125.00000000000006
 31
0.0
  0
LINE
  5
2DB
100
AcDbEntity
  8
0
 62
256
370
-1
 48
1.0
  6
ByLayer
100
AcDbLine
 10
68.000000000000227
 20
-125.00000000000006
 30
0.0
 11
-18.66666666666643
 21
-125.00000000000004
 31
0.0
  0
LINE
  5
2DC
100
AcDbEntity
  8
0
 62
256
370
-1
 48
1.0
  6
ByLayer
100
AcDbLine
 10
49.900000000000233
 20
-125.00000000000006
 30
0.0
 11
49.900000000000233
 21
-129.27999999999878
 31
0.0
  0
LINE
  5
2DD
100
AcDbEntity
  8
0
 62
256
370
-1
 48
1.0
  6
ByLayer
100
AcDbLine
 10
49.900000000000233
 20
-129.27999999999878
 30
0.0
 11
51.000000000000227
 21
-129.27999999999949
 31
0.0
  0
ARC
  5
2DE
100
AcDbEntity
  8
0
 62
256
370
-1
 48
1.0
  6
ByLayer
100
AcDbCircle
 10
51.250000000000952
 20
-129.2800000000002
 30
0.0
 40
0.2500000000007248
100
AcDbArc
 50
269.9999999998339
 51
180.0
  0
LINE
  5
2DF
100
AcDbEntity
  8
0
 62
256
370
-1
 48
1.0
  6
ByLayer
100
AcDbLine
 10
51.250000000000227
 20
-129.53000000000094
 30
0.0
 11
51.250000000000227
 21
-132.02999999999963
 31
0.0
  0
ARC
  5
2E0
100
AcDbEntity
  8
0
 62
256
370
-1
 48
1.0
  6
ByLayer
100
AcDbCircle
 10
51.250000000000298
 20
-132.27999999999969
 30
0.0
 40
0.2500000000000711
100
AcDbArc
 50
180.0
 51
90.000000000016286
  0
LINE
  5
2E1
100
AcDbEntity
  8
0
 62
256
370
-1
 48
1.0
  6
ByLayer
100
AcDbLine
 10
51.000000000000227
 20
-132.27999999999977
 30
0.0
 11
49.900000000000233
 21
-132.27999999999932
 31
0.0
  0
LINE
  5
2E2
100
AcDbEntity
  8
0
 62
256
370
-1
 48
1.0
  6
ByLayer
100
AcDbLine
 10
49.900000000000233
 20
-132.27999999999932
 30
0.0
 11
49.900000000000233
 21
-133.27999999999992
 31
0.0
  0
LINE
  5
2E3
100
AcDbEntity
  8
0
 62
256
370
-1
 48
1.0
  6
ByLayer
100
AcDbLine
 10
49.900000000000233
 20
-133.27999999999992
 30
0.0
 11
46.600000000000222
 21
-133.28000000000014
 31
0.0
  0
LINE
  5
2E4
100
AcDbEntity
  8
0
 62
256
370
-1
 48
1.0
  6
ByLayer
100
AcDbLine
 10
46.600000000000222
 20
-133.28000000000014
 30
0.0
 11
46.600000000000222
 21
-132.28000000000017
 31
0.0
  0
LINE
  5
2E5
100
AcDbEntity
  8
0
 62
256
370
-1
 48
1.0
  6
ByLayer
100
AcDbLine
 10
46.600000000000222
 20
-132.28000000000017
 30
0.0
 11
45.500000000000227
 21
-132.28000000000031
 31
0.0
  0
ARC
  5
2E6
100
AcDbEntity
  8
0
 62
256
370
-1
 48
1.0
  6
ByLayer
100
AcDbCircle
 10
45.249999999999943
 20
-132.28000000000003
 30
0.0
 40
0.2500000000002842
100
AcDbArc
 50
89.999999999934857
 51
360.0
  0
LINE
  5
2E7
100
AcDbEntity
  8
0
 62
256
370
-1
 48
1.0
  6
ByLayer
100
AcDbLine
 10
45.250000000000227
 20
-132.02999999999975
 30
0.0
 11
45.250000000000227
 21
-129.52999999999921
 31
0.0
  0
ARC
  5
2E8
100
AcDbEntity
  8
0
 62
256
370
-1
 48
1.0
  6
ByLayer
100
AcDbCircle
 10
45.250000000000725
 20
-129.27999999999969
 30
0.0
 40
0.2499999999995026
100
AcDbArc
 50
360.0
 51
269.99999999988603
  0
LINE
  5
2E9
100
AcDbEntity
  8
0
 62
256
370
-1
 48
1.0
  6
ByLayer
100
AcDbLine
 10
45.500000000000227
 20
-129.2800000000002
 30
0.0
 11
46.600000000000222
 21
-129.27999999999989
 31
0.0
  0
LINE
  5
2EA
100
AcDbEntity
  8
0
 62
256
370
-1
 48
1.0
  6
ByLayer
100
AcDbLine
 10
46.600000000000222
 20
-129.27999999999989
 30
0.0
 11
46.600000000000222
 21
-125.00000000000006
 31
0.0
  0
LINE
  5
2EB
100
AcDbEntity
  8
0
 62
256
370
-1
 48
1.0
  6
ByLayer
100
AcDbLine
 10
2.6583333333335588
 20
-125.00000000000004
 30
0.0
 11
2.6583333333335588
 21
-129.78000000000014
 31
0.0
  0
LINE
  5
2EC
100
AcDbEntity
  8
0
 62
256
370
-1
 48
1.0
  6
ByLayer
100
AcDbLine
 10
2.6583333333335588
 20
-129.78000000000014
 30
0.0
 11
3.6833333333335645
 21
-129.77999999999943
 31
0.0
  0
ARC
  5
2ED
100
AcDbEntity
  8
0
 62
256
370
-1
 48
1.0
  6
ByLayer
100
AcDbCircle
 10
3.9333333333338345
 20
-129.77999999999969
 30
0.0
 40
0.25000000000027
100
AcDbArc
 50
269.99999999993815
 51
180.0
  0
LINE
  5
2EE
100
AcDbEntity
  8
0
 62
256
370
-1
 48
1.0
  6
ByLayer
100
AcDbLine
 10
3.9333333333335645
 20
-130.02999999999997
 30
0.0
 11
3.9333333333335645
 21
-132.0299999999998
 31
0.0
  0
ARC
  5
2EF
100
AcDbEntity
  8
0
 62
256
370
-1
 48
1.0
  6
ByLayer
100
AcDbCircle
 10
3.9333333333336498
 20
-132.27999999999989
 30
0.0
 40
0.2500000000000853
100
AcDbArc
 50
180.0
 51
90.00000000001954
  0
LINE
  5
2F0
100
AcDbEntity
  8
0
 62
256
370
-1
 48
1.0
  6
ByLayer
100
AcDbLine
 10
3.6833333333335645
 20
-132.27999999999997
 30
0.0
 11
2.6583333333335588
 21
-132.27999999999997
 31
0.0
  0
LINE
  5
2F1
100
AcDbEntity
  8
0
 62
256
370
-1
 48
1.0
  6
ByLayer
100
AcDbLine
 10
2.6583333333335588
 20
-132.27999999999997
 30
0.0
 11
2.6583333333335588
 21
-133.28000000000023
 31
0.0
  0
LINE
  5
2F2
100
AcDbEntity
  8
0
 62
256
370
-1
 48
1.0
  6
ByLayer
100
AcDbLine
 10
2.6583333333335588
 20
-133.28000000000023
 30
0.0
 11
-0.4916666666664469
 21
-133.2800000000006
 31
0.0
  0
LINE
  5
2F3
100
AcDbEntity
  8
0
 62
256
370
-1
 48
1.0
  6
ByLayer
100
AcDbLine
 10
-0.4916666666664469
 20
-133.2800000000006
 30
0.0
 11
-0.4916666666664469
 21
-132.28000000000017
 31
0.0
  0
LINE
  5
2F4
100
AcDbEntity
  8
0
 62
256
370
-1
 48
1.0
  6
ByLayer
100
AcDbLine
 10
-0.4916666666664469
 20
-132.28000000000017
 30
0.0
 11
-1.5166666666664526
 21
-132.27999999999983
 31
0.0
  0
ARC
  5
2F5
100
AcDbEntity
  8
0
 62
256
370
-1
 48
1.0
  6
ByLayer
100
AcDbCircle
 10
-1.7666666666665662
 20
-132.27999999999972
 30
0.0
 40
0.2500000000001137
100
AcDbArc
 50
89.999999999973937
 51
360.0
  0
LINE
  5
2F6
100
AcDbEntity
  8
0
 62
256
370
-1
 48
1.0
  6
ByLayer
100
AcDbLine
 10
-1.7666666666664526
 20
-132.0299999999996
 30
0.0
 11
-1.7666666666664526
 21
-130.02999999999969
 31
0.0
  0
ARC
  5
2F7
100
AcDbEntity
  8
0
 62
256
370
-1
 48
1.0
  6
ByLayer
100
AcDbCircle
 10
-1.7666666666663007
 20
-129.77999999999986
 30
0.0
 40
0.2499999999998481
100
AcDbArc
 50
360.0
 51
269.99999999996521
  0
LINE
  5
2F8
100
AcDbEntity
  8
0
 62
256
370
-1
 48
1.0
  6
ByLayer
100
AcDbLine
 10
-1.5166666666664526
 20
-129.78
 30
0.0
 11
-0.4916666666664469
 21
-129.78000000000074
 31
0.0
  0
LINE
  5
2F9
100
AcDbEntity
  8
0
 62
256
370
-1
 48
1.0
  6
ByLayer
100
AcDbLine
 10
-0.4916666666664469
 20
-129.78000000000074
 30
0.0
 11
-0.4916666666664469
 21
-125.00000000000004
 31
0.0
  0
LINE
  5
2FA
100
AcDbEntity
  8
0
 62
256
370
-1
 48
1.0
  6
ByLayer
100
AcDbLine
 10
-18.66666666666643
 20
-125.00000000000004
 30
0.0
 11
-18.66666666666643
 21
-118.28000000000004
 31
0.0
  0
LINE
  5
2FB
100
AcDbEntity
  8
0
 62
256
370
-1
 48
1.0
  6
ByLayer
100
AcDbLine
 10
-18.66666666666643
 20
-118.28000000000004
 30
0.0
 11
-105.3333333333331
 21
-118.27999999999987
 31
0.0
  0
LINE
  5
2FC
100
AcDbEntity
  8
0
 62
256
370
-1
 48
1.0
  6
ByLayer
100
AcDbLine
 10
-105.3333333333331
 20
-118.27999999999987
 30
0.0
 11
-105.3333333333331
 21
-125.00000000000001
 31
0.0
  0
LINE
  5
2FD
100
AcDbEntity
  8
0
 62
256
370
-1
 48
1.0
  6
ByLayer
100
AcDbLine
 10
-123.50833333333308
 20
-125.00000000000001
 30
0.0
 11
-123.50833333333308
 21
-129.77999999999997
 31
0.0
  0
LINE
  5
2FE
100
AcDbEntity
  8
0
 62
256
370
-1
 48
1.0
  6
ByLayer
100
AcDbLine
 10
-123.50833333333308
 20
-129.77999999999997
 30
0.0
 11
-122.48333333333309
 21
-129.77999999999992
 31
0.0
  0
ARC
  5
2FF
100
AcDbEntity
  8
0
 62
256
370
-1
 48
1.0
  6
ByLayer
100
AcDbCircle
 10
-122.23333333333299
 20
-129.78000000000003
 30
0.0
 40
0.2500000000001039
100
AcDbArc
 50
269.99999999997721
 51
180.0
  0
LINE
  5
300
100
AcDbEntity
  8
0
 62
256
370
-1
 48
1.0
  6
ByLayer
100
AcDbLine
 10
-122.23333333333309
 20
-130.03000000000011
 30
0.0
 11
-122.23333333333309
 21
-132.03000000000006
 31
0.0
  0
ARC
  5
301
100
AcDbEntity
  8
0
 62
256
370
-1
 48
1.0
  6
ByLayer
100
AcDbCircle
 10
-122.23333333333315
 20
-132.28
 30
0.0
 40
0.2499999999999431
100
AcDbArc
 50
180.0
 51
89.999999999986969
  0
LINE
  5
302
100
AcDbEntity
  8
0
 62
256
370
-1
 48
1.0
  6
ByLayer
100
AcDbLine
 10
-122.48333333333309
 20
-132.27999999999994
 30
0.0
 11
-123.50833333333308
 21
-132.27999999999992
 31
0.0
  0
LINE
  5
303
100
AcDbEntity
  8
0
 62
256
370
-1
 48
1.0
  6
ByLayer
100
AcDbLine
 10
-123.50833333333308
 20
-132.27999999999992
 30
0.0
 11
-123.50833333333308
 21
-133.28000000000003
 31
0.0
  0
LINE
  5
304
100
AcDbEntity
  8
0
 62
256
370
-1
 48
1.0
  6
ByLayer
100
AcDbLine
 10
-123.50833333333308
 20
-133.28000000000003
 30
0.0
 11
-126.6583333333331
 21
-133.27999999999994
 31
0.0
  0
LINE
  5
305
100
AcDbEntity
  8
0
 62
256
370
-1
 48
1.0
  6
ByLayer
100
AcDbLine
 10
-126.6583333333331
 20
-133.27999999999994
 30
0.0
 11
-126.6583333333331
 21
-132.28000000000006
 31
0.0
  0
LINE
  5
306
100
AcDbEntity
  8
0
 62
256
370
-1
 48
1.0
  6
ByLayer
100
AcDbLine
 10
-126.6583333333331
 20
-132.28000000000006
 30
0.0
 11
-127.68333333333311
 21
-132.27999999999997
 31
0.0
  0
ARC
  5
307
100
AcDbEntity
  8
0
 62
256
370
-1
 48
1.0
  6
ByLayer
100
AcDbCircle
 10
-127.93333333333304
 20
-132.28000000000003
 30
0.0
 40
0.2499999999999218
100
AcDbArc
 50
90.000000000013031
 51
0.0
  0
LINE
  5
308
100
AcDbEntity
  8
0
 62
256
370
-1
 48
1.0
  6
ByLayer
100
AcDbLine
 10
-127.9333333333331
 20
-132.03000000000011
 30
0.0
 11
-127.9333333333331
 21
-130.03000000000003
 31
0.0
  0
ARC
  5
309
100
AcDbEntity
  8
0
 62
256
370
-1
 48
1.0
  6
ByLayer
100
AcDbCircle
 10
-127.93333333333317
 20
-129.77999999999997
 30
0.0
 40
0.2500000000000497
100
AcDbArc
 50
0.0
 51
270.00000000001626
  0
LINE
  5
30A
100
AcDbEntity
  8
0
 62
256
370
-1
 48
1.0
  6
ByLayer
100
AcDbLine
 10
-127.68333333333311
 20
-129.77999999999992
 30
0.0
 11
-126.6583333333331
 21
-129.77999999999994
 31
0.0
  0
LINE
  5
30B
100
AcDbEntity
  8
0
 62
256
370
-1
 48
1.0
  6
ByLayer
100
AcDbLine
 10
-126.6583333333331
 20
-129.77999999999994
 30
0.0
 11
-126.6583333333331
 21
-125.00000000000001
 31
0.0
  0
LINE
  5
30C
100
AcDbEntity
  8
0
 62
256
370
-1
 48
1.0
  6
ByLayer
100
AcDbLine
 10
-170.59999999999977
 20
-125.0
 30
0.0
 11
-170.59999999999977
 21
-129.28
 31
0.0
  0
LINE
  5
30D
100
AcDbEntity
  8
0
 62
256
370
-1
 48
1.0
  6
ByLayer
100
AcDbLine
 10
-170.59999999999977
 20
-129.28
 30
0.0
 11
-169.49999999999977
 21
-129.28
 31
0.0
  0
ARC
  5
30E
100
AcDbEntity
  8
0
 62
256
370
-1
 48
1.0
  6
ByLayer
100
AcDbCircle
 10
-169.24999999999977
 20
-129.27999999999997
 30
0.0
 40
0.2499999999999858
100
AcDbArc
 50
270.0
 51
180.0
  0
LINE
  5
30F
100
AcDbEntity
  8
0
 62
256
370
-1
 48
1.0
  6
ByLayer
100
AcDbLine
 10
-169.24999999999977
 20
-129.52999999999997
 30
0.0
 11
-169.24999999999977
 21
-132.03
 31
0.0
  0
ARC
  5
310
100
AcDbEntity
  8
0
 62
256
370
-1
 48
1.0
  6
ByLayer
100
AcDbCircle
 10
-169.2499999999998
 20
-132.27999999999997
 30
0.0
 40
0.2499999999999858
100
AcDbArc
 50
180.0
 51
89.999999999993491
  0
LINE
  5
311
100
AcDbEntity
  8
0
 62
256
370
-1
 48
1.0
  6
ByLayer
100
AcDbLine
 10
-169.49999999999977
 20
-132.27999999999997
 30
0.0
 11
-170.59999999999977
 21
-132.28
 31
0.0
  0
LINE
  5
312
100
AcDbEntity
  8
0
 62
256
370
-1
 48
1.0
  6
ByLayer
100
AcDbLine
 10
-170.59999999999977
 20
-132.28
 30
0.0
 11
-170.59999999999977
 21
-133.28000000000003
 31
0.0
  0
LINE
  5
313
100
AcDbEntity
  8
0
 62
256
370
-1
 48
1.0
  6
ByLayer
100
AcDbLine
 10
-170.59999999999977
 20
-133.28000000000003
 30
0.0
 11
-173.89999999999978
 21
-133.28
 31
0.0
  0
LINE
  5
314
100
AcDbEntity
  8
0
 62
256
370
-1
 48
1.0
  6
ByLayer
100
AcDbLine
 10
-173.89999999999978
 20
-133.28
 30
0.0
 11
-173.89999999999978
 21
-132.28
 31
0.0
  0
LINE
  5
315
100
AcDbEntity
  8
0
 62
256
370
-1
 48
1.0
  6
ByLayer
100
AcDbLine
 10
-173.89999999999978
 20
-132.28
 30
0.0
 11
-174.99999999999977
 21
-132.28
 31
0.0
  0
ARC
  5
316
100
AcDbEntity
  8
0
 62
256
370
-1
 48
1.0
  6
ByLayer
100
AcDbCircle
 10
-175.24999999999977
 20
-132.28
 30
0.0
 40
0.25
100
AcDbArc
 50
90.0
 51
0.0
  0
LINE
  5
317
100
AcDbEntity
  8
0
 62
256
370
-1
 48
1.0
  6
ByLayer
100
AcDbLine
 10
-175.24999999999977
 20
-132.03
 30
0.0
 11
-175.24999999999977
 21
-129.52999999999997
 31
0.0
  0
ARC
  5
318
100
AcDbEntity
  8
0
 62
256
370
-1
 48
1.0
  6
ByLayer
100
AcDbCircle
 10
-175.24999999999977
 20
-129.27999999999997
 30
0.0
 40
0.2499999999999858
100
AcDbArc
 50
360.0
 51
270.0
  0
LINE
  5
319
100
AcDbEntity
  8
0
 62
256
370
-1
 48
1.0
  6
ByLayer
100
AcDbLine
 10
-174.99999999999977
 20
-129.28
 30
0.0
 11
-173.89999999999978
 21
-129.28
 31
0.0
  0
LINE
  5
31A
100
AcDbEntity
  8
0
 62
256
370
-1
 48
1.0
  6
ByLayer
100
AcDbLine
 10
-173.89999999999978
 20
-129.28
 30
0.0
 11
-173.89999999999978
 21
-125.0
 31
0.0
  0
LINE
  5
31B
100
AcDbEntity
  8
0
 62
256
370
-1
 48
1.0
  6
ByLayer
100
AcDbLine
 10
-105.3333333333331
 20
-125.00000000000001
 30
0.0
 11
-191.99999999999977
 21
-125.0
 31
0.0
  0
LINE
  5
31C
100
AcDbEntity
  8
0
 62
256
370
-1
 48
1.0
  6
ByLayer
100
AcDbLine
 10
-191.99999999999977
 20
-125.0
 30
0.0
 11
-191.99999999999977
 21
-147.81333333333339
 31
0.0
  0
LINE
  5
31D
100
AcDbEntity
  8
0
 62
256
370
-1
 48
1.0
  6
ByLayer
100
AcDbLine
 10
-191.99999999999977
 20
-147.81333333333339
 30
0.0
 11
-185.27999999999977
 21
-147.81333333333339
 31
0.0
  0
LINE
  5
31E
100
AcDbEntity
  8
0
 62
256
370
-1
 48
1.0
  6
ByLayer
100
AcDbLine
 10
-185.27999999999977
 20
-147.81333333333339
 30
0.0
 11
-185.27999999999977
 21
-157.64499999999998
 31
0.0
  0
CIRCLE
  5
31F
100
AcDbEntity
  8
0
 62
256
370
-1
 48
1.0
  6
ByLayer
100
AcDbCircle
 10
-69.999999999999773
 20
-159.22000000000006
 30
0.0
 40
1.5
  0
CIRCLE
  5
320
100
AcDbEntity
  8
0
 62
256
370
-1
 48
1.0
  6
ByLayer
100
AcDbCircle
 10
-53.999999999999744
 20
-159.21999999999997
 30
0.0
 40
1.5
  0
CIRCLE
  5
321
100
AcDbEntity
  8
0
 62
256
370
-1
 48
1.0
  6
ByLayer
100
AcDbCircle
 10
-61.999999999999773
 20
-167.21999999999994
 30
0.0
 40
1.5
  0
CIRCLE
  5
322
100
AcDbEntity
  8
0
 62
256
370
-1
 48
1.0
  6
ByLayer
100
AcDbCircle
 10
-61.999999999999773
 20
-151.22
 30
0.0
 40
1.5
  0
CIRCLE
  5
323
100
AcDbEntity
  8
0
 62
256
370
-1
 48
1.0
  6
ByLayer
100
AcDbCircle
 10
-61.999999999999773
 20
-159.22000000000003
 30
0.0
 40
5.5
  0
CIRCLE
  5
324
100
AcDbEntity
  8
0
 62
256
370
-1
 48
1.0
  6
ByLayer
100
AcDbCircle
 10
-165.49999999999977
 20
-159.22000000000006
 30
0.0
 40
4.04
  0
CIRCLE
  5
325
100
AcDbEntity
  8
0
 62
256
370
-1
 48
1.0
  6
ByLayer
100
AcDbCircle
 10
41.500000000000199
 20
-159.22000000000014
 30
0.0
 40
4.04
  0
LINE
  5
326
100
AcDbEntity
  8
0
 62
256
370
-1
 48
1.0
  6
ByLayer
100
AcDbLine
 10
28.500000000000227
 20
355.5
 30
0.0
 11
-152.49999999999977
 21
355.5
 31
0.0
  0
LINE
  5
327
100
AcDbEntity
  8
0
 62
256
370
-1
 48
1.0
  6
ByLayer
100
AcDbLine
 10
-152.49999999999983
 20
142.90000000000001
 30
0.0
 11
-96.219999999999828
 21
142.90000000000003
 31
0.0
  0
LINE
  5
328
100
AcDbEntity
  8
0
 62
256
370
-1
 48
1.0
  6
ByLayer
100
AcDbLine
 10
-96.219999999999828
 20
142.90000000000003
 30
0.0
 11
-96.219999999999828
 21
136.18000000000001
 31
0.0
  0
LINE
  5
329
100
AcDbEntity
  8
0
 62
256
370
-1
 48
1.0
  6
ByLayer
100
AcDbLine
 10
-106.05999999999969
 20
136.18000000000018
 30
0.0
 11
-27.779999999999745
 21
136.18000000000004
 31
0.0
  0
LINE
  5
32A
100
AcDbEntity
  8
0
 62
256
370
-1
 48
1.0
  6
ByLayer
100
AcDbLine
 10
-27.779999999999916
 20
-70.339999999999932
 30
0.0
 11
-27.779999999999745
 21
142.90000000000003
 31
0.0
  0
CIRCLE
  5
32B
100
AcDbEntity
  8
0
 62
256
370
-1
 48
1.0
  6
ByLayer
100
AcDbCircle
 10
-122.33333333333314
 20
291.22000000000003
 30
0.0
 40
1.5750000000000011
  0
CIRCLE
  5
32C
100
AcDbEntity
  8
0
 62
256
370
-1
 48
1.0
  6
ByLayer
100
AcDbCircle
 10
-1.6666666666664867
 20
291.22000000000003
 30
0.0
 40
1.5750000000000011
  0
CIRCLE
  5
32D
100
AcDbEntity
  8
0
 62
256
370
-1
 48
1.0
  6
ByLayer
100
AcDbCircle
 10
-61.999999999999787
 20
139.54000000000002
 30
0.0
 40
1.5749999999999991
  0
CIRCLE
  5
32E
100
AcDbEntity
  8
0
 62
256
370
-1
 48
1.0
  6
ByLayer
100
AcDbCircle
 10
-109.24999999999983
 20
330.89999999999998
 30
0.0
 40
1.575
  0
CIRCLE
  5
32F
100
AcDbEntity
  8
0
 62
256
370
-1
 48
1.0
  6
ByLayer
100
AcDbCircle
 10
-90.249999999999844
 20
330.89999999999998
 30
0.0
 40
1.575
  0
LINE
  5
330
100
AcDbEntity
  8
0
 62
256
370
-1
 48
1.0
  6
ByLayer
100
AcDbLine
 10
-77.339999999999279
 20
84.700000000000188
 30
0.0
 11
-77.339999999999279
 21
69.700000000000188
 31
0.0
  0
LINE
  5
331
100
AcDbEntity
  8
0
 62
256
370
-1
 48
1.0
  6
ByLayer
100
AcDbLine
 10
-77.339999999999279
 20
69.700000000000188
 30
0.0
 11
-70.619999999999237
 21
69.700000000000188
 31
0.0
  0
LINE
  5
332
100
AcDbEntity
  8
0
 62
256
370
-1
 48
1.0
  6
ByLayer
100
AcDbLine
 10
-70.619999999999237
 20
69.700000000000188
 30
0.0
 11
-70.619999999999379
 21
84.700000000000188
 31
0.0
  0
LINE
  5
333
100
AcDbEntity
  8
0
 62
256
370
-1
 48
1.0
  6
ByLayer
100
AcDbLine
 10
-70.619999999999379
 20
84.700000000000188
 30
0.0
 11
-77.339999999999279
 21
84.700000000000188
 31
0.0
  0
LINE
  5
334
100
AcDbEntity
  8
0
 62
256
370
-1
 48
1.0
  6
ByLayer
100
AcDbLine
 10
21.779999999999639
 20
91.420000000000215
 30
0.0
 11
21.779999999999649
 21
76.420000000000215
 31
0.0
  0
LINE
  5
335
100
AcDbEntity
  8
0
 62
256
370
-1
 48
1.0
  6
ByLayer
100
AcDbLine
 10
21.779999999999649
 20
76.420000000000215
 30
0.0
 11
15.05999999999964
 21
76.420000000000215
 31
0.0
  0
LINE
  5
336
100
AcDbEntity
  8
0
 62
256
370
-1
 48
1.0
  6
ByLayer
100
AcDbLine
 10
15.05999999999964
 20
76.420000000000215
 30
0.0
 11
15.05999999999964
 21
91.420000000000215
 31
0.0
  0
LINE
  5
337
100
AcDbEntity
  8
0
 62
256
370
-1
 48
1.0
  6
ByLayer
100
AcDbLine
 10
15.05999999999964
 20
91.420000000000215
 30
0.0
 11
21.779999999999639
 21
91.420000000000215
 31
0.0
  0
LINE
  5
338
100
AcDbEntity
  8
0
 62
256
370
-1
 48
1.0
  6
ByLayer
100
AcDbLine
 10
-27.779999999999916
 20
-70.339999999999932
 30
0.0
 11
-44.299999999999912
 21
-70.339999999999932
 31
0.0
  0
LINE
  5
339
100
AcDbEntity
  8
0
 62
256
370
-1
 48
1.0
  6
ByLayer
100
AcDbLine
 10
-44.299999999999912
 20
-70.339999999999932
 30
0.0
 11
-44.299999999999905
 21
-63.619999999999955
 31
0.0
  0
LINE
  5
33A
100
AcDbEntity
  8
0
 62
256
370
-1
 48
1.0
  6
ByLayer
100
AcDbLine
 10
-44.299999999999905
 20
-63.619999999999955
 30
0.0
 11
-60.819999999999908
 21
-63.619999999999926
 31
0.0
  0
LINE
  5
33B
100
AcDbEntity
  8
0
 62
256
370
-1
 48
1.0
  6
ByLayer
100
AcDbLine
 10
-60.819999999999908
 20
-63.619999999999926
 30
0.0
 11
-60.819999999999915
 21
-70.339999999999918
 31
0.0
  0
LINE
  5
33C
100
AcDbEntity
  8
0
 62
256
370
-1
 48
1.0
  6
ByLayer
100
AcDbLine
 10
-60.819999999999915
 20
-70.339999999999918
 30
0.0
 11
-84.059999999999945
 21
-70.339999999999918
 31
0.0
  0
LINE
  5
33D
100
AcDbEntity
  8
0
 62
256
370
-1
 48
1.0
  6
ByLayer
100
AcDbLine
 10
-84.059999999999945
 20
-70.339999999999918
 30
0.0
 11
-84.059999999999704
 21
136.18000000000009
 31
0.0
  0
LINE
  5
33E
100
AcDbEntity
  8
0
 62
256
370
-1
 48
1.0
  6
ByLayer
100
AcDbLine
 10
28.500000000000117
 20
142.90000000000012
 30
0.0
 11
-27.779999999999859
 21
142.90000000000012
 31
0.0
  0
LINE
  5
33F
100
AcDbEntity
  8
0
 62
256
370
-1
 48
1.0
  6
ByLayer
100
AcDbLine
 10
-27.779999999999802
 20
-63.619999999999891
 30
0.0
 11
-11.259999999999806
 21
-63.619999999999884
 31
0.0
  0
LINE
  5
340
100
AcDbEntity
  8
0
 62
256
370
-1
 48
1.0
  6
ByLayer
100
AcDbLine
 10
-11.259999999999806
 20
-63.619999999999884
 30
0.0
 11
-11.259999999999806
 21
-56.899999999999892
 31
0.0
  0
LINE
  5
341
100
AcDbEntity
  8
0
 62
256
370
-1
 48
1.0
  6
ByLayer
100
AcDbLine
 10
-11.259999999999806
 20
-56.899999999999892
 30
0.0
 11
5.260000000000197
 21
-56.899999999999892
 31
0.0
  0
LINE
  5
342
100
AcDbEntity
  8
0
 62
256
370
-1
 48
1.0
  6
ByLayer
100
AcDbLine
 10
5.260000000000197
 20
-56.899999999999892
 30
0.0
 11
5.260000000000197
 21
-63.619999999999884
 31
0.0
  0
LINE
  5
343
100
AcDbEntity
  8
0
 62
256
370
-1
 48
1.0
  6
ByLayer
100
AcDbLine
 10
5.260000000000197
 20
-63.619999999999884
 30
0.0
 11
28.500000000000227
 21
-63.619999999999891
 31
0.0
  0
CIRCLE
  5
344
100
AcDbEntity
  8
0
 62
256
370
-1
 48
1.0
  6
ByLayer
100
AcDbCircle
 10
-17.779999999999802
 20
-38.899999999999878
 30
0.0
 40
1.575
  0
CIRCLE
  5
345
100
AcDbEntity
  8
0
 62
256
370
-1
 48
1.0
  6
ByLayer
100
AcDbCircle
 10
-37.779999999999895
 20
-45.619999999999941
 30
0.0
 40
1.575
  0
CIRCLE
  5
346
100
AcDbEntity
  8
0
 62
256
370
-1
 48
1.0
  6
ByLayer
100
AcDbCircle
 10
16.11000000000022
 20
-60.259999999999884
 30
0.0
 40
1.575
  0
CIRCLE
  5
347
100
AcDbEntity
  8
0
 62
256
370
-1
 48
1.0
  6
ByLayer
100
AcDbCircle
 10
-71.669999999999931
 20
-66.979999999999919
 30
0.0
 40
1.575
  0
CIRCLE
  5
348
100
AcDbEntity
  8
0
 62
256
370
-1
 48
1.0
  6
ByLayer
100
AcDbCircle
 10
17.779999999999639
 20
98.920000000000101
 30
0.0
 40
1.5750000000000111
  0
CIRCLE
  5
349
100
AcDbEntity
  8
0
 62
256
370
-1
 48
1.0
  6
ByLayer
100
AcDbCircle
 10
-73.339999999999321
 20
92.200000000000102
 30
0.0
 40
1.5750000000000111
  0
LINE
  5
34A
100
AcDbEntity
  8
0
 62
256
370
-1
 48
1.0
  6
ByLayer
100
AcDbLine
 10
113.62666666666678
 20
99.999999999999972
 30
0.0
 11
90.81333333333346
 21
99.999999999999943
 31
0.0
  0
LINE
  5
34B
100
AcDbEntity
  8
0
 62
256
370
-1
 48
1.0
  6
ByLayer
100
AcDbLine
 10
90.81333333333346
 20
99.999999999999943
 30
0.0
 11
90.813333333333446
 21
106.71999999999997
 31
0.0
  0
LINE
  5
34C
100
AcDbEntity
  8
0
 62
256
370
-1
 48
1.0
  6
ByLayer
100
AcDbLine
 10
90.813333333333446
 20
106.71999999999997
 30
0.0
 11
113.62666666666678
 21
106.71999999999997
 31
0.0
  0
LINE
  5
34D
100
AcDbEntity
  8
0
 62
256
370
-1
 48
1.0
  6
ByLayer
100
AcDbLine
 10
113.62666666666678
 20
106.71999999999997
 30
0.0
 11
113.62666666666678
 21
99.999999999999972
 31
0.0
  0
LINE
  5
34E
100
AcDbEntity
  8
0
 62
256
370
-1
 48
1.0
  6
ByLayer
100
AcDbLine
 10
72.780000000000058
 20
118.17499999999993
 30
0.0
 11
68.000000000000057
 21
118.17499999999993
 31
0.0
  0
LINE
  5
34F
100
AcDbEntity
  8
0
 62
256
370
-1
 48
1.0
  6
ByLayer
100
AcDbLine
 10
68.000000000000085
 20
99.999999999999943
 30
0.0
 11
61.279999999999987
 21
99.999999999999915
 31
0.0
  0
LINE
  5
350
100
AcDbEntity
  8
0
 62
256
370
-1
 48
1.0
  6
ByLayer
100
AcDbLine
 10
68.000000000000085
 20
-125.0
 30
0.0
 11
68.000000000000085
 21
-118.28
 31
0.0
  0
LINE
  5
351
100
AcDbEntity
  8
0
 62
256
370
-1
 48
1.0
  6
ByLayer
100
AcDbLine
 10
68.000000000000085
 20
-118.28
 30
0.0
 11
90.813333333333418
 21
-118.28
 31
0.0
  0
LINE
  5
352
100
AcDbEntity
  8
0
 62
256
370
-1
 48
1.0
  6
ByLayer
100
AcDbLine
 10
90.813333333333418
 20
-118.28
 30
0.0
 11
90.813333333333432
 21
-125.0
 31
0.0
  0
LINE
  5
353
100
AcDbEntity
  8
0
 62
256
370
-1
 48
1.0
  6
ByLayer
100
AcDbLine
 10
90.813333333333432
 20
-125.0
 30
0.0
 11
113.62666666666675
 21
-125.0
 31
0.0
  0
LINE
  5
354
100
AcDbEntity
  8
0
 62
256
370
-1
 48
1.0
  6
ByLayer
100
AcDbLine
 10
113.62666666666675
 20
-125.0
 30
0.0
 11
113.62666666666675
 21
-118.28
 31
0.0
  0
LINE
  5
355
100
AcDbEntity
  8
0
 62
256
370
-1
 48
1.0
  6
ByLayer
100
AcDbLine
 10
113.62666666666675
 20
-118.28
 30
0.0
 11
136.44000000000008
 21
-118.28
 31
0.0
  0
LINE
  5
356
100
AcDbEntity
  8
0
 62
256
370
-1
 48
1.0
  6
ByLayer
100
AcDbLine
 10
136.44000000000008
 20
-118.28
 30
0.0
 11
136.44000000000008
 21
-125.0
 31
0.0
  0
LINE
  5
357
100
AcDbEntity
  8
0
 62
256
370
-1
 48
1.0
  6
ByLayer
100
AcDbLine
 10
136.44000000000008
 20
-125.0
 30
0.0
 11
143.16000000000017
 21
-125.0
 31
0.0
  0
LINE
  5
358
100
AcDbEntity
  8
0
 62
256
370
-1
 48
1.0
  6
ByLayer
100
AcDbLine
 10
143.16000000000017
 20
-125.0
 30
0.0
 11
143.16000000000003
 21
100.0
 31
0.0
  0
LINE
  5
359
100
AcDbEntity
  8
0
 62
256
370
-1
 48
1.0
  6
ByLayer
100
AcDbLine
 10
143.16000000000003
 20
100.0
 30
0.0
 11
136.44000000000017
 21
100.0
 31
0.0
  0
LINE
  5
35A
100
AcDbEntity
  8
0
 62
256
370
-1
 48
1.0
  6
ByLayer
100
AcDbLine
 10
136.44000000000017
 20
100.0
 30
0.0
 11
136.44000000000014
 21
118.17499999999998
 31
0.0
  0
LINE
  5
35B
100
AcDbEntity
  8
0
 62
256
370
-1
 48
1.0
  6
ByLayer
100
AcDbLine
 10
136.44000000000014
 20
118.17499999999998
 30
0.0
 11
131.66000000000014
 21
118.17499999999998
 31
0.0
  0
LINE
  5
35C
100
AcDbEntity
  8
0
 62
256
370
-1
 48
1.0
  6
ByLayer
100
AcDbLine
 10
131.66000000000014
 20
118.17499999999998
 30
0.0
 11
131.66000000000014
 21
117.14999999999998
 31
0.0
  0
ARC
  5
35D
100
AcDbEntity
  8
0
 62
256
370
-1
 48
1.0
  6
ByLayer
100
AcDbCircle
 10
131.66000000000014
 20
116.89999999999998
 30
0.0
 40
0.2499999999999989
100
AcDbArc
 50
180.0
 51
90.0
  0
LINE
  5
35E
100
AcDbEntity
  8
0
 62
256
370
-1
 48
1.0
  6
ByLayer
100
AcDbLine
 10
131.41000000000014
 20
116.89999999999998
 30
0.0
 11
129.41000000000014
 21
116.89999999999998
 31
0.0
  0
ARC
  5
35F
100
AcDbEntity
  8
0
 62
256
370
-1
 48
1.0
  6
ByLayer
100
AcDbCircle
 10
129.16000000000014
 20
116.89999999999998
 30
0.0
 40
0.25
100
AcDbArc
 50
90.0
 51
0.0
  0
LINE
  5
360
100
AcDbEntity
  8
0
 62
256
370
-1
 48
1.0
  6
ByLayer
100
AcDbLine
 10
129.16000000000014
 20
117.14999999999998
 30
0.0
 11
129.16000000000014
 21
118.17499999999998
 31
0.0
  0
LINE
  5
361
100
AcDbEntity
  8
0
 62
256
370
-1
 48
1.0
  6
ByLayer
100
AcDbLine
 10
129.16000000000014
 20
118.17499999999998
 30
0.0
 11
128.16000000000014
 21
118.17499999999998
 31
0.0
  0
LINE
  5
362
100
AcDbEntity
  8
0
 62
256
370
-1
 48
1.0
  6
ByLayer
100
AcDbLine
 10
128.16000000000014
 20
118.17499999999998
 30
0.0
 11
128.16000000000014
 21
121.32499999999999
 31
0.0
  0
LINE
  5
363
100
AcDbEntity
  8
0
 62
256
370
-1
 48
1.0
  6
ByLayer
100
AcDbLine
 10
128.16000000000014
 20
121.32499999999999
 30
0.0
 11
129.16000000000014
 21
121.32499999999999
 31
0.0
  0
LINE
  5
364
100
AcDbEntity
  8
0
 62
256
370
-1
 48
1.0
  6
ByLayer
100
AcDbLine
 10
129.16000000000014
 20
121.32499999999999
 30
0.0
 11
129.16000000000014
 21
122.34999999999997
 31
0.0
  0
ARC
  5
365
100
AcDbEntity
  8
0
 62
256
370
-1
 48
1.0
  6
ByLayer
100
AcDbCircle
 10
129.16000000000014
 20
122.59999999999997
 30
0.0
 40
0.25
100
AcDbArc
 50
0.0
 51
270.0
  0
LINE
  5
366
100
AcDbEntity
  8
0
 62
256
370
-1
 48
1.0
  6
ByLayer
100
AcDbLine
 10
129.41000000000014
 20
122.59999999999997
 30
0.0
 11
131.41000000000014
 21
122.59999999999997
 31
0.0
  0
ARC
  5
367
100
AcDbEntity
  8
0
 62
256
370
-1
 48
1.0
  6
ByLayer
100
AcDbCircle
 10
131.66000000000014
 20
122.59999999999997
 30
0.0
 40
0.25
100
AcDbArc
 50
270.0
 51
180.0
  0
LINE
  5
368
100
AcDbEntity
  8
0
 62
256
370
-1
 48
1.0
  6
ByLayer
100
AcDbLine
 10
131.66000000000014
 20
122.34999999999997
 30
0.0
 11
131.66000000000014
 21
121.32499999999999
 31
0.0
  0
LINE
  5
369
100
AcDbEntity
  8
0
 62
256
370
-1
 48
1.0
  6
ByLayer
100
AcDbLine
 10
131.66000000000014
 20
121.32499999999999
 30
0.0
 11
136.44000000000014
 21
121.32499999999999
 31
0.0
  0
LINE
  5
36A
100
AcDbEntity
  8
0
 62
256
370
-1
 48
1.0
  6
ByLayer
100
AcDbLine
 10
136.44000000000014
 20
121.32499999999999
 30
0.0
 11
136.44000000000014
 21
373.67499999999978
 31
0.0
  0
LINE
  5
36B
100
AcDbEntity
  8
0
 62
256
370
-1
 48
1.0
  6
ByLayer
100
AcDbLine
 10
136.44000000000014
 20
373.67499999999978
 30
0.0
 11
131.66000000000014
 21
373.67499999999978
 31
0.0
  0
LINE
  5
36C
100
AcDbEntity
  8
0
 62
256
370
-1
 48
1.0
  6
ByLayer
100
AcDbLine
 10
131.66000000000014
 20
373.67499999999978
 30
0.0
 11
131.66000000000014
 21
372.64999999999981
 31
0.0
  0
ARC
  5
36D
100
AcDbEntity
  8
0
 62
256
370
-1
 48
1.0
  6
ByLayer
100
AcDbCircle
 10
131.66000000000014
 20
372.39999999999981
 30
0.0
 40
0.25
100
AcDbArc
 50
180.0
 51
90.0
  0
LINE
  5
36E
100
AcDbEntity
  8
0
 62
256
370
-1
 48
1.0
  6
ByLayer
100
AcDbLine
 10
131.41000000000014
 20
372.39999999999981
 30
0.0
 11
129.41000000000014
 21
372.39999999999981
 31
0.0
  0
ARC
  5
36F
100
AcDbEntity
  8
0
 62
256
370
-1
 48
1.0
  6
ByLayer
100
AcDbCircle
 10
129.16000000000014
 20
372.39999999999981
 30
0.0
 40
0.25
100
AcDbArc
 50
90.0
 51
0.0
  0
LINE
  5
370
100
AcDbEntity
  8
0
 62
256
370
-1
 48
1.0
  6
ByLayer
100
AcDbLine
 10
129.16000000000014
 20
372.64999999999981
 30
0.0
 11
129.16000000000014
 21
373.67499999999978
 31
0.0
  0
LINE
  5
371
100
AcDbEntity
  8
0
 62
256
370
-1
 48
1.0
  6
ByLayer
100
AcDbLine
 10
129.16000000000014
 20
373.67499999999978
 30
0.0
 11
128.16000000000014
 21
373.67499999999978
 31
0.0
  0
LINE
  5
372
100
AcDbEntity
  8
0
 62
256
370
-1
 48
1.0
  6
ByLayer
100
AcDbLine
 10
128.16000000000014
 20
373.67499999999978
 30
0.0
 11
128.16000000000014
 21
376.82499999999976
 31
0.0
  0
LINE
  5
373
100
AcDbEntity
  8
0
 62
256
370
-1
 48
1.0
  6
ByLayer
100
AcDbLine
 10
128.16000000000014
 20
376.82499999999976
 30
0.0
 11
129.16000000000014
 21
376.82499999999976
 31
0.0
  0
LINE
  5
374
100
AcDbEntity
  8
0
 62
256
370
-1
 48
1.0
  6
ByLayer
100
AcDbLine
 10
129.16000000000014
 20
376.82499999999976
 30
0.0
 11
129.16000000000014
 21
377.84999999999974
 31
0.0
  0
ARC
  5
375
100
AcDbEntity
  8
0
 62
256
370
-1
 48
1.0
  6
ByLayer
100
AcDbCircle
 10
129.16000000000003
 20
378.09999999999985
 30
0.0
 40
0.2500000000001137
100
AcDbArc
 50
0.0
 51
270.00000000002603
  0
LINE
  5
376
100
AcDbEntity
  8
0
 62
256
370
-1
 48
1.0
  6
ByLayer
100
AcDbLine
 10
129.41000000000014
 20
378.09999999999997
 30
0.0
 11
131.41000000000014
 21
378.09999999999997
 31
0.0
  0
ARC
  5
377
100
AcDbEntity
  8
0
 62
256
370
-1
 48
1.0
  6
ByLayer
100
AcDbCircle
 10
131.66000000000025
 20
378.09999999999985
 30
0.0
 40
0.2500000000001137
100
AcDbArc
 50
269.99999999997397
 51
180.0
  0
LINE
  5
378
100
AcDbEntity
  8
0
 62
256
370
-1
 48
1.0
  6
ByLayer
100
AcDbLine
 10
131.66000000000014
 20
377.84999999999974
 30
0.0
 11
131.66000000000014
 21
376.82499999999976
 31
0.0
  0
LINE
  5
379
100
AcDbEntity
  8
0
 62
256
370
-1
 48
1.0
  6
ByLayer
100
AcDbLine
 10
131.66000000000014
 20
376.82499999999976
 30
0.0
 11
136.44000000000014
 21
376.82499999999976
 31
0.0
  0
LINE
  5
37A
100
AcDbEntity
  8
0
 62
256
370
-1
 48
1.0
  6
ByLayer
100
AcDbLine
 10
136.44000000000014
 20
376.82499999999976
 30
0.0
 11
136.44000000000014
 21
388.27999999999997
 31
0.0
  0
LINE
  5
37B
100
AcDbEntity
  8
0
 62
256
370
-1
 48
1.0
  6
ByLayer
100
AcDbLine
 10
136.44000000000014
 20
388.27999999999997
 30
0.0
 11
113.62666666666686
 21
388.27999999999997
 31
0.0
  0
LINE
  5
37C
100
AcDbEntity
  8
0
 62
256
370
-1
 48
1.0
  6
ByLayer
100
AcDbLine
 10
113.62666666666686
 20
388.27999999999997
 30
0.0
 11
113.62666666666686
 21
394.99999999999977
 31
0.0
  0
LINE
  5
37D
100
AcDbEntity
  8
0
 62
256
370
-1
 48
1.0
  6
ByLayer
100
AcDbLine
 10
113.62666666666686
 20
394.99999999999977
 30
0.0
 11
90.813333333333532
 21
395.0
 31
0.0
  0
LINE
  5
37E
100
AcDbEntity
  8
0
 62
256
370
-1
 48
1.0
  6
ByLayer
100
AcDbLine
 10
90.813333333333532
 20
395.0
 30
0.0
 11
90.81333333333356
 21
388.27999999999997
 31
0.0
  0
LINE
  5
37F
100
AcDbEntity
  8
0
 62
256
370
-1
 48
1.0
  6
ByLayer
100
AcDbLine
 10
90.81333333333356
 20
388.27999999999997
 30
0.0
 11
68.000000000000171
 21
388.27999999999997
 31
0.0
  0
LINE
  5
380
100
AcDbEntity
  8
0
 62
256
370
-1
 48
1.0
  6
ByLayer
100
AcDbLine
 10
67.999999999999517
 20
376.82499999999976
 30
0.0
 11
72.779999999999518
 21
376.82499999999976
 31
0.0
  0
LINE
  5
381
100
AcDbEntity
  8
0
 62
256
370
-1
 48
1.0
  6
ByLayer
100
AcDbLine
 10
72.779999999999518
 20
376.82499999999976
 30
0.0
 11
72.779999999999518
 21
377.84999999999974
 31
0.0
  0
ARC
  5
382
100
AcDbEntity
  8
0
 62
256
370
-1
 48
1.0
  6
ByLayer
100
AcDbCircle
 10
72.779999999999518
 20
378.09999999999974
 30
0.0
 40
0.2500000000000071
100
AcDbArc
 50
0.0
 51
270.0
  0
LINE
  5
383
100
AcDbEntity
  8
0
 62
256
370
-1
 48
1.0
  6
ByLayer
100
AcDbLine
 10
73.029999999999532
 20
378.09999999999974
 30
0.0
 11
75.029999999999532
 21
378.09999999999974
 31
0.0
  0
ARC
  5
384
100
AcDbEntity
  8
0
 62
256
370
-1
 48
1.0
  6
ByLayer
100
AcDbCircle
 10
75.279999999999546
 20
378.09999999999974
 30
0.0
 40
0.2500000000000071
100
AcDbArc
 50
270.0
 51
180.0
  0
LINE
  5
385
100
AcDbEntity
  8
0
 62
256
370
-1
 48
1.0
  6
ByLayer
100
AcDbLine
 10
75.279999999999546
 20
377.84999999999974
 30
0.0
 11
75.279999999999546
 21
376.82499999999976
 31
0.0
  0
LINE
  5
386
100
AcDbEntity
  8
0
 62
256
370
-1
 48
1.0
  6
ByLayer
100
AcDbLine
 10
75.279999999999546
 20
376.82499999999976
 30
0.0
 11
76.279999999999532
 21
376.82499999999976
 31
0.0
  0
LINE
  5
387
100
AcDbEntity
  8
0
 62
256
370
-1
 48
1.0
  6
ByLayer
100
AcDbLine
 10
76.279999999999532
 20
376.82499999999976
 30
0.0
 11
76.279999999999532
 21
373.67499999999967
 31
0.0
  0
LINE
  5
388
100
AcDbEntity
  8
0
 62
256
370
-1
 48
1.0
  6
ByLayer
100
AcDbLine
 10
76.279999999999532
 20
373.67499999999967
 30
0.0
 11
75.279999999999546
 21
373.67499999999967
 31
0.0
  0
LINE
  5
389
100
AcDbEntity
  8
0
 62
256
370
-1
 48
1.0
  6
ByLayer
100
AcDbLine
 10
75.279999999999546
 20
373.67499999999967
 30
0.0
 11
75.279999999999546
 21
372.64999999999969
 31
0.0
  0
ARC
  5
38A
100
AcDbEntity
  8
0
 62
256
370
-1
 48
1.0
  6
ByLayer
100
AcDbCircle
 10
75.279999999999475
 20
372.39999999999975
 30
0.0
 40
0.2499999999999573
100
AcDbArc
 50
180.0
 51
89.999999999983714
  0
LINE
  5
38B
100
AcDbEntity
  8
0
 62
256
370
-1
 48
1.0
  6
ByLayer
100
AcDbLine
 10
75.029999999999518
 20
372.39999999999981
 30
0.0
 11
73.029999999999532
 21
372.39999999999981
 31
0.0
  0
ARC
  5
38C
100
AcDbEntity
  8
0
 62
256
370
-1
 48
1.0
  6
ByLayer
100
AcDbCircle
 10
72.779999999999603
 20
372.39999999999975
 30
0.0
 40
0.249999999999936
100
AcDbArc
 50
90.000000000013031
 51
0.0
  0
LINE
  5
38D
100
AcDbEntity
  8
0
 62
256
370
-1
 48
1.0
  6
ByLayer
100
AcDbLine
 10
72.779999999999546
 20
372.64999999999969
 30
0.0
 11
72.779999999999546
 21
373.67499999999967
 31
0.0
  0
LINE
  5
38E
100
AcDbEntity
  8
0
 62
256
370
-1
 48
1.0
  6
ByLayer
100
AcDbLine
 10
72.779999999999546
 20
373.67499999999967
 30
0.0
 11
67.999999999999531
 21
373.67499999999967
 31
0.0
  0
LINE
  5
38F
100
AcDbEntity
  8
0
 62
256
370
-1
 48
1.0
  6
ByLayer
100
AcDbLine
 10
68.000000000000043
 20
121.32499999999993
 30
0.0
 11
72.780000000000058
 21
121.32499999999993
 31
0.0
  0
LINE
  5
390
100
AcDbEntity
  8
0
 62
256
370
-1
 48
1.0
  6
ByLayer
100
AcDbLine
 10
72.780000000000058
 20
121.32499999999993
 30
0.0
 11
72.780000000000058
 21
122.34999999999991
 31
0.0
  0
ARC
  5
391
100
AcDbEntity
  8
0
 62
256
370
-1
 48
1.0
  6
ByLayer
100
AcDbCircle
 10
72.780000000000058
 20
122.59999999999991
 30
0.0
 40
0.25
100
AcDbArc
 50
0.0
 51
270.0
  0
LINE
  5
392
100
AcDbEntity
  8
0
 62
256
370
-1
 48
1.0
  6
ByLayer
100
AcDbLine
 10
73.030000000000058
 20
122.59999999999991
 30
0.0
 11
75.030000000000058
 21
122.59999999999991
 31
0.0
  0
ARC
  5
393
100
AcDbEntity
  8
0
 62
256
370
-1
 48
1.0
  6
ByLayer
100
AcDbCircle
 10
75.280000000000058
 20
122.59999999999991
 30
0.0
 40
0.25
100
AcDbArc
 50
270.0
 51
180.0
  0
LINE
  5
394
100
AcDbEntity
  8
0
 62
256
370
-1
 48
1.0
  6
ByLayer
100
AcDbLine
 10
75.280000000000058
 20
122.34999999999991
 30
0.0
 11
75.280000000000058
 21
121.32499999999993
 31
0.0
  0
LINE
  5
395
100
AcDbEntity
  8
0
 62
256
370
-1
 48
1.0
  6
ByLayer
100
AcDbLine
 10
75.280000000000058
 20
121.32499999999993
 30
0.0
 11
76.280000000000058
 21
121.32499999999993
 31
0.0
  0
LINE
  5
396
100
AcDbEntity
  8
0
 62
256
370
-1
 48
1.0
  6
ByLayer
100
AcDbLine
 10
76.280000000000058
 20
121.32499999999993
 30
0.0
 11
76.280000000000058
 21
118.17499999999993
 31
0.0
  0
LINE
  5
397
100
AcDbEntity
  8
0
 62
256
370
-1
 48
1.0
  6
ByLayer
100
AcDbLine
 10
76.280000000000058
 20
118.17499999999993
 30
0.0
 11
75.280000000000058
 21
118.17499999999993
 31
0.0
  0
LINE
  5
398
100
AcDbEntity
  8
0
 62
256
370
-1
 48
1.0
  6
ByLayer
100
AcDbLine
 10
75.280000000000058
 20
118.17499999999993
 30
0.0
 11
75.280000000000058
 21
117.14999999999992
 31
0.0
  0
ARC
  5
399
100
AcDbEntity
  8
0
 62
256
370
-1
 48
1.0
  6
ByLayer
100
AcDbCircle
 10
75.280000000000058
 20
116.89999999999992
 30
0.0
 40
0.25
100
AcDbArc
 50
180.0
 51
90.0
  0
LINE
  5
39A
100
AcDbEntity
  8
0
 62
256
370
-1
 48
1.0
  6
ByLayer
100
AcDbLine
 10
75.030000000000058
 20
116.89999999999992
 30
0.0
 11
73.030000000000058
 21
116.89999999999992
 31
0.0
  0
ARC
  5
39B
100
AcDbEntity
  8
0
 62
256
370
-1
 48
1.0
  6
ByLayer
100
AcDbCircle
 10
72.780000000000058
 20
116.89999999999992
 30
0.0
 40
0.2500000000000011
100
AcDbArc
 50
90.0
 51
0.0
  0
LINE
  5
39C
100
AcDbEntity
  8
0
 62
256
370
-1
 48
1.0
  6
ByLayer
100
AcDbLine
 10
72.780000000000058
 20
117.14999999999992
 30
0.0
 11
72.780000000000058
 21
118.17499999999993
 31
0.0
  0
CIRCLE
  5
39D
100
AcDbEntity
  8
0
 62
256
370
-1
 48
1.0
  6
ByLayer
100
AcDbCircle
 10
102.22000000000013
 20
391.63999999999987
 30
0.0
 40
1.574999999999988
  0
CIRCLE
  5
39E
100
AcDbEntity
  8
0
 62
256
370
-1
 48
1.0
  6
ByLayer
100
AcDbCircle
 10
102.22000000000008
 20
-121.6400000000001
 30
0.0
 40
1.5749999999999931
  0
ENDSEC
  0
SECTION
  2
OBJECTS
  0
DICTIONARY
  5
C
100
AcDbDictionary
280
0
281
1
  3
ACAD_GROUP
350
D
  3
ACAD_LAYOUT
350
1A
  3
ACAD_MLINESTYLE
350
17
  3
ACAD_PLOTSETTINGS
350
19
  3
ACAD_PLOTSTYLENAME
350
E
  3
AcDbVariableDictionary
350
39F
  3
QCAD_OBJECTS
350
3A0
  0
DICTIONARY
  5
D
100
AcDbDictionary
280
0
281
1
  0
ACDBDICTIONARYWDFLT
  5
E
100
AcDbDictionary
281
1
  3
Normal
350
F
100
AcDbDictionaryWithDefault
340
F
  0
ACDBPLACEHOLDER
  5
F
  0
DICTIONARY
  5
17
100
AcDbDictionary
280
0
281
1
  3
Standard
350
18
  0
MLINESTYLE
  5
18
100
AcDbMlineStyle
  2
STANDARD
 70
0
  3

 62
256
 51
90.0
 52
90.0
 71
2
 49
0.5
 62
256
  6
BYLAYER
 49
-0.5
 62
256
  6
BYLAYER
  0
DICTIONARY
  5
19
100
AcDbDictionary
280
0
281
1
  0
DICTIONARY
  5
1A
100
AcDbDictionary
281
1
  3
Layout1
350
1E
  3
Layout2
350
26
  3
Model
350
22
  0
LAYOUT
  5
1E
100
AcDbPlotSettings
  1

  2
none_device
  4

  6

 40
0.0
 41
0.0
 42
0.0
 43
0.0
 44
0.0
 45
0.0
 46
0.0
 47
0.0
 48
0.0
 49
0.0
140
0.0
141
0.0
142
1.0
143
1.0
 70
688
 72
0
 73
0
 74
5
  7

 75
16
147
1.0
148
0.0
149
0.0
100
AcDbLayout
  1
Layout1
 70
1
 71
1
 10
0.0
 20
0.0
 11
420.0
 21
297.0
 12
0.0
 22
0.0
 32
0.0
 14
100000000000000000000.0
 24
100000000000000000000.0
 34
100000000000000000000.0
 15
-100000000000000000000.0
 25
-100000000000000000000.0
 35
-100000000000000000000.0
146
0.0
 13
0.0
 23
0.0
 33
0.0
 16
1.0
 26
0.0
 36
0.0
 17
0.0
 27
1.0
 37
0.0
 76
0
330
1B
  0
LAYOUT
  5
22
100
AcDbPlotSettings
  1

  2
none_device
  4

  6

 40
0.0
 41
0.0
 42
0.0
 43
0.0
 44
0.0
 45
0.0
 46
0.0
 47
0.0
 48
0.0
 49
0.0
140
0.0
141
0.0
142
1.0
143
1.0
 70
1712
 72
0
 73
0
 74
0
  7

 75
0
147
1.0
148
0.0
149
0.0
100
AcDbLayout
  1
Model
 70
1
 71
0
 10
0.0
 20
0.0
 11
12.0
 21
9.0
 12
0.0
 22
0.0
 32
0.0
 14
0.0
 24
0.0
 34
0.0
 15
0.0
 25
0.0
 35
0.0
146
0.0
 13
0.0
 23
0.0
 33
0.0
 16
1.0
 26
0.0
 36
0.0
 17
0.0
 27
1.0
 37
0.0
 76
0
330
1F
  0
LAYOUT
  5
26
100
AcDbPlotSettings
  1

  2
none_device
  4

  6

 40
0.0
 41
0.0
 42
0.0
 43
0.0
 44
0.0
 45
0.0
 46
0.0
 47
0.0
 48
0.0
 49
0.0
140
0.0
141
0.0
142
1.0
143
1.0
 70
688
 72
0
 73
0
 74
5
  7

 75
16
147
1.0
148
0.0
149
0.0
100
AcDbLayout
  1
Layout2
 70
1
 71
2
 10
0.0
 20
0.0
 11
12.0
 21
9.0
 12
0.0
 22
0.0
 32
0.0
 14
0.0
 24
0.0
 34
0.0
 15
0.0
 25
0.0
 35
0.0
146
0.0
 13
0.0
 23
0.0
 33
0.0
 16
1.0
 26
0.0
 36
0.0
 17
0.0
 27
1.0
 37
0.0
 76
0
330
23
  0
DICTIONARY
  5
39F
100
AcDbDictionary
281
1
  3
DIMASSOC
350
3A2
  3
HIDETEXT
350
3A1
  0
DICTIONARYVAR
  5
3A1
100
DictionaryVariables
280
0
  1
2
  0
DICTIONARYVAR
  5
3A2
100
DictionaryVariables
280
0
  1
1
  0
DICTIONARY
  5
3A0
100
AcDbDictionary
281
1
  3
ColorSettings/BackgroundColor
350
3A3
  3
ColorSettings/ColorMode
350
3A4
  3
Grid/DisplayGrid00
350
3A5
  3
Grid/DisplayGrid01
350
3A6
  3
Grid/DisplayGrid02
350
3A7
  3
Grid/DisplayGrid03
350
3A8
  3
Grid/GridSpacingX00
350
3A9
  3
Grid/GridSpacingX01
350
3AA
  3
Grid/GridSpacingX02
350
3AB
  3
Grid/GridSpacingX03
350
3AC
  3
Grid/GridSpacingY00
350
3AD
  3
Grid/GridSpacingY01
350
3AE
  3
Grid/GridSpacingY02
350
3AF
  3
Grid/GridSpacingY03
350
3B0
  3
Grid/IsometricGrid00
350
3B1
  3
Grid/IsometricGrid01
350
3B2
  3
Grid/IsometricGrid02
350
3B3
  3
Grid/IsometricGrid03
350
3B4
  3
Grid/IsometricProjection00
350
3B5
  3
Grid/IsometricProjection01
350
3B6
  3
Grid/IsometricProjection02
350
3B7
  3
Grid/IsometricProjection03
350
3B8
  3
Grid/MetaGridSpacingX00
350
3B9
  3
Grid/MetaGridSpacingX01
350
3BA
  3
Grid/MetaGridSpacingX02
350
3BB
  3
Grid/MetaGridSpacingX03
350
3BC
  3
Grid/MetaGridSpacingY00
350
3BD
  3
Grid/MetaGridSpacingY01
350
3BE
  3
Grid/MetaGridSpacingY02
350
3BF
  3
Grid/MetaGridSpacingY03
350
3C0
  3
MultiPageSettings/Columns
350
3C1
  3
MultiPageSettings/GlueMarginsBottom
350
3C2
  3
MultiPageSettings/GlueMarginsLeft
350
3C3
  3
MultiPageSettings/GlueMarginsRight
350
3C4
  3
MultiPageSettings/GlueMarginsTop
350
3C5
  3
MultiPageSettings/PrintCropMarks
350
3C6
  3
MultiPageSettings/Rows
350
3C7
  3
PageSettings/OffsetX
350
3C8
  3
PageSettings/OffsetY
350
3C9
  3
PageSettings/PageOrientation
350
3CA
  3
PageSettings/PaperHeight
350
3CB
  3
PageSettings/PaperWidth
350
3CC
  3
PageSettings/Scale
350
3CD
  3
PageSettings/ShowPaperBorders
350
3CE
  3
QCADVersion
350
3CF
  3
UnitSettings/PaperUnit
350
3D0
  3
ViewportCenter
350
3D1
  3
ViewportHeight
350
3D2
  3
ViewportWidth
350
3D3
  0
XRECORD
  5
3A3
330
3A0
100
AcDbXrecord
280
1
1000
White
  0
XRECORD
  5
3A4
330
3A0
100
AcDbXrecord
280
1
1000
FullColor
  0
XRECORD
  5
3A5
330
3A0
100
AcDbXrecord
280
1
290
1
  0
XRECORD
  5
3A6
330
3A0
100
AcDbXrecord
280
1
290
1
  0
XRECORD
  5
3A7
330
3A0
100
AcDbXrecord
280
1
290
1
  0
XRECORD
  5
3A8
330
3A0
100
AcDbXrecord
280
1
290
1
  0
XRECORD
  5
3A9
330
3A0
100
AcDbXrecord
280
1
1000
auto
  0
XRECORD
  5
3AA
330
3A0
100
AcDbXrecord
280
1
1000
auto
  0
XRECORD
  5
3AB
330
3A0
100
AcDbXrecord
280
1
1000
auto
  0
XRECORD
  5
3AC
330
3A0
100
AcDbXrecord
280
1
1000
auto
  0
XRECORD
  5
3AD
330
3A0
100
AcDbXrecord
280
1
1000
auto
  0
XRECORD
  5
3AE
330
3A0
100
AcDbXrecord
280
1
1000
auto
  0
XRECORD
  5
3AF
330
3A0
100
AcDbXrecord
280
1
1000
auto
  0
XRECORD
  5
3B0
330
3A0
100
AcDbXrecord
280
1
1000
auto
  0
XRECORD
  5
3B1
330
3A0
100
AcDbXrecord
280
1
290
0
  0
XRECORD
  5
3B2
330
3A0
100
AcDbXrecord
280
1
290
0
  0
XRECORD
  5
3B3
330
3A0
100
AcDbXrecord
280
1
290
0
  0
XRECORD
  5
3B4
330
3A0
100
AcDbXrecord
280
1
290
0
  0
XRECORD
  5
3B5
330
3A0
100
AcDbXrecord
280
1
 90
0
  0
XRECORD
  5
3B6
330
3A0
100
AcDbXrecord
280
1
 90
0
  0
XRECORD
  5
3B7
330
3A0
100
AcDbXrecord
280
1
 90
0
  0
XRECORD
  5
3B8
330
3A0
100
AcDbXrecord
280
1
 90
0
  0
XRECORD
  5
3B9
330
3A0
100
AcDbXrecord
280
1
1000
auto
  0
XRECORD
  5
3BA
330
3A0
100
AcDbXrecord
280
1
1000
auto
  0
XRECORD
  5
3BB
330
3A0
100
AcDbXrecord
280
1
1000
auto
  0
XRECORD
  5
3BC
330
3A0
100
AcDbXrecord
280
1
1000
auto
  0
XRECORD
  5
3BD
330
3A0
100
AcDbXrecord
280
1
1000
auto
  0
XRECORD
  5
3BE
330
3A0
100
AcDbXrecord
280
1
1000
auto
  0
XRECORD
  5
3BF
330
3A0
100
AcDbXrecord
280
1
1000
auto
  0
XRECORD
  5
3C0
330
3A0
100
AcDbXrecord
280
1
1000
auto
  0
XRECORD
  5
3C1
330
3A0
100
AcDbXrecord
280
1
 90
1
  0
XRECORD
  5
3C2
330
3A0
100
AcDbXrecord
280
1
 40
10.0
  0
XRECORD
  5
3C3
330
3A0
100
AcDbXrecord
280
1
 40
10.0
  0
XRECORD
  5
3C4
330
3A0
100
AcDbXrecord
280
1
 40
10.0
  0
XRECORD
  5
3C5
330
3A0
100
AcDbXrecord
280
1
 40
10.0
  0
XRECORD
  5
3C6
330
3A0
100
AcDbXrecord
280
1
290
0
  0
XRECORD
  5
3C7
330
3A0
100
AcDbXrecord
280
1
 90
1
  0
XRECORD
  5
3C8
330
3A0
100
AcDbXrecord
280
1
 40
0.0
  0
XRECORD
  5
3C9
330
3A0
100
AcDbXrecord
280
1
 40
0.0
  0
XRECORD
  5
3CA
330
3A0
100
AcDbXrecord
280
1
1000
Portrait
  0
XRECORD
  5
3CB
330
3A0
100
AcDbXrecord
280
1
 40
297.0
  0
XRECORD
  5
3CC
330
3A0
100
AcDbXrecord
280
1
 40
210.0
  0
XRECORD
  5
3CD
330
3A0
100
AcDbXrecord
280
1
1000
1:1
  0
XRECORD
  5
3CE
330
3A0
100
AcDbXrecord
280
1
290
1
  0
XRECORD
  5
3CF
330
3A0
100
AcDbXrecord
280
1
1000
3.20.1
  0
XRECORD
  5
3D0
330
3A0
100
AcDbXrecord
280
1
 90
4
  0
XRECORD
  5
3D2
330
3A0
100
AcDbXrecord
280
1
 40
835.2529411764707
  0
XRECORD
  5
3D3
330
3A0
100
AcDbXrecord
280
1
 40
1209.2606470588237
  0
ENDSEC
  0
EOF
